<svg width="698" height="493" viewBox="0 0 698 493" fill="none" xmlns="http://www.w3.org/2000/svg">
<path d="M384.183 794.744L385.008 795.948L385.833 794.744L716.214 312.399L716.569 311.88L716.255 311.335L385.874 -261.892L385.008 -263.395L384.141 -261.892L53.7448 311.35L53.4306 311.895L53.7862 312.414L384.183 794.744ZM370.574 206.272V205.272H369.574H264.22V176.454H505.765V205.272H400.411H399.411V206.272V261.667V262.667H400.411H505.765V291.485H400.411H399.411V292.485V347.88V348.88H400.411H505.765V377.698H400.411H399.411V378.698V434.108V435.108H400.411H505.765V463.926H400.411H399.411V464.926V639.464H370.574V464.926V463.926H369.574H264.22V435.108H369.574H370.574V434.108V378.698V377.698H369.574H264.22V348.88H369.574H370.574V347.88V292.485V291.485H369.574H264.22V262.667H369.574H370.574V261.667V206.272ZM1.18068 313.914L385.008 -351.997L768.819 313.914L385.008 874.23L1.18068 313.914ZM384.992 119.035C340.738 119.035 304.738 83.0552 304.738 38.8298C304.738 -5.38019 340.754 -41.3751 384.992 -41.3751C429.261 -41.3751 465.261 -5.39548 465.261 38.8298C465.261 83.055 429.246 119.035 384.992 119.035ZM384.976 90.2169C413.342 90.2169 436.409 67.1651 436.409 38.8298C436.409 10.4947 413.358 -12.5573 384.976 -12.5573C356.626 -12.5573 333.559 10.4947 333.559 38.8298C333.559 67.1649 356.626 90.2169 384.976 90.2169Z" stroke="white" stroke-width="2"/>
</svg>
