<svg width="770" height="1230" viewBox="0 0 770 1230" fill="none" xmlns="http://www.w3.org/2000/svg">
<path d="M385.874 92.1081L385.008 90.605L384.141 92.1081L298.524 240.634L297.66 242.134H299.391H470.609H472.34L471.476 240.635L385.874 92.1081ZM284.067 893.978V894.978H285.067H548.009H549.009V893.978V616.926V615.926H548.009H515.77H514.77V616.926V687.886H285.067H284.067V688.886V893.978ZM284.067 658.068V659.068H285.067H484.933H485.933V658.068V616.926V615.926H484.933H285.067H284.067V616.926V658.068ZM484.933 587.108H485.933V586.108V381.016V380.016H484.933H222.006H221.006V381.016V658.068V659.068H222.006H254.23H255.23V658.068V587.108H484.933ZM384.183 1148.74L385.008 1149.95L385.833 1148.74L538.843 925.376L539.915 923.811H538.018H255.23V688.886V687.886H254.23H192.17V428.922V425.185L190.304 428.423L53.7447 665.35L53.4305 665.895L53.7861 666.415L384.183 1148.74ZM577.83 865.194V868.424L579.655 865.759L716.198 666.399L716.554 665.88L716.24 665.335L489.222 271.452L488.934 270.952H488.356H281.613H281.035L280.747 271.452L235.664 349.683L234.8 351.183H236.53H514.754V586.108V587.108H515.754H577.83V865.194ZM270.65 423.148H436.276V451.966H270.65V423.148ZM270.65 505.115H436.276V533.933H270.65V505.115ZM333.71 741.048H499.336V769.865H333.71V741.048ZM333.71 823.014H499.336V851.832H333.71V823.014ZM385.008 1228.23L1.18068 667.914L385.008 2.00253L768.819 667.914L385.008 1228.23Z" stroke="white" stroke-width="2"/>
</svg>
