<svg width="71" height="80" viewBox="0 0 71 80" fill="none" xmlns="http://www.w3.org/2000/svg">
<path d="M68.0382 24.5589L26.7439 0.724035C25.9191 0.249656 24.9843 0 24.0328 0C23.0813 0 22.1464 0.249656 21.3216 0.724035L2.71133 11.4687C1.88794 11.9458 1.20416 12.6307 0.728371 13.4548C0.252578 14.279 0.00143061 15.2136 0 16.1653V63.8339C0.00150034 64.7856 0.252784 65.7203 0.72874 66.5446C1.2047 67.3688 1.88863 68.0537 2.71222 68.5307L21.334 79.2763C22.1588 79.7505 23.0935 80 24.0449 80C24.9962 80 25.9309 79.7505 26.7557 79.2763L68.0388 55.4414C68.8623 54.9643 69.546 54.2794 70.0219 53.4553C70.4977 52.6311 70.749 51.6965 70.7505 50.7448V29.2558C70.7489 28.304 70.4975 27.3694 70.0215 26.5452C69.5456 25.721 68.8617 25.0361 68.0382 24.5589Z" fill="#36364C"/>
<path d="M42.3656 67.8735C42.6853 67.6889 42.9508 67.4234 43.1353 67.1036C43.3199 66.7839 43.4171 66.4212 43.4171 66.052C43.4171 65.6828 43.3199 65.3201 43.1353 65.0004C42.9508 64.6806 42.6853 64.4151 42.3656 64.2305L35.0912 60.0306L27.817 55.8308C27.4972 55.6461 27.1345 55.5489 26.7653 55.549C26.396 55.549 26.0333 55.6462 25.7136 55.8308C25.3938 56.0154 25.1283 56.2809 24.9436 56.6007C24.759 56.9205 24.6619 57.2832 24.6619 57.6524V74.4519C24.6621 74.821 24.7595 75.1835 24.9442 75.5031C25.129 75.8226 25.3945 76.088 25.7142 76.2724C26.034 76.4568 26.3965 76.5539 26.7656 76.5538C27.1347 76.5538 27.4973 76.4566 27.817 76.272L42.3656 67.8735Z" fill="#0085FF"/>
<path d="M21.773 2.61195L5.05364 12.2647C4.80374 12.409 4.5962 12.6166 4.45192 12.8665C4.30764 13.1165 4.23169 13.4 4.23169 13.6886C4.23169 13.9771 4.30764 14.2606 4.45192 14.5106C4.5962 14.7605 4.80374 14.9681 5.05364 15.1124L20.6034 24.0907C21.6516 24.696 22.8406 25.0146 24.0511 25.0146C25.2615 25.0146 26.4506 24.696 27.4988 24.0907L43.0422 15.1166C43.2921 14.9723 43.4997 14.7648 43.644 14.5149C43.7883 14.265 43.8642 13.9815 43.8642 13.6929C43.8642 13.4044 43.7883 13.1209 43.644 12.871C43.4997 12.6211 43.2921 12.4135 43.0422 12.2693L26.3157 2.61195C25.625 2.21337 24.8417 2.00354 24.0443 2.00354C23.2469 2.00354 22.4636 2.21337 21.773 2.61195Z" fill="#FF2A00"/>
<path d="M1.98944 39.8651V64.427C1.98941 64.8171 2.0921 65.2004 2.28717 65.5383C2.48224 65.8762 2.76282 66.1567 3.10071 66.3518L20.7953 76.5677C21.0634 76.7225 21.3675 76.804 21.677 76.804C21.9865 76.8041 22.2906 76.7226 22.5587 76.5679C22.8267 76.4131 23.0494 76.1905 23.2041 75.9225C23.3589 75.6544 23.4405 75.3503 23.4405 75.0408V30.8326C23.4404 29.7072 23.1441 28.6016 22.5813 27.627C22.0186 26.6523 21.2092 25.843 20.2345 25.2803L4.59952 16.2533C4.33497 16.1005 4.03491 16.0201 3.72944 16.0201C3.42397 16.0202 3.1239 16.1006 2.85937 16.2534C2.59484 16.4061 2.37514 16.6258 2.22244 16.8904C2.06974 17.155 1.98938 17.4551 1.98944 17.7605V39.8651Z" fill="#FF9B00"/>
<path d="M68.7979 48.2836V28.3417C68.7979 27.9737 68.701 27.6122 68.517 27.2934C68.3329 26.9747 68.0683 26.7101 67.7496 26.5261L49.9812 16.2675C49.7142 16.1134 49.4114 16.0323 49.1032 16.0323C48.7949 16.0324 48.4921 16.1135 48.2252 16.2677C47.9583 16.4218 47.7366 16.6435 47.5825 16.9104C47.4284 17.1774 47.3473 17.4802 47.3473 17.7884V38.3201C47.3472 38.6881 47.4441 39.0496 47.628 39.3683C47.812 39.687 48.0766 39.9517 48.3953 40.1357L65.6528 50.0992C65.9715 50.2832 66.3331 50.3801 66.7011 50.3801C67.0691 50.3801 67.4307 50.2833 67.7494 50.0993C68.0682 49.9153 68.3329 49.6506 68.5169 49.3319C68.7009 49.0132 68.7978 48.6516 68.7979 48.2836Z" fill="white"/>
<path d="M27.7666 50.1231L44.8968 40.2333C45.2738 40.0156 45.5869 39.7025 45.8045 39.3254C46.0221 38.9483 46.1365 38.5205 46.1362 38.0851V18.2542C46.1362 17.8973 46.0422 17.5467 45.8637 17.2376C45.6852 16.9285 45.4285 16.6718 45.1194 16.4934C44.8103 16.3149 44.4596 16.221 44.1027 16.2209C43.7458 16.2209 43.3951 16.3149 43.086 16.4933L28.4619 24.9369C27.3063 25.604 26.3466 26.5636 25.6794 27.7192C25.0122 28.8748 24.661 30.1857 24.6611 31.5201V48.328C24.6607 48.6916 24.7562 49.0489 24.9378 49.3639C25.1193 49.6789 25.3806 49.9405 25.6954 50.1225C26.0102 50.3044 26.3673 50.4003 26.7309 50.4004C27.0945 50.4005 27.4517 50.3048 27.7666 50.1231Z" fill="white"/>
<path d="M27.4739 54.2364L45.6186 64.7123C45.9565 64.9074 46.3398 65.01 46.73 65.01C47.1202 65.01 47.5035 64.9074 47.8414 64.7123L66.1515 54.1409C66.3587 54.0216 66.5308 53.8498 66.6505 53.6428C66.7701 53.4359 66.8332 53.201 66.8332 52.9619C66.8332 52.7228 66.7701 52.488 66.6505 52.281C66.5308 52.074 66.3587 51.9022 66.1515 51.7829L47.8414 41.2121C47.5036 41.0169 47.1203 40.9142 46.7301 40.9142C46.34 40.9142 45.9568 41.0169 45.6189 41.2121L27.4739 51.6877C27.2502 51.8169 27.0645 52.0026 26.9354 52.2263C26.8063 52.45 26.7383 52.7038 26.7383 52.9621C26.7383 53.2203 26.8063 53.4741 26.9354 53.6978C27.0645 53.9215 27.2502 54.1072 27.4739 54.2364Z" fill="white"/>
<path d="M54.5152 44.0921L46.7856 30.67L39.0558 44.0921L46.7856 49.0196L54.5152 44.0921ZM47.3506 39.5903V33.8992L52.2479 42.3938L47.3506 39.5903ZM52.7014 43.9223L47.3506 47.3198V40.8926L52.7014 43.9223ZM46.2173 39.5903L41.3472 42.3651L46.2173 33.9007V39.5903ZM46.2173 40.8926V47.3198L40.8666 43.9223L46.2173 40.8926Z" fill="#36364C"/>
<path d="M46.7847 50.6043L39.0549 45.6768L46.7847 56.974L54.5143 45.6768L46.7847 50.6043ZM46.1901 51.5671L46.2182 51.5952V54.172L43.1045 49.5849L46.1901 51.5671ZM50.4937 49.5849L47.3497 54.172V51.5952L47.3778 51.5671L50.4937 49.5849Z" fill="#36364C"/>
</svg>
