<svg width="379" height="591" viewBox="0 0 379 591" fill="none" xmlns="http://www.w3.org/2000/svg">
<path d="M370.603 309.347L370.604 309.348L377.427 320.901L369.713 331.903L207.265 563.657L189.308 589.267L171.352 563.657L8.8962 331.903L1.18256 320.9L7.99837 309.347L7.14143 308.842L7.99842 309.347L170.447 33.9188L189.301 1.9582L208.155 33.9188L370.603 309.347ZM190.158 43.9913L189.301 42.5384L188.444 43.9913L148.56 111.61L147.675 113.111H149.417H229.185H230.927L230.042 111.61L190.158 43.9913ZM238.776 126.418L236.924 123.278V125.936H140.691H140.122L139.834 126.425L95.9389 200.841L95.6408 201.346L95.9389 201.851L154.95 301.906L155.807 303.359L156.664 301.906L181.417 259.942L181.715 259.436L181.417 258.931L157.635 218.602L157.631 218.596C154.293 213.035 152.527 206.792 152.527 200.591C152.527 180.817 169.003 164.693 189.308 164.693C209.614 164.693 226.09 180.817 226.09 200.591C226.09 206.799 224.324 213.042 220.971 218.633L220.967 218.639L197.2 258.931L196.902 259.436L197.2 259.942L203.022 269.811L221.945 301.892L222.802 303.344L223.659 301.892L282.67 201.844L282.969 201.339L282.67 200.833L238.776 126.418ZM188.444 358.693L189.303 360.15L190.159 358.691L191.583 356.265L191.584 356.263L214.903 316.729L215.201 316.223L214.903 315.718L190.158 273.768L189.301 272.315L188.444 273.768L187.011 276.196L187.868 276.702L187.011 276.196L163.699 315.725L163.401 316.231L163.699 316.736L187.011 356.265L187.868 355.759L187.011 356.265L188.444 358.693ZM169.059 420.237L169.053 420.247C169.055 420.244 169.057 420.241 169.053 420.247C169.052 420.249 169.049 420.255 169.046 420.26C169.045 420.261 169.045 420.261 169.044 420.262C169.042 420.266 169.039 420.27 169.037 420.274C169.033 420.281 169.028 420.289 169.023 420.298C166.829 423.953 165.699 427.854 165.699 431.87C165.699 444.621 176.31 454.951 189.308 454.951C202.307 454.951 212.918 444.621 212.918 431.87C212.918 427.856 211.785 423.957 209.579 420.278C209.578 420.277 209.577 420.276 209.577 420.275L190.173 387.357L189.316 385.904L188.459 387.357L169.059 420.237ZM209.55 212.224L209.56 212.208C209.561 212.206 209.563 212.203 209.565 212.2C209.567 212.196 209.57 212.191 209.573 212.187C209.576 212.181 209.581 212.173 209.586 212.164C211.781 208.509 212.91 204.607 212.91 200.591C212.91 187.84 202.299 177.51 189.301 177.51C176.303 177.51 165.691 187.84 165.691 200.591C165.691 204.606 166.825 208.504 169.031 212.184C169.032 212.185 169.032 212.186 169.032 212.186L188.436 245.104L189.293 246.558L190.15 245.105L209.55 212.224ZM88.9043 215.67L88.0473 214.217L87.1903 215.67L25.9878 319.427L25.6623 319.979L26.0301 320.504L90.1286 411.94L91.0154 413.205L91.8003 411.875L147.916 316.736L148.214 316.231L147.916 315.725L88.9043 215.67ZM188.486 552.257L189.301 553.419L190.116 552.257L278.982 425.489L279.349 424.965L279.024 424.413L223.666 330.555L222.81 329.102L221.953 330.555L197.2 372.52L196.902 373.025L197.2 373.531L220.982 413.852L220.986 413.858C224.37 419.493 226.09 425.566 226.09 431.863C226.09 451.637 209.614 467.761 189.308 467.761C169.003 467.761 152.527 451.637 152.527 431.863C152.527 425.558 154.24 419.493 157.646 413.821L157.65 413.815L181.417 373.523L181.715 373.018L181.417 372.512L175.594 362.643L156.664 330.555L155.807 329.102L154.95 330.555L99.5855 424.413L99.2599 424.965L99.6277 425.489L188.486 552.257ZM286.802 411.875L287.586 413.205L288.473 411.94L352.564 320.504L352.932 319.979L352.606 319.427L291.411 215.678L290.554 214.225L289.698 215.678L230.686 315.733L230.388 316.238L230.686 316.743L286.802 411.875Z" stroke="url(#paint0_angular_10092_84870)" stroke-width="1.9899"/>
<defs>
<radialGradient id="paint0_angular_10092_84870" cx="0" cy="0" r="1" gradientUnits="userSpaceOnUse" gradientTransform="translate(189.505 255.792) rotate(82.2626) scale(656.073 297.487)">
<stop offset="0.0114273" stop-color="#EDEFCF"/>
<stop offset="0.068219" stop-color="#EDEDCE"/>
<stop offset="0.141709" stop-color="#EEEBCC"/>
<stop offset="0.284861" stop-color="#F3C4BA"/>
<stop offset="0.381108" stop-color="#C5D4E4"/>
<stop offset="0.471341" stop-color="#C5D8ED"/>
<stop offset="0.473311" stop-color="#C5D7EA"/>
<stop offset="0.5625" stop-color="#D9CDD2"/>
<stop offset="0.737101" stop-color="#FF7852"/>
</radialGradient>
</defs>
</svg>
