<svg width="26" height="22" viewBox="0 0 26 22" fill="none" xmlns="http://www.w3.org/2000/svg">
<path d="M0.286137 6.67572e-05L12.7863 6.8936e-05L12.7862 21.6509L0.286137 6.67572e-05Z" fill="url(#paint0_linear)"/>
<path d="M4.45313 0.000164986L12.7866 0.000166438L12.7866 14.4341L4.45313 0.000164986Z" fill="url(#paint1_linear)"/>
<path d="M12.7861 6.67572e-05L25.2861 6.89359e-05L12.7861 21.6509L12.7861 6.67572e-05Z" fill="url(#paint2_linear)"/>
<path d="M12.7861 0.000118256L23.2028 0.000120071L12.7861 18.0425L12.7861 0.000118256Z" fill="url(#paint3_linear)"/>
<path d="M12.7861 14.434L21.1195 0.000119708L23.2028 0.000120071L12.7861 18.0425L12.7861 14.434Z" fill="#80141E"/>
<path d="M4.45345 0.000118619L12.7869 14.434L12.7869 18.0425L2.37012 0.000118256L4.45345 0.000118619Z" fill="#E22529"/>
<defs>
<linearGradient id="paint0_linear" x1="6.53618" y1="21.6509" x2="6.53618" y2="0.000119513" gradientUnits="userSpaceOnUse">
<stop stop-color="#00BBD1"/>
<stop offset="1" stop-color="#1D6FAE"/>
</linearGradient>
<linearGradient id="paint1_linear" x1="8.61985" y1="14.4341" x2="8.61985" y2="0.000217115" gradientUnits="userSpaceOnUse">
<stop stop-color="#FBCD11"/>
<stop offset="1" stop-color="#F78E20"/>
</linearGradient>
<linearGradient id="paint2_linear" x1="19.0361" y1="21.6509" x2="19.0361" y2="0.000119466" gradientUnits="userSpaceOnUse">
<stop stop-color="#1D6FAE"/>
<stop offset="1" stop-color="#224490"/>
</linearGradient>
<linearGradient id="paint3_linear" x1="17.9945" y1="18.0425" x2="17.9945" y2="0.000169183" gradientUnits="userSpaceOnUse">
<stop stop-color="#F78F22"/>
<stop offset="1" stop-color="#E66128"/>
</linearGradient>
</defs>
</svg>
