<svg width="120" height="17" viewBox="0 0 120 17" fill="none" xmlns="http://www.w3.org/2000/svg">
<g opacity="0.2">
<path d="M0 0.182617H6.61637C11.6627 0.182617 15.0946 3.41717 15.0946 8.15491C15.0946 12.8926 11.6632 16.1272 6.61637 16.1272H0V0.182617ZM6.48157 14.1451C10.3617 14.1451 12.8516 11.7309 12.8516 8.15436C12.8516 4.57837 10.3617 2.16359 6.48157 2.16359H2.24245V14.1446H6.48157V14.1451Z" fill="#2F354B"/>
<path d="M34.4068 14.1452V16.1267H23.0132V0.182129H34.0928V2.16366H25.2562V7.06084H33.1286V8.99673H25.2562V14.1441H34.4068V14.1452Z" fill="#2F354B"/>
<path d="M55.9407 0.182617L49.0553 16.1272H46.8345L39.9263 0.182617H42.3485L48.0006 13.2797L53.6972 0.182617H55.9407Z" fill="#2F354B"/>
<path d="M60.9888 8.15428C60.9888 3.43963 64.5327 0 69.31 0C71.7322 0 73.8404 0.842863 75.2762 2.48241L73.8182 3.91742C72.6071 2.61931 71.1269 2.02716 69.3999 2.02716C65.8564 2.02716 63.2318 4.62393 63.2318 8.15428C63.2318 11.6852 65.8559 14.2819 69.3999 14.2819C71.1269 14.2819 72.6071 13.6667 73.8182 12.3686L75.2762 13.8036C73.8409 15.4431 71.7327 16.3091 69.2878 16.3091C64.5327 16.3086 60.9888 12.87 60.9888 8.15428Z" fill="#2F354B"/>
<path d="M81.3555 8.15428C81.3555 3.48526 84.8994 0 89.7216 0C94.4989 0 98.0428 3.46162 98.0428 8.15428C98.0428 12.8469 94.4994 16.3086 89.7216 16.3086C84.8994 16.3086 81.3555 12.8244 81.3555 8.15428ZM95.7999 8.15428C95.7999 4.62393 93.1979 2.02716 89.7216 2.02716C86.2004 2.02716 83.5985 4.62393 83.5985 8.15428C83.5985 11.6852 86.2004 14.2819 89.7216 14.2819C93.1979 14.2819 95.7999 11.6852 95.7999 8.15428Z" fill="#2F354B"/>
<path d="M119.465 0.182681V16.1273H117.626L108.205 4.237V16.1267H105.962V0.182129H107.802L117.221 12.0718V0.182681H119.465Z" fill="#2F354B"/>
</g>
</svg>
