<?xml version="1.0" encoding="iso-8859-1"?>
<!-- Generator: Adobe Illustrator 25.2.0, SVG Export Plug-In . SVG Version: 6.00 Build 0)  -->
<svg version="1.1" id="Layer_1" xmlns="http://www.w3.org/2000/svg" xmlns:xlink="http://www.w3.org/1999/xlink" x="0px" y="0px"
	 width="299px" height="93px" viewBox="0 0 299 93" enable-background="new 0 0 299 93" xml:space="preserve">
<g>
	<g>
		<g>
			<path fill="#2F354B" d="M78.567,33.316h12.221c9.321,0,15.66,5.883,15.66,14.5c0,8.617-6.338,14.5-15.66,14.5H78.567V33.316z
				 M90.539,58.711c7.167,0,11.766-4.391,11.766-10.896c0-6.504-4.599-10.896-11.766-10.896h-7.83v21.791H90.539z"/>
			<path fill="#2F354B" d="M142.12,58.711v3.604h-21.045v-29h20.465v3.604h-16.322v8.907h14.541v3.521h-14.541v9.362H142.12z"/>
			<path fill="#2F354B" d="M181.894,33.316l-12.718,29h-4.102l-12.76-29h4.474l10.44,23.821l10.522-23.821H181.894z"/>
			<path fill="#2F354B" d="M191.218,47.815c0-8.575,6.546-14.831,15.37-14.831c4.474,0,8.368,1.533,11.02,4.515l-2.693,2.61
				c-2.237-2.361-4.971-3.438-8.161-3.438c-6.545,0-11.393,4.723-11.393,11.144c0,6.422,4.847,11.145,11.393,11.145
				c3.19,0,5.924-1.119,8.161-3.48l2.693,2.61c-2.651,2.982-6.545,4.557-11.061,4.557C197.764,62.646,191.218,56.392,191.218,47.815
				z"/>
			<path fill="#2F354B" d="M228.837,47.815c0-8.492,6.546-14.831,15.453-14.831c8.824,0,15.37,6.296,15.37,14.831
				s-6.545,14.831-15.37,14.831C235.383,62.646,228.837,56.309,228.837,47.815z M255.517,47.815c0-6.421-4.806-11.144-11.227-11.144
				c-6.504,0-11.31,4.723-11.31,11.144c0,6.422,4.806,11.145,11.31,11.145C250.711,58.96,255.517,54.237,255.517,47.815z"/>
			<path fill="#2F354B" d="M299.228,33.316v29h-3.397L278.431,40.69v21.625h-4.143v-29h3.397l17.399,21.625V33.316H299.228z"/>
		</g>
	</g>
	<g>
		<path fill="#2F354B" d="M54.648,47.423L27.317,0L0,47.423l27.331,17.398L54.648,47.423z M29.302,31.54V11.398l17.261,29.95
			L29.302,31.54z M48.18,46.834L29.302,58.858v-22.75L48.18,46.834z M25.331,31.54L8.088,41.338l17.243-29.935V31.54z
			 M25.331,36.108v22.733L6.462,46.829L25.331,36.108z"/>
		<path fill="#2F354B" d="M27.316,70.442L0.015,53.044l27.302,39.903l27.331-39.903L27.316,70.442L27.316,70.442z M25.183,73.791
			l0.148,0.095v9.127L14.259,66.83L25.183,73.791z M40.397,66.823L29.302,83.021v-9.136l0.147-0.094L40.397,66.823z"/>
	</g>
</g>
<g>
</g>
<g>
</g>
<g>
</g>
<g>
</g>
<g>
</g>
<g>
</g>
<g>
</g>
<g>
</g>
<g>
</g>
<g>
</g>
<g>
</g>
<g>
</g>
<g>
</g>
<g>
</g>
<g>
</g>
</svg>
