<svg width="128" height="18" viewBox="0 0 128 18" fill="none" xmlns="http://www.w3.org/2000/svg">
<path d="M0.736 17V0.199999H7.576C9.368 0.199999 10.936 0.559999 12.28 1.28C13.64 1.984 14.696 2.968 15.448 4.232C16.2 5.496 16.576 6.952 16.576 8.6C16.576 10.248 16.2 11.704 15.448 12.968C14.696 14.232 13.64 15.224 12.28 15.944C10.936 16.648 9.368 17 7.576 17H0.736ZM2.512 15.464H7.48C8.968 15.464 10.256 15.176 11.344 14.6C12.448 14.008 13.304 13.2 13.912 12.176C14.52 11.136 14.824 9.944 14.824 8.6C14.824 7.24 14.52 6.048 13.912 5.024C13.304 4 12.448 3.2 11.344 2.624C10.256 2.032 8.968 1.736 7.48 1.736H2.512V15.464ZM26.9481 7.712H35.8281V9.224H26.9481V7.712ZM27.1401 15.464H37.2441V17H25.3641V0.199999H36.8841V1.736H27.1401V15.464ZM50.7604 17L43.3204 0.199999H45.2404L52.2004 16.016H51.1444L58.1524 0.199999H59.9524L52.5124 17H50.7604ZM74.3461 17.144C73.0821 17.144 71.9141 16.936 70.8421 16.52C69.7701 16.088 68.8421 15.488 68.0581 14.72C67.2741 13.952 66.6581 13.048 66.2101 12.008C65.7781 10.968 65.5621 9.832 65.5621 8.6C65.5621 7.368 65.7781 6.232 66.2101 5.192C66.6581 4.152 67.2741 3.248 68.0581 2.48C68.8581 1.712 69.7941 1.12 70.8661 0.704C71.9381 0.271999 73.1061 0.0559993 74.3701 0.0559993C75.5861 0.0559993 76.7301 0.263999 77.8021 0.68C78.8741 1.08 79.7781 1.688 80.5141 2.504L79.3861 3.632C78.6981 2.928 77.9381 2.424 77.1061 2.12C76.2741 1.8 75.3781 1.64 74.4181 1.64C73.4101 1.64 72.4741 1.816 71.6101 2.168C70.7461 2.504 69.9941 2.992 69.3541 3.632C68.7141 4.256 68.2101 4.992 67.8421 5.84C67.4901 6.672 67.3141 7.592 67.3141 8.6C67.3141 9.608 67.4901 10.536 67.8421 11.384C68.2101 12.216 68.7141 12.952 69.3541 13.592C69.9941 14.216 70.7461 14.704 71.6101 15.056C72.4741 15.392 73.4101 15.56 74.4181 15.56C75.3781 15.56 76.2741 15.4 77.1061 15.08C77.9381 14.76 78.6981 14.248 79.3861 13.544L80.5141 14.672C79.7781 15.488 78.8741 16.104 77.8021 16.52C76.7301 16.936 75.5781 17.144 74.3461 17.144ZM96.0925 17.144C94.8285 17.144 93.6525 16.936 92.5645 16.52C91.4925 16.088 90.5565 15.488 89.7565 14.72C88.9725 13.936 88.3565 13.032 87.9085 12.008C87.4765 10.968 87.2605 9.832 87.2605 8.6C87.2605 7.368 87.4765 6.24 87.9085 5.216C88.3565 4.176 88.9725 3.272 89.7565 2.504C90.5565 1.72 91.4925 1.12 92.5645 0.704C93.6365 0.271999 94.8125 0.0559993 96.0925 0.0559993C97.3565 0.0559993 98.5245 0.271999 99.5965 0.704C100.668 1.12 101.596 1.712 102.38 2.48C103.18 3.248 103.796 4.152 104.228 5.192C104.676 6.232 104.9 7.368 104.9 8.6C104.9 9.832 104.676 10.968 104.228 12.008C103.796 13.048 103.18 13.952 102.38 14.72C101.596 15.488 100.668 16.088 99.5965 16.52C98.5245 16.936 97.3565 17.144 96.0925 17.144ZM96.0925 15.56C97.1005 15.56 98.0285 15.392 98.8765 15.056C99.7405 14.704 100.484 14.216 101.108 13.592C101.748 12.952 102.244 12.216 102.596 11.384C102.948 10.536 103.124 9.608 103.124 8.6C103.124 7.592 102.948 6.672 102.596 5.84C102.244 4.992 101.748 4.256 101.108 3.632C100.484 2.992 99.7405 2.504 98.8765 2.168C98.0285 1.816 97.1005 1.64 96.0925 1.64C95.0845 1.64 94.1485 1.816 93.2845 2.168C92.4205 2.504 91.6685 2.992 91.0285 3.632C90.4045 4.256 89.9085 4.992 89.5405 5.84C89.1885 6.672 89.0125 7.592 89.0125 8.6C89.0125 9.592 89.1885 10.512 89.5405 11.36C89.9085 12.208 90.4045 12.952 91.0285 13.592C91.6685 14.216 92.4205 14.704 93.2845 15.056C94.1485 15.392 95.0845 15.56 96.0925 15.56ZM113.681 17V0.199999H115.145L126.737 14.792H125.969V0.199999H127.721V17H126.257L114.689 2.408H115.457V17H113.681Z" fill="black"/>
</svg>
