<svg width="374" height="24" viewBox="0 0 374 24" fill="none" xmlns="http://www.w3.org/2000/svg">
<path d="M0 0.53125H9.66912C17.0446 0.53125 22.0592 5.18569 22.0592 12.0035C22.0592 18.8213 17.0455 23.4758 9.66912 23.4758H0V0.53125ZM9.47271 20.6226C15.1437 20.6226 18.7816 17.1485 18.7816 12.0025C18.7816 6.8566 15.1437 3.38253 9.47271 3.38253H3.27764V20.6226H9.47271V20.6226Z" fill="black"/>
<path d="M50.3285 20.0913V22.9436H33.6777V0H49.8696V2.85225H36.9554V9.89907H48.4602V12.6842H36.9554V20.0913H50.3285V20.0913Z" fill="black"/>
<path d="M81.7501 0.532227L71.6882 23.4758H68.4431L58.3477 0.532227H61.8869L70.1466 19.379L78.4715 0.532227H81.7501Z" fill="black"/>
<path d="M89.1279 12.0034C89.1279 5.21907 94.3064 0.269531 101.288 0.269531C104.827 0.269531 107.909 1.48249 110.007 3.84228L107.876 5.90698C106.106 4.03869 103.944 3.18695 101.419 3.18695C96.2408 3.18695 92.4065 6.92257 92.4065 12.0034C92.4065 17.0842 96.2408 20.8198 101.419 20.8198C103.944 20.8198 106.107 19.9355 107.876 18.0672L110.007 20.1319C107.91 22.4917 104.828 23.7372 101.256 23.7372C94.3064 23.7372 89.1279 18.7886 89.1279 12.0034Z" fill="black"/>
<path d="M118.895 12.0034C118.895 5.28422 124.073 0.269531 131.121 0.269531C138.102 0.269531 143.281 5.25165 143.281 12.0034C143.281 18.7551 138.102 23.7372 131.121 23.7372C124.073 23.7372 118.895 18.7225 118.895 12.0034ZM140.003 12.0034C140.003 6.92257 136.201 3.18695 131.121 3.18695C125.975 3.18695 122.173 6.92257 122.173 12.0034C122.173 17.0842 125.975 20.8198 131.121 20.8198C136.202 20.8198 140.003 17.0842 140.003 12.0034Z" fill="black"/>
<path d="M174.586 0.532227V23.4758H171.898L158.131 6.36704V23.4758H154.854V0.532227H157.542L171.308 17.641V0.532227H174.586V0.532227Z" fill="black"/>
<path d="M214.207 13.6695C214.95 14.6324 215.323 15.7908 215.323 17.1455C215.323 19.1566 214.491 20.7145 212.83 21.8172C211.169 22.921 208.765 23.4738 205.617 23.4738H192.699V0.522461H204.962C208.022 0.522461 210.333 1.06951 211.897 2.16271C213.459 3.2559 214.24 4.70841 214.24 6.52306C214.24 7.59421 213.973 8.55614 213.437 9.40885C212.901 10.2616 212.108 10.9495 211.06 11.4745C212.415 11.9766 213.465 12.7086 214.207 13.6695ZM200.307 5.9319V9.34275H203.914C205.596 9.34275 206.438 8.7746 206.438 7.63829C206.438 6.50198 205.596 5.93284 203.914 5.93284H200.307V5.9319ZM207.519 16.2612C207.519 15.0588 206.666 14.4571 204.962 14.4571H200.307V18.0643H204.962C206.666 18.0634 207.519 17.4627 207.519 16.2612Z" fill="black"/>
<path d="M229.323 22.4588C227.356 21.4317 225.815 20.0051 224.7 18.1799C223.586 16.3547 223.028 14.2939 223.028 11.9992C223.028 9.70459 223.586 7.64467 224.7 5.81949C225.815 3.99431 227.356 2.5677 229.323 1.54062C231.291 0.513542 233.509 0 235.979 0C238.449 0 240.668 0.513542 242.634 1.54062C244.602 2.5677 246.142 3.99431 247.257 5.81949C248.372 7.64467 248.93 9.70459 248.93 11.9992C248.93 14.2939 248.372 16.3547 247.257 18.1799C246.142 20.0051 244.602 21.4317 242.634 22.4588C240.667 23.4849 238.449 23.9994 235.979 23.9994C233.509 23.9994 231.291 23.4859 229.323 22.4588ZM238.586 17.0321C239.362 16.5626 239.979 15.8958 240.439 15.0326C240.898 14.1693 241.128 13.1585 241.128 11.9992C241.128 10.8409 240.898 9.83009 240.439 8.96685C239.98 8.1036 239.362 7.43678 238.586 6.96636C237.809 6.49689 236.941 6.26214 235.979 6.26214C235.017 6.26214 234.148 6.49689 233.372 6.96636C232.596 7.43678 231.979 8.1036 231.519 8.96685C231.06 9.83009 230.83 10.8409 230.83 11.9992C230.83 13.1585 231.06 14.1693 231.519 15.0326C231.978 15.8958 232.596 16.5626 233.372 17.0321C234.148 17.5025 235.017 17.7373 235.979 17.7373C236.941 17.7373 237.809 17.5025 238.586 17.0321Z" fill="black"/>
<path d="M272.829 11.3765H279.551V21.082C278.196 22.0219 276.622 22.7433 274.83 23.2463C273.037 23.7484 271.277 24.0004 269.551 24.0004C267.102 24.0004 264.905 23.4926 262.96 22.4751C261.015 21.4585 259.49 20.0386 258.387 18.2135C257.283 16.3883 256.73 14.3178 256.73 12.0002C256.73 9.68353 257.282 7.61307 258.387 5.7879C259.49 3.96272 261.031 2.54186 263.01 1.52531C264.987 0.508772 267.223 0.000976562 269.715 0.000976562C271.966 0.000976562 273.982 0.378467 275.763 1.13249C277.544 1.88651 279.025 2.98547 280.206 4.42645L275.255 8.78771C273.812 7.10433 272.096 6.26311 270.107 6.26311C268.403 6.26311 267.047 6.77666 266.042 7.80374C265.036 8.83082 264.534 10.2296 264.534 12.0002C264.534 13.7277 265.031 15.115 266.027 16.165C267.02 17.2142 268.349 17.7392 270.01 17.7392C270.994 17.7392 271.934 17.5533 272.829 17.1816V11.3765V11.3765Z" fill="black"/>
<path d="M294.141 22.4588C292.174 21.4317 290.634 20.0051 289.519 18.1799C288.404 16.3547 287.847 14.2939 287.847 11.9992C287.847 9.70459 288.404 7.64467 289.519 5.81949C290.634 3.99431 292.174 2.5677 294.141 1.54062C296.109 0.513542 298.327 0 300.797 0C303.267 0 305.486 0.513542 307.452 1.54062C309.42 2.5677 310.961 3.99431 312.075 5.81949C313.19 7.64467 313.748 9.70459 313.748 11.9992C313.748 14.2939 313.19 16.3547 312.075 18.1799C310.961 20.0051 309.42 21.4317 307.452 22.4588C305.485 23.4849 303.267 23.9994 300.797 23.9994C298.327 23.9994 296.109 23.4859 294.141 22.4588ZM303.404 17.0321C304.18 16.5626 304.797 15.8958 305.257 15.0326C305.716 14.1693 305.946 13.1585 305.946 11.9992C305.946 10.8409 305.716 9.83009 305.257 8.96685C304.798 8.1036 304.18 7.43678 303.404 6.96636C302.627 6.49689 301.759 6.26214 300.797 6.26214C299.835 6.26214 298.966 6.49689 298.19 6.96636C297.414 7.43678 296.797 8.1036 296.337 8.96685C295.878 9.83009 295.648 10.8409 295.648 11.9992C295.648 13.1585 295.878 14.1693 296.337 15.0326C296.796 15.8958 297.414 16.5626 298.19 17.0321C298.966 17.5025 299.835 17.7373 300.797 17.7373C301.759 17.7373 302.628 17.5025 303.404 17.0321Z" fill="black"/>
<path d="M327.125 6.52401H320.403V0.523438H341.583V6.52401H334.862V23.4747H327.124V6.52401H327.125Z" fill="black"/>
<path d="M363.977 19.4747H355.254L353.714 23.4748H345.845L355.878 0.523438H363.484L373.517 23.4748H365.517L363.977 19.4747ZM361.845 13.9014L359.615 8.13077L357.386 13.9014H361.845Z" fill="black"/>
</svg>
