<svg width="175" height="24" viewBox="0 0 175 24" fill="none" xmlns="http://www.w3.org/2000/svg">
<path d="M0 0.53125H9.66912C17.0446 0.53125 22.0592 5.18569 22.0592 12.0035C22.0592 18.8213 17.0455 23.4758 9.66912 23.4758H0V0.53125ZM9.47271 20.6226C15.1437 20.6226 18.7816 17.1485 18.7816 12.0025C18.7816 6.8566 15.1437 3.38253 9.47271 3.38253H3.27764V20.6226H9.47271Z" fill="black"/>
<path d="M50.3285 20.0913V22.9436H33.6777V0H49.8696V2.85225H36.9554V9.89907H48.4602V12.6842H36.9554V20.0913H50.3285Z" fill="black"/>
<path d="M81.7501 0.53125L71.6882 23.4748H68.4431L58.3477 0.53125H61.8869L70.1466 19.378L78.4715 0.53125H81.7501Z" fill="black"/>
<path d="M89.1279 12.0034C89.1279 5.21907 94.3064 0.269531 101.288 0.269531C104.827 0.269531 107.909 1.48249 110.007 3.84228L107.876 5.90698C106.106 4.03869 103.944 3.18695 101.419 3.18695C96.2408 3.18695 92.4065 6.92257 92.4065 12.0034C92.4065 17.0842 96.2408 20.8198 101.419 20.8198C103.944 20.8198 106.107 19.9355 107.876 18.0672L110.007 20.1319C107.91 22.4917 104.828 23.7372 101.256 23.7372C94.3064 23.7372 89.1279 18.7886 89.1279 12.0034Z" fill="black"/>
<path d="M118.895 12.0034C118.895 5.28422 124.073 0.269531 131.121 0.269531C138.102 0.269531 143.281 5.25165 143.281 12.0034C143.281 18.7551 138.102 23.7372 131.121 23.7372C124.073 23.7372 118.895 18.7225 118.895 12.0034ZM140.003 12.0034C140.003 6.92257 136.201 3.18695 131.121 3.18695C125.975 3.18695 122.173 6.92257 122.173 12.0034C122.173 17.0842 125.975 20.8198 131.121 20.8198C136.202 20.8198 140.003 17.0842 140.003 12.0034Z" fill="black"/>
<path d="M174.586 0.53125V23.4748H171.898L158.131 6.36606V23.4748H154.854V0.53125H157.542L171.308 17.64V0.53125H174.586Z" fill="black"/>
</svg>
