<svg width="205" height="55" viewBox="0 0 205 55" fill="none" xmlns="http://www.w3.org/2000/svg">
<path d="M10.4092 31.9992H3.59172L3.63473 26.9667H10.4092C12.1011 26.9667 13.5276 26.5868 14.689 25.8269C15.8503 25.0527 16.7249 23.9272 17.3127 22.4504C17.9149 20.9736 18.216 19.1886 18.216 17.0953V15.5684C18.216 13.9626 18.044 12.5503 17.6999 11.3316C17.3701 10.1129 16.8755 9.08781 16.2159 8.25623C15.5564 7.42465 14.7463 6.80097 13.7857 6.38518C12.8251 5.95505 11.7211 5.73999 10.4737 5.73999H3.46268V0.686008H10.4737C12.567 0.686008 14.4811 1.04445 16.2159 1.76132C17.9651 2.46386 19.4777 3.47466 20.7538 4.79371C22.0298 6.11277 23.0119 7.6899 23.7001 9.5251C24.4027 11.346 24.7539 13.3747 24.7539 15.6114V17.0953C24.7539 19.3176 24.4027 21.3464 23.7001 23.1816C23.0119 25.0168 22.0298 26.5939 20.7538 27.913C19.4921 29.2177 17.9794 30.2285 16.2159 30.9454C14.4667 31.6479 12.5312 31.9992 10.4092 31.9992ZM7.24779 0.686008V31.9992H0.795898V0.686008H7.24779Z" fill="white"/>
<path d="M50.454 26.9667V31.9992H33.7866V26.9667H50.454ZM35.8942 0.686008V31.9992H29.4423V0.686008H35.8942ZM48.2818 13.4393V18.3427H33.7866V13.4393H48.2818ZM50.4325 0.686008V5.73999H33.7866V0.686008H50.4325Z" fill="white"/>
<path d="M65.5084 25.4613L72.8851 0.686008H80.0682L69.1645 31.9992H64.4331L65.5084 25.4613ZM58.7124 0.686008L66.0676 25.4613L67.1859 31.9992H62.4115L51.5723 0.686008H58.7124Z" fill="white"/>
<path d="M100.843 21.6117H107.274C107.145 23.7193 106.564 25.5903 105.532 27.2248C104.514 28.8593 103.087 30.1353 101.252 31.0529C99.431 31.9705 97.2374 32.4293 94.671 32.4293C92.6637 32.4293 90.8643 32.0852 89.2729 31.397C87.6814 30.6945 86.3193 29.6909 85.1867 28.3861C84.0684 27.0814 83.2153 25.5043 82.6274 23.6548C82.0396 21.8052 81.7457 19.7334 81.7457 17.4394V15.2673C81.7457 12.9733 82.0468 10.9015 82.6489 9.05196C83.2654 7.18808 84.14 5.60378 85.2727 4.29907C86.4197 2.99435 87.7889 1.99072 89.3804 1.28818C90.9719 0.585645 92.7497 0.234375 94.714 0.234375C97.3234 0.234375 99.5242 0.707514 101.316 1.65379C103.123 2.60007 104.521 3.90479 105.51 5.56794C106.514 7.2311 107.116 9.12365 107.317 11.2456H100.865C100.793 9.9839 100.542 8.91576 100.112 8.04117C99.6819 7.15224 99.0296 6.48554 98.155 6.04108C97.2947 5.58228 96.1477 5.35288 94.714 5.35288C93.6387 5.35288 92.6996 5.5536 91.8967 5.95505C91.0937 6.35651 90.4199 6.96585 89.8751 7.78309C89.3302 8.60033 88.9216 9.63263 88.6492 10.88C88.3911 12.113 88.2621 13.5611 88.2621 15.2243V17.4394C88.2621 19.0596 88.384 20.4862 88.6277 21.7192C88.8714 22.9379 89.2442 23.9702 89.746 24.8161C90.2622 25.6477 90.9217 26.2785 91.7246 26.7086C92.5418 27.1244 93.524 27.3323 94.671 27.3323C96.0187 27.3323 97.1299 27.1173 98.0044 26.6871C98.879 26.257 99.5457 25.619 100.005 24.7731C100.478 23.9272 100.757 22.8734 100.843 21.6117Z" fill="white"/>
<path d="M137.232 15.6114V17.0953C137.232 19.4754 136.909 21.6117 136.264 23.5042C135.619 25.3968 134.709 27.0097 133.533 28.3431C132.357 29.6622 130.952 30.673 129.318 31.3755C127.697 32.0781 125.898 32.4293 123.92 32.4293C121.955 32.4293 120.156 32.0781 118.521 31.3755C116.901 30.673 115.496 29.6622 114.306 28.3431C113.116 27.0097 112.191 25.3968 111.532 23.5042C110.887 21.6117 110.564 19.4754 110.564 17.0953V15.6114C110.564 13.217 110.887 11.0807 111.532 9.20251C112.177 7.30995 113.088 5.69698 114.263 4.36359C115.453 3.0302 116.858 2.01223 118.478 1.30969C120.113 0.607151 121.912 0.255881 123.877 0.255881C125.855 0.255881 127.654 0.607151 129.275 1.30969C130.909 2.01223 132.314 3.0302 133.49 4.36359C134.68 5.69698 135.597 7.30995 136.243 9.20251C136.902 11.0807 137.232 13.217 137.232 15.6114ZM130.716 17.0953V15.5684C130.716 13.9052 130.565 12.4428 130.264 11.1811C129.963 9.91939 129.518 8.85841 128.931 7.99815C128.343 7.1379 127.626 6.49271 126.78 6.06259C125.934 5.61812 124.966 5.39589 123.877 5.39589C122.787 5.39589 121.819 5.61812 120.973 6.06259C120.142 6.49271 119.432 7.1379 118.844 7.99815C118.271 8.85841 117.833 9.91939 117.532 11.1811C117.231 12.4428 117.081 13.9052 117.081 15.5684V17.0953C117.081 18.7441 117.231 20.2066 117.532 21.4826C117.833 22.7443 118.278 23.8125 118.866 24.6871C119.453 25.5473 120.17 26.1997 121.016 26.6441C121.862 27.0886 122.83 27.3108 123.92 27.3108C125.009 27.3108 125.977 27.0886 126.823 26.6441C127.669 26.1997 128.379 25.5473 128.952 24.6871C129.526 23.8125 129.963 22.7443 130.264 21.4826C130.565 20.2066 130.716 18.7441 130.716 17.0953Z" fill="white"/>
<path d="M167.362 0.686008V31.9992H160.91L148.329 11.009V31.9992H141.877V0.686008H148.329L160.932 21.6977V0.686008H167.362Z" fill="white"/>
<path d="M204.568 0.686008V4.01949L192.46 31.9992H185.922L198.03 5.52493H182.438V0.686008H204.568Z" fill="white"/>
<path d="M22.9376 51.0226C22.9376 50.8195 22.9063 50.6372 22.8438 50.4758C22.7865 50.3091 22.6772 50.1581 22.5157 50.0226C22.3542 49.882 22.1277 49.744 21.836 49.6086C21.5443 49.4732 21.1667 49.3325 20.7032 49.1867C20.1876 49.02 19.698 48.8325 19.2345 48.6242C18.7761 48.4159 18.3699 48.1737 18.0157 47.8976C17.6667 47.6164 17.3907 47.2909 17.1876 46.9211C16.9897 46.5513 16.8907 46.1216 16.8907 45.632C16.8907 45.1581 16.9949 44.7284 17.2032 44.343C17.4115 43.9523 17.7032 43.619 18.0782 43.343C18.4532 43.0617 18.8959 42.8456 19.4063 42.6945C19.922 42.5435 20.4871 42.468 21.1016 42.468C21.9402 42.468 22.672 42.619 23.297 42.9211C23.922 43.2232 24.4063 43.6372 24.7501 44.1633C25.099 44.6893 25.2735 45.2909 25.2735 45.968H22.9454C22.9454 45.6346 22.8751 45.343 22.7345 45.093C22.599 44.8377 22.3907 44.6372 22.1095 44.4914C21.8334 44.3456 21.4845 44.2726 21.0626 44.2726C20.6563 44.2726 20.3178 44.3351 20.047 44.4601C19.7761 44.5799 19.573 44.744 19.4376 44.9523C19.3022 45.1555 19.2345 45.3846 19.2345 45.6398C19.2345 45.8325 19.2813 46.007 19.3751 46.1633C19.474 46.3195 19.6199 46.4653 19.8126 46.6008C20.0053 46.7362 20.2423 46.8638 20.5235 46.9836C20.8048 47.1034 21.1303 47.2206 21.5001 47.3351C22.1199 47.5226 22.6641 47.7336 23.1329 47.968C23.6068 48.2023 24.0027 48.4653 24.3204 48.757C24.6381 49.0487 24.8777 49.3794 25.0391 49.7492C25.2006 50.119 25.2813 50.5383 25.2813 51.007C25.2813 51.5018 25.185 51.9445 24.9923 52.3351C24.7996 52.7258 24.5209 53.0565 24.1563 53.3273C23.7917 53.5982 23.3568 53.8039 22.8516 53.9445C22.3464 54.0851 21.7813 54.1555 21.1563 54.1555C20.5938 54.1555 20.0391 54.0825 19.4923 53.9367C18.9454 53.7857 18.448 53.5591 18.0001 53.257C17.5574 52.9549 17.2032 52.5695 16.9376 52.1008C16.672 51.632 16.5391 51.0773 16.5391 50.4367H18.8907C18.8907 50.7909 18.9454 51.0903 19.0548 51.3351C19.1641 51.5799 19.3178 51.7778 19.5157 51.9289C19.7188 52.0799 19.9584 52.1893 20.2345 52.257C20.5157 52.3247 20.823 52.3586 21.1563 52.3586C21.5626 52.3586 21.8959 52.3013 22.1563 52.1867C22.422 52.0721 22.6173 51.9133 22.7423 51.7101C22.8725 51.507 22.9376 51.2778 22.9376 51.0226Z" fill="white"/>
<path d="M36.2188 48.0461V48.5851C36.2188 49.4497 36.1016 50.2258 35.8673 50.9133C35.6329 51.6008 35.3022 52.1867 34.8751 52.6711C34.448 53.1502 33.9376 53.5174 33.3438 53.7726C32.7553 54.0278 32.1016 54.1555 31.3829 54.1555C30.6693 54.1555 30.0157 54.0278 29.422 53.7726C28.8334 53.5174 28.323 53.1502 27.8907 52.6711C27.4584 52.1867 27.1225 51.6008 26.8829 50.9133C26.6485 50.2258 26.5313 49.4497 26.5313 48.5851V48.0461C26.5313 47.1763 26.6485 46.4002 26.8829 45.718C27.1173 45.0305 27.448 44.4445 27.8751 43.9601C28.3074 43.4758 28.8178 43.106 29.4063 42.8508C30.0001 42.5956 30.6537 42.468 31.3673 42.468C32.086 42.468 32.7397 42.5956 33.3282 42.8508C33.922 43.106 34.4324 43.4758 34.8595 43.9601C35.2917 44.4445 35.6251 45.0305 35.8595 45.718C36.099 46.4002 36.2188 47.1763 36.2188 48.0461ZM33.8516 48.5851V48.0305C33.8516 47.4263 33.797 46.895 33.6876 46.4367C33.5782 45.9784 33.4167 45.593 33.2032 45.2805C32.9897 44.968 32.7292 44.7336 32.422 44.5773C32.1147 44.4159 31.7631 44.3351 31.3673 44.3351C30.9714 44.3351 30.6199 44.4159 30.3126 44.5773C30.0105 44.7336 29.7527 44.968 29.5391 45.2805C29.3308 45.593 29.172 45.9784 29.0626 46.4367C28.9532 46.895 28.8985 47.4263 28.8985 48.0305V48.5851C28.8985 49.1841 28.9532 49.7153 29.0626 50.1789C29.172 50.6372 29.3334 51.0252 29.547 51.343C29.7605 51.6555 30.0209 51.8924 30.3282 52.0539C30.6355 52.2153 30.9871 52.2961 31.3829 52.2961C31.7787 52.2961 32.1303 52.2153 32.4376 52.0539C32.7449 51.8924 33.0027 51.6555 33.211 51.343C33.4193 51.0252 33.5782 50.6372 33.6876 50.1789C33.797 49.7153 33.8516 49.1841 33.8516 48.5851Z" fill="white"/>
<path d="M44.1876 42.6242H46.5235V50.1398C46.5235 51.0148 46.336 51.7518 45.961 52.3508C45.5912 52.9497 45.0782 53.4002 44.422 53.7023C43.7709 54.0044 43.0209 54.1555 42.172 54.1555C41.323 54.1555 40.5678 54.0044 39.9063 53.7023C39.2501 53.4002 38.7345 52.9497 38.3595 52.3508C37.9897 51.7518 37.8048 51.0148 37.8048 50.1398V42.6242H40.1485V50.1398C40.1485 50.6502 40.2292 51.0669 40.3907 51.3898C40.5522 51.7127 40.7839 51.9497 41.086 52.1008C41.3933 52.2518 41.7553 52.3273 42.172 52.3273C42.599 52.3273 42.961 52.2518 43.2579 52.1008C43.56 51.9497 43.7891 51.7127 43.9454 51.3898C44.1068 51.0669 44.1876 50.6502 44.1876 50.1398V42.6242Z" fill="white"/>
<path d="M53.5391 42.6242V53.9992H51.2032V42.6242H53.5391ZM57.0391 42.6242V44.4601H47.7579V42.6242H57.0391Z" fill="white"/>
<path d="M65.961 47.257V49.0851H60.0235V47.257H65.961ZM60.7188 42.6242V53.9992H58.3751V42.6242H60.7188ZM67.6329 42.6242V53.9992H65.297V42.6242H67.6329Z" fill="white"/>
<path d="M81.2891 52.1711V53.9992H75.2345V52.1711H81.2891ZM76.0001 42.6242V53.9992H73.6563V42.6242H76.0001ZM80.5001 47.257V49.0383H75.2345V47.257H80.5001ZM81.2813 42.6242V44.4601H75.2345V42.6242H81.2813Z" fill="white"/>
<path d="M87.2813 44.5695L84.1876 53.9992H81.6954L85.922 42.6242H87.5079L87.2813 44.5695ZM89.8516 53.9992L86.7501 44.5695L86.5001 42.6242H88.1016L92.3516 53.9992H89.8516ZM89.711 49.7648V51.6008H83.7032V49.7648H89.711Z" fill="white"/>
<path d="M99.3282 51.0226C99.3282 50.8195 99.297 50.6372 99.2345 50.4758C99.1772 50.3091 99.0678 50.1581 98.9063 50.0226C98.7449 49.882 98.5183 49.744 98.2266 49.6086C97.935 49.4732 97.5574 49.3325 97.0938 49.1867C96.5782 49.02 96.0886 48.8325 95.6251 48.6242C95.1667 48.4159 94.7605 48.1737 94.4063 47.8976C94.0574 47.6164 93.7813 47.2909 93.5782 46.9211C93.3803 46.5513 93.2813 46.1216 93.2813 45.632C93.2813 45.1581 93.3855 44.7284 93.5938 44.343C93.8022 43.9523 94.0938 43.619 94.4688 43.343C94.8438 43.0617 95.2865 42.8456 95.797 42.6945C96.3126 42.5435 96.8777 42.468 97.4923 42.468C98.3308 42.468 99.0626 42.619 99.6876 42.9211C100.313 43.2232 100.797 43.6372 101.141 44.1633C101.49 44.6893 101.664 45.2909 101.664 45.968H99.336C99.336 45.6346 99.2657 45.343 99.1251 45.093C98.9897 44.8377 98.7813 44.6372 98.5001 44.4914C98.224 44.3456 97.8751 44.2726 97.4532 44.2726C97.047 44.2726 96.7084 44.3351 96.4376 44.4601C96.1667 44.5799 95.9636 44.744 95.8282 44.9523C95.6928 45.1555 95.6251 45.3846 95.6251 45.6398C95.6251 45.8325 95.672 46.007 95.7657 46.1633C95.8647 46.3195 96.0105 46.4653 96.2032 46.6008C96.3959 46.7362 96.6329 46.8638 96.9141 46.9836C97.1954 47.1034 97.5209 47.2206 97.8907 47.3351C98.5105 47.5226 99.0548 47.7336 99.5235 47.968C99.9975 48.2023 100.393 48.4653 100.711 48.757C101.029 49.0487 101.268 49.3794 101.43 49.7492C101.591 50.119 101.672 50.5383 101.672 51.007C101.672 51.5018 101.576 51.9445 101.383 52.3351C101.19 52.7258 100.912 53.0565 100.547 53.3273C100.182 53.5982 99.7475 53.8039 99.2423 53.9445C98.7371 54.0851 98.172 54.1555 97.547 54.1555C96.9845 54.1555 96.4298 54.0825 95.8829 53.9367C95.336 53.7857 94.8386 53.5591 94.3907 53.257C93.948 52.9549 93.5938 52.5695 93.3282 52.1008C93.0626 51.632 92.9298 51.0773 92.9298 50.4367H95.2813C95.2813 50.7909 95.336 51.0903 95.4454 51.3351C95.5548 51.5799 95.7084 51.7778 95.9063 51.9289C96.1095 52.0799 96.349 52.1893 96.6251 52.257C96.9063 52.3247 97.2136 52.3586 97.547 52.3586C97.9532 52.3586 98.2865 52.3013 98.547 52.1867C98.8126 52.0721 99.0079 51.9133 99.1329 51.7101C99.2631 51.507 99.3282 51.2778 99.3282 51.0226Z" fill="white"/>
<path d="M108.352 42.6242V53.9992H106.016V42.6242H108.352ZM111.852 42.6242V44.4601H102.57V42.6242H111.852Z" fill="white"/>
<path d="M121.375 44.5695L118.281 53.9992H115.789L120.016 42.6242H121.602L121.375 44.5695ZM123.945 53.9992L120.844 44.5695L120.594 42.6242H122.195L126.445 53.9992H123.945ZM123.805 49.7648V51.6008H117.797V49.7648H123.805Z" fill="white"/>
<path d="M133.422 51.0226C133.422 50.8195 133.391 50.6372 133.328 50.4758C133.271 50.3091 133.162 50.1581 133 50.0226C132.839 49.882 132.612 49.744 132.32 49.6086C132.029 49.4732 131.651 49.3325 131.188 49.1867C130.672 49.02 130.182 48.8325 129.719 48.6242C129.26 48.4159 128.854 48.1737 128.5 47.8976C128.151 47.6164 127.875 47.2909 127.672 46.9211C127.474 46.5513 127.375 46.1216 127.375 45.632C127.375 45.1581 127.479 44.7284 127.688 44.343C127.896 43.9523 128.188 43.619 128.563 43.343C128.938 43.0617 129.38 42.8456 129.891 42.6945C130.406 42.5435 130.971 42.468 131.586 42.468C132.425 42.468 133.156 42.619 133.781 42.9211C134.406 43.2232 134.891 43.6372 135.234 44.1633C135.583 44.6893 135.758 45.2909 135.758 45.968H133.43C133.43 45.6346 133.359 45.343 133.219 45.093C133.083 44.8377 132.875 44.6372 132.594 44.4914C132.318 44.3456 131.969 44.2726 131.547 44.2726C131.141 44.2726 130.802 44.3351 130.531 44.4601C130.26 44.5799 130.057 44.744 129.922 44.9523C129.787 45.1555 129.719 45.3846 129.719 45.6398C129.719 45.8325 129.766 46.007 129.859 46.1633C129.958 46.3195 130.104 46.4653 130.297 46.6008C130.49 46.7362 130.727 46.8638 131.008 46.9836C131.289 47.1034 131.615 47.2206 131.984 47.3351C132.604 47.5226 133.149 47.7336 133.617 47.968C134.091 48.2023 134.487 48.4653 134.805 48.757C135.122 49.0487 135.362 49.3794 135.524 49.7492C135.685 50.119 135.766 50.5383 135.766 51.007C135.766 51.5018 135.669 51.9445 135.477 52.3351C135.284 52.7258 135.005 53.0565 134.641 53.3273C134.276 53.5982 133.841 53.8039 133.336 53.9445C132.831 54.0851 132.266 54.1555 131.641 54.1555C131.078 54.1555 130.524 54.0825 129.977 53.9367C129.43 53.7857 128.932 53.5591 128.484 53.257C128.042 52.9549 127.688 52.5695 127.422 52.1008C127.156 51.632 127.024 51.0773 127.024 50.4367H129.375C129.375 50.7909 129.43 51.0903 129.539 51.3351C129.649 51.5799 129.802 51.7778 130 51.9289C130.203 52.0799 130.443 52.1893 130.719 52.257C131 52.3247 131.307 52.3586 131.641 52.3586C132.047 52.3586 132.38 52.3013 132.641 52.1867C132.906 52.0721 133.102 51.9133 133.227 51.7101C133.357 51.507 133.422 51.2778 133.422 51.0226Z" fill="white"/>
<path d="M139.852 42.6242V53.9992H137.516V42.6242H139.852Z" fill="white"/>
<path d="M146.813 44.5695L143.719 53.9992H141.227L145.453 42.6242H147.039L146.813 44.5695ZM149.383 53.9992L146.281 44.5695L146.031 42.6242H147.633L151.883 53.9992H149.383ZM149.242 49.7648V51.6008H143.234V49.7648H149.242Z" fill="white"/>
<path d="M164.469 52.2414V53.9992H156.688V52.4992L160.367 48.5539C160.737 48.1424 161.029 47.7805 161.242 47.468C161.456 47.1502 161.609 46.8664 161.703 46.6164C161.802 46.3612 161.852 46.119 161.852 45.8898C161.852 45.5461 161.794 45.2518 161.68 45.007C161.565 44.757 161.396 44.5643 161.172 44.4289C160.953 44.2935 160.682 44.2258 160.359 44.2258C160.016 44.2258 159.719 44.3091 159.469 44.4758C159.224 44.6424 159.037 44.8742 158.906 45.1711C158.781 45.468 158.719 45.8039 158.719 46.1789H156.461C156.461 45.5018 156.622 44.882 156.945 44.3195C157.268 43.7518 157.724 43.3013 158.313 42.968C158.901 42.6294 159.599 42.4601 160.406 42.4601C161.203 42.4601 161.875 42.5903 162.422 42.8508C162.974 43.106 163.391 43.4758 163.672 43.9601C163.958 44.4393 164.102 45.0122 164.102 45.6789C164.102 46.0539 164.042 46.4211 163.922 46.7805C163.802 47.1346 163.63 47.4888 163.406 47.843C163.188 48.1919 162.922 48.5461 162.609 48.9055C162.297 49.2648 161.951 49.6372 161.57 50.0226L159.594 52.2414H164.469Z" fill="white"/>
<path d="M173.531 47.3117V49.2805C173.531 50.1346 173.44 50.8716 173.258 51.4914C173.076 52.106 172.813 52.6112 172.469 53.007C172.13 53.3976 171.727 53.6867 171.258 53.8742C170.789 54.0617 170.268 54.1555 169.695 54.1555C169.237 54.1555 168.81 54.0982 168.414 53.9836C168.018 53.8638 167.662 53.6789 167.344 53.4289C167.031 53.1789 166.76 52.8638 166.531 52.4836C166.307 52.0982 166.135 51.6398 166.016 51.1086C165.896 50.5773 165.836 49.968 165.836 49.2805V47.3117C165.836 46.4575 165.927 45.7258 166.109 45.1164C166.297 44.5018 166.56 43.9992 166.899 43.6086C167.242 43.218 167.649 42.9315 168.117 42.7492C168.586 42.5617 169.107 42.468 169.68 42.468C170.138 42.468 170.563 42.5278 170.953 42.6476C171.349 42.7622 171.706 42.9419 172.024 43.1867C172.341 43.4315 172.612 43.7466 172.836 44.132C173.06 44.5122 173.232 44.968 173.352 45.4992C173.471 46.0252 173.531 46.6294 173.531 47.3117ZM171.274 49.5773V47.007C171.274 46.5956 171.25 46.2362 171.203 45.9289C171.162 45.6216 171.096 45.3612 171.008 45.1476C170.919 44.9289 170.81 44.7518 170.68 44.6164C170.55 44.481 170.401 44.382 170.234 44.3195C170.068 44.257 169.883 44.2258 169.68 44.2258C169.425 44.2258 169.198 44.2752 169 44.3742C168.807 44.4732 168.643 44.632 168.508 44.8508C168.372 45.0643 168.268 45.3508 168.195 45.7101C168.128 46.0643 168.094 46.4966 168.094 47.007V49.5773C168.094 49.9888 168.115 50.3508 168.156 50.6633C168.203 50.9758 168.271 51.244 168.359 51.468C168.453 51.6867 168.563 51.8664 168.688 52.007C168.818 52.1424 168.966 52.2414 169.133 52.3039C169.305 52.3664 169.492 52.3976 169.695 52.3976C169.945 52.3976 170.167 52.3482 170.359 52.2492C170.557 52.145 170.724 51.9836 170.859 51.7648C171 51.5409 171.104 51.2492 171.172 50.8898C171.24 50.5305 171.274 50.093 171.274 49.5773Z" fill="white"/>
<path d="M182.844 52.2414V53.9992H175.063V52.4992L178.742 48.5539C179.112 48.1424 179.404 47.7805 179.617 47.468C179.831 47.1502 179.984 46.8664 180.078 46.6164C180.177 46.3612 180.227 46.119 180.227 45.8898C180.227 45.5461 180.169 45.2518 180.055 45.007C179.94 44.757 179.771 44.5643 179.547 44.4289C179.328 44.2935 179.057 44.2258 178.734 44.2258C178.391 44.2258 178.094 44.3091 177.844 44.4758C177.599 44.6424 177.412 44.8742 177.281 45.1711C177.156 45.468 177.094 45.8039 177.094 46.1789H174.836C174.836 45.5018 174.997 44.882 175.32 44.3195C175.643 43.7518 176.099 43.3013 176.688 42.968C177.276 42.6294 177.974 42.4601 178.781 42.4601C179.578 42.4601 180.25 42.5903 180.797 42.8508C181.349 43.106 181.766 43.4758 182.047 43.9601C182.333 44.4393 182.477 45.0122 182.477 45.6789C182.477 46.0539 182.417 46.4211 182.297 46.7805C182.177 47.1346 182.005 47.4888 181.781 47.843C181.563 48.1919 181.297 48.5461 180.984 48.9055C180.672 49.2648 180.326 49.6372 179.945 50.0226L177.969 52.2414H182.844Z" fill="white"/>
<path d="M192.219 49.7492V51.5148H184.024L183.914 50.1476L188.656 42.6242H190.445L188.508 45.8664L186.149 49.7492H192.219ZM190.93 42.6242V53.9992H188.68V42.6242H190.93Z" fill="white"/>
</svg>
