<svg width="208" height="220" viewBox="0 0 208 220" fill="none" xmlns="http://www.w3.org/2000/svg">
<path d="M182.111 88.9233C181.306 80.6498 175.866 65.2811 175.866 65.2811C182.305 58.5837 200.808 50.3349 201.613 37.3334C202.418 24.3318 196.351 23.2739 187.745 18.2142C183.926 15.9673 179.67 20.6061 174.758 31.99C171.378 39.8255 160.908 55.3221 160.908 55.3221C157.778 46.7171 121.218 52.3582 121.218 52.3582C110.622 28.5942 109.365 11.1205 106.549 6.78717C105.843 5.69997 104.391 5.85419 102.518 6.94755L103.731 9.68014C103.731 9.68014 113.866 49.587 112.706 53.2002C111.548 56.8134 99.4764 63.2178 90.0805 50.0805C87.0121 45.7919 84.2934 41.9443 82.011 38.6904C80.8186 54.0067 98.1942 71.5884 98.1942 71.5884C95.3778 76.3165 95.7795 110.988 94.5729 118.597C93.3663 126.205 82.3985 161.124 68.0125 173.239C54.8898 184.289 0 235.358 0 235.358H158.381C159.007 219.467 152.525 191.756 154.536 180.724C156.548 169.692 163.59 142.211 163.59 142.211C163.59 142.211 193.904 144.179 198.356 133.847C204.593 119.368 207.322 108.531 207.462 104.716C207.708 98.0218 182.111 88.9233 182.111 88.9233Z" fill="url(#paint0_linear)"/>
<path d="M112.706 53.1984C113.864 49.5853 103.731 9.67839 103.731 9.67839L102.518 6.9458C96.9214 10.212 87.5554 21.8797 83.0331 33.9837C82.4614 35.512 82.1369 37.088 82.0125 38.6887C84.2949 41.941 87.0136 45.7885 90.082 50.0787C99.4763 63.216 111.548 56.8116 112.706 53.1984Z" fill="url(#paint1_linear)"/>
<path d="M83.5014 34.1589L83.5015 34.1587C85.7431 28.159 89.1899 22.2572 92.7736 17.4494C96.1601 12.9061 99.6347 9.38554 102.293 7.67107L103.257 9.84242L103.275 9.91565L103.36 10.2497C103.433 10.5426 103.542 10.9728 103.679 11.5216C103.954 12.6192 104.345 14.1914 104.81 16.0894C105.742 19.8857 106.972 24.9843 108.165 30.1951C109.359 35.4072 110.515 40.7262 111.301 44.9652C111.693 47.0856 111.992 48.9281 112.156 50.3485C112.238 51.0593 112.286 51.6561 112.296 52.1251C112.307 52.6109 112.275 52.9057 112.23 53.0459C111.993 53.7849 111.138 54.7817 109.738 55.659C108.36 56.5229 106.523 57.2246 104.436 57.4222C100.292 57.8145 95.0919 56.2251 90.4887 49.7879L90.4887 49.7878C87.4677 45.564 84.7858 41.7693 82.5256 38.5495C82.6565 37.0523 82.9687 35.5828 83.5014 34.1589Z" stroke="black" stroke-opacity="0.1"/>
<path d="M121.218 52.3579L114.454 37.2992C114.454 37.2992 116.162 33.7369 114.454 22.6521C114.454 22.6521 121.529 27.9078 121.864 31.8494C121.864 31.8494 123.625 18.0551 120.605 10.5003C120.605 10.5003 130.838 16.6579 132.013 25.9369C132.013 25.9369 137.045 12.4711 136.71 4.25932C136.71 4.25932 143.42 11.239 142.162 21.8318C142.162 21.8318 149.458 7.28037 148.787 0.350098C148.787 0.350098 153.903 13.5383 153.903 25.3617C153.903 25.3617 161.87 15.4258 162.206 10.4988C162.206 10.4988 163.044 23.3909 158.684 36.5282C158.684 36.5282 168.245 32.3536 169.922 26.3533C169.922 26.3533 172.942 33.3267 165.813 41.4552C165.813 41.4552 171.494 39.9624 176.297 35.1325C176.297 35.1325 175.724 51.445 159.844 55.3204C159.844 55.3204 140.616 49.8751 121.218 52.3579Z" fill="url(#paint2_linear)"/>
<path d="M86.7364 143.008C86.7364 143.008 84.4477 150.179 85.7157 150.765C94.7162 154.913 131.788 171.951 142.412 176.047C142.412 176.047 156.882 169.667 157.285 167.94C157.688 166.213 159.87 157.114 159.87 157.114C159.87 157.114 163.549 185.921 164.052 193.707C164.554 201.492 147.949 231.063 147.949 231.063C147.949 231.063 89.9781 206.121 83.7373 193.707C77.4965 181.293 72.9679 161.918 72.9679 161.918C72.9679 161.918 82.4031 143.008 86.7364 143.008Z" fill="#04B0A0"/>
<path d="M81.5054 154.032C81.5054 154.032 96.2662 167.006 100.461 169.797C104.654 172.589 112.706 177.844 112.706 177.844C112.706 177.844 84.8605 166.843 81.5054 154.032Z" fill="#02857A"/>
<path d="M78.9755 158.803C78.9755 158.803 90.2851 174.757 93.7095 178.42C97.134 182.083 103.731 189.013 103.731 189.013C103.731 189.013 79.2243 172.023 78.9755 158.803Z" fill="#02857A"/>
<path d="M90.0803 134.212C90.0803 134.212 84.3735 119.873 66.593 113.632C66.593 113.632 71.654 133.63 86.7362 143.01L90.0803 134.212Z" fill="#04B0A0"/>
<path d="M88.4721 138.44C88.4721 138.44 71.3343 124.387 69.3827 121.369C69.3827 121.369 75.4691 137.487 86.7363 143.008L88.4721 138.44Z" fill="#02857A"/>
<path d="M86.7364 143.008C86.7364 143.008 75.9859 135.637 63.5736 137.936C63.5736 137.936 64.7991 140.05 66.7113 142.32L85.6779 143.855C86.3489 143.354 86.7364 143.008 86.7364 143.008Z" fill="#04B0A0"/>
<path d="M75.1542 147.789C79.6025 147.941 83.7877 145.266 85.6779 143.853L66.7113 142.319C68.885 144.899 71.9487 147.679 75.1542 147.789Z" fill="#02857A"/>
<path d="M192.736 134.243C192.736 134.243 186.867 125.129 184.12 125.129C178.057 125.129 173.193 134.282 152.561 133.833C152.561 133.833 173.697 137.61 180.897 128.931C182.44 127.069 185.325 126.803 186.43 128.505C186.432 128.504 189.633 134.265 192.736 134.243Z" fill="#AF6632"/>
<path d="M163.59 142.21C163.59 142.21 143.975 140.75 135.875 140.676C119.472 140.526 144.832 174.955 144.832 174.955C144.832 174.955 156.222 170.355 157.285 167.942C158.348 165.529 163.59 142.21 163.59 142.21Z" fill="#AF6632"/>
<path d="M132.213 69.4575L138.353 70.082C139.026 70.1499 139.591 70.5986 139.79 71.2309C140.677 74.0422 143.071 81.9224 143.62 86.7832C143.726 87.7115 142.957 88.5057 142.004 88.4548L134.362 88.0507C133.606 88.0106 132.991 87.4448 132.914 86.7061C132.621 83.9226 131.813 77.1017 130.402 71.4915C130.123 70.3797 131.049 69.3388 132.213 69.4575Z" fill="#2F364B"/>
<path d="M132.353 70.5139L134.76 70.7544C135.023 70.7806 135.253 71.0074 135.343 71.3343C135.743 72.7901 136.83 76.8721 137.14 79.4027C137.198 79.8854 136.915 80.311 136.543 80.2987L133.555 80.1938C133.259 80.183 133.009 79.8961 132.964 79.5122C132.796 78.0626 132.349 74.5126 131.689 71.6027C131.556 71.0244 131.896 70.4677 132.353 70.5139Z" fill="white"/>
<path d="M168.61 74.1448L173.799 74.7169C174.368 74.7801 174.845 75.1903 175.013 75.7686C175.763 78.3424 177.786 85.5549 178.25 90.0054C178.339 90.8551 177.69 91.5815 176.885 91.5352L170.425 91.1666C169.785 91.1296 169.267 90.6115 169.203 89.9361C168.955 87.3885 168.272 81.1445 167.079 76.0092C166.845 74.9899 167.626 74.0353 168.61 74.1448Z" fill="#2F364B"/>
<path d="M171.64 93.5982C171.64 93.5982 171.981 90.1099 174.87 89.3696C179.749 88.119 194.161 89.584 195.948 92.6744C197.734 95.7633 194.664 107.891 188.122 107.886C184.758 107.883 172.646 103.779 171.64 93.5982Z" fill="url(#paint3_linear)"/>
<path d="M168.943 75.081L171.148 75.3015C171.389 75.3262 171.6 75.5328 171.682 75.8335C172.049 77.1674 173.046 80.9102 173.33 83.2311C173.383 83.6736 173.123 84.0638 172.781 84.0514L170.042 83.9559C169.771 83.9467 169.541 83.6829 169.5 83.3313C169.346 82.002 168.935 78.7481 168.33 76.0802C168.214 75.5497 168.525 75.0394 168.943 75.081Z" fill="white"/>
<path d="M186.257 107.705C186.257 107.705 184.162 98.0578 181.478 97.6091C178.794 97.1603 179.775 100.174 181.15 101.648C182.525 103.122 184.948 107.096 184.948 107.096L186.257 107.705Z" fill="#AF6632"/>
<path d="M189.481 107.705C189.481 107.705 191.554 99.2761 192.735 99.5321C193.917 99.7881 193.852 101.538 193.263 102.33C192.674 103.121 190.28 107.414 190.28 107.414L189.481 107.705Z" fill="#AF6632"/>
<path d="M114.454 97.3698C114.454 97.3698 130.86 94.9163 136.077 97.9928C141.294 101.069 141.949 102.608 141.949 102.608C141.949 102.608 131.038 97.6443 114.454 97.3698Z" fill="#AF6632"/>
<path d="M107.571 106.774C107.571 106.774 121.318 100.969 128.088 102.715C134.858 104.461 136.424 105.752 136.424 105.752C136.424 105.752 123.181 103.471 107.571 106.774Z" fill="#AF6632"/>
<path d="M107.571 117.521C107.571 117.521 117.345 109.4 124.714 109.753C132.082 110.107 134.28 111.027 134.28 111.027C134.28 111.027 120.496 111.408 107.571 117.521Z" fill="#AF6632"/>
<defs>
<linearGradient id="paint0_linear" x1="103.731" y1="6.04464" x2="103.731" y2="235.356" gradientUnits="userSpaceOnUse">
<stop stop-color="#FEC55B"/>
<stop offset="1" stop-color="#F69022"/>
</linearGradient>
<linearGradient id="paint1_linear" x1="97.4045" y1="6.94765" x2="97.4045" y2="57.9785" gradientUnits="userSpaceOnUse">
<stop offset="0.1484" stop-color="#EBDDDC"/>
<stop offset="0.9864" stop-color="#E2C2A0"/>
</linearGradient>
<linearGradient id="paint2_linear" x1="145.376" y1="0.349481" x2="145.376" y2="55.321" gradientUnits="userSpaceOnUse">
<stop stop-color="#E88269"/>
<stop offset="1" stop-color="#E45266"/>
</linearGradient>
<linearGradient id="paint3_linear" x1="184.045" y1="88.9224" x2="184.045" y2="107.885" gradientUnits="userSpaceOnUse">
<stop stop-color="#E88269"/>
<stop offset="1" stop-color="#E45266"/>
</linearGradient>
</defs>
</svg>
