<svg width="33" height="54" viewBox="0 0 33 54" fill="none" xmlns="http://www.w3.org/2000/svg">
<path d="M0.645508 27.5542L3.81485 29.5805L6.98418 31.5895L16.5095 37.6684L22.8655 33.6158L32.3909 27.5542L16.5095 0L0.645508 27.5542Z" fill="#1C63AD"/>
<path d="M26.8316 34.3431L16.5269 40.9069L11.8681 37.9281V37.9454L6.23954 34.3431L6.25686 34.3604L0.714844 30.8101L16.5096 53.9999L32.3909 30.8101L26.8316 34.3604V34.3431Z" fill="#1C63AD"/>
<path d="M0.645508 27.5542L16.5095 37.6684V0L0.645508 27.5542Z" fill="#07AED1"/>
<path d="M32.3909 27.5542L16.5095 37.6684V0L32.3909 27.5542Z" fill="#214290"/>
<path d="M3.81494 29.5805L16.5096 37.6684V7.53369L3.81494 29.5805Z" fill="#E32227"/>
<path d="M29.2042 29.5805L16.5095 37.6684V7.53369L29.2042 29.5805Z" fill="#7F141C"/>
<path d="M6.98413 31.5895L16.5095 37.6684V15.0674L6.98413 31.5895Z" fill="#FBCD0B"/>
<path d="M26.0349 31.5895L16.5095 37.6684V15.0674L26.0349 31.5895Z" fill="#F68D1E"/>
<path d="M10.1709 33.6158L16.5096 37.6684V22.6011L10.1709 33.6158Z" fill="#FBCD0B"/>
<path d="M22.8655 33.6158L16.5095 37.6684V22.6011L22.8655 33.6158Z" fill="#F68D1E"/>
<path d="M32.3909 30.8101L16.5095 53.9999V40.9242L32.3909 30.8101Z" fill="#214290"/>
<path d="M0.714844 30.8101L16.5096 53.9999V40.9242L0.714844 30.8101Z" fill="#07AED1"/>
<path d="M26.8315 34.3433L16.5095 49.4106V40.9071L26.8315 34.3433Z" fill="#7F141C"/>
<path d="M6.2395 34.3433L16.5095 49.4106V40.9071L6.2395 34.3433Z" fill="#E32227"/>
<path d="M21.2029 37.9282L16.5269 44.7692V40.9071L21.2029 37.9282Z" fill="#F68D1E"/>
<path d="M11.8679 37.9282L16.5267 44.7692V40.9071L11.8679 37.9282Z" fill="#FBCD0B"/>
<path opacity="0.75" d="M16.5096 37.6681L18.6744 33.8926H14.3447L16.5096 37.6681Z" fill="white"/>
<path opacity="0.75" d="M16.5096 22.6012L18.6744 18.8257H14.3447L16.5096 22.6012Z" fill="white"/>
<path opacity="0.75" d="M18.6744 26.3593L20.8565 22.6011H16.5095L18.6744 26.3593Z" fill="white"/>
<path opacity="0.75" d="M23.0213 26.3593L25.1861 22.6011H20.8564L23.0213 26.3593Z" fill="white"/>
<path opacity="0.75" d="M20.8565 30.1349L23.0213 26.3594H18.6743L20.8565 30.1349Z" fill="white"/>
<path opacity="0.75" d="M18.6744 33.8929L20.8565 30.1348H16.5095L18.6744 33.8929Z" fill="white"/>
<path opacity="0.75" d="M14.3448 33.8929L16.5096 30.1348H12.1799L14.3448 33.8929Z" fill="white"/>
<path opacity="0.75" d="M9.99761 26.3593L7.83276 22.6011H12.1798L9.99761 26.3593Z" fill="white"/>
<path opacity="0.75" d="M12.1797 30.1349L9.99756 26.3594H14.3446L12.1797 30.1349Z" fill="white"/>
<path opacity="0.75" d="M14.3448 26.3593L12.1799 22.6011H16.5096L14.3448 26.3593Z" fill="white"/>
<path opacity="0.75" d="M18.6744 18.8256L20.8565 15.0674H16.5095L18.6744 18.8256Z" fill="white"/>
<path opacity="0.75" d="M14.3448 18.8256L12.1799 15.0674H16.5096L14.3448 18.8256Z" fill="white"/>
</svg>
