<svg width="134" height="234" viewBox="0 0 134 234" fill="none" xmlns="http://www.w3.org/2000/svg">
<path d="M186.714 114.865L105.06 -26.813L95.152 -44L85.2444 -26.813L3.58964 114.861L0 121.087L4.06216 127.017L85.7207 246.225L95.152 259.996L104.583 246.225L186.238 127.017L190.3 121.087L186.714 114.865ZM117.242 155.869C116.88 155.408 116.332 155.138 115.741 155.138H41.719L96.8668 42.7309L96.0514 42.3311H127.287L82.5617 117.995C82.2149 118.585 82.2073 119.313 82.5464 119.907C82.8856 120.501 83.5181 120.866 84.204 120.866H147.312L101.985 220.211L117.593 157.503C117.734 156.935 117.604 156.333 117.242 155.869ZM42.9537 143.968L61.2753 42.3311H92.8161L42.9537 143.968ZM174.787 117.058H87.5384L131.711 42.3272L174.787 117.058ZM173.221 120.866L106.382 219.761L151.504 120.866H173.221ZM95.152 -21.1119L129.524 38.5227H60.7799L95.152 -21.1119ZM56.8626 45.3206L37.0929 155.016L13.4935 120.566L56.8626 45.3206ZM39.787 158.946H113.306L93.7116 237.672L39.787 158.946Z" fill="#2F354B"/>
</svg>
