<svg width="105" height="32" viewBox="0 0 105 32" fill="none" xmlns="http://www.w3.org/2000/svg">
<path d="M9.67958 24.2517V31.9999L0 18.2617L9.67958 24.2517Z" fill="#0DAFD2"/>
<path d="M19.3597 18.2617L9.67944 31.9999V24.2517L19.3597 18.2617Z" fill="#667BBC"/>
<path d="M19.3597 16.3266L9.67944 10.9827V22.3165L19.3597 16.3266Z" fill="#9E69AC"/>
<path d="M19.3597 16.3267L9.67944 0V10.9828L19.3597 16.3267Z" fill="#F58B77"/>
<path d="M9.67958 0V10.9828L0 16.3267L9.67958 0Z" fill="#FCEB67"/>
<path d="M9.67958 10.9827V22.3165L0 16.3266L9.67958 10.9827Z" fill="#54BC7A"/>
<path d="M36 12.4001C36 11.8773 36.1101 11.415 36.3302 11.0121C36.5508 10.6096 36.858 10.2978 37.2534 10.077C37.6482 9.85721 38.1053 9.74683 38.6234 9.74683C39.1222 9.74683 39.5675 9.86018 39.9593 10.0869C40.3511 10.3136 40.6573 10.6314 40.8779 11.0403C41.0981 11.4496 41.2081 11.9154 41.2081 12.4377V12.8342H37.3889C37.4083 13.1495 37.531 13.4039 37.7583 13.599C37.985 13.7945 38.2831 13.892 38.6525 13.892C38.9118 13.892 39.1513 13.8371 39.3714 13.7267C39.592 13.6163 39.8314 13.4262 40.0908 13.1554L40.9554 14.0148C40.6573 14.3355 40.3139 14.5855 39.9257 14.7652C39.5364 14.9444 39.112 15.0345 38.6525 15.0345C38.1277 15.0345 37.6645 14.9241 37.2625 14.7038C36.8611 14.484 36.5503 14.1742 36.3296 13.7742C36.109 13.3742 36 12.9164 36 12.4001ZM39.809 11.8526C39.783 11.5754 39.6587 11.3462 39.435 11.163C39.2119 10.9809 38.9408 10.8893 38.6239 10.8893C38.2933 10.8893 38.0212 10.9774 37.8072 11.1536C37.5932 11.3294 37.4602 11.5625 37.4088 11.8521H39.809V11.8526Z" fill="black"/>
<path d="M45.4364 11.0972V13.1079C45.4364 13.2777 45.4767 13.4005 45.5577 13.4757C45.6387 13.5515 45.7732 13.5891 45.9612 13.5891H47.1371V14.8919H45.8348C45.2647 14.8919 44.8245 14.7613 44.5132 14.4999C44.2024 14.239 44.0465 13.8663 44.0465 13.3812V11.0967H42.7834V9.88841H44.0465V8.61377H45.4364V9.88841H47.4576V11.0967H45.4364V11.0972Z" fill="black"/>
<path d="M49.2256 8H50.6155V10.3513H50.6349C50.9976 9.94884 51.4939 9.74688 52.1221 9.74688C52.4976 9.74688 52.8313 9.83499 53.1227 10.0112C53.4142 10.1869 53.6414 10.4354 53.8034 10.7567C53.9649 11.0779 54.0465 11.4492 54.0465 11.8709V14.8925H52.6566V12.0506C52.6566 11.717 52.5689 11.4561 52.3942 11.267C52.2189 11.0784 51.9794 10.9839 51.6748 10.9839C51.3446 10.9839 51.0853 11.077 50.8978 11.2621C50.7098 11.4482 50.6155 11.7046 50.6155 12.0318V14.8925H49.2256V8Z" fill="black"/>
<path d="M55.4739 12.4001C55.4739 11.8773 55.5839 11.415 55.804 11.0121C56.0246 10.6096 56.3319 10.2978 56.7272 10.077C57.1221 9.85721 57.5791 9.74683 58.0973 9.74683C58.5961 9.74683 59.0414 9.86018 59.4332 10.0869C59.825 10.3136 60.1312 10.6314 60.3518 11.0403C60.5719 11.4496 60.682 11.9154 60.682 12.4377V12.8342H56.8628C56.8821 13.1495 57.0049 13.4039 57.2322 13.599C57.4589 13.7945 57.7569 13.892 58.1263 13.892C58.3857 13.892 58.6251 13.8371 58.8452 13.7267C59.0658 13.6163 59.3053 13.4262 59.5647 13.1554L60.4293 14.0148C60.1312 14.3355 59.7878 14.5855 59.3996 14.7652C59.0103 14.9444 58.5859 15.0345 58.1263 15.0345C57.6015 15.0345 57.1384 14.9241 56.7364 14.7038C56.3349 14.484 56.0241 14.1742 55.8035 13.7742C55.5829 13.3742 55.4739 12.9164 55.4739 12.4001ZM59.2834 11.8526C59.2574 11.5754 59.1331 11.3462 58.9094 11.163C58.6863 10.9809 58.4152 10.8893 58.0983 10.8893C57.7676 10.8893 57.4956 10.9774 57.2816 11.1536C57.0676 11.3294 56.9346 11.5625 56.8832 11.8521H59.2834V11.8526Z" fill="black"/>
<path d="M62.5869 9.88889H63.9182V10.3517H63.9376C64.1577 10.1374 64.386 9.98343 64.6229 9.88889C64.8593 9.79434 65.1298 9.74731 65.4345 9.74731C65.8813 9.74731 66.267 9.87453 66.5911 10.1295C66.9151 10.3844 67.1413 10.7324 67.2713 11.1724L65.969 11.5877C65.8197 11.1789 65.5125 10.9744 65.0458 10.9744C64.6957 10.9744 64.4303 11.0734 64.2494 11.2719C64.068 11.4699 63.9773 11.7422 63.9773 12.0882V14.8924H62.5874V9.88889H62.5869Z" fill="black"/>
<path d="M68.457 12.4001C68.457 11.8773 68.5671 11.415 68.7872 11.0121C69.0078 10.6096 69.315 10.2978 69.7104 10.077C70.1053 9.85721 70.5623 9.74683 71.0804 9.74683C71.5792 9.74683 72.0246 9.86018 72.4164 10.0869C72.8082 10.3136 73.1144 10.6314 73.335 11.0403C73.5551 11.4496 73.6651 11.9154 73.6651 12.4377V12.8342H69.8459C69.8653 13.1495 69.9881 13.4039 70.2153 13.599C70.442 13.7945 70.7401 13.892 71.1095 13.892C71.3688 13.892 71.6083 13.8371 71.8284 13.7267C72.049 13.6163 72.2885 13.4262 72.5478 13.1554L73.4124 14.0148C73.1144 14.3355 72.771 14.5855 72.3827 14.7652C71.9935 14.9444 71.5691 15.0345 71.1095 15.0345C70.5847 15.0345 70.1216 14.9241 69.7196 14.7038C69.3181 14.484 69.0073 14.1742 68.7867 13.7742C68.5661 13.3742 68.457 12.9164 68.457 12.4001ZM72.2661 11.8526C72.2401 11.5754 72.1158 11.3462 71.8921 11.163C71.6689 10.9809 71.3979 10.8893 71.081 10.8893C70.7503 10.8893 70.4782 10.9774 70.2642 11.1536C70.0502 11.3294 69.9173 11.5625 69.8658 11.8521H72.2661V11.8526Z" fill="black"/>
<path d="M75.2393 13.1931V9.88892H76.6292V12.8817C76.6292 13.4921 76.94 13.7975 77.5621 13.7975C77.8408 13.7975 78.0624 13.7143 78.228 13.5475C78.3936 13.3807 78.4756 13.1589 78.4756 12.8817V9.88892H79.8655V14.8924H78.5342V14.4489H78.5148C78.3722 14.6251 78.1765 14.7672 77.9269 14.8736C77.6777 14.9806 77.4169 15.034 77.1448 15.034C76.5359 15.034 76.0662 14.8721 75.7355 14.5479C75.4048 14.2242 75.2393 13.7727 75.2393 13.1931Z" fill="black"/>
<path d="M81.2945 9.88898H82.5188V10.3231H82.5381C82.6482 10.1533 82.7893 10.0226 82.961 9.93155C83.1327 9.83997 83.3218 9.79443 83.5291 9.79443C83.9377 9.79443 84.2643 9.98056 84.5109 10.3518H84.5303C84.7896 9.98056 85.1458 9.79443 85.5992 9.79443C85.9747 9.79443 86.2799 9.92363 86.5128 10.1815C86.7461 10.4394 86.8628 10.7765 86.8628 11.1918V14.893H85.5799V11.428C85.5799 11.2834 85.5411 11.173 85.4632 11.0978C85.3857 11.022 85.2752 10.9844 85.133 10.9844C84.9965 10.9844 84.8885 11.027 84.8075 11.1121C84.7264 11.1973 84.6862 11.3116 84.6862 11.4567V14.893H83.471V11.428C83.471 11.2898 83.4338 11.1809 83.3595 11.1022C83.2851 11.024 83.1791 10.9844 83.0436 10.9844C82.9009 10.9844 82.7873 11.027 82.7032 11.1121C82.6192 11.1973 82.5769 11.3116 82.5769 11.4567V14.893H81.2939V9.88898H81.2945Z" fill="black"/>
<path d="M37.5547 21.62H36.1943V20.4117H37.5547V19.6756C37.5547 19.2346 37.7055 18.8871 38.0066 18.6321C38.3082 18.3772 38.724 18.25 39.2554 18.25H40.7523V19.4494H39.421C39.285 19.4494 39.181 19.4841 39.1102 19.5534C39.0394 19.6227 39.0032 19.7202 39.0032 19.8459V20.4127H41.0636V21.621H39.0032V24.8593H37.5547V21.62Z" fill="black"/>
<path d="M42.4919 22.3562C42.4919 21.8404 42.602 21.3825 42.8221 20.9831C43.0422 20.5836 43.352 20.2713 43.7499 20.048C44.1483 19.8248 44.6038 19.7129 45.1159 19.7129C45.634 19.7129 46.0921 19.8248 46.4905 20.048C46.8889 20.2713 47.1987 20.5831 47.4183 20.9831C47.6389 21.383 47.7484 21.8404 47.7484 22.3562C47.7484 22.8725 47.6384 23.3304 47.4183 23.7299C47.1982 24.1298 46.8889 24.4417 46.4905 24.6649C46.0921 24.8882 45.6335 25.0001 45.1159 25.0001C44.6038 25.0001 44.1488 24.8882 43.7499 24.6649C43.352 24.4417 43.0422 24.1298 42.8221 23.7299C42.602 23.3299 42.4919 22.8725 42.4919 22.3562ZM46.3596 22.3562C46.3596 21.9157 46.251 21.5711 46.034 21.3227C45.8169 21.0737 45.5112 20.9494 45.1159 20.9494C44.7266 20.9494 44.424 21.0737 44.2069 21.3227C43.9899 21.5711 43.8813 21.9157 43.8813 22.3562C43.8813 22.7973 43.9899 23.1418 44.2069 23.3903C44.424 23.6388 44.7271 23.763 45.1159 23.763C45.5046 23.763 45.8088 23.6373 46.0289 23.3853C46.2495 23.1344 46.3596 22.7908 46.3596 22.3562Z" fill="black"/>
<path d="M49.2742 23.1587V19.8545H50.6641V22.8473C50.6641 23.4576 50.9749 23.7631 51.597 23.7631C51.8757 23.7631 52.0973 23.6799 52.2629 23.5131C52.4285 23.3463 52.5105 23.1245 52.5105 22.8473V19.8545H53.9004V24.858H52.5691V24.4145H52.5497C52.4071 24.5907 52.2114 24.7328 51.9618 24.8392C51.7126 24.9461 51.4518 24.9996 51.1797 24.9996C50.5708 24.9996 50.1011 24.8377 49.7704 24.5135C49.4393 24.1898 49.2742 23.7383 49.2742 23.1587Z" fill="black"/>
<path d="M55.7173 19.855H57.1072V20.3267H57.1266C57.3339 20.1257 57.5576 19.9728 57.7971 19.8688C58.0365 19.7649 58.3086 19.7134 58.6138 19.7134C58.9506 19.7134 59.2644 19.7901 59.5564 19.9445C59.8483 20.099 60.0842 20.3351 60.2661 20.6529C60.447 20.9712 60.5382 21.3657 60.5382 21.8379V24.8595H59.1478V22.0176C59.1478 21.6969 59.0632 21.4385 58.8951 21.2439C58.7264 21.0484 58.4834 20.9509 58.166 20.9509C57.8358 20.9509 57.5765 21.044 57.389 21.2291C57.201 21.4152 57.1067 21.6716 57.1067 21.9988V24.8595H55.7168V19.855H55.7173Z" fill="black"/>
<path d="M61.8586 22.3563C61.8586 21.8529 61.959 21.3994 62.1603 20.997C62.361 20.5945 62.6428 20.2797 63.0055 20.053C63.3683 19.8263 63.78 19.7129 64.2395 19.7129C64.8229 19.7129 65.2794 19.8639 65.6096 20.1659H65.6289V17.9661H67.0189V24.8585H65.7359V24.4244H65.7166C65.3344 24.808 64.8356 25.0001 64.2197 25.0001C63.7662 25.0001 63.3596 24.8897 62.9999 24.6694C62.6407 24.4497 62.36 24.1398 62.1598 23.7398C61.959 23.3403 61.8586 22.879 61.8586 22.3563ZM65.6289 22.6775V22.0266C65.6289 21.8375 65.577 21.6618 65.4735 21.4979C65.3696 21.3346 65.2259 21.2019 65.041 21.1014C64.856 21.0009 64.6502 20.95 64.424 20.95C64.0607 20.95 63.7744 21.0777 63.5639 21.3321C63.3535 21.5875 63.248 21.9286 63.248 22.3563C63.248 22.7785 63.355 23.1181 63.569 23.3765C63.7825 23.6344 64.0648 23.7631 64.4143 23.7631C64.7638 23.7631 65.0542 23.6581 65.284 23.4468C65.5143 23.2364 65.6289 22.9795 65.6289 22.6775Z" fill="black"/>
<path d="M68.778 23.518C68.778 23.0522 68.941 22.6904 69.2686 22.4325C69.5957 22.1746 70.1414 21.9855 70.9062 21.8657C71.3076 21.8028 71.5812 21.7315 71.727 21.6528C71.8727 21.5746 71.946 21.4687 71.946 21.3365C71.946 21.185 71.8742 21.0657 71.7321 20.9776C71.5899 20.8895 71.3953 20.845 71.1487 20.845C70.87 20.845 70.6285 20.9271 70.4247 21.0905C70.2209 21.2543 70.0894 21.4717 70.0314 21.7419L68.7393 21.4588C68.804 21.1187 68.9497 20.8168 69.1759 20.5524C69.4026 20.2881 69.6879 20.0822 70.0314 19.9342C70.3748 19.7862 70.7472 19.7124 71.1487 19.7124C71.8095 19.7124 72.3373 19.8916 72.7327 20.2505C73.1276 20.6094 73.3253 21.0875 73.3253 21.6855V24.8575H72.0816V24.3006H72.0622C71.9129 24.5209 71.7045 24.6922 71.4355 24.8149C71.167 24.9377 70.8639 24.9991 70.5271 24.9991C70.1903 24.9991 69.8892 24.9362 69.6237 24.81C69.3583 24.6842 69.1504 24.508 69.0016 24.2818C68.8519 24.0561 68.778 23.8012 68.778 23.518ZM72.0041 22.9983V22.432H71.9848C71.9267 22.526 71.8289 22.6018 71.6933 22.6582C71.5578 22.7146 71.3433 22.7715 71.0519 22.8285C70.6891 22.9037 70.4395 22.9839 70.3034 23.069C70.1674 23.1542 70.0996 23.272 70.0996 23.423C70.0996 23.568 70.1592 23.6784 70.2795 23.7536C70.3997 23.8289 70.5724 23.867 70.7997 23.867C71.007 23.867 71.2047 23.8279 71.3927 23.7492C71.5802 23.6705 71.729 23.5636 71.8396 23.4284C71.9486 23.2928 72.0041 23.1497 72.0041 22.9983Z" fill="black"/>
<path d="M77.8922 21.0633V23.074C77.8922 23.2438 77.9325 23.3665 78.0135 23.4418C78.0945 23.5175 78.229 23.5551 78.417 23.5551H79.5929V24.858H78.2906C77.7205 24.858 77.2803 24.7273 76.969 24.466C76.6582 24.2051 76.5023 23.8323 76.5023 23.3472V21.0628H75.2393V19.8545H76.5023V18.5798H77.8922V19.8545H79.9134V21.0628H77.8922V21.0633Z" fill="black"/>
<path d="M86.5998 23.6214V24.8584H81.5369V23.6214H83.3731V21.0914H81.6337V19.8549H84.763V23.6214H86.5998ZM83.3446 17.7397H84.7732V19.0708H83.3446V17.7397Z" fill="black"/>
<path d="M87.9309 22.3562C87.9309 21.8404 88.041 21.3825 88.2611 20.9831C88.4812 20.5836 88.7909 20.2713 89.1889 20.048C89.5873 19.8248 90.0428 19.7129 90.5548 19.7129C91.073 19.7129 91.531 19.8248 91.9295 20.048C92.3279 20.2713 92.6377 20.5831 92.8573 20.9831C93.0779 21.383 93.1874 21.8404 93.1874 22.3562C93.1874 22.8725 93.0774 23.3304 92.8573 23.7299C92.6371 24.1298 92.3279 24.4417 91.9295 24.6649C91.531 24.8882 91.0725 25.0001 90.5548 25.0001C90.0428 25.0001 89.5878 24.8882 89.1889 24.6649C88.7909 24.4417 88.4812 24.1298 88.2611 23.7299C88.041 23.3299 87.9309 22.8725 87.9309 22.3562ZM91.798 22.3562C91.798 21.9157 91.6895 21.5711 91.4724 21.3227C91.2554 21.0737 90.9497 20.9494 90.5543 20.9494C90.1651 20.9494 89.8624 21.0737 89.6454 21.3227C89.4283 21.5711 89.3198 21.9157 89.3198 22.3562C89.3198 22.7973 89.4283 23.1418 89.6454 23.3903C89.8624 23.6388 90.1656 23.763 90.5543 23.763C90.9431 23.763 91.2472 23.6373 91.4673 23.3853C91.6885 23.1344 91.798 22.7908 91.798 22.3562Z" fill="black"/>
<path d="M94.665 19.855H96.055V20.3267H96.0743C96.2817 20.1257 96.5054 19.9728 96.7448 19.8688C96.9843 19.7649 97.2564 19.7134 97.5615 19.7134C97.8983 19.7134 98.2122 19.7901 98.5041 19.9445C98.7961 20.099 99.032 20.3351 99.2138 20.6529C99.3947 20.9712 99.4859 21.3657 99.4859 21.8379V24.8595H98.096V22.0176C98.096 21.6969 98.0114 21.4385 97.8433 21.2439C97.6746 21.0484 97.4316 20.9509 97.1142 20.9509C96.784 20.9509 96.5247 21.044 96.3372 21.2291C96.1492 21.4152 96.055 21.6716 96.055 21.9988V24.8595H94.665V19.855Z" fill="black"/>
</svg>
