<svg width="166" height="53" viewBox="0 0 166 53" fill="none" xmlns="http://www.w3.org/2000/svg">
<g clip-path="url(#clip0)">
<path d="M40.868 19.355C40.868 18.299 41.084 17.365 41.516 16.551C41.949 15.738 42.552 15.108 43.328 14.662C44.103 14.218 45 13.995 46.017 13.995C46.996 13.995 47.87 14.224 48.639 14.682C49.408 15.14 50.009 15.782 50.442 16.608C50.874 17.435 51.09 18.376 51.09 19.431V20.232H43.594C43.632 20.869 43.873 21.383 44.319 21.777C44.764 22.172 45.349 22.369 46.074 22.369C46.583 22.369 47.053 22.258 47.485 22.035C47.918 21.812 48.388 21.428 48.897 20.881L50.594 22.617C50.009 23.265 49.335 23.77 48.573 24.133C47.809 24.495 46.976 24.677 46.074 24.677C45.044 24.677 44.135 24.454 43.346 24.009C42.558 23.565 41.948 22.939 41.515 22.131C41.082 21.323 40.868 20.398 40.868 19.355ZM48.344 18.249C48.293 17.689 48.049 17.226 47.61 16.856C47.172 16.488 46.64 16.303 46.018 16.303C45.369 16.303 44.835 16.481 44.415 16.837C43.995 17.192 43.734 17.663 43.633 18.248H48.344V18.249Z" fill="white"/>
<path d="M59.388 16.723V20.785C59.388 21.128 59.467 21.376 59.626 21.528C59.785 21.681 60.049 21.757 60.418 21.757H62.726V24.389H60.17C59.051 24.389 58.187 24.125 57.576 23.597C56.966 23.07 56.66 22.317 56.66 21.337V16.722H54.181V14.281H56.66V11.706H59.388V14.281H63.355V16.722H59.388V16.723Z" fill="white"/>
<path d="M66.8259 10.466H69.5539V15.216H69.5919C70.3039 14.403 71.2779 13.995 72.5109 13.995C73.2479 13.995 73.9029 14.173 74.4749 14.529C75.0469 14.884 75.4929 15.386 75.8109 16.035C76.1279 16.684 76.2879 17.434 76.2879 18.286V24.39H73.5599V18.649C73.5599 17.975 73.3879 17.448 73.0449 17.066C72.7009 16.685 72.2309 16.494 71.6329 16.494C70.9849 16.494 70.4759 16.682 70.1079 17.056C69.7389 17.432 69.5539 17.95 69.5539 18.611V24.39H66.8259V10.466Z" fill="white"/>
<path d="M79.09 19.355C79.09 18.299 79.306 17.365 79.738 16.551C80.171 15.738 80.774 15.108 81.55 14.662C82.325 14.218 83.222 13.995 84.239 13.995C85.218 13.995 86.092 14.224 86.861 14.682C87.63 15.14 88.231 15.782 88.664 16.608C89.096 17.435 89.312 18.376 89.312 19.431V20.232H81.816C81.854 20.869 82.095 21.383 82.541 21.777C82.986 22.172 83.571 22.369 84.296 22.369C84.805 22.369 85.275 22.258 85.707 22.035C86.14 21.812 86.61 21.428 87.119 20.881L88.816 22.617C88.231 23.265 87.557 23.77 86.795 24.133C86.031 24.495 85.198 24.677 84.296 24.677C83.266 24.677 82.357 24.454 81.568 24.009C80.78 23.565 80.17 22.939 79.737 22.131C79.304 21.323 79.09 20.398 79.09 19.355ZM86.567 18.249C86.516 17.689 86.272 17.226 85.833 16.856C85.395 16.488 84.863 16.303 84.241 16.303C83.592 16.303 83.058 16.481 82.638 16.837C82.218 17.192 81.957 17.663 81.856 18.248H86.567V18.249Z" fill="white"/>
<path d="M93.051 14.282H95.664V15.217H95.702C96.134 14.784 96.582 14.473 97.047 14.282C97.511 14.091 98.042 13.996 98.64 13.996C99.517 13.996 100.274 14.253 100.91 14.768C101.546 15.283 101.99 15.986 102.245 16.875L99.689 17.714C99.396 16.888 98.793 16.475 97.877 16.475C97.19 16.475 96.669 16.675 96.314 17.076C95.958 17.476 95.78 18.026 95.78 18.725V24.39H93.052V14.282H93.051Z" fill="white"/>
<path d="M104.572 19.355C104.572 18.299 104.788 17.365 105.22 16.551C105.653 15.738 106.256 15.108 107.032 14.662C107.807 14.218 108.704 13.995 109.721 13.995C110.7 13.995 111.574 14.224 112.343 14.682C113.112 15.14 113.713 15.782 114.146 16.608C114.578 17.435 114.794 18.376 114.794 19.431V20.232H107.298C107.336 20.869 107.577 21.383 108.023 21.777C108.468 22.172 109.053 22.369 109.778 22.369C110.287 22.369 110.757 22.258 111.189 22.035C111.622 21.812 112.092 21.428 112.601 20.881L114.298 22.617C113.713 23.265 113.039 23.77 112.277 24.133C111.513 24.495 110.68 24.677 109.778 24.677C108.748 24.677 107.839 24.454 107.05 24.009C106.262 23.565 105.652 22.939 105.219 22.131C104.786 21.323 104.572 20.398 104.572 19.355ZM112.048 18.249C111.997 17.689 111.753 17.226 111.314 16.856C110.876 16.488 110.344 16.303 109.722 16.303C109.073 16.303 108.539 16.481 108.119 16.837C107.699 17.192 107.438 17.663 107.337 18.248H112.048V18.249Z" fill="white"/>
<path d="M117.884 20.957V14.282H120.612V20.328C120.612 21.561 121.222 22.178 122.443 22.178C122.99 22.178 123.425 22.01 123.75 21.673C124.075 21.336 124.236 20.888 124.236 20.328V14.282H126.964V24.39H124.351V23.494H124.313C124.033 23.85 123.649 24.137 123.159 24.352C122.67 24.568 122.158 24.676 121.624 24.676C120.429 24.676 119.507 24.349 118.858 23.694C118.209 23.04 117.884 22.128 117.884 20.957Z" fill="white"/>
<path d="M129.767 14.282H132.17V15.159H132.208C132.424 14.816 132.701 14.552 133.038 14.368C133.375 14.183 133.746 14.091 134.153 14.091C134.955 14.091 135.596 14.467 136.08 15.217H136.118C136.627 14.467 137.326 14.091 138.216 14.091C138.953 14.091 139.552 14.352 140.009 14.873C140.467 15.394 140.696 16.075 140.696 16.914V24.391H138.178V17.391C138.178 17.099 138.102 16.876 137.949 16.724C137.797 16.571 137.58 16.495 137.301 16.495C137.033 16.495 136.821 16.581 136.662 16.753C136.503 16.925 136.424 17.156 136.424 17.449V24.391H134.039V17.391C134.039 17.112 133.966 16.892 133.82 16.733C133.674 16.575 133.466 16.495 133.2 16.495C132.92 16.495 132.697 16.581 132.532 16.753C132.367 16.925 132.284 17.156 132.284 17.449V24.391H129.766V14.282H129.767Z" fill="white"/>
<path d="M43.92 37.981H41.25V35.54H43.92V34.053C43.92 33.162 44.216 32.46 44.807 31.945C45.399 31.43 46.215 31.173 47.258 31.173H50.196V33.596H47.583C47.316 33.596 47.112 33.666 46.973 33.806C46.834 33.946 46.763 34.143 46.763 34.397V35.542H50.807V37.983H46.763V44.525H43.92V37.981Z" fill="white"/>
<path d="M53.609 39.468C53.609 38.426 53.825 37.501 54.257 36.694C54.689 35.887 55.297 35.256 56.078 34.805C56.86 34.354 57.754 34.128 58.759 34.128C59.776 34.128 60.675 34.354 61.457 34.805C62.239 35.256 62.847 35.886 63.278 36.694C63.711 37.502 63.926 38.426 63.926 39.468C63.926 40.511 63.71 41.436 63.278 42.243C62.846 43.051 62.239 43.681 61.457 44.132C60.675 44.583 59.775 44.809 58.759 44.809C57.754 44.809 56.861 44.583 56.078 44.132C55.297 43.681 54.689 43.051 54.257 42.243C53.825 41.435 53.609 40.511 53.609 39.468ZM61.2 39.468C61.2 38.578 60.987 37.882 60.561 37.38C60.135 36.877 59.535 36.626 58.759 36.626C57.995 36.626 57.401 36.877 56.975 37.38C56.549 37.882 56.336 38.578 56.336 39.468C56.336 40.359 56.549 41.055 56.975 41.557C57.401 42.059 57.996 42.31 58.759 42.31C59.522 42.31 60.119 42.056 60.551 41.547C60.984 41.04 61.2 40.346 61.2 39.468Z" fill="white"/>
<path d="M66.922 41.089V34.414H69.65V40.46C69.65 41.693 70.26 42.31 71.481 42.31C72.028 42.31 72.463 42.142 72.788 41.805C73.113 41.468 73.274 41.02 73.274 40.46V34.414H76.002V44.522H73.389V43.626H73.351C73.071 43.982 72.687 44.269 72.197 44.484C71.708 44.7 71.196 44.808 70.662 44.808C69.467 44.808 68.545 44.481 67.896 43.826C67.246 43.172 66.922 42.26 66.922 41.089Z" fill="white"/>
<path d="M79.567 34.415H82.295V35.368H82.333C82.74 34.962 83.179 34.653 83.649 34.443C84.119 34.233 84.653 34.129 85.252 34.129C85.913 34.129 86.529 34.284 87.102 34.596C87.675 34.908 88.138 35.385 88.495 36.027C88.85 36.67 89.029 37.467 89.029 38.421V44.525H86.3V38.784C86.3 38.136 86.134 37.614 85.804 37.221C85.473 36.826 84.996 36.629 84.373 36.629C83.725 36.629 83.216 36.817 82.848 37.191C82.479 37.567 82.294 38.085 82.294 38.746V44.525H79.566V34.415H79.567Z" fill="white"/>
<path d="M91.621 39.468C91.621 38.451 91.818 37.535 92.213 36.722C92.607 35.909 93.16 35.273 93.872 34.815C94.584 34.357 95.392 34.128 96.294 34.128C97.439 34.128 98.335 34.433 98.983 35.043H99.021V30.599H101.749V44.523H99.231V43.646H99.193C98.443 44.421 97.464 44.809 96.255 44.809C95.365 44.809 94.567 44.586 93.861 44.141C93.156 43.697 92.605 43.071 92.212 42.263C91.818 41.456 91.621 40.524 91.621 39.468ZM99.021 40.117V38.802C99.021 38.42 98.919 38.065 98.716 37.734C98.512 37.404 98.23 37.136 97.867 36.933C97.504 36.73 97.1 36.627 96.656 36.627C95.943 36.627 95.381 36.885 94.968 37.399C94.555 37.915 94.348 38.604 94.348 39.468C94.348 40.321 94.558 41.007 94.978 41.529C95.397 42.05 95.951 42.31 96.637 42.31C97.323 42.31 97.893 42.098 98.344 41.671C98.796 41.246 99.021 40.727 99.021 40.117Z" fill="white"/>
<path d="M105.202 41.815C105.202 40.874 105.522 40.143 106.165 39.622C106.807 39.101 107.878 38.719 109.379 38.477C110.167 38.35 110.704 38.206 110.99 38.047C111.276 37.889 111.42 37.675 111.42 37.408C111.42 37.102 111.279 36.861 111 36.683C110.721 36.505 110.339 36.415 109.855 36.415C109.308 36.415 108.834 36.581 108.434 36.911C108.034 37.242 107.776 37.681 107.662 38.227L105.126 37.655C105.253 36.968 105.539 36.358 105.983 35.824C106.428 35.29 106.988 34.874 107.662 34.575C108.336 34.276 109.067 34.127 109.855 34.127C111.152 34.127 112.188 34.489 112.964 35.214C113.739 35.939 114.127 36.905 114.127 38.113V44.521H111.686V43.396H111.648C111.355 43.841 110.946 44.187 110.418 44.435C109.891 44.683 109.296 44.807 108.635 44.807C107.974 44.807 107.383 44.68 106.862 44.425C106.341 44.171 105.933 43.815 105.641 43.358C105.347 42.902 105.202 42.387 105.202 41.815ZM111.534 40.765V39.621H111.496C111.382 39.811 111.19 39.964 110.924 40.078C110.658 40.192 110.237 40.307 109.665 40.422C108.953 40.574 108.463 40.736 108.196 40.908C107.929 41.08 107.796 41.318 107.796 41.623C107.796 41.916 107.913 42.139 108.149 42.291C108.385 42.443 108.724 42.52 109.17 42.52C109.577 42.52 109.965 42.441 110.334 42.282C110.702 42.123 110.994 41.907 111.211 41.634C111.425 41.36 111.534 41.071 111.534 40.765Z" fill="white"/>
<path d="M123.091 36.856V40.918C123.091 41.261 123.17 41.509 123.329 41.661C123.488 41.814 123.752 41.89 124.121 41.89H126.429V44.522H123.873C122.754 44.522 121.89 44.258 121.279 43.73C120.669 43.203 120.363 42.45 120.363 41.47V36.855H117.884V34.414H120.363V31.839H123.091V34.414H127.058V36.855H123.091V36.856Z" fill="white"/>
<path d="M140.181 42.024V44.523H130.244V42.024H133.848V36.913H130.434V34.415H136.576V42.024H140.181ZM133.792 30.142H136.596V32.831H133.792V30.142Z" fill="white"/>
<path d="M142.794 39.468C142.794 38.426 143.01 37.501 143.442 36.694C143.874 35.887 144.482 35.256 145.263 34.805C146.045 34.354 146.939 34.128 147.944 34.128C148.961 34.128 149.86 34.354 150.642 34.805C151.424 35.256 152.032 35.886 152.463 36.694C152.896 37.502 153.111 38.426 153.111 39.468C153.111 40.511 152.895 41.436 152.463 42.243C152.031 43.051 151.424 43.681 150.642 44.132C149.86 44.583 148.96 44.809 147.944 44.809C146.939 44.809 146.046 44.583 145.263 44.132C144.482 43.681 143.874 43.051 143.442 42.243C143.01 41.435 142.794 40.511 142.794 39.468ZM150.384 39.468C150.384 38.578 150.171 37.882 149.745 37.38C149.319 36.877 148.719 36.626 147.943 36.626C147.179 36.626 146.585 36.877 146.159 37.38C145.733 37.882 145.52 38.578 145.52 39.468C145.52 40.359 145.733 41.055 146.159 41.557C146.585 42.059 147.18 42.31 147.943 42.31C148.706 42.31 149.303 42.056 149.735 41.547C150.169 41.04 150.384 40.346 150.384 39.468Z" fill="white"/>
<path d="M156.011 34.415H158.739V35.368H158.777C159.184 34.962 159.623 34.653 160.093 34.443C160.563 34.233 161.097 34.129 161.696 34.129C162.357 34.129 162.973 34.284 163.546 34.596C164.119 34.908 164.582 35.385 164.939 36.027C165.294 36.67 165.473 37.467 165.473 38.421V44.525H162.745V38.784C162.745 38.136 162.579 37.614 162.249 37.221C161.918 36.826 161.441 36.629 160.818 36.629C160.17 36.629 159.661 36.817 159.293 37.191C158.924 37.567 158.739 38.085 158.739 38.746V44.525H156.011V34.415Z" fill="white"/>
<path d="M15.43 39.791V52.504L0 29.963L15.43 39.791Z" fill="#0DAFD2"/>
<path d="M30.861 29.963L15.43 52.504V39.791L30.861 29.963Z" fill="#667BBC"/>
<path d="M30.861 26.788L15.43 18.02V36.616L30.861 26.788Z" fill="#9E69AC"/>
<path d="M30.861 26.788L15.43 0V18.02L30.861 26.788Z" fill="#F58B77"/>
<path d="M15.43 0V18.02L0 26.788L15.43 0Z" fill="#FCEB67"/>
<path d="M15.43 18.02V36.616L0 26.788L15.43 18.02Z" fill="#54BC7A"/>
</g>
<defs>
<clipPath id="clip0">
<rect width="165.472" height="52.504" fill="white"/>
</clipPath>
</defs>
</svg>
