<svg width="300" height="93" viewBox="0 0 300 93" fill="none" xmlns="http://www.w3.org/2000/svg">
<path d="M78.567 33.316H90.788C100.109 33.316 106.448 39.199 106.448 47.816C106.448 56.433 100.11 62.316 90.788 62.316H78.567V33.316ZM90.539 58.711C97.706 58.711 102.305 54.32 102.305 47.815C102.305 41.311 97.706 36.919 90.539 36.919H82.709V58.71H90.539V58.711Z" fill="#2F354B"/>
<path d="M142.12 58.711V62.315H121.075V33.315H141.54V36.919H125.218V45.826H139.759V49.347H125.218V58.709H142.12V58.711Z" fill="#2F354B"/>
<path d="M181.894 33.316L169.176 62.316H165.074L152.314 33.316H156.788L167.228 57.137L177.75 33.316H181.894Z" fill="#2F354B"/>
<path d="M191.218 47.815C191.218 39.24 197.764 32.984 206.588 32.984C211.062 32.984 214.956 34.517 217.608 37.499L214.915 40.109C212.678 37.748 209.944 36.671 206.754 36.671C200.209 36.671 195.361 41.394 195.361 47.815C195.361 54.237 200.208 58.96 206.754 58.96C209.944 58.96 212.678 57.841 214.915 55.48L217.608 58.09C214.957 61.072 211.063 62.647 206.547 62.647C197.764 62.646 191.218 56.392 191.218 47.815Z" fill="#2F354B"/>
<path d="M228.837 47.815C228.837 39.323 235.383 32.984 244.29 32.984C253.114 32.984 259.66 39.28 259.66 47.815C259.66 56.35 253.115 62.646 244.29 62.646C235.383 62.646 228.837 56.309 228.837 47.815ZM255.517 47.815C255.517 41.394 250.711 36.671 244.29 36.671C237.786 36.671 232.98 41.394 232.98 47.815C232.98 54.237 237.786 58.96 244.29 58.96C250.711 58.96 255.517 54.237 255.517 47.815Z" fill="#2F354B"/>
<path d="M299.228 33.316V62.316H295.831L278.431 40.69V62.315H274.288V33.315H277.685L295.084 54.94V33.316H299.228Z" fill="#2F354B"/>
<path d="M54.648 47.423L27.317 0L0 47.423L27.331 64.821L54.648 47.423ZM29.302 31.54V11.398L46.563 41.348L29.302 31.54ZM48.18 46.834L29.302 58.858V36.108L48.18 46.834ZM25.331 31.54L8.088 41.338L25.331 11.403V31.54ZM25.331 36.108V58.841L6.462 46.829L25.331 36.108Z" fill="#2F354B"/>
<path d="M27.316 70.442L0.0149994 53.044L27.317 92.947L54.648 53.044L27.316 70.442ZM25.183 73.791L25.331 73.886V83.013L14.259 66.83L25.183 73.791ZM40.397 66.823L29.302 83.021V73.885L29.449 73.791L40.397 66.823Z" fill="#2F354B"/>
</svg>
