<svg width="1676" height="334" viewBox="0 0 1676 334" fill="none" xmlns="http://www.w3.org/2000/svg">
<g clip-path="url(#clip0)">
<g filter="url(#filter0_f)">
<g filter="url(#filter1_f)">
<path d="M1070.26 256.446C1087.05 240.147 1112.22 236.964 1132.3 246.876C1134.4 237.125 1139.34 227.836 1147.13 220.267C1168.48 199.544 1203.09 199.544 1224.44 220.267C1228.07 223.792 1231.07 227.696 1233.46 231.839C1250.26 215.805 1273.91 210.597 1295.16 216.218C1296.2 197.065 1304.25 178.204 1319.32 163.573C1351.7 132.142 1404.19 132.142 1436.57 163.573C1468.94 195.004 1468.94 245.963 1436.57 277.393C1428.7 285.033 1419.64 290.81 1409.97 294.735C1423.94 320.363 1419.81 352.851 1397.59 374.425C1370.3 400.919 1326.05 400.919 1298.76 374.425C1290.2 366.118 1284.33 356.195 1281.14 345.667C1278.91 354.661 1274.19 363.19 1266.96 370.209C1246.08 390.481 1212.22 390.481 1191.34 370.209C1190.42 369.321 1189.56 368.4 1188.73 367.465C1188.08 368.156 1187.41 368.839 1186.72 369.507C1162.23 393.286 1122.51 393.286 1098.02 369.507C1088.75 360.512 1082.99 349.403 1080.74 337.778C1077 335.617 1073.47 332.98 1070.26 329.856C1049.38 309.584 1049.38 276.717 1070.26 256.446Z" fill="url(#paint0_linear)"/>
<path d="M734.591 245.043C717.801 228.743 692.629 225.561 672.551 235.472C670.45 225.722 665.514 216.433 657.717 208.864C636.37 188.14 601.759 188.14 580.412 208.864C576.781 212.389 573.783 216.292 571.387 220.436C554.592 204.402 530.941 199.193 509.691 204.815C508.65 185.661 500.599 166.8 485.529 152.17C453.152 120.739 400.659 120.739 368.282 152.17C335.906 183.6 335.906 234.559 368.282 265.99C376.152 273.63 385.211 279.406 394.88 283.332C380.912 308.96 385.037 341.447 407.261 363.021C434.553 389.516 478.802 389.516 506.094 363.021C514.651 354.715 520.523 344.792 523.714 334.264C525.938 343.258 530.66 351.787 537.89 358.806C558.772 379.078 592.629 379.078 613.51 358.806C614.426 357.918 615.287 356.997 616.121 356.061C616.771 356.753 617.438 357.435 618.127 358.104C642.622 381.883 682.337 381.883 706.831 358.104C716.097 349.109 721.854 337.999 724.111 326.374C727.849 324.214 731.375 321.576 734.592 318.453C755.473 298.181 755.473 265.314 734.591 245.043Z" fill="url(#paint1_linear)"/>
<path d="M897.03 226.25C877.951 207.729 849.347 204.113 826.532 215.375C824.145 204.295 818.536 193.74 809.676 185.139C785.419 161.59 746.09 161.59 721.832 185.139C717.706 189.145 714.3 193.58 711.577 198.288C692.492 180.068 665.616 174.15 641.47 180.537C640.288 158.773 631.139 137.34 614.013 120.716C577.223 85.0006 517.575 85.0006 480.784 120.716C443.994 156.431 443.994 214.337 480.784 250.052C489.726 258.733 500.021 265.297 511.007 269.758C495.136 298.88 499.824 335.796 525.076 360.311C556.089 390.417 606.37 390.417 637.383 360.311C647.105 350.873 653.778 339.596 657.404 327.633C659.931 337.853 665.297 347.545 673.513 355.521C697.241 378.556 735.714 378.556 759.442 355.521C760.482 354.511 761.46 353.464 762.409 352.402C763.148 353.187 763.906 353.963 764.689 354.723C792.523 381.744 837.651 381.744 865.485 354.723C876.014 344.502 882.557 331.878 885.121 318.668C889.368 316.213 893.375 313.215 897.031 309.667C920.759 286.633 920.759 249.286 897.03 226.25Z" fill="url(#paint2_linear)"/>
<path d="M1318.74 127.359C1287.52 97.0496 1236.9 97.0496 1205.68 127.359C1190.13 142.452 1182.33 162.216 1182.27 181.998C1157.61 176.964 1130.91 183.734 1111.77 202.317C1109.46 204.563 1107.32 206.916 1105.36 209.359C1104.5 208.401 1103.61 207.456 1102.67 206.541C1079.47 184.024 1041.87 184.024 1018.67 206.541C1014.48 210.607 1011.06 215.134 1008.39 219.947C975.682 202.007 933.429 206.556 905.57 233.601C872.071 266.122 872.071 318.847 905.57 351.367C939.069 383.887 993.381 383.887 1026.88 351.367C1027.44 350.823 1027.99 350.274 1028.53 349.719C1031.39 355.608 1035.32 361.13 1040.34 366C1063.71 388.685 1101.6 388.685 1124.97 366C1132.17 359.004 1137.15 350.665 1139.91 341.815C1142.67 345.725 1145.83 349.447 1149.41 352.92C1180.63 383.229 1231.25 383.229 1262.47 352.92C1288.74 327.418 1292.9 288.586 1274.97 258.854C1290.99 256.353 1306.38 249.11 1318.74 237.116C1349.96 206.808 1349.96 157.668 1318.74 127.359Z" fill="url(#paint3_linear)"/>
<path d="M912.896 153.396C894.062 142.891 870.894 146.063 855.385 159.674C851.19 151.496 844.58 144.404 835.833 139.526C811.887 126.17 781.077 134.425 767.017 157.965C764.625 161.969 762.888 166.159 761.743 170.419C742.967 160.152 720.67 161.156 703.095 171.229C697.6 154.427 685.934 139.557 669.029 130.128C632.71 109.872 585.981 122.392 564.657 158.095C543.332 193.797 555.488 239.16 591.806 259.417C600.634 264.34 610.077 267.322 619.619 268.51C613.298 294.656 624.72 322.592 649.648 336.496C680.264 353.572 719.654 343.017 737.629 312.922C743.264 303.487 746.125 293.253 746.455 283.12C750.579 290.595 756.818 297.062 764.928 301.586C788.352 314.65 818.491 306.575 832.245 283.548C832.848 282.539 833.394 281.514 833.915 280.482C834.658 280.943 835.415 281.391 836.188 281.822C863.665 297.148 899.018 287.675 915.151 260.664C921.254 250.447 923.73 239.183 922.965 228.297C925.777 225.482 928.287 222.293 930.405 218.746C944.16 195.719 936.32 166.461 912.896 153.396Z" fill="url(#paint4_linear)"/>
<path d="M1253.53 149.015C1235.73 119.214 1196.73 108.762 1166.41 125.671C1151.31 134.091 1141.22 147.71 1137.09 162.941C1119.13 153.971 1097.15 153.675 1078.57 164.043C1076.32 165.295 1074.19 166.668 1072.18 168.147C1071.71 167.23 1071.22 166.317 1070.68 165.419C1057.46 143.278 1028.48 135.513 1005.95 148.076C1001.89 150.344 998.317 153.126 995.262 156.283C973.763 135.706 940.263 130.486 913.21 145.575C880.682 163.718 869.795 204.348 888.894 236.324C907.993 268.301 949.846 279.515 982.375 261.372C982.919 261.069 983.455 260.759 983.986 260.443C984.976 265.572 986.866 270.639 989.726 275.427C1003.05 297.734 1032.25 305.557 1054.94 292.901C1061.94 288.998 1067.49 283.6 1071.45 277.35C1072.77 280.933 1074.43 284.454 1076.47 287.868C1094.27 317.67 1133.28 328.122 1163.6 311.213C1189.11 296.985 1200.33 267.921 1192.65 241.307C1205.52 242.689 1218.87 240.286 1230.87 233.594C1261.19 216.685 1271.33 178.818 1253.53 149.015Z" fill="url(#paint5_linear)"/>
</g>
<path d="M1070.26 248.446C1087.05 232.147 1112.22 228.964 1132.3 238.876C1134.4 229.125 1139.34 219.836 1147.13 212.267C1168.48 191.544 1203.09 191.544 1224.44 212.267C1228.07 215.792 1231.07 219.696 1233.46 223.839C1250.26 207.805 1273.91 202.597 1295.16 208.218C1296.2 189.065 1304.25 170.204 1319.32 155.573C1351.7 124.142 1404.19 124.142 1436.57 155.573C1468.94 187.004 1468.94 237.963 1436.57 269.393C1428.7 277.033 1419.64 282.81 1409.97 286.735C1423.94 312.363 1419.81 344.851 1397.59 366.425C1370.3 392.919 1326.05 392.919 1298.76 366.425C1290.2 358.118 1284.33 348.195 1281.14 337.667C1278.91 346.661 1274.19 355.19 1266.96 362.209C1246.08 382.481 1212.22 382.481 1191.34 362.209C1190.42 361.321 1189.56 360.4 1188.73 359.465C1188.08 360.156 1187.41 360.839 1186.72 361.507C1162.23 385.286 1122.51 385.286 1098.02 361.507C1088.75 352.512 1082.99 341.403 1080.74 329.778C1077 327.617 1073.47 324.98 1070.26 321.856C1049.38 301.584 1049.38 268.717 1070.26 248.446Z" fill="url(#paint6_linear)"/>
<path d="M734.591 237.043C717.801 220.743 692.629 217.561 672.551 227.472C670.45 217.722 665.514 208.433 657.717 200.864C636.37 180.14 601.759 180.14 580.412 200.864C576.781 204.389 573.783 208.292 571.387 212.436C554.592 196.402 530.941 191.193 509.691 196.815C508.65 177.661 500.599 158.8 485.529 144.17C453.152 112.739 400.659 112.739 368.282 144.17C335.906 175.6 335.906 226.559 368.282 257.99C376.152 265.63 385.211 271.406 394.88 275.332C380.912 300.96 385.037 333.447 407.261 355.021C434.553 381.516 478.802 381.516 506.094 355.021C514.651 346.715 520.523 336.792 523.714 326.264C525.938 335.258 530.66 343.787 537.89 350.806C558.772 371.078 592.629 371.078 613.51 350.806C614.426 349.918 615.287 348.997 616.121 348.061C616.771 348.753 617.438 349.435 618.127 350.104C642.622 373.883 682.337 373.883 706.831 350.104C716.097 341.109 721.854 329.999 724.111 318.374C727.849 316.214 731.375 313.576 734.592 310.453C755.473 290.181 755.473 257.314 734.591 237.043Z" fill="url(#paint7_linear)"/>
<path d="M897.03 218.25C877.951 199.729 849.347 196.113 826.532 207.375C824.145 196.295 818.536 185.74 809.676 177.139C785.419 153.59 746.09 153.59 721.832 177.139C717.706 181.145 714.3 185.58 711.577 190.288C692.492 172.068 665.616 166.15 641.47 172.537C640.288 150.773 631.139 129.34 614.013 112.716C577.223 77.0006 517.575 77.0006 480.784 112.716C443.994 148.431 443.994 206.337 480.784 242.052C489.726 250.733 500.021 257.297 511.007 261.758C495.136 290.88 499.824 327.796 525.076 352.311C556.089 382.417 606.37 382.417 637.383 352.311C647.105 342.873 653.778 331.596 657.404 319.633C659.931 329.853 665.297 339.545 673.513 347.521C697.241 370.556 735.714 370.556 759.442 347.521C760.482 346.511 761.46 345.464 762.409 344.402C763.148 345.187 763.906 345.963 764.689 346.723C792.523 373.744 837.651 373.744 865.485 346.723C876.014 336.502 882.557 323.878 885.121 310.668C889.368 308.213 893.375 305.215 897.031 301.667C920.759 278.633 920.759 241.286 897.03 218.25Z" fill="url(#paint8_linear)"/>
<path d="M1318.74 119.359C1287.52 89.0496 1236.9 89.0496 1205.68 119.359C1190.13 134.452 1182.33 154.216 1182.27 173.998C1157.61 168.964 1130.91 175.734 1111.77 194.317C1109.46 196.563 1107.32 198.916 1105.36 201.359C1104.5 200.401 1103.61 199.456 1102.67 198.541C1079.47 176.024 1041.87 176.024 1018.67 198.541C1014.48 202.607 1011.06 207.134 1008.39 211.947C975.682 194.007 933.429 198.556 905.57 225.601C872.071 258.122 872.071 310.847 905.57 343.367C939.069 375.887 993.381 375.887 1026.88 343.367C1027.44 342.823 1027.99 342.274 1028.53 341.719C1031.39 347.608 1035.32 353.13 1040.34 358C1063.71 380.685 1101.6 380.685 1124.97 358C1132.17 351.004 1137.15 342.665 1139.91 333.815C1142.67 337.725 1145.83 341.447 1149.41 344.92C1180.63 375.229 1231.25 375.229 1262.47 344.92C1288.74 319.418 1292.9 280.586 1274.97 250.854C1290.99 248.353 1306.38 241.11 1318.74 229.116C1349.96 198.808 1349.96 149.668 1318.74 119.359Z" fill="url(#paint9_linear)"/>
<path d="M913.896 153.396C895.062 142.891 871.894 146.063 856.385 159.674C852.19 151.496 845.58 144.404 836.833 139.526C812.887 126.17 782.077 134.425 768.017 157.965C765.625 161.969 763.888 166.159 762.743 170.419C743.967 160.152 721.67 161.156 704.095 171.229C698.6 154.427 686.934 139.557 670.029 130.128C633.71 109.872 586.981 122.392 565.657 158.095C544.332 193.797 556.488 239.16 592.806 259.417C601.634 264.34 611.077 267.322 620.619 268.51C614.298 294.656 625.72 322.592 650.648 336.496C681.264 353.572 720.654 343.017 738.629 312.922C744.264 303.487 747.125 293.253 747.455 283.12C751.579 290.595 757.818 297.062 765.928 301.586C789.352 314.65 819.491 306.575 833.245 283.548C833.848 282.539 834.394 281.514 834.915 280.482C835.658 280.943 836.415 281.391 837.188 281.822C864.665 297.148 900.018 287.675 916.151 260.664C922.254 250.447 924.73 239.183 923.965 228.297C926.777 225.482 929.287 222.293 931.405 218.746C945.16 195.719 937.32 166.461 913.896 153.396Z" fill="url(#paint10_linear)"/>
<path d="M1253.53 141.015C1235.73 111.214 1196.73 100.762 1166.41 117.671C1151.31 126.091 1141.22 139.71 1137.09 154.941C1119.13 145.971 1097.15 145.675 1078.57 156.043C1076.32 157.295 1074.19 158.668 1072.18 160.147C1071.71 159.23 1071.22 158.317 1070.68 157.419C1057.46 135.278 1028.48 127.513 1005.95 140.076C1001.89 142.344 998.317 145.126 995.262 148.283C973.763 127.706 940.263 122.486 913.21 137.575C880.682 155.718 869.795 196.348 888.894 228.324C907.993 260.301 949.846 271.515 982.375 253.372C982.919 253.069 983.455 252.759 983.986 252.443C984.976 257.572 986.866 262.639 989.726 267.427C1003.05 289.734 1032.25 297.557 1054.94 284.901C1061.94 280.998 1067.49 275.6 1071.45 269.35C1072.77 272.933 1074.43 276.454 1076.47 279.868C1094.27 309.67 1133.28 320.122 1163.6 303.213C1189.11 288.985 1200.33 259.921 1192.65 233.307C1205.52 234.689 1218.87 232.286 1230.87 225.594C1261.19 208.685 1271.33 170.818 1253.53 141.015Z" fill="url(#paint11_linear)"/>
</g>
<g filter="url(#filter2_f)">
<path d="M685.478 204.396C666.644 193.891 643.476 197.063 627.968 210.674C623.772 202.496 617.162 195.404 608.415 190.526C584.469 177.17 553.659 185.425 539.599 208.965C537.207 212.969 535.47 217.159 534.325 221.419C515.549 211.152 493.252 212.156 475.677 222.229C470.182 205.427 458.516 190.557 441.611 181.128C405.292 160.872 358.563 173.392 337.239 209.095C315.914 244.797 328.07 290.16 364.388 310.417C373.216 315.34 382.659 318.322 392.201 319.51C385.88 345.656 397.302 373.592 422.23 387.496C452.846 404.572 492.236 394.017 510.211 363.922C515.846 354.487 518.707 344.253 519.037 334.12C523.161 341.595 529.4 348.062 537.51 352.586C560.934 365.65 591.073 357.575 604.827 334.548C605.43 333.539 605.976 332.514 606.497 331.482C607.24 331.943 607.997 332.391 608.77 332.822C636.247 348.148 671.6 338.675 687.733 311.664C693.836 301.447 696.312 290.183 695.547 279.297C698.359 276.482 700.869 273.293 702.987 269.746C716.742 246.719 708.902 217.461 685.478 204.396Z" fill="url(#paint12_linear)"/>
</g>
<g filter="url(#filter3_f)">
<path d="M1026.12 200.015C1008.31 170.214 969.308 159.762 938.991 176.671C923.893 185.091 913.8 198.71 909.667 213.941C891.709 204.971 869.736 204.675 851.148 215.043C848.902 216.295 846.772 217.668 844.758 219.147C844.289 218.23 843.799 217.317 843.263 216.419C830.038 194.278 801.059 186.513 778.536 199.076C774.469 201.344 770.899 204.126 767.844 207.283C746.345 186.706 712.845 181.486 685.792 196.575C653.264 214.718 642.377 255.348 661.476 287.324C680.575 319.301 722.428 330.515 754.957 312.372C755.501 312.069 756.037 311.759 756.568 311.443C757.558 316.572 759.448 321.639 762.308 326.427C775.631 348.734 804.828 356.557 827.521 343.901C834.519 339.998 840.075 334.6 844.031 328.35C845.348 331.933 847.016 335.454 849.056 338.868C866.856 368.67 905.864 379.122 936.18 362.213C961.689 347.985 972.915 318.921 965.232 292.307C978.098 293.689 991.455 291.286 1003.45 284.594C1033.77 267.685 1043.92 229.818 1026.12 200.015Z" fill="url(#paint13_linear)"/>
</g>
<g filter="url(#filter4_f)">
<path d="M1121.32 240.439C1144.17 218.262 1178.44 213.931 1205.77 227.417C1208.63 214.151 1215.35 201.512 1225.96 191.213C1255.02 163.016 1302.13 163.016 1331.19 191.213C1336.13 196.009 1340.21 201.32 1343.48 206.958C1366.34 185.142 1398.53 178.055 1427.46 185.704C1428.87 159.643 1439.83 133.98 1460.35 114.074C1504.42 71.3087 1575.87 71.3087 1619.95 114.074C1664.02 156.839 1664 269.338 1641.5 258.838C1630.79 269.232 1596.9 287.195 1583.74 292.536C1602.75 327.405 1597.14 371.609 1566.89 400.963C1529.74 437.012 1469.5 437.012 1432.35 400.963C1420.71 389.661 1412.71 376.16 1408.37 361.835C1405.34 374.072 1398.91 385.677 1389.07 395.228C1360.65 422.81 1314.56 422.81 1286.14 395.228C1284.89 394.019 1283.72 392.766 1282.58 391.493C1281.7 392.434 1280.79 393.362 1279.85 394.272C1246.51 426.627 1192.45 426.627 1159.11 394.272C1146.49 382.034 1138.65 366.917 1135.58 351.101C1130.5 348.16 1125.69 344.572 1121.32 340.322C1092.89 312.74 1092.89 268.02 1121.32 240.439Z" fill="url(#paint14_linear)"/>
</g>
<g filter="url(#filter5_f)">
<path d="M1117.45 252.149C1140.45 230.292 1174.93 226.025 1202.43 239.316C1205.31 226.241 1212.07 213.785 1222.75 203.634C1251.99 175.845 1299.4 175.845 1328.64 203.634C1333.61 208.361 1337.72 213.596 1341 219.152C1364.01 197.652 1396.4 190.667 1425.51 198.205C1426.94 172.521 1437.96 147.229 1458.61 127.61C1502.95 85.4632 1574.86 85.4632 1619.21 127.61C1663.55 169.758 1704.29 234.47 1649.95 294.096C1649.95 294.096 1616.74 311.343 1599.13 306.415C1618.27 340.781 1596.26 381.424 1565.81 410.354C1528.43 445.882 1467.82 445.882 1430.44 410.354C1418.72 399.215 1410.67 385.909 1406.3 371.792C1403.26 383.851 1396.79 395.289 1386.88 404.701C1358.28 431.885 1311.91 431.885 1283.3 404.701C1282.05 403.51 1280.87 402.275 1279.73 401.021C1278.84 401.948 1277.92 402.863 1276.98 403.76C1243.43 435.647 1189.03 435.647 1155.48 403.76C1142.78 391.698 1134.9 376.8 1131.81 361.212C1126.69 358.314 1121.86 354.778 1117.45 350.589C1088.85 323.406 1088.85 279.332 1117.45 252.149Z" fill="url(#paint15_linear)"/>
</g>
<g filter="url(#filter6_f)">
<path d="M546.218 211.102C522.868 188.412 487.859 183.982 459.936 197.779C457.014 184.206 450.149 171.275 439.305 160.738C409.616 131.889 361.481 131.889 331.792 160.738C326.742 165.645 322.573 171.079 319.241 176.847C295.883 154.527 262.99 147.276 233.437 155.102C231.989 128.438 220.792 102.182 199.832 81.8155C154.804 38.0615 81.7992 38.0615 36.7711 81.8155C-8.25703 125.569 -8.25703 276.509 36.7711 320.263C47.7157 330.897 36.7711 320.263 51.7616 344.404C64 355.838 60.0731 345.305 90.9804 375.338C128.937 412.221 190.477 412.221 228.434 375.338C240.334 363.775 248.501 349.961 252.939 335.306C256.032 347.825 262.6 359.699 272.655 369.47C301.697 397.69 348.783 397.69 377.824 369.47C379.097 368.233 380.295 366.951 381.455 365.649C382.359 366.612 383.286 367.562 384.246 368.493C418.312 401.595 473.545 401.595 507.611 368.493C520.498 355.971 528.505 340.505 531.643 324.323C536.841 321.314 541.746 317.643 546.219 313.295C575.26 285.075 575.26 239.321 546.218 211.102Z" fill="url(#paint16_linear)"/>
</g>
<g filter="url(#filter7_f)">
<path d="M546.102 196.018C522.626 173.2 487.43 168.745 459.358 182.62C456.421 168.97 449.519 155.966 438.617 145.369C408.769 116.358 360.376 116.358 330.529 145.369C325.452 150.304 321.26 155.769 317.91 161.57C294.427 139.123 261.358 131.831 231.647 139.701C230.191 112.888 218.935 86.4829 197.863 66.0011C152.594 22 79.198 22 33.9289 66.0011C-7.99916 97.5001 1.49976 221.5 1.5 309.878C12.5032 320.573 33.9289 305.795 48.9996 330.073C61.3035 341.572 57.3555 330.979 88.4282 361.182C126.588 398.273 188.458 398.273 226.618 361.182C238.581 349.554 246.792 335.662 251.254 320.923C254.363 333.514 260.966 345.454 271.075 355.281C300.272 383.66 347.611 383.66 376.807 355.281C378.087 354.037 379.291 352.747 380.457 351.438C381.366 352.407 382.298 353.362 383.263 354.298C417.511 387.587 473.04 387.587 507.288 354.298C520.244 341.706 528.293 326.152 531.448 309.878C536.674 306.853 541.605 303.161 546.103 298.789C575.299 270.409 575.299 224.397 546.102 196.018Z" fill="url(#paint17_linear)"/>
</g>
<rect width="1676" height="541" transform="translate(0 255)" fill="url(#paint18_linear)"/>
</g>
<defs>
<filter id="filter0_f" x="332" y="21" width="1140.85" height="385.296" filterUnits="userSpaceOnUse" color-interpolation-filters="sRGB">
<feFlood flood-opacity="0" result="BackgroundImageFix"/>
<feBlend mode="normal" in="SourceGraphic" in2="BackgroundImageFix" result="shape"/>
<feGaussianBlur stdDeviation="6" result="effect1_foregroundBlur"/>
</filter>
<filter id="filter1_f" x="331" y="80.9294" width="1142.85" height="326.366" filterUnits="userSpaceOnUse" color-interpolation-filters="sRGB">
<feFlood flood-opacity="0" result="BackgroundImageFix"/>
<feBlend mode="normal" in="SourceGraphic" in2="BackgroundImageFix" result="shape"/>
<feGaussianBlur stdDeviation="6.5" result="effect1_foregroundBlur"/>
</filter>
<filter id="filter2_f" x="308.729" y="153.435" width="419.037" height="260.232" filterUnits="userSpaceOnUse" color-interpolation-filters="sRGB">
<feFlood flood-opacity="0" result="BackgroundImageFix"/>
<feBlend mode="normal" in="SourceGraphic" in2="BackgroundImageFix" result="shape"/>
<feGaussianBlur stdDeviation="9" result="effect1_foregroundBlur"/>
</filter>
<filter id="filter3_f" x="634.062" y="150.579" width="418.825" height="237.725" filterUnits="userSpaceOnUse" color-interpolation-filters="sRGB">
<feFlood flood-opacity="0" result="BackgroundImageFix"/>
<feBlend mode="normal" in="SourceGraphic" in2="BackgroundImageFix" result="shape"/>
<feGaussianBlur stdDeviation="9" result="effect1_foregroundBlur"/>
</filter>
<filter id="filter4_f" x="1094" y="76" width="568.353" height="358" filterUnits="userSpaceOnUse" color-interpolation-filters="sRGB">
<feFlood flood-opacity="0" result="BackgroundImageFix"/>
<feBlend mode="normal" in="SourceGraphic" in2="BackgroundImageFix" result="shape"/>
<feGaussianBlur stdDeviation="3" result="effect1_foregroundBlur"/>
</filter>
<filter id="filter5_f" x="1078" y="78" width="616" height="377" filterUnits="userSpaceOnUse" color-interpolation-filters="sRGB">
<feFlood flood-opacity="0" result="BackgroundImageFix"/>
<feBlend mode="normal" in="SourceGraphic" in2="BackgroundImageFix" result="shape"/>
<feGaussianBlur stdDeviation="9" result="effect1_foregroundBlur"/>
</filter>
<filter id="filter6_f" x="-3" y="43" width="577" height="366" filterUnits="userSpaceOnUse" color-interpolation-filters="sRGB">
<feFlood flood-opacity="0" result="BackgroundImageFix"/>
<feBlend mode="normal" in="SourceGraphic" in2="BackgroundImageFix" result="shape"/>
<feGaussianBlur stdDeviation="3" result="effect1_foregroundBlur"/>
</filter>
<filter id="filter7_f" x="-17.4238" y="15.0002" width="603.423" height="392" filterUnits="userSpaceOnUse" color-interpolation-filters="sRGB">
<feFlood flood-opacity="0" result="BackgroundImageFix"/>
<feBlend mode="normal" in="SourceGraphic" in2="BackgroundImageFix" result="shape"/>
<feGaussianBlur stdDeviation="9" result="effect1_foregroundBlur"/>
</filter>
<linearGradient id="paint0_linear" x1="1300.29" y1="409.154" x2="1238.94" y2="173.303" gradientUnits="userSpaceOnUse">
<stop stop-color="#8BD3D7"/>
<stop offset="0.7763" stop-color="white"/>
</linearGradient>
<linearGradient id="paint1_linear" x1="504.557" y1="397.751" x2="565.906" y2="161.9" gradientUnits="userSpaceOnUse">
<stop stop-color="#8BD3D7"/>
<stop offset="0.7763" stop-color="white"/>
</linearGradient>
<linearGradient id="paint2_linear" x1="635.637" y1="399.777" x2="668.123" y2="71.0183" gradientUnits="userSpaceOnUse">
<stop stop-color="#8BD3D7"/>
<stop offset="0.7763" stop-color="white"/>
</linearGradient>
<linearGradient id="paint3_linear" x1="1153.87" y1="391.948" x2="1090.06" y2="146.655" gradientUnits="userSpaceOnUse">
<stop stop-color="#87CED6"/>
<stop offset="1" stop-color="white"/>
</linearGradient>
<linearGradient id="paint4_linear" x1="744.546" y1="344.206" x2="766.54" y2="77.1738" gradientUnits="userSpaceOnUse">
<stop stop-color="#8BD3D7"/>
<stop offset="0.7763" stop-color="white"/>
</linearGradient>
<linearGradient id="paint5_linear" x1="1005.5" y1="359" x2="994.057" y2="85.3303" gradientUnits="userSpaceOnUse">
<stop stop-color="#87CED6"/>
<stop offset="1" stop-color="white"/>
</linearGradient>
<linearGradient id="paint6_linear" x1="1300.29" y1="401.154" x2="1238.94" y2="165.303" gradientUnits="userSpaceOnUse">
<stop stop-color="#8BD3D7"/>
<stop offset="0.7763" stop-color="white"/>
</linearGradient>
<linearGradient id="paint7_linear" x1="504.557" y1="389.751" x2="565.906" y2="153.9" gradientUnits="userSpaceOnUse">
<stop stop-color="#8BD3D7"/>
<stop offset="0.7763" stop-color="white"/>
</linearGradient>
<linearGradient id="paint8_linear" x1="635.637" y1="391.777" x2="668.123" y2="63.0183" gradientUnits="userSpaceOnUse">
<stop stop-color="#8BD3D7"/>
<stop offset="0.7763" stop-color="white"/>
</linearGradient>
<linearGradient id="paint9_linear" x1="1153.87" y1="383.948" x2="1090.06" y2="138.655" gradientUnits="userSpaceOnUse">
<stop stop-color="#87CED6"/>
<stop offset="1" stop-color="white"/>
</linearGradient>
<linearGradient id="paint10_linear" x1="745.546" y1="344.206" x2="767.54" y2="77.1738" gradientUnits="userSpaceOnUse">
<stop stop-color="#8BD3D7"/>
<stop offset="0.7763" stop-color="white"/>
</linearGradient>
<linearGradient id="paint11_linear" x1="995" y1="343" x2="986.116" y2="132.868" gradientUnits="userSpaceOnUse">
<stop stop-color="#87CED6"/>
<stop offset="1" stop-color="white"/>
</linearGradient>
<linearGradient id="paint12_linear" x1="574" y1="318.5" x2="553.021" y2="151.311" gradientUnits="userSpaceOnUse">
<stop stop-color="#8BD3D7"/>
<stop offset="0.7763" stop-color="white"/>
<stop offset="1" stop-color="white"/>
</linearGradient>
<linearGradient id="paint13_linear" x1="786" y1="353" x2="769.98" y2="185.762" gradientUnits="userSpaceOnUse">
<stop stop-color="#87CED6"/>
<stop offset="1" stop-color="white"/>
</linearGradient>
<linearGradient id="paint14_linear" x1="1354.5" y1="314.838" x2="1333.23" y2="133.518" gradientUnits="userSpaceOnUse">
<stop stop-color="#8BD3D7"/>
<stop offset="0.7763" stop-color="white"/>
</linearGradient>
<linearGradient id="paint15_linear" x1="1352.1" y1="325.473" x2="1331.55" y2="146.674" gradientUnits="userSpaceOnUse">
<stop stop-color="#8BD3D7"/>
<stop offset="0.7763" stop-color="white"/>
</linearGradient>
<linearGradient id="paint16_linear" x1="286" y1="377.338" x2="327.343" y2="87.7444" gradientUnits="userSpaceOnUse">
<stop stop-color="#8BD3D7"/>
<stop offset="0.7763" stop-color="white"/>
</linearGradient>
<linearGradient id="paint17_linear" x1="284.493" y1="363.193" x2="326.082" y2="71.9668" gradientUnits="userSpaceOnUse">
<stop stop-color="#8BD3D7"/>
<stop offset="0.7763" stop-color="white"/>
</linearGradient>
<linearGradient id="paint18_linear" x1="838" y1="0" x2="838" y2="314.306" gradientUnits="userSpaceOnUse">
<stop stop-color="#BCE2E6"/>
<stop offset="0.0833333" stop-color="#C1E7EA"/>
<stop offset="1" stop-color="white" stop-opacity="0"/>
</linearGradient>
<clipPath id="clip0">
<rect width="1676" height="334" fill="white"/>
</clipPath>
</defs>
</svg>
