<svg width="1884" height="1884" viewBox="0 0 1884 1884" fill="none" xmlns="http://www.w3.org/2000/svg">
<g opacity="0.5">
<path d="M942.171 1153.79H940.783L941.167 1103.83H941.845L942.171 1153.79Z" fill="white"/>
<path d="M940.783 729.171H942.171L941.845 779.125H941.152L940.783 729.171Z" fill="white"/>
<path d="M729.17 942.173V940.785L779.125 941.169V941.847L729.17 942.173Z" fill="white"/>
<path d="M1153.79 940.785V942.173L1103.83 941.847V941.154L1153.79 940.785Z" fill="white"/>
<path d="M791.845 1092.09L790.863 1091.11L826.458 1056.06L826.938 1056.54L791.845 1092.09Z" fill="white"/>
<path d="M1091.11 790.863L1092.09 791.845L1056.54 826.938L1056.05 826.448L1091.11 790.863Z" fill="white"/>
<path d="M790.863 791.845L791.845 790.863L826.897 826.458L826.418 826.938L790.863 791.845Z" fill="white"/>
<path d="M1092.1 1091.11L1091.11 1092.09L1056.02 1056.54L1056.51 1056.05L1092.1 1091.11Z" fill="white"/>
<path d="M1023.36 1137.36L1022.08 1137.89L1003.32 1091.59L1003.95 1091.33L1023.36 1137.36Z" fill="white"/>
<path d="M859.59 745.597L860.872 745.066L879.688 791.344L879.048 791.608L859.59 745.597Z" fill="white"/>
<path d="M745.596 1023.37L745.064 1022.08L791.364 1003.32L791.623 1003.95L745.596 1023.37Z" fill="white"/>
<path d="M1137.36 859.591L1137.89 860.873L1091.61 879.689L1091.35 879.049L1137.36 859.591Z" fill="white"/>
<path d="M860.872 1137.89L859.59 1137.36L879.061 1091.36L879.688 1091.61L860.872 1137.89Z" fill="white"/>
<path d="M1022.08 745.066L1023.37 745.597L1003.95 791.625L1003.31 791.36L1022.08 745.066Z" fill="white"/>
<path d="M745.064 860.873L745.596 859.591L791.602 879.062L791.342 879.689L745.064 860.873Z" fill="white"/>
<path d="M1137.89 1022.08L1137.36 1023.37L1091.33 1003.95L1091.6 1003.31L1137.89 1022.08Z" fill="white"/>
<path d="M983.578 1149.57L982.217 1149.84L972.848 1100.77L973.512 1100.64L983.578 1149.57Z" fill="white"/>
<path d="M899.379 733.386L900.739 733.115L910.166 782.174L909.486 782.309L899.379 733.386Z" fill="white"/>
<path d="M733.384 983.579L733.113 982.218L782.183 972.849L782.315 973.513L733.384 983.579Z" fill="white"/>
<path d="M1149.57 899.379L1149.84 900.74L1100.78 910.166L1100.65 909.487L1149.57 899.379Z" fill="white"/>
<path d="M824.103 1118.39L822.949 1117.62L851.022 1076.3L851.585 1076.67L824.103 1118.39Z" fill="white"/>
<path d="M1058.85 764.566L1060.01 765.336L1031.98 806.692L1031.41 806.306L1058.85 764.566Z" fill="white"/>
<path d="M764.564 824.104L765.335 822.95L806.658 851.022L806.282 851.586L764.564 824.104Z" fill="white"/>
<path d="M1118.39 1058.85L1117.62 1060.01L1076.27 1031.98L1076.65 1031.41L1118.39 1058.85Z" fill="white"/>
<path d="M1060.01 1117.62L1058.85 1118.39L1031.42 1076.64L1031.98 1076.27L1060.01 1117.62Z" fill="white"/>
<path d="M822.949 765.337L824.103 764.566L851.585 806.283L851.01 806.667L822.949 765.337Z" fill="white"/>
<path d="M765.335 1060.01L764.564 1058.85L806.314 1031.42L806.69 1031.98L765.335 1060.01Z" fill="white"/>
<path d="M1117.62 822.95L1118.39 824.104L1076.67 851.586L1076.29 851.011L1117.62 822.95Z" fill="white"/>
<path d="M900.739 1149.84L899.379 1149.57L909.501 1100.65L910.166 1100.78L900.739 1149.84Z" fill="white"/>
<path d="M982.217 733.115L983.578 733.386L973.513 782.317L972.834 782.182L982.217 733.115Z" fill="white"/>
<path d="M733.113 900.74L733.384 899.379L782.304 909.502L782.172 910.166L733.113 900.74Z" fill="white"/>
<path d="M1149.84 982.218L1149.57 983.579L1100.64 973.513L1100.78 972.834L1149.84 982.218Z" fill="white"/>
<path d="M964.338 1166.51L962.958 1166.64L956.402 1096.18L957.077 1096.11L964.338 1166.51Z" fill="white"/>
<path d="M918.617 716.451L919.999 716.315L926.611 786.776L925.922 786.844L918.617 716.451Z" fill="white"/>
<path d="M716.45 964.34L716.314 962.959L786.781 956.404L786.847 957.078L716.45 964.34Z" fill="white"/>
<path d="M1166.51 918.618L1166.64 920L1096.18 926.612L1096.11 925.923L1166.51 918.618Z" fill="white"/>
<path d="M798.524 1116.76L797.451 1115.88L842.644 1061.42L843.168 1061.85L798.524 1116.76Z" fill="white"/>
<path d="M1084.43 766.196L1085.5 767.076L1040.36 821.575L1039.82 821.136L1084.43 766.196Z" fill="white"/>
<path d="M766.195 798.525L767.076 797.453L821.538 842.645L821.108 843.169L766.195 798.525Z" fill="white"/>
<path d="M1116.76 1084.43L1115.88 1085.51L1061.38 1040.36L1061.82 1039.82L1116.76 1084.43Z" fill="white"/>
<path d="M1048.71 1140.63L1047.49 1141.28L1014.47 1078.69L1015.06 1078.37L1048.71 1140.63Z" fill="white"/>
<path d="M834.244 742.329L835.468 741.675L868.541 804.242L867.93 804.568L834.244 742.329Z" fill="white"/>
<path d="M742.327 1048.71L741.674 1047.49L804.267 1014.47L804.587 1015.07L742.327 1048.71Z" fill="white"/>
<path d="M1140.63 834.244L1141.28 835.468L1078.71 868.541L1078.39 867.931L1140.63 834.244Z" fill="white"/>
<path d="M876.484 1158.13L875.156 1157.72L896.067 1090.11L896.715 1090.31L876.484 1158.13Z" fill="white"/>
<path d="M1006.47 724.832L1007.8 725.235L986.946 792.862L986.283 792.662L1006.47 724.832Z" fill="white"/>
<path d="M724.832 876.485L725.235 875.157L792.846 896.068L792.649 896.716L724.832 876.485Z" fill="white"/>
<path d="M1158.13 1006.47L1157.72 1007.8L1090.1 986.945L1090.3 986.283L1158.13 1006.47Z" fill="white"/>
<path d="M1007.8 1157.72L1006.47 1158.13L986.297 1090.29L986.946 1090.1L1007.8 1157.72Z" fill="white"/>
<path d="M875.156 725.235L876.484 724.832L896.715 792.649L896.053 792.85L875.156 725.235Z" fill="white"/>
<path d="M725.235 1007.8L724.832 1006.47L792.666 986.297L792.862 986.946L725.235 1007.8Z" fill="white"/>
<path d="M1157.72 875.157L1158.13 876.485L1090.31 896.716L1090.11 896.054L1157.72 875.157Z" fill="white"/>
<path d="M835.468 1141.28L834.244 1140.63L867.943 1078.4L868.541 1078.72L835.468 1141.28Z" fill="white"/>
<path d="M1047.49 741.675L1048.71 742.329L1015.07 804.589L1014.46 804.262L1047.49 741.675Z" fill="white"/>
<path d="M741.674 835.468L742.327 834.244L804.56 867.943L804.24 868.541L741.674 835.468Z" fill="white"/>
<path d="M1141.28 1047.49L1140.63 1048.71L1078.37 1015.07L1078.7 1014.45L1141.28 1047.49Z" fill="white"/>
<path d="M1085.5 1115.88L1084.43 1116.76L1039.83 1061.81L1040.36 1061.38L1085.5 1115.88Z" fill="white"/>
<path d="M797.451 767.076L798.524 766.195L843.168 821.108L842.632 821.548L797.451 767.076Z" fill="white"/>
<path d="M767.076 1085.51L766.195 1084.43L821.144 1039.83L821.575 1040.36L767.076 1085.51Z" fill="white"/>
<path d="M1115.88 797.453L1116.76 798.525L1061.85 843.169L1061.41 842.633L1115.88 797.453Z" fill="white"/>
<path d="M919.999 1166.64L918.617 1166.51L925.936 1096.12L926.611 1096.18L919.999 1166.64Z" fill="white"/>
<path d="M962.959 716.316L964.339 716.452L957.078 786.848L956.389 786.78L962.959 716.316Z" fill="white"/>
<path d="M716.314 920L716.45 918.618L786.842 925.937L786.775 926.612L716.314 920Z" fill="white"/>
<path d="M1166.64 962.959L1166.51 964.34L1096.11 957.078L1096.18 956.389L1166.64 962.959Z" fill="white"/>
<path d="M1026.22 1171.94L1024.71 1172.49L1005.36 1118.05L1006.1 1117.78L1026.22 1171.94Z" fill="white"/>
<path d="M856.744 711.017L858.252 710.468L877.658 764.888L876.906 765.162L856.744 711.017Z" fill="white"/>
<path d="M711.016 1026.21L710.467 1024.71L764.91 1005.36L765.178 1006.1L711.016 1026.21Z" fill="white"/>
<path d="M1171.94 856.743L1172.49 858.252L1118.07 877.657L1117.79 876.905L1171.94 856.743Z" fill="white"/>
<path d="M838.436 1164.36L836.981 1163.68L861.8 1111.5L862.51 1111.84L838.436 1164.36Z" fill="white"/>
<path d="M1044.52 718.6L1045.98 719.279L1021.22 771.482L1020.49 771.143L1044.52 718.6Z" fill="white"/>
<path d="M718.601 838.435L719.28 836.979L771.454 861.799L771.123 862.509L718.601 838.435Z" fill="white"/>
<path d="M1164.36 1044.52L1163.68 1045.98L1111.48 1021.22L1111.81 1020.49L1164.36 1044.52Z" fill="white"/>
<path d="M1107.96 1121.97L1106.77 1123.06L1068.07 1080.16L1068.65 1079.63L1107.96 1121.97Z" fill="white"/>
<path d="M774.999 760.987L776.183 759.902L814.937 802.754L814.346 803.294L774.999 760.987Z" fill="white"/>
<path d="M760.987 1107.96L759.902 1106.77L802.798 1068.07L803.328 1068.65L760.987 1107.96Z" fill="white"/>
<path d="M1121.97 774.999L1123.06 776.183L1080.2 814.937L1079.66 814.347L1121.97 774.999Z" fill="white"/>
<path d="M931.569 1186.82L929.966 1186.76L932.929 1129.05L933.713 1129.09L931.569 1186.82Z" fill="white"/>
<path d="M951.388 696.133L952.991 696.203L950.095 753.906L949.294 753.871L951.388 696.133Z" fill="white"/>
<path d="M696.132 931.57L696.203 929.966L753.904 932.93L753.869 933.713L696.132 931.57Z" fill="white"/>
<path d="M1186.82 951.387L1186.75 952.991L1129.05 950.094L1129.08 949.294L1186.82 951.387Z" fill="white"/>
<path d="M1069.55 1150.98L1068.18 1151.81L1038.58 1102.19L1039.25 1101.79L1069.55 1150.98Z" fill="white"/>
<path d="M813.412 731.976L814.783 731.144L844.433 780.732L843.749 781.148L813.412 731.976Z" fill="white"/>
<path d="M731.976 1069.55L731.144 1068.17L780.766 1038.58L781.173 1039.25L731.976 1069.55Z" fill="white"/>
<path d="M1150.98 813.411L1151.81 814.782L1102.23 844.433L1101.81 843.748L1150.98 813.411Z" fill="white"/>
<path d="M883.897 1180.18L882.338 1179.8L896.501 1123.78L897.262 1123.97L883.897 1180.18Z" fill="white"/>
<path d="M999.063 702.781L1000.62 703.162L986.523 759.192L985.745 759.001L999.063 702.781Z" fill="white"/>
<path d="M702.781 883.896L703.162 882.337L759.176 896.5L758.99 897.261L702.781 883.896Z" fill="white"/>
<path d="M1180.18 999.062L1179.8 1000.62L1123.77 986.522L1123.96 985.745L1180.18 999.062Z" fill="white"/>
<path d="M1139.97 1086.02L1139.02 1087.32L1092.69 1052.8L1093.16 1052.17L1139.97 1086.02Z" fill="white"/>
<path d="M742.987 796.933L743.936 795.639L790.305 830.106L789.832 830.751L742.987 796.933Z" fill="white"/>
<path d="M796.933 1139.97L795.639 1139.02L830.16 1092.69L830.792 1093.16L796.933 1139.97Z" fill="white"/>
<path d="M1086.03 742.986L1087.32 743.935L1052.85 790.304L1052.21 789.831L1086.03 742.986Z" fill="white"/>
<path d="M979.626 1184.04L978.04 1184.29L969.69 1127.12L970.465 1127L979.626 1184.04Z" fill="white"/>
<path d="M903.334 698.914L904.921 698.67L913.337 755.83L912.546 755.952L903.334 698.914Z" fill="white"/>
<path d="M698.913 979.625L698.669 978.039L755.84 969.689L755.959 970.463L698.913 979.625Z" fill="white"/>
<path d="M1184.04 903.332L1184.29 904.919L1127.13 913.335L1127.01 912.544L1184.04 903.332Z" fill="white"/>
<path d="M1055.34 1177L1053.89 1177.69L1018.89 1103.7L1019.6 1103.36L1055.34 1177Z" fill="white"/>
<path d="M827.622 705.962L829.07 705.268L864.127 779.229L863.405 779.575L827.622 705.962Z" fill="white"/>
<path d="M705.963 1055.34L705.269 1053.89L779.258 1018.89L779.598 1019.6L705.963 1055.34Z" fill="white"/>
<path d="M1177 827.622L1177.69 829.069L1103.73 864.126L1103.38 863.405L1177 827.622Z" fill="white"/>
<path d="M855.452 1188.52L853.938 1187.99L881.51 1110.93L882.249 1111.19L855.452 1188.52Z" fill="white"/>
<path d="M1027.51 694.434L1029.02 694.966L1001.51 772.054L1000.76 771.789L1027.51 694.434Z" fill="white"/>
<path d="M694.434 855.452L694.967 853.938L772.033 881.51L771.773 882.25L694.434 855.452Z" fill="white"/>
<path d="M1188.52 1027.51L1187.99 1029.02L1110.9 1001.51L1111.17 1000.76L1188.52 1027.51Z" fill="white"/>
<path d="M1136.8 1115.5L1135.73 1116.69L1075.08 1061.73L1075.6 1061.14L1136.8 1115.5Z" fill="white"/>
<path d="M746.161 767.461L747.232 766.266L807.925 821.181L807.39 821.777L746.161 767.461Z" fill="white"/>
<path d="M767.46 1136.8L766.265 1135.73L821.23 1075.08L821.814 1075.6L767.46 1136.8Z" fill="white"/>
<path d="M1115.5 746.16L1116.69 747.231L1061.78 807.924L1061.18 807.39L1115.5 746.16Z" fill="white"/>
<path d="M956.54 1202.64L954.938 1202.73L950.919 1120.98L951.702 1120.93L956.54 1202.64Z" fill="white"/>
<path d="M926.417 680.318L928.02 680.231L932.105 761.978L931.306 762.022L926.417 680.318Z" fill="white"/>
<path d="M680.318 956.541L680.231 954.938L761.982 950.92L762.025 951.702L680.318 956.541Z" fill="white"/>
<path d="M1202.64 926.417L1202.73 928.019L1120.98 932.105L1120.94 931.305L1202.64 926.417Z" fill="white"/>
<path d="M1099.1 1150.26L1097.81 1151.22L1049.05 1085.48L1049.68 1085.01L1099.1 1150.26Z" fill="white"/>
<path d="M783.863 732.7L785.146 731.736L833.959 797.438L833.319 797.917L783.863 732.7Z" fill="white"/>
<path d="M732.7 1099.1L731.737 1097.81L797.478 1049.05L797.948 1049.68L732.7 1099.1Z" fill="white"/>
<path d="M1150.26 783.862L1151.22 785.146L1085.52 833.959L1085.04 833.319L1150.26 783.862Z" fill="white"/>
<path d="M905.303 1200.56L903.714 1200.33L915.721 1119.37L916.498 1119.48L905.303 1200.56Z" fill="white"/>
<path d="M977.657 682.398L979.245 682.624L967.304 763.599L966.511 763.485L977.657 682.398Z" fill="white"/>
<path d="M682.398 905.301L682.624 903.713L763.589 915.72L763.478 916.496L682.398 905.301Z" fill="white"/>
<path d="M1200.56 977.657L1200.33 979.246L1119.36 967.303L1119.47 966.511L1200.56 977.657Z" fill="white"/>
<path d="M1166.99 1074.05L1166.18 1075.43L1095.97 1033.35L1096.37 1032.68L1166.99 1074.05Z" fill="white"/>
<path d="M715.964 808.909L716.781 807.528L787.021 849.548L786.613 850.237L715.964 808.909Z" fill="white"/>
<path d="M808.909 1166.99L807.528 1166.18L849.605 1095.97L850.28 1096.37L808.909 1166.99Z" fill="white"/>
<path d="M1074.05 715.964L1075.43 716.781L1033.41 787.021L1032.72 786.613L1074.05 715.964Z" fill="white"/>
<path d="M1007.2 1194.68L1005.65 1195.08L985.756 1115.69L986.516 1115.49L1007.2 1194.68Z" fill="white"/>
<path d="M875.757 688.275L877.312 687.876L897.266 767.256L896.49 767.455L875.757 688.275Z" fill="white"/>
<path d="M688.275 1007.2L687.876 1005.65L767.272 985.756L767.467 986.516L688.275 1007.2Z" fill="white"/>
<path d="M1194.68 875.757L1195.08 877.311L1115.7 897.266L1115.5 896.49L1194.68 875.757Z" fill="white"/>
<path d="M942.793 1343.94H940.162L940.889 1249.25H942.174L942.793 1343.94Z" fill="white"/>
<path d="M940.162 539.016H942.793L942.174 633.714H940.862L940.162 539.016Z" fill="white"/>
<path d="M539.016 942.794V940.164L633.713 940.891V942.176L539.016 942.794Z" fill="white"/>
<path d="M1343.94 940.164V942.795L1249.24 942.176V940.864L1343.94 940.164Z" fill="white"/>
<path d="M657.824 1226.99L655.963 1225.13L723.439 1158.69L724.347 1159.6L657.824 1226.99Z" fill="white"/>
<path d="M1225.13 655.965L1226.99 657.826L1159.59 724.349L1158.67 723.421L1225.13 655.965Z" fill="white"/>
<path d="M655.963 657.826L657.824 655.965L724.27 723.44L723.362 724.349L655.963 657.826Z" fill="white"/>
<path d="M1226.99 1225.13L1225.13 1226.99L1158.61 1159.6L1159.54 1158.67L1226.99 1225.13Z" fill="white"/>
<path d="M1096.71 1312.8L1094.28 1313.81L1058.71 1226.04L1059.9 1225.55L1096.71 1312.8Z" fill="white"/>
<path d="M786.248 570.156L788.679 569.149L824.347 656.875L823.134 657.376L786.248 570.156Z" fill="white"/>
<path d="M570.154 1096.71L569.146 1094.28L656.914 1058.71L657.406 1059.9L570.154 1096.71Z" fill="white"/>
<path d="M1312.8 786.248L1313.81 788.679L1226.08 824.347L1225.58 823.134L1312.8 786.248Z" fill="white"/>
<path d="M788.679 1313.81L786.248 1312.8L823.159 1225.59L824.347 1226.08L788.679 1313.81Z" fill="white"/>
<path d="M1094.28 569.148L1096.71 570.156L1059.9 657.408L1058.69 656.905L1094.28 569.148Z" fill="white"/>
<path d="M569.146 788.679L570.154 786.248L657.365 823.159L656.873 824.347L569.146 788.679Z" fill="white"/>
<path d="M1313.81 1094.28L1312.8 1096.71L1225.55 1059.9L1226.05 1058.69L1313.81 1094.28Z" fill="white"/>
<path d="M1021.28 1335.95L1018.7 1336.47L1000.94 1243.45L1002.2 1243.2L1021.28 1335.95Z" fill="white"/>
<path d="M861.672 547.007L864.251 546.494L882.12 639.492L880.832 639.748L861.672 547.007Z" fill="white"/>
<path d="M547.005 1021.29L546.492 1018.71L639.511 1000.95L639.762 1002.21L547.005 1021.29Z" fill="white"/>
<path d="M1335.95 861.673L1336.47 864.252L1243.47 882.121L1243.21 880.834L1335.95 861.673Z" fill="white"/>
<path d="M718.974 1276.85L716.787 1275.38L770.003 1197.05L771.071 1197.76L718.974 1276.85Z" fill="white"/>
<path d="M1163.98 606.113L1166.17 607.575L1113.04 685.969L1111.95 685.239L1163.98 606.113Z" fill="white"/>
<path d="M606.111 718.977L607.573 716.789L685.907 770.005L685.193 771.073L606.111 718.977Z" fill="white"/>
<path d="M1276.84 1163.98L1275.38 1166.17L1196.99 1113.04L1197.72 1111.95L1276.84 1163.98Z" fill="white"/>
<path d="M1166.17 1275.38L1163.98 1276.85L1111.97 1197.71L1113.04 1196.99L1166.17 1275.38Z" fill="white"/>
<path d="M716.787 607.575L718.974 606.113L771.071 685.195L769.981 685.923L716.787 607.575Z" fill="white"/>
<path d="M607.573 1166.17L606.111 1163.98L685.253 1111.98L685.967 1113.04L607.573 1166.17Z" fill="white"/>
<path d="M1275.38 716.789L1276.84 718.977L1197.76 771.073L1197.03 769.983L1275.38 716.789Z" fill="white"/>
<path d="M864.251 1336.47L861.672 1335.95L880.86 1243.22L882.12 1243.47L864.251 1336.47Z" fill="white"/>
<path d="M1018.71 546.494L1021.29 547.007L1002.2 639.764L1000.92 639.507L1018.71 546.494Z" fill="white"/>
<path d="M546.492 864.252L547.005 861.673L639.741 880.861L639.49 882.121L546.492 864.252Z" fill="white"/>
<path d="M1336.47 1018.71L1335.95 1021.29L1243.2 1002.2L1243.45 1000.92L1336.47 1018.71Z" fill="white"/>
<path d="M984.813 1368.05L982.196 1368.31L969.77 1234.73L971.048 1234.61L984.813 1368.05Z" fill="white"/>
<path d="M898.143 514.905L900.761 514.648L913.295 648.217L911.989 648.346L898.143 514.905Z" fill="white"/>
<path d="M514.904 984.815L514.646 982.198L648.226 969.771L648.352 971.05L514.904 984.815Z" fill="white"/>
<path d="M1368.05 898.144L1368.31 900.762L1234.74 913.296L1234.61 911.99L1368.05 898.144Z" fill="white"/>
<path d="M670.488 1273.76L668.455 1272.09L754.124 1168.85L755.117 1169.66L670.488 1273.76Z" fill="white"/>
<path d="M1212.47 609.203L1214.5 610.872L1128.92 714.183L1127.9 713.35L1212.47 609.203Z" fill="white"/>
<path d="M609.201 670.489L610.87 668.456L714.112 754.125L713.297 755.118L609.201 670.489Z" fill="white"/>
<path d="M1273.76 1212.47L1272.09 1214.5L1168.78 1128.92L1169.61 1127.91L1273.76 1212.47Z" fill="white"/>
<path d="M1144.76 1319L1142.44 1320.24L1079.84 1201.58L1080.97 1200.98L1144.76 1319Z" fill="white"/>
<path d="M738.199 563.96L740.519 562.721L803.214 681.325L802.057 681.943L738.199 563.96Z" fill="white"/>
<path d="M563.96 1144.76L562.721 1142.44L681.376 1079.84L681.983 1080.97L563.96 1144.76Z" fill="white"/>
<path d="M1319 738.2L1320.24 740.52L1201.63 803.215L1201.02 802.058L1319 738.2Z" fill="white"/>
<path d="M818.271 1352.17L815.754 1351.4L855.394 1223.24L856.622 1223.61L818.271 1352.17Z" fill="white"/>
<path d="M1064.68 530.792L1067.2 531.556L1027.67 659.754L1026.41 659.374L1064.68 530.792Z" fill="white"/>
<path d="M530.791 818.273L531.555 815.756L659.721 855.396L659.349 856.624L530.791 818.273Z" fill="white"/>
<path d="M1352.16 1064.69L1351.4 1067.2L1223.2 1027.67L1223.58 1026.41L1352.16 1064.69Z" fill="white"/>
<path d="M1067.2 1351.4L1064.68 1352.17L1026.44 1223.58L1027.67 1223.2L1067.2 1351.4Z" fill="white"/>
<path d="M815.754 531.556L818.271 530.792L856.622 659.35L855.368 659.73L815.754 531.556Z" fill="white"/>
<path d="M531.555 1067.2L530.791 1064.69L659.381 1026.44L659.753 1027.67L531.555 1067.2Z" fill="white"/>
<path d="M1351.4 815.756L1352.16 818.273L1223.61 856.624L1223.23 855.369L1351.4 815.756Z" fill="white"/>
<path d="M740.519 1320.24L738.199 1319L802.08 1201.03L803.214 1201.63L740.519 1320.24Z" fill="white"/>
<path d="M1142.44 562.721L1144.76 563.96L1080.97 681.983L1079.81 681.363L1142.44 562.721Z" fill="white"/>
<path d="M562.721 740.52L563.96 738.2L681.931 802.081L681.325 803.215L562.721 740.52Z" fill="white"/>
<path d="M1320.24 1142.44L1319 1144.76L1200.98 1080.97L1201.59 1079.82L1320.24 1142.44Z" fill="white"/>
<path d="M1214.5 1272.09L1212.47 1273.76L1127.93 1169.59L1128.92 1168.78L1214.5 1272.09Z" fill="white"/>
<path d="M668.455 610.872L670.488 609.203L755.117 713.299L754.102 714.131L668.455 610.872Z" fill="white"/>
<path d="M610.87 1214.5L609.201 1212.47L713.365 1127.93L714.181 1128.92L610.87 1214.5Z" fill="white"/>
<path d="M1272.09 668.456L1273.76 670.489L1169.66 755.118L1168.83 754.103L1272.09 668.456Z" fill="white"/>
<path d="M900.761 1368.31L898.143 1368.05L912.016 1234.62L913.295 1234.74L900.761 1368.31Z" fill="white"/>
<path d="M982.196 514.648L984.813 514.906L971.048 648.354L969.742 648.225L982.196 514.648Z" fill="white"/>
<path d="M514.646 900.762L514.904 898.144L648.342 912.017L648.216 913.296L514.646 900.762Z" fill="white"/>
<path d="M1368.31 982.198L1368.05 984.815L1234.61 971.05L1234.73 969.744L1368.31 982.198Z" fill="white"/>
<path d="M1102.11 1378.36L1099.25 1379.4L1062.58 1276.19L1063.98 1275.68L1102.11 1378.36Z" fill="white"/>
<path d="M780.85 504.603L783.708 503.562L820.495 606.724L819.069 607.243L780.85 504.603Z" fill="white"/>
<path d="M504.603 1102.11L503.562 1099.25L606.767 1062.58L607.275 1063.98L504.603 1102.11Z" fill="white"/>
<path d="M1378.36 780.85L1379.4 783.709L1276.24 820.496L1275.72 819.07L1378.36 780.85Z" fill="white"/>
<path d="M746.142 1363.98L743.384 1362.69L790.432 1263.79L791.779 1264.42L746.142 1363.98Z" fill="white"/>
<path d="M1136.81 518.979L1139.57 520.266L1092.64 619.224L1091.26 618.582L1136.81 518.979Z" fill="white"/>
<path d="M518.978 746.143L520.265 743.385L619.169 790.434L618.542 791.78L518.978 746.143Z" fill="white"/>
<path d="M1363.98 1136.82L1362.69 1139.57L1263.73 1092.64L1264.37 1091.26L1363.98 1136.82Z" fill="white"/>
<path d="M1257.07 1283.63L1254.82 1285.69L1181.45 1204.37L1182.55 1203.37L1257.07 1283.63Z" fill="white"/>
<path d="M625.893 599.329L628.136 597.272L701.601 678.505L700.481 679.529L625.893 599.329Z" fill="white"/>
<path d="M599.328 1257.07L597.272 1254.82L678.588 1181.45L679.593 1182.55L599.328 1257.07Z" fill="white"/>
<path d="M1283.63 625.892L1285.68 628.136L1204.45 701.6L1203.43 700.481L1283.63 625.892Z" fill="white"/>
<path d="M922.695 1406.57L919.656 1406.44L925.273 1297.06L926.758 1297.12L922.695 1406.57Z" fill="white"/>
<path d="M960.263 476.388L963.303 476.522L957.812 585.907L956.295 585.841L960.263 476.388Z" fill="white"/>
<path d="M476.387 922.696L476.521 919.656L585.902 925.273L585.837 926.758L476.387 922.696Z" fill="white"/>
<path d="M1406.57 960.262L1406.44 963.302L1297.05 957.811L1297.12 956.295L1406.57 960.262Z" fill="white"/>
<path d="M1184.25 1338.62L1181.65 1340.2L1125.55 1246.13L1126.82 1245.36L1184.25 1338.62Z" fill="white"/>
<path d="M698.707 544.335L701.307 542.757L757.513 636.759L756.215 637.547L698.707 544.335Z" fill="white"/>
<path d="M544.334 1184.25L542.756 1181.65L636.823 1125.55L637.595 1126.82L544.334 1184.25Z" fill="white"/>
<path d="M1338.62 698.707L1340.2 701.307L1246.2 757.514L1245.41 756.215L1338.62 698.707Z" fill="white"/>
<path d="M832.322 1393.97L829.366 1393.25L856.216 1287.06L857.658 1287.42L832.322 1393.97Z" fill="white"/>
<path d="M1050.64 488.99L1053.59 489.713L1026.86 595.927L1025.39 595.565L1050.64 488.99Z" fill="white"/>
<path d="M488.99 832.321L489.713 829.366L595.897 856.215L595.543 857.658L488.99 832.321Z" fill="white"/>
<path d="M1393.97 1050.64L1393.25 1053.59L1287.03 1026.87L1287.4 1025.39L1393.97 1050.64Z" fill="white"/>
<path d="M1317.75 1215.49L1315.95 1217.94L1228.13 1152.5L1229.01 1151.3L1317.75 1215.49Z" fill="white"/>
<path d="M565.205 667.471L567.004 665.017L654.904 730.355L654.007 731.579L565.205 667.471Z" fill="white"/>
<path d="M667.47 1317.75L665.017 1315.95L730.457 1228.13L731.655 1229.01L667.47 1317.75Z" fill="white"/>
<path d="M1215.49 565.206L1217.94 567.005L1152.6 654.905L1151.38 654.008L1215.49 565.206Z" fill="white"/>
<path d="M1013.79 1401.3L1010.78 1401.76L994.955 1293.39L996.423 1293.16L1013.79 1401.3Z" fill="white"/>
<path d="M869.167 481.661L872.175 481.198L888.128 589.554L886.629 589.784L869.167 481.661Z" fill="white"/>
<path d="M481.661 1013.79L481.198 1010.78L589.574 994.955L589.799 996.424L481.661 1013.79Z" fill="white"/>
<path d="M1401.3 869.167L1401.76 872.175L1293.41 888.128L1293.17 886.629L1401.3 869.167Z" fill="white"/>
<path d="M1157.31 1387.94L1154.57 1389.25L1088.23 1248.99L1089.57 1248.35L1157.31 1387.94Z" fill="white"/>
<path d="M725.645 495.021L728.389 493.705L794.846 633.91L793.478 634.566L725.645 495.021Z" fill="white"/>
<path d="M495.022 1157.31L493.706 1154.57L633.965 1088.23L634.608 1089.57L495.022 1157.31Z" fill="white"/>
<path d="M1387.94 725.645L1389.25 728.389L1249.05 794.846L1248.39 793.477L1387.94 725.645Z" fill="white"/>
<path d="M778.402 1409.79L775.532 1408.78L827.799 1262.69L829.201 1263.18L778.402 1409.79Z" fill="white"/>
<path d="M1104.56 473.168L1107.43 474.177L1055.28 620.309L1053.85 619.805L1104.56 473.168Z" fill="white"/>
<path d="M473.168 778.403L474.177 775.533L620.268 827.8L619.775 829.201L473.168 778.403Z" fill="white"/>
<path d="M1409.79 1104.56L1408.78 1107.43L1262.65 1055.28L1263.15 1053.85L1409.79 1104.56Z" fill="white"/>
<path d="M1311.74 1271.36L1309.71 1273.62L1194.74 1169.43L1195.73 1168.32L1311.74 1271.36Z" fill="white"/>
<path d="M571.223 611.601L573.254 609.337L688.306 713.436L687.293 714.566L571.223 611.601Z" fill="white"/>
<path d="M611.602 1311.74L609.338 1309.71L713.531 1194.74L714.638 1195.73L611.602 1311.74Z" fill="white"/>
<path d="M1271.36 571.223L1273.62 573.254L1169.52 688.306L1168.39 687.293L1271.36 571.223Z" fill="white"/>
<path d="M970.031 1436.55L966.993 1436.72L959.376 1281.74L960.858 1281.66L970.031 1436.55Z" fill="white"/>
<path d="M912.928 446.409L915.966 446.244L923.71 601.207L922.194 601.291L912.928 446.409Z" fill="white"/>
<path d="M446.408 970.031L446.243 966.993L601.213 959.376L601.295 960.858L446.408 970.031Z" fill="white"/>
<path d="M1436.55 912.927L1436.72 915.965L1281.75 923.709L1281.67 922.193L1436.55 912.927Z" fill="white"/>
<path d="M1240.27 1337.25L1237.83 1339.08L1145.4 1214.46L1146.59 1213.57L1240.27 1337.25Z" fill="white"/>
<path d="M642.693 545.707L645.127 543.88L737.659 668.427L736.446 669.336L642.693 545.707Z" fill="white"/>
<path d="M545.705 1240.27L543.879 1237.83L668.501 1145.4L669.392 1146.59L545.705 1240.27Z" fill="white"/>
<path d="M1337.25 642.692L1339.08 645.126L1214.53 737.658L1213.62 736.446L1337.25 642.692Z" fill="white"/>
<path d="M872.899 1432.61L869.887 1432.18L892.649 1278.7L894.12 1278.91L872.899 1432.61Z" fill="white"/>
<path d="M1010.06 450.352L1013.07 450.781L990.433 604.28L988.93 604.065L1010.06 450.352Z" fill="white"/>
<path d="M450.353 872.899L450.782 869.888L604.263 892.649L604.052 894.121L450.353 872.899Z" fill="white"/>
<path d="M1432.61 1010.06L1432.18 1013.07L1278.68 990.434L1278.89 988.931L1432.61 1010.06Z" fill="white"/>
<path d="M1368.98 1192.79L1367.43 1195.4L1234.34 1115.64L1235.1 1114.36L1368.98 1192.79Z" fill="white"/>
<path d="M513.981 690.173L515.53 687.555L648.681 767.21L647.907 768.517L513.981 690.173Z" fill="white"/>
<path d="M690.174 1368.98L687.556 1367.43L767.319 1234.34L768.598 1235.1L690.174 1368.98Z" fill="white"/>
<path d="M1192.79 513.981L1195.4 515.531L1115.75 648.682L1114.44 647.907L1192.79 513.981Z" fill="white"/>
<path d="M1066.07 1421.47L1063.12 1422.22L1025.41 1271.72L1026.85 1271.35L1066.07 1421.47Z" fill="white"/>
<path d="M816.892 461.492L819.839 460.737L857.666 611.213L856.195 611.59L816.892 461.492Z" fill="white"/>
<path d="M461.493 1066.07L460.737 1063.12L611.245 1025.41L611.614 1026.85L461.493 1066.07Z" fill="white"/>
<path d="M1421.47 816.893L1422.22 819.84L1271.75 857.666L1271.37 856.196L1421.47 816.893Z" fill="white"/>
<path d="M746.592 1680.45L741.769 1679.15L789.624 1505.89L791.981 1506.52L746.592 1680.45Z" fill="white"/>
<path d="M1137.21 203.358L1142.03 204.65L1094.37 377.969L1091.97 377.325L1137.21 203.358Z" fill="white"/>
<path d="M203.356 746.594L204.648 741.772L377.914 789.627L377.283 791.983L203.356 746.594Z" fill="white"/>
<path d="M1680.44 1137.21L1679.15 1142.03L1505.83 1094.38L1506.48 1091.97L1680.44 1137.21Z" fill="white"/>
<path d="M281.568 1326.03L279.069 1321.7L435.427 1233.03L436.646 1235.14L281.568 1326.03Z" fill="white"/>
<path d="M1602.23 557.775L1604.73 562.101L1448.48 650.958L1447.23 648.799L1602.23 557.775Z" fill="white"/>
<path d="M557.773 281.57L562.1 279.072L650.776 435.429L648.666 436.649L557.773 281.57Z" fill="white"/>
<path d="M1326.03 1602.24L1321.7 1604.73L1232.85 1448.48L1235 1447.23L1326.03 1602.24Z" fill="white"/>
<path d="M1044.09 1698.97L1039.14 1699.62L1017.04 1521.23L1019.46 1520.91L1044.09 1698.97Z" fill="white"/>
<path d="M839.712 184.836L844.663 184.183L866.961 362.548L864.492 362.871L839.712 184.836Z" fill="white"/>
<path d="M184.832 1044.09L184.179 1039.14L362.57 1017.05L362.888 1019.47L184.832 1044.09Z" fill="white"/>
<path d="M1698.97 839.715L1699.62 844.665L1521.26 866.964L1520.93 864.494L1698.97 839.715Z" fill="white"/>
<path d="M478.831 1549.49L474.869 1546.45L585.387 1404.68L587.323 1406.17L478.831 1549.49Z" fill="white"/>
<path d="M1404.97 334.317L1408.93 337.358L1298.58 479.246L1296.6 477.73L1404.97 334.317Z" fill="white"/>
<path d="M334.314 478.833L337.355 474.872L479.119 585.39L477.634 587.326L334.314 478.833Z" fill="white"/>
<path d="M1549.48 1404.97L1546.45 1408.93L1404.55 1298.58L1406.07 1296.6L1549.48 1404.97Z" fill="white"/>
<path d="M894.43 1704.36L889.446 1704.03L902.58 1524.76L905.013 1524.92L894.43 1704.36Z" fill="white"/>
<path d="M989.373 179.447L994.354 179.774L981.428 359.06L978.941 358.897L989.373 179.447Z" fill="white"/>
<path d="M179.445 894.431L179.773 889.448L359.044 902.581L358.886 905.015L179.445 894.431Z" fill="white"/>
<path d="M1704.36 989.375L1704.03 994.356L1524.74 981.43L1524.91 978.944L1704.36 989.375Z" fill="white"/>
<path d="M369.194 1447.47L365.902 1443.72L501.954 1326.24L503.562 1328.07L369.194 1447.47Z" fill="white"/>
<path d="M1514.61 436.333L1517.9 440.086L1381.98 557.721L1380.34 555.847L1514.61 436.333Z" fill="white"/>
<path d="M436.332 369.197L440.085 365.904L557.564 501.957L555.73 503.564L436.332 369.197Z" fill="white"/>
<path d="M1447.47 1514.61L1443.72 1517.9L1326.09 1381.98L1327.96 1380.34L1447.47 1514.61Z" fill="white"/>
<path d="M1189.82 1664.49L1185.09 1666.09L1128.62 1495.44L1130.93 1494.66L1189.82 1664.49Z" fill="white"/>
<path d="M693.979 219.318L698.707 217.714L755.374 388.299L753.017 389.1L693.979 219.318Z" fill="white"/>
<path d="M219.317 1189.82L217.713 1185.09L388.365 1128.62L389.15 1130.93L219.317 1189.82Z" fill="white"/>
<path d="M1664.48 693.981L1666.09 698.709L1495.5 755.375L1494.7 753.018L1664.48 693.981Z" fill="white"/>
<path d="M606.262 1628.15L601.786 1625.94L682.524 1465.35L684.712 1466.42L606.262 1628.15Z" fill="white"/>
<path d="M1277.54 255.653L1282.02 257.861L1201.46 418.553L1199.23 417.451L1277.54 255.653Z" fill="white"/>
<path d="M255.651 606.264L257.858 601.787L418.459 682.526L417.38 684.713L255.651 606.264Z" fill="white"/>
<path d="M1628.15 1277.54L1625.94 1282.02L1465.25 1201.46L1466.35 1199.23L1628.15 1277.54Z" fill="white"/>
<path d="M811.791 1745.3L806.865 1744.48L849.706 1493.47L852.111 1493.87L811.791 1745.3Z" fill="white"/>
<path d="M1072.01 138.508L1076.94 139.322L1034.3 390.372L1031.84 389.967L1072.01 138.508Z" fill="white"/>
<path d="M138.506 811.792L139.319 806.867L390.336 849.708L389.939 852.114L138.506 811.792Z" fill="white"/>
<path d="M1745.29 1072.01L1744.48 1076.94L1493.43 1034.3L1493.84 1031.84L1745.29 1072.01Z" fill="white"/>
<path d="M281.812 1417.99L278.904 1413.93L486.694 1266.73L488.114 1268.71L281.812 1417.99Z" fill="white"/>
<path d="M1601.99 465.818L1604.89 469.877L1397.23 617.248L1395.78 615.223L1601.99 465.818Z" fill="white"/>
<path d="M465.816 281.815L469.875 278.907L617.078 486.698L615.095 488.118L465.816 281.815Z" fill="white"/>
<path d="M1417.98 1601.99L1413.93 1604.9L1266.55 1397.23L1268.58 1395.78L1417.98 1601.99Z" fill="white"/>
<path d="M1129.14 1733.93L1124.28 1735.07L1067.8 1486.76L1070.17 1486.21L1129.14 1733.93Z" fill="white"/>
<path d="M754.661 149.871L759.523 148.739L816.204 396.995L813.779 397.56L754.661 149.871Z" fill="white"/>
<path d="M149.867 1129.14L148.735 1124.28L397.038 1067.8L397.593 1070.17L149.867 1129.14Z" fill="white"/>
<path d="M1733.93 754.663L1735.06 759.526L1486.81 816.207L1486.24 813.781L1733.93 754.663Z" fill="white"/>
<path d="M514.246 1634.35L510.006 1631.72L645.649 1416.2L647.718 1417.49L514.246 1634.35Z" fill="white"/>
<path d="M1369.55 249.453L1373.79 252.091L1238.33 467.713L1236.21 466.399L1369.55 249.453Z" fill="white"/>
<path d="M249.451 514.249L252.089 510.009L467.601 645.652L466.315 647.721L249.451 514.249Z" fill="white"/>
<path d="M1634.35 1369.56L1631.71 1373.8L1416.09 1238.33L1417.4 1236.21L1634.35 1369.56Z" fill="white"/>
<path d="M971.023 1755.24L966.033 1755.41L959.08 1500.86L961.518 1500.78L971.023 1755.24Z" fill="white"/>
<path d="M912.775 128.562L917.766 128.397L924.924 382.944L922.437 383.024L912.775 128.562Z" fill="white"/>
<path d="M128.56 971.026L128.396 966.036L382.949 959.084L383.027 961.521L128.56 971.026Z" fill="white"/>
<path d="M1755.24 912.778L1755.4 917.768L1500.86 924.927L1500.78 922.439L1755.24 912.778Z" fill="white"/>
<path d="M387.374 1537.62L383.73 1534.2L558.809 1349.29L560.59 1350.96L387.374 1537.62Z" fill="white"/>
<path d="M1496.43 346.192L1500.07 349.603L1325.14 534.656L1323.32 532.952L1496.43 346.192Z" fill="white"/>
<path d="M346.188 387.378L349.6 383.733L534.512 558.813L532.844 560.593L346.188 387.378Z" fill="white"/>
<path d="M1537.61 1496.43L1534.2 1500.07L1349.15 1325.14L1350.85 1323.32L1537.61 1496.43Z" fill="white"/>
<path d="M1280.06 1682.19L1275.51 1684.25L1171.68 1451.73L1173.9 1450.73L1280.06 1682.19Z" fill="white"/>
<path d="M603.741 201.619L608.289 199.558L712.313 431.989L710.042 433.016L603.741 201.619Z" fill="white"/>
<path d="M201.617 1280.06L199.556 1275.51L432.07 1171.68L433.078 1173.9L201.617 1280.06Z" fill="white"/>
<path d="M1682.18 603.744L1684.24 608.292L1451.81 712.316L1450.79 710.046L1682.18 603.744Z" fill="white"/>
<path d="M657.556 1704.48L652.882 1702.72L743.871 1464.88L746.156 1465.74L657.556 1704.48Z" fill="white"/>
<path d="M1226.25 179.329L1230.92 181.087L1140.12 418.996L1137.79 418.118L1226.25 179.329Z" fill="white"/>
<path d="M179.327 657.558L181.086 652.884L418.922 743.874L418.062 746.158L179.327 657.558Z" fill="white"/>
<path d="M1704.47 1226.25L1702.72 1230.92L1464.81 1140.12L1465.69 1137.79L1704.47 1226.25Z" fill="white"/>
<path d="M1021.78 1821.81L1016.03 1822.31L999.499 1615.07L1002.31 1614.83L1021.78 1821.81Z" fill="white"/>
<path d="M862.021 61.9944L867.774 61.4911L884.541 268.705L881.67 268.956L862.021 61.9944Z" fill="white"/>
<path d="M61.9935 1021.78L61.4902 1016.03L268.725 999.5L268.971 1002.31L61.9935 1021.78Z" fill="white"/>
<path d="M1821.8 862.02L1822.31 867.772L1615.09 884.539L1614.84 881.668L1821.8 862.02Z" fill="white"/>
<path d="M376.2 1620.57L371.774 1616.86L506.625 1458.64L508.786 1460.45L376.2 1620.57Z" fill="white"/>
<path d="M1507.6 263.228L1512.03 266.942L1377.36 425.32L1375.15 423.467L1507.6 263.228Z" fill="white"/>
<path d="M263.227 376.198L266.941 371.772L425.164 506.623L423.353 508.784L263.227 376.198Z" fill="white"/>
<path d="M1620.57 1507.6L1616.86 1512.03L1458.48 1377.36L1460.33 1375.15L1620.57 1507.6Z" fill="white"/>
<path d="M1352.42 1724.26L1347.3 1726.92L1252.73 1541.79L1255.23 1540.49L1352.42 1724.26Z" fill="white"/>
<path d="M531.374 159.543L536.497 156.875L631.285 341.902L628.729 343.23L531.374 159.543Z" fill="white"/>
<path d="M159.544 1352.43L156.875 1347.3L342.011 1252.73L343.314 1255.23L159.544 1352.43Z" fill="white"/>
<path d="M1724.26 531.375L1726.93 536.498L1541.9 631.286L1540.57 628.73L1724.26 531.375Z" fill="white"/>
<path d="M678.973 1785.4L673.465 1783.66L737.501 1585.87L740.192 1586.72L678.973 1785.4Z" fill="white"/>
<path d="M1204.82 98.4042L1210.33 100.142L1146.53 297.998L1143.78 297.131L1204.82 98.4042Z" fill="white"/>
<path d="M98.4045 678.975L100.143 673.467L297.929 737.502L297.08 740.193L98.4045 678.975Z" fill="white"/>
<path d="M1785.4 1204.82L1783.66 1210.33L1585.8 1146.53L1586.67 1143.78L1785.4 1204.82Z" fill="white"/>
<path d="M1191.91 1789.31L1186.36 1790.93L1129.72 1590.9L1132.43 1590.12L1191.91 1789.31Z" fill="white"/>
<path d="M691.895 94.4862L697.437 92.871L754.309 292.832L751.542 293.639L691.895 94.4862Z" fill="white"/>
<path d="M94.4844 1191.91L92.8689 1186.36L292.896 1129.72L293.687 1132.43L94.4844 1191.91Z" fill="white"/>
<path d="M1789.31 691.895L1790.93 697.437L1590.97 754.309L1590.16 751.542L1789.31 691.895Z" fill="white"/>
<path d="M519.466 1717.89L514.404 1715.12L615.795 1533.63L618.267 1534.98L519.466 1717.89Z" fill="white"/>
<path d="M1364.33 165.908L1369.39 168.685L1268.21 350.293L1265.69 348.905L1364.33 165.908Z" fill="white"/>
<path d="M165.907 519.469L168.684 514.406L350.177 615.797L348.82 618.269L165.907 519.469Z" fill="white"/>
<path d="M1717.89 1364.33L1715.12 1369.39L1533.51 1268.21L1534.9 1265.69L1717.89 1364.33Z" fill="white"/>
<path d="M1497.17 1629.14L1492.66 1632.75L1363.79 1469.63L1365.99 1467.86L1497.17 1629.14Z" fill="white"/>
<path d="M386.633 254.665L391.137 251.051L520.199 414.028L517.954 415.83L386.633 254.665Z" fill="white"/>
<path d="M254.664 1497.17L251.05 1492.66L414.177 1363.79L415.943 1365.99L254.664 1497.17Z" fill="white"/>
<path d="M1629.13 386.632L1632.75 391.136L1469.77 520.198L1467.97 517.953L1629.13 386.632Z" fill="white"/>
<path d="M848.584 1820.48L842.845 1819.85L867.064 1613.38L869.868 1613.68L848.584 1820.48Z" fill="white"/>
<path d="M1035.22 63.3192L1040.96 63.9473L1016.97 270.451L1014.11 270.137L1035.22 63.3192Z" fill="white"/>
<path d="M63.3177 848.584L63.946 842.845L270.424 867.065L270.116 869.868L63.3177 848.584Z" fill="white"/>
<path d="M1820.48 1035.22L1819.85 1040.96L1613.35 1016.97L1613.66 1014.11L1820.48 1035.22Z" fill="white"/>
<path d="M1118.29 1866.5L1112.61 1867.56L1059.88 1577.81L1062.65 1577.29L1118.29 1866.5Z" fill="white"/>
<path d="M765.51 17.3054L771.188 16.2406L824.155 305.948L821.324 306.48L765.51 17.3054Z" fill="white"/>
<path d="M17.3054 1118.29L16.2408 1112.61L305.992 1059.88L306.513 1062.65L17.3054 1118.29Z" fill="white"/>
<path d="M1866.49 765.511L1867.56 771.189L1577.85 824.156L1577.32 821.324L1866.49 765.511Z" fill="white"/>
<path d="M412.84 1720.41L408.074 1717.15L575.673 1474.98L578.001 1476.57L412.84 1720.41Z" fill="white"/>
<path d="M1470.96 163.387L1475.73 166.648L1308.33 408.955L1305.95 407.329L1470.96 163.387Z" fill="white"/>
<path d="M163.385 412.838L166.646 408.072L408.821 575.671L407.227 577.999L163.385 412.838Z" fill="white"/>
<path d="M1720.41 1470.96L1717.15 1475.73L1474.84 1308.33L1476.47 1305.95L1720.41 1470.96Z" fill="white"/>
<path d="M1458.69 1728.61L1453.85 1731.77L1294.25 1484.25L1296.61 1482.71L1458.69 1728.61Z" fill="white"/>
<path d="M425.11 155.186L429.947 152.033L589.749 399.416L587.336 400.99L425.11 155.186Z" fill="white"/>
<path d="M155.187 1458.69L152.034 1453.85L399.548 1294.25L401.09 1296.61L155.187 1458.69Z" fill="white"/>
<path d="M1728.62 425.112L1731.77 429.948L1484.39 589.75L1482.81 587.337L1728.62 425.112Z" fill="white"/>
<path d="M751.033 1863.62L745.382 1862.43L807.549 1574.55L810.307 1575.13L751.033 1863.62Z" fill="white"/>
<path d="M1132.76 20.1839L1138.42 21.3734L1076.48 309.297L1073.66 308.706L1132.76 20.1839Z" fill="white"/>
<path d="M20.1828 751.034L21.3723 745.383L309.247 807.55L308.668 810.308L20.1828 751.034Z" fill="white"/>
<path d="M1863.61 1132.77L1862.43 1138.42L1574.5 1076.49L1575.1 1073.67L1863.61 1132.77Z" fill="white"/>
<path d="M1295.28 1814.32L1289.92 1816.47L1181.67 1542.58L1184.29 1541.52L1295.28 1814.32Z" fill="white"/>
<path d="M588.519 69.4831L593.878 67.3303L702.346 341.14L699.675 342.211L588.519 69.4831Z" fill="white"/>
<path d="M69.4824 1295.28L67.3296 1289.92L341.228 1181.67L342.277 1184.29L69.4824 1295.28Z" fill="white"/>
<path d="M1814.32 588.52L1816.47 593.879L1542.66 702.347L1541.59 699.676L1814.32 588.52Z" fill="white"/>
<path d="M574.885 1808.67L569.573 1806.4L686.705 1536.19L689.301 1537.29L574.885 1808.67Z" fill="white"/>
<path d="M1308.92 75.1329L1314.23 77.3985L1197.31 347.71L1194.66 346.577L1308.92 75.1329Z" fill="white"/>
<path d="M75.1334 574.885L77.399 569.574L347.617 686.706L346.508 689.301L75.1334 574.885Z" fill="white"/>
<path d="M1808.67 1308.92L1806.4 1314.23L1536.09 1197.31L1537.22 1194.66L1808.67 1308.92Z" fill="white"/>
<path d="M1602.24 1612.68L1598.11 1616.72L1393.29 1405.09L1395.31 1403.12L1602.24 1612.68Z" fill="white"/>
<path d="M281.562 271.124L285.689 267.085L490.683 478.543L488.622 480.558L281.562 271.124Z" fill="white"/>
<path d="M271.123 1602.24L267.084 1598.11L478.708 1393.29L480.681 1395.31L271.123 1602.24Z" fill="white"/>
<path d="M1612.68 281.561L1616.71 285.689L1405.26 490.683L1403.24 488.621L1612.68 281.561Z" fill="white"/>
<path d="M934.52 1883.14L928.743 1883.08L933.552 1588.61L936.375 1588.64L934.52 1883.14Z" fill="white"/>
<path d="M949.281 0.659277L955.054 0.722265L950.483 295.197L947.602 295.165L949.281 0.659277Z" fill="white"/>
<path d="M0.65923 934.521L0.721964 928.745L295.195 933.554L295.163 936.377L0.65923 934.521Z" fill="white"/>
<path d="M1883.14 949.282L1883.08 955.056L1588.61 950.484L1588.63 947.604L1883.14 949.282Z" fill="white"/>
</g>
</svg>
