<svg width="150" height="132" viewBox="0 0 150 132" fill="none" xmlns="http://www.w3.org/2000/svg">
<g filter="url(#filter0_f)">
<path d="M67.1138 123.931C87.8311 123.931 104.626 122.22 104.626 120.11C104.626 118 87.8311 116.289 67.1138 116.289C46.3965 116.289 29.6018 118 29.6018 120.11C29.6018 122.22 46.3965 123.931 67.1138 123.931Z" fill="#30374E" fill-opacity="0.35"/>
</g>
<g filter="url(#filter1_f)">
<path d="M102.851 117.934C111.467 117.934 118.451 117.197 118.451 116.288C118.451 115.379 111.467 114.642 102.851 114.642C94.2352 114.642 87.2509 115.379 87.2509 116.288C87.2509 117.197 94.2352 117.934 102.851 117.934Z" fill="#30374E" fill-opacity="0.35"/>
</g>
<path d="M111.052 104.276C110.737 105.292 109.549 105.679 109.005 105.736C108.819 106.738 107.903 107.482 106.729 107.697C106.514 107.74 106.3 107.754 106.099 107.754C105.283 107.754 104.41 107.511 103.981 106.781C103.265 107.11 102.077 106.781 101.577 106.237C100.389 104.963 100.79 103.117 101.148 102.115C98.9579 101.442 97.8848 101.228 96.9118 101.042C96.5828 100.97 93.7918 100.369 93.4628 100.298C88.7258 99.3393 85.9488 96.2053 85.8198 96.0623C85.5188 96.0913 85.2188 96.1053 84.9178 96.1343C84.8888 96.7783 84.3308 98.4673 84.8318 99.4833C84.8458 99.5263 87.1078 103.619 85.8908 104.993C85.2758 105.694 83.7579 105.551 83.2719 105.465C83.0289 106.209 81.9548 106.624 81.0538 106.624C80.9388 106.624 80.8109 106.624 80.6959 106.61C79.6659 106.51 78.7499 105.823 78.5059 104.95C77.9909 105.036 77.2318 105.036 76.8598 104.478C76.3448 103.719 76.3588 103.147 76.4588 102.617C76.6158 101.816 77.2319 101.157 77.6179 100.828C77.2029 100.513 76.7878 100.17 76.4438 99.8553C75.8139 99.5123 74.8978 98.8532 73.5238 97.6943C73.4518 97.6513 73.3808 97.6083 73.3088 97.5513C72.1928 96.7783 71.1618 95.7622 70.4749 95.0182C69.1009 94.6892 68.0419 94.3603 67.6989 94.2593C66.6829 95.4333 65.4518 96.5782 64.1498 97.7942C62.0458 99.7692 59.4128 102.131 57.5238 104.993C57.6808 106.381 57.5378 107.698 56.8798 108.485C56.1068 109.401 54.2318 110.102 52.5718 110.102C52.5148 110.102 52.4568 110.102 52.3858 110.102C49.7238 110.045 46.9328 109.1 43.3978 106.667C41.3368 105.236 40.6218 103.003 41.0078 101.558C41.2798 100.542 42.3959 99.8983 43.2689 99.7403C43.4409 99.4113 43.6978 99.0673 44.0559 98.7243C44.7999 98.0233 45.8158 97.6942 46.9758 97.7792C47.6768 97.8362 48.3928 98.0372 49.0228 98.3092C49.8958 95.8622 49.5808 94.7452 49.4518 92.6423C49.4228 92.1702 49.4658 91.4113 49.4518 90.7963C46.5898 89.9373 42.4678 89.1362 37.9168 88.6062C36.8438 89.4652 34.7109 90.8392 30.7039 92.7572C30.1319 93.0292 28.6858 93.6162 27.0118 94.2882C24.5218 95.2902 21.2008 96.6212 19.8128 97.3362C19.7988 98.0802 19.6128 98.7962 19.2548 99.3402C18.6108 100.285 16.8928 101 15.1758 101C15.1038 101 15.1758 101 15.1038 101C12.6998 100.943 10.2238 100.156 7.46082 98.1952C6.65982 97.6372 5.49983 96.5633 4.97083 95.3763C4.26983 93.8023 4.24083 93.3152 4.56983 92.1423C4.84183 91.1543 5.94382 90.9542 6.74482 90.9402C6.77382 90.7682 6.84484 90.5542 6.95984 90.3102C7.24584 89.6802 7.91881 89.0513 9.72181 89.0513C11.6968 89.0513 12.5268 89.9242 13.2998 90.5542C13.5858 90.1532 13.8299 89.7672 14.1439 89.3522C14.9309 88.2932 15.9618 86.8192 17.0778 85.8462C18.4228 84.6872 18.1939 84.6722 18.6809 84.3722C18.2949 83.5282 18.0798 82.7403 17.9648 82.1253C15.7318 81.9683 13.3278 81.8102 11.9678 81.7102C11.2948 81.6532 10.6939 81.6383 10.1649 81.6243C7.70286 81.5523 5.59982 80.6512 5.32782 77.1012C4.76982 70.0312 2.12181 59.4112 1.14881 55.9192C1.07681 55.6612 1.00584 55.4043 0.933842 55.1603C0.160842 52.3693 -0.368149 50.6522 0.318851 49.7222C0.719851 49.1922 1.14883 48.3773 2.69483 48.2763C3.39583 48.2333 4.02582 48.1042 4.51282 47.9612C4.91382 44.8842 5.50082 42.5222 5.98682 40.6902C6.84582 37.4412 8.90686 33.9063 8.90686 33.9063C8.90686 33.9063 11.4538 37.9283 13.0568 40.4323C14.1298 34.7793 17.3508 29.1542 17.3508 29.1542C17.3508 29.1542 20.9858 36.2813 22.5028 39.1293C23.7908 37.9563 24.8068 36.6242 25.3648 35.8372C24.9788 35.5512 24.6058 35.2933 24.3348 35.0363C23.8908 34.6213 23.4618 34.2203 23.1758 33.7343C22.5608 32.6463 22.8748 31.9313 23.4768 30.6573C23.6918 30.1853 23.9638 29.6122 24.2498 28.8822C25.0228 26.9212 26.7118 21.2253 27.5128 18.4633C26.1248 16.7033 24.6788 14.2413 23.3198 11.2503C22.2468 8.88928 22.2319 6.32727 22.6469 5.33927C23.0049 4.48027 24.5218 3.82227 25.3658 3.52127C27.3548 2.82027 28.6149 2.0473 29.7169 1.3743C29.8459 1.2883 30.0028 1.20221 30.1458 1.10221C30.9758 0.558208 32.6358 -0.114704 33.5378 0.343296C34.3818 0.772296 34.8549 3.04828 34.9829 5.32328C35.1689 8.57228 35.6558 11.2202 36.1418 13.1232C40.8078 11.4772 44.6858 11.8492 46.4468 12.1642C46.8908 9.14422 47.9068 5.36627 48.9518 3.21927C49.6528 1.78827 50.3968 1.01526 51.2278 0.829258C52.2438 0.600258 53.5318 1.53031 54.2048 2.10331C54.3768 2.24631 54.5338 2.37525 54.6768 2.47525L55.0628 2.74723C56.0648 3.47723 57.1669 4.15019 57.7249 4.43619C59.1279 5.15219 60.9738 6.71231 59.5858 9.60331C58.8698 11.0923 57.6679 13.6102 56.4229 15.6282C56.8949 15.9722 57.5248 16.5582 58.2408 17.5602C60.7169 16.3722 62.3198 15.7572 64.0798 15.2842L64.2518 15.2412C65.9688 14.7692 68.1158 14.1963 70.5778 17.8173C75.6008 25.1883 81.6408 37.8543 82.4708 39.8433C83.4728 42.2623 83.9308 42.1333 84.3598 42.0043C85.2468 41.7463 85.4618 41.6462 86.6068 40.9452C86.7068 40.8882 86.7928 40.8302 86.8928 40.7732C88.2238 39.9292 89.8978 38.8983 92.0878 40.9593C93.4478 42.2473 94.1629 43.7932 94.8499 45.0382C95.4079 41.1022 96.9109 38.4832 96.9249 38.4402L100.016 39.5712C98.3988 46.0112 99.0709 51.7653 99.0859 52.0223C99.2009 52.9523 100.245 54.9852 101.49 57.8612C103.866 63.3422 107.272 70.9282 108.403 77.6542C109.906 86.6852 108.718 89.1753 107.186 90.0053C106.771 90.2343 105.869 90.5632 105.039 90.7642C105.196 91.2082 105.354 91.6233 105.454 92.0093C105.697 92.5823 105.984 93.1543 106.241 93.7412C107.687 96.5462 107.787 97.0613 108.102 97.7913C108.889 98.5213 109.834 99.5942 110.263 100.439C110.695 101.285 111.453 102.988 111.052 104.276Z" fill="#A2CCD4"/>
<path d="M52.1588 11.5491C56.9958 9.73107 56.5808 8.74414 56.5808 8.74414C56.5808 8.74414 53.9898 8.85906 53.2028 8.08606C52.4158 7.29906 51.6718 4.85205 51.6718 4.85205C51.0138 7.19905 52.1588 11.5491 52.1588 11.5491Z" fill="#7CBAC1"/>
<path d="M108.133 78.0998C109.622 85.4708 108.104 86.3718 107.689 88.5908C107.274 90.8098 106.573 89.5209 101.864 90.4939C97.1548 91.4669 92.4898 93.7859 85.3048 94.8739C79.4368 95.7609 67.8438 93.1278 67.8438 93.1278L63.4069 97.6938L62.4188 94.7738C67.3418 89.5638 65.3098 82.5948 65.3098 82.5948C66.6698 83.0238 66.7978 83.6968 67.4708 84.3548C68.1438 85.0128 68.9878 84.6268 68.4868 82.4798C67.9718 80.3328 65.8818 79.6028 62.9908 79.2458C60.6438 78.9448 55.8058 82.1939 53.7448 83.0819C51.6838 83.9699 42.7528 84.2128 44.6138 84.6418C46.4598 85.0708 51.9698 85.2568 51.9698 85.2568C51.7268 85.7438 50.2808 89.8508 50.2808 89.8508C41.3498 88.1478 37.7578 88.1339 37.7578 88.1339C36.7558 89.4649 29.3428 92.4128 29.3428 92.4128L28.1688 89.0349C28.1688 89.0349 29.8858 88.2618 31.5898 87.7038C33.2928 87.1458 32.7638 84.7129 30.7308 83.3389C29.4858 82.4949 21.9428 80.7058 21.9428 80.7058C26.5658 81.0918 40.4629 81.9078 41.5219 81.8508C42.5809 81.7788 45.8728 77.7289 45.8728 77.7289L51.0678 76.6988C51.0678 76.6988 57.4938 75.1959 63.8768 73.6929C67.3408 72.8769 68.7858 72.4769 70.8038 71.3319C72.8218 70.1869 79.8778 73.0639 85.3018 76.2699C90.1108 79.1179 92.7009 84.1268 97.5389 86.2168C102.376 88.3058 103.164 85.5728 103.994 83.4118C104.824 81.2368 102.033 66.3378 99.4278 59.9978C96.8228 53.6578 98.0108 53.8148 98.0108 53.8148C98.9728 54.8858 106.616 70.7008 108.133 78.0998Z" fill="#7CBAC1"/>
<path d="M54.6488 36.0658C56.8818 36.2518 58.4988 37.9408 58.4988 37.9408C55.3498 36.4808 50.4988 39.2718 50.4988 39.2718C49.4398 36.9248 48.2088 37.2678 48.2088 37.2678C50.1118 36.1658 52.4158 35.8798 54.6488 36.0658Z" fill="#7CBAC1"/>
<path d="M58.7708 66.1638C60.6318 64.7328 60.6888 67.0658 60.6888 67.0658C62.0338 64.6898 61.0038 62.6289 61.0038 62.6289L58.7708 66.1638Z" fill="#7CBAC1"/>
<path d="M98.2718 89.965C101.435 89.521 104.254 90.48 104.254 90.48C105.285 94.731 102.594 97.006 102.594 97.006C102.594 97.006 103.968 96.076 99.9318 93.6C95.8958 91.124 92.7618 92.641 92.7618 92.641C92.7618 92.641 95.1088 90.394 98.2718 89.965Z" fill="#7CBAC1"/>
<path opacity="0.8" d="M11.8558 94.5439C11.1258 94.1859 9.85183 94.1429 8.36383 94.0859C6.86083 94.0139 5.85883 95.2599 5.85883 95.2599C5.85883 95.2599 5.34381 92.7409 5.34381 92.1109C5.34381 91.4809 7.04681 92.0539 7.04681 92.0539C7.04681 92.0539 7.44785 90.1499 9.50885 89.5779C11.5698 89.0049 12.5858 91.2239 12.5858 91.2239C13.4448 92.3399 12.5858 94.9019 11.8558 94.5439Z" fill="white"/>
<path opacity="0.8" d="M48.8809 103.475C48.0789 103.117 46.6628 103.074 45.0168 103.017C43.3568 102.945 42.2408 104.191 42.2408 104.191C42.2408 104.191 41.6678 101.686 41.6678 101.042C41.6678 100.412 43.5568 100.985 43.5568 100.985C43.5568 100.985 43.9858 99.0811 46.2758 98.5091C48.5518 97.9361 49.6818 100.155 49.6818 100.155C50.6418 101.285 49.6829 103.847 48.8809 103.475Z" fill="white"/>
<path opacity="0.8" d="M12.9728 95.1308L15.7488 96.3758C16.1348 95.9748 16.7648 92.9117 15.9208 92.5397C15.0768 92.1677 13.9888 92.6828 13.9888 92.6828C14.3888 94.0718 12.9728 95.1448 12.9728 95.1308Z" fill="white"/>
<path opacity="0.8" d="M50.8988 103.733L53.2318 104.907C54.1618 104.191 54.6768 101.544 53.8468 101.143C52.5878 100.528 51.5568 101.558 51.5568 101.558C51.9578 102.945 50.8988 103.733 50.8988 103.733Z" fill="white"/>
<path opacity="0.8" d="M76.8748 103.861C76.7888 104.992 79.0218 104.491 79.0218 104.491C78.9788 105.078 79.5948 105.822 80.9258 106.108C82.2568 106.394 82.9728 104.906 82.9728 104.906C83.4448 105.149 84.3468 104.82 85.3058 104.19C86.2648 103.56 84.5188 102.387 84.5188 102.387C82.9018 101.958 82.7008 103.561 82.7008 103.561C81.4558 102.688 79.7958 103.361 79.7958 103.361C79.0088 101.744 77.8928 102.016 77.8928 102.016C77.8928 102.016 76.9608 102.731 76.8748 103.861Z" fill="white"/>
<path opacity="0.8" d="M101.621 105.894C101.879 106.996 104.054 105.751 104.054 105.751C104.183 106.309 105.056 106.81 106.544 106.624C108.033 106.438 108.304 104.778 108.304 104.778C108.877 104.835 109.721 104.22 110.522 103.29C111.323 102.36 109.134 101.844 109.134 101.844C107.316 102.001 107.603 103.59 107.603 103.59C106.029 103.189 104.512 104.392 104.512 104.392C103.181 103.147 102.108 103.777 102.108 103.777C102.108 103.777 101.363 104.792 101.621 105.894Z" fill="white"/>
<path opacity="0.5" d="M9.83783 98.9238C14.0598 101.457 17.1939 100.284 17.3369 100.212C17.4799 100.155 19.0258 98.6949 14.2888 95.7179C9.55182 92.7409 7.59082 94.1578 7.59082 94.1578C5.85982 94.9448 5.61583 96.3908 9.83783 98.9238Z" fill="url(#paint0_linear)"/>
<path opacity="0.5" d="M47.0918 108.584C52.1578 110.716 55.3358 108.799 55.4928 108.699C55.6498 108.584 57.0528 106.652 51.3278 104.091C45.6028 101.529 43.7428 103.504 43.7428 103.504C42.0118 104.72 42.0258 106.452 47.0918 108.584Z" fill="url(#paint1_linear)"/>
<path d="M16.3358 88.3188C16.6508 87.8748 19.7568 87.6458 20.2288 88.0328C20.7158 88.4188 23.6928 89.6218 24.4078 90.8948C25.1088 92.1688 24.7658 94.0717 24.7658 94.2007C24.7658 94.3297 29.1168 92.3688 29.1168 92.3688C28.9598 90.5228 27.5858 87.3458 25.0378 85.6708C22.4908 83.9968 18.9128 85.2988 18.9128 85.2988L16.3358 88.3188Z" fill="#F38BB5"/>
<path d="M16.0208 88.3762C18.0098 87.7752 18.9978 87.8612 18.9978 87.8612C20.7148 86.1442 23.8348 85.0992 23.8348 85.0992C23.2048 84.8562 19.5988 85.0992 19.5988 85.0992L16.0208 88.3762Z" fill="#F6ADBB"/>
<path d="M14.5328 90.2357C16.4368 90.2927 17.2238 90.1927 18.5118 90.5217C19.7998 90.8657 21.1739 91.9817 21.7039 93.3127C22.2339 94.6437 21.5609 95.2587 21.5609 95.2587L24.7668 94.2137C24.9818 92.9967 24.4089 90.9077 23.4929 89.9627C22.5769 89.0037 20.5158 88.2307 18.9988 87.8587C17.4818 87.4867 16.0219 88.3737 16.0219 88.3737L14.5328 90.2357Z" fill="#E9D757"/>
<path d="M16.0068 88.362L14.5468 90.2231L16.9799 90.066C17.6669 88.764 18.9978 87.862 18.9978 87.862C18.3968 87.832 16.0208 88.376 16.0068 88.362Z" fill="#F7E8AD"/>
<path d="M21.7308 93.6138L21.5739 95.2598C21.5739 95.2598 24.6508 94.7877 24.8088 93.9147C24.9658 93.0417 24.3939 91.5107 24.3939 91.5107C23.6639 92.2687 21.7308 93.6138 21.7308 93.6138Z" fill="#DFB24B"/>
<path d="M24.3928 91.525C24.5498 91.911 24.7648 94.2159 24.7648 94.2159L29.1158 92.37C29.2018 91.74 28.1998 89.1069 28.1998 89.1069C26.7688 89.8069 24.3928 91.51 24.3928 91.525Z" fill="#E470A8"/>
<path d="M50.5128 92.87V95.99C50.5128 95.99 53.1178 94.015 56.1658 95.26C59.1998 96.491 60.1588 100.298 60.1588 100.298L63.3358 97.479C63.3358 97.479 62.6489 95.4469 62.0189 94.5449C61.3889 93.6429 58.1118 92.1409 56.1508 91.6539C54.1898 91.1669 50.4978 92.871 50.4978 92.871H50.5128V92.87Z" fill="#F38BB5"/>
<path d="M50.7849 92.7408C50.7849 92.7408 50.8568 95.5029 50.8998 95.7179C50.9568 95.9329 53.1898 94.6449 53.1898 94.6449C53.5478 93.8579 53.1898 91.6538 53.1898 91.6538L50.7849 92.7408Z" fill="#F6ADBB"/>
<path d="M63.3358 97.4778L60.1588 100.297L59.9008 98.6227C60.9168 97.4637 61.9619 95.2598 61.9619 95.2598L63.3358 97.4778Z" fill="#E470A8"/>
<path d="M58.2408 102.731C58.2408 102.731 58.1118 99.597 54.8488 98.194C51.5858 96.791 50.0828 98.194 50.0828 98.194L50.4978 95.976C50.4978 95.976 52.0868 93.786 56.1508 95.246C60.2148 96.706 60.2158 100.599 60.2158 100.599L58.2408 102.731Z" fill="#E9D757"/>
<path d="M50.5128 95.6033L50.0978 98.2083L52.2589 97.5933C53.0459 96.1763 53.1888 94.6592 53.1888 94.6592L50.5128 95.6033Z" fill="#F7E8AD"/>
<path d="M60.5168 100.598L58.2128 102.445L58.1548 100.813L59.6439 98.9521L60.5168 100.598Z" fill="#DFB24B"/>
<path d="M80.1238 98.2081C78.5498 98.5371 75.5579 98.0791 75.5579 98.0791C78.2059 100.669 79.9368 100.025 81.3398 99.925C82.7428 99.825 84.0308 96.8911 84.0308 96.8911C84.0308 96.8911 81.6838 97.8651 80.1238 98.2081Z" fill="#F38BB5"/>
<path d="M104.512 99.1101C103.51 100.412 100.175 100.827 100.175 100.827L93.9489 99.7111C96.1529 99.5681 99.2868 99.0241 102.178 97.3781C105.055 95.7321 104.654 92.1831 104.654 92.1831C107.532 96.1331 105.499 97.8081 104.512 99.1101Z" fill="#F38BB5"/>
<path d="M80.8109 100.04C79.4229 100.384 77.3188 99.8248 77.3188 99.8248C78.6208 101.156 79.8808 101.771 81.9128 101.442C83.9448 101.113 84.0308 97.7778 84.0308 97.7778C84.0308 97.7778 82.1849 99.6818 80.8109 100.04Z" fill="#E9D757"/>
<path d="M104.497 99.0961C102.794 100.756 99.8598 100.813 99.8598 100.813C99.8598 100.813 103.624 102.158 105.685 101.529C107.746 100.9 107.231 98.0941 107.231 98.0941L105.972 94.9741C105.972 94.9741 106.201 97.4351 104.497 99.0961Z" fill="#E9D757"/>
<path d="M94.9938 99.8969L99.8598 100.813L101.563 100.355L97.8278 99.1958L94.9938 99.8969Z" fill="#F6ADBB"/>
<path d="M75.2868 98.0941L77.0468 99.6681L79.5089 100.012C79.0509 99.8691 77.5048 98.2091 77.5048 98.2091L75.5588 98.0801" fill="#F6ADBB"/>
<path d="M77.5908 99.897C79.6228 101.7 80.2388 101.486 80.2388 101.486C79.4798 100.828 79.4948 100.298 79.4948 100.298L77.5908 99.897Z" fill="#F7E8AD"/>
<path d="M99.8598 100.813C104.798 102.445 105.041 101.529 105.041 101.529C103.968 101.457 102.078 100.527 102.078 100.527C101.277 100.684 99.8598 100.813 99.8598 100.813Z" fill="#F7E8AD"/>
<path d="M105.027 98.7521C104.726 98.4511 103.338 96.4331 103.338 96.4331C104.082 95.8611 104.655 92.1821 104.655 92.1821C107.288 95.9331 105.041 98.7521 105.027 98.7521Z" fill="#E470A8"/>
<path d="M106.315 95.274C108.347 97.864 106.888 100.498 106.888 100.498C106.015 99.811 105.042 98.752 105.042 98.752C105.8 97.722 106.301 95.26 106.315 95.274Z" fill="#DFB24B"/>
<path d="M82.6998 98.7521C82.8148 98.0511 82.2708 97.5641 82.2708 97.5641C83.2578 97.2351 84.0308 96.4331 84.0308 96.4331C84.1888 98.2081 82.6858 98.7521 82.6998 98.7521Z" fill="#E470A8"/>
<path d="M84.0168 97.7788C83.8448 100.484 82.2568 101.343 82.2568 101.343C82.8868 101.014 82.6859 99.3248 82.6859 99.3248C83.2869 99.2668 84.0308 97.7788 84.0168 97.7788Z" fill="#DFB24B"/>
<path d="M13.3159 91.5392L13.9738 92.7133C15.1048 92.1123 15.9058 92.4842 16.7648 93.7012C17.6238 94.9182 16.1068 97.0642 16.1068 97.0642C18.9838 98.6102 17.3378 100.241 17.3378 100.241C17.3378 100.241 17.3378 100.241 18.1818 99.7112C19.0408 99.1812 19.3128 96.3912 19.3128 96.3912L21.5598 95.2603C22.2608 93.0563 21.1448 92.3262 19.3128 90.9092C17.4808 89.4922 14.5468 90.2222 14.5468 90.2222L13.3159 91.5392Z" fill="#A8D15D"/>
<path d="M13.3298 91.911L13.7158 92.641L14.6608 92.255C15.7338 91.525 16.9799 90.065 16.9799 90.065C16.1359 89.922 14.5468 90.652 14.5468 90.652L13.3298 91.911Z" fill="#C8E1A1"/>
<path d="M21.5598 95.6752L19.3128 96.8922C19.3418 98.1372 17.6528 99.7692 17.6528 99.7692L17.2088 97.6942C18.2818 97.2502 18.0958 95.3752 18.0958 95.3752C20.1138 94.6452 21.7308 93.6152 21.7308 93.6152C22.0318 94.3442 21.5738 95.6752 21.5598 95.6752Z" fill="#93C540"/>
<path d="M49.5828 99.3239L51.5579 101.557C51.5579 101.557 52.8168 100.068 53.8478 101.142C55.7228 103.103 53.8188 105.436 53.8188 105.436C56.3088 106.996 55.4929 108.685 55.4929 108.685C57.3389 107.182 56.9099 104.52 56.9099 104.52L58.1978 102.13C58.1978 102.13 57.6108 99.5679 54.8488 98.2089C52.0868 96.8489 50.0828 98.2089 50.0828 98.2089L49.5828 99.3239Z" fill="#A8D15D"/>
<path d="M50.0828 98.2078L49.4388 99.7677L50.8988 100.498C51.8148 98.7517 52.2438 97.5928 52.2438 97.5928L50.0828 98.2078Z" fill="#C8E1A1"/>
<path d="M58.2408 102.745L56.9099 104.534C57.1819 106.652 55.4929 108.699 55.4929 108.699L55.1348 106.366C56.2508 104.935 55.7498 103.346 55.7498 103.346C56.7798 102.716 57.5958 101.042 57.5958 101.042C58.3558 101.944 58.2408 102.745 58.2408 102.745Z" fill="#93C540"/>
<path d="M83.8168 100.04C84.6178 100.899 84.5178 102.387 84.5178 102.387C82.9008 101.958 82.6998 103.561 82.6998 103.561C80.5098 102.674 79.7949 103.361 79.7949 103.361C79.0649 101.858 77.8918 102.016 77.8918 102.016L78.5068 101.043C82.1418 102.559 83.8168 100.04 83.8168 100.04Z" fill="#A8D15D"/>
<path d="M109.507 101.958C107.332 101.457 107.603 103.59 107.603 103.59C105.814 103.189 104.512 104.392 104.512 104.392C103.324 103.004 102.108 103.777 102.108 103.777L102.409 101.702C103.096 101.702 103.84 101.774 105.686 101.53C107.532 101.287 107.232 98.0947 107.232 98.0947C108.991 98.8517 109.507 101.958 109.507 101.958Z" fill="#A8D15D"/>
<path d="M9.7088 47.1292C9.7378 50.5641 11.8408 63.4731 11.8408 63.4731C13.3008 61.2401 22.4028 54.6711 22.4028 54.6711C22.4028 54.6711 20.5708 52.1811 18.3958 49.8191C16.0488 47.2571 9.25085 35.9941 9.25085 35.9941C9.25085 39.0861 9.6808 43.6942 9.7088 47.1292Z" fill="url(#paint2_linear)"/>
<path d="M5.4588 54.6711L12.0568 63.2871C10.1528 58.4211 8.86481 35.9941 8.86481 35.9941C6.10281 40.9461 5.4588 54.6711 5.4588 54.6711Z" fill="url(#paint3_linear)"/>
<path d="M17.3379 48.446L19.0838 50.9791L25.2519 45.7411C22.2039 41.9051 17.4948 31.5581 17.4948 31.5581C15.1338 37.6831 17.3379 48.446 17.3379 48.446Z" fill="url(#paint4_linear)"/>
<path d="M13.4448 42.7211L17.3378 48.4312C16.1498 41.5612 17.0948 30.8701 17.0948 30.8701C15.4768 32.7171 13.4448 42.7351 13.4448 42.7211Z" fill="url(#paint5_linear)"/>
<path opacity="0.5" d="M32.6228 4.0931C31.8358 3.9211 30.6338 6.02507 29.1448 6.64107C27.6568 7.25607 26.8548 6.97001 26.2828 8.83101C25.7098 10.692 31.0628 19.508 31.0628 19.508C31.0628 19.508 26.7268 15.615 25.1948 13.712C23.6628 11.809 23.2198 6.28407 23.4778 5.74007C23.7358 5.18207 31.6208 1.661 32.6658 1.446C33.7108 1.231 34.5118 4.93808 34.2548 5.39608C34.2538 5.39508 33.3958 4.2501 32.6228 4.0931Z" fill="white"/>
<path opacity="0.5" d="M36.2008 16.9309C36.2008 16.9309 39.0919 15.3418 41.2819 14.8698C43.4719 14.3978 46.9348 14.6118 46.9348 14.6118L47.3068 13.3668C47.3068 13.3668 44.4728 12.9948 41.8398 12.9378C39.2068 12.8808 35.8288 14.1968 35.5428 14.3408L36.2008 16.9309Z" fill="white"/>
<path opacity="0.5" d="M28.8449 17.5322C28.0719 20.5802 23.8789 31.4862 23.3919 32.5022C22.9049 33.5182 24.8228 34.5062 25.5958 35.1642C26.3548 35.8222 27.5278 37.7112 27.5848 38.6282C27.6568 39.5442 26.6688 39.1432 26.6688 39.1432C26.6688 39.1432 27.9998 40.4312 29.4448 36.8822C30.8758 33.3182 28.6289 32.2453 27.8709 31.3583C27.1129 30.4713 28.0858 28.6392 28.4718 26.5062C28.8578 24.3732 30.7329 19.7792 30.7329 19.7792L28.8449 17.5322Z" fill="white"/>
<path opacity="0.5" d="M2.49583 49.1897C1.19383 49.2327 0.405823 50.7928 1.63682 53.4838C2.86782 56.1748 5.98779 71.1877 6.33079 73.8777C6.68879 76.5687 4.75681 80.1037 8.77781 80.3177C12.7988 80.5317 20.9718 81.3627 17.8948 80.6327C14.6318 79.8597 12.9138 79.3587 11.3538 78.3717C9.7938 77.3847 8.8208 71.3018 11.3538 71.7028C13.8868 72.1038 16.4488 73.2767 20.9718 71.9457C25.4948 70.6147 23.0468 70.4147 20.9718 70.8297C18.8968 71.2307 14.0308 71.1157 12.2988 70.7297C10.5528 70.3437 7.50479 67.6817 10.5238 68.2827C14.8178 69.1417 17.5648 68.8837 20.4278 68.3547C23.2898 67.8247 27.4978 65.2777 22.8468 66.3657C18.1958 67.4677 11.8408 66.9527 10.5668 66.7377C9.29282 66.5227 8.76384 64.6767 8.82084 63.8607C8.87784 63.0447 7.3328 57.5637 7.1038 57.0907C6.8748 56.6177 5.61581 55.0298 5.45781 54.6868C5.30081 54.3288 5.25781 54.9017 5.45781 53.5707C5.65781 52.2397 5.45781 48.7188 5.45781 48.7188C5.45781 48.7188 3.79883 49.1177 2.49583 49.1897Z" fill="white"/>
<path opacity="0.5" d="M33.7388 71.1008C33.4238 70.0708 35.9718 61.8979 39.9648 59.9949C43.9578 58.0919 47.0638 61.4688 47.1638 62.6568C47.2638 63.8588 45.7898 63.0428 42.3978 63.7158C39.0058 64.3888 35.2708 71.1008 35.2708 71.1008C34.9988 71.6878 34.0678 72.1318 33.7388 71.1008Z" fill="white"/>
<path opacity="0.5" d="M24.0789 44.1381C26.9699 43.4371 30.2898 44.0091 32.1368 44.4671C34.7988 45.1251 37.6178 45.9561 36.6738 44.5241C35.5578 42.8351 33.0388 41.6901 27.2138 40.6741C22.9348 39.9301 22.2758 40.2161 22.2758 40.2161L24.0789 44.1381Z" fill="white"/>
<path opacity="0.5" d="M60.0878 23.5856C60.0878 23.5856 66.0268 19.5927 67.6158 19.9077C69.2048 20.2227 76.3029 29.5537 76.3029 29.5537C74.2419 24.4157 68.6028 16.9166 66.7278 15.8716C64.8528 14.8266 57.9978 18.8196 57.9978 18.8196L60.0878 23.5856Z" fill="white"/>
<path opacity="0.5" d="M83.6018 42.7208C84.5608 43.1498 86.5218 41.3898 87.8378 40.6888C89.1538 39.9878 90.5858 41.0178 92.1748 42.0338C93.7638 43.0498 95.4669 49.1609 95.4669 49.1609C95.4669 49.1609 92.3758 44.9528 90.7868 44.6378C89.1978 44.3228 84.5038 49.0889 83.4308 46.9279C82.3578 44.7669 80.2388 38.5269 80.2388 38.5269C80.2388 38.5269 82.6718 42.3058 83.6018 42.7208Z" fill="white"/>
<path opacity="0.5" d="M20.4288 84.97L22.2318 84.641C21.6018 82.881 22.6179 81.106 22.6179 81.106L19.3118 80.6909C19.3128 81.8349 20.4288 84.97 20.4288 84.97Z" fill="white"/>
<path opacity="0.5" d="M48.6948 5.18114C50.1828 1.98914 51.8008 1.73215 52.5308 1.66015C53.2608 1.58815 55.0209 3.53507 55.8939 4.17907C56.7669 4.82307 58.4988 5.51006 59.0278 6.44006C59.5578 7.37006 58.4838 8.67309 58.4838 8.67309C58.4548 7.34209 58.2979 7.22808 57.6969 6.51208C57.1099 5.79608 54.4199 5.15207 53.1889 4.35107C51.9579 3.54907 51.9439 4.32204 51.6579 4.85204C51.3719 5.38204 51.6579 11.5791 51.6579 11.5791C50.7989 10.8781 50.6849 7.84404 49.8549 8.77404C49.0249 9.70404 47.3788 16.5171 47.3648 16.6031C47.3638 16.6011 47.2068 8.37214 48.6948 5.18114Z" fill="white"/>
<path opacity="0.5" d="M55.1358 84.0249C52.4448 87.8889 53.2328 92.0538 53.2328 92.0538L50.5998 93.1128C50.5998 93.1128 50.2558 89.4349 50.7858 87.9749C51.3158 86.5149 52.0738 84.9698 52.0738 84.9698L55.1358 84.0249Z" fill="white"/>
<path opacity="0.5" d="M88.2958 97.7788C89.2548 98.7238 93.3768 99.6539 94.4788 99.9109C95.5948 100.169 98.2858 98.9658 98.2858 98.9658C98.2858 98.9658 95.9958 99.1659 92.7188 98.0359C89.4418 96.8909 88.6538 94.4438 88.6538 94.4438C86.7218 95.1308 85.3048 94.8589 85.3048 94.8589C85.3048 94.8589 87.3368 96.8338 88.2958 97.7788Z" fill="white"/>
<path opacity="0.5" d="M70.8068 93.772C70.8068 93.772 72.2669 95.733 73.8549 97.006C75.4439 98.266 77.8908 98.208 77.8908 98.208C75.1568 96.805 73.8549 94.4299 73.8549 94.4299L70.8068 93.772Z" fill="white"/>
<path opacity="0.5" d="M5.94482 44.3241C5.24382 47.9741 5.45782 54.6721 5.45782 54.6721C6.07282 50.3211 7.03182 48.003 7.50482 46.686C8.29182 44.511 9.25085 43.1082 9.25085 43.1082L8.90783 36.4961C8.90783 36.4951 6.64682 40.6741 5.94482 44.3241Z" fill="white"/>
<path opacity="0.5" d="M12.9728 42.735L14.0609 44.2379C14.8199 42.5349 16.5659 39.902 16.5659 39.902L16.9808 32.7319C14.6898 35.5079 12.9728 42.735 12.9728 42.735Z" fill="white"/>
<path d="M47.5068 40.2158C47.7648 40.8168 47.8219 42.5198 47.3209 43.9508C46.8059 45.3818 45.1598 45.3679 44.3008 45.5249C43.4418 45.6819 41.6248 45.0238 41.6248 45.0238C42.4408 45.8538 43.0698 46.4979 44.8168 47.4999C46.5628 48.5019 49.1388 48.4299 49.7398 48.4019C50.3408 48.3729 51.6718 46.5699 52.1158 45.5829C52.5598 44.5959 52.1448 41.7758 51.5148 40.1018C50.8848 38.4278 48.0659 37.0249 48.0659 37.0249L46.3198 37.6259C46.3188 37.6259 47.2638 39.6288 47.5068 40.2158Z" fill="white"/>
<path d="M50.8709 44.181C50.4559 46.643 48.2949 46.958 46.8209 47.172C45.9619 47.287 43.0859 46.514 44.8319 47.516C46.5779 48.518 49.1538 48.446 49.7548 48.418C50.3558 48.389 51.6869 46.586 52.1309 45.599C52.5749 44.612 52.1739 41.7919 51.5299 40.1179C50.8859 38.4439 49.0968 37.6279 49.0968 37.6279C49.0968 37.6279 51.2999 41.533 50.8709 44.181Z" fill="#E5E3DA"/>
<path d="M39.6499 40.8029C39.5499 41.2319 39.9938 42.7639 40.4368 43.4939C40.8808 44.2239 42.1398 45.2108 43.2988 45.4978C44.4578 45.7838 45.9318 45.2258 46.8338 44.7108C47.7358 44.1958 47.8069 40.9328 47.5069 40.2308C47.2209 39.5298 46.0899 37.4829 46.0899 37.4829L40.0929 39.7008C39.6639 39.8578 39.7649 40.3739 39.6499 40.8029Z" fill="#4C6080"/>
<path d="M42.6699 43.293C43.6342 43.293 44.4158 42.2484 44.4158 40.96C44.4158 39.6715 43.6342 38.627 42.6699 38.627C41.7056 38.627 40.9238 39.6715 40.9238 40.96C40.9238 42.2484 41.7056 43.293 42.6699 43.293Z" fill="#60AFBA"/>
<path d="M42.3978 42.4922C42.9987 42.4922 43.4858 41.7553 43.4858 40.8462C43.4858 39.9371 42.9987 39.2002 42.3978 39.2002C41.7969 39.2002 41.3098 39.9371 41.3098 40.8462C41.3098 41.7553 41.7969 42.4922 42.3978 42.4922Z" fill="white"/>
<path d="M39.5068 39.887C40.1798 40.016 41.8398 39.157 44.8018 38.17C47.7638 37.183 51.3278 35.9091 52.8018 35.7661C54.2758 35.6231 57.1959 36.4961 57.1959 36.4961C56.2659 34.7211 52.7308 31.6301 51.9288 31.3581C51.1278 31.0861 48.2649 32.288 46.6339 33.09C43.3419 34.693 38.8769 36.496 37.8889 36.668C35.8429 37.025 38.8488 39.787 39.5068 39.887Z" fill="url(#paint6_linear)"/>
<path d="M27.2698 39.0281C27.1128 40.0581 24.5789 39.915 24.5789 39.915C24.5789 39.915 22.0598 40.2301 23.3198 39.3711C24.5788 38.5121 25.8388 35.6641 25.8388 35.6641C26.8838 36.2231 27.4418 37.9981 27.2698 39.0281Z" fill="url(#paint7_linear)"/>
<path d="M43.1278 66.3641C43.4138 66.0781 45.8469 65.9351 46.4199 66.0781C46.9919 66.2211 45.6038 67.738 44.4158 68.84C43.2278 69.942 38.4188 71.717 38.4188 71.717C38.4188 71.717 42.8418 66.6501 43.1278 66.3641Z" fill="url(#paint8_linear)"/>
<path d="M100.018 39.5582L112.899 27.4792L106.931 8.6582L92.4608 22.1553L96.9258 38.4423L100.018 39.5582Z" fill="white"/>
<path opacity="0.6" d="M88.3538 20.7377L88.2249 21.0957C85.3049 20.7667 82.8148 19.0778 82.8148 19.0778L82.9438 18.7197C85.7918 18.8907 88.3678 20.7227 88.3538 20.7377Z" fill="#ED738D"/>
<path opacity="0.6" d="M89.8848 17.131L89.6699 17.4459C86.8939 16.4729 84.8608 14.254 84.8608 14.254L85.0758 13.939C87.8098 14.755 89.8988 17.131 89.8848 17.131Z" fill="#ED738D"/>
<path opacity="0.6" d="M92.4608 13.3959L92.2178 13.6819C89.6848 12.4369 88.0529 10.0608 88.0529 10.0608L88.2958 9.7749C90.8008 10.8769 92.4608 13.4099 92.4608 13.3959Z" fill="#ED738D"/>
<path opacity="0.6" d="M95.7668 9.86084L95.4948 10.1189C93.2338 8.7019 92.0168 6.28284 92.0168 6.28284L92.2888 6.0249C94.5358 7.2839 95.7528 9.86084 95.7668 9.86084Z" fill="#ED738D"/>
<path opacity="0.6" d="M99.3448 7.42798L99.0158 7.61401C97.1268 5.73901 96.4688 3.10596 96.4688 3.10596L96.7979 2.91992C98.7299 4.63692 99.3448 7.42798 99.3448 7.42798Z" fill="#ED738D"/>
<path opacity="0.6" d="M102.794 5.48071L102.436 5.5957C101.034 3.5207 101.005 0.95874 101.005 0.95874L101.363 0.84375C102.837 2.78975 102.794 5.48071 102.794 5.48071Z" fill="#ED738D"/>
<path opacity="0.6" d="M106.444 4.46497H106.072C105.313 2.27497 106 0 106 0H106.372C107.231 2.104 106.444 4.46497 106.444 4.46497Z" fill="#ED738D"/>
<path opacity="0.6" d="M109.721 5.35193L109.377 5.20898C109.563 2.89098 111.095 1.08691 111.095 1.08691L111.438 1.22998C111.396 3.49198 109.721 5.35193 109.721 5.35193Z" fill="#ED738D"/>
<path opacity="0.6" d="M88.0529 24.8451L88.0388 25.2171C85.1618 25.8611 82.2568 25.0601 82.2568 25.0601L82.2708 24.6882C85.0188 23.9292 88.0529 24.8451 88.0529 24.8451Z" fill="#ED738D"/>
<path opacity="0.6" d="M89.4128 29.139L89.4988 29.511C86.8798 30.856 83.8738 30.813 83.8738 30.813L83.7878 30.441C86.2638 29.024 89.4268 29.139 89.4128 29.139Z" fill="#ED738D"/>
<path opacity="0.6" d="M115.174 31.271L115.045 31.629C117.464 33.303 120.455 33.661 120.455 33.661L120.584 33.303C118.323 31.572 115.174 31.271 115.174 31.271Z" fill="#ED738D"/>
<path opacity="0.6" d="M116.391 27.5639L116.348 27.9359C119.082 29.0239 122.073 28.6799 122.073 28.6799L122.116 28.3079C119.511 27.1349 116.376 27.5499 116.391 27.5639Z" fill="#ED738D"/>
<path opacity="0.6" d="M116.892 23.0559V23.4278C119.626 24.1578 122.416 23.4278 122.416 23.4278V23.0559C119.811 22.2259 116.892 23.0559 116.892 23.0559Z" fill="#ED738D"/>
<path opacity="0.6" d="M116.734 18.2189L116.777 18.5909C119.396 19.0059 121.915 17.9759 121.915 17.9759L121.872 17.6039C119.353 17.0739 116.734 18.2189 116.734 18.2189Z" fill="#ED738D"/>
<path opacity="0.6" d="M115.632 14.011L115.761 14.369C118.409 14.212 120.641 12.652 120.641 12.652L120.512 12.2939C117.922 12.3219 115.632 14.011 115.632 14.011Z" fill="#ED738D"/>
<path opacity="0.6" d="M114.301 10.2902L114.501 10.6052C116.92 9.96122 118.623 8.05823 118.623 8.05823L118.423 7.74316C116.047 8.24316 114.301 10.2902 114.301 10.2902Z" fill="#ED738D"/>
<path opacity="0.6" d="M112.541 7.17004L112.827 7.41309C114.831 6.25409 115.804 4.09314 115.804 4.09314L115.518 3.8501C113.5 4.8801 112.541 7.18404 112.541 7.17004Z" fill="#ED738D"/>
<path opacity="0.6" d="M112.713 34.5919L112.47 34.8779C114.216 37.2389 116.935 38.542 116.935 38.542L117.178 38.256C115.589 35.88 112.713 34.5769 112.713 34.5919Z" fill="#ED738D"/>
<path opacity="0.6" d="M108.863 36.9102L108.562 37.1251C109.65 39.8591 111.954 41.8051 111.954 41.8051L112.255 41.5901C111.324 38.9001 108.863 36.9242 108.863 36.9102Z" fill="#ED738D"/>
<path d="M111.167 27.2931L99.4168 38.8571L97.7419 38.2131L95.0798 22.6271L106.401 11.0771L111.167 27.2931Z" fill="url(#paint9_linear)"/>
<path opacity="0.3" d="M95.0798 22.627L95.2228 23.614L100.476 30.298L101.435 30.684L110.866 27.6069L111.167 27.293L110.995 26.749L103.954 19.3779L95.2949 22.412L95.0798 22.627Z" fill="#ED738D"/>
<path opacity="0.6" d="M101.12 31.5148L100.261 31.2137L95.3378 24.3867L97.7419 38.2128L99.4168 38.8567L110.408 28.0647L101.12 31.5148Z" fill="#F06AA7"/>
<path d="M71.6088 114.023C72.9108 110.402 75.3018 109.915 77.4628 110.445C79.6238 110.975 77.4628 114.982 77.4628 114.982C80.3248 114.395 82.6299 115.583 83.0449 117.859C83.4599 120.135 79.2518 120.521 79.2518 120.521C80.6118 122.797 78.8368 124.371 78.8368 124.371C77.5058 125.387 74.9868 122.997 74.9868 122.997C74.9868 122.997 73.3268 124.672 71.7098 124.328C70.1068 123.97 71.1948 118.832 71.1948 118.832C67.0728 118.202 67.0438 117.63 67.0438 117.63C65.8418 117.086 66.4568 115.254 66.4568 115.254C64.2098 114.724 65.1978 113.036 65.1978 113.036C69.9338 113.851 71.6368 114.009 71.6088 114.023Z" fill="white"/>
<path d="M78.8928 111.919C79.5228 113.694 77.8629 114.953 77.8629 114.953C77.8629 114.953 78.2488 114.867 80.2958 114.896C82.3428 114.925 83.4449 116.914 83.0009 118.345C82.5569 119.776 79.8239 120.392 79.8239 120.392C79.8239 120.392 80.2958 123.326 78.8648 124.342C77.4338 125.358 75.3728 122.968 75.3728 122.968C75.3728 122.968 73.7698 124.099 72.0808 123.784C70.3918 123.469 71.0928 119.905 71.0928 119.905C71.0928 119.905 71.2358 122.524 72.8248 122.767C74.4278 123.01 74.9578 120.391 74.9578 120.391C74.9578 120.391 77.2188 122.724 78.3068 121.822C79.3948 120.906 77.4048 118.817 77.4048 118.817C78.9218 119.533 81.4268 119.003 81.5838 116.828C81.7558 114.309 76.5458 115.612 76.5458 115.612C80.5388 111.046 75.5869 110.374 75.5869 110.374C75.5869 110.374 78.2638 110.144 78.8928 111.919Z" fill="#9CCBD5"/>
<path d="M113.457 95.1601C112.126 96.4341 114.573 96.591 114.573 96.591C113.843 97.994 115.947 97.9081 116.734 97.9941C117.521 98.0801 121.557 95.6611 121.557 95.6611C121.557 95.6611 125.436 98.5811 127.396 96.9061C129.371 95.2321 126.48 92.5841 126.48 92.5841C126.48 92.5841 131.389 93.4571 130.516 89.6361C129.643 85.8151 125.693 87.9901 125.693 87.9901C125.693 87.9901 127.439 83.9831 123.375 83.6101C119.311 83.2371 120.327 88.1471 120.327 88.1471C120.327 88.1471 118.023 85.041 115.833 87.045C113.643 89.049 117.135 92.4121 117.135 92.4121C117.135 92.4121 114.487 94.2151 113.457 95.1601Z" fill="white"/>
<path d="M132.993 100.827C131.147 102.058 132.836 102.773 132.836 102.773C131.734 103.918 131.748 104.533 133.308 104.762C134.081 104.862 139.92 103.445 139.92 103.445C139.92 103.445 142.696 107.982 145.072 106.951C147.448 105.921 146.188 102.171 146.188 102.171C146.188 102.171 148.75 102.142 149.079 99.7668C149.609 95.8738 144.828 97.6628 144.828 97.6628C144.828 97.6628 148.921 94.5718 145.143 93.0258C141.365 91.4798 140.907 96.2748 140.907 96.2748C140.907 96.2748 140.048 92.8537 137.372 94.1277C134.696 95.4017 136.628 99.0368 136.628 99.0368C136.628 99.0368 134.138 100.054 132.993 100.827Z" fill="white"/>
<path d="M142.524 93.1698C144.385 92.7118 145.988 92.5689 146.66 93.9139C147.447 95.5029 144.814 97.6639 144.814 97.6639C144.814 97.6639 149.279 97.1628 149.079 98.9088C148.807 101.471 145.615 102.387 145.615 102.387C145.615 102.387 148.019 105.593 144.27 106.852C142.653 107.396 140.577 104.39 140.577 104.39C140.577 104.39 142.638 105.878 144.155 105.335C145.672 104.792 144.026 101.528 144.026 101.528C144.026 101.528 147.647 101.17 147.518 99.7528C147.332 97.5778 142.409 98.6369 142.409 98.6369C144.084 98.5509 145.643 95.8179 145.357 94.4439C144.843 91.9829 140.535 93.6428 142.524 93.1698Z" fill="#9CCBD5"/>
<path d="M125.894 95.274C127.096 93.657 124.377 91.7961 124.377 91.7961C124.377 91.7961 128.613 92.2251 128.542 89.7491C128.47 87.2731 123.762 89.5631 123.762 89.5631C126.61 85.4121 123.29 83.9102 123.29 83.9102C127.025 84.0392 125.709 88.0031 125.709 88.0031C125.709 88.0031 129.602 85.642 130.346 89.363C131.133 93.299 126.496 92.597 126.496 92.597C126.496 92.597 128.886 95.1731 127.412 96.9191C125.938 98.6651 121.573 95.6741 121.573 95.6741C121.573 95.6741 124.706 96.892 125.894 95.274Z" fill="#9CCBD5"/>
<path d="M74.3988 114.395C73.8118 114.152 72.5808 113.851 71.3788 113.679C67.1428 113.064 63.9938 112.491 63.9938 112.491L63.9648 112.806C64.1798 112.892 70.1048 114.538 74.2268 114.681L74.3988 114.395Z" fill="#928E78"/>
<path d="M74.2559 116.585V116.299C73.7549 116.127 72.9388 115.998 72.2808 115.941C69.1898 115.669 65.6689 114.982 65.6259 114.968V115.354C65.7979 115.411 69.0899 116.385 72.2949 116.671C73.4409 116.771 74.2559 116.585 74.2559 116.585Z" fill="#928E78"/>
<path d="M74.2559 119.261L74.2698 118.946C73.7548 118.789 73.0108 118.574 72.0948 118.459C69.0178 118.101 66.2558 117.242 66.2268 117.228V117.543C66.3418 117.6 68.7318 118.731 71.8658 119.16C73.1688 119.347 74.1279 119.275 74.2559 119.261Z" fill="#928E78"/>
<path d="M78.5358 124.728C79.2088 124.542 79.7098 124.155 80.0238 123.569C80.5388 122.624 80.1388 121.25 79.9948 120.592C80.6528 120.463 81.9269 120.392 82.6709 119.49C83.1859 118.875 83.4008 118.116 83.3148 117.243C83.2288 116.47 82.8998 115.84 82.3128 115.368C81.2538 114.509 79.4789 114.681 78.5349 114.695C78.7779 114.051 79.3788 113.035 79.0648 112.09C78.7928 111.26 78.3208 110.616 77.3618 110.215C76.2458 109.728 75.2149 109.714 74.2849 110.143C72.5389 110.959 72.1948 113.005 72.1668 113.091L72.5388 113.206C72.5528 113.192 73.1399 111.331 74.5429 110.673C75.2439 110.358 76.0308 110.387 76.9188 110.759C77.6348 111.074 78.1069 111.518 78.2929 112.09C78.6789 113.264 77.9069 114.637 77.8919 114.652L77.4628 115.396L78.3219 115.296C78.3359 115.296 80.8119 115.024 82.0719 116.04C82.4869 116.369 82.7019 116.784 82.7589 117.328C82.8589 118.358 82.4298 119.103 81.4418 119.618C80.6548 120.033 79.8248 120.119 79.8098 120.119L79.2799 120.176L79.4368 120.677C79.4368 120.691 79.9379 122.309 79.3939 123.325C79.1939 123.697 78.8788 123.94 78.4348 124.069C77.7768 124.255 77.1329 124.083 76.5169 123.554C76.0159 123.125 75.7299 122.624 75.7299 122.624L75.3858 122.009L74.9998 122.596C74.9568 122.653 73.9979 124.07 72.2379 123.627C70.8499 123.269 71.0639 119.992 71.0789 119.92L70.8928 119.891C70.7638 120.821 70.3628 123.741 72.0808 124.17C73.5838 124.556 74.6858 123.755 75.3298 123.125C75.8598 123.812 76.6609 124.857 77.8059 124.857C78.0489 124.857 78.2918 124.814 78.5358 124.728Z" fill="#928E78"/>
<path d="M117.879 92.24C118.58 91.61 118.995 91.152 119.038 91.109L118.795 90.751C118.781 90.751 118.18 90.9229 117.578 91.4669C116.619 92.3259 115.188 94.1289 113.356 94.9879L113.571 95.26C115.432 94.387 116.863 93.142 117.879 92.24Z" fill="#928E78"/>
<path d="M119.453 94.4299C120.355 93.7719 120.827 93.2849 120.87 93.2419L120.684 92.9409C120.67 92.9409 119.897 93.156 118.938 93.843C117.736 94.702 115.861 96.0759 113.17 96.9199L113.342 97.2059C116.276 96.2899 118.208 95.3319 119.453 94.4299Z" fill="#928E78"/>
<path d="M121.572 95.7891C122.23 95.3601 122.66 94.9021 122.703 94.8591L122.474 94.6011C122.46 94.6011 121.844 94.6731 121.114 95.1591C119.883 95.9601 117.593 97.5491 115.962 97.9211L116.191 98.2931C118.037 97.8791 120.327 96.6341 121.572 95.7891Z" fill="#928E78"/>
<path d="M127.683 96.8921C129.028 95.4891 128.055 93.8151 127.182 92.9131C128.427 92.9131 129.429 92.6841 130.102 91.9541C130.703 91.3101 130.975 90.4941 130.832 89.4351C130.703 88.4481 130.088 87.7031 129.386 87.3171C128.384 86.7731 126.953 87.131 126.037 87.618C126.423 86.731 126.538 85.2711 125.894 84.3691C125.379 83.6391 124.52 83.2671 123.332 83.2671C122.073 83.2671 121.085 83.6531 120.384 84.3981C119.726 85.0991 119.582 86.4591 119.668 87.1321C118.924 86.4311 117.292 85.844 115.89 86.889C114.03 88.292 115.303 90.2951 116.09 91.3971L116.391 91.1821C116.319 91.0821 114.616 88.6491 116.291 87.4041C117.98 86.1301 119.468 87.6191 119.525 87.6761L120.327 88.5061L120.255 87.347C120.255 87.333 120.183 85.8581 121.085 84.9001C121.615 84.3421 122.402 84.0562 123.403 84.0562C124.29 84.0562 124.92 84.2991 125.264 84.7861C126.023 85.8451 125.35 87.7771 125.35 87.7911L125.006 88.7501L125.936 88.321C126.494 88.063 128.14 87.5341 129.099 88.0631C129.557 88.3211 129.815 88.7931 129.915 89.5081C130.015 90.2951 129.858 90.9391 129.443 91.3831C128.584 92.3281 126.853 92.2701 126.838 92.2701L125.736 92.2271L126.523 93.014C126.609 93.1 128.512 95.0321 126.981 96.6351C125.493 98.1951 122.816 96.1631 122.73 96.0911L122.429 96.2911C122.987 96.8061 124.476 97.7791 125.578 97.7791C126.266 97.7791 127.067 97.5931 127.683 96.8921Z" fill="#928E78"/>
<path d="M137.229 99.0962C138.102 98.5812 138.546 98.1802 138.589 98.1512L138.432 97.8652C138.418 97.8792 137.659 97.9802 136.8 98.4952C135.841 99.0682 134.167 100.198 132.821 100.713L132.964 101.114C134.381 100.57 136.256 99.6972 137.229 99.0962Z" fill="#928E78"/>
<path d="M138.445 101.285C139.332 100.827 139.848 100.326 139.905 100.297L139.719 99.939C139.705 99.939 139.046 100.068 138.145 100.54C136.828 101.227 134.71 102.172 132.177 102.701L132.292 103.102C134.968 102.545 137.1 102.001 138.445 101.285Z" fill="#928E78"/>
<path d="M138.975 103.718C140.363 103.203 141.036 102.63 141.107 102.587L140.849 102.258C140.835 102.272 140.047 102.53 138.674 103.045C137.028 103.66 134.538 104.405 131.504 104.748L131.604 105.177C134.739 104.82 137.286 104.348 138.975 103.718Z" fill="#928E78"/>
<path d="M145.558 106.495C146.245 106.094 146.674 105.536 146.817 104.849C147.003 103.962 146.488 103.246 145.987 102.602C147.518 102.487 149.493 101.443 149.451 99.4103C149.437 98.6513 149.165 98.0792 148.649 97.6642C147.991 97.1492 146.789 96.9633 145.901 97.2493C146.488 96.6483 147.261 95.5322 147.089 94.6442C146.932 93.8142 146.273 93.1702 145.143 92.7262C144.112 92.3252 143.182 92.3253 142.381 92.7403C141.579 93.1413 140.878 93.9563 140.807 94.7293C140.306 93.9423 139.075 93.2982 137.429 93.8422C136.67 94.1002 136.127 94.5583 135.812 95.2023C135.168 96.5333 136.141 97.9503 136.17 98.0213L136.556 97.8063C136.427 97.4203 136.155 96.2463 136.57 95.4023C136.785 94.9583 137.157 94.6583 137.686 94.4863C138.559 94.2003 139.289 94.2573 139.876 94.6723C140.32 94.9873 140.52 95.4023 140.52 95.4023L141.007 96.4903L141.322 95.3312C141.322 95.3172 141.708 93.9282 142.767 93.3992C143.354 93.1132 144.041 93.1273 144.828 93.4283C145.658 93.7433 146.13 94.1723 146.231 94.7023C146.403 95.6323 145.401 96.7922 145 97.1642L143.841 98.2233L145.387 97.8942C145.902 97.7792 147.391 97.6363 148.135 98.2233C148.45 98.4663 148.607 98.8242 148.622 99.3112C148.679 101.515 145.803 102.002 145.688 102.016L145.001 102.131L145.402 102.704C145.416 102.718 146.232 103.878 146.017 104.894C145.917 105.338 145.645 105.696 145.158 105.982C144.414 106.411 143.698 106.54 143.026 106.354C141.738 106.01 140.55 104.222 140.55 104.207L140.249 104.307C140.292 104.379 141.136 106.511 142.768 106.969C143.04 107.041 143.326 107.083 143.612 107.083C144.256 107.082 144.9 106.881 145.558 106.495Z" fill="#928E78"/>
<path d="M54.8639 16.115C54.9499 16 55.9658 16.358 56.0518 16.23C57.4118 14.14 58.8139 11.235 59.6009 9.58903C60.9888 6.69803 59.1288 5.13804 57.7398 4.42204C57.1818 4.13604 56.0938 3.46307 55.0778 2.73307L54.6919 2.46098C54.5489 2.36098 54.3909 2.23203 54.2199 2.08903C53.5329 1.51703 52.2448 0.600981 51.2288 0.814981C50.3988 1.00098 49.6548 1.774 48.9528 3.205C47.7648 5.624 46.6338 10.118 46.3048 13.252C46.2908 13.367 47.0058 13.638 46.9918 13.753C46.8198 15.427 46.8199 16.544 46.8059 16.673L47.3358 16.73C47.3498 16.644 48.2518 8.10002 50.0548 4.40702C50.6278 3.26202 51.1859 2.60405 51.7439 2.48905C52.3589 2.36005 53.0028 2.88998 53.5758 3.36198C53.7618 3.50498 53.9198 3.64798 54.0908 3.76298L54.4768 4.03507C55.5068 4.77907 56.3378 5.37999 56.9528 5.69499C58.0118 6.23899 59.0999 6.79701 57.9549 9.17301C56.6379 11.935 53.5179 17.431 52.1159 19.12L52.5019 19.392C53.0459 18.734 53.9909 17.446 54.8639 16.115Z" fill="#2F4971"/>
<path d="M47.2068 13.9538L47.3358 13.5388L47.2068 13.9538L47.4498 12.3937C47.2348 12.3217 42.0688 10.8048 35.5278 13.3528L35.8428 14.8838C42.0968 12.4508 47.1638 13.9248 47.2068 13.9538Z" fill="#2F4971"/>
<path d="M31.0489 19.5069C28.5589 16.6449 26.9128 14.5979 25.0808 10.5619C24.1508 8.50092 23.8499 7.19891 24.1649 6.46891C24.3649 6.01091 24.7949 5.69589 25.6959 5.38089C27.7709 4.63689 29.0589 3.84986 30.2039 3.14786C30.3469 3.06186 30.5048 2.96185 30.6618 2.86185C31.3348 2.43285 32.1068 1.93192 32.5648 2.16092C32.8658 2.30392 33.3668 2.91989 33.5098 5.38089C33.6958 8.88689 34.2968 11.7349 34.7548 13.5249C35.2558 15.4709 36.0428 17.2179 36.0568 17.2599L36.4859 17.1169C36.4719 17.1029 36.0848 15.5999 35.7268 14.3979C35.6698 14.1829 36.3419 13.8969 36.2849 13.6679C35.7549 11.7499 35.1829 8.9019 34.9829 5.3389C34.8539 3.0629 34.3679 0.772945 33.5379 0.357945C32.6359 -0.100055 30.9758 0.572856 30.1458 1.11686C30.0028 1.20286 29.8599 1.30283 29.7169 1.38883C28.6009 2.06183 27.3549 2.81992 25.3659 3.53592C24.5359 3.83692 23.0039 4.49492 22.6469 5.35392C22.2319 6.35592 22.2458 8.90293 23.3198 11.2649C24.6798 14.2559 26.1388 16.7179 27.5128 18.4779C27.6698 18.6779 28.8579 17.9478 29.0299 18.1488C29.4739 18.6928 29.9749 19.3939 30.5899 19.8949L31.0489 19.5069Z" fill="#2F4971"/>
<path d="M22.9478 40.5309C23.7918 40.4019 24.4788 40.3588 25.0228 40.3308C25.9388 40.2738 26.5968 40.2308 27.1838 39.8158C28.1428 39.1148 27.8419 37.8978 27.7849 37.6838C27.4699 36.0518 26.4828 35.1368 25.6948 34.3918C25.2938 34.0198 24.9078 33.6758 24.6928 33.2898C24.3068 32.6168 24.4209 32.2878 25.0219 31.0138C25.2369 30.5418 25.5088 29.9548 25.8088 29.1958C26.8538 26.5478 29.2578 18.2038 29.3578 17.8468L27.9548 16.9448C27.9408 17.0308 25.2788 26.2759 24.2478 28.8949C23.9618 29.6249 23.6899 30.2118 23.4749 30.6698C22.8739 31.9578 22.5448 32.6588 23.1738 33.7468C23.4598 34.2338 23.8748 34.6338 24.3328 35.0488C25.1198 35.7648 26.6798 36.5088 26.9378 37.8828L26.9518 37.9398C26.9658 37.9688 27.2098 38.7698 26.6798 39.1418C26.3078 39.4138 25.8068 39.4428 24.9768 39.4858C24.4048 39.5148 23.6889 39.5578 22.8159 39.7008L21.8568 39.8579L21.9858 40.7019L22.9478 40.5309Z" fill="#2F4971"/>
<path d="M26.8549 36.094L25.8388 35.1489C25.8248 35.1779 24.0638 38.026 21.5878 39.901L22.2178 40.702C24.8228 38.728 26.7839 36.209 26.8549 36.094Z" fill="#2F4971"/>
<path d="M39.7498 40.2297C39.2918 40.2297 38.8339 40.0727 38.4049 39.7717C37.9039 39.4137 37.4888 38.8556 37.2738 38.2686C36.9448 37.3816 36.4719 36.7807 37.1309 36.5087L38.3189 36.1646C40.2079 35.6496 41.3098 35.1486 43.0848 34.2896C46.5488 32.6156 49.8968 31.1127 51.1708 30.9117C53.2178 30.5967 54.7778 32.3427 58.2698 37.0367L59.3289 38.4677L57.7258 37.6807C57.6968 37.6667 55.1358 36.4067 53.4608 36.3067C51.0418 36.1497 48.9528 36.9647 45.7758 38.1817C44.2588 38.7687 42.5268 39.4267 40.3948 40.1287C40.1798 40.1877 39.9648 40.2297 39.7498 40.2297ZM37.9038 37.0957C37.5028 37.2677 38.0038 38.1547 38.1038 38.4127C38.3758 39.1427 39.1768 39.6297 40.1218 39.3147C42.2398 38.6137 43.9578 37.9546 45.4598 37.3826C48.7368 36.1226 50.6118 35.1357 53.2028 35.3077C54.1618 35.3647 55.6499 35.8946 56.5659 36.2526C53.9469 32.9176 52.3439 31.7447 50.8839 31.9587C49.7249 32.1447 46.0898 33.6047 42.9688 35.0927C40.0358 36.4947 37.9038 37.0957 37.9038 37.0957Z" fill="#2F4971"/>
<path d="M50.7558 48.3877C52.0298 47.2717 52.9168 45.2248 52.7878 43.3218C52.5728 39.9298 50.7698 37.6538 48.1078 36.5098L47.8218 37.1827C50.1838 38.2137 51.5858 40.2457 51.7858 43.3367C51.9008 44.9687 51.1848 46.4707 50.1258 47.4017C49.7248 47.7457 48.8238 48.2608 47.8498 48.1028C46.2328 47.8448 43.4558 46.7427 42.4538 45.6267C41.7808 44.8827 40.4928 42.6068 40.0778 41.4048C39.7918 40.5458 40.3928 40.1458 40.4638 40.1028L40.2918 39.5878C39.8478 39.8458 39.0758 40.3748 39.5048 41.6198C39.9628 42.9368 41.4368 45.3977 42.2528 46.2137C43.1118 47.0727 46.2028 48.5037 47.8348 48.8467C48.0068 48.8757 48.5358 48.9617 48.7078 48.9617C49.3958 48.9607 50.1548 48.9177 50.7558 48.3877Z" fill="#2F4971"/>
<path d="M48.0368 42.4486C48.3948 39.9156 46.3048 37.3676 46.2338 37.2676L45.9329 37.7976C45.9469 37.8116 47.6219 40.0156 47.3209 42.1766C47.0489 44.0946 45.9468 45.1966 44.3868 45.0966C42.2258 44.9676 41.1528 43.9805 40.7798 42.9355L40.2928 43.0356C40.7648 44.3236 41.2228 45.3396 43.8998 45.9126C43.9718 45.9266 44.8448 45.9556 44.9158 45.9556C46.4478 45.9546 47.6358 45.1396 48.0368 42.4486Z" fill="#2F4971"/>
<path d="M11.6558 64.303L11.3549 63.8879C8.39188 59.7949 5.15783 54.728 5.11483 54.671L5.02883 54.556V54.413C5.08583 52.366 5.24387 50.449 5.44387 48.702C5.45787 48.545 4.47083 48.316 4.48483 48.158C4.88583 44.981 5.48688 42.5759 5.98788 40.7009C6.83188 37.4519 8.90786 33.917 8.90786 33.917C8.90786 33.917 12.3998 39.4129 13.7738 41.5599C13.9028 41.7459 13.6448 42.719 13.7738 42.905C18.1248 49.546 22.4179 54.297 22.4759 54.355L22.8338 54.7269L22.4049 55.0129C15.9069 59.3209 12.0428 63.901 11.9998 63.944L11.6558 64.303ZM5.61587 54.299C6.11687 55.0289 9.17983 59.022 11.8128 62.657C12.9438 61.569 16.6789 58.1059 21.9459 54.5709C20.3569 52.8539 13.7598 45.469 9.09384 36.667C8.26384 38.885 5.90187 45.254 5.61587 54.299Z" fill="#2F4971"/>
<path d="M12.0418 63.3008C9.22281 49.0888 9.46582 35.7788 9.46582 35.6498L8.60681 35.6357C8.60681 35.7787 8.83586 49.0608 11.6699 63.3578L12.0418 63.3008Z" fill="#2F4971"/>
<path d="M19.3839 51.0068C20.1428 50.3058 22.4898 47.8578 25.4238 46.0688L25.8528 45.8108L25.5238 45.4248C25.4948 45.3818 23.9778 43.6219 22.0748 40.2299C21.9598 40.0149 22.9478 39.9288 22.8188 39.6998C21.5598 37.3818 17.3658 29.1519 17.3658 29.1519C17.3658 29.1519 13.5298 35.8499 12.8428 41.9749L14.0308 43.3489C14.6748 38.7549 16.4929 33.9168 17.3079 31.9138C20.4709 39.6418 23.9488 44.3798 24.9938 45.7108C22.2028 47.4858 20.0128 49.3459 19.1688 50.0619C19.0118 50.1909 18.8968 50.2908 18.8538 50.3198L19.3839 51.0068C19.4419 50.9648 19.2129 51.1648 19.3839 51.0068Z" fill="#2F4971"/>
<path d="M17.9099 48.9038C15.8779 39.3868 17.7239 30.9568 17.7379 30.8708L16.8939 30.7139C16.8799 30.7999 15.2768 39.4008 17.3518 49.0908L17.9099 48.9038Z" fill="#2F4971"/>
<path d="M43.5858 80.7479C43.9578 80.4039 44.4589 79.818 46.0329 78.658C49.4539 76.139 59.0708 67.251 61.0028 62.614L60.5449 62.228C58.6839 66.708 48.9089 75.481 45.5319 77.957C43.8859 79.159 43.3849 79.818 42.9699 80.147C41.8819 81.02 40.3938 81.5209 39.2628 81.5499C38.5048 81.5639 36.1138 81.3349 34.5108 81.2059C31.4338 80.9629 17.9089 80.347 12.5139 79.947C11.8129 79.89 11.2119 79.875 10.6679 79.861C8.19187 79.789 7.60483 79.775 7.39083 76.999C6.83283 69.872 4.17088 59.181 3.18288 55.66C3.11088 55.402 3.03985 55.145 2.96785 54.901C2.32385 52.597 1.82287 50.7929 2.23787 50.1639C2.30987 50.0639 2.43785 49.9209 2.82485 49.8779C4.71385 49.6489 5.82984 49.091 5.88784 49.062L5.70186 47.502C5.68786 47.502 4.47084 48.16 2.71084 48.261C1.13684 48.347 0.721882 49.163 0.320882 49.692C-0.366118 50.622 0.148872 52.34 0.935872 55.131C1.00787 55.374 1.07884 55.632 1.15084 55.89C2.12384 59.396 4.78585 70.016 5.32985 77.072C5.60185 80.621 7.69083 81.523 10.1668 81.595C10.6968 81.609 11.2979 81.624 11.9699 81.681C13.3729 81.796 15.8909 81.953 18.1809 82.11C18.3669 82.124 18.5668 81.1079 18.7678 81.1219C25.2368 81.5659 33.7528 82.224 35.9848 82.453C38.1748 82.682 39.7778 82.7389 40.4788 82.5389C41.8538 82.1649 42.7698 81.5209 43.5858 80.7479Z" fill="#2F4971"/>
<path d="M61.6188 65.7768C62.0198 64.2308 62.3918 62.5708 60.8178 61.1108C59.2148 59.6368 57.5118 60.7819 56.8248 61.4259L57.0399 61.7408C57.1689 61.6118 58.7718 60.5818 60.0878 61.7978C60.9608 62.5998 61.0328 63.9158 61.0468 64.5598C61.0608 65.6188 60.8038 66.9638 60.6888 67.0788C60.7748 67.2358 60.9318 67.3219 60.9318 67.3219C61.1888 67.0219 61.4758 66.3498 61.6188 65.7768Z" fill="#2F4971"/>
<path d="M64.6668 63.4298C64.6528 63.3008 65.0528 60.0669 63.6508 58.4489C62.1768 56.7749 59.3569 57.4899 59.2429 57.5039L59.3148 57.8479C59.3288 57.8479 62.0059 57.6189 63.1649 58.9499C64.3959 60.3379 64.3809 63.4008 64.3809 63.4298H64.6668Z" fill="#2F4971"/>
<path d="M62.3918 74.3499C64.6388 73.8059 66.8428 73.1909 67.9158 72.9329C70.8928 72.2029 73.2398 71.1578 72.1238 68.1958C71.2648 65.9488 70.6498 63.8589 70.6498 63.8589H70.3488C70.3488 63.9309 70.8068 65.8909 71.4218 68.2389C71.8508 69.8849 71.4788 71.0438 68.3448 72.0168C66.2978 72.6468 64.5239 73.0898 63.0349 73.4338C58.2259 74.5358 52.3728 75.1938 47.7498 76.7108L46.4188 78.3568C50.9988 76.8548 57.5828 75.5089 62.3918 74.3499Z" fill="#2F4971"/>
<path d="M15.2338 90.1216C16.0348 89.0626 16.7798 88.0607 17.8388 87.1447C19.7138 85.5277 20.8019 84.9266 20.8159 84.9266L21.1878 84.7266L21.0018 84.3546C20.0998 82.5656 20.0428 80.9056 20.0428 80.8906H17.8248C17.8248 80.9626 17.8818 82.5366 18.6978 84.3546C18.2258 84.6556 18.4398 84.6696 17.0948 85.8286C15.9788 86.8016 14.9478 88.2906 14.1608 89.3346C13.6888 89.9646 13.3598 90.5516 12.7868 91.1956L13.6458 92.1116C14.2318 91.4386 14.7328 90.7656 15.2338 90.1216Z" fill="#2F4971"/>
<path d="M26.9838 94.2576C28.6578 93.5846 30.1038 92.9986 30.6768 92.7266C37.3458 89.5346 38.8058 87.8316 38.9058 87.5596L37.7899 86.9875C37.7899 86.9875 37.3179 86.9736 37.3029 86.9736C37.2169 87.0026 37.3029 86.9736 37.3029 86.9736C37.2739 87.0166 36.4008 88.2756 29.9318 91.3676C29.3878 91.6256 27.9568 92.1976 26.2968 92.8706C23.3058 94.0726 19.4419 95.4896 18.3969 96.1476L19.3848 97.5507C20.3718 96.9337 24.2068 95.3886 26.9838 94.2576Z" fill="#2F4971"/>
<path d="M50.7848 91.2236V89.4346C46.2618 87.8036 40.2938 87.2596 38.1908 87.0306C37.9328 87.0016 37.6898 86.9876 37.6468 86.9736C37.6608 86.9736 37.6758 86.9875 37.6898 86.9875L37.4178 87.8036C37.4898 87.8326 36.7448 88.4617 37.3038 88.5197C42.8698 89.1197 47.8508 90.1646 50.7848 91.2236Z" fill="#2F4971"/>
<path d="M51.2278 92.6116C51.1708 91.7246 51.1138 90.7086 51.1138 89.4056C51.1138 87.5306 52.5589 85.1546 52.5739 85.1266L51.8438 84.6826C51.7718 84.7976 50.2548 87.2876 50.2548 89.4196C50.2548 89.9636 49.4248 90.0927 49.4388 90.5507C49.4678 91.2087 49.4098 92.0966 49.4388 92.6256C49.5958 95.0016 49.9688 96.1176 48.6228 99.3096L50.0678 99.8966C51.4858 96.5046 51.3998 95.0446 51.2278 92.6116Z" fill="#2F4971"/>
<path d="M64.1658 97.793C65.8398 96.247 67.3998 94.8019 68.5168 93.2419C68.6598 93.0419 67.8158 93.07 67.9438 92.87C68.6308 91.797 69.4468 89.092 69.4468 87.689H69.0458C68.7598 91.482 65.9688 94.072 63.0638 96.777C60.8308 98.838 58.3118 101.199 56.3518 104.305L57.3388 105.321C59.2288 102.301 61.9768 99.84 64.1658 97.793Z" fill="#2F4971"/>
<path d="M83.8598 95.2889C84.0458 95.2749 84.3468 96.176 84.5328 96.162C85.0768 96.133 85.6058 96.09 86.1498 96.033C86.2218 96.033 86.2928 95.1309 86.3648 95.1169C88.0968 94.9309 90.2288 94.287 91.6888 93.714L91.5739 93.4559C80.9119 96.6049 68.0588 92.669 67.9308 92.626L67.5869 94.229C67.6299 94.243 69.5909 94.873 71.8809 95.345C72.0669 95.388 71.8238 94.472 72.0238 94.515C74.6428 95.03 78.0638 95.345 81.9138 95.345C82.5568 95.346 83.2158 95.3319 83.8598 95.2889Z" fill="#2F4971"/>
<path d="M96.0678 99.682C99.7458 99.381 103.596 97.406 104.312 95.489C104.684 94.459 104.927 93.7 104.956 92.913C104.956 92.77 105.586 92.784 105.586 92.641C105.543 91.983 105.171 91.124 104.842 90.208L103.583 90.437C104.256 92.827 104.07 94.244 103.526 95.403C102.71 97.149 97.7148 99.782 93.8648 99.067C89.2998 98.223 86.1368 94.8739 86.0938 94.8309L85.8218 96.0759C85.9508 96.2329 88.7988 99.454 93.6508 100.355C93.9798 100.412 94.9958 100.512 95.3398 100.527C95.4828 100.527 94.9818 100.04 95.1248 100.04C95.3808 100.04 95.7958 99.697 96.0678 99.682Z" fill="#2F4971"/>
<path d="M106.558 101.257C107.302 100.57 107.689 99.6257 107.631 98.6667C107.617 98.4517 107.588 98.2517 107.531 98.0367C107.502 97.8937 108.161 97.9217 108.104 97.7937C107.789 97.0637 107.689 96.5488 106.243 93.7438L104.025 91.8257C105.757 94.6597 106.129 95.9767 106.701 98.2517C106.916 99.1247 106.816 100.113 106.143 100.742C105.299 101.529 104.254 101.815 102.522 101.214C99.8028 100.284 98.4999 100.083 97.4559 99.8827C97.1409 99.8107 95.6808 99.5968 95.3658 99.5248L93.4478 100.327C93.7768 100.399 96.5678 101.014 96.8968 101.071C97.9278 101.257 99.1009 101.486 101.591 102.288C101.677 102.317 102.164 101.844 102.249 101.873C102.779 102.045 103.38 102.174 103.895 102.174C104.941 102.173 105.843 101.929 106.558 101.257Z" fill="#2F4971"/>
<path d="M83.3438 97.2637C84.5178 96.4337 85.1038 97.1067 84.8608 95.1317L83.4298 95.2748C83.5868 96.5488 83.1718 96.9057 81.7838 97.4067C78.2488 98.6947 75.9879 97.5638 75.1859 97.0208C73.3539 95.7898 71.3928 93.6427 71.3788 93.6147L69.6618 94.1017C69.7478 94.1877 71.4078 96.2627 73.3258 97.5657C74.1558 98.1377 74.7998 98.4677 75.1288 98.6107C75.2578 98.6677 75.8588 98.0528 75.9728 98.1238C76.5878 98.4678 77.9188 98.6967 79.1498 98.6107C81.1118 98.4367 82.7858 97.6637 83.3438 97.2637Z" fill="#2F4971"/>
<path d="M83.9168 100.355C84.3888 99.8251 85.2188 100.312 84.8188 99.5111C84.3038 98.4801 84.9048 96.7341 84.9048 96.1191L83.4738 96.6631C83.6598 97.4361 83.6168 99.7111 82.8298 100.57C82.3428 101.1 81.5558 101.314 80.3398 101.271C79.7818 101.242 79.4808 101.085 79.2238 100.885C78.1508 100.041 75.9899 97.6791 75.9749 97.6511L75.5458 98.9681C75.6458 99.1111 77.4778 100.886 78.7798 101.587C78.9798 101.702 79.5808 101.816 80.8408 101.773C82.6858 101.629 83.3298 101.013 83.9168 100.355Z" fill="#2F4971"/>
<path d="M83.2728 105.479C83.7598 105.565 85.2768 105.708 85.8918 105.007C87.1228 103.619 84.8468 99.5397 84.8328 99.4967L83.5158 99.3247C84.2598 100.928 84.9608 103.518 84.4318 104.119C83.9168 104.692 83.0868 104.391 83.0578 104.377L82.6138 104.205L82.4848 104.663C82.3278 105.221 81.6978 105.522 80.8818 105.436C80.0658 105.35 79.7228 105.021 79.6368 104.248L79.5798 103.69L79.0498 103.905C79.0358 103.905 78.2908 104.191 78.0478 103.819C77.8618 103.547 77.8048 103.275 77.8618 102.975C78.0338 102.159 79.0208 101.486 79.0358 101.486L77.9478 100.599C77.8908 100.642 76.7168 101.472 76.4738 102.646C76.3738 103.176 76.3588 103.748 76.8748 104.507C77.2468 105.065 78.0058 105.065 78.5208 104.979C78.7638 105.838 79.6798 106.525 80.7108 106.639C80.8398 106.653 80.9538 106.653 81.0688 106.653C81.9698 106.652 83.0438 106.237 83.2728 105.479Z" fill="#2F4971"/>
<path d="M103.968 90.4796C104.083 90.4656 104.412 90.8946 104.526 90.8806C105.456 90.7236 106.701 90.2796 107.217 90.0076C108.748 89.1776 109.936 86.6726 108.433 77.6566C107.302 70.9296 103.882 63.3446 101.52 57.8636C100.289 54.9866 99.2298 52.9547 99.1158 52.0247C99.1018 51.7527 98.4148 46.0136 100.046 39.5736L99.2298 39.5166C97.5128 46.3006 97.4118 51.6106 97.4268 51.7676V51.7966C97.5418 52.8266 98.4998 55.0456 99.8308 58.1226C102.178 63.5606 105.398 71.0176 106.5 77.6436C108.017 86.7456 107.144 88.4916 106.214 89.0076C104.897 89.7086 100.818 90.5816 100.79 90.5966V90.8826C100.862 90.8516 102.408 90.7366 103.968 90.4796Z" fill="#2F4971"/>
<path d="M95.6528 47.6006C96.0678 43.2636 97.5559 38.9276 97.5709 38.8846L96.9559 38.4555C96.9419 38.4985 95.4389 41.1316 94.8809 45.0536C94.1939 43.7946 93.4778 42.2486 92.1188 40.9746C89.9288 38.9136 88.2688 39.9585 86.9238 40.7885C86.8238 40.8455 86.7378 40.9035 86.6378 40.9605C85.4928 41.6475 85.2778 41.7476 84.3908 42.0196C83.9618 42.1486 83.5178 42.2776 82.5018 39.8586C81.6718 37.8836 75.6318 25.2176 70.6088 17.8326C68.1328 14.2116 66.0008 14.7986 64.2828 15.2566L64.1108 15.2995C62.2928 15.7865 60.6328 16.4305 57.9998 17.6895L58.1148 19.3636C61.0628 17.9606 62.5798 17.4316 64.0688 17.0306L64.2408 16.9875C65.9298 16.5295 67.5178 16.1006 69.6368 19.2206C74.6178 26.5486 80.5138 38.9426 81.3298 40.9176C82.1738 42.9496 82.9039 43.9805 84.2639 43.5655C85.2799 43.2645 85.5658 43.1076 86.7108 42.4066C86.7968 42.3346 86.8968 42.2775 86.9968 42.2206C88.2988 41.4046 89.4299 40.6896 91.1469 42.3066C93.1509 44.1956 94.7969 47.7026 94.8109 47.7306L95.4838 49.1756L95.6528 47.6006Z" fill="#2F4971"/>
<path d="M66.6848 43.937C65.6258 40.731 65.0958 37.411 64.2658 34.734C62.4908 29.052 61.0888 24.558 59.4138 21.009C59.0418 20.208 58.6698 19.521 58.3258 18.934C58.2828 18.848 58.8978 18.533 58.8408 18.447C56.9518 15.356 55.5638 15.141 55.3768 15.127L54.6469 16.215H54.6328C54.6468 16.215 56.3648 16.53 58.6548 21.382C60.3008 24.888 61.8468 29.354 63.6068 35.007C64.4508 37.698 65.2528 40.732 66.3258 43.938H66.6848V43.937Z" fill="#2F4971"/>
<path d="M56.9098 108.47C57.6968 107.54 57.7538 105.837 57.4398 104.205L56.3668 104.291C56.6388 105.651 56.3959 107.025 55.7949 107.74C55.1649 108.499 54.0488 108.871 52.5608 108.842C50.0558 108.799 47.4228 107.826 44.4748 105.879C42.9148 104.848 42.2418 102.945 42.5858 101.8C42.7428 101.285 43.0868 101.027 43.6018 101.027L43.6738 99.6958C42.7718 99.6958 41.3408 100.383 41.0258 101.556C40.6398 103.002 41.3408 105.234 43.4158 106.665C46.9508 109.098 49.7418 110.043 52.4038 110.1C52.4608 110.1 52.5328 110.1 52.5898 110.1C54.2338 110.101 56.1228 109.4 56.9098 108.47Z" fill="#2F4971"/>
<path d="M28.8159 92.412H29.3308C29.3018 92.212 29.2878 87.446 25.2088 85.428C21.6598 83.668 18.6108 85.428 18.5108 85.514L19.4988 85.743C19.5848 85.671 21.5888 84.541 24.6368 86.058C28.3288 87.876 28.8019 92.355 28.8159 92.398V92.412Z" fill="#2F4971"/>
<path d="M21.3588 88.2607C18.5248 86.7437 16.6928 88.1747 16.6358 88.2467L16.3778 88.6477C16.3778 88.6337 18.2958 87.3308 20.9718 88.6188C24.9508 90.5228 24.5498 93.5418 24.5358 93.6708L24.9648 93.7278L24.5358 93.6557L24.9648 93.7278C24.9948 93.5848 25.8248 90.6657 21.3588 88.2607Z" fill="#2F4971"/>
<path d="M63.5798 97.4776C63.5508 97.3056 63.1218 93.1406 57.3538 91.6236C53.3898 90.5786 50.8849 92.5105 50.7849 92.5965L51.0999 92.9686C51.1999 92.8966 53.8188 91.2656 57.2398 92.2956C62.1348 93.7696 62.6498 97.1906 62.6788 97.3336L63.5798 97.4776Z" fill="#2F4971"/>
<path d="M55.2639 94.5869C52.0579 93.8999 50.3838 95.718 50.3118 95.789L50.9418 96.075C50.9988 96.003 52.3728 94.558 55.0778 95.13C57.5108 95.66 59.8298 98.107 59.8298 100.297L60.4028 100.054C60.4018 97.908 58.1409 95.2029 55.2639 94.5869Z" fill="#2F4971"/>
<path d="M20.9728 72.347V71.946C14.7468 72.747 11.3699 71.7171 11.3549 71.7031L11.5269 72.175C11.6419 72.232 13.5018 73.0481 15.6918 73.1481C17.6808 73.1481 19.3128 72.804 20.9728 72.347Z" fill="#2F4971"/>
<path d="M20.4288 68.7689V68.3679C13.5738 69.1699 9.85183 68.139 9.83783 68.125L10.0238 68.5969C10.1528 68.6539 12.1848 69.4699 14.6038 69.5699C16.7938 69.5699 18.5968 69.2259 20.4288 68.7689Z" fill="#2F4971"/>
<path d="M36.3148 73.6919L37.1878 72.3179C37.3738 72.0169 41.8388 65.0759 45.4028 65.5199C46.1898 65.6199 46.6338 65.9059 46.7198 66.3789C46.8768 67.2379 45.9038 68.6259 37.7458 72.9339L36.3148 73.6919ZM45.0598 66.3639C43.0848 66.3639 40.4939 69.2259 38.9199 71.3299C40.7089 70.3569 42.1398 69.5268 43.2418 68.8108C45.6888 67.2218 45.8608 66.6358 45.8748 66.5498C45.8458 66.5208 45.7179 66.4348 45.3029 66.3778C45.2319 66.3638 45.1458 66.3639 45.0598 66.3639Z" fill="#2F4971"/>
<path d="M104.268 99.754C105.513 98.795 105.957 97.5069 106.2 96.4769C106.243 96.2619 106.887 96.148 106.873 95.933C106.758 94.416 105.857 93.028 105.327 91.668L104.368 92.369C105.441 94.673 106.715 96.949 103.924 99.124C101.033 101.371 94.5929 99.468 94.5349 99.439L94.1198 100.012C94.2918 100.084 96.6249 100.914 99.4149 100.914C100.962 100.913 103.095 100.684 104.268 99.754Z" fill="#2F4971"/>
<path d="M80.7678 100.298C81.9698 100.112 83.0148 99.5676 83.7018 98.3656C84.2028 97.4786 84.3598 96.6627 84.3598 96.6337L83.5158 96.4766C83.5018 96.4766 83.7018 97.2357 83.2578 97.9937C82.6858 98.9817 81.6119 99.6396 80.6389 99.7396C78.7499 99.9396 77.0038 99.2386 75.7728 97.4786L73.1678 97.3636C75.7438 99.5816 76.8458 100.183 77.4188 100.155C77.8338 100.155 79.6378 100.47 80.7678 100.298Z" fill="#2F4971"/>
<path d="M51.6428 85.327C52.9448 85.112 54.4188 84.5539 55.9788 83.9669C57.3958 83.4369 58.8838 82.9219 60.3578 82.5219C63.3348 81.7199 65.7818 82.365 67.2278 84.526L67.4568 84.3259C66.3258 82.2509 64.0939 80.805 60.9879 81.535C59.4419 81.907 57.5388 82.6799 56.0928 83.2519C54.5328 83.8819 54.0459 84.182 51.8419 84.698C50.1819 85.084 44.6148 84.598 44.5858 84.598L44.5428 84.8129C44.6148 84.8269 48.5358 85.4709 49.7668 85.4709C50.4128 85.4709 51.0848 85.442 51.6428 85.327Z" fill="#2F4971"/>
<path d="M51.0278 100.326C50.7128 99.925 50.1688 99.496 49.5108 99.138C49.3958 99.081 49.3108 98.4371 49.1818 98.3801C48.4948 98.0651 47.7218 97.836 46.9638 97.779C45.8048 97.693 44.7888 98.0221 44.0438 98.7241C43.5858 99.1391 43.3138 99.5681 43.1418 99.9841C43.0988 100.099 43.5999 100.671 43.5709 100.785C43.1699 102.331 43.6858 103.719 43.6998 103.733L44.3438 103.175C44.2008 103.003 42.9698 101.472 44.6018 99.9261C45.1888 99.3821 45.9468 99.1391 46.8778 99.2101C48.3088 99.3101 49.7398 100.083 50.3838 100.713C51.3288 101.643 51.5578 102.345 51.0418 103.761L51.3278 103.876C51.9438 102.216 52.0868 101.672 51.0278 100.326Z" fill="#2F4971"/>
<path d="M54.3338 100.942C53.6038 100.369 52.6168 100.369 51.9728 100.799C51.4858 101.128 51.3428 101.543 51.3428 102.201H51.6868C51.6868 101.929 52.0729 101.428 52.4459 101.242C52.8469 101.042 53.2758 101.127 53.7908 101.442C54.5488 101.9 54.6348 102.744 54.5778 103.403C54.5208 104.004 54.1058 104.763 53.8618 105.077L54.0189 105.32C54.7779 104.334 55.9508 102.201 54.3338 100.942Z" fill="#2F4971"/>
<path d="M55.7938 108.599C56.0518 108.17 55.9798 107.697 55.7648 107.096C55.1778 105.45 52.4298 103.375 47.0058 102.817C43.5568 102.459 42.7548 103.461 42.5258 104.005C42.2828 104.606 42.4398 105.265 42.9548 105.708L43.5268 105.064C43.2838 104.864 43.2118 104.592 43.3268 104.334C43.5558 103.761 44.6718 103.16 47.0478 103.332C52.0138 103.69 54.6478 106.008 55.1488 107.382C55.2778 107.725 55.2778 107.997 55.1628 108.198C54.9908 108.499 54.5618 108.613 54.4188 108.642L54.4758 109.071L54.4188 108.642L54.5338 109.486C54.6198 109.472 55.3648 109.286 55.7938 108.599Z" fill="#2F4971"/>
<path d="M54.3908 97.6786C50.8418 96.5056 49.2388 98.6806 49.1668 98.7516L49.8969 99.3386C49.6679 98.7806 51.3139 97.0626 54.1909 98.2656C56.6959 99.3246 58.1268 101.071 57.9978 102.746L58.4848 102.732C58.6418 100.684 57.1968 98.6086 54.3908 97.6786Z" fill="#2F4971"/>
<path d="M19.2559 99.3248C19.8709 98.4088 19.9569 96.9779 19.6139 95.8329L18.4118 96.1478C18.7128 97.2498 18.6409 98.0948 18.1829 98.6958C17.6389 99.4118 16.4938 99.7688 14.9768 99.7408C12.7438 99.6978 10.3829 98.7679 7.76388 96.9069C6.34688 95.9049 5.74587 94.0159 6.08987 92.9429C6.23287 92.4849 6.64787 92.2699 7.07687 92.2699L6.84787 90.9248C6.04687 90.9248 4.85886 91.0968 4.57186 92.1268C4.25686 93.3008 4.28587 93.7868 4.97287 95.3608C5.50287 96.5488 6.66186 97.6078 7.46286 98.1798C10.2399 100.141 12.7009 100.928 15.1059 100.985C15.1779 100.985 15.1059 100.985 15.1779 100.985C16.8799 100.985 18.6109 100.269 19.2559 99.3248Z" fill="#2F4971"/>
<path d="M13.6599 91.5667C13.5029 91.3377 13.5738 90.7366 13.3018 90.5216C12.5288 89.9066 11.6848 89.0186 9.72382 89.0186C7.92082 89.0186 7.24785 89.6626 6.96185 90.2786C6.34685 91.6096 7.07686 91.8526 6.93286 92.2676C6.47486 93.5126 6.54682 94.2856 7.00482 94.8436L7.66284 94.2996C7.61984 94.2426 6.38885 92.7106 7.89185 91.1936C8.39285 90.6926 9.05084 90.4636 9.85284 90.5206C11.1978 90.6066 12.4858 91.5086 12.9588 92.0806C14.0038 93.3546 13.8028 93.7406 13.1588 95.0146L13.1878 95.1436C14.4898 93.8716 14.6179 92.8697 13.6599 91.5667Z" fill="#2F4971"/>
<path d="M16.7798 92.9409C15.8498 91.7239 14.5468 92.0389 13.9748 92.3109C13.4878 92.5259 13.8598 92.7979 13.8598 93.2989L14.0168 93.313C14.0168 93.084 14.4178 92.769 14.5318 92.755C15.2908 92.698 15.6338 92.6979 16.2778 93.2419C16.9938 93.8429 17.0368 95.603 16.0488 96.963L16.2638 97.0489C17.9528 94.7019 17.2658 93.5849 16.7798 92.9409Z" fill="#2F4971"/>
<path d="M18.0248 99.6677C18.1968 99.4247 17.9528 99.6967 17.8958 99.0957C17.6958 97.1347 13.8168 94.7737 10.1958 93.9287C8.24984 93.4707 6.68978 93.5567 6.08878 94.6877C5.70278 95.3887 5.80282 96.2337 6.33182 96.7197L6.9188 96.0897C6.6898 95.8747 6.66078 95.4458 6.84678 95.0878C7.00378 94.8018 7.69081 93.8997 9.98081 94.4437C13.4448 95.2597 16.9368 97.4917 17.3518 98.7377C17.4378 98.9807 17.3808 99.1097 17.3228 99.1817C17.0508 99.5827 16.0058 99.7257 15.5478 99.7397L15.5618 100.169L15.5478 99.7397L15.5618 100.599C15.7488 100.598 17.4238 100.541 18.0248 99.6677Z" fill="#2F4971"/>
<path d="M19.7988 90.809C16.7358 88.948 14.3028 90.337 14.2748 90.351L14.5898 90.7661C14.6758 90.7091 16.9658 89.535 19.4418 91.253C22.3038 93.228 21.5458 94.931 21.5168 95.003L21.9318 95.132L21.5168 95.003L21.9459 95.2611C21.5449 95.1311 23.4348 93.027 19.7988 90.809Z" fill="#2F4971"/>
<path d="M82.6998 103.561C81.3978 102.259 79.7798 103.046 79.7088 103.074L79.7949 103.36C79.8379 103.346 81.3978 103.002 82.5568 103.861L82.6998 103.561Z" fill="#2F4971"/>
<path d="M106.687 107.697C107.861 107.482 108.791 106.752 108.963 105.736C109.493 105.679 110.681 105.292 111.01 104.276C111.411 102.988 110.652 101.285 110.223 100.44C109.579 99.1657 107.79 97.3917 107.103 96.9907L107.246 98.7657C107.79 99.0807 108.563 100.068 109.121 101.17C109.708 102.329 109.951 103.388 109.751 103.861C109.393 104.705 108.391 104.62 108.348 104.62L107.861 104.563L107.875 105.05C107.904 105.766 107.331 106.324 106.401 106.496C105.485 106.668 104.998 106.41 104.626 105.523L104.397 104.993L103.953 105.351C103.939 105.351 103.223 105.924 102.808 105.566C101.463 104.407 102.751 101.816 102.765 101.788L102.379 101.588L102.765 101.788L101.434 101.402C101.377 101.545 99.8878 104.45 101.563 106.254C102.064 106.798 103.252 107.127 103.967 106.798C104.396 107.542 105.269 107.771 106.085 107.771C106.286 107.769 106.501 107.754 106.687 107.697Z" fill="#2F4971"/>
<path d="M107.689 103.446C105.771 102.687 104.34 104.19 104.283 104.247L104.483 104.49C104.526 104.447 106.057 103.417 107.66 103.789L107.689 103.446Z" fill="#2F4971"/>
<path d="M52.1438 11.5488C52.2578 11.5198 55.2498 10.5619 57.0098 8.72986L56.7668 8.55786C55.4928 9.71686 53.3888 10.5188 52.2158 10.7048C51.5858 7.75683 51.8868 4.56487 51.8868 4.53687L51.6008 4.46484C51.5718 4.59384 51.0288 7.81381 51.6008 11.2058L51.6868 11.6929L52.1438 11.5488Z" fill="#2F4971"/>
<path d="M113.629 27.7651L107.145 7.82812L91.3298 22.1971L96.9258 38.4421L97.5418 38.8711L93.1618 22.441L106.931 8.65808L111.94 27.4791L99.2018 39.5151L100.018 39.5581L113.629 27.7651Z" fill="#2F4971"/>
<path d="M103.438 19.7791L100.476 30.2981L95.2228 23.6141L95.3378 24.3871L100.261 31.2141L98.8588 37.8551L101.12 31.5151L110.408 28.0651L110.866 27.6071L101.435 30.6841L104.354 20.0081L110.995 26.7491L110.838 26.1901L104.555 19.1061L106.401 11.0771L103.768 18.8911L95.6098 22.0831L95.2949 22.4121L103.438 19.7791Z" fill="#2F4971"/>
<defs>
<filter id="filter0_f" x="21.6018" y="108.289" width="91.024" height="23.6421" filterUnits="userSpaceOnUse" color-interpolation-filters="sRGB">
<feFlood flood-opacity="0" result="BackgroundImageFix"/>
<feBlend mode="normal" in="SourceGraphic" in2="BackgroundImageFix" result="shape"/>
<feGaussianBlur stdDeviation="4" result="effect1_foregroundBlur"/>
</filter>
<filter id="filter1_f" x="79.2509" y="106.642" width="47.2" height="19.292" filterUnits="userSpaceOnUse" color-interpolation-filters="sRGB">
<feFlood flood-opacity="0" result="BackgroundImageFix"/>
<feBlend mode="normal" in="SourceGraphic" in2="BackgroundImageFix" result="shape"/>
<feGaussianBlur stdDeviation="4" result="effect1_foregroundBlur"/>
</filter>
<linearGradient id="paint0_linear" x1="6.41662" y1="97.1829" x2="17.691" y2="97.1829" gradientUnits="userSpaceOnUse">
<stop stop-color="#5286AD"/>
<stop offset="1" stop-color="#233E6B"/>
</linearGradient>
<linearGradient id="paint1_linear" x1="43.044" y1="107.192" x2="55.3094" y2="105.151" gradientUnits="userSpaceOnUse">
<stop stop-color="#5286AD"/>
<stop offset="1" stop-color="#233E6B"/>
</linearGradient>
<linearGradient id="paint2_linear" x1="9.25115" y1="49.7338" x2="22.4039" y2="49.7338" gradientUnits="userSpaceOnUse">
<stop stop-color="#8EC54D"/>
<stop offset="1" stop-color="#6CA643"/>
</linearGradient>
<linearGradient id="paint3_linear" x1="5.4584" y1="49.6408" x2="12.0563" y2="49.6408" gradientUnits="userSpaceOnUse">
<stop stop-color="#F9E54D"/>
<stop offset="0.9996" stop-color="#E1C622"/>
</linearGradient>
<linearGradient id="paint4_linear" x1="16.403" y1="41.2683" x2="25.2519" y2="41.2683" gradientUnits="userSpaceOnUse">
<stop stop-color="#C175B1"/>
<stop offset="1" stop-color="#A73C7C"/>
</linearGradient>
<linearGradient id="paint5_linear" x1="13.4445" y1="39.651" x2="17.3373" y2="39.651" gradientUnits="userSpaceOnUse">
<stop stop-color="#F29992"/>
<stop offset="0.9819" stop-color="#F17880"/>
</linearGradient>
<linearGradient id="paint6_linear" x1="37.186" y1="35.609" x2="57.1963" y2="35.609" gradientUnits="userSpaceOnUse">
<stop stop-color="#5286AD"/>
<stop offset="1" stop-color="#233E6B"/>
</linearGradient>
<linearGradient id="paint7_linear" x1="22.973" y1="37.8186" x2="27.3065" y2="37.8186" gradientUnits="userSpaceOnUse">
<stop stop-color="#5286AD"/>
<stop offset="1" stop-color="#233E6B"/>
</linearGradient>
<linearGradient id="paint8_linear" x1="38.4188" y1="68.8693" x2="46.5525" y2="68.8693" gradientUnits="userSpaceOnUse">
<stop stop-color="#5286AD"/>
<stop offset="1" stop-color="#233E6B"/>
</linearGradient>
<linearGradient id="paint9_linear" x1="103.123" y1="11.0772" x2="103.123" y2="38.8567" gradientUnits="userSpaceOnUse">
<stop stop-color="#F9E0D0"/>
<stop offset="1" stop-color="#F6ABCC"/>
</linearGradient>
</defs>
</svg>
