<svg width="698" height="935" viewBox="0 0 698 935" fill="none" xmlns="http://www.w3.org/2000/svg">
<path d="M422.358 878.716L385.008 933.231L347.657 878.716L17.2609 396.387L16.4359 396.952L17.2609 396.387L1.18073 372.914L15.3903 348.266L345.787 -224.96L385.008 -292.997L424.213 -224.96L425.08 -225.46L424.213 -224.96L754.609 348.282L755.476 347.782L754.61 348.282L768.819 372.915L752.739 396.387L422.358 878.716ZM159.023 522.274H157.126L158.199 523.84L185.92 564.288L186.218 564.723H186.745H335.3H335.881L336.168 564.217L359.203 523.769L360.054 522.274H358.334H159.023ZM384.139 476.942L385.008 478.467L385.877 476.942L477.322 316.427L477.604 315.932L477.322 315.437L385.877 154.953L385.008 153.428L384.139 154.953L292.694 315.452L292.412 315.947L292.694 316.443L384.139 476.942ZM495.053 346.578L494.184 345.053L493.315 346.578L410.488 491.961L409.637 493.456H411.357H577.026H578.747L577.895 491.961L495.053 346.578ZM399.239 564.723H400.96L400.108 563.227L385.861 538.234L384.992 536.71L384.123 538.234L369.877 563.227L369.025 564.723H370.746H399.239ZM358.643 493.456H360.364L359.512 491.961L276.669 346.594L275.801 345.069L274.932 346.594L192.105 491.961L191.253 493.456H192.974H358.643ZM384.183 853.744L385.008 854.948L385.833 853.744L563.003 595.106L564.075 593.54H562.178H452.293H317.738H207.837H205.94L207.012 595.106L384.183 853.744ZM583.27 564.723H583.798L584.095 564.288L611.503 524.274H611.504L611.802 523.839L613.297 521.654L716.214 371.399L716.57 370.88L716.255 370.335L385.874 -202.892L385.008 -204.395L384.141 -202.892L53.6986 370.335L53.3843 370.88L53.74 371.399L147.745 508.631L148.648 509.949L149.439 508.561L258.908 316.427L259.19 315.932L258.908 315.437L224.325 254.741L223.456 253.216L222.587 254.741L110.748 451.049L92.6395 424.609L223.471 194.974L274.932 285.286L275.801 286.811L276.669 285.286L384.992 95.1702L493.315 285.286L494.184 286.811L495.053 285.286L546.498 194.974L677.33 424.609L659.221 451.049L547.367 254.741L546.498 253.216L545.629 254.741L511.046 315.437L510.764 315.932L511.046 316.427L620.205 508.017L611.661 520.504L610.448 522.274H411.666H409.945L410.797 523.769L433.847 564.218L434.135 564.723H434.716H583.27Z" stroke="white" stroke-width="2"/>
</svg>
