<svg width="544" height="231" viewBox="0 0 544 231" fill="none" xmlns="http://www.w3.org/2000/svg">
<path d="M0 230H66.5003V115L0 230Z" fill="url(#paint0_linear_8401_65597)"/>
<path d="M66.5005 230H133L66.5005 115V230Z" fill="url(#paint1_linear_8401_65597)"/>
<path d="M66.5005 153.334L110.834 230H121.917L66.5005 134.167V153.334Z" fill="#BB7253"/>
<path d="M22.1668 230L66.5006 153.334V134.167L11.0835 230H22.1668Z" fill="#F69022"/>
<path d="M411 230H477.5V115L411 230Z" fill="url(#paint2_linear_8401_65597)"/>
<path d="M477.5 230H544L477.5 115V230Z" fill="url(#paint3_linear_8401_65597)"/>
<path d="M477.5 153.334L521.834 230H532.917L477.5 134.167V153.334Z" fill="#DBC047"/>
<path d="M433.167 230L477.501 153.334V134.167L422.083 230H433.167Z" fill="#FFE046"/>
<path d="M77 230H177.999V55L77 230Z" fill="url(#paint4_linear_8401_65597)"/>
<path d="M178 230H279L178 55V230Z" fill="url(#paint5_linear_8401_65597)"/>
<path d="M178 113.333L245.334 229.999H262.167L178 84.166V113.333Z" fill="#684175"/>
<path d="M110.666 229.999L177.999 113.333V84.166L93.833 229.999H110.666Z" fill="#7958A5"/>
<g style="mix-blend-mode:overlay" opacity="0.75">
<path opacity="0.6" d="M169.496 129.858L161.248 115.572L153 129.858L161.248 144.145V144.144L169.496 158.43L177.744 144.144L169.496 129.858Z" fill="white"/>
<path opacity="0.6" d="M202.489 129.858L194.241 115.572L185.992 129.858L177.744 144.144V144.145L185.992 158.43L194.241 144.145L202.489 129.858Z" fill="white"/>
<path opacity="0.6" d="M177.744 172.717L185.992 158.43H169.496L177.744 172.717Z" fill="white"/>
<path opacity="0.6" d="M185.992 101.286L177.744 87L169.496 101.286L177.744 115.572L185.992 101.286Z" fill="white"/>
</g>
<path d="M268 229.938H369V55L268 229.938Z" fill="url(#paint6_linear_8401_65597)"/>
<path d="M369 229.938H470L369 55V229.938Z" fill="url(#paint7_linear_8401_65597)"/>
<path d="M369 113.312L436.333 229.938H453.167L369 84.1562V113.312Z" fill="#12598E"/>
<path d="M301.667 229.938L369.001 113.312V84.1562L284.833 229.938H301.667Z" fill="#186FB2"/>
<g style="mix-blend-mode:overlay" opacity="0.75">
<path opacity="0.6" d="M360.496 128.858H344L352.248 143.145L360.496 157.43L368.744 143.145L360.496 128.858Z" fill="white"/>
<path opacity="0.6" d="M368.744 114.572L376.992 128.858L385.24 114.572H368.744Z" fill="white"/>
<path opacity="0.6" d="M360.496 128.858L368.744 114.572H352.248L360.496 128.858Z" fill="white"/>
<path opacity="0.6" d="M376.992 128.858L368.744 143.145L376.992 157.43L385.24 143.145L393.488 128.858H376.992Z" fill="white"/>
<path opacity="0.6" d="M360.496 157.43L368.744 171.717L376.992 157.43H360.496Z" fill="white"/>
<path opacity="0.6" d="M368.744 86L360.496 100.286L368.744 114.572L376.992 100.286L368.744 86Z" fill="white"/>
</g>
<path d="M135 230.748H272.232V0L135 230.748Z" fill="url(#paint8_linear_8401_65597)"/>
<path d="M272.233 230.748H409.465L272.233 0V230.748Z" fill="url(#paint9_linear_8401_65597)"/>
<path d="M272.233 76.9159L363.721 230.748H386.593L272.233 38.458V76.9159Z" fill="#709D51"/>
<path d="M180.744 230.748L272.233 76.9159V38.458L157.872 230.748H180.744Z" fill="#88C43F"/>
<g style="mix-blend-mode:overlay">
<path opacity="0.6" d="M272.415 42L261.889 60.2309L272.415 78.4618L282.94 60.2309L272.415 42Z" fill="#95E8DA"/>
<path opacity="0.6" d="M261.889 96.6924H240.838L251.364 114.923L261.889 133.154L272.415 114.923L261.889 96.6924Z" fill="#95E8DA"/>
<path opacity="0.6" d="M272.415 78.4619L261.889 96.6928H282.94L272.415 78.4619Z" fill="#95E8DA"/>
<path opacity="0.6" d="M272.415 151.386L282.94 133.154H261.889L272.415 151.386Z" fill="#95E8DA"/>
<path opacity="0.6" d="M282.941 97.0059L272.415 115.237L282.941 133.468L293.467 115.237L303.993 97.0059H282.941Z" fill="#95E8DA"/>
</g>
<g clip-path="url(#clip0_8401_65597)">
<path d="M25.3828 268.242H124.383V101.779L25.3828 268.242Z" fill="url(#paint10_linear_8401_65597)"/>
<path d="M124.383 268.242H223.384L124.383 101.779V268.242Z" fill="url(#paint11_linear_8401_65597)"/>
<path d="M124.383 157.267L190.383 268.242H206.883L124.383 129.523V157.267Z" fill="#A84E4E"/>
<path d="M58.3829 268.242L124.382 157.267V129.523L41.8823 268.242H58.3829Z" fill="#E55066"/>
<g style="mix-blend-mode:overlay">
<path opacity="0.6" d="M138.167 179.342L145 167.507L138.167 155.671L131.333 167.507L124.5 155.671L117.667 167.507L110.833 155.671L104 167.507L110.833 179.342H124.5H138.167Z" fill="#FFBE5B"/>
<path opacity="0.6" d="M124.5 203.014L131.333 191.178L124.5 179.343L117.667 191.178L124.5 203.014Z" fill="#FFBE5B"/>
<path opacity="0.6" d="M131.333 143.836L124.5 132L117.667 143.836L124.5 155.671L131.333 143.836Z" fill="#FFBE5B"/>
</g>
<g opacity="0.98">
<path d="M329.895 260.676H424.395V101.779L329.895 260.676Z" fill="url(#paint12_linear_8401_65597)"/>
<path d="M424.394 260.676H518.894L424.394 101.779V260.676Z" fill="url(#paint13_linear_8401_65597)"/>
<path d="M424.394 154.744L487.394 260.676H503.144L424.394 128.262V154.744Z" fill="#1D856F"/>
<path d="M361.395 260.676L424.395 154.744V128.262L345.646 260.676H361.395Z" fill="#00B3A4"/>
<g style="mix-blend-mode:overlay">
<path opacity="0.6" d="M438.167 153.672L431.333 165.508L438.167 177.343L445 165.508L438.167 153.672Z" fill="white"/>
<path opacity="0.6" d="M410.833 177.344L417.667 189.18L424.5 201.016L431.334 189.18L438.167 177.344H424.5H410.833Z" fill="white"/>
<path opacity="0.6" d="M431.335 141.836L424.502 130L417.668 141.836L424.502 153.672L431.335 141.836Z" fill="white"/>
<path opacity="0.6" d="M410.833 153.672L404 165.508L410.833 177.343L417.667 165.508L410.833 153.672Z" fill="white"/>
</g>
</g>
</g>
<defs>
<linearGradient id="paint0_linear_8401_65597" x1="33.2501" y1="115" x2="33.2501" y2="230" gradientUnits="userSpaceOnUse">
<stop stop-color="#F0F2CB"/>
<stop offset="1" stop-color="#FFDF00"/>
</linearGradient>
<linearGradient id="paint1_linear_8401_65597" x1="99.7504" y1="115" x2="99.7504" y2="230" gradientUnits="userSpaceOnUse">
<stop stop-color="#FFDF00"/>
<stop offset="1" stop-color="#7F9A40"/>
</linearGradient>
<linearGradient id="paint2_linear_8401_65597" x1="444.25" y1="115" x2="444.25" y2="230" gradientUnits="userSpaceOnUse">
<stop stop-color="#CFDE6A"/>
<stop offset="1" stop-color="#88C43F"/>
</linearGradient>
<linearGradient id="paint3_linear_8401_65597" x1="510.75" y1="115" x2="510.75" y2="230" gradientUnits="userSpaceOnUse">
<stop stop-color="#88C43F"/>
<stop offset="1" stop-color="#3A8C61"/>
</linearGradient>
<linearGradient id="paint4_linear_8401_65597" x1="127.5" y1="55.0001" x2="127.5" y2="230" gradientUnits="userSpaceOnUse">
<stop stop-color="#E98369"/>
<stop offset="1" stop-color="#E55066"/>
</linearGradient>
<linearGradient id="paint5_linear_8401_65597" x1="228.5" y1="55" x2="228.5" y2="230" gradientUnits="userSpaceOnUse">
<stop stop-color="#E55066"/>
<stop offset="1" stop-color="#9E4434"/>
</linearGradient>
<linearGradient id="paint6_linear_8401_65597" x1="318.5" y1="55.0001" x2="318.5" y2="229.938" gradientUnits="userSpaceOnUse">
<stop stop-color="#C578B2"/>
<stop offset="1" stop-color="#7958A5"/>
</linearGradient>
<linearGradient id="paint7_linear_8401_65597" x1="419.5" y1="55" x2="419.5" y2="229.938" gradientUnits="userSpaceOnUse">
<stop stop-color="#7958A5"/>
<stop offset="1" stop-color="#86455F"/>
</linearGradient>
<linearGradient id="paint8_linear_8401_65597" x1="203.616" y1="2.70084e-05" x2="203.616" y2="230.748" gradientUnits="userSpaceOnUse">
<stop stop-color="#B1DDD5"/>
<stop offset="1" stop-color="#00B2A2"/>
</linearGradient>
<linearGradient id="paint9_linear_8401_65597" x1="340.849" y1="0" x2="340.849" y2="230.748" gradientUnits="userSpaceOnUse">
<stop stop-color="#00B3A4"/>
<stop offset="1" stop-color="#577888"/>
</linearGradient>
<linearGradient id="paint10_linear_8401_65597" x1="74.8829" y1="101.779" x2="74.8829" y2="268.242" gradientUnits="userSpaceOnUse">
<stop stop-color="#FEC55A"/>
<stop offset="1" stop-color="#F69022"/>
</linearGradient>
<linearGradient id="paint11_linear_8401_65597" x1="173.884" y1="101.779" x2="173.884" y2="268.242" gradientUnits="userSpaceOnUse">
<stop stop-color="#F5874F"/>
<stop offset="1" stop-color="#8A6F3C"/>
</linearGradient>
<linearGradient id="paint12_linear_8401_65597" x1="377.145" y1="101.779" x2="377.145" y2="260.675" gradientUnits="userSpaceOnUse">
<stop stop-color="#00BBD1"/>
<stop offset="1" stop-color="#186FB2"/>
</linearGradient>
<linearGradient id="paint13_linear_8401_65597" x1="471.644" y1="101.779" x2="471.644" y2="260.675" gradientUnits="userSpaceOnUse">
<stop stop-color="#186FB2"/>
<stop offset="1" stop-color="#444B86"/>
</linearGradient>
<clipPath id="clip0_8401_65597">
<rect width="494" height="128" fill="white" transform="translate(25 102)"/>
</clipPath>
</defs>
</svg>
