<svg width="494" height="128" viewBox="0 0 494 128" fill="none" xmlns="http://www.w3.org/2000/svg">
<g clip-path="url(#clip0_8401_65031)">
<path d="M0.382812 166.242H99.3825V-0.220703L0.382812 166.242Z" fill="url(#paint0unique1)"/>
<path d="M99.3833 166.242H198.384L99.3833 -0.220703V166.242Z" fill="url(#paint1unique1)"/>
<path d="M99.3833 55.2672L165.383 166.242H181.883L99.3833 27.5234V55.2672Z" fill="#A84E4E"/>
<path d="M33.3829 166.242L99.3822 55.2672V27.5234L16.8823 166.242H33.3829Z" fill="#E55066"/>
<g style="mix-blend-mode:overlay">
<path opacity="0.6" d="M113.167 77.3423L120 65.5066L113.167 53.6709L106.333 65.5066L99.5 53.6709L92.6667 65.5066L85.8333 53.6709L79 65.5066L85.8333 77.3423H99.5H113.167Z" fill="#FFBE5B"/>
<path opacity="0.6" d="M99.4998 101.014L106.333 89.1785L99.4998 77.3428L92.6665 89.1785L99.4998 101.014Z" fill="#FFBE5B"/>
<path opacity="0.6" d="M106.333 41.8357L99.4998 30L92.6665 41.8357L99.4998 53.6714L106.333 41.8357Z" fill="#FFBE5B"/>
</g>
<g opacity="0.98">
<path d="M304.895 158.676H399.395V-0.220703L304.895 158.676Z" fill="url(#paint2unique1)"/>
<path d="M399.394 158.676H493.894L399.394 -0.220703V158.676Z" fill="url(#paint3unique1)"/>
<path d="M399.394 52.7445L462.394 158.676H478.144L399.394 26.2617V52.7445Z" fill="#1D856F"/>
<path d="M336.395 158.676L399.395 52.7445V26.2617L320.646 158.676H336.395Z" fill="#00B3A4"/>
<g style="mix-blend-mode:overlay">
<path opacity="0.6" d="M413.167 51.6719L406.333 63.5077L413.167 75.3435L420 63.5077L413.167 51.6719Z" fill="white"/>
<path opacity="0.6" d="M385.833 75.3438L392.667 87.1795L399.5 99.0162L406.334 87.1795L413.167 75.3438H399.5H385.833Z" fill="white"/>
<path opacity="0.6" d="M406.335 39.8358L399.502 28L392.668 39.8358L399.502 51.6716L406.335 39.8358Z" fill="white"/>
<path opacity="0.6" d="M385.833 51.6719L379 63.5077L385.833 75.3435L392.667 63.5077L385.833 51.6719Z" fill="white"/>
</g>
</g>
</g>
<defs>
<linearGradient id="paint0unique1" x1="49.8829" y1="-0.220629" x2="49.8829" y2="166.242" gradientUnits="userSpaceOnUse">
<stop stop-color="#FEC55A"/>
<stop offset="1" stop-color="#F69022"/>
</linearGradient>
<linearGradient id="paint1unique1" x1="148.884" y1="-0.220629" x2="148.884" y2="166.242" gradientUnits="userSpaceOnUse">
<stop stop-color="#F5874F"/>
<stop offset="1" stop-color="#8A6F3C"/>
</linearGradient>
<linearGradient id="paint2unique1" x1="352.145" y1="-0.220622" x2="352.145" y2="158.675" gradientUnits="userSpaceOnUse">
<stop stop-color="#00BBD1"/>
<stop offset="1" stop-color="#186FB2"/>
</linearGradient>
<linearGradient id="paint3unique1" x1="446.644" y1="-0.220622" x2="446.644" y2="158.675" gradientUnits="userSpaceOnUse">
<stop stop-color="#186FB2"/>
<stop offset="1" stop-color="#444B86"/>
</linearGradient>
<clipPath id="clip0_8401_65031">
<rect width="494" height="128" fill="white"/>
</clipPath>
</defs>
</svg>
