<svg width="393" height="175" viewBox="0 0 393 175" fill="none" xmlns="http://www.w3.org/2000/svg">
<path d="M0 175H100.999V0L0 175Z" fill="url(#unique3)"/>
<path d="M101 175H202L101 0V175Z" fill="url(#unique4)"/>
<path d="M101 58.3325L168.334 174.999H185.167L101 29.166V58.3325Z" fill="#684175"/>
<path d="M33.6662 174.999L100.999 58.3325V29.166L16.833 174.999H33.6662Z" fill="#7958A5"/>
<g style="mix-blend-mode:overlay" opacity="0.75">
<path opacity="0.6" d="M92.496 74.8583L84.248 60.5723L76 74.8583L84.248 89.1453V89.1443L92.496 103.43L100.744 89.1443L92.496 74.8583Z" fill="white"/>
<path opacity="0.6" d="M125.489 74.8583L117.241 60.5723L108.992 74.8583L100.744 89.1443V89.1453L108.992 103.43L117.241 89.1453L125.489 74.8583Z" fill="white"/>
<path opacity="0.6" d="M100.744 117.717L108.992 103.43H92.4961L100.744 117.717Z" fill="white"/>
<path opacity="0.6" d="M108.992 46.286L100.744 32L92.4961 46.286L100.744 60.572L108.992 46.286Z" fill="white"/>
</g>
<path d="M191 174.938H292.001V0L191 174.938Z" fill="url(#unique4)"/>
<path d="M292 174.938H393L292 0V174.938Z" fill="url(#unique5)"/>
<path d="M292 58.3124L359.333 174.938H376.167L292 29.1562V58.3124Z" fill="#12598E"/>
<path d="M224.667 174.938L292.001 58.3124V29.1562L207.833 174.938H224.667Z" fill="#186FB2"/>
<g style="mix-blend-mode:overlay" opacity="0.75">
<path opacity="0.6" d="M283.496 73.8584H267L275.248 88.1454L283.496 102.43L291.744 88.1454L283.496 73.8584Z" fill="white"/>
<path opacity="0.6" d="M291.744 59.5723L299.992 73.8583L308.24 59.5723H291.744Z" fill="white"/>
<path opacity="0.6" d="M283.496 73.8583L291.744 59.5723H275.248L283.496 73.8583Z" fill="white"/>
<path opacity="0.6" d="M299.992 73.8584L291.744 88.1454L299.992 102.43L308.24 88.1454L316.488 73.8584H299.992Z" fill="white"/>
<path opacity="0.6" d="M283.496 102.43L291.744 116.717L299.992 102.43H283.496Z" fill="white"/>
<path opacity="0.6" d="M291.744 31L283.496 45.286L291.744 59.572L299.992 45.286L291.744 31Z" fill="white"/>
</g>
<defs>
<linearGradient id="unique3" x1="50.4997" y1="0.000102081" x2="50.4997" y2="175" gradientUnits="userSpaceOnUse">
<stop stop-color="#E98369"/>
<stop offset="1" stop-color="#E55066"/>
</linearGradient>
<linearGradient id="unique4" x1="151.5" y1="0" x2="151.5" y2="175" gradientUnits="userSpaceOnUse">
<stop stop-color="#E55066"/>
<stop offset="1" stop-color="#9E4434"/>
</linearGradient>
<linearGradient id="unique4" x1="241.5" y1="0.000102044" x2="241.5" y2="174.938" gradientUnits="userSpaceOnUse">
<stop stop-color="#C578B2"/>
<stop offset="1" stop-color="#7958A5"/>
</linearGradient>
<linearGradient id="unique5" x1="342.5" y1="0" x2="342.5" y2="174.938" gradientUnits="userSpaceOnUse">
<stop stop-color="#7958A5"/>
<stop offset="1" stop-color="#86455F"/>
</linearGradient>
</defs>
</svg>
