<svg width="544" height="115" viewBox="0 0 544 115" fill="none" xmlns="http://www.w3.org/2000/svg">
<path d="M0 115H66.5003V0L0 115Z" fill="url(#paint0_linear_8401_65299)"/>
<path d="M66.5005 115H133L66.5005 0V115Z" fill="url(#paint1_linear_8401_65299)"/>
<path d="M66.5005 38.3331L110.834 115H121.917L66.5005 19.1665V38.3331Z" fill="#BB7253"/>
<path d="M22.1668 115L66.5006 38.3331V19.1665L11.0835 115H22.1668Z" fill="#F69022"/>
<path d="M411 115H477.5V0L411 115Z" fill="url(#paint2_linear_8401_65299)"/>
<path d="M477.5 115H544L477.5 0V115Z" fill="url(#paint3_linear_8401_65299)"/>
<path d="M477.5 38.3331L521.834 115H532.917L477.5 19.1665V38.3331Z" fill="#DBC047"/>
<path d="M433.167 115L477.501 38.3331V19.1665L422.083 115H433.167Z" fill="#FFE046"/>
<defs>
<linearGradient id="paint0_linear_8401_65299" x1="33.2501" y1="6.70816e-05" x2="33.2501" y2="115" gradientUnits="userSpaceOnUse">
<stop stop-color="#F0F2CB"/>
<stop offset="1" stop-color="#FFDF00"/>
</linearGradient>
<linearGradient id="paint1_linear_8401_65299" x1="99.7504" y1="0" x2="99.7504" y2="115" gradientUnits="userSpaceOnUse">
<stop stop-color="#FFDF00"/>
<stop offset="1" stop-color="#7F9A40"/>
</linearGradient>
<linearGradient id="paint2_linear_8401_65299" x1="444.25" y1="1.34604e-05" x2="444.25" y2="115" gradientUnits="userSpaceOnUse">
<stop stop-color="#CFDE6A"/>
<stop offset="1" stop-color="#88C43F"/>
</linearGradient>
<linearGradient id="paint3_linear_8401_65299" x1="510.75" y1="0" x2="510.75" y2="115" gradientUnits="userSpaceOnUse">
<stop stop-color="#88C43F"/>
<stop offset="1" stop-color="#3A8C61"/>
</linearGradient>
</defs>
</svg>
