<svg width="275" height="231" viewBox="0 0 275 231" fill="none" xmlns="http://www.w3.org/2000/svg">
<path d="M0 230.748H137.232V0L0 230.748Z" fill="url(#paint0unique2)"/>
<path d="M137.233 230.748H274.465L137.233 0V230.748Z" fill="url(#paint1unique2)"/>
<path d="M137.233 76.9159L228.721 230.748H251.593L137.233 38.458V76.9159Z" fill="#709D51"/>
<path d="M45.744 230.748L137.233 76.9159V38.458L22.8721 230.748H45.744Z" fill="#88C43F"/>
<g style="mix-blend-mode:overlay">
<path opacity="0.6" d="M137.415 42L126.889 60.2309L137.415 78.4618L147.94 60.2309L137.415 42Z" fill="#95E8DA"/>
<path opacity="0.6" d="M126.889 96.6924H105.838L116.364 114.923L126.889 133.154L137.415 114.923L126.889 96.6924Z" fill="#95E8DA"/>
<path opacity="0.6" d="M137.415 78.4619L126.889 96.6928H147.94L137.415 78.4619Z" fill="#95E8DA"/>
<path opacity="0.6" d="M137.415 151.386L147.94 133.154H126.889L137.415 151.386Z" fill="#95E8DA"/>
<path opacity="0.6" d="M147.941 97.0059L137.415 115.237L147.941 133.468L158.467 115.237L168.993 97.0059H147.941Z" fill="#95E8DA"/>
</g>
<defs>
<linearGradient id="paint0unique2" x1="68.6159" y1="2.70084e-05" x2="68.6159" y2="230.748" gradientUnits="userSpaceOnUse">
<stop stop-color="#B1DDD5"/>
<stop offset="1" stop-color="#00B2A2"/>
</linearGradient>
<linearGradient id="paint1unique2" x1="205.849" y1="0" x2="205.849" y2="230.748" gradientUnits="userSpaceOnUse">
<stop stop-color="#00B3A4"/>
<stop offset="1" stop-color="#577888"/>
</linearGradient>
</defs>
</svg>
