<svg width="571" height="640" viewBox="0 0 571 640" fill="none" xmlns="http://www.w3.org/2000/svg">
<g opacity="0.2">
<path d="M345.091 562.98C347.824 561.402 350.093 559.133 351.67 556.4C353.248 553.667 354.078 550.568 354.078 547.412C354.078 544.257 353.248 541.157 351.67 538.424C350.093 535.691 347.824 533.422 345.091 531.844L282.918 495.948L220.747 460.053C218.014 458.475 214.914 457.644 211.758 457.644C208.602 457.644 205.502 458.475 202.769 460.053C200.036 461.631 197.766 463.9 196.189 466.633C194.611 469.366 193.78 472.467 193.78 475.622V619.205C193.782 622.359 194.615 625.458 196.194 628.189C197.772 630.92 200.042 633.188 202.775 634.764C205.507 636.341 208.606 637.17 211.761 637.17C214.916 637.169 218.015 636.338 220.747 634.761L345.091 562.98Z" fill="#0085FF"/>
<path d="M169.088 5.19999L26.1904 87.7006C24.0545 88.9341 22.2807 90.7081 21.0476 92.8442C19.8144 94.9803 19.1653 97.4034 19.1653 99.8699C19.1653 102.336 19.8144 104.759 21.0476 106.896C22.2807 109.032 24.0545 110.806 26.1904 112.039L159.091 188.775C168.051 193.949 178.213 196.672 188.558 196.672C198.903 196.672 209.067 193.949 218.026 188.775L350.872 112.075C353.008 110.842 354.783 109.069 356.016 106.933C357.249 104.797 357.898 102.374 357.898 99.9074C357.898 97.441 357.249 95.0181 356.016 92.8821C354.783 90.7462 353.008 88.9725 350.872 87.7394L207.913 5.19999C202.011 1.79336 195.315 0 188.5 0C181.685 0 174.99 1.79336 169.088 5.19999Z" fill="#FF2A00"/>
<path d="M3.00934e-07 323.597V533.523C-0.00025308 536.858 0.87738 540.134 2.54461 543.021C4.21183 545.909 6.60996 548.307 9.4978 549.974L160.731 637.288C163.022 638.611 165.621 639.308 168.266 639.308C170.912 639.308 173.511 638.612 175.802 637.289C178.093 635.967 179.996 634.064 181.319 631.773C182.642 629.482 183.338 626.883 183.338 624.238V246.398C183.338 236.779 180.805 227.33 175.995 219C171.186 210.669 164.268 203.752 155.938 198.943L22.3079 121.79C20.0469 120.485 17.4823 119.798 14.8715 119.798C12.2607 119.798 9.69602 120.485 7.43512 121.791C5.17422 123.097 3.29647 124.975 1.9914 127.236C0.686339 129.497 -0.000524874 132.062 3.00934e-07 134.673V323.597Z" fill="#FF9B00"/>
<path d="M571 395.548V225.108C571 221.963 570.172 218.873 568.599 216.149C567.026 213.425 564.764 211.163 562.04 209.59L410.177 121.912C407.895 120.595 405.307 119.902 402.672 119.902C400.038 119.902 397.45 120.596 395.169 121.913C392.887 123.23 390.993 125.125 389.676 127.407C388.358 129.688 387.665 132.276 387.665 134.911V310.391C387.665 313.537 388.492 316.627 390.065 319.351C391.637 322.075 393.899 324.337 396.622 325.909L544.119 411.066C546.844 412.639 549.934 413.467 553.079 413.467C556.225 413.467 559.315 412.639 562.039 411.066C564.763 409.494 567.025 407.232 568.598 404.508C570.171 401.784 571 398.694 571 395.548Z" fill="#BABABA"/>
<path d="M220.314 411.27L366.723 326.744C369.946 324.883 372.622 322.207 374.481 318.984C376.341 315.761 377.319 312.105 377.317 308.384V138.892C377.316 135.842 376.513 132.845 374.987 130.203C373.462 127.561 371.268 125.368 368.626 123.842C365.984 122.317 362.987 121.514 359.936 121.514C356.886 121.514 353.889 122.317 351.247 123.842L226.257 196.008C216.38 201.71 208.178 209.911 202.476 219.788C196.773 229.665 193.771 240.869 193.772 252.273V395.928C193.769 399.035 194.585 402.089 196.137 404.781C197.689 407.473 199.922 409.71 202.612 411.265C205.303 412.82 208.355 413.639 211.462 413.64C214.57 413.641 217.623 412.823 220.314 411.27Z" fill="#BABABA"/>
<path d="M217.81 446.426L372.89 535.962C375.778 537.629 379.054 538.507 382.389 538.507C385.724 538.507 389 537.629 391.888 535.962L548.381 445.61C550.152 444.59 551.623 443.122 552.646 441.353C553.669 439.584 554.208 437.577 554.208 435.533C554.208 433.49 553.669 431.482 552.646 429.713C551.623 427.944 550.152 426.476 548.381 425.457L391.888 335.109C389.001 333.441 385.725 332.563 382.39 332.563C379.056 332.563 375.781 333.441 372.893 335.109L217.81 424.643C215.899 425.747 214.312 427.335 213.208 429.246C212.104 431.158 211.523 433.327 211.523 435.535C211.523 437.742 212.104 439.911 213.208 441.823C214.312 443.734 215.899 445.322 217.81 446.426Z" fill="#BABABA"/>
</g>
<g opacity="0.2">
<path d="M389.738 591V567.539H395.675C397.722 567.539 399.315 567.8 400.455 568.321C401.594 568.823 402.395 569.625 402.859 570.725C403.322 571.807 403.554 573.216 403.554 574.954V583.47C403.554 585.227 403.322 586.665 402.859 587.785C402.395 588.886 401.594 589.697 400.455 590.218C399.335 590.74 397.761 591 395.733 591H389.738ZM394.922 587.409H395.733C396.525 587.409 397.095 587.293 397.442 587.061C397.79 586.829 398.002 586.482 398.079 586.018C398.176 585.555 398.224 584.976 398.224 584.281V574.056C398.224 573.361 398.166 572.801 398.051 572.376C397.954 571.952 397.732 571.643 397.384 571.45C397.037 571.256 396.477 571.16 395.704 571.16H394.922V587.409ZM408.157 591V567.539H418.7V571.073H413.342V576.895H417.426V580.486H413.342V587.496H418.758V591H408.157ZM425.688 591L421.459 567.539H425.891L428.411 583.47L430.757 567.539H435.449L431.162 591H425.688ZM445.691 591.348C443.914 591.348 442.505 591.029 441.462 590.392C440.439 589.735 439.714 588.828 439.29 587.669C438.865 586.491 438.652 585.111 438.652 583.528V575.07C438.652 573.448 438.865 572.058 439.29 570.899C439.714 569.721 440.439 568.814 441.462 568.177C442.505 567.539 443.914 567.221 445.691 567.221C447.428 567.221 448.78 567.51 449.746 568.09C450.73 568.65 451.426 569.441 451.831 570.465C452.237 571.488 452.439 572.666 452.439 573.998V576.026H447.371V573.68C447.371 573.216 447.342 572.772 447.284 572.347C447.245 571.923 447.11 571.575 446.878 571.305C446.646 571.015 446.251 570.87 445.691 570.87C445.15 570.87 444.744 571.015 444.474 571.305C444.223 571.594 444.059 571.961 443.982 572.405C443.924 572.83 443.895 573.284 443.895 573.767V584.802C443.895 585.323 443.934 585.806 444.011 586.25C444.107 586.675 444.281 587.022 444.532 587.293C444.802 587.544 445.189 587.669 445.691 587.669C446.231 587.669 446.618 587.534 446.849 587.264C447.081 586.974 447.226 586.607 447.284 586.163C447.342 585.719 447.371 585.265 447.371 584.802V582.34H452.439V584.367C452.439 585.7 452.237 586.897 451.831 587.959C451.445 589.002 450.759 589.832 449.775 590.45C448.809 591.048 447.448 591.348 445.691 591.348ZM463.459 591.348C461.702 591.348 460.312 591.039 459.289 590.421C458.265 589.803 457.531 588.915 457.087 587.756C456.643 586.598 456.421 585.217 456.421 583.614V574.896C456.421 573.274 456.643 571.894 457.087 570.754C457.531 569.615 458.265 568.746 459.289 568.148C460.312 567.53 461.702 567.221 463.459 567.221C465.236 567.221 466.636 567.53 467.659 568.148C468.702 568.746 469.445 569.615 469.889 570.754C470.334 571.894 470.556 573.274 470.556 574.896V583.614C470.556 585.217 470.334 586.598 469.889 587.756C469.445 588.915 468.702 589.803 467.659 590.421C466.636 591.039 465.236 591.348 463.459 591.348ZM463.459 587.669C464 587.669 464.396 587.534 464.647 587.264C464.898 586.994 465.062 586.646 465.139 586.221C465.217 585.796 465.255 585.362 465.255 584.918V573.622C465.255 573.158 465.217 572.724 465.139 572.318C465.062 571.894 464.898 571.546 464.647 571.276C464.396 571.005 464 570.87 463.459 570.87C462.957 570.87 462.581 571.005 462.33 571.276C462.079 571.546 461.915 571.894 461.837 572.318C461.76 572.724 461.722 573.158 461.722 573.622V584.918C461.722 585.362 461.751 585.796 461.808 586.221C461.886 586.646 462.04 586.994 462.272 587.264C462.523 587.534 462.919 587.669 463.459 587.669ZM475.159 591V567.539H478.809L483.617 578.835V567.539H487.903V591H484.399L479.591 578.835V591H475.159ZM492.843 591V567.539H496.492L501.3 578.835V567.539H505.587V591H502.082L497.274 578.835V591H492.843ZM510.527 591V567.539H521.07V571.073H515.711V576.895H519.795V580.486H515.711V587.496H521.128V591H510.527ZM531.649 591.348C529.873 591.348 528.463 591.029 527.421 590.392C526.397 589.735 525.673 588.828 525.248 587.669C524.823 586.491 524.611 585.111 524.611 583.528V575.07C524.611 573.448 524.823 572.058 525.248 570.899C525.673 569.721 526.397 568.814 527.421 568.177C528.463 567.539 529.873 567.221 531.649 567.221C533.387 567.221 534.739 567.51 535.704 568.09C536.689 568.65 537.384 569.441 537.79 570.465C538.195 571.488 538.398 572.666 538.398 573.998V576.026H533.329V573.68C533.329 573.216 533.3 572.772 533.242 572.347C533.204 571.923 533.069 571.575 532.837 571.305C532.605 571.015 532.209 570.87 531.649 570.87C531.109 570.87 530.703 571.015 530.433 571.305C530.182 571.594 530.018 571.961 529.94 572.405C529.882 572.83 529.854 573.284 529.854 573.767V584.802C529.854 585.323 529.892 585.806 529.969 586.25C530.066 586.675 530.24 587.022 530.491 587.293C530.761 587.544 531.147 587.669 531.649 587.669C532.19 587.669 532.576 587.534 532.808 587.264C533.04 586.974 533.184 586.607 533.242 586.163C533.3 585.719 533.329 585.265 533.329 584.802V582.34H538.398V584.367C538.398 585.7 538.195 586.897 537.79 587.959C537.403 589.002 536.718 589.832 535.733 590.45C534.768 591.048 533.406 591.348 531.649 591.348ZM544.813 591V571.392H541.279V567.539H553.531V571.392H550.026V591H544.813Z" fill="black"/>
<path fill-rule="evenodd" clip-rule="evenodd" d="M554 596.912H509.468V618.635H554V596.912ZM518.646 601.293L515.987 615.369H518.924L519.411 612.397H521.479L521.948 615.369H524.816L522.192 601.293H518.646ZM520.436 605.046L521.184 610.538H519.689L520.436 605.046ZM527.297 601.293L527.054 615.369H529.296L529.504 605.933L531.242 615.369H533.206L534.839 606.002L535.1 615.369H537.307L537.064 601.293H533.849L532.18 609.478L530.634 601.293H527.297ZM541.537 615.108C542.127 615.421 542.863 615.578 543.744 615.578C544.497 615.578 545.145 615.421 545.69 615.108C546.246 614.796 546.675 614.373 546.976 613.84C547.277 613.295 547.428 612.693 547.428 612.032C547.428 611.059 547.214 610.242 546.785 609.582C546.368 608.922 545.852 608.331 545.238 607.809L544.074 606.784C543.668 606.425 543.338 606.083 543.083 605.759C542.84 605.423 542.718 604.994 542.718 604.473C542.718 604.229 542.782 603.986 542.909 603.743C543.048 603.5 543.263 603.378 543.552 603.378C543.819 603.378 544.016 603.465 544.143 603.639C544.271 603.801 544.352 604.038 544.387 604.351C544.433 604.652 544.462 605.011 544.474 605.429L547.15 605.098C547.138 604.681 547.086 604.247 546.993 603.795C546.912 603.332 546.75 602.897 546.507 602.492C546.275 602.075 545.928 601.739 545.464 601.484C545.012 601.229 544.41 601.101 543.657 601.101C542.44 601.101 541.479 601.42 540.772 602.057C540.065 602.683 539.712 603.592 539.712 604.786C539.712 605.631 539.891 606.344 540.251 606.923C540.621 607.491 541.073 608.001 541.606 608.452L542.823 609.512C543.298 609.918 543.674 610.323 543.952 610.729C544.23 611.123 544.369 611.609 544.369 612.189C544.369 612.432 544.317 612.664 544.213 612.884C544.12 613.104 543.912 613.214 543.587 613.214C543.332 613.214 543.112 613.133 542.927 612.971C542.753 612.809 542.614 612.542 542.51 612.171C542.417 611.801 542.365 611.314 542.353 610.712L539.694 611.111C539.729 612.154 539.897 613.006 540.198 613.666C540.5 614.315 540.946 614.796 541.537 615.108Z" fill="black"/>
</g>
</svg>
