<svg width="431" height="528" viewBox="0 0 431 528" fill="none" xmlns="http://www.w3.org/2000/svg">
<path d="M56.4675 501.858C65.8192 511.868 57.2897 545.472 57.2897 545.472C57.2897 545.472 29.3605 557.383 27.3647 554.572C25.369 551.761 11.4051 510.356 13.8498 502.118C16.2945 493.88 47.1157 491.848 56.4675 501.858Z" fill="url(#paint0_linear)"/>
<path d="M229.758 481.629L205.475 543.924H172.554L158.31 481.633L158.226 481.626C180.269 481.624 207.541 481.626 229.758 481.629Z" fill="#04B0A0"/>
<path d="M271.094 481.631C271.094 481.631 283.014 481.295 281.051 491.863C279.088 502.431 270.31 543.922 271.291 543.922H205.475L229.757 481.626C253.256 481.63 271.094 481.631 271.094 481.631Z" fill="#04B0A0"/>
<path d="M271.095 481.631C271.095 481.631 283.014 481.295 281.051 491.863C279.088 502.431 278.707 543.922 279.689 543.922H223.208L229.757 481.626C253.256 481.63 271.095 481.631 271.095 481.631Z" fill="url(#paint1_linear)"/>
<path d="M109.642 494.105C108.66 488.02 107.025 481.647 118.801 481.631C122.415 481.626 138.154 481.625 158.228 481.625L158.311 481.633L172.555 543.923H101.519C101.519 543.922 110.623 500.189 109.642 494.105Z" fill="#04B0A0"/>
<path d="M109.641 494.105C108.66 488.02 107.025 481.647 118.801 481.631C122.414 481.626 138.153 481.625 158.227 481.625L162.472 481.633L172.556 543.923H101.52C101.518 543.922 110.623 500.189 109.641 494.105Z" fill="url(#paint2_linear)"/>
<path d="M224.789 473.284L269.738 466.917L272.079 486.163C272.079 486.163 255.905 496.347 224.789 496.347V473.284Z" fill="url(#paint3_linear)"/>
<path d="M170.044 500.196L226.543 500.196L226.543 473.286L170.044 473.286L170.044 500.196Z" fill="#918344"/>
<path d="M174.086 496.347H221.845V475.979H174.086V496.347Z" fill="url(#paint4_linear)"/>
<path d="M170.043 473.285L119.784 466.917L117.168 486.163C117.168 486.163 135.251 496.347 170.043 496.347V473.285Z" fill="url(#paint5_linear)"/>
<path d="M146.956 496.348L155.64 496.348L155.64 473.285L146.956 473.285L146.956 496.348Z" fill="#918344"/>
<path d="M239.75 496.348L248.434 496.348L248.434 473.285L239.75 473.285L239.75 496.348Z" fill="#918344"/>
<path d="M82.1047 236.474L82.122 236.439L95.7409 257.553L44.7024 235.87L82.1047 236.474Z" fill="url(#paint6_linear)"/>
<path d="M77.4203 229.209L39.7785 228.719L37.2063 166.801L77.4376 229.174L77.4203 229.209Z" fill="url(#paint7_linear)"/>
<path d="M97.8609 203.004L95.7407 257.552L82.1218 236.437L97.8609 203.004Z" fill="#FF7D74"/>
<path d="M77.4376 229.174L37.2063 166.801L93.1467 195.725L77.4376 229.174Z" fill="#FF7D74"/>
<path d="M97.6066 253.17L89.6943 258.062L145.303 344.278L153.216 339.387L97.6066 253.17Z" fill="#04B0A0"/>
<path d="M103.384 256.807L90.5979 264.712C89.6292 265.312 88.347 265.028 87.7343 264.078L83.4341 257.41C82.8213 256.461 83.1112 255.205 84.0815 254.606L96.8671 246.701C97.8358 246.102 99.118 246.385 99.7307 247.335L104.031 254.003C104.642 254.952 104.352 256.207 103.384 256.807Z" fill="#918344"/>
<path d="M124.392 465.848C131.626 403.826 87.8164 327.966 97.8612 300.254C101.267 290.861 89.9885 287.939 100.86 284.984C110.36 282.403 190.095 253.129 255.312 265.251C255.312 265.251 313.021 276.589 319.323 284.141C328.098 294.658 302.574 328.382 293.212 349.719C291.849 352.825 290.573 355.736 289.379 358.503L286.701 345.998C286.701 345.998 233.727 463.91 229.649 475.537C219.53 476.091 208.575 476.371 197.423 476.43C187.071 476.484 176.742 476.202 167.011 475.67L124.392 465.848Z" fill="url(#paint8_linear)"/>
<path d="M289.377 358.504C282.363 374.747 278.209 385.876 276.54 400.266C274.585 417.109 275.236 445.749 275.236 445.749C275.236 445.749 281.898 446.506 281.283 450.907C280.46 456.77 275.278 458.473 275.278 458.473C275.278 458.473 281.605 460.439 280.303 464.071C277.968 470.579 256.852 474.048 229.649 475.536C233.727 463.91 286.701 345.997 286.701 345.997L289.377 358.504Z" fill="#04B0A0"/>
<path d="M289.377 358.504C282.363 374.747 278.209 385.876 276.54 400.266C274.585 417.109 275.236 445.749 275.236 445.749C275.236 445.749 281.898 446.506 281.283 450.907C280.46 456.77 275.278 458.473 275.278 458.473C275.278 458.473 281.605 460.439 280.303 464.071C277.968 470.579 256.852 474.048 229.649 475.536C233.727 463.91 286.701 345.997 286.701 345.997L289.377 358.504Z" fill="url(#paint9_linear)"/>
<path d="M103.099 358.504C110.113 374.747 114.267 385.876 115.936 400.266C117.891 417.109 117.24 445.749 117.24 445.749C117.24 445.749 110.578 446.506 111.195 450.907C112.016 456.77 117.2 458.473 117.2 458.473C117.2 458.473 110.872 460.439 112.175 464.071C114.509 470.579 135.626 474.048 162.829 475.536C158.751 463.91 105.776 345.997 105.776 345.997L103.099 358.504Z" fill="url(#paint10_linear)"/>
<path d="M195.1 476.395L207.5 476.395L207.5 292.095L195.1 292.095L195.1 476.395Z" fill="#E45266"/>
<path d="M286.7 345.997L379.249 241.517L423.084 228.119C428.269 236.2 432.771 250.583 430.306 254.79C422.016 268.936 367.118 291.582 356.373 299.101C329.231 318.093 271.955 389.266 286.7 345.997Z" fill="url(#paint11_linear)"/>
<path d="M286.7 345.997C286.7 345.997 249.599 269.35 253.358 265.006C257.118 260.662 344.422 253.52 352.394 247.455C352.394 247.455 330.909 219.082 345.668 213.536C360.427 207.991 380.635 167.23 402.7 196.026C407.217 201.921 431.557 235.64 426.304 242.436L366.744 277.998C366.744 277.998 286.824 348.337 286.7 345.997Z" fill="url(#paint12_linear)"/>
<path d="M152.74 259.939H237.177V222.973H152.74V259.939Z" fill="url(#paint13_linear)"/>
<path d="M264.802 161.085L263.433 180.324L278.011 161.085L280.541 152.155L265.69 146.495L264.802 161.085Z" fill="url(#paint14_linear)"/>
<path d="M67.21 0.000488281C82.7852 6.98627 105.716 21.3603 105.716 21.3603C99.5796 8.48827 98.7132 4.35543 98.7132 4.35543C162.663 26.4015 155.052 86.7383 155.052 86.7383L145.086 103.759C144.264 103.666 143.459 103.555 142.652 103.447L146.923 100.622L67.21 0.000488281Z" fill="url(#paint15_linear)"/>
<path d="M63.6785 23.6149C74.7235 30.5004 81.5849 31.5028 81.5849 31.5028C71.611 18.0864 67.21 0.000488281 67.21 0.000488281L146.923 100.622L142.652 103.447C72.5561 90.9977 63.6785 23.6149 63.6785 23.6149Z" fill="url(#paint16_linear)"/>
<path d="M160.337 72.9515C160.127 70.0215 157.905 64.9741 154.759 65.3442C152.157 65.6511 123.807 81.6351 114.104 87.1405C112.083 88.2863 110.853 88.9895 110.853 88.9895C110.853 88.9895 109.035 90.8616 109.294 93.1347C109.552 95.4078 111.696 102.565 113.024 104.253C114.147 105.683 121.051 103.186 125.141 100.796C126.238 100.05 127.054 99.5252 127.054 99.5252C126.898 99.6486 126.716 99.7782 126.535 99.9062C126.127 100.196 125.656 100.494 125.141 100.796C122.982 102.264 119.712 104.607 119.29 105.597C118.653 107.091 120.97 109.939 122.487 109.251C122.487 109.251 120.663 112.465 121.162 113.939C121.663 115.414 124.447 117.909 126.446 115.941C126.795 115.597 128.093 114.394 129.979 112.649C138.878 104.412 161.167 83.8327 161.926 81.5411C162.846 78.7638 161.042 78.1052 161.042 78.1052C161.042 78.1052 159.21 77.1939 157.985 78.3535C157.987 78.3535 160.546 75.8815 160.337 72.9515Z" fill="#04B0A0"/>
<path d="M154.241 78.6606L117.332 97.4945L110.853 88.9897C110.853 88.9897 108.112 89.9613 109.667 95.1274C111.223 100.295 113.022 104.254 113.022 104.254C113.022 104.254 116.651 106.753 126.535 99.9064C136.42 93.0594 154.241 78.6606 154.241 78.6606Z" fill="#02857A"/>
<path d="M145.392 92.6064L120.066 108.22C120.066 108.22 119.223 110.202 122.49 109.252C125.756 108.302 145.392 92.6064 145.392 92.6064Z" fill="#02857A"/>
<path d="M263.654 188.939V217.384L212.899 253.033L142.193 216.154V122.358H263.654V188.939Z" fill="url(#paint17_linear)"/>
<path d="M258.631 148.153L258.495 148.031C258.495 148.031 258.546 148.074 258.631 148.153Z" fill="url(#paint18_linear)"/>
<path d="M190.953 153.09L142.982 132.726L142.552 179.608L126.319 178.056C126.319 178.056 114.775 168.557 114.103 152.129C113.2 130.061 124.322 110.968 139.519 98.7778C145.069 94.3273 156.363 86.666 156.363 86.666L232.128 158.775L178.765 127.867C178.765 127.868 191.84 144.315 190.953 153.09Z" fill="url(#paint19_linear)"/>
<path d="M208.157 166.801L222.596 166.801L222.596 151.041L208.157 151.041L208.157 166.801Z" fill="#6E622F"/>
<path d="M142.5 178.5L166.193 169.893V154.989L131.5 168L142.5 178.5Z" fill="#6E622F"/>
<path d="M184.347 195.516C199.361 195.516 211.531 183.601 211.531 168.903C211.531 154.204 199.361 142.289 184.347 142.289C169.334 142.289 157.163 154.204 157.163 168.903C157.163 183.601 169.334 195.516 184.347 195.516Z" fill="#6E622F"/>
<path d="M244.804 195.516C259.817 195.516 271.988 183.601 271.988 168.903C271.988 154.204 259.817 142.289 244.804 142.289C229.79 142.289 217.619 154.204 217.619 168.903C217.619 183.601 229.79 195.516 244.804 195.516Z" fill="#6E622F"/>
<path d="M184.347 187.699C199.361 187.699 211.531 175.784 211.531 161.086C211.531 146.387 199.361 134.472 184.347 134.472C169.334 134.472 157.163 146.387 157.163 161.086C157.163 175.784 169.334 187.699 184.347 187.699Z" fill="#918344"/>
<path d="M184.347 182.14C196.224 182.14 205.853 172.713 205.853 161.085C205.853 149.457 196.224 140.031 184.347 140.031C172.47 140.031 162.841 149.457 162.841 161.085C162.841 172.713 172.47 182.14 184.347 182.14Z" fill="#2F364B"/>
<path d="M244.804 187.699C259.817 187.699 271.988 175.784 271.988 161.086C271.988 146.387 259.817 134.472 244.804 134.472C229.79 134.472 217.619 146.387 217.619 161.086C217.619 175.784 229.79 187.699 244.804 187.699Z" fill="#918344"/>
<path d="M244.804 182.14C256.681 182.14 266.309 172.713 266.309 161.085C266.309 149.457 256.681 140.031 244.804 140.031C232.926 140.031 223.298 149.457 223.298 161.085C223.298 172.713 232.926 182.14 244.804 182.14Z" fill="#2F364B"/>
<path d="M253.139 129.303L235.143 98.7769C235.143 98.7769 250.628 111.479 253.139 129.303Z" fill="#CCEAEF"/>
<path d="M243.483 174.332C243.483 175.488 244.074 176.426 244.803 176.426C245.533 176.426 246.123 175.488 246.123 174.332C246.123 173.175 244.803 165.318 244.803 165.318C244.803 165.318 243.483 173.175 243.483 174.332Z" fill="#CCEAEF"/>
<path d="M246.123 147.84C246.123 146.683 245.533 145.746 244.803 145.746C244.074 145.746 243.483 146.683 243.483 147.84C243.483 148.996 244.803 156.853 244.803 156.853C244.803 156.853 246.123 148.996 246.123 147.84Z" fill="#CCEAEF"/>
<path d="M258.333 162.377C259.514 162.377 260.472 161.799 260.472 161.085C260.472 160.371 259.514 159.793 258.333 159.793C257.151 159.793 249.126 161.085 249.126 161.085C249.126 161.085 257.151 162.377 258.333 162.377Z" fill="#CCEAEF"/>
<path d="M231.275 159.793C230.093 159.793 229.135 160.371 229.135 161.085C229.135 161.799 230.093 162.377 231.275 162.377C232.456 162.377 240.481 161.085 240.481 161.085C240.481 161.085 232.456 159.793 231.275 159.793Z" fill="#CCEAEF"/>
<path d="M253.437 171.365C254.272 172.183 255.368 172.437 255.883 171.933C256.398 171.429 256.138 170.357 255.303 169.538C254.469 168.719 247.859 164.077 247.859 164.077C247.859 164.077 252.6 170.548 253.437 171.365Z" fill="#CCEAEF"/>
<path d="M236.17 150.806C235.335 149.988 234.239 149.734 233.724 150.238C233.209 150.742 233.468 151.814 234.303 152.633C235.138 153.45 241.747 158.094 241.747 158.094C241.747 158.094 237.005 151.624 236.17 150.806Z" fill="#CCEAEF"/>
<path d="M255.303 152.633C256.138 151.816 256.398 150.742 255.883 150.238C255.368 149.734 254.273 149.988 253.437 150.806C252.602 151.623 247.859 158.094 247.859 158.094C247.859 158.094 254.467 153.45 255.303 152.633Z" fill="#CCEAEF"/>
<path d="M234.303 169.538C233.468 170.355 233.209 171.429 233.724 171.933C234.239 172.437 235.333 172.183 236.17 171.365C237.006 170.548 241.747 164.077 241.747 164.077C241.747 164.077 235.138 168.721 234.303 169.538Z" fill="#CCEAEF"/>
<path d="M236.002 120.917L218.562 96.1294C218.56 96.1294 232.02 105.663 236.002 120.917Z" fill="#CCEAEF"/>
<path d="M263.654 135.461L252.41 107.446C252.411 107.447 263.31 119.721 263.654 135.461Z" fill="#CCEAEF"/>
<path d="M142.193 179.064C142.193 179.064 129.323 163.083 120.219 167.079C111.116 171.074 107.663 195.233 113 198.826C118.337 202.42 126.461 208.566 134.326 205.8C142.191 203.033 142.193 200.268 142.193 200.268V179.064Z" fill="url(#paint20_linear)"/>
<path d="M131.625 176.401C131.625 176.401 119.279 170.601 117.604 181.695C115.93 192.79 119.488 196.272 119.488 196.272C119.488 196.272 117.157 183.365 122.208 179.678C129.372 174.45 131.625 176.401 131.625 176.401Z" fill="#C7A369"/>
<path d="M197.063 76.1546C207.225 74.8761 292.221 60.1474 290.965 169.73L258.632 148.151C258.547 148.073 258.632 148.151 258.632 148.151C259.634 149.072 266.432 148.583 265.852 162.488L218.944 132.016C218.944 132.016 222.688 140.977 221.433 148.306L156.363 86.6671C156.363 86.6656 186.9 77.4345 197.063 76.1546Z" fill="url(#paint21_linear)"/>
<path d="M253.139 134.849L235.143 104.323C235.143 104.323 250.628 117.025 253.139 134.849Z" fill="#CCEAEF"/>
<path d="M236.002 126.46L218.562 101.672C218.56 101.672 232.02 111.207 236.002 126.46Z" fill="#CCEAEF"/>
<path d="M263.654 141.006L252.41 112.99C252.411 112.99 263.31 125.266 263.654 141.006Z" fill="#CCEAEF"/>
<path d="M221.926 194.838C227.092 194.838 231.279 190.738 231.279 185.681C231.279 180.623 227.092 176.523 221.926 176.523C216.76 176.523 212.573 180.623 212.573 185.681C212.573 190.738 216.76 194.838 221.926 194.838Z" fill="#F3DCB5"/>
<path d="M230.208 189.087C230.208 189.087 223.427 195.003 216.676 190.087C209.925 185.17 208.943 193.024 211.827 194.628C214.712 196.232 226.949 198.306 230.208 189.087Z" fill="#C7A369"/>
<path d="M223.131 225.54C223.131 225.54 211.988 231.338 201.001 225.54C201.001 225.54 204.375 230.672 211.281 230.672C218.186 230.672 223.131 225.54 223.131 225.54Z" fill="#C7A369"/>
<path d="M237.23 206.244H187.392C187.392 206.244 196.918 204.348 212.692 204.348C228.466 204.348 237.23 206.244 237.23 206.244Z" fill="#C7A369"/>
<path d="M188.716 210.413C187.88 207.725 187.393 206.243 187.393 206.243H237.232C237.232 206.243 236.195 208.073 234.217 210.502C231.087 211.116 212.727 214.006 188.716 210.413Z" fill="white"/>
<path d="M212.007 222.485C201.272 222.485 193.893 215.226 190.178 210.415C214.189 214.008 231.087 211.116 234.217 210.504C230.298 215.316 222.674 222.485 212.007 222.485Z" fill="white"/>
<path d="M212.007 222.485C201.272 222.485 190.317 219.66 188.717 210.415C212.727 214.008 231.087 211.116 234.217 210.504C230.298 215.316 222.674 222.485 212.007 222.485Z" fill="url(#paint22_linear)"/>
<path d="M255.195 258.292C257.655 254.614 258.682 246.941 252.908 245.127C248.129 243.627 183.906 242.496 161.893 242.151C157.309 242.078 154.513 242.04 154.513 242.04C154.513 242.04 149.58 242.988 147.836 245.911C146.093 248.833 142.9 258.988 143.561 261.975C144.12 264.501 158.417 266.459 167.765 266.521C170.372 266.411 172.283 266.365 172.283 266.365C171.895 266.402 171.461 266.427 171.024 266.451C170.041 266.507 168.943 266.529 167.765 266.519C162.63 266.735 152.589 264.018 150.908 264.906C148.373 266.246 145.33 263.39 150.191 273.098C155.052 282.806 200.064 327.468 204.07 325.837C206.565 324.821 246.404 281.789 249.668 269.775C250.969 264.985 251.452 265.003 251.452 265.003C251.452 265.003 249.175 262.59 245.945 263.105C245.947 263.107 252.734 261.97 255.195 258.292Z" fill="#04B0A0"/>
<path d="M239.197 260.786L157.487 256.937L154.513 242.043C154.513 242.043 148.857 241.242 146.564 248.58C144.27 255.917 143.56 261.978 143.56 261.978C143.56 261.978 147.406 267.594 171.023 266.456C194.639 265.315 239.197 260.786 239.197 260.786Z" fill="#02857A"/>
<path d="M210.529 271.215L151.872 271.812C151.872 271.812 148.514 273.593 155.055 274.796C161.598 275.999 210.529 271.215 210.529 271.215Z" fill="#02857A"/>
<path d="M182.084 174.332C182.084 175.488 182.674 176.426 183.404 176.426C184.133 176.426 184.724 175.488 184.724 174.332C184.724 173.175 183.404 165.318 183.404 165.318C183.404 165.318 182.084 173.175 182.084 174.332Z" fill="#CCEAEF"/>
<path d="M184.724 147.84C184.724 146.683 184.133 145.746 183.404 145.746C182.674 145.746 182.084 146.683 182.084 147.84C182.084 148.996 183.404 156.853 183.404 156.853C183.404 156.853 184.724 148.996 184.724 147.84Z" fill="#CCEAEF"/>
<path d="M196.933 162.377C198.114 162.377 199.072 161.799 199.072 161.085C199.072 160.371 198.114 159.793 196.933 159.793C195.751 159.793 187.726 161.085 187.726 161.085C187.726 161.085 195.751 162.377 196.933 162.377Z" fill="#CCEAEF"/>
<path d="M169.874 159.793C168.693 159.793 167.735 160.371 167.735 161.085C167.735 161.799 168.693 162.377 169.874 162.377C171.056 162.377 179.081 161.085 179.081 161.085C179.081 161.085 171.056 159.793 169.874 159.793Z" fill="#CCEAEF"/>
<path d="M192.037 171.365C192.872 172.183 193.968 172.437 194.483 171.933C194.998 171.429 194.739 170.357 193.904 169.538C193.069 168.719 186.459 164.077 186.459 164.077C186.459 164.077 191.202 170.548 192.037 171.365Z" fill="#CCEAEF"/>
<path d="M174.77 150.806C173.935 149.988 172.839 149.734 172.324 150.238C171.809 150.742 172.069 151.814 172.904 152.633C173.738 153.45 180.348 158.094 180.348 158.094C180.348 158.094 175.605 151.624 174.77 150.806Z" fill="#CCEAEF"/>
<path d="M193.904 152.633C194.739 151.816 194.998 150.742 194.483 150.238C193.968 149.734 192.873 149.988 192.037 150.806C191.202 151.623 186.459 158.094 186.459 158.094C186.459 158.094 193.067 153.45 193.904 152.633Z" fill="#CCEAEF"/>
<path d="M172.904 169.538C172.069 170.355 171.809 171.429 172.324 171.933C172.839 172.437 173.934 172.183 174.77 171.365C175.605 170.548 180.348 164.077 180.348 164.077C180.348 164.077 173.738 168.721 172.904 169.538Z" fill="#CCEAEF"/>
<path d="M368.23 171.101C368.23 171.101 361.197 174.371 346.261 182.03C331.326 189.69 328.711 195.639 328.711 195.639C328.711 195.639 321.983 205.475 328.36 212.18C334.736 218.885 346.962 239.54 366.39 226.087C385.82 212.634 403.473 189.784 396.484 183.511C389.495 177.237 380.063 163.835 368.23 171.101Z" fill="url(#paint23_linear)"/>
<path d="M339.348 201.856C325.824 198.908 313.126 166.588 313.126 166.588C313.126 166.588 329.029 141.149 332.312 142.332C335.594 143.515 371.286 169.594 374.109 177.716C376.931 185.838 352.872 204.805 339.348 201.856Z" fill="url(#paint24_linear)"/>
<path d="M386.063 193.882C389.229 193.882 391.796 191.369 391.796 188.269C391.796 185.169 389.229 182.656 386.063 182.656C382.896 182.656 380.329 185.169 380.329 188.269C380.329 191.369 382.896 193.882 386.063 193.882Z" fill="#918344"/>
<path d="M337.256 140.031L350.875 148.15C350.875 148.15 352.709 166.404 342.757 170.87C332.805 175.336 317.352 178.412 314.21 177.643C311.067 176.873 310.866 165.943 310.866 165.943C310.866 165.943 334.112 153.956 337.256 140.031Z" fill="#E45266"/>
<path d="M310.595 163.411C311.407 163.202 326.952 162.151 330.937 158.093C334.922 154.036 342.757 170.871 342.757 170.871C342.757 170.871 321.543 180.465 314.21 177.644C306.878 174.824 310.595 163.411 310.595 163.411Z" fill="#C5334D"/>
<path d="M338.244 138.27C338.244 138.27 311.498 118.138 290.863 106.472C270.228 94.8058 249.587 96.5237 239.305 96.7257C229.022 96.9293 213.121 93.8821 212.465 99.8408C211.81 105.8 213.039 114.822 220.384 114.725C227.729 114.627 232.054 116.261 232.054 116.261C232.054 116.261 223.646 115.598 224.07 118.09C224.493 120.582 229.011 127.974 229.011 127.974L234.056 129.295L240.146 135.689C240.146 135.689 260.004 133.838 261.878 133.715C263.753 133.592 267.459 131.453 267.459 131.453C267.459 131.453 248.871 136.724 249.126 140.454C249.381 144.184 253.486 146.599 253.486 146.599H264.66C264.66 146.599 277.948 163.7 281.571 165.942C285.195 168.183 308.853 165.137 310.864 165.942C312.877 166.747 312.877 166.747 312.877 166.747C312.877 166.747 340.281 168.673 338.244 138.27Z" fill="url(#paint25_linear)"/>
<path d="M315.518 161.085C315.518 161.085 304.255 159.403 301.113 154.036C297.97 148.67 296.66 142.29 296.66 142.29L290.976 140.032C290.976 140.032 275.86 145.899 271.986 145.748C268.113 145.595 264.657 146.605 264.657 146.605C264.657 146.605 279.112 154.018 287.755 158.14C296.4 162.261 308.447 166.834 315.518 161.085Z" fill="#AF6632"/>
<path d="M334.92 154.036C334.92 154.036 311.851 140.001 307.922 134.849C303.994 129.695 301.113 131.456 301.113 131.456L290.088 134.473C290.088 134.473 282.256 139.855 277.017 140.032C271.78 140.209 260.524 144.114 258.032 141.008C255.541 137.902 253.139 134.851 253.139 134.851L284.312 123.98C284.312 123.98 257.024 129.941 253.139 129.307C249.255 128.673 244.802 126.463 244.802 126.463V123.98L260.47 119.588C260.47 119.588 247.492 121.995 241.746 121.457C236 120.919 232.053 116.267 232.053 116.267C232.053 116.267 248.463 110.982 252.002 110.468C255.541 109.955 263.978 110.097 266.308 109.512C266.308 109.512 259.283 104.576 253.091 104.701C246.899 104.826 242.767 105.105 235.143 104.324C227.518 103.544 223.131 96.1358 223.131 96.1358C223.131 96.1358 247.976 96.1065 254.8 96.6539C261.622 97.2014 278.953 96.4457 292.21 104.324C306.522 112.829 335.354 136.003 338.246 138.274C338.244 138.271 339.901 147.757 334.92 154.036Z" fill="url(#paint26_linear)"/>
<path d="M303.083 111.511C303.083 111.511 312.375 119.823 312.506 124.311L322.458 133.137C322.458 133.137 324.946 129.659 322.458 125.895C319.969 122.13 303.083 111.511 303.083 111.511Z" fill="#E45266"/>
<path d="M338.246 138.271C338.214 138.246 338.165 138.208 338.127 138.178C338.206 138.254 338.243 138.288 338.249 138.296C338.247 138.288 338.246 138.271 338.246 138.271Z" fill="#E45266"/>
<path opacity="0.5" d="M338.259 138.305L338.249 138.294C338.252 138.311 338.256 138.348 338.266 138.405C338.263 138.346 338.259 138.305 338.259 138.305Z" fill="white"/>
<path d="M232.054 116.264L242.568 112.991C242.568 112.991 224.802 113.326 221.926 111.511C219.05 109.696 213.601 107.822 212.573 103.759C212.573 103.759 212.154 108.88 214.512 111.681C216.868 114.481 216.816 114.637 220.384 114.726C223.95 114.819 232.054 116.264 232.054 116.264Z" fill="#AF6632"/>
<path d="M234.056 129.299C234.056 129.299 230.917 127.538 233.459 127C236.002 126.462 239.391 125.086 239.391 125.086L225.843 122.361L229.009 127.977L234.056 129.299Z" fill="#AF6632"/>
<path d="M258.049 133.137C258.049 133.137 243.055 133.969 241.746 133.883C240.437 133.798 235.362 129.641 234.054 129.298C234.054 129.298 236.683 135.936 239.04 136.875C241.396 137.815 252.41 136.875 252.41 136.875L258.049 133.137Z" fill="#AF6632"/>
<path d="M269.576 261.135L324.133 253.728C324.133 253.728 329.514 271.078 302.075 275.323C275.239 279.476 269.576 261.135 269.576 261.135Z" fill="white"/>
<path d="M100.236 285.598C100.236 285.598 80.109 286.281 74.4541 291.068C68.7977 295.854 48.9758 343.153 48.9349 345.999C48.8939 348.846 50.9889 362.862 50.9889 362.862C50.9889 362.862 43.3068 363.888 43.3068 366.964C43.3068 370.041 47.4967 375.511 46.7989 377.221C46.1011 378.931 13.6244 483.545 12.9266 491.066C12.2288 498.587 6.6417 522.177 17.1165 525.596C27.593 529.015 56.2279 523.199 57.625 512.774C59.0222 502.35 67.7518 469.87 67.054 461.323C66.3562 452.777 102.475 366.152 107.334 358.504C112.19 350.857 117.707 285.938 100.236 285.598Z" fill="url(#paint27_linear)"/>
<path d="M61.4905 502.518L10.8127 509.698L11.6964 500.004L1.88154 502.518C1.88154 502.518 -0.213432 521.492 1.88154 529.697C3.97651 537.903 19.1674 539.954 23.8819 538.415C28.5963 536.876 63.5177 523.031 65.1764 521.492C66.835 519.954 61.4905 502.518 61.4905 502.518Z" fill="url(#paint28_linear)"/>
<path d="M18.5122 530.673C21.6788 530.673 24.2458 528.16 24.2458 525.06C24.2458 521.959 21.6788 519.446 18.5122 519.446C15.3456 519.446 12.7786 521.959 12.7786 525.06C12.7786 528.16 15.3456 530.673 18.5122 530.673Z" fill="#918344"/>
<path d="M309.234 257.86L309.286 257.922L313.432 257.387L309.973 255.627L307.625 255.947L309.234 257.86Z" fill="white"/>
<path d="M302.467 258.803L300.84 256.868L293.037 257.927L292.144 260.135L302.467 258.803Z" fill="white"/>
<path d="M313.67 259.19L309.529 259.725L309.494 259.798L307.004 265.16L313.67 259.19Z" fill="white"/>
<path d="M290.071 260.403L290.958 258.209L284.132 259.136L280.932 261.583L290.071 260.403Z" fill="white"/>
<path d="M290.313 262.205L281.177 263.384L295.814 269.451L290.313 262.205Z" fill="white"/>
<path d="M302.702 260.606L292.386 261.938L298.403 269.866L302.702 260.606Z" fill="white"/>
<path d="M299.068 272.761L305.293 259.348L302.965 256.581L300.84 256.869L302.467 258.803L292.143 260.136L293.035 257.927L290.956 258.21L290.069 260.402L280.93 261.582L284.131 259.136L280.484 259.631L275.88 263.15L299.068 272.761ZM302.702 260.604L298.405 269.865L292.388 261.935L302.702 260.604ZM290.313 262.204L295.812 269.448L281.176 263.383L290.313 262.204Z" fill="#2F364B"/>
<path d="M307.845 259.027L301.618 272.428L318.056 257.71L313.128 255.204L309.973 255.632L313.432 257.392L309.286 257.927L309.234 257.865L307.624 255.952L305.499 256.24L307.845 259.027ZM309.494 259.798L309.527 259.725L313.668 259.19L307.002 265.16L309.494 259.798Z" fill="#2F364B"/>
<defs>
<linearGradient id="paint0_linear" x1="60.813" y1="525.016" x2="13.5272" y2="525.016" gradientUnits="userSpaceOnUse">
<stop offset="0.5426" stop-color="#F4DEB6"/>
<stop offset="1" stop-color="#D7B783"/>
</linearGradient>
<linearGradient id="paint1_linear" x1="196.401" y1="512.775" x2="294.773" y2="512.775" gradientUnits="userSpaceOnUse">
<stop stop-color="#01ABCE"/>
<stop offset="0.8935" stop-color="#21478B"/>
</linearGradient>
<linearGradient id="paint2_linear" x1="231.963" y1="512.773" x2="95.994" y2="512.773" gradientUnits="userSpaceOnUse">
<stop stop-color="#01ABCE"/>
<stop offset="0.8935" stop-color="#21478B"/>
</linearGradient>
<linearGradient id="paint3_linear" x1="248.434" y1="496.347" x2="248.434" y2="466.917" gradientUnits="userSpaceOnUse">
<stop stop-color="#FEC55B"/>
<stop offset="1" stop-color="#F69022"/>
</linearGradient>
<linearGradient id="paint4_linear" x1="197.966" y1="496.347" x2="197.966" y2="475.979" gradientUnits="userSpaceOnUse">
<stop stop-color="#FEC55B"/>
<stop offset="1" stop-color="#F69022"/>
</linearGradient>
<linearGradient id="paint5_linear" x1="143.605" y1="496.348" x2="143.605" y2="466.918" gradientUnits="userSpaceOnUse">
<stop stop-color="#FEC55B"/>
<stop offset="1" stop-color="#F69022"/>
</linearGradient>
<linearGradient id="paint6_linear" x1="94.9955" y1="245.237" x2="45.3918" y2="248.131" gradientUnits="userSpaceOnUse">
<stop stop-color="#E88269"/>
<stop offset="1" stop-color="#E45266"/>
</linearGradient>
<linearGradient id="paint7_linear" x1="75.5281" y1="196.9" x2="38.024" y2="199.087" gradientUnits="userSpaceOnUse">
<stop stop-color="#E88269"/>
<stop offset="1" stop-color="#E45266"/>
</linearGradient>
<linearGradient id="paint8_linear" x1="208.567" y1="369.696" x2="208.567" y2="509.306" gradientUnits="userSpaceOnUse">
<stop stop-color="#B2DCD5"/>
<stop offset="1" stop-color="#07B1A1"/>
</linearGradient>
<linearGradient id="paint9_linear" x1="212.058" y1="410.768" x2="289.633" y2="410.768" gradientUnits="userSpaceOnUse">
<stop stop-color="#01ABCE"/>
<stop offset="0.8935" stop-color="#21478B"/>
</linearGradient>
<linearGradient id="paint10_linear" x1="180.419" y1="410.768" x2="102.844" y2="410.768" gradientUnits="userSpaceOnUse">
<stop stop-color="#01ABCE"/>
<stop offset="0.8935" stop-color="#21478B"/>
</linearGradient>
<linearGradient id="paint11_linear" x1="434.78" y1="250.331" x2="272.231" y2="334.511" gradientUnits="userSpaceOnUse">
<stop stop-color="#01ABCE"/>
<stop offset="0.8935" stop-color="#21478B"/>
</linearGradient>
<linearGradient id="paint12_linear" x1="265.814" y1="300.204" x2="415.64" y2="222.624" gradientUnits="userSpaceOnUse">
<stop stop-color="#B2DCD5"/>
<stop offset="1" stop-color="#07B1A1"/>
</linearGradient>
<linearGradient id="paint13_linear" x1="194.958" y1="259.939" x2="194.958" y2="222.973" gradientUnits="userSpaceOnUse">
<stop stop-color="#F4DEB6"/>
<stop offset="1" stop-color="#B28946"/>
</linearGradient>
<linearGradient id="paint14_linear" x1="271.987" y1="181.015" x2="271.987" y2="137.355" gradientUnits="userSpaceOnUse">
<stop stop-color="#0265A6"/>
<stop offset="1" stop-color="#253B76"/>
</linearGradient>
<linearGradient id="paint15_linear" x1="136.981" y1="106.49" x2="93.7682" y2="-21.7908" gradientUnits="userSpaceOnUse">
<stop stop-color="#01ABCE"/>
<stop offset="1" stop-color="#21478B"/>
</linearGradient>
<linearGradient id="paint16_linear" x1="123.14" y1="114.98" x2="28.2512" y2="-166.703" gradientUnits="userSpaceOnUse">
<stop stop-color="#0265A6"/>
<stop offset="1" stop-color="#253B76"/>
</linearGradient>
<linearGradient id="paint17_linear" x1="202.924" y1="253.032" x2="202.924" y2="122.359" gradientUnits="userSpaceOnUse">
<stop offset="0.7985" stop-color="#F4DEB6"/>
<stop offset="1" stop-color="#B28946"/>
</linearGradient>
<linearGradient id="paint18_linear" x1="275.005" y1="131.912" x2="228.187" y2="179.49" gradientUnits="userSpaceOnUse">
<stop stop-color="#01ABCE"/>
<stop offset="1" stop-color="#21478B"/>
</linearGradient>
<linearGradient id="paint19_linear" x1="173.089" y1="181.504" x2="173.089" y2="61.5525" gradientUnits="userSpaceOnUse">
<stop stop-color="#0265A6"/>
<stop offset="1" stop-color="#253B76"/>
</linearGradient>
<linearGradient id="paint20_linear" x1="126.334" y1="206.496" x2="126.334" y2="166.439" gradientUnits="userSpaceOnUse">
<stop offset="0.3743" stop-color="#F4DEB6"/>
<stop offset="1" stop-color="#D7B783"/>
</linearGradient>
<linearGradient id="paint21_linear" x1="223.67" y1="169.731" x2="223.67" y2="-19.2646" gradientUnits="userSpaceOnUse">
<stop stop-color="#01ABCE"/>
<stop offset="0.8935" stop-color="#21478B"/>
</linearGradient>
<linearGradient id="paint22_linear" x1="211.466" y1="222.63" x2="211.466" y2="210.378" gradientUnits="userSpaceOnUse">
<stop stop-color="#E88269"/>
<stop offset="1" stop-color="#E45266"/>
</linearGradient>
<linearGradient id="paint23_linear" x1="372.777" y1="167.305" x2="349.782" y2="230.19" gradientUnits="userSpaceOnUse">
<stop stop-color="#0265A6"/>
<stop offset="1" stop-color="#253B76"/>
</linearGradient>
<linearGradient id="paint24_linear" x1="356.838" y1="159.025" x2="325.432" y2="191.105" gradientUnits="userSpaceOnUse">
<stop offset="0.5426" stop-color="#F4DEB6"/>
<stop offset="1" stop-color="#D7B783"/>
</linearGradient>
<linearGradient id="paint25_linear" x1="212.312" y1="131.455" x2="338.353" y2="131.455" gradientUnits="userSpaceOnUse">
<stop stop-color="#FEC55B"/>
<stop offset="1" stop-color="#F69022"/>
</linearGradient>
<linearGradient id="paint26_linear" x1="223.13" y1="125.085" x2="338.509" y2="125.085" gradientUnits="userSpaceOnUse">
<stop stop-color="#01ABCE"/>
<stop offset="0.8935" stop-color="#21478B"/>
</linearGradient>
<linearGradient id="paint27_linear" x1="144.491" y1="338.767" x2="-18.0282" y2="478.059" gradientUnits="userSpaceOnUse">
<stop offset="0.1862" stop-color="#B2DCD5"/>
<stop offset="1" stop-color="#07B1A1"/>
</linearGradient>
<linearGradient id="paint28_linear" x1="33.224" y1="500.004" x2="33.224" y2="538.887" gradientUnits="userSpaceOnUse">
<stop stop-color="#0265A6"/>
<stop offset="1" stop-color="#253B76"/>
</linearGradient>
</defs>
</svg>
