<svg width="191" height="304" viewBox="0 0 191 304" fill="none" xmlns="http://www.w3.org/2000/svg">
<path d="M186.714 158.865L105.06 17.187L95.152 0L85.2444 17.187L3.58964 158.861L0 165.087L4.06216 171.017L85.7207 290.225L95.152 303.996L104.583 290.225L186.238 171.017L190.3 165.087L186.714 158.865ZM117.242 199.869C116.88 199.408 116.332 199.138 115.741 199.138H41.719L96.8668 86.7309L96.0514 86.3311H127.287L82.5616 161.995C82.2149 162.585 82.2073 163.313 82.5464 163.907C82.8856 164.501 83.5181 164.866 84.204 164.866H147.312L101.985 264.211L117.593 201.503C117.734 200.935 117.604 200.333 117.242 199.869ZM42.9537 187.968L61.2753 86.3311H92.8161L42.9537 187.968ZM174.787 161.058H87.5384L131.711 86.3272L174.787 161.058ZM173.221 164.866L106.382 263.761L151.504 164.866H173.221ZM95.152 22.8881L129.524 82.5227H60.7799L95.152 22.8881ZM56.8626 89.3206L37.0929 199.016L13.4935 164.566L56.8626 89.3206ZM39.787 202.946H113.306L93.7116 281.672L39.787 202.946Z" fill="#2F354B"/>
</svg>
