<svg width="278" height="445" viewBox="0 0 278 445" fill="none" xmlns="http://www.w3.org/2000/svg">
<path d="M272.642 232.069L153.409 25.1067L138.948 0L124.481 25.1067L5.24727 232.063L0.00585938 241.159L5.93727 249.821L125.171 423.96L138.948 444.077L152.725 423.96L271.952 249.821L277.884 241.159L272.642 232.069ZM57.3943 295.428H129.322L121.009 310.031H67.3985L57.3943 295.428ZM138.948 278.521L105.947 220.575L138.948 162.629L171.949 220.57L138.948 278.521ZM178.347 231.813L208.243 284.302H148.457L178.347 231.813ZM144.083 310.031H133.801L138.942 301.008L144.083 310.031ZM129.433 284.302H69.6465L99.5369 231.818L129.433 284.302ZM138.948 414.536L75.0103 321.158H114.671H163.23H202.885L138.948 414.536ZM210.497 310.031H156.886L148.568 295.428H220.496L224.251 289.937L184.746 220.57L197.226 198.656L237.878 270.032L244.866 259.824L197.226 176.17L178.347 209.326L138.942 140.137L99.5369 209.326L80.6523 176.17L33.0123 259.824L40.0008 270.032L80.6468 198.656L93.1271 220.57L53.6218 289.937L19.6973 240.391L138.948 33.4348L258.176 240.391L210.497 310.031Z" fill="#2F354B"/>
</svg>
