<svg width="278" height="445" viewBox="0 0 278 445" fill="none" xmlns="http://www.w3.org/2000/svg">
<path d="M138.942 0L0 241.159L138.942 444.077L277.878 241.159L138.942 0ZM68.8228 155.591H182.231V186.973H125.66V239.418H107.243L87.5404 260.052V239.418H68.8228V155.591ZM193.359 250.544V198.1H213.919V281.921H195.195V302.549L175.498 281.921H136.789V250.539H193.359V250.544ZM136.789 239.418V198.1H182.231V239.418H136.789ZM138.942 414.536L19.7083 240.397L57.6945 174.467V250.544H76.4122V287.818L112 250.544H125.655V293.052H170.735L200.659 324.396L138.942 414.536ZM206.324 316.123V293.047H222.12L206.324 316.123ZM225.047 288.774V186.973H193.359V144.465H74.9767L138.942 33.4348L258.17 240.391L225.047 288.774Z" fill="#2F354B"/>
<path d="M138.942 314.261C125.06 314.261 113.77 325.554 113.77 339.429C113.77 353.303 125.06 364.596 138.942 364.596C152.824 364.596 164.114 353.303 164.114 339.429C164.114 325.554 152.824 314.261 138.942 314.261ZM138.942 353.476C131.197 353.476 124.898 347.178 124.898 339.434C124.898 331.69 131.202 325.393 138.942 325.393C146.682 325.393 152.986 331.69 152.986 339.434C152.986 347.178 146.682 353.476 138.942 353.476Z" fill="#2F354B"/>
<path d="M113.764 107.263C113.764 121.143 125.054 132.431 138.936 132.431C152.819 132.431 164.109 121.138 164.109 107.263C164.109 93.3886 152.819 82.0954 138.936 82.0954C125.054 82.0954 113.764 93.3886 113.764 107.263ZM152.986 107.263C152.986 115.007 146.682 121.305 138.942 121.305C131.202 121.305 124.898 115.007 124.898 107.263C124.898 99.5193 131.202 93.2217 138.942 93.2217C146.682 93.2217 152.986 99.5193 152.986 107.263Z" fill="#2F354B"/>
</svg>
