<svg width="279" height="444" viewBox="0 0 279 444" fill="none" xmlns="http://www.w3.org/2000/svg">
<path d="M139 0L0 241.114L139.006 443.994L278.006 241.114L139 0ZM139 33.4286L175.44 96.6371H102.566L139 33.4286ZM86.6454 338.041H191.355L181.234 352.814H96.7656L86.6454 338.041ZM139 414.459L104.386 363.938H173.608L139 414.459ZM198.975 326.916H79.0246L19.7172 240.352L96.1533 107.761H181.852L258.288 240.352L198.975 326.916Z" fill="#2F354B"/>
<path d="M190.386 186.592C190.386 157.502 166.7 133.835 137.586 133.835C108.472 133.835 84.7862 157.502 84.7862 186.592C84.7862 189.568 85.0924 192.465 85.5711 195.308C65.5422 202.811 51.2247 222.079 51.2247 244.678C51.2247 273.768 74.9109 297.435 104.025 297.435C116.761 297.435 128.457 292.907 137.586 285.376C146.716 292.907 158.411 297.435 171.148 297.435C200.261 297.435 223.948 273.768 223.948 244.678C223.948 222.079 209.63 202.811 189.601 195.308C190.08 192.471 190.386 189.568 190.386 186.592ZM95.914 186.592C95.914 163.637 114.607 144.959 137.581 144.959C160.554 144.959 179.247 163.637 179.247 186.592C179.247 188.617 179.052 190.586 178.774 192.532C176.275 192.171 173.742 191.915 171.142 191.915C158.406 191.915 146.71 196.442 137.581 203.974C128.451 196.442 116.756 191.915 104.019 191.915C101.419 191.915 98.8866 192.165 96.3872 192.532C96.1089 190.591 95.914 188.617 95.914 186.592ZM145.691 244.678C145.691 253.872 142.657 262.349 137.586 269.246C132.515 262.349 129.481 253.872 129.481 244.678C129.481 242.653 129.676 240.684 129.954 238.737C132.454 239.099 134.987 239.355 137.586 239.355C140.186 239.355 142.719 239.104 145.218 238.737C145.496 240.684 145.691 242.659 145.691 244.678ZM137.586 228.23C136.039 228.23 134.519 228.13 133.016 227.969C134.246 225.171 135.799 222.551 137.586 220.115C139.379 222.551 140.926 225.171 142.156 227.969C140.653 228.13 139.128 228.23 137.586 228.23ZM122.111 225.221C111.991 221.161 103.83 213.257 99.4489 203.312C100.952 203.145 102.472 203.05 104.019 203.05C113.739 203.05 122.667 206.421 129.765 212.017C126.609 215.988 124.026 220.432 122.111 225.221ZM145.402 212.005C152.499 206.41 161.428 203.039 171.148 203.039C172.695 203.039 174.215 203.139 175.718 203.301C171.337 213.246 163.176 221.15 153.056 225.21C151.147 220.432 148.558 215.988 145.402 212.005ZM62.3525 244.678C62.3525 227.185 73.2187 212.206 88.5493 206.054C94.0492 219.837 105.194 230.744 119.127 235.962C118.654 238.804 118.342 241.702 118.342 244.678C118.342 257.014 122.634 268.356 129.765 277.35C122.667 282.945 113.739 286.316 104.019 286.316C81.0454 286.316 62.3525 267.638 62.3525 244.678ZM212.814 244.678C212.814 267.633 194.121 286.31 171.148 286.31C161.428 286.31 152.499 282.94 145.402 277.344C152.533 268.35 156.825 257.014 156.825 244.672C156.825 241.696 156.518 238.798 156.04 235.956C169.973 230.739 181.118 219.831 186.617 206.048C201.948 212.206 212.814 227.185 212.814 244.678Z" fill="#2F354B"/>
</svg>
