<svg width="606" height="600" viewBox="0 0 606 600" fill="none" xmlns="http://www.w3.org/2000/svg">
<path d="M302.875 0L0 300L302.875 600V0Z" fill="#2F354B"/>
<path d="M302.875 0L0 300L302.875 600V0Z" fill="url(#paint0_linear_5868:60338)"/>
<path d="M302.876 0V600L605.751 300L302.876 0Z" fill="url(#paint1_linear_5868:60338)"/>
<path d="M302.875 562.756V37.2507L37.6045 300.003L302.875 562.756Z" fill="url(#paint2_linear_5868:60338)"/>
<path d="M568.147 300.003L302.876 37.2507V562.756L568.147 300.003Z" fill="url(#paint3_linear_5868:60338)"/>
<path d="M454.975 301.145L455.686 300.003L454.975 298.949L454.001 300.003L454.975 301.145Z" fill="#D5D7DB" stroke="#2F354B" stroke-width="0.5" stroke-miterlimit="10"/>
<path d="M150.683 298.949L150.062 300.003L150.683 301.145L151.658 300.003L150.683 298.949Z" fill="#D5D7DB"/>
<path d="M150.328 304.831L147.579 299.999L150.417 295.08L154.674 299.999L150.328 304.831Z" fill="#2F354B"/>
<path opacity="0.4" d="M454.976 301.147L454.002 300.005C435.022 321.145 411.738 338.064 385.683 349.651C359.627 361.237 331.392 367.227 302.831 367.227C274.27 367.227 246.032 361.237 219.977 349.651C193.921 338.064 170.637 321.145 151.658 300.005L150.684 301.147L302.874 562.758L454.976 301.147Z" fill="#86C340"/>
<path d="M302.875 566.968L148.023 300.702L151.658 296.573L153.343 298.418C172.13 319.306 195.165 336.022 220.936 347.468C246.707 358.914 274.632 364.832 302.875 364.832C331.118 364.832 359.042 358.914 384.813 347.468C410.584 336.022 433.619 319.306 452.406 298.418L454.002 296.573L457.46 300.438L456.93 302.02L302.875 566.968ZM158.754 310.629L302.875 558.359L446.907 310.629C408.585 348.272 356.802 369.393 302.831 369.393C248.861 369.393 197.075 348.272 158.754 310.629Z" fill="#2F354B"/>
<path opacity="0.4" d="M302.874 233.151C331.365 233.16 359.531 239.146 385.518 250.714C411.505 262.282 434.724 279.17 453.647 300.267L454.623 299.213L302.874 37.2507L150.684 298.949L151.658 300.003C170.669 278.917 193.974 262.057 220.037 250.534C246.101 239.012 274.332 233.087 302.874 233.151Z" fill="#86C340"/>
<path d="M454.004 303.425L452.409 301.58C433.622 280.691 410.586 263.975 384.815 252.529C359.044 241.083 331.12 235.166 302.877 235.166C274.634 235.166 246.709 241.083 220.939 252.529C195.168 263.975 172.132 280.691 153.345 301.58L151.661 303.425L148.292 299.559L148.822 297.89L302.877 32.9414L457.729 299.296L454.004 303.425ZM303.232 230.775C357.209 230.812 408.994 251.929 447.353 289.545L303.232 41.814L158.756 289.457C197.093 251.809 248.892 230.686 302.877 230.687L303.232 230.775Z" fill="#2F354B"/>
<path d="M302.875 369.394C274.013 369.365 245.483 363.302 219.15 351.6C192.817 339.898 169.275 322.822 150.063 301.488L148.733 299.995L150.063 298.589C169.258 277.235 192.796 260.146 219.133 248.445C245.47 236.743 274.01 230.693 302.875 230.693C331.74 230.693 360.28 236.743 386.617 248.445C412.954 260.146 436.492 277.235 455.687 298.589L457.016 299.995L455.687 301.488C436.475 322.822 412.933 339.898 386.6 351.6C360.267 363.302 331.737 369.365 302.875 369.394ZM154.675 299.995C173.438 320.463 196.315 336.819 221.837 348.012C247.36 359.205 274.963 364.987 302.875 364.987C330.787 364.987 358.39 359.205 383.912 348.012C409.435 336.819 432.312 320.463 451.075 299.995C432.298 279.55 409.416 263.216 383.895 252.038C358.375 240.861 330.779 235.088 302.875 235.088C274.971 235.088 247.375 240.861 221.855 252.038C196.334 263.216 173.452 279.55 154.675 299.995Z" fill="#2F354B"/>
<path opacity="0.2" d="M150.331 295.167L296.846 43.2197L112.016 226.294C120.063 251.536 133.086 274.945 150.331 295.167Z" fill="#86C340"/>
<path opacity="0.2" d="M455.42 295.166C472.67 274.962 485.667 251.546 493.646 226.293L308.905 43.3066L455.42 295.166Z" fill="#86C340"/>
<path d="M454.977 298.945L302.875 37.3342L150.685 298.945C132.47 278.289 118.707 254.164 110.242 228.052L108.557 229.809C117.121 255.713 130.909 279.622 149.087 300.087L151.126 302.371L302.875 41.4631L454.624 302.371L456.664 300.087C474.842 279.622 488.629 255.713 497.194 229.809L495.509 228.052C487.047 254.185 473.25 278.315 454.977 298.945Z" fill="#2F354B"/>
<path d="M302.875 37.3342L296.844 43.3079L150.329 295.255C133.085 275.033 120.062 251.624 112.015 226.383L110.241 228.139C118.707 254.252 132.47 278.376 150.684 299.033L302.875 37.3342Z" fill="#2F354B"/>
<path d="M455.422 295.167L308.906 43.3079L302.876 37.3342L454.978 298.945C473.251 278.315 487.048 254.185 495.51 228.052L493.647 226.295C485.669 251.547 472.672 274.964 455.422 295.167Z" fill="#2F354B"/>
<path d="M302.875 32.8579L296.844 43.2239L302.875 37.2503V37.3381L308.995 43.3118L302.875 32.8579Z" fill="#2F354B"/>
<path opacity="0.2" d="M455.331 304.918L308.905 556.778L493.646 373.703C485.699 348.446 472.665 325.046 455.331 304.918Z" fill="#86C340"/>
<path opacity="0.2" d="M150.331 304.918C133.051 325.116 120.024 348.533 112.016 373.791L296.846 556.778L150.331 304.918Z" fill="#86C340"/>
<path d="M150.685 301.143L302.875 562.753L454.977 301.143C473.23 321.754 487.024 345.851 495.509 371.948L497.194 370.279C488.62 344.379 474.833 320.471 456.664 300.001L454.624 297.717L302.875 558.185L151.126 297.189L149.087 299.474C130.917 319.944 117.13 343.852 108.557 369.752L110.242 371.421C118.802 345.534 132.559 321.629 150.685 301.143Z" fill="#2F354B"/>
<path d="M302.876 562.753L308.906 556.779L455.333 304.92C472.677 325.073 485.712 348.504 493.647 373.792L495.51 371.947C487.025 345.851 473.23 321.753 454.978 301.142L302.876 562.753Z" fill="#2F354B"/>
<path d="M150.329 304.92L296.844 556.779L302.875 562.753L150.684 301.142C132.496 321.784 118.736 345.874 110.241 371.947L112.015 373.792C120.022 348.534 133.05 325.117 150.329 304.92Z" fill="#2F354B"/>
<path d="M302.875 567.144L308.906 556.778L302.875 562.752L296.844 556.778L302.875 567.144Z" fill="#2F354B"/>
<path d="M393.338 126.856L199.463 460.326L212.412 473.152L406.287 139.77L393.338 126.856Z" fill="#2F354B"/>
<path d="M302.875 261.082C295.08 261.065 287.454 263.34 280.965 267.619C274.476 271.898 269.415 277.989 266.423 285.12C263.432 292.25 262.644 300.1 264.16 307.674C265.677 315.249 269.429 322.207 274.941 327.667C280.454 333.127 287.479 336.843 295.126 338.346C302.773 339.848 310.699 339.068 317.898 336.105C325.097 333.142 331.244 328.129 335.565 321.701C339.885 315.274 342.182 307.72 342.164 299.999C342.164 289.677 338.026 279.779 330.658 272.481C323.29 265.182 313.296 261.082 302.875 261.082Z" fill="#98C94A"/>
<path d="M302.875 243.512C291.571 243.494 280.517 246.8 271.11 253.009C261.704 259.219 254.37 268.054 250.036 278.395C245.702 288.736 244.563 300.118 246.764 311.101C248.965 322.083 254.406 332.172 262.399 340.089C270.393 348.007 280.578 353.396 291.665 355.577C302.753 357.757 314.243 356.629 324.684 352.336C335.124 348.043 344.045 340.778 350.314 331.461C356.583 322.144 359.919 311.194 359.902 299.998C359.855 285.031 353.831 270.69 343.147 260.107C332.462 249.524 317.985 243.558 302.875 243.512ZM302.875 339.002C295.083 339.019 287.461 336.747 280.973 332.471C274.486 328.196 269.425 322.111 266.431 314.985C263.437 307.859 262.644 300.014 264.153 292.442C265.663 284.87 269.407 277.912 274.91 272.449C280.414 266.985 287.43 263.261 295.071 261.749C302.712 260.237 310.634 261.004 317.835 263.954C325.035 266.903 331.19 271.903 335.521 278.319C339.852 284.735 342.164 292.28 342.164 299.998C342.164 310.327 338.028 320.235 330.662 327.547C323.296 334.859 313.303 338.979 302.875 339.002Z" fill="#2F354B"/>
<path d="M302.875 565.91L34.5894 299.995L302.964 34.168L571.339 299.995L302.875 565.91ZM40.7084 299.995L302.875 559.673L564.954 299.995L302.875 40.4051L40.7084 299.995Z" fill="#2F354B"/>
<defs>
<linearGradient id="paint0_linear_5868:60338" x1="151.482" y1="0" x2="151.482" y2="600" gradientUnits="userSpaceOnUse">
<stop stop-color="#B1DCD4"/>
<stop offset="1" stop-color="#00B1A1"/>
</linearGradient>
<linearGradient id="paint1_linear_5868:60338" x1="454.358" y1="0" x2="454.358" y2="600" gradientUnits="userSpaceOnUse">
<stop stop-color="#00B3A3"/>
<stop offset="1" stop-color="#577787"/>
</linearGradient>
<linearGradient id="paint2_linear_5868:60338" x1="5130.8" y1="2265.39" x2="5130.8" y2="33701.1" gradientUnits="userSpaceOnUse">
<stop stop-color="#B1DCD4"/>
<stop offset="1" stop-color="#00B1A1"/>
</linearGradient>
<linearGradient id="paint3_linear_5868:60338" x1="13330.3" y1="2265.39" x2="13330.3" y2="33701.1" gradientUnits="userSpaceOnUse">
<stop stop-color="#00B3A3"/>
<stop offset="1" stop-color="#577787"/>
</linearGradient>
</defs>
</svg>
