<svg width="606" height="600" viewBox="0 0 606 600" fill="none" xmlns="http://www.w3.org/2000/svg">
<path d="M303.319 0L0 300.439L303.319 600V0Z" fill="#2F364B"/>
<path d="M303.319 0L0 300.439L303.319 600V0Z" fill="url(#paint0_linear_5868:60246)"/>
<path d="M303.317 0V600L605.749 300.439L303.317 0Z" fill="url(#paint1_linear_5868:60246)"/>
<path d="M303.318 563.105V36.8975L37.249 300.441L303.318 563.105Z" fill="url(#paint2_linear_5868:60246)"/>
<path d="M568.499 300.441L303.317 36.8975V563.105L568.499 300.441Z" fill="url(#paint3_linear_5868:60246)"/>
<path opacity="0.2" d="M415.956 379.5C384.027 328.548 386.688 260.027 422.164 211.711C414.182 200.291 403.539 190.627 392.896 182.721C340.569 220.495 266.07 220.495 213.743 182.721C202.214 190.627 192.458 201.169 184.476 211.711C222.612 263.541 222.612 337.333 184.476 389.163C192.458 400.583 203.1 410.247 213.743 418.153C266.07 380.378 340.569 380.378 392.896 418.153C404.426 410.247 414.182 399.705 422.164 389.163C419.503 385.649 417.729 382.135 415.956 379.5Z" fill="#04B3A3"/>
<path opacity="0.2" d="M213.742 176.57C266.069 138.796 340.569 138.796 392.895 176.57C402.651 169.542 411.52 160.758 418.615 151.973L303.319 37.7708L188.022 151.973C195.118 160.758 203.1 169.542 213.742 176.57Z" fill="#04B3A3"/>
<path opacity="0.6" d="M220.837 181.849C270.503 215.231 339.681 214.353 388.46 179.214C338.794 143.196 266.955 143.196 217.289 179.214C218.176 180.092 219.95 180.971 220.837 181.849Z" fill="#04B3A3"/>
<path d="M217.289 179.211C218.176 180.09 219.95 180.968 220.837 181.847C219.95 180.968 218.176 180.09 217.289 179.211Z" fill="#B4B7BF"/>
<path d="M384.914 181.847C385.8 180.968 387.574 180.09 388.461 179.211C387.574 180.09 385.8 180.968 384.914 181.847Z" fill="#B4B7BF"/>
<path d="M220.837 176.572C219.95 177.45 218.176 178.329 217.289 179.207C218.176 178.329 219.95 177.45 220.837 176.572Z" fill="#B4B7BF"/>
<path d="M388.461 179.207C387.574 178.329 385.8 177.45 384.914 176.572C385.8 177.45 387.574 178.329 388.461 179.207Z" fill="#B4B7BF"/>
<path opacity="0.2" d="M392.006 423.429C339.679 461.204 265.18 461.204 212.853 423.429C203.097 430.457 195.115 439.242 187.133 448.027L302.429 562.229L417.726 448.027C410.631 439.242 402.649 430.457 392.006 423.429Z" fill="#04B3A3"/>
<path opacity="0.6" d="M384.912 418.154C335.246 384.772 266.068 385.651 217.289 420.79C266.955 456.807 338.794 456.807 388.46 420.79C387.573 419.911 385.799 419.033 384.912 418.154Z" fill="#04B3A3"/>
<path d="M220.839 418.15C219.065 419.029 218.178 419.907 216.404 420.786C218.178 419.907 219.952 419.029 220.839 418.15Z" fill="#B4B7BF"/>
<path d="M388.462 420.786C387.575 419.907 385.801 419.029 384.027 418.15C385.801 419.029 387.575 419.907 388.462 420.786Z" fill="#B4B7BF"/>
<path d="M217.289 420.793C218.176 421.671 219.95 422.55 220.837 423.428C219.95 422.55 218.176 421.671 217.289 420.793Z" fill="#B4B7BF"/>
<path d="M384.914 423.428C385.8 422.55 387.574 421.671 388.461 420.793C387.574 421.671 385.8 422.55 384.914 423.428Z" fill="#B4B7BF"/>
<path opacity="0.2" d="M452.318 185.357C443.449 193.263 434.58 201.17 427.485 210.833C465.621 262.663 465.621 336.455 427.485 388.285C434.58 397.949 443.449 406.733 452.318 413.761L567.614 299.559L452.318 185.357Z" fill="#04B3A3"/>
<path opacity="0.6" d="M433.693 370.719C461.187 322.403 457.639 260.031 424.824 215.229C388.461 264.424 388.461 335.58 424.824 384.775C427.485 380.383 431.032 375.99 433.693 370.719Z" fill="#04B3A3"/>
<path d="M422.163 381.263C423.049 383.02 423.936 383.898 424.823 385.655C423.936 383.898 423.049 382.141 422.163 381.263Z" fill="#B4B7BF"/>
<path d="M424.823 215.229C423.936 216.107 423.049 217.864 422.163 219.621C423.049 217.864 423.936 216.107 424.823 215.229Z" fill="#B4B7BF"/>
<path d="M424.824 384.772C425.711 383.894 426.598 382.137 427.485 380.38C426.598 382.137 425.711 383.894 424.824 384.772Z" fill="#B4B7BF"/>
<path d="M427.485 218.743C426.598 217.864 425.711 216.107 424.824 215.229C425.711 216.107 426.598 217.864 427.485 218.743Z" fill="#B4B7BF"/>
<path opacity="0.2" d="M178.266 388.285C140.13 336.455 140.13 262.663 178.266 210.833C171.171 201.17 162.302 192.385 153.433 185.357L38.1367 299.559L153.433 413.761C162.302 406.733 171.171 397.949 178.266 388.285Z" fill="#04B3A3"/>
<path opacity="0.6" d="M189.794 370.719C217.288 322.403 213.741 260.031 180.925 215.229C144.563 264.424 144.563 335.58 180.925 384.775C184.473 380.383 187.134 375.99 189.794 370.719Z" fill="#04B3A3"/>
<path d="M183.586 218.743C182.7 217.864 181.813 216.107 180.926 215.229C181.813 216.107 182.7 217.864 183.586 218.743Z" fill="#B4B7BF"/>
<path d="M180.926 384.777C181.813 383.898 182.7 382.141 183.586 381.263C182.7 382.141 181.813 383.898 180.926 384.777Z" fill="#B4B7BF"/>
<path d="M178.266 381.263C179.153 382.141 180.039 383.898 180.926 384.777C180.039 383.898 179.153 382.141 178.266 381.263Z" fill="#B4B7BF"/>
<path d="M180.926 215.229C180.039 216.107 179.153 217.864 178.266 218.743C179.153 217.864 180.039 216.107 180.926 215.229Z" fill="#B4B7BF"/>
<path d="M424.824 207.324C416.842 196.783 407.086 187.119 396.443 179.213C406.199 172.185 414.181 163.4 422.163 154.616L418.615 151.102C410.633 159.886 402.651 168.671 392.895 175.699C340.568 137.925 266.069 137.925 213.742 175.699C203.986 168.671 195.117 159.886 188.022 151.102L184.475 154.616C191.57 163.4 200.439 172.185 210.195 179.213C199.552 187.119 189.796 196.783 181.814 207.324C174.719 197.661 165.85 189.755 156.981 181.848L153.433 185.362C163.189 193.269 171.171 201.175 178.266 210.838C140.13 262.668 140.13 336.46 178.266 388.291C171.171 397.954 162.302 406.739 153.433 413.766L156.981 417.28C165.85 410.252 174.719 401.468 181.814 391.804C189.796 402.346 199.552 412.009 210.195 419.916C200.439 426.944 192.457 435.728 184.475 444.513L187.135 447.149C195.117 438.364 203.1 429.579 212.855 422.551C265.182 460.326 339.682 460.326 392.008 422.551C401.764 429.579 410.633 438.364 417.728 447.149L420.389 444.513C413.294 435.728 404.425 426.944 394.669 419.916C405.312 412.009 415.068 402.346 423.05 391.804C430.145 401.468 439.014 409.374 447.883 417.28L450.544 414.645C441.675 406.739 432.806 398.832 425.71 389.169C463.847 337.339 463.847 263.547 425.71 211.717C434.579 201.175 443.448 193.269 452.317 185.362L449.657 182.727C439.901 189.755 431.919 198.539 424.824 207.324ZM217.29 179.213C266.956 143.195 338.795 143.195 388.461 179.213C338.795 215.231 266.956 215.231 217.29 179.213ZM180.927 384.777C144.564 335.582 144.564 264.425 180.927 215.231C217.29 264.425 217.29 335.582 180.927 384.777ZM388.461 420.794C338.795 456.812 266.956 456.812 217.29 420.794C266.956 384.777 338.795 384.777 388.461 420.794ZM392.008 418.159C339.682 380.384 265.182 380.384 212.855 418.159C201.326 410.252 191.57 399.711 183.588 389.169C221.724 337.339 221.724 263.547 183.588 211.717C191.57 200.296 202.213 190.633 212.855 182.727C265.182 220.501 339.682 220.501 392.008 182.727C403.538 190.633 413.294 201.175 421.276 211.717C383.139 263.547 383.139 337.339 421.276 389.169C413.294 399.711 403.538 409.374 392.008 418.159ZM430.145 223.137C461.186 272.332 458.526 338.217 424.824 384.777C388.461 335.582 388.461 264.425 424.824 215.231C426.597 217.866 428.371 220.501 430.145 223.137Z" fill="#2F364B"/>
<path d="M266.068 307.465L303.318 360.174L339.681 307.465L303.318 244.215L266.068 307.465Z" fill="#04B3A3"/>
<path d="M354.758 298.682C344.116 280.234 313.074 226.646 302.431 209.077C289.128 231.917 258.087 284.626 244.783 308.345C258.087 327.671 289.128 372.474 302.431 391.8C315.735 372.474 346.776 328.55 360.08 308.345L354.758 298.682ZM303.318 360.175L266.069 307.466L302.431 244.216L338.794 307.466L303.318 360.175Z" fill="#2F364B"/>
<path d="M303.318 565.743L34.5889 300.443L303.318 34.2644L572.048 300.443L303.318 565.743ZM40.7971 300.443L303.318 560.472L565.84 300.443L303.318 40.4137L40.7971 300.443Z" fill="#2F364B"/>
<defs>
<linearGradient id="paint0_linear_5868:60246" x1="151.444" y1="0" x2="151.444" y2="600.024" gradientUnits="userSpaceOnUse">
<stop stop-color="#0CBAD0"/>
<stop offset="1" stop-color="#1970B2"/>
</linearGradient>
<linearGradient id="paint1_linear_5868:60246" x1="454.33" y1="0" x2="454.33" y2="600.024" gradientUnits="userSpaceOnUse">
<stop stop-color="#1970B2"/>
<stop offset="1" stop-color="#454C86"/>
</linearGradient>
<linearGradient id="paint2_linear_5868:60246" x1="170.255" y1="37.2726" x2="170.255" y2="562.755" gradientUnits="userSpaceOnUse">
<stop stop-color="#0CBAD0"/>
<stop offset="1" stop-color="#1970B2"/>
</linearGradient>
<linearGradient id="paint3_linear_5868:60246" x1="435.514" y1="37.2726" x2="435.514" y2="562.755" gradientUnits="userSpaceOnUse">
<stop stop-color="#1970B2"/>
<stop offset="1" stop-color="#454C86"/>
</linearGradient>
</defs>
</svg>
