<svg width="278" height="445" viewBox="0 0 278 445" fill="none" xmlns="http://www.w3.org/2000/svg">
<path d="M157.252 139.866C157.252 129.802 149.064 121.614 138.999 121.614C128.935 121.614 120.747 129.802 120.747 139.866C120.747 149.931 128.935 158.119 138.999 158.119C149.064 158.119 157.252 149.931 157.252 139.866ZM131.874 139.866C131.874 135.937 135.069 132.747 138.994 132.747C142.918 132.747 146.113 135.942 146.113 139.866C146.113 143.791 142.918 146.986 138.994 146.986C135.069 146.986 131.874 143.791 131.874 139.866Z" fill="#2F354B"/>
<path d="M120.742 91.5894C120.742 101.654 128.93 109.842 138.994 109.842C149.058 109.842 157.246 101.654 157.246 91.5894C157.246 81.5252 149.058 73.337 138.994 73.337C128.93 73.337 120.742 81.5252 120.742 91.5894ZM146.119 91.5894C146.119 95.5193 142.924 98.7089 139 98.7089C135.075 98.7089 131.88 95.5137 131.88 91.5894C131.88 87.665 135.075 84.4699 139 84.4699C142.924 84.4699 146.119 87.665 146.119 91.5894Z" fill="#2F354B"/>
<path d="M138.994 316.168C128.924 316.168 120.742 324.357 120.742 334.421C120.742 344.485 128.93 352.673 138.994 352.673C149.058 352.673 157.246 344.485 157.246 334.421C157.246 324.357 149.064 316.168 138.994 316.168ZM138.994 341.546C135.07 341.546 131.874 338.351 131.874 334.426C131.874 330.502 135.07 327.307 138.994 327.307C142.918 327.307 146.113 330.502 146.113 334.426C146.113 338.351 142.918 341.546 138.994 341.546Z" fill="#2F354B"/>
<path d="M138.994 0L0 241.3L139 444.337L278 241.3L138.994 0ZM138.994 414.779L19.7164 240.538L138.994 33.4544L258.278 240.532L138.994 414.779Z" fill="#2F354B"/>
<path d="M61.9051 299.877H216.09V173.441H61.9051V299.877ZM73.038 184.574H204.957V288.739H73.038V184.574Z" fill="#2F354B"/>
<path d="M118.102 273.037L172.67 236.661L118.102 200.284V273.037ZM129.235 221.086L152.598 236.661L129.235 252.235V221.086Z" fill="#2F354B"/>
</svg>
