<svg width="772" height="1231" viewBox="0 0 772 1231" fill="none" xmlns="http://www.w3.org/2000/svg">
<path d="M384.822 1149.63L385.647 1150.83L386.473 1149.63L716.949 666.912L717.305 666.393L716.991 665.848L386.514 92.1798L385.647 90.6756L384.781 92.1798L54.3195 665.864L54.0055 666.409L54.3608 666.928L384.822 1149.63ZM202.914 510.326H201.914V511.326V799.895V800.895H202.914H568.399H569.399V799.895V511.326V510.326H568.399H202.914ZM359.164 611.642L357.61 610.606V612.475V698.769V700.638L359.164 699.601L423.89 656.454L425.138 655.622L423.89 654.79L359.164 611.642ZM385.661 337.908C412.992 337.908 435.23 360.144 435.23 387.473C435.23 414.801 412.992 437.038 385.661 437.038C358.331 437.038 336.093 414.801 336.093 387.473C336.093 360.144 358.331 337.908 385.661 337.908ZM385.646 366.75C374.222 366.75 364.921 376.033 364.921 387.473C364.921 398.897 374.221 408.196 385.646 408.196C397.07 408.196 406.37 398.897 406.37 387.473C406.37 376.049 397.07 366.75 385.646 366.75ZM385.646 303.295C358.315 303.295 336.078 281.059 336.078 253.731C336.078 226.402 358.315 204.166 385.646 204.166C412.977 204.166 435.215 226.402 435.215 253.731C435.215 281.059 412.977 303.295 385.646 303.295ZM385.662 274.454C397.086 274.454 406.386 265.171 406.386 253.731C406.386 242.307 397.086 233.007 385.662 233.007C374.237 233.007 364.937 242.307 364.937 253.731C364.937 265.155 374.237 274.454 385.662 274.454ZM336.078 926.447C336.078 899.119 358.3 876.883 385.646 876.883C412.992 876.883 435.215 899.119 435.215 926.447C435.215 953.776 412.977 976.012 385.646 976.012C358.315 976.012 336.078 953.776 336.078 926.447ZM364.921 926.463C364.921 937.887 374.221 947.186 385.646 947.186C397.071 947.186 406.371 937.887 406.371 926.463C406.371 915.039 397.071 905.74 385.646 905.74C374.221 905.74 364.921 915.039 364.921 926.463ZM598.243 829.752H173.07V481.484H598.243V829.752ZM328.766 556.715L477.144 655.622L328.766 754.528V556.715ZM385.663 1229.18L1.74196 668.43L385.647 2.00329L769.584 668.43L385.663 1229.18Z" stroke="white" stroke-width="2"/>
</svg>
