<svg width="162" height="38" viewBox="0 0 162 38" fill="none" xmlns="http://www.w3.org/2000/svg">
<path d="M21.9999 19.3882L10.9971 0L0 19.3882L11.0028 26.5011L21.9999 19.3882ZM11.7962 12.8947V4.6599L18.7451 16.9045L11.7962 12.8947ZM19.396 19.1474L11.7962 24.0632V14.7622L19.396 19.1474ZM10.1976 12.8947L3.25602 16.9004L10.1976 4.66195V12.8947ZM10.1976 14.7622V24.0563L2.60144 19.1453L10.1976 14.7622Z" fill="#2F354B"/>
<path d="M10.997 28.7992L0.00634766 21.6863L10.9974 38L22.0002 21.6863L10.997 28.7992ZM10.1383 30.1684L10.1979 30.2072V33.9387L5.74062 27.3225L10.1383 30.1684ZM16.2631 27.3196L11.7965 33.9419V30.2068L11.8557 30.1684L16.2631 27.3196Z" fill="#2F354B"/>
<path d="M43.9805 31.8125H38.3438L37.3594 35H32.9648L39.2227 17.9375H43.0898L49.3945 35H44.9766L43.9805 31.8125ZM39.3281 28.6367H42.9961L41.1562 22.7188L39.3281 28.6367ZM56.7486 28.9766H54.5221V35H50.4088V17.9375H57.1236C59.1471 17.9375 60.7291 18.3867 61.8697 19.2852C63.0104 20.1836 63.5807 21.4531 63.5807 23.0938C63.5807 24.2812 63.3385 25.2656 62.8541 26.0469C62.3775 26.8281 61.6275 27.4609 60.6041 27.9453L64.1666 34.8242V35H59.7604L56.7486 28.9766ZM54.5221 25.8008H57.1236C57.9049 25.8008 58.4908 25.5977 58.8814 25.1914C59.2799 24.7773 59.4791 24.2031 59.4791 23.4688C59.4791 22.7344 59.2799 22.1602 58.8814 21.7461C58.483 21.3242 57.8971 21.1133 57.1236 21.1133H54.5221V25.8008ZM79.6301 29.2227C79.5754 30.4102 79.2551 31.4609 78.6691 32.375C78.0832 33.2812 77.259 33.9844 76.1965 34.4844C75.1418 34.9844 73.9348 35.2344 72.5754 35.2344C70.3332 35.2344 68.5676 34.5039 67.2785 33.043C65.9895 31.582 65.3449 29.5195 65.3449 26.8555V26.0117C65.3449 24.3398 65.634 22.8789 66.2121 21.6289C66.7981 20.3711 67.6379 19.4023 68.7316 18.7227C69.8254 18.0352 71.091 17.6914 72.5285 17.6914C74.5988 17.6914 76.2629 18.2383 77.5207 19.332C78.7785 20.418 79.4934 21.918 79.6652 23.832H75.5637C75.5324 22.793 75.2707 22.0469 74.7785 21.5938C74.2863 21.1406 73.5363 20.9141 72.5285 20.9141C71.5051 20.9141 70.7551 21.2969 70.2785 22.0625C69.802 22.8281 69.552 24.0508 69.5285 25.7305V26.9375C69.5285 28.7578 69.7551 30.0586 70.2082 30.8398C70.6691 31.6211 71.4582 32.0117 72.5754 32.0117C73.5207 32.0117 74.2434 31.7891 74.7434 31.3438C75.2434 30.8984 75.509 30.1914 75.5402 29.2227H79.6301ZM95.5975 35H91.5076V27.875H85.449V35H81.3358V17.9375H85.449V24.7109H91.5076V17.9375H95.5975V35ZM102.354 35H98.2524V17.9375H102.354V35ZM111.595 30.3594L114.993 17.9375H119.587L113.845 35H109.345L103.649 17.9375H108.208L111.595 30.3594ZM131.183 27.7695H124.714V31.8359H132.355V35H120.601V17.9375H132.379V21.1133H124.714V24.7109H131.183V27.7695Z" fill="#30354B"/>
<path d="M50 2.1228H54.5414C58.0052 2.1228 60.3608 4.30441 60.3608 7.49987C60.3608 10.6953 58.0056 12.8769 54.5414 12.8769H50V2.1228ZM54.4489 11.5401C57.1122 11.5401 58.8212 9.91177 58.8212 7.4995C58.8212 5.08761 57.1122 3.45891 54.4489 3.45891H51.5392V11.5397H54.4489V11.5401Z" fill="#2F354B"/>
<path d="M73.6164 11.5405V12.8769H65.7959V2.1228H73.4009V3.45928H67.3355V6.76229H72.739V8.06799H67.3355V11.5397H73.6164V11.5405Z" fill="#2F354B"/>
<path d="M88.3965 2.1228L83.6704 12.8769H82.146L77.4043 2.1228H79.0669L82.9465 10.9564L86.8565 2.1228H88.3965Z" fill="#2F354B"/>
<path d="M91.8625 7.49981C91.8625 4.31993 94.2951 2 97.5742 2C99.2367 2 100.684 2.56849 101.669 3.67431L100.669 4.64218C99.8373 3.76665 98.8213 3.36726 97.6359 3.36726C95.2037 3.36726 93.4021 5.1187 93.4021 7.49981C93.4021 9.8813 95.2033 11.6327 97.6359 11.6327C98.8213 11.6327 99.8373 11.2178 100.669 10.3422L101.669 11.3101C100.684 12.4159 99.2371 13 97.5589 13C94.2951 12.9996 91.8625 10.6804 91.8625 7.49981Z" fill="#2F354B"/>
<path d="M105.842 7.49981C105.842 4.35071 108.275 2 111.585 2C114.864 2 117.296 4.33476 117.296 7.49981C117.296 10.6649 114.864 12.9996 111.585 12.9996C108.275 12.9996 105.842 10.6497 105.842 7.49981ZM115.757 7.49981C115.757 5.1187 113.971 3.36726 111.585 3.36726C109.168 3.36726 107.382 5.1187 107.382 7.49981C107.382 9.8813 109.168 11.6327 111.585 11.6327C113.971 11.6327 115.757 9.8813 115.757 7.49981Z" fill="#2F354B"/>
<path d="M131.999 2.12317V12.8773H130.737L124.271 4.85769V12.8769H122.731V2.1228H123.994L130.459 10.1421V2.12317H131.999Z" fill="#2F354B"/>
</svg>
