<svg width="1676" height="334" viewBox="0 0 1676 334" fill="none" xmlns="http://www.w3.org/2000/svg">
<g clip-path="url(#clip0_8397_64917)">
<g filter="url(#filter0_f_8397_64917)">
<g filter="url(#filter1_f_8397_64917)">
<path d="M1070.26 256.446C1087.05 240.147 1112.22 236.964 1132.3 246.875C1134.4 237.125 1139.34 227.836 1147.13 220.267C1168.48 199.544 1203.09 199.544 1224.44 220.267C1228.07 223.792 1231.07 227.695 1233.46 231.839C1250.26 215.805 1273.91 210.596 1295.16 216.218C1296.2 197.065 1304.25 178.203 1319.32 163.573C1351.7 132.142 1404.19 132.142 1436.57 163.573C1468.94 195.004 1468.94 245.963 1436.57 277.393C1428.7 285.033 1419.64 290.81 1409.97 294.735C1423.94 320.363 1419.81 352.85 1397.59 374.424C1370.3 400.919 1326.05 400.919 1298.76 374.424C1290.2 366.118 1284.33 356.195 1281.14 345.667C1278.91 354.661 1274.19 363.19 1266.96 370.209C1246.08 390.481 1212.22 390.481 1191.34 370.209C1190.42 369.321 1189.56 368.4 1188.73 367.465C1188.08 368.156 1187.41 368.838 1186.72 369.507C1162.23 393.286 1122.51 393.286 1098.02 369.507C1088.75 360.512 1082.99 349.402 1080.74 337.778C1077 335.617 1073.47 332.98 1070.26 329.856C1049.38 309.584 1049.38 276.717 1070.26 256.446Z" fill="url(#paint0_linear_8397_64917)"/>
<path d="M734.591 245.043C717.801 228.743 692.629 225.561 672.551 235.472C670.45 225.722 665.514 216.433 657.717 208.863C636.37 188.14 601.759 188.14 580.412 208.863C576.781 212.388 573.783 216.292 571.387 220.436C554.592 204.402 530.941 199.193 509.691 204.815C508.65 185.661 500.599 166.8 485.529 152.17C453.152 120.739 400.659 120.739 368.282 152.17C335.906 183.6 335.906 234.559 368.282 265.99C376.152 273.63 385.211 279.406 394.88 283.332C380.912 308.959 385.037 341.447 407.261 363.021C434.553 389.516 478.802 389.516 506.094 363.021C514.651 354.715 520.523 344.792 523.714 334.264C525.938 343.257 530.66 351.787 537.89 358.806C558.772 379.078 592.629 379.078 613.51 358.806C614.426 357.917 615.287 356.996 616.121 356.061C616.771 356.753 617.438 357.435 618.127 358.104C642.622 381.883 682.337 381.883 706.831 358.104C716.097 349.109 721.854 337.999 724.111 326.374C727.849 324.213 731.375 321.576 734.592 318.453C755.473 298.181 755.473 265.314 734.591 245.043Z" fill="url(#paint1_linear_8397_64917)"/>
<path d="M897.03 226.25C877.951 207.729 849.347 204.112 826.532 215.375C824.145 204.295 818.536 193.74 809.676 185.139C785.419 161.59 746.09 161.59 721.832 185.139C717.706 189.144 714.3 193.58 711.577 198.288C692.492 180.068 665.616 174.149 641.47 180.537C640.288 158.772 631.139 137.34 614.013 120.716C577.223 85.0004 517.575 85.0004 480.784 120.716C443.994 156.431 443.994 214.337 480.784 250.052C489.726 258.732 500.021 265.297 511.007 269.758C495.136 298.88 499.824 335.796 525.076 360.31C556.089 390.417 606.37 390.417 637.383 360.31C647.105 350.872 653.778 339.595 657.404 327.633C659.931 337.852 665.297 347.545 673.513 355.52C697.241 378.555 735.714 378.555 759.442 355.52C760.482 354.511 761.46 353.464 762.409 352.401C763.148 353.187 763.906 353.962 764.689 354.723C792.523 381.744 837.651 381.744 865.485 354.723C876.014 344.501 882.557 331.877 885.121 318.668C889.368 316.213 893.375 313.215 897.031 309.667C920.759 286.633 920.759 249.286 897.03 226.25Z" fill="url(#paint2_linear_8397_64917)"/>
<path d="M1318.74 127.359C1287.52 97.0497 1236.9 97.0497 1205.68 127.359C1190.13 142.452 1182.33 162.216 1182.27 181.998C1157.61 176.964 1130.91 183.734 1111.77 202.317C1109.46 204.563 1107.32 206.916 1105.36 209.359C1104.5 208.401 1103.61 207.456 1102.67 206.542C1079.47 184.024 1041.87 184.024 1018.67 206.542C1014.48 210.607 1011.06 215.134 1008.39 219.947C975.682 202.007 933.429 206.556 905.57 233.602C872.071 266.122 872.071 318.847 905.57 351.367C939.069 383.887 993.381 383.887 1026.88 351.367C1027.44 350.823 1027.99 350.274 1028.53 349.719C1031.39 355.608 1035.32 361.13 1040.34 366C1063.71 388.686 1101.6 388.686 1124.97 366C1132.17 359.004 1137.15 350.665 1139.91 341.815C1142.67 345.726 1145.83 349.447 1149.41 352.92C1180.63 383.229 1231.25 383.229 1262.47 352.92C1288.74 327.418 1292.9 288.586 1274.97 258.854C1290.99 256.353 1306.38 249.11 1318.74 237.116C1349.96 206.808 1349.96 157.668 1318.74 127.359Z" fill="url(#paint3_linear_8397_64917)"/>
<path d="M912.896 153.396C894.062 142.892 870.894 146.063 855.385 159.675C851.19 151.497 844.58 144.404 835.833 139.526C811.887 126.17 781.077 134.425 767.017 157.965C764.625 161.969 762.888 166.16 761.743 170.419C742.967 160.152 720.67 161.157 703.095 171.229C697.6 154.427 685.934 139.557 669.029 130.129C632.71 109.872 585.981 122.393 564.657 158.095C543.332 193.797 555.488 239.16 591.806 259.417C600.634 264.341 610.077 267.322 619.619 268.511C613.298 294.656 624.72 322.593 649.648 336.496C680.264 353.572 719.654 343.018 737.629 312.922C743.264 303.488 746.125 293.253 746.455 283.12C750.579 290.596 756.818 297.062 764.928 301.586C788.352 314.651 818.491 306.575 832.245 283.548C832.848 282.539 833.394 281.514 833.915 280.482C834.658 280.943 835.415 281.392 836.188 281.823C863.665 297.148 899.018 287.675 915.151 260.664C921.254 250.447 923.73 239.183 922.965 228.297C925.777 225.482 928.287 222.293 930.405 218.746C944.16 195.72 936.32 166.462 912.896 153.396Z" fill="url(#paint4_linear_8397_64917)"/>
<path d="M1253.53 149.015C1235.73 119.214 1196.73 108.762 1166.41 125.671C1151.31 134.091 1141.22 147.71 1137.09 162.941C1119.13 153.971 1097.16 153.675 1078.57 164.043C1076.32 165.295 1074.19 166.668 1072.18 168.147C1071.71 167.23 1071.22 166.317 1070.68 165.419C1057.46 143.278 1028.48 135.513 1005.96 148.076C1001.89 150.344 998.318 153.126 995.263 156.283C973.764 135.706 940.264 130.486 913.211 145.575C880.683 163.718 869.796 204.348 888.895 236.324C907.994 268.301 949.847 279.515 982.376 261.372C982.919 261.069 983.456 260.759 983.987 260.443C984.977 265.572 986.867 270.639 989.727 275.427C1003.05 297.734 1032.25 305.557 1054.94 292.901C1061.94 288.998 1067.49 283.6 1071.45 277.35C1072.77 280.933 1074.44 284.454 1076.47 287.868C1094.28 317.67 1133.28 328.122 1163.6 311.213C1189.11 296.985 1200.33 267.921 1192.65 241.307C1205.52 242.689 1218.87 240.286 1230.87 233.594C1261.19 216.685 1271.34 178.818 1253.53 149.015Z" fill="url(#paint5_linear_8397_64917)"/>
</g>
<path d="M1070.26 248.446C1087.05 232.147 1112.22 228.964 1132.3 238.875C1134.4 229.125 1139.34 219.836 1147.13 212.267C1168.48 191.544 1203.09 191.544 1224.44 212.267C1228.07 215.792 1231.07 219.695 1233.46 223.839C1250.26 207.805 1273.91 202.596 1295.16 208.218C1296.2 189.065 1304.25 170.203 1319.32 155.573C1351.7 124.142 1404.19 124.142 1436.57 155.573C1468.94 187.004 1468.94 237.963 1436.57 269.393C1428.7 277.033 1419.64 282.81 1409.97 286.735C1423.94 312.363 1419.81 344.85 1397.59 366.424C1370.3 392.919 1326.05 392.919 1298.76 366.424C1290.2 358.118 1284.33 348.195 1281.14 337.667C1278.91 346.661 1274.19 355.19 1266.96 362.209C1246.08 382.481 1212.22 382.481 1191.34 362.209C1190.42 361.321 1189.56 360.4 1188.73 359.465C1188.08 360.156 1187.41 360.838 1186.72 361.507C1162.23 385.286 1122.51 385.286 1098.02 361.507C1088.75 352.512 1082.99 341.402 1080.74 329.778C1077 327.617 1073.47 324.98 1070.26 321.856C1049.38 301.584 1049.38 268.717 1070.26 248.446Z" fill="url(#paint6_linear_8397_64917)"/>
<path d="M734.591 237.043C717.801 220.743 692.629 217.561 672.551 227.472C670.45 217.722 665.514 208.433 657.717 200.863C636.37 180.14 601.759 180.14 580.412 200.863C576.781 204.388 573.783 208.292 571.387 212.436C554.592 196.402 530.941 191.193 509.691 196.815C508.65 177.661 500.599 158.8 485.529 144.17C453.152 112.739 400.659 112.739 368.282 144.17C335.906 175.6 335.906 226.559 368.282 257.99C376.152 265.63 385.211 271.406 394.88 275.332C380.912 300.959 385.037 333.447 407.261 355.021C434.553 381.516 478.802 381.516 506.094 355.021C514.651 346.715 520.523 336.792 523.714 326.264C525.938 335.257 530.66 343.787 537.89 350.806C558.772 371.078 592.629 371.078 613.51 350.806C614.426 349.917 615.287 348.996 616.121 348.061C616.771 348.753 617.438 349.435 618.127 350.104C642.622 373.883 682.337 373.883 706.831 350.104C716.097 341.109 721.854 329.999 724.111 318.374C727.849 316.213 731.375 313.576 734.592 310.453C755.473 290.181 755.473 257.314 734.591 237.043Z" fill="url(#paint7_linear_8397_64917)"/>
<path d="M897.03 218.25C877.951 199.729 849.347 196.113 826.532 207.375C824.145 196.295 818.536 185.74 809.676 177.139C785.419 153.591 746.09 153.591 721.832 177.139C717.706 181.145 714.3 185.581 711.577 190.289C692.492 172.069 665.616 166.15 641.47 172.538C640.288 150.773 631.139 129.34 614.013 112.716C577.223 77.0008 517.575 77.0008 480.784 112.716C443.994 148.432 443.994 206.337 480.784 242.052C489.726 250.733 500.021 257.298 511.007 261.758C495.136 290.88 499.824 327.796 525.076 352.311C556.089 382.417 606.37 382.417 637.383 352.311C647.105 342.873 653.778 331.596 657.404 319.634C659.931 329.853 665.297 339.545 673.513 347.521C697.241 370.556 735.714 370.556 759.442 347.521C760.482 346.511 761.46 345.464 762.409 344.402C763.148 345.188 763.906 345.963 764.689 346.723C792.523 373.744 837.651 373.744 865.485 346.723C876.014 336.502 882.557 323.878 885.121 310.668C889.368 308.213 893.375 305.216 897.031 301.668C920.759 278.633 920.759 241.286 897.03 218.25Z" fill="url(#paint8_linear_8397_64917)"/>
<path d="M1318.74 119.359C1287.52 89.0497 1236.9 89.0497 1205.68 119.359C1190.13 134.452 1182.33 154.216 1182.27 173.998C1157.61 168.964 1130.91 175.734 1111.77 194.317C1109.46 196.563 1107.32 198.916 1105.36 201.359C1104.5 200.401 1103.61 199.456 1102.67 198.542C1079.47 176.024 1041.87 176.024 1018.67 198.542C1014.48 202.607 1011.06 207.134 1008.39 211.947C975.682 194.007 933.429 198.556 905.57 225.602C872.071 258.122 872.071 310.847 905.57 343.367C939.069 375.887 993.381 375.887 1026.88 343.367C1027.44 342.823 1027.99 342.274 1028.53 341.719C1031.39 347.608 1035.32 353.13 1040.34 358C1063.71 380.686 1101.6 380.686 1124.97 358C1132.17 351.004 1137.15 342.665 1139.91 333.815C1142.67 337.726 1145.83 341.447 1149.41 344.92C1180.63 375.229 1231.25 375.229 1262.47 344.92C1288.74 319.418 1292.9 280.586 1274.97 250.854C1290.99 248.353 1306.38 241.11 1318.74 229.116C1349.96 198.808 1349.96 149.668 1318.74 119.359Z" fill="url(#paint9_linear_8397_64917)"/>
<path d="M913.896 153.396C895.062 142.892 871.894 146.063 856.385 159.675C852.19 151.497 845.58 144.404 836.833 139.526C812.887 126.17 782.077 134.425 768.017 157.965C765.625 161.969 763.888 166.16 762.743 170.419C743.967 160.152 721.67 161.157 704.095 171.229C698.6 154.427 686.934 139.557 670.029 130.129C633.71 109.872 586.981 122.393 565.657 158.095C544.332 193.797 556.488 239.16 592.806 259.417C601.634 264.341 611.077 267.322 620.619 268.511C614.298 294.656 625.72 322.593 650.648 336.496C681.264 353.572 720.654 343.018 738.629 312.922C744.264 303.488 747.125 293.253 747.455 283.12C751.579 290.596 757.818 297.062 765.928 301.586C789.352 314.651 819.491 306.575 833.245 283.548C833.848 282.539 834.394 281.514 834.915 280.482C835.658 280.943 836.415 281.392 837.188 281.823C864.665 297.148 900.018 287.675 916.151 260.664C922.254 250.447 924.73 239.183 923.965 228.297C926.777 225.482 929.287 222.293 931.405 218.746C945.16 195.72 937.32 166.462 913.896 153.396Z" fill="url(#paint10_linear_8397_64917)"/>
<path d="M1253.53 141.015C1235.73 111.214 1196.73 100.762 1166.41 117.671C1151.31 126.091 1141.22 139.71 1137.09 154.941C1119.13 145.971 1097.16 145.675 1078.57 156.043C1076.32 157.295 1074.19 158.668 1072.18 160.147C1071.71 159.23 1071.22 158.317 1070.68 157.419C1057.46 135.278 1028.48 127.513 1005.96 140.076C1001.89 142.344 998.318 145.126 995.263 148.283C973.764 127.706 940.264 122.486 913.211 137.575C880.683 155.718 869.796 196.348 888.895 228.324C907.994 260.301 949.847 271.515 982.376 253.372C982.919 253.069 983.456 252.759 983.987 252.443C984.977 257.572 986.867 262.639 989.727 267.427C1003.05 289.734 1032.25 297.557 1054.94 284.901C1061.94 280.998 1067.49 275.6 1071.45 269.35C1072.77 272.933 1074.44 276.454 1076.47 279.868C1094.28 309.67 1133.28 320.122 1163.6 303.213C1189.11 288.985 1200.33 259.921 1192.65 233.307C1205.52 234.689 1218.87 232.286 1230.87 225.594C1261.19 208.685 1271.34 170.818 1253.53 141.015Z" fill="url(#paint11_linear_8397_64917)"/>
</g>
<g filter="url(#filter2_f_8397_64917)">
<path d="M869.478 204.396C850.644 193.892 827.476 197.063 811.968 210.675C807.772 202.497 801.162 195.404 792.415 190.526C768.469 177.17 737.659 185.425 723.599 208.965C721.207 212.969 719.47 217.16 718.325 221.419C699.549 211.152 677.252 212.157 659.677 222.229C654.182 205.427 642.516 190.557 625.611 181.129C589.292 160.872 542.563 173.393 521.239 209.095C499.914 244.797 512.07 290.16 548.388 310.417C557.216 315.341 566.659 318.322 576.201 319.511C569.88 345.656 581.302 373.593 606.23 387.496C636.846 404.572 676.236 394.018 694.211 363.922C699.846 354.488 702.707 344.253 703.037 334.12C707.161 341.596 713.4 348.062 721.51 352.586C744.934 365.651 775.073 357.575 788.827 334.548C789.43 333.539 789.976 332.514 790.497 331.482C791.24 331.943 791.997 332.392 792.77 332.823C820.247 348.148 855.6 338.675 871.733 311.664C877.836 301.447 880.312 290.183 879.547 279.297C882.359 276.482 884.869 273.293 886.987 269.746C900.742 246.72 892.902 217.462 869.478 204.396Z" fill="url(#paint12_linear_8397_64917)"/>
</g>
<g filter="url(#filter3_f_8397_64917)">
<path d="M1210.12 200.015C1192.31 170.214 1153.31 159.762 1122.99 176.671C1107.89 185.091 1097.8 198.71 1093.67 213.941C1075.71 204.971 1053.74 204.675 1035.15 215.043C1032.9 216.295 1030.77 217.668 1028.76 219.147C1028.29 218.23 1027.8 217.317 1027.26 216.419C1014.04 194.278 985.059 186.513 962.536 199.076C958.469 201.344 954.899 204.126 951.844 207.283C930.345 186.706 896.845 181.486 869.792 196.575C837.264 214.718 826.377 255.348 845.476 287.324C864.575 319.301 906.428 330.515 938.957 312.372C939.501 312.069 940.037 311.759 940.568 311.443C941.558 316.572 943.448 321.639 946.308 326.427C959.631 348.734 988.828 356.557 1011.52 343.901C1018.52 339.998 1024.07 334.6 1028.03 328.35C1029.35 331.933 1031.02 335.454 1033.06 338.868C1050.86 368.67 1089.86 379.122 1120.18 362.213C1145.69 347.985 1156.92 318.921 1149.23 292.307C1162.1 293.689 1175.46 291.286 1187.45 284.594C1217.77 267.685 1227.92 229.818 1210.12 200.015Z" fill="url(#paint13_linear_8397_64917)"/>
</g>
<g filter="url(#filter4_f_8397_64917)">
<path d="M1111.32 240.439C1134.17 218.262 1168.44 213.931 1195.77 227.417C1198.63 214.151 1205.35 201.512 1215.96 191.213C1245.02 163.016 1292.13 163.016 1321.19 191.213C1326.13 196.009 1330.21 201.32 1333.48 206.958C1356.34 185.142 1388.53 178.055 1417.46 185.704C1418.87 159.643 1429.83 133.98 1450.35 114.074C1494.42 71.3087 1565.87 71.3087 1609.95 114.074C1654.02 156.839 1654 269.338 1631.5 258.838C1620.79 269.232 1586.9 287.195 1573.74 292.536C1592.75 327.405 1587.14 371.609 1556.89 400.963C1519.74 437.012 1459.5 437.012 1422.35 400.963C1410.71 389.661 1402.71 376.16 1398.37 361.835C1395.34 374.072 1388.91 385.677 1379.07 395.228C1350.65 422.81 1304.56 422.81 1276.14 395.228C1274.89 394.019 1273.72 392.766 1272.58 391.493C1271.7 392.434 1270.79 393.362 1269.85 394.272C1236.51 426.627 1182.45 426.627 1149.11 394.272C1136.49 382.034 1128.65 366.917 1125.58 351.101C1120.5 348.16 1115.69 344.572 1111.32 340.322C1082.89 312.74 1082.89 268.02 1111.32 240.439Z" fill="url(#paint14_linear_8397_64917)"/>
</g>
<g filter="url(#filter5_f_8397_64917)">
<path d="M1107.45 252.149C1130.45 230.292 1164.93 226.025 1192.43 239.316C1195.31 226.241 1202.07 213.785 1212.75 203.634C1241.99 175.845 1289.4 175.845 1318.64 203.634C1323.61 208.361 1327.72 213.596 1331 219.152C1354.01 197.652 1386.4 190.667 1415.51 198.205C1416.94 172.521 1427.96 147.229 1448.61 127.61C1492.95 85.4632 1564.86 85.4632 1609.21 127.61C1653.55 169.758 1694.29 234.47 1639.95 294.096C1639.95 294.096 1606.74 311.343 1589.13 306.415C1608.27 340.781 1586.26 381.424 1555.81 410.354C1518.43 445.882 1457.82 445.882 1420.44 410.354C1408.72 399.215 1400.67 385.909 1396.3 371.792C1393.26 383.851 1386.79 395.289 1376.88 404.701C1348.28 431.885 1301.91 431.885 1273.3 404.701C1272.05 403.51 1270.87 402.275 1269.73 401.021C1268.84 401.948 1267.92 402.863 1266.98 403.76C1233.43 435.647 1179.03 435.647 1145.48 403.76C1132.78 391.698 1124.9 376.8 1121.81 361.212C1116.69 358.314 1111.86 354.778 1107.45 350.589C1078.85 323.406 1078.85 279.332 1107.45 252.149Z" fill="url(#paint15_linear_8397_64917)"/>
</g>
<g filter="url(#filter6_f_8397_64917)">
<path d="M431.218 211.102C407.868 188.412 372.859 183.982 344.936 197.779C342.014 184.206 335.149 171.275 324.305 160.738C294.616 131.889 246.481 131.889 216.792 160.738C211.742 165.645 207.573 171.079 204.241 176.847C180.883 154.527 147.99 147.276 118.437 155.102C116.989 128.438 105.792 102.182 84.8324 81.8155C39.8042 38.0615 -33.2008 38.0615 -78.2289 81.8155C-123.257 125.569 -123.257 276.509 -78.2289 320.263C-67.2843 330.897 -78.2289 320.263 -63.2384 344.404C-51 355.838 -54.9269 345.305 -24.0196 375.338C13.9374 412.221 75.4774 412.221 113.434 375.338C125.334 363.775 133.501 349.961 137.939 335.306C141.032 347.825 147.6 359.699 157.655 369.47C186.697 397.69 233.783 397.69 262.824 369.47C264.097 368.233 265.295 366.951 266.455 365.649C267.359 366.612 268.286 367.562 269.246 368.493C303.312 401.595 358.545 401.595 392.611 368.493C405.498 355.971 413.505 340.505 416.643 324.323C421.841 321.314 426.746 317.643 431.219 313.295C460.26 285.075 460.26 239.321 431.218 211.102Z" fill="url(#paint16_linear_8397_64917)"/>
</g>
<g filter="url(#filter7_f_8397_64917)">
<path d="M431.101 196.018C407.625 173.2 372.43 168.744 344.358 182.62C341.42 168.97 334.518 155.966 323.616 145.369C293.769 116.358 245.376 116.358 215.528 145.369C210.451 150.304 206.26 155.769 202.91 161.57C179.427 139.123 146.357 131.831 116.646 139.701C115.191 112.887 103.934 86.4827 82.8622 66.0009C37.5931 21.9997 -35.8025 21.9997 -81.0716 66.0009C-123 97.4999 -113.501 221.5 -113.5 309.878C-102.497 320.573 -81.0716 305.795 -66.0009 330.072C-53.697 341.571 -57.6449 330.979 -26.5723 361.181C11.5878 398.273 73.4572 398.273 111.617 361.181C123.581 349.553 131.791 335.661 136.253 320.923C139.362 333.513 145.965 345.454 156.075 355.28C185.272 383.66 232.61 383.66 261.806 355.28C263.086 354.037 264.29 352.747 265.457 351.438C266.366 352.407 267.298 353.361 268.262 354.298C302.511 387.587 358.04 387.587 392.287 354.298C405.244 341.705 413.293 326.152 416.448 309.878C421.674 306.853 426.605 303.161 431.102 298.788C460.298 270.409 460.298 224.396 431.101 196.018Z" fill="url(#paint17_linear_8397_64917)"/>
</g>
<g filter="url(#filter8_f_8397_64917)">
<path d="M1255.78 211.102C1279.13 188.412 1314.14 183.982 1342.06 197.779C1344.99 184.206 1351.85 171.275 1362.7 160.738C1392.38 131.889 1440.52 131.889 1470.21 160.738C1475.26 165.645 1479.43 171.079 1482.76 176.847C1506.12 154.527 1539.01 147.276 1568.56 155.102C1570.01 128.438 1581.21 102.182 1602.17 81.8155C1647.2 38.0615 1720.2 38.0615 1765.23 81.8155C1810.26 125.569 1810.26 276.509 1765.23 320.263C1754.28 330.897 1765.23 320.263 1750.24 344.404C1738 355.838 1741.93 345.305 1711.02 375.338C1673.06 412.221 1611.52 412.221 1573.57 375.338C1561.67 363.775 1553.5 349.961 1549.06 335.306C1545.97 347.825 1539.4 359.699 1529.34 369.47C1500.3 397.69 1453.22 397.69 1424.18 369.47C1422.9 368.233 1421.71 366.951 1420.54 365.649C1419.64 366.612 1418.71 367.562 1417.75 368.493C1383.69 401.595 1328.45 401.595 1294.39 368.493C1281.5 355.971 1273.5 340.505 1270.36 324.323C1265.16 321.314 1260.25 317.643 1255.78 313.295C1226.74 285.075 1226.74 239.321 1255.78 211.102Z" fill="url(#paint18_linear_8397_64917)"/>
</g>
<g filter="url(#filter9_f_8397_64917)">
<path d="M1255.9 196.018C1279.37 173.2 1314.57 168.744 1342.64 182.62C1345.58 168.97 1352.48 155.966 1363.38 145.369C1393.23 116.358 1441.62 116.358 1471.47 145.369C1476.55 150.304 1480.74 155.769 1484.09 161.57C1507.57 139.123 1540.64 131.831 1570.35 139.701C1571.81 112.887 1583.07 86.4827 1604.14 66.0009C1649.41 21.9997 1722.8 21.9997 1768.07 66.0009C1810 97.4999 1800.5 221.5 1800.5 309.878C1789.5 320.573 1768.07 305.795 1753 330.072C1740.7 341.571 1744.64 330.979 1713.57 361.181C1675.41 398.273 1613.54 398.273 1575.38 361.181C1563.42 349.553 1555.21 335.661 1550.75 320.923C1547.64 333.513 1541.03 345.454 1530.93 355.28C1501.73 383.66 1454.39 383.66 1425.19 355.28C1423.91 354.037 1422.71 352.747 1421.54 351.438C1420.63 352.407 1419.7 353.361 1418.74 354.298C1384.49 387.587 1328.96 387.587 1294.71 354.298C1281.76 341.705 1273.71 326.152 1270.55 309.878C1265.33 306.853 1260.4 303.161 1255.9 298.788C1226.7 270.409 1226.7 224.396 1255.9 196.018Z" fill="url(#paint19_linear_8397_64917)"/>
</g>
<rect width="1676" height="301" transform="translate(1676 334) rotate(180)" fill="url(#paint20_linear_8397_64917)"/>
</g>
<defs>
<filter id="filter0_f_8397_64917" x="332" y="21" width="1140.85" height="385.295" filterUnits="userSpaceOnUse" color-interpolation-filters="sRGB">
<feFlood flood-opacity="0" result="BackgroundImageFix"/>
<feBlend mode="normal" in="SourceGraphic" in2="BackgroundImageFix" result="shape"/>
<feGaussianBlur stdDeviation="6" result="effect1_foregroundBlur_8397_64917"/>
</filter>
<filter id="filter1_f_8397_64917" x="331" y="80.9292" width="1142.85" height="326.366" filterUnits="userSpaceOnUse" color-interpolation-filters="sRGB">
<feFlood flood-opacity="0" result="BackgroundImageFix"/>
<feBlend mode="normal" in="SourceGraphic" in2="BackgroundImageFix" result="shape"/>
<feGaussianBlur stdDeviation="6.5" result="effect1_foregroundBlur_8397_64917"/>
</filter>
<filter id="filter2_f_8397_64917" x="492.729" y="153.435" width="419.037" height="260.232" filterUnits="userSpaceOnUse" color-interpolation-filters="sRGB">
<feFlood flood-opacity="0" result="BackgroundImageFix"/>
<feBlend mode="normal" in="SourceGraphic" in2="BackgroundImageFix" result="shape"/>
<feGaussianBlur stdDeviation="9" result="effect1_foregroundBlur_8397_64917"/>
</filter>
<filter id="filter3_f_8397_64917" x="818.063" y="150.579" width="418.826" height="237.725" filterUnits="userSpaceOnUse" color-interpolation-filters="sRGB">
<feFlood flood-opacity="0" result="BackgroundImageFix"/>
<feBlend mode="normal" in="SourceGraphic" in2="BackgroundImageFix" result="shape"/>
<feGaussianBlur stdDeviation="9" result="effect1_foregroundBlur_8397_64917"/>
</filter>
<filter id="filter4_f_8397_64917" x="1084" y="76" width="568.353" height="358" filterUnits="userSpaceOnUse" color-interpolation-filters="sRGB">
<feFlood flood-opacity="0" result="BackgroundImageFix"/>
<feBlend mode="normal" in="SourceGraphic" in2="BackgroundImageFix" result="shape"/>
<feGaussianBlur stdDeviation="3" result="effect1_foregroundBlur_8397_64917"/>
</filter>
<filter id="filter5_f_8397_64917" x="1068" y="78" width="616" height="377" filterUnits="userSpaceOnUse" color-interpolation-filters="sRGB">
<feFlood flood-opacity="0" result="BackgroundImageFix"/>
<feBlend mode="normal" in="SourceGraphic" in2="BackgroundImageFix" result="shape"/>
<feGaussianBlur stdDeviation="9" result="effect1_foregroundBlur_8397_64917"/>
</filter>
<filter id="filter6_f_8397_64917" x="-118" y="43" width="577" height="366" filterUnits="userSpaceOnUse" color-interpolation-filters="sRGB">
<feFlood flood-opacity="0" result="BackgroundImageFix"/>
<feBlend mode="normal" in="SourceGraphic" in2="BackgroundImageFix" result="shape"/>
<feGaussianBlur stdDeviation="3" result="effect1_foregroundBlur_8397_64917"/>
</filter>
<filter id="filter7_f_8397_64917" x="-132.424" y="15" width="603.423" height="392" filterUnits="userSpaceOnUse" color-interpolation-filters="sRGB">
<feFlood flood-opacity="0" result="BackgroundImageFix"/>
<feBlend mode="normal" in="SourceGraphic" in2="BackgroundImageFix" result="shape"/>
<feGaussianBlur stdDeviation="9" result="effect1_foregroundBlur_8397_64917"/>
</filter>
<filter id="filter8_f_8397_64917" x="1228" y="43" width="577" height="366" filterUnits="userSpaceOnUse" color-interpolation-filters="sRGB">
<feFlood flood-opacity="0" result="BackgroundImageFix"/>
<feBlend mode="normal" in="SourceGraphic" in2="BackgroundImageFix" result="shape"/>
<feGaussianBlur stdDeviation="3" result="effect1_foregroundBlur_8397_64917"/>
</filter>
<filter id="filter9_f_8397_64917" x="1216" y="15" width="603.423" height="392" filterUnits="userSpaceOnUse" color-interpolation-filters="sRGB">
<feFlood flood-opacity="0" result="BackgroundImageFix"/>
<feBlend mode="normal" in="SourceGraphic" in2="BackgroundImageFix" result="shape"/>
<feGaussianBlur stdDeviation="9" result="effect1_foregroundBlur_8397_64917"/>
</filter>
<linearGradient id="paint0_linear_8397_64917" x1="1300.29" y1="409.154" x2="1238.94" y2="173.303" gradientUnits="userSpaceOnUse">
<stop stop-color="#8BD3D7"/>
<stop offset="0.7763" stop-color="white"/>
</linearGradient>
<linearGradient id="paint1_linear_8397_64917" x1="504.557" y1="397.751" x2="565.906" y2="161.9" gradientUnits="userSpaceOnUse">
<stop stop-color="#8BD3D7"/>
<stop offset="0.7763" stop-color="white"/>
</linearGradient>
<linearGradient id="paint2_linear_8397_64917" x1="635.637" y1="399.776" x2="668.123" y2="71.018" gradientUnits="userSpaceOnUse">
<stop stop-color="#8BD3D7"/>
<stop offset="0.7763" stop-color="white"/>
</linearGradient>
<linearGradient id="paint3_linear_8397_64917" x1="1153.87" y1="391.948" x2="1090.06" y2="146.655" gradientUnits="userSpaceOnUse">
<stop stop-color="#87CED6"/>
<stop offset="1" stop-color="white"/>
</linearGradient>
<linearGradient id="paint4_linear_8397_64917" x1="744.546" y1="344.206" x2="766.54" y2="77.1741" gradientUnits="userSpaceOnUse">
<stop stop-color="#8BD3D7"/>
<stop offset="0.7763" stop-color="white"/>
</linearGradient>
<linearGradient id="paint5_linear_8397_64917" x1="1005.5" y1="359" x2="994.058" y2="85.3303" gradientUnits="userSpaceOnUse">
<stop stop-color="#87CED6"/>
<stop offset="1" stop-color="white"/>
</linearGradient>
<linearGradient id="paint6_linear_8397_64917" x1="1300.29" y1="401.154" x2="1238.94" y2="165.303" gradientUnits="userSpaceOnUse">
<stop stop-color="#8BD3D7"/>
<stop offset="0.7763" stop-color="white"/>
</linearGradient>
<linearGradient id="paint7_linear_8397_64917" x1="504.557" y1="389.751" x2="565.906" y2="153.9" gradientUnits="userSpaceOnUse">
<stop stop-color="#8BD3D7"/>
<stop offset="0.7763" stop-color="white"/>
</linearGradient>
<linearGradient id="paint8_linear_8397_64917" x1="635.637" y1="391.777" x2="668.123" y2="63.0185" gradientUnits="userSpaceOnUse">
<stop stop-color="#8BD3D7"/>
<stop offset="0.7763" stop-color="white"/>
</linearGradient>
<linearGradient id="paint9_linear_8397_64917" x1="1153.87" y1="383.948" x2="1090.06" y2="138.655" gradientUnits="userSpaceOnUse">
<stop stop-color="#87CED6"/>
<stop offset="1" stop-color="white"/>
</linearGradient>
<linearGradient id="paint10_linear_8397_64917" x1="745.546" y1="344.206" x2="767.54" y2="77.1741" gradientUnits="userSpaceOnUse">
<stop stop-color="#8BD3D7"/>
<stop offset="0.7763" stop-color="white"/>
</linearGradient>
<linearGradient id="paint11_linear_8397_64917" x1="995.001" y1="343" x2="986.117" y2="132.868" gradientUnits="userSpaceOnUse">
<stop stop-color="#87CED6"/>
<stop offset="1" stop-color="white"/>
</linearGradient>
<linearGradient id="paint12_linear_8397_64917" x1="758" y1="318.5" x2="737.021" y2="151.311" gradientUnits="userSpaceOnUse">
<stop stop-color="#8BD3D7"/>
<stop offset="0.7763" stop-color="white"/>
<stop offset="1" stop-color="white"/>
</linearGradient>
<linearGradient id="paint13_linear_8397_64917" x1="970" y1="353" x2="953.98" y2="185.762" gradientUnits="userSpaceOnUse">
<stop stop-color="#87CED6"/>
<stop offset="1" stop-color="white"/>
</linearGradient>
<linearGradient id="paint14_linear_8397_64917" x1="1344.5" y1="314.838" x2="1323.23" y2="133.518" gradientUnits="userSpaceOnUse">
<stop stop-color="#8BD3D7"/>
<stop offset="0.7763" stop-color="white"/>
</linearGradient>
<linearGradient id="paint15_linear_8397_64917" x1="1342.1" y1="325.473" x2="1321.55" y2="146.674" gradientUnits="userSpaceOnUse">
<stop stop-color="#8BD3D7"/>
<stop offset="0.7763" stop-color="white"/>
</linearGradient>
<linearGradient id="paint16_linear_8397_64917" x1="171" y1="377.338" x2="212.343" y2="87.7444" gradientUnits="userSpaceOnUse">
<stop stop-color="#8BD3D7"/>
<stop offset="0.7763" stop-color="white"/>
</linearGradient>
<linearGradient id="paint17_linear_8397_64917" x1="169.493" y1="363.193" x2="211.081" y2="71.9666" gradientUnits="userSpaceOnUse">
<stop stop-color="#8BD3D7"/>
<stop offset="0.7763" stop-color="white"/>
</linearGradient>
<linearGradient id="paint18_linear_8397_64917" x1="1516" y1="377.338" x2="1474.66" y2="87.7444" gradientUnits="userSpaceOnUse">
<stop stop-color="#8BD3D7"/>
<stop offset="0.7763" stop-color="white"/>
</linearGradient>
<linearGradient id="paint19_linear_8397_64917" x1="1517.51" y1="363.193" x2="1475.92" y2="71.9666" gradientUnits="userSpaceOnUse">
<stop stop-color="#8BD3D7"/>
<stop offset="0.7763" stop-color="white"/>
</linearGradient>
<linearGradient id="paint20_linear_8397_64917" x1="838" y1="21.0001" x2="838" y2="174.873" gradientUnits="userSpaceOnUse">
<stop stop-color="#BCE2E6"/>
<stop offset="0.0833333" stop-color="#C1E7EA"/>
<stop offset="1" stop-color="white" stop-opacity="0"/>
</linearGradient>
<clipPath id="clip0_8397_64917">
<rect width="1676" height="334" fill="white"/>
</clipPath>
</defs>
</svg>
