<svg width="28" height="28" viewBox="0 0 28 28" fill="none" xmlns="http://www.w3.org/2000/svg">
<path d="M5.49989 19.2991L5.49755 19.4543L5.58348 19.5835C7.39219 22.3036 10.4921 24.1 13.9998 24.1C17.5076 24.1 20.6075 22.3036 22.4162 19.5835L22.5021 19.4543L22.4998 19.2991C22.4871 18.4557 22.0536 17.7472 21.4476 17.1805C20.8437 16.6156 20.0348 16.1572 19.1726 15.797C17.4503 15.0773 15.3949 14.7 13.9998 14.7C12.5982 14.7 10.5428 15.0773 8.82191 15.797C7.96044 16.1574 7.15269 16.6158 6.54981 17.1808C5.94483 17.7477 5.5126 18.4562 5.49989 19.2991ZM1.1665 14C1.1665 6.91613 6.91598 1.16666 13.9998 1.16666C21.0837 1.16666 26.8332 6.91613 26.8332 14C26.8332 21.0838 21.0837 26.8333 13.9998 26.8333C6.91598 26.8333 1.1665 21.0838 1.1665 14ZM18.4998 8.66666C18.4998 6.17718 16.4893 4.16666 13.9998 4.16666C11.5104 4.16666 9.49984 6.17718 9.49984 8.66666C9.49984 11.1561 11.5104 13.1667 13.9998 13.1667C16.4893 13.1667 18.4998 11.1561 18.4998 8.66666Z" fill="#323232" stroke="black"/>
</svg>
