<svg width="12" height="13" viewBox="0 0 12 13" fill="none" xmlns="http://www.w3.org/2000/svg">
<g clip-path="url(#clip0)">
<path d="M4.1158 9.32001C4.20058 9.42064 4.32161 9.48379 4.45265 9.49578C4.58369 9.50776 4.71417 9.4676 4.8158 9.38401L7.8158 6.88401C7.87207 6.83708 7.91734 6.77837 7.9484 6.71201C7.97947 6.64565 7.99557 6.57328 7.99557 6.50001C7.99557 6.42674 7.97947 6.35437 7.9484 6.28801C7.91734 6.22165 7.87207 6.16294 7.8158 6.11601L4.8158 3.61601C4.71355 3.53488 4.58362 3.49695 4.45378 3.51032C4.32393 3.5237 4.20447 3.58732 4.12091 3.6876C4.03734 3.78788 3.99631 3.91685 4.00656 4.04698C4.01682 4.17711 4.07756 4.29806 4.1758 4.38401L6.7188 6.50001L4.1798 8.61601C4.07799 8.7009 4.01406 8.82275 4.00205 8.95476C3.99005 9.08677 4.03097 9.21815 4.1158 9.32001Z" fill="#E45666"/>
<path d="M10 0.5H2C1.46957 0.5 0.960859 0.710714 0.585786 1.08579C0.210714 1.46086 0 1.96957 0 2.5L0 10.5C0 11.0304 0.210714 11.5391 0.585786 11.9142C0.960859 12.2893 1.46957 12.5 2 12.5H10C10.5304 12.5 11.0391 12.2893 11.4142 11.9142C11.7893 11.5391 12 11.0304 12 10.5V2.5C12 1.96957 11.7893 1.46086 11.4142 1.08579C11.0391 0.710714 10.5304 0.5 10 0.5V0.5ZM10 10.5H2V2.5H10V10.5Z" fill="#E45666"/>
</g>
<defs>
<clipPath id="clip0">
<rect width="12" height="12" fill="white" transform="translate(0 0.5)"/>
</clipPath>
</defs>
</svg>
