<svg width="22" height="22" viewBox="0 0 22 22" fill="none" xmlns="http://www.w3.org/2000/svg">
<path fill-rule="evenodd" clip-rule="evenodd" d="M20.1875 3.125H17.5625V0.5H14.9375V3.125H12.3125V0.5H9.6875V3.125H7.0625V0.5H4.4375V3.125H1.8125C1.08669 3.125 0.5 3.71169 0.5 4.4375V20.1875C0.5 20.9133 1.08669 21.5 1.8125 21.5H20.1875C20.9133 21.5 21.5 20.9133 21.5 20.1875V4.4375C21.5 3.71169 20.9133 3.125 20.1875 3.125ZM18.875 18.875H3.125V7.0625H18.875V18.875ZM8.37489 9.6875H5.74989V12.3125H8.37489V9.6875ZM9.68758 9.6875H12.3126V12.3125H9.68758V9.6875ZM8.37489 13.625H5.74989V16.25H8.37489V13.625ZM9.68758 13.625H12.3126V16.25H9.68758V13.625ZM16.2499 9.6875H13.6249V12.3125H16.2499V9.6875ZM13.6249 13.625H16.2499V16.25H13.6249V13.625Z" fill="#212121"/>
</svg>
