<svg width="32" height="32" viewBox="0 0 32 32" fill="none" xmlns="http://www.w3.org/2000/svg">
<path fill-rule="evenodd" clip-rule="evenodd" d="M13.2002 0.5C12.3718 0.5 11.7002 1.17157 11.7002 2C11.7002 2.82843 12.3718 3.5 13.2002 3.5H14.5V6.21289C12.8857 6.45827 11.3995 7.09351 10.1404 8.01957L8.22146 6.10063L9.14095 5.18114C9.72674 4.59536 9.72674 3.64561 9.14095 3.05982C8.55517 2.47404 7.60542 2.47404 7.01963 3.05982L3.06043 7.01902C2.47465 7.60481 2.47465 8.55456 3.06043 9.14034C3.64622 9.72613 4.59597 9.72613 5.18175 9.14034L6.10014 8.22195L8.01917 10.141C7.09337 11.3999 6.45831 12.886 6.213 14.5H3.5V13.2C3.5 12.3716 2.82843 11.7 2 11.7C1.17157 11.7 0.5 12.3716 0.5 13.2V16V18.8C0.5 19.6284 1.17157 20.3 2 20.3C2.82843 20.3 3.5 19.6284 3.5 18.8V17.5H6.213C6.45833 19.114 7.0934 20.6001 8.0192 21.859L6.10017 23.778L5.18175 22.8596C4.59597 22.2738 3.64622 22.2738 3.06043 22.8596C2.47465 23.4454 2.47465 24.3952 3.06043 24.9809L7.01963 28.9401C7.60542 29.5259 8.55517 29.5259 9.14095 28.9401C9.72674 28.3544 9.72674 27.4046 9.14095 26.8188L8.22149 25.8994L10.1404 23.9804C11.3995 24.9065 12.8857 25.5417 14.5 25.7871V28.5H13.2002C12.3718 28.5 11.7002 29.1716 11.7002 30C11.7002 30.8284 12.3718 31.5 13.2002 31.5H15.9913L16 31.5L16.0087 31.5H18.8002C19.6286 31.5 20.3002 30.8284 20.3002 30C20.3002 29.1716 19.6286 28.5 18.8002 28.5H17.5V25.7871C19.1142 25.5418 20.6004 24.9066 21.8595 23.9806L23.7787 25.8999L22.8598 26.8188C22.274 27.4046 22.274 28.3544 22.8598 28.9401C23.4455 29.5259 24.3953 29.5259 24.9811 28.9401L28.9403 24.9809C29.5261 24.3952 29.5261 23.4454 28.9403 22.8596C28.3545 22.2738 27.4047 22.2738 26.819 22.8596L25.9 23.7785L23.9808 21.8593C24.9067 20.6003 25.5418 19.1142 25.7872 17.5H28.5V18.8C28.5 19.6284 29.1716 20.3 30 20.3C30.8284 20.3 31.5 19.6284 31.5 18.8V13.2C31.5 12.3716 30.8284 11.7 30 11.7C29.1716 11.7 28.5 12.3716 28.5 13.2V14.5H25.7872C25.5419 12.8858 24.9067 11.3997 23.9808 10.1407L25.9001 8.22146L26.819 9.14034C27.4047 9.72613 28.3545 9.72613 28.9403 9.14034C29.5261 8.55456 29.5261 7.60481 28.9403 7.01902L24.9811 3.05982C24.3953 2.47404 23.4455 2.47404 22.8598 3.05982C22.274 3.64561 22.274 4.59536 22.8598 5.18114L23.7788 6.10014L21.8595 8.01937C20.6004 7.09338 19.1143 6.4582 17.5 6.21286V3.5H18.8002C19.6286 3.5 20.3002 2.82843 20.3002 2C20.3002 1.17157 19.6286 0.5 18.8002 0.5H16H13.2002ZM15.9921 9.09998C15.9947 9.09999 15.9974 9.1 16 9.1C16.0026 9.1 16.0053 9.09999 16.0079 9.09998C19.8077 9.1042 22.8882 12.1799 22.9001 15.9779C22.9 15.9852 22.8999 15.9926 22.8999 16C22.8999 16.0074 22.9 16.0148 22.9001 16.0221C22.8881 19.8227 19.8035 22.9 16.0001 22.9C12.1893 22.9 9.1001 19.8107 9.1001 16C9.1001 12.1919 12.185 9.10429 15.9921 9.09998ZM16.0002 14.7C15.2822 14.7 14.7002 15.282 14.7002 16C14.7002 16.718 15.2822 17.3 16.0002 17.3C16.7182 17.3 17.3002 16.718 17.3002 16C17.3002 15.282 16.7182 14.7 16.0002 14.7ZM11.7002 16C11.7002 13.6252 13.6254 11.7 16.0002 11.7C18.375 11.7 20.3002 13.6252 20.3002 16C20.3002 18.3748 18.375 20.3 16.0002 20.3C13.6254 20.3 11.7002 18.3748 11.7002 16Z" fill="#30354B"/>
</svg>
