<svg width="21" height="24" viewBox="0 0 21 24" fill="none" xmlns="http://www.w3.org/2000/svg">
<path d="M8.32792 10.068C7.99458 10.0969 7.68419 10.2498 7.45805 10.4964C7.2319 10.743 7.10645 11.0654 7.10645 11.4C7.10645 11.7346 7.2319 12.057 7.45805 12.3037C7.68419 12.5503 7.99458 12.7031 8.32792 12.732C8.4958 12.7251 8.66066 12.6851 8.81307 12.6144C8.96548 12.5436 9.10245 12.4436 9.21614 12.3198C9.32983 12.1961 9.418 12.0512 9.47562 11.8934C9.53324 11.7355 9.55917 11.5679 9.55192 11.4C9.56011 11.2319 9.53483 11.0639 9.47756 10.9057C9.42029 10.7474 9.33217 10.6021 9.2183 10.4782C9.10444 10.3543 8.9671 10.2542 8.81425 10.1838C8.66141 10.1134 8.4961 10.074 8.32792 10.068ZM12.7079 10.068C12.4396 10.0453 12.1707 10.104 11.9364 10.2367C11.702 10.3693 11.5132 10.5696 11.3946 10.8113C11.276 11.0531 11.2332 11.325 11.2717 11.5915C11.3102 11.858 11.4283 12.1066 11.6105 12.3049C11.7926 12.5031 12.0305 12.6418 12.2927 12.7026C12.555 12.7635 12.8296 12.7437 13.0805 12.6459C13.3314 12.5482 13.5469 12.3769 13.6988 12.1546C13.8507 11.9323 13.932 11.6693 13.9319 11.4C13.9392 11.2322 13.9132 11.0645 13.8556 10.9067C13.798 10.7488 13.7098 10.6039 13.5961 10.4802C13.4825 10.3565 13.3455 10.2564 13.1931 10.1857C13.0407 10.1149 12.8758 10.075 12.7079 10.068Z" fill="black"/>
<path d="M18.54 0H2.46001C2.13617 0.000786973 1.81565 0.0653515 1.51677 0.190007C1.21788 0.314663 0.946469 0.496969 0.718037 0.726515C0.489605 0.956062 0.308622 1.22835 0.185422 1.52784C0.0622225 1.82734 -0.000781573 2.14816 7.31766e-06 2.472V18.7C-0.000781573 19.0238 0.0622225 19.3447 0.185422 19.6442C0.308622 19.9436 0.489605 20.2159 0.718037 20.4455C0.946469 20.675 1.21788 20.8573 1.51677 20.982C1.81565 21.1066 2.13617 21.1712 2.46001 21.172H16.068L15.432 18.952L16.968 20.38L18.42 21.72L21 24V2.472C21.0008 2.14816 20.9378 1.82734 20.8146 1.52784C20.6914 1.22835 20.5104 0.956062 20.282 0.726515C20.0535 0.496969 19.7821 0.314663 19.4832 0.190007C19.1844 0.0653515 18.8638 0.000786973 18.54 0ZM13.908 15.672C13.908 15.672 13.476 15.156 13.116 14.7C13.9858 14.4952 14.7552 13.9893 15.288 13.272C14.8562 13.5594 14.3933 13.7969 13.908 13.98C13.3498 14.2183 12.7659 14.3914 12.168 14.496C11.1403 14.6852 10.0863 14.6812 9.06001 14.484C8.45887 14.3659 7.86976 14.1932 7.30001 13.968C6.81882 13.7842 6.35992 13.5467 5.93201 13.26C6.44554 13.9624 7.18835 14.4632 8.03201 14.676C7.67201 15.132 7.23201 15.676 7.23201 15.676C6.51919 15.6952 5.81258 15.5388 5.17437 15.2208C4.53616 14.9027 3.9859 14.4327 3.57201 13.852C3.61037 11.4179 4.20124 9.02433 5.30001 6.852C6.26643 6.09298 7.44466 5.65272 8.67201 5.592L8.79201 5.736C7.63452 6.02081 6.55416 6.55757 5.62801 7.308C5.62801 7.308 5.89201 7.164 6.33601 6.96C7.19835 6.56489 8.11767 6.3084 9.06001 6.2C9.12587 6.18632 9.19278 6.17829 9.26001 6.176C10.0641 6.07122 10.8779 6.06317 11.684 6.152C12.9533 6.2975 14.1817 6.69023 15.3 7.308C14.4231 6.5942 13.4047 6.07475 12.312 5.784L12.48 5.592C13.7074 5.65272 14.8856 6.09298 15.852 6.852C16.9508 9.02433 17.5416 11.4179 17.58 13.852C17.1624 14.4314 16.6096 14.9001 15.9697 15.2173C15.3297 15.5344 14.622 15.6905 13.908 15.672Z" fill="black"/>
</svg>
