<svg width="28" height="28" viewBox="0 0 28 28" fill="none" xmlns="http://www.w3.org/2000/svg">
<path d="M13.9865 0.666626C6.6265 0.666626 0.666504 6.63996 0.666504 14C0.666504 21.36 6.6265 27.3333 13.9865 27.3333C21.3598 27.3333 27.3332 21.36 27.3332 14C27.3332 6.63996 21.3598 0.666626 13.9865 0.666626ZM23.2265 8.66663H19.2932C18.8665 6.99996 18.2532 5.39996 17.4532 3.91996C19.9065 4.75996 21.9465 6.46663 23.2265 8.66663ZM13.9998 3.38663C15.1065 4.98663 15.9732 6.75996 16.5465 8.66663H11.4532C12.0265 6.75996 12.8932 4.98663 13.9998 3.38663ZM3.67984 16.6666C3.4665 15.8133 3.33317 14.92 3.33317 14C3.33317 13.08 3.4665 12.1866 3.67984 11.3333H8.1865C8.07984 12.2133 7.99984 13.0933 7.99984 14C7.99984 14.9066 8.07984 15.7866 8.1865 16.6666H3.67984ZM4.77317 19.3333H8.7065C9.13317 21 9.7465 22.6 10.5465 24.08C8.09317 23.24 6.05317 21.5466 4.77317 19.3333ZM8.7065 8.66663H4.77317C6.05317 6.45329 8.09317 4.75996 10.5465 3.91996C9.7465 5.39996 9.13317 6.99996 8.7065 8.66663ZM13.9998 24.6133C12.8932 23.0133 12.0265 21.24 11.4532 19.3333H16.5465C15.9732 21.24 15.1065 23.0133 13.9998 24.6133ZM17.1198 16.6666H10.8798C10.7598 15.7866 10.6665 14.9066 10.6665 14C10.6665 13.0933 10.7598 12.2 10.8798 11.3333H17.1198C17.2398 12.2 17.3332 13.0933 17.3332 14C17.3332 14.9066 17.2398 15.7866 17.1198 16.6666ZM17.4532 24.08C18.2532 22.6 18.8665 21 19.2932 19.3333H23.2265C21.9465 21.5333 19.9065 23.24 17.4532 24.08ZM19.8132 16.6666C19.9198 15.7866 19.9998 14.9066 19.9998 14C19.9998 13.0933 19.9198 12.2133 19.8132 11.3333H24.3198C24.5332 12.1866 24.6665 13.08 24.6665 14C24.6665 14.92 24.5332 15.8133 24.3198 16.6666H19.8132Z" fill="#323232"/>
</svg>
