<svg width="28" height="28" viewBox="0 0 28 28" fill="none" xmlns="http://www.w3.org/2000/svg">
<path d="M13.9865 0.666626C6.6265 0.666626 0.666504 6.63996 0.666504 14C0.666504 21.36 6.6265 27.3333 13.9865 27.3333C21.3598 27.3333 27.3332 21.36 27.3332 14C27.3332 6.63996 21.3598 0.666626 13.9865 0.666626ZM13.9998 24.6666C8.1065 24.6666 3.33317 19.8933 3.33317 14C3.33317 8.10663 8.1065 3.33329 13.9998 3.33329C19.8932 3.33329 24.6665 8.10663 24.6665 14C24.6665 19.8933 19.8932 24.6666 13.9998 24.6666ZM14.6665 7.33329H12.6665V15.3333L19.6665 19.5333L20.6665 17.8933L14.6665 14.3333V7.33329Z" fill="#323232"/>
</svg>
