<svg width="16" height="16" viewBox="0 0 16 16" fill="none" xmlns="http://www.w3.org/2000/svg">
<path d="M8.89658 10.315C7.97083 9.93116 6.88408 9.73633 5.66667 9.73633C4.44925 9.73633 3.3625 9.93116 2.43733 10.315C1.56408 10.6761 1 11.5225 1 12.471V14.403H10.3333V12.471C10.3333 11.5225 9.76925 10.6761 8.89658 10.315Z" fill="#212121"/>
<path d="M5.66667 9.15304C7.2775 9.15304 8.58333 7.8472 8.58333 6.23637C8.58333 4.62554 7.2775 3.3197 5.66667 3.3197C4.05584 3.3197 2.75 4.62554 2.75 6.23637C2.75 7.8472 4.05584 9.15304 5.66667 9.15304Z" fill="#212121"/>
<path d="M10.9682 8.60294L10.0938 7.83119L10.4793 7.39369C10.7611 7.07403 10.9168 6.66278 10.9168 6.23636C10.9168 5.80994 10.7617 5.39869 10.4799 5.07961L10.0943 4.64211L10.9688 3.87036L11.3549 4.30786C11.8251 4.83986 12.0835 5.52528 12.0835 6.23636C12.0835 6.94744 11.8245 7.63286 11.3543 8.16544L10.9682 8.60294Z" fill="#212121"/>
<path d="M12.6219 10.973L11.8438 10.1038L12.2783 9.71474C13.2665 8.82924 13.8335 7.56166 13.8335 6.23633C13.8335 4.91099 13.2665 3.64341 12.2783 2.75849L11.8438 2.36941L12.6219 1.50024L13.0565 1.88933C14.2914 2.99474 15.0002 4.57966 15.0002 6.23633C15.0002 7.89299 14.2914 9.47791 13.0565 10.5839L12.6219 10.973Z" fill="#212121"/>
</svg>
