<svg width="30" height="30" viewBox="0 0 30 30" fill="none" xmlns="http://www.w3.org/2000/svg">
<path d="M8.0135 6.45328L5.6135 4.06661L3.7335 5.94661L6.12016 8.33328L8.0135 6.45328ZM4.3335 13.9999H0.333496V16.6666H4.3335V13.9999ZM16.3335 0.733276H13.6668V4.66661H16.3335V0.733276ZM26.2668 5.94661L24.3868 4.06661L22.0002 6.45328L23.8802 8.33328L26.2668 5.94661ZM21.9868 24.2133L24.3735 26.6133L26.2535 24.7333L23.8535 22.3466L21.9868 24.2133ZM25.6668 13.9999V16.6666H29.6668V13.9999H25.6668ZM15.0002 7.33328C10.5868 7.33328 7.00016 10.9199 7.00016 15.3333C7.00016 19.7466 10.5868 23.3333 15.0002 23.3333C19.4135 23.3333 23.0002 19.7466 23.0002 15.3333C23.0002 10.9199 19.4135 7.33328 15.0002 7.33328ZM13.6668 29.9333H16.3335V25.9999H13.6668V29.9333ZM3.7335 24.7199L5.6135 26.5999L8.00016 24.1999L6.12016 22.3199L3.7335 24.7199Z" fill="#323232"/>
</svg>
