<svg width="17" height="8" viewBox="0 0 17 8" fill="none" xmlns="http://www.w3.org/2000/svg">
<path d="M8.5 4.5C9.58667 4.5 10.5467 4.76 11.3267 5.1C12.0467 5.42 12.5 6.14 12.5 6.92V8H4.5V6.92667C4.5 6.14 4.95333 5.42 5.67333 5.10667C6.45333 4.76 7.41333 4.5 8.5 4.5ZM3.16667 4.66667C3.9 4.66667 4.5 4.06667 4.5 3.33333C4.5 2.6 3.9 2 3.16667 2C2.43333 2 1.83333 2.6 1.83333 3.33333C1.83333 4.06667 2.43333 4.66667 3.16667 4.66667ZM3.92 5.4C3.67333 5.36 3.42667 5.33333 3.16667 5.33333C2.50667 5.33333 1.88 5.47333 1.31333 5.72C0.82 5.93333 0.5 6.41333 0.5 6.95333V8H3.5V6.92667C3.5 6.37333 3.65333 5.85333 3.92 5.4ZM13.8333 4.66667C14.5667 4.66667 15.1667 4.06667 15.1667 3.33333C15.1667 2.6 14.5667 2 13.8333 2C13.1 2 12.5 2.6 12.5 3.33333C12.5 4.06667 13.1 4.66667 13.8333 4.66667ZM16.5 6.95333C16.5 6.41333 16.18 5.93333 15.6867 5.72C15.12 5.47333 14.4933 5.33333 13.8333 5.33333C13.5733 5.33333 13.3267 5.36 13.08 5.4C13.3467 5.85333 13.5 6.37333 13.5 6.92667V8H16.5V6.95333ZM8.5 0C9.60667 0 10.5 0.893333 10.5 2C10.5 3.10667 9.60667 4 8.5 4C7.39333 4 6.5 3.10667 6.5 2C6.5 0.893333 7.39333 0 8.5 0Z" fill="#30354B"/>
</svg>
