<svg width="28" height="28" viewBox="0 0 28 28" fill="none" xmlns="http://www.w3.org/2000/svg">
<path d="M13.9998 0.666626C6.63984 0.666626 0.666504 6.63996 0.666504 14C0.666504 21.36 6.63984 27.3333 13.9998 27.3333C21.3598 27.3333 27.3332 21.36 27.3332 14C27.3332 6.63996 21.3598 0.666626 13.9998 0.666626ZM13.9998 24.6666C8.11984 24.6666 3.33317 19.88 3.33317 14C3.33317 8.11996 8.11984 3.33329 13.9998 3.33329C19.8798 3.33329 24.6665 8.11996 24.6665 14C24.6665 19.88 19.8798 24.6666 13.9998 24.6666ZM14.4132 12.8533C12.0532 12.2533 11.2932 11.6 11.2932 10.6266C11.2932 9.50663 12.3465 8.71996 14.0932 8.71996C15.9332 8.71996 16.6265 9.59996 16.6798 10.9066H18.9598C18.8932 9.11996 17.7998 7.47996 15.6398 6.94663V4.66663H12.5332V6.91996C10.5198 7.34663 8.9065 8.65329 8.9065 10.6666C8.9065 13.0533 10.8932 14.2533 13.7865 14.9466C16.3865 15.56 16.9065 16.48 16.9065 17.44C16.9065 18.1466 16.3865 19.2933 14.1065 19.2933C11.9732 19.2933 11.1332 18.3333 11.0132 17.1066H8.71984C8.85317 19.3733 10.5332 20.6533 12.5332 21.0666V23.3333H15.6532V21.1066C17.6798 20.72 19.2798 19.56 19.2932 17.4133C19.2798 14.48 16.7598 13.4666 14.4132 12.8533Z" fill="#323232"/>
</svg>
