<svg width="16" height="16" viewBox="0 0 16 16" fill="none" xmlns="http://www.w3.org/2000/svg">
<path d="M1.07202 11.9999L8.00015 15.9999L14.9283 11.9999V3.99993L8.00015 0.000244141L1.07202 4.00024V11.9999Z" />
<path d="M7.28506 0.963623L2.26194 3.86381C2.27198 3.95301 2.27198 4.04304 2.26194 4.13223L7.28538 7.03242C7.70894 6.71989 8.28672 6.71989 8.71028 7.03242L13.7337 4.1322C13.7237 4.043 13.7236 3.95302 13.7337 3.86382L8.71056 0.963636C8.287 1.27617 7.70919 1.27617 7.2856 0.963636L7.28506 0.963623ZM14.216 4.93331L9.18725 7.86581C9.24613 8.3889 8.95722 8.88928 8.47478 9.09984L8.48043 14.868C8.56269 14.9039 8.64064 14.9489 8.71286 15.0022L13.7363 12.102C13.6774 11.5789 13.9663 11.0785 14.4488 10.8679V5.06762C14.3665 5.03172 14.2885 4.98673 14.2163 4.93344L14.216 4.93331ZM1.78444 4.96555C1.71221 5.01884 1.63427 5.06387 1.552 5.09978V10.9001C2.03444 11.1106 2.32335 11.611 2.26447 12.1341L7.2876 15.0343C7.35982 14.981 7.43781 14.936 7.52008 14.9001V9.09976C7.03764 8.88921 6.74873 8.38883 6.80761 7.86573L1.78448 4.96542L1.78444 4.96555Z" />
<path d="M8 16L14.9281 12V4L8 8V16Z" />
<path d="M8.00015 16V8L1.07202 4V12L8.00015 16Z" />
<path d="M1.07202 4L8.00015 8L14.9283 4L8.00015 0L1.07202 4Z" />
<defs>
<linearGradient id="paint0_linear" x1="1.07202" y1="7.99993" x2="14.9284" y2="7.99993" gradientUnits="userSpaceOnUse">
<stop stop-color="white"/>
</linearGradient>
<linearGradient id="paint1_linear" x1="1.5521" y1="7.99894" x2="14.4485" y2="7.99894" gradientUnits="userSpaceOnUse">
<stop stop-color="#272727"/>
</linearGradient>
</defs>
</svg>
