<svg width="14" height="14" viewBox="0 0 14 14" fill="none" xmlns="http://www.w3.org/2000/svg">
<path d="M6.99301 0.333374C3.31301 0.333374 0.333008 3.32004 0.333008 7.00004C0.333008 10.68 3.31301 13.6667 6.99301 13.6667C10.6797 13.6667 13.6663 10.68 13.6663 7.00004C13.6663 3.32004 10.6797 0.333374 6.99301 0.333374ZM11.613 4.33337H9.64634C9.43301 3.50004 9.12634 2.70004 8.72634 1.96004C9.95301 2.38004 10.973 3.23337 11.613 4.33337ZM6.99967 1.69337C7.55301 2.49337 7.98634 3.38004 8.27301 4.33337H5.72634C6.01301 3.38004 6.44634 2.49337 6.99967 1.69337ZM1.83967 8.33337C1.73301 7.90671 1.66634 7.46004 1.66634 7.00004C1.66634 6.54004 1.73301 6.09337 1.83967 5.66671H4.09301C4.03967 6.10671 3.99967 6.54671 3.99967 7.00004C3.99967 7.45337 4.03967 7.89337 4.09301 8.33337H1.83967ZM2.38634 9.66671H4.35301C4.56634 10.5 4.87301 11.3 5.27301 12.04C4.04634 11.62 3.02634 10.7734 2.38634 9.66671ZM4.35301 4.33337H2.38634C3.02634 3.22671 4.04634 2.38004 5.27301 1.96004C4.87301 2.70004 4.56634 3.50004 4.35301 4.33337ZM6.99967 12.3067C6.44634 11.5067 6.01301 10.62 5.72634 9.66671H8.27301C7.98634 10.62 7.55301 11.5067 6.99967 12.3067ZM8.55968 8.33337H5.43967C5.37967 7.89337 5.33301 7.45337 5.33301 7.00004C5.33301 6.54671 5.37967 6.10004 5.43967 5.66671H8.55968C8.61967 6.10004 8.66634 6.54671 8.66634 7.00004C8.66634 7.45337 8.61967 7.89337 8.55968 8.33337ZM8.72634 12.04C9.12634 11.3 9.43301 10.5 9.64634 9.66671H11.613C10.973 10.7667 9.95301 11.62 8.72634 12.04ZM9.90634 8.33337C9.95967 7.89337 9.99967 7.45337 9.99967 7.00004C9.99967 6.54671 9.95967 6.10671 9.90634 5.66671H12.1597C12.2663 6.09337 12.333 6.54004 12.333 7.00004C12.333 7.46004 12.2663 7.90671 12.1597 8.33337H9.90634Z" fill="#323232"/>
</svg>
