<svg width="29" height="15" viewBox="0 0 29 15" fill="none" xmlns="http://www.w3.org/2000/svg">
<path d="M21.75 0H15.95V2.9H21.75C24.1425 2.9 26.1 4.8575 26.1 7.25C26.1 9.6425 24.1425 11.6 21.75 11.6H15.95V14.5H21.75C25.752 14.5 29 11.252 29 7.25C29 3.248 25.752 0 21.75 0ZM13.05 11.6H7.25C4.8575 11.6 2.9 9.6425 2.9 7.25C2.9 4.8575 4.8575 2.9 7.25 2.9H13.05V0H7.25C3.248 0 0 3.248 0 7.25C0 11.252 3.248 14.5 7.25 14.5H13.05V11.6ZM8.7 5.8H20.3V8.7H8.7V5.8ZM21.75 0H15.95V2.9H21.75C24.1425 2.9 26.1 4.8575 26.1 7.25C26.1 9.6425 24.1425 11.6 21.75 11.6H15.95V14.5H21.75C25.752 14.5 29 11.252 29 7.25C29 3.248 25.752 0 21.75 0ZM13.05 11.6H7.25C4.8575 11.6 2.9 9.6425 2.9 7.25C2.9 4.8575 4.8575 2.9 7.25 2.9H13.05V0H7.25C3.248 0 0 3.248 0 7.25C0 11.252 3.248 14.5 7.25 14.5H13.05V11.6ZM8.7 5.8H20.3V8.7H8.7V5.8Z" fill="#323232"/>
</svg>
