<svg width="25" height="20" viewBox="0 0 25 20" fill="none" xmlns="http://www.w3.org/2000/svg">
<path d="M2.3335 8C1.22683 8 0.333496 8.89333 0.333496 10C0.333496 11.1067 1.22683 12 2.3335 12C3.44016 12 4.3335 11.1067 4.3335 10C4.3335 8.89333 3.44016 8 2.3335 8ZM2.3335 0C1.22683 0 0.333496 0.893333 0.333496 2C0.333496 3.10667 1.22683 4 2.3335 4C3.44016 4 4.3335 3.10667 4.3335 2C4.3335 0.893333 3.44016 0 2.3335 0ZM2.3335 16C1.22683 16 0.333496 16.9067 0.333496 18C0.333496 19.0933 1.24016 20 2.3335 20C3.42683 20 4.3335 19.0933 4.3335 18C4.3335 16.9067 3.44016 16 2.3335 16ZM6.3335 19.3333H25.0002V16.6667H6.3335V19.3333ZM6.3335 11.3333H25.0002V8.66667H6.3335V11.3333ZM6.3335 0.666667V3.33333H25.0002V0.666667H6.3335Z" fill="#323232"/>
</svg>
