<svg width="28" height="22" viewBox="0 0 28 22" fill="none" xmlns="http://www.w3.org/2000/svg">
<path d="M27.3332 8.33331V2.99998C27.3332 1.53331 26.1332 0.333313 24.6665 0.333313H3.33317C1.8665 0.333313 0.679837 1.53331 0.679837 2.99998V8.33331C2.1465 8.33331 3.33317 9.53331 3.33317 11C3.33317 12.4666 2.1465 13.6666 0.666504 13.6666V19C0.666504 20.4666 1.8665 21.6666 3.33317 21.6666H24.6665C26.1332 21.6666 27.3332 20.4666 27.3332 19V13.6666C25.8665 13.6666 24.6665 12.4666 24.6665 11C24.6665 9.53331 25.8665 8.33331 27.3332 8.33331ZM24.6665 6.38665C23.0798 7.30665 21.9998 9.03998 21.9998 11C21.9998 12.96 23.0798 14.6933 24.6665 15.6133V19H3.33317V15.6133C4.91984 14.6933 5.99984 12.96 5.99984 11C5.99984 9.02665 4.93317 7.30665 3.3465 6.38665L3.33317 2.99998H24.6665V6.38665ZM10.0932 16.3333L13.9998 13.8266L17.9065 16.3333L16.7198 11.8533L20.3065 8.91998L15.6798 8.63998L13.9998 4.33331L12.3065 8.62665L7.67984 8.90665L11.2665 11.84L10.0932 16.3333Z" fill="#323232"/>
</svg>
