<svg width="30" height="30" viewBox="0 0 30 30" fill="none" xmlns="http://www.w3.org/2000/svg">
<path d="M15 18.75C20.1777 18.75 24.375 14.5527 24.375 9.375C24.375 4.19733 20.1777 0 15 0C9.82233 0 5.625 4.19733 5.625 9.375C5.625 14.5527 9.82233 18.75 15 18.75Z" fill="white"/>
<path d="M25.8752 16.6875C23.8127 19.875 20.2502 22.125 16.1252 22.5L19.6877 30L23.2502 24.1875L30.0002 25.125L25.8752 16.6875Z" fill="white"/>
<path d="M4.125 16.6875L0 25.125L6.75 24.1875L10.125 30L13.6875 22.5C9.75 22.125 6.1875 19.875 4.125 16.6875Z" fill="white"/>
</svg>
