<svg width="40" height="40" viewBox="0 0 40 40" fill="none" xmlns="http://www.w3.org/2000/svg">
<path d="M7.99973 27.6208L7.99739 27.776L8.08332 27.9052C10.6445 31.7569 15.0336 34.3 19.9997 34.3C24.9658 34.3 29.3548 31.7569 31.916 27.9052L32.002 27.776L31.9996 27.6208C31.9825 26.4872 31.4007 25.5213 30.5565 24.7317C29.7143 23.944 28.5772 23.2973 27.3512 22.785C24.9012 21.7613 21.9752 21.225 19.9997 21.225C18.0147 21.225 15.0887 21.7612 12.6408 22.7851C11.4159 23.2974 10.2805 23.9442 9.43984 24.732C8.59706 25.5218 8.01681 26.4877 7.99973 27.6208ZM1.33301 20C1.33301 9.69615 9.69582 1.33334 19.9997 1.33334C30.3035 1.33334 38.6663 9.69615 38.6663 20C38.6663 30.3039 30.3035 38.6667 19.9997 38.6667C9.69582 38.6667 1.33301 30.3039 1.33301 20ZM26.2497 12.3333C26.2497 8.87553 23.4575 6.08334 19.9997 6.08334C16.5419 6.08334 13.7497 8.87553 13.7497 12.3333C13.7497 15.7911 16.5419 18.5833 19.9997 18.5833C23.4575 18.5833 26.2497 15.7911 26.2497 12.3333Z" fill="#BABABA" stroke="#E8E8E8"/>
</svg>
