<svg width="32" height="16" viewBox="0 0 32 16" fill="none" xmlns="http://www.w3.org/2000/svg">
<path d="M16 9C18.1733 9 20.0933 9.52 21.6533 10.2C23.0933 10.84 24 12.28 24 13.84V16H8V13.8533C8 12.28 8.90667 10.84 10.3467 10.2133C11.9067 9.52 13.8267 9 16 9ZM5.33333 9.33333C6.8 9.33333 8 8.13333 8 6.66667C8 5.2 6.8 4 5.33333 4C3.86667 4 2.66667 5.2 2.66667 6.66667C2.66667 8.13333 3.86667 9.33333 5.33333 9.33333ZM6.84 10.8C6.34667 10.72 5.85333 10.6667 5.33333 10.6667C4.01333 10.6667 2.76 10.9467 1.62667 11.44C0.64 11.8667 0 12.8267 0 13.9067V16H6V13.8533C6 12.7467 6.30667 11.7067 6.84 10.8ZM26.6667 9.33333C28.1333 9.33333 29.3333 8.13333 29.3333 6.66667C29.3333 5.2 28.1333 4 26.6667 4C25.2 4 24 5.2 24 6.66667C24 8.13333 25.2 9.33333 26.6667 9.33333ZM32 13.9067C32 12.8267 31.36 11.8667 30.3733 11.44C29.24 10.9467 27.9867 10.6667 26.6667 10.6667C26.1467 10.6667 25.6533 10.72 25.16 10.8C25.6933 11.7067 26 12.7467 26 13.8533V16H32V13.9067ZM16 0C18.2133 0 20 1.78667 20 4C20 6.21333 18.2133 8 16 8C13.7867 8 12 6.21333 12 4C12 1.78667 13.7867 0 16 0Z" fill="#323232"/>
</svg>
