<svg width="25" height="24" viewBox="0 0 25 24" fill="none" xmlns="http://www.w3.org/2000/svg">
<g clip-path="url(#clip0_10113_34302)">
<path d="M12.5 12C14.71 12 16.5 10.21 16.5 8C16.5 5.79 14.71 4 12.5 4C10.29 4 8.5 5.79 8.5 8C8.5 10.21 10.29 12 12.5 12ZM12.5 14C9.83 14 4.5 15.34 4.5 18V20H20.5V18C20.5 15.34 15.17 14 12.5 14Z"/>
<path d="M19.4888 10.5L18.5 9.52157L18.936 8.9669C19.2546 8.56163 19.4307 8.04024 19.4307 7.49963C19.4307 6.95902 19.2553 6.43763 18.9367 6.0331L18.5007 5.47843L19.4894 4.5L19.9261 5.05467C20.4578 5.72914 20.75 6.59811 20.75 7.49963C20.75 8.40115 20.4571 9.27012 19.9255 9.94533L19.4888 10.5Z" />
<path d="M21.1094 13.5L20 12.3989L20.6196 11.9061C22.0284 10.7843 22.8367 9.17855 22.8367 7.49963C22.8367 5.82071 22.0284 4.21495 20.6196 3.09394L20 2.60105L21.1094 1.5L21.729 1.99289C23.4896 3.39322 24.5 5.40098 24.5 7.49963C24.5 9.59828 23.4896 11.606 21.729 13.0071L21.1094 13.5Z" />
</g>
<defs>
<clipPath id="clip0_10113_34302">
<rect width="24" height="24" fill="white" transform="translate(0.5)"/>
</clipPath>
</defs>
</svg>
