<svg width="23" height="16" viewBox="0 0 23 16" fill="none" xmlns="http://www.w3.org/2000/svg">
<path d="M12.5 4C12.5 1.79 10.71 0 8.5 0C6.29 0 4.5 1.79 4.5 4C4.5 6.21 6.29 8 8.5 8C10.71 8 12.5 6.21 12.5 4ZM10.5 4C10.5 5.1 9.6 6 8.5 6C7.4 6 6.5 5.1 6.5 4C6.5 2.9 7.4 2 8.5 2C9.6 2 10.5 2.9 10.5 4ZM0.5 14V16H16.5V14C16.5 11.34 11.17 10 8.5 10C5.83 10 0.5 11.34 0.5 14ZM2.5 14C2.7 13.29 5.8 12 8.5 12C11.19 12 14.28 13.28 14.5 14H2.5ZM19.5 11V8H22.5V6H19.5V3H17.5V6H14.5V8H17.5V11H19.5Z" fill="#B7B7B7"/>
</svg>
