<svg width="24" height="24" viewBox="0 0 24 24" fill="none" xmlns="http://www.w3.org/2000/svg">
<path d="M16 8C16 5.79 14.21 4 12 4C9.79 4 8 5.79 8 8C8 10.21 9.79 12 12 12C14.21 12 16 10.21 16 8ZM14 8C14 9.1 13.1 10 12 10C10.9 10 10 9.1 10 8C10 6.9 10.9 6 12 6C13.1 6 14 6.9 14 8ZM4 18V20H20V18C20 15.34 14.67 14 12 14C9.33 14 4 15.34 4 18ZM6 18C6.2 17.29 9.3 16 12 16C14.69 16 17.78 17.28 18 18H6Z" fill="#30354B"/>
<path d="M18.9888 10.5L18 9.52157L18.436 8.9669C18.7546 8.56163 18.9307 8.04024 18.9307 7.49963C18.9307 6.95902 18.7553 6.43763 18.4367 6.0331L18.0007 5.47843L18.9894 4.5L19.4261 5.05467C19.9578 5.72914 20.25 6.59811 20.25 7.49963C20.25 8.40115 19.9571 9.27012 19.4255 9.94533L18.9888 10.5Z" fill="black"/>
<path d="M20.6094 13.5L19.5 12.3989L20.1196 11.9061C21.5284 10.7843 22.3367 9.17855 22.3367 7.49963C22.3367 5.82071 21.5284 4.21495 20.1196 3.09394L19.5 2.60105L20.6094 1.5L21.229 1.99289C22.9896 3.39322 24 5.40098 24 7.49963C24 9.59828 22.9896 11.606 21.229 13.0071L20.6094 13.5Z" fill="black"/>
</svg>
