<svg width="28" height="28" viewBox="0 0 28 28" fill="none" xmlns="http://www.w3.org/2000/svg">
<path d="M15.3332 7.33333H12.6665V12.6667H7.33317V15.3333H12.6665V20.6667H15.3332V15.3333H20.6665V12.6667H15.3332V7.33333ZM13.9998 0.666666C6.63984 0.666666 0.666504 6.64 0.666504 14C0.666504 21.36 6.63984 27.3333 13.9998 27.3333C21.3598 27.3333 27.3332 21.36 27.3332 14C27.3332 6.64 21.3598 0.666666 13.9998 0.666666ZM13.9998 24.6667C8.11984 24.6667 3.33317 19.88 3.33317 14C3.33317 8.12 8.11984 3.33333 13.9998 3.33333C19.8798 3.33333 24.6665 8.12 24.6665 14C24.6665 19.88 19.8798 24.6667 13.9998 24.6667Z" fill="#323232"/>
</svg>
