<svg width="32" height="32" viewBox="0 0 32 32" fill="none" xmlns="http://www.w3.org/2000/svg">
<path d="M15.75 8.125C14.9378 8.125 14.1588 7.80234 13.5845 7.22801C13.0102 6.65368 12.6875 5.87473 12.6875 5.0625C12.6875 4.25027 13.0102 3.47132 13.5845 2.89699C14.1588 2.32266 14.9378 2 15.75 2V2C16.5622 2 17.3412 2.32266 17.9155 2.89699C18.4898 3.47132 18.8125 4.25027 18.8125 5.0625C18.8125 5.87473 18.4898 6.65368 17.9155 7.22801C17.3412 7.80234 16.5622 8.125 15.75 8.125Z" fill="#212121"/>
<path d="M10.5 16.875V11.625C10.5 10.9288 10.7766 10.2611 11.2688 9.76884C11.7611 9.27656 12.4288 9 13.125 9H18.375C19.0712 9 19.7389 9.27656 20.2312 9.76884C20.7234 10.2611 21 10.9288 21 11.625V16.875H10.5Z" fill="#212121"/>
<path d="M7 18.625V21.25H9.625V29.125C9.625 29.3571 9.71719 29.5796 9.88128 29.7437C10.0454 29.9078 10.2679 30 10.5 30H21C21.2321 30 21.4546 29.9078 21.6187 29.7437C21.7828 29.5796 21.875 29.3571 21.875 29.125V21.25H24.5V18.625H7Z" fill="#212121"/>
</svg>
