<svg width="22" height="24" viewBox="0 0 22 24" fill="none" xmlns="http://www.w3.org/2000/svg">
<path d="M18 8C20.2 8 22 6.2 22 4C22 1.8 20.2 0 18 0C15.8 0 14 1.8 14 4C14 4.4 14.1 4.7 14.2 5L6.9 9.2C6.1 8.5 5.1 8 4 8C1.8 8 0 9.8 0 12C0 14.2 1.8 16 4 16C5.1 16 6.1 15.5 6.9 14.8L14.2 19C14.1 19.3 14 19.7 14 20C14 22.2 15.8 24 18 24C20.2 24 22 22.2 22 20C22 17.8 20.2 16 18 16C16.9 16 15.9 16.5 15.1 17.2L7.8 13C7.9 12.7 8 12.4 8 12C8 11.6 7.9 11.3 7.8 11L15.1 6.8C15.9 7.5 16.9 8 18 8Z" fill="black"/>
</svg>
