<?xml version="1.0" encoding="utf-8"?>
<!-- Generator: Adobe Illustrator 24.1.1, SVG Export Plug-In . SVG Version: 6.00 Build 0)  -->
<svg version="1.1" id="Layer_1" xmlns="http://www.w3.org/2000/svg" xmlns:xlink="http://www.w3.org/1999/xlink" x="0px" y="0px"
	 viewBox="0 0 512 512" style="enable-background:new 0 0 512 512;" xml:space="preserve">
<g>
	<polygon points="334.9,120.6 256,41.7 177.1,120.6 156.3,99.7 256,0 355.7,99.7 	"/>
	<rect x="241.1" y="20.8" width="29.8" height="312.6"/>
	<path d="M404.8,512H107.2c-25.3,0-44.7-19.4-44.7-44.7V199.4c0-25.3,19.3-44.7,44.7-44.7h104.2v29.8H107.2c-8.9,0-14.9,6-14.9,14.9
		v267.9c0,8.9,6,14.9,14.9,14.9h297.7c8.9,0,14.9-6,14.9-14.9V199.4c0-8.9-6-14.9-14.9-14.9H300.7v-29.8h104.2
		c25.3,0,44.7,19.3,44.7,44.7v267.9C449.5,492.6,430.1,512,404.8,512z"/>
</g>
</svg>
