<svg width="28" height="26" viewBox="0 0 28 26" fill="none" xmlns="http://www.w3.org/2000/svg">
<path d="M15.7932 17.6295C13.9417 16.8618 11.7682 16.4722 9.33333 16.4722C6.8985 16.4722 4.725 16.8618 2.87467 17.6295C1.12817 18.3517 0 20.0445 0 21.9415V25.8055H18.6667V21.9415C18.6667 20.0445 17.5385 18.3517 15.7932 17.6295Z" fill="#212121"/>
<path d="M9.33333 15.3055C12.555 15.3055 15.1667 12.6938 15.1667 9.47219C15.1667 6.25053 12.555 3.63885 9.33333 3.63885C6.11167 3.63885 3.5 6.25053 3.5 9.47219C3.5 12.6938 6.11167 15.3055 9.33333 15.3055Z" fill="#212121"/>
<path d="M19.9363 14.2053L18.1875 12.6618L18.9587 11.7868C19.5222 11.1475 19.8337 10.325 19.8337 9.47217C19.8337 8.61934 19.5233 7.79684 18.9598 7.15867L18.1887 6.28367L19.9375 4.74017L20.7098 5.61517C21.6502 6.67917 22.167 8.05001 22.167 9.47217C22.167 10.8943 21.649 12.2652 20.7087 13.3303L19.9363 14.2053Z" fill="#212121"/>
<path d="M23.2438 18.9455L21.6875 17.2072L22.5567 16.429C24.533 14.658 25.667 12.1228 25.667 9.47217C25.667 6.8215 24.533 4.28633 22.5567 2.5165L21.6875 1.73833L23.2438 0L24.113 0.778167C26.5828 2.989 28.0003 6.15883 28.0003 9.47217C28.0003 12.7855 26.5828 15.9553 24.113 18.1673L23.2438 18.9455Z" fill="#212121"/>
</svg>
