<svg width="24" height="24" viewBox="0 0 24 24" fill="none" xmlns="http://www.w3.org/2000/svg">
<path d="M21.6695 14.0019C20.9823 13.6089 20.1884 13.4433 19.4014 13.5291C18.6144 13.6148 17.8747 13.9474 17.2883 14.4792C16.7019 15.011 16.2989 15.7147 16.1368 16.4896C15.9748 17.2645 16.0622 18.0708 16.3865 18.7929C15.1188 19.7368 13.5809 20.2475 12.0005 20.2494C11.4381 20.245 10.8781 20.1771 10.331 20.0469C9.87676 21.0406 9.18489 21.9071 8.31645 22.5699C10.041 23.2263 11.9095 23.4104 13.729 23.1032C15.5485 22.796 17.253 22.0086 18.6665 20.8224C19.5458 21.0946 20.4946 21.0338 21.3321 20.6516C22.1696 20.2694 22.8372 19.5926 23.2078 18.7499C23.5785 17.9073 23.6262 16.9578 23.342 16.0822C23.0577 15.2066 22.4614 14.4662 21.6665 14.0019H21.6695Z" fill="#E55066"/>
<path d="M15.6469 2.90655C15.4538 2.07081 14.98 1.32655 14.3045 0.797881C13.629 0.269215 12.7927 -0.0118953 11.935 0.00142936C11.0773 0.014754 10.2501 0.321709 9.59141 0.871103C8.93267 1.4205 8.48219 2.17912 8.31509 3.02046C8.14799 3.8618 8.27438 4.73499 8.67317 5.49442C9.07197 6.25385 9.71906 6.85361 10.5065 7.19368C11.294 7.53375 12.1743 7.59357 13.0005 7.36316C13.8268 7.13275 14.5491 6.62605 15.0469 5.92755C16.0146 6.36599 16.8786 7.00394 17.5825 7.7996C18.2864 8.59526 18.8143 9.53068 19.1314 10.5446C19.3535 10.5182 19.5768 10.5031 19.8004 10.4996C20.6749 10.4998 21.5409 10.67 22.3504 11.0006C22.0394 9.18268 21.2565 7.47832 20.0801 6.05791C18.9037 4.63751 17.375 3.55083 15.6469 2.90655Z" fill="#E55066"/>
<path d="M7.45397 15.3744C7.15454 14.8563 6.73499 14.4177 6.23066 14.0956C5.72633 13.7734 5.15198 13.5772 4.55597 13.5234C4.52304 13.2667 4.50451 13.0082 4.50047 12.7494C4.50513 10.8589 5.2279 9.0407 6.52247 7.66292C5.88592 6.76739 5.47994 5.72874 5.34047 4.63892C4.14003 5.62232 3.17287 6.85997 2.50882 8.26253C1.84476 9.6651 1.50036 11.1976 1.50047 12.7494C1.50572 13.336 1.56092 13.9212 1.66547 14.4984C1.14632 14.9776 0.773099 15.5938 0.588814 16.2758C0.404528 16.9579 0.416672 17.6781 0.623847 18.3536C0.831023 19.029 1.2248 19.6322 1.75982 20.0937C2.29483 20.5551 2.94932 20.856 3.64788 20.9617C4.34645 21.0674 5.06067 20.9737 5.70826 20.6912C6.35586 20.4087 6.91048 19.9491 7.30824 19.3652C7.706 18.7812 7.93072 18.0968 7.9565 17.3908C7.98229 16.6848 7.80809 15.9858 7.45397 15.3744Z" fill="#E55066"/>
</svg>
