<svg width="24" height="19" viewBox="0 0 24 19" fill="none" xmlns="http://www.w3.org/2000/svg">
<path fill-rule="evenodd" clip-rule="evenodd" d="M17.985 18.5425C18.2869 18.7563 18.6759 18.8097 19.0228 18.6785C19.3696 18.5463 19.6246 18.25 19.7015 17.891C20.5162 14.0623 22.4924 4.3716 23.2339 0.888869C23.2902 0.626375 23.1964 0.353568 22.9902 0.17826C22.7839 0.00295145 22.498 -0.0476725 22.243 0.0470129C18.3122 1.50198 6.2065 6.04406 1.25849 7.87496C0.944431 7.99121 0.740061 8.29308 0.750373 8.62401C0.761623 8.95587 0.984743 9.24368 1.3063 9.34024C3.52531 10.004 6.43806 10.9274 6.43806 10.9274C6.43806 10.9274 7.79928 15.0382 8.50895 17.1288C8.59801 17.3913 8.80332 17.5976 9.07425 17.6688C9.34424 17.7391 9.63298 17.665 9.83454 17.4747C10.9745 16.3985 12.737 14.7345 12.737 14.7345C12.737 14.7345 16.0857 17.1897 17.985 18.5425ZM7.66334 10.408L9.23737 15.5998L9.58705 12.312C9.58705 12.312 15.6685 6.82686 19.1353 3.70037C19.2365 3.60849 19.2506 3.45475 19.1662 3.34694C19.0828 3.23913 18.929 3.21382 18.8137 3.28694C14.7957 5.85282 7.66334 10.408 7.66334 10.408Z" fill="white"/>
</svg>
