<svg width="28" height="22" viewBox="0 0 28 22" fill="none" xmlns="http://www.w3.org/2000/svg">
<path d="M27.3337 8.3335V3.00016C27.3337 1.5335 26.1337 0.333496 24.667 0.333496H3.33366C1.86699 0.333496 0.680326 1.5335 0.680326 3.00016V8.3335C2.14699 8.3335 3.33366 9.5335 3.33366 11.0002C3.33366 12.4668 2.14699 13.6668 0.666992 13.6668V19.0002C0.666992 20.4668 1.86699 21.6668 3.33366 21.6668H24.667C26.1337 21.6668 27.3337 20.4668 27.3337 19.0002V13.6668C25.867 13.6668 24.667 12.4668 24.667 11.0002C24.667 9.5335 25.867 8.3335 27.3337 8.3335ZM24.667 6.38683C23.0803 7.30683 22.0003 9.04016 22.0003 11.0002C22.0003 12.9602 23.0803 14.6935 24.667 15.6135V19.0002H3.33366V15.6135C4.92033 14.6935 6.00033 12.9602 6.00033 11.0002C6.00033 9.02683 4.93366 7.30683 3.34699 6.38683L3.33366 3.00016H24.667V6.38683ZM10.0937 16.3335L14.0003 13.8268L17.907 16.3335L16.7203 11.8535L20.307 8.92016L15.6803 8.64016L14.0003 4.3335L12.307 8.62683L7.68033 8.90683L11.267 11.8402L10.0937 16.3335Z" fill="#323232"/>
</svg>
