<svg width="27" height="28" viewBox="0 0 27 28" fill="none" xmlns="http://www.w3.org/2000/svg">
<path d="M24.8275 16.3889C24.0232 15.9288 23.0939 15.735 22.1727 15.8354C21.2515 15.9357 20.3857 16.325 19.6993 16.9475C19.0128 17.57 18.541 18.3938 18.3514 19.3008C18.1618 20.2078 18.264 21.1516 18.6436 21.997C17.1597 23.1018 15.3596 23.6996 13.5095 23.7019C12.8513 23.6967 12.1957 23.6172 11.5553 23.4648C11.0237 24.6279 10.2138 25.6422 9.19727 26.4181C11.2159 27.1864 13.4031 27.4019 15.5329 27.0423C17.6627 26.6827 19.6579 25.7611 21.3124 24.3726C22.3418 24.6912 23.4524 24.62 24.4326 24.1727C25.4129 23.7253 26.1944 22.933 26.6283 21.9466C27.0621 20.9603 27.118 19.8488 26.7853 18.8239C26.4526 17.799 25.7545 16.9323 24.824 16.3889H24.8275Z" fill="black"/>
<path d="M17.7777 3.4011C17.5516 2.42283 16.9969 1.55164 16.2063 0.932812C15.4156 0.313986 14.4366 -0.015067 13.4327 0.00053002C12.4287 0.0161271 11.4605 0.375431 10.6894 1.01852C9.91833 1.66161 9.39102 2.54961 9.19543 3.53444C8.99983 4.51926 9.14778 5.54138 9.61458 6.43032C10.0814 7.31927 10.8388 8.02132 11.7606 8.41938C12.6824 8.81744 13.7128 8.88746 14.68 8.61776C15.6471 8.34806 16.4926 7.75494 17.0754 6.93732C18.208 7.45053 19.2194 8.19728 20.0434 9.12864C20.8673 10.06 21.4852 11.1549 21.8564 12.3417C22.1164 12.3108 22.3778 12.2932 22.6395 12.289C23.6631 12.2893 24.6768 12.4885 25.6244 12.8755C25.2603 10.7476 24.3439 8.75256 22.9669 7.08991C21.5899 5.42726 19.8005 4.15526 17.7777 3.4011Z" fill="black"/>
<path d="M8.18793 17.9951C7.83742 17.3886 7.34633 16.8752 6.75598 16.4981C6.16564 16.1211 5.49334 15.8914 4.79569 15.8284C4.75714 15.5279 4.73545 15.2254 4.73072 14.9224C4.73618 12.7094 5.58221 10.5812 7.09756 8.96844C6.35245 7.92018 5.87723 6.7044 5.71398 5.42871C4.30881 6.57983 3.17671 8.02855 2.3994 9.67031C1.62209 11.3121 1.21896 13.1059 1.21909 14.9224C1.22523 15.6091 1.28984 16.294 1.41223 16.9697C0.804535 17.5306 0.367667 18.2518 0.151953 19.0502C-0.0637616 19.8486 -0.0495461 20.6917 0.192962 21.4823C0.435469 22.273 0.896403 22.979 1.52266 23.5192C2.14892 24.0593 2.91503 24.4115 3.73273 24.5353C4.55043 24.659 5.38645 24.5493 6.14449 24.2186C6.90253 23.888 7.55174 23.3499 8.01734 22.6664C8.48294 21.9829 8.74598 21.1818 8.77616 20.3554C8.80634 19.5289 8.60243 18.7107 8.18793 17.9951Z" fill="black"/>
</svg>
