<svg width="24" height="20" viewBox="0 0 24 20" fill="none" xmlns="http://www.w3.org/2000/svg">
<title>Twitter</title>
<path d="M24 2.59999C23.1 2.99999 22.2 3.29999 21.2 3.39999C22.2 2.79999 23 1.79999 23.4 0.699988C22.4 1.29999 21.4 1.69999 20.3 1.89999C19.4 0.899988 18.1 0.299988 16.7 0.299988C14 0.299988 11.8 2.49999 11.8 5.19999C11.8 5.59999 11.8 5.99999 11.9 6.29999C7.7 6.09999 4.1 4.09999 1.7 1.09999C1.2 1.89999 1 2.69999 1 3.59999C1 5.29999 1.9 6.79999 3.2 7.69999C2.4 7.69999 1.6 7.49999 1 7.09999C1 7.09999 1 7.09999 1 7.19999C1 9.59999 2.7 11.6 4.9 12C4.5 12.1 4.1 12.2 3.6 12.2C3.3 12.2 3 12.2 2.7 12.1C3.3 14.1 5.1 15.5 7.3 15.5C5.6 16.8 3.5 17.6 1.2 17.6C0.8 17.6 0.4 17.6 0 17.5C2.2 18.9 4.8 19.7 7.5 19.7C16.6 19.7 21.5 12.2 21.5 5.69999C21.5 5.49999 21.5 5.29999 21.5 5.09999C22.5 4.39999 23.3 3.49999 24 2.59999Z" fill="black"/>
</svg>
