<svg width="18" height="18" viewBox="0 0 18 18" fill="none" xmlns="http://www.w3.org/2000/svg">
<path d="M9 1V4.2" stroke-linecap="round" stroke-linejoin="round"/>
<path d="M7.3999 1H10.5999" stroke-linecap="round" stroke-linejoin="round"/>
<path d="M3.34326 3.34351L5.60566 5.60591" stroke-linecap="round" stroke-linejoin="round"/>
<path d="M2.21191 4.47407L4.47431 2.21167" stroke-linecap="round" stroke-linejoin="round"/>
<path d="M1 9H4.2" stroke-linecap="round" stroke-linejoin="round"/>
<path d="M1 10.6V7.40002" stroke-linecap="round" stroke-linejoin="round"/>
<path d="M3.34326 14.6566L5.60566 12.3942" stroke-linecap="round" stroke-linejoin="round"/>
<path d="M4.47431 15.7883L2.21191 13.5259" stroke-linecap="round" stroke-linejoin="round"/>
<path d="M9 17V13.8" stroke-linecap="round" stroke-linejoin="round"/>
<path d="M10.5999 17H7.3999" stroke-linecap="round" stroke-linejoin="round"/>
<path d="M14.6564 14.6566L12.394 12.3942" stroke-linecap="round" stroke-linejoin="round"/>
<path d="M15.7883 13.5259L13.5259 15.7883" stroke-linecap="round" stroke-linejoin="round"/>
<path d="M16.9998 9H13.7998" stroke-linecap="round" stroke-linejoin="round"/>
<path d="M17 7.40002V10.6" stroke-linecap="round" stroke-linejoin="round"/>
<path d="M14.6564 3.34351L12.394 5.60591" stroke-linecap="round" stroke-linejoin="round"/>
<path d="M13.5259 2.21167L15.7883 4.47407" stroke-linecap="round" stroke-linejoin="round"/>
<path d="M8.9999 10.6C9.88356 10.6 10.5999 9.88368 10.5999 9.00002C10.5999 8.11637 9.88356 7.40002 8.9999 7.40002C8.11625 7.40002 7.3999 8.11637 7.3999 9.00002C7.3999 9.88368 8.11625 10.6 8.9999 10.6Z" stroke-linecap="round" stroke-linejoin="round"/>
<path d="M9.0002 13.8C11.6512 13.8 13.8002 11.6509 13.8002 8.99995C13.8002 6.34898 11.6512 4.19995 9.0002 4.19995C6.34923 4.19995 4.2002 6.34898 4.2002 8.99995C4.2002 11.6509 6.34923 13.8 9.0002 13.8Z" stroke-linecap="round" stroke-linejoin="round"/>
</svg>
