<svg width="32" height="24" viewBox="0 0 32 24" fill="none" xmlns="http://www.w3.org/2000/svg">
<path d="M31.7333 5.60005C31.7333 5.60005 31.4667 3.33338 30.4 2.40005C29.2 1.06672 27.8667 1.06672 27.2 1.06672C22.6667 0.800049 16 0.800049 16 0.800049C16 0.800049 9.33333 0.800049 4.8 1.06672C4.13333 1.20005 2.8 1.20005 1.6 2.40005C0.666667 3.33338 0.266667 5.60005 0.266667 5.60005C0.266667 5.60005 0 8.13338 0 10.8V13.2C0 15.7334 0.266667 18.4 0.266667 18.4C0.266667 18.4 0.533333 20.6667 1.6 21.6C2.8 22.9334 4.4 22.8 5.06667 22.9334C7.6 23.2 16 23.2 16 23.2C16 23.2 22.6667 23.2 27.2 22.8C27.8667 22.6667 29.2 22.6667 30.4 21.4667C31.3333 20.5334 31.7333 18.2667 31.7333 18.2667C31.7333 18.2667 32 15.7334 32 13.0667V10.6667C32 8.13338 31.7333 5.60005 31.7333 5.60005ZM12.6667 16.1334V7.20005L21.3333 11.7334L12.6667 16.1334Z" fill="black"/>
</svg>
