<svg width="24" height="18" viewBox="0 0 24 18" fill="none" xmlns="http://www.w3.org/2000/svg">
<title>Youtube</title>
<path d="M23.8 4.20001C23.8 4.20001 23.6 2.50001 22.8 1.80001C21.9 0.800006 20.9 0.800006 20.4 0.800006C17 0.600006 12 0.600006 12 0.600006C12 0.600006 7 0.600006 3.6 0.800006C3.1 0.900006 2.1 0.900006 1.2 1.80001C0.5 2.50001 0.2 4.20001 0.2 4.20001C0.2 4.20001 0 6.10001 0 8.10001V9.90001C0 11.8 0.2 13.8 0.2 13.8C0.2 13.8 0.4 15.5 1.2 16.2C2.1 17.2 3.3 17.1 3.8 17.2C5.7 17.4 12 17.4 12 17.4C12 17.4 17 17.4 20.4 17.1C20.9 17 21.9 17 22.8 16.1C23.5 15.4 23.8 13.7 23.8 13.7C23.8 13.7 24 11.8 24 9.80001V8.00001C24 6.10001 23.8 4.20001 23.8 4.20001ZM9.5 12.1V5.40001L16 8.80001L9.5 12.1Z" fill="black"/>
</svg>
