<svg width="410" height="295" viewBox="0 0 410 295" fill="none" xmlns="http://www.w3.org/2000/svg">
<path d="M119.416 287.591C119.416 283.47 122.561 280.464 126.802 280.464C128.951 280.464 130.822 281.201 132.097 282.635L130.802 283.888C129.727 282.754 128.414 282.236 126.881 282.236C123.736 282.236 121.407 284.506 121.407 287.591C121.407 290.676 123.736 292.946 126.881 292.946C128.414 292.946 129.728 292.409 130.802 291.274L132.097 292.529C130.822 293.962 128.951 294.718 126.782 294.718C122.561 294.717 119.416 291.711 119.416 287.591Z" fill="white"/>
<path d="M137.492 287.591C137.492 283.51 140.638 280.464 144.918 280.464C149.158 280.464 152.303 283.491 152.303 287.591C152.303 291.691 149.158 294.717 144.918 294.717C140.638 294.717 137.492 291.671 137.492 287.591ZM150.312 287.591C150.312 284.505 148.003 282.236 144.917 282.236C141.791 282.236 139.482 284.506 139.482 287.591C139.482 290.676 141.791 292.946 144.917 292.946C148.003 292.946 150.312 290.677 150.312 287.591Z" fill="white"/>
<path d="M159.333 280.624H161.323V292.827H168.867V294.558H159.332V280.624H159.333Z" fill="white"/>
<path d="M173.746 287.591C173.746 283.51 176.891 280.464 181.172 280.464C185.412 280.464 188.557 283.491 188.557 287.591C188.557 291.691 185.412 294.717 181.172 294.717C176.891 294.717 173.746 291.671 173.746 287.591ZM186.567 287.591C186.567 284.505 184.257 282.236 181.172 282.236C178.046 282.236 175.737 284.506 175.737 287.591C175.737 290.676 178.046 292.946 181.172 292.946C184.257 292.946 186.567 290.677 186.567 287.591Z" fill="white"/>
<path d="M208.505 294.558L208.485 284.406L203.448 292.866H202.533L197.497 284.465V294.557H195.586V280.623H197.218L203.031 290.417L208.764 280.623H210.396L210.416 294.557H208.505V294.558Z" fill="white"/>
<path d="M230.562 290.796C230.562 293.185 228.751 294.558 225.227 294.558H218.578V280.624H224.829C228.034 280.624 229.826 281.977 229.826 284.227C229.826 285.74 229.049 286.795 227.955 287.333C229.527 287.77 230.562 288.944 230.562 290.796ZM220.569 282.236V286.696H224.65C226.68 286.696 227.835 285.939 227.835 284.466C227.835 282.992 226.68 282.236 224.65 282.236H220.569ZM228.551 290.637C228.551 289.024 227.356 288.308 225.147 288.308H220.568V292.947H225.147C227.357 292.946 228.551 292.249 228.551 290.637Z" fill="white"/>
<path d="M237.631 280.624H239.621V294.558H237.631V280.624Z" fill="white"/>
<path d="M256.662 291.074H249.257L247.724 294.557H245.674L251.984 280.623H253.955L260.286 294.557H258.196L256.662 291.074ZM255.965 289.482L252.959 282.654L249.953 289.482H255.965Z" fill="white"/>
<path d="M24 236.524H33.5268C40.7937 236.524 45.7346 241.11 45.7346 247.828C45.7346 254.545 40.7946 259.131 33.5268 259.131H24V236.524ZM33.3333 256.32C38.9208 256.32 42.5052 252.897 42.5052 247.827C42.5052 242.756 38.9208 239.333 33.3333 239.333H27.2294V256.32H33.3333Z" fill="white"/>
<path d="M73.5444 256.32V259.13H57.1387V236.524H73.0922V239.334H60.3681V246.278H71.7036V249.022H60.3681V256.32H73.5444Z" fill="white"/>
<path d="M104.548 236.524L94.6344 259.13H91.4371L81.4902 236.524H84.9773L93.1155 255.094L101.318 236.524H104.548Z" fill="white"/>
<path d="M111.818 247.827C111.818 241.142 116.921 236.265 123.8 236.265C127.287 236.265 130.323 237.46 132.39 239.786L130.29 241.82C128.547 239.979 126.416 239.14 123.929 239.14C118.827 239.14 115.049 242.82 115.049 247.827C115.049 252.833 118.827 256.513 123.929 256.513C126.416 256.513 128.548 255.642 130.29 253.801L132.39 255.835C130.324 258.16 127.288 259.388 123.767 259.388C116.921 259.388 111.818 254.512 111.818 247.827Z" fill="white"/>
<path d="M141.145 247.827C141.145 241.206 146.247 236.265 153.191 236.265C160.07 236.265 165.172 241.174 165.172 247.827C165.172 254.479 160.07 259.388 153.191 259.388C146.247 259.388 141.145 254.447 141.145 247.827ZM161.943 247.827C161.943 242.82 158.196 239.14 153.191 239.14C148.121 239.14 144.375 242.82 144.375 247.827C144.375 252.833 148.121 256.513 153.191 256.513C158.197 256.513 161.943 252.833 161.943 247.827Z" fill="white"/>
<path d="M196.016 236.524V259.13H193.368L179.804 242.273V259.13H176.574V236.524H179.223L192.786 253.381V236.524H196.016Z" fill="white"/>
<path d="M235.057 249.47C235.789 250.418 236.156 251.56 236.156 252.895C236.156 254.876 235.336 256.411 233.699 257.497C232.064 258.585 229.694 259.13 226.593 259.13H213.865V236.516H225.947C228.963 236.516 231.239 237.055 232.78 238.132C234.32 239.209 235.089 240.64 235.089 242.428C235.089 243.484 234.826 244.432 234.298 245.272C233.769 246.112 232.989 246.79 231.956 247.307C233.291 247.802 234.325 248.523 235.057 249.47ZM221.361 241.846V245.207H224.915C226.572 245.207 227.402 244.647 227.402 243.527C227.402 242.408 226.572 241.847 224.915 241.847H221.361V241.846ZM228.467 252.023C228.467 250.838 227.627 250.246 225.947 250.246H221.361V253.8H225.947C227.627 253.799 228.467 253.207 228.467 252.023Z" fill="white"/>
<path d="M249.95 258.128C248.012 257.116 246.494 255.711 245.395 253.912C244.297 252.114 243.748 250.083 243.748 247.823C243.748 245.562 244.297 243.532 245.395 241.734C246.494 239.936 248.012 238.53 249.95 237.518C251.889 236.506 254.074 236 256.508 236C258.942 236 261.128 236.506 263.065 237.518C265.004 238.53 266.522 239.936 267.62 241.734C268.719 243.532 269.268 245.562 269.268 247.823C269.268 250.083 268.719 252.114 267.62 253.912C266.522 255.711 265.004 257.116 263.065 258.128C261.127 259.139 258.942 259.646 256.508 259.646C254.074 259.646 251.889 259.14 249.95 258.128ZM259.077 252.781C259.841 252.319 260.449 251.662 260.902 250.811C261.355 249.961 261.581 248.965 261.581 247.823C261.581 246.681 261.355 245.685 260.902 244.835C260.45 243.984 259.841 243.327 259.077 242.864C258.311 242.401 257.456 242.17 256.508 242.17C255.56 242.17 254.704 242.401 253.939 242.864C253.175 243.327 252.567 243.984 252.114 244.835C251.662 245.685 251.435 246.681 251.435 247.823C251.435 248.965 251.662 249.961 252.114 250.811C252.566 251.662 253.175 252.319 253.939 252.781C254.704 253.245 255.56 253.476 256.508 253.476C257.456 253.476 258.311 253.245 259.077 252.781Z" fill="white"/>
<path d="M292.817 247.209H299.44V256.772C298.104 257.698 296.553 258.408 294.788 258.904C293.022 259.399 291.288 259.647 289.587 259.647C287.174 259.647 285.009 259.147 283.093 258.144C281.177 257.142 279.674 255.743 278.587 253.945C277.5 252.147 276.955 250.107 276.955 247.823C276.955 245.541 277.499 243.501 278.587 241.702C279.674 239.904 281.193 238.504 283.142 237.503C285.09 236.501 287.293 236.001 289.748 236.001C291.967 236.001 293.953 236.373 295.708 237.116C297.462 237.859 298.922 238.941 300.085 240.361L295.207 244.658C293.786 243 292.095 242.171 290.135 242.171C288.456 242.171 287.12 242.677 286.13 243.689C285.139 244.701 284.644 246.079 284.644 247.823C284.644 249.525 285.134 250.892 286.115 251.927C287.094 252.961 288.403 253.478 290.039 253.478C291.008 253.478 291.934 253.295 292.817 252.928V247.209Z" fill="white"/>
<path d="M313.813 258.128C311.875 257.116 310.357 255.711 309.259 253.912C308.161 252.114 307.611 250.083 307.611 247.823C307.611 245.562 308.161 243.532 309.259 241.734C310.357 239.936 311.875 238.53 313.813 237.518C315.752 236.506 317.938 236 320.371 236C322.805 236 324.991 236.506 326.928 237.518C328.867 238.53 330.385 239.936 331.483 241.734C332.582 243.532 333.131 245.562 333.131 247.823C333.131 250.083 332.582 252.114 331.483 253.912C330.385 255.711 328.867 257.116 326.928 258.128C324.99 259.139 322.805 259.646 320.371 259.646C317.938 259.646 315.752 259.14 313.813 258.128ZM322.94 252.781C323.705 252.319 324.313 251.662 324.766 250.811C325.218 249.961 325.444 248.965 325.444 247.823C325.444 246.681 325.218 245.685 324.766 244.835C324.313 243.984 323.705 243.327 322.94 242.864C322.174 242.401 321.319 242.17 320.371 242.17C319.424 242.17 318.567 242.401 317.803 242.864C317.038 243.327 316.43 243.984 315.977 244.835C315.525 245.685 315.298 246.681 315.298 247.823C315.298 248.965 315.525 249.961 315.977 250.811C316.429 251.662 317.038 252.319 317.803 252.781C318.567 253.245 319.424 253.476 320.371 253.476C321.319 253.476 322.175 253.245 322.94 252.781Z" fill="white"/>
<path d="M346.313 242.428H339.689V236.516H360.557V242.428H353.935V259.129H346.312V242.428H346.313Z" fill="white"/>
<path d="M382.623 255.188H374.029L372.511 259.13H364.758L374.643 236.516H382.138L392.023 259.13H384.141L382.623 255.188ZM380.523 249.697L378.326 244.011L376.129 249.697H380.523Z" fill="white"/>
<path d="M386.498 62.9465H363.648V135.746H363.649H386.498H409.348V62.9465H386.498Z" fill="#1C63AD"/>
<path d="M264.039 62.9465L286.889 102.523L309.739 135.746L332.588 102.523H332.588L355.438 62.9465H309.739H264.039Z" fill="#1C63AD"/>
<path d="M100.853 62.9333L78 102.517L100.853 135.746H146.56L123.707 102.517L146.56 62.9333H100.853Z" fill="#1C63AD"/>
<path d="M149.445 97.1077L160.633 104.233L171.82 111.357L205.381 132.733L227.756 118.483L261.317 97.1077L205.381 0L149.445 97.1077Z" fill="#1C63AD"/>
<path d="M241.775 121.009L205.402 144.175L189.002 133.681L189.03 133.723L169.162 121.009L169.214 121.084L149.705 108.601L205.38 190.31L261.316 108.601L241.73 121.075L241.775 121.009Z" fill="#1C63AD"/>
<path opacity="0.75" d="M356.073 147.415V146.848L355.746 147.415H356.073Z" fill="#214290"/>
<path d="M386.498 62.9465H363.648V135.746H386.498H409.348V62.9465H386.498Z" fill="#07AED1"/>
<path d="M355.746 147.415H356.073V146.848L355.746 147.415Z" fill="#0075A2"/>
<path d="M286.889 102.523L309.739 62.9465H264.039L286.889 102.523Z" fill="#07AED1"/>
<path d="M332.588 102.523L355.437 62.9465H309.738L332.588 102.523Z" fill="#214290"/>
<path d="M309.738 62.9465L286.889 102.523H332.588L309.738 62.9465Z" fill="#1D6EAD"/>
<path d="M309.738 135.746L332.588 102.523H286.889L309.738 135.746Z" fill="#214290"/>
<path d="M123.707 102.517L146.56 62.9333H100.854L123.707 102.517Z" fill="#1D6EAD"/>
<path d="M100.854 62.9333L78 102.517H123.707L100.854 62.9333Z" fill="#07AED1"/>
<path d="M100.854 135.746L123.707 102.517H78L100.854 135.746Z" fill="#1D6EAD"/>
<path d="M123.707 102.517L100.854 135.746H146.56L123.707 102.517Z" fill="#214290"/>
<path d="M149.445 97.1077L205.381 132.733V0L149.445 97.1077Z" fill="#07AED1"/>
<path d="M261.317 97.1077L205.381 132.733V0L261.317 97.1077Z" fill="#214290"/>
<path d="M160.633 104.232L205.381 132.733V26.5466L160.633 104.232Z" fill="#E32227"/>
<path d="M250.129 104.232L205.381 132.733V26.5466L250.129 104.232Z" fill="#7F141C"/>
<path d="M171.82 111.357L205.382 132.733V53.0935L171.82 111.357Z" fill="#FBCD0B"/>
<path d="M238.943 111.357L205.381 132.733V53.0935L238.943 111.357Z" fill="#F68D1E"/>
<path d="M183.008 118.483L205.382 132.733V79.6396L183.008 118.483Z" fill="#FBCD0B"/>
<path d="M227.755 118.483L205.381 132.733V79.6396L227.755 118.483Z" fill="#F68D1E"/>
<path d="M261.317 108.601L205.381 190.31V144.226L261.317 108.601Z" fill="#214290"/>
<path d="M149.705 108.601L205.381 190.31V144.226L149.705 108.601Z" fill="#07AED1"/>
<path d="M241.776 121.009L205.385 174.167V144.187L241.776 121.009Z" fill="#7F141C"/>
<path d="M169.164 121.009L205.386 174.167V144.187L169.164 121.009Z" fill="#E32227"/>
<path d="M221.882 133.681L205.404 157.751V144.176L221.882 133.681Z" fill="#F68D1E"/>
<path d="M189.004 133.681L205.405 157.751V144.176L189.004 133.681Z" fill="#FBCD0B"/>
<g style="mix-blend-mode:overlay">
<path opacity="0.75" d="M205.382 132.733L213.027 119.459H197.736L205.382 132.733Z" fill="white"/>
<path opacity="0.75" d="M205.382 79.6398L213.027 66.3667H197.736L205.382 79.6398Z" fill="white"/>
<path opacity="0.75" d="M213.026 92.9133L220.672 79.6396H205.381L213.026 92.9133Z" fill="white"/>
<path opacity="0.75" d="M228.317 92.9133L235.963 79.6396H220.672L228.317 92.9133Z" fill="white"/>
<path opacity="0.75" d="M220.673 106.186L228.319 92.9133H213.027L220.673 106.186Z" fill="white"/>
<path opacity="0.75" d="M213.026 119.459L220.672 106.186H205.381L213.026 119.459Z" fill="white"/>
<path opacity="0.75" d="M197.736 119.459L205.381 106.186H190.09L197.736 119.459Z" fill="white"/>
<path opacity="0.75" d="M182.444 92.9133L174.799 79.6396H190.09L182.444 92.9133Z" fill="white"/>
<path opacity="0.75" d="M190.089 106.186L182.443 92.9133H197.735L190.089 106.186Z" fill="white"/>
<path opacity="0.75" d="M197.736 92.9133L190.09 79.6396H205.381L197.736 92.9133Z" fill="white"/>
<path opacity="0.75" d="M213.026 66.3666L220.672 53.0935H205.381L213.026 66.3666Z" fill="white"/>
<path opacity="0.75" d="M197.736 66.3666L190.09 53.0935H205.381L197.736 66.3666Z" fill="white"/>
</g>
<path d="M0.650391 62.9333V135.746L23.5038 99.3394L0.650391 62.9333Z" fill="#07AED1"/>
<path d="M23.5038 62.9333H0.650391L23.5038 99.3394L46.3572 62.9333H23.5038Z" fill="#1D6EAD"/>
<path d="M23.5038 99.34V99.3394L0.650391 135.746H23.5038H46.3578L23.5038 99.34Z" fill="#1D6EAD"/>
<path d="M46.3573 62.9333L23.5039 99.3394V99.34L46.3579 135.746L69.2107 102.516L46.3573 62.9333Z" fill="#214290"/>
<path d="M386.498 99.3459L363.648 135.746H409.348L408.193 133.906L386.498 99.3459Z" fill="#1D6EAD"/>
<path d="M409.348 62.9465H363.648L386.498 99.3458L408.193 64.7862L409.348 62.9465Z" fill="#1D6EAD"/>
<path d="M408.193 64.7862L386.498 99.3458L408.193 133.906L409.348 135.746V62.9465L408.193 64.7862Z" fill="#214290"/>
</svg>
