<svg width="1412" height="328" viewBox="0 0 1412 328" fill="none" xmlns="http://www.w3.org/2000/svg">
<mask id="path-1-inside-1" fill="white">
<path d="M1253.52 194.914V445.911H1411.39V194.914H1253.52Z"/>
<path d="M909.524 194.914L988.567 331.458L1067.4 445.911L1146.23 331.458L1225.28 194.914H1067.4H909.524Z"/>
<path d="M346.101 194.914L267.058 331.458L346.101 445.911H503.977L424.934 331.458L503.977 194.914H346.101Z"/>
<path d="M513.891 312.733L552.464 337.348L591.037 361.754L706.967 435.601L900.253 312.733L706.967 -22L513.891 312.733Z"/>
<path d="M832.59 395.206L707.174 474.944L650.474 438.757V438.967L581.97 395.206L582.181 395.416L514.731 352.286L706.964 634L900.25 352.286L832.59 395.416V395.206Z"/>
<path d="M1227.39 486.095V484.202L1226.33 486.095H1227.39Z"/>
<path d="M1253.52 194.914V445.911H1411.39V194.914H1253.52Z"/>
<path d="M1226.33 486.095H1227.39V484.202L1226.33 486.095Z"/>
<path d="M988.567 331.458L1067.4 194.914H909.524L988.567 331.458Z"/>
<path d="M1146.24 331.458L1225.28 194.914H1067.4L1146.24 331.458Z"/>
<path d="M1067.4 194.914L988.568 331.458H1146.23L1067.4 194.914Z"/>
<path d="M1067.4 445.911L1146.23 331.458H988.568L1067.4 445.911Z"/>
<path d="M424.936 331.458L503.979 194.914H346.103L424.936 331.458Z"/>
<path d="M346.101 194.914L267.058 331.458H424.934L346.101 194.914Z"/>
<path d="M346.101 445.911L424.934 331.458H267.058L346.101 445.911Z"/>
<path d="M424.936 331.458L346.103 445.911H503.979L424.936 331.458Z"/>
<path d="M513.891 312.733L706.967 435.601V-22L513.891 312.733Z"/>
<path d="M900.245 312.733L706.958 435.601V-22L900.245 312.733Z"/>
<path d="M552.462 337.349L706.965 435.601V69.5204L552.462 337.349Z"/>
<path d="M861.461 337.349L706.958 435.601V69.5204L861.461 337.349Z"/>
<path d="M591.034 361.754L706.964 435.601V161.041L591.034 361.754Z"/>
<path d="M822.888 361.754L706.958 435.601V161.041L822.888 361.754Z"/>
<path d="M629.815 386.369L706.961 435.601V252.56L629.815 386.369Z"/>
<path d="M784.315 386.369L706.958 435.601V252.56L784.315 386.369Z"/>
<path d="M900.245 352.286L706.958 634V475.155L900.245 352.286Z"/>
<path d="M514.731 352.286L706.964 634L706.964 475.155L514.731 352.286Z"/>
<path d="M832.584 395.206L706.958 578.246V474.944L832.584 395.206Z"/>
<path d="M581.966 395.206L706.96 578.246V474.944L581.966 395.206Z"/>
<path d="M764.079 438.757L707.168 521.862V474.944L764.079 438.757Z"/>
<path d="M650.472 438.757L707.173 521.862V474.944L650.472 438.757Z"/>
<path d="M706.964 435.601L733.312 389.736H680.617L706.964 435.601Z"/>
<path d="M706.965 252.561L733.312 206.695H680.617L706.965 252.561Z"/>
<path d="M733.305 298.215L759.864 252.56H706.958L733.305 298.215Z"/>
<path d="M786.219 298.215L812.567 252.56H759.872L786.219 298.215Z"/>
<path d="M759.868 344.081L786.216 298.216H733.31L759.868 344.081Z"/>
<path d="M733.305 389.736L759.864 344.081H706.958L733.305 389.736Z"/>
<path d="M680.613 389.736L706.961 344.081H654.265L680.613 389.736Z"/>
<path d="M627.71 298.215L601.362 252.56H654.268L627.71 298.215Z"/>
<path d="M654.262 344.081L627.703 298.216H680.61L654.262 344.081Z"/>
<path d="M680.613 298.215L654.265 252.56H706.961L680.613 298.215Z"/>
<path d="M733.305 206.696L759.864 161.041H706.958L733.305 206.696Z"/>
<path d="M680.613 206.696L654.265 161.041H706.961L680.613 206.696Z"/>
<path d="M0 194.914V445.911L78.8324 320.517L0 194.914Z"/>
<path d="M0 194.914L78.8324 320.517L157.875 194.914H0Z"/>
<path d="M78.8324 320.517L0 445.911L157.875 445.91L78.8324 320.517Z"/>
<path d="M157.878 194.914L78.8345 320.517L157.878 445.911L236.71 331.458L157.878 194.914Z"/>
<path d="M1332.56 320.517L1253.52 445.911H1411.39L1407.39 439.598L1332.56 320.517Z"/>
<path d="M1411.39 194.914H1253.52L1332.56 320.517L1407.39 201.225L1411.39 194.914Z"/>
<path d="M1407.39 201.225L1332.56 320.517L1407.39 439.599L1411.39 445.911V194.914L1407.39 201.225Z"/>
</mask>
<path d="M1253.52 194.914V194.22H1252.82V194.914H1253.52ZM1253.52 445.911H1252.82V446.605H1253.52V445.911ZM1411.39 445.911V446.605H1412.08V445.911H1411.39ZM1411.39 194.914H1412.08V194.22H1411.39V194.914ZM909.524 194.914V194.22H908.32L908.923 195.261L909.524 194.914ZM267.058 331.458L266.458 331.11L266.237 331.49L266.487 331.852L267.058 331.458ZM1227.39 486.095V486.789H1228.08V486.095H1227.39ZM1227.39 484.202H1228.08V481.528L1226.78 483.864L1227.39 484.202ZM1226.33 486.095L1225.73 485.758L1225.15 486.789H1226.33V486.095ZM78.8324 320.517L79.4198 320.887L79.6518 320.518L79.4201 320.149L78.8324 320.517ZM1252.82 194.914V445.911H1254.21V194.914H1252.82ZM1412.08 445.911V194.914H1410.7V445.911H1412.08ZM908.923 195.261L987.967 331.805L989.168 331.11L910.124 194.566L908.923 195.261ZM1067.4 194.22H909.524V195.608H1067.4V194.22ZM345.501 194.566L266.458 331.11L267.659 331.805L346.702 195.261L345.501 194.566ZM266.487 331.852L345.53 446.305L346.672 445.516L267.629 331.063L266.487 331.852ZM706.365 -22.3467L513.289 312.386L514.492 313.079L707.568 -21.6533L706.365 -22.3467ZM514.158 352.677L706.391 634.391L707.537 633.609L515.304 351.895L514.158 352.677ZM1228.08 486.095V484.202H1226.69V486.095H1228.08ZM1226.78 483.864L1225.73 485.758L1226.94 486.433L1227.99 484.539L1226.78 483.864ZM1226.33 486.789H1227.39V485.401H1226.33V486.789ZM988.568 332.152H1146.23V330.764H988.568V332.152ZM267.058 332.152H424.934V330.764H267.058V332.152ZM0.587452 446.28L79.4198 320.887L78.2449 320.148L-0.587452 445.541L0.587452 446.28ZM79.4201 320.149L0.587731 194.545L-0.587731 195.283L78.2446 320.886L79.4201 320.149ZM1253.52 446.605H1411.39V445.217H1253.52V446.605ZM1411.39 194.22H1253.52V195.608H1411.39V194.22ZM988.567 331.458L987.365 330.764L986.927 331.523L987.424 332.245L988.567 331.458ZM1067.4 445.911L1066.26 446.698L1067.4 448.357L1068.54 446.698L1067.4 445.911ZM1146.23 331.458L1147.37 332.245L1147.41 332.2L1147.43 332.153L1146.23 331.458ZM1225.28 194.914L1226.48 195.609L1227.68 193.526H1225.28V194.914ZM1067.4 194.914V193.526H1066.6L1066.2 194.22L1067.4 194.914ZM346.101 194.914V193.526H343.698L344.899 195.608L346.101 194.914ZM346.101 445.911L344.958 445.123L343.46 447.298H346.101V445.911ZM503.977 445.911V447.298H506.622L505.119 445.122L503.977 445.911ZM503.977 194.914L505.178 195.609L506.384 193.526H503.977V194.914ZM513.891 312.733L514.636 311.562L513.144 313.902L513.891 312.733ZM552.464 337.348L551.717 338.518L551.722 338.521L552.464 337.348ZM591.037 361.754L591.782 360.583L591.779 360.581L591.037 361.754ZM706.967 435.601L706.221 436.772L706.966 437.246L707.711 436.772L706.967 435.601ZM900.253 312.733L900.998 313.904L902.12 313.19L901.455 312.039L900.253 312.733ZM706.967 -22L708.168 -22.694L705.579 -27.1787V-22H706.967ZM832.59 395.206H833.977V392.679L831.845 394.035L832.59 395.206ZM707.174 474.944L706.428 476.114L707.173 476.59L707.919 476.115L707.174 474.944ZM650.474 438.757L651.221 437.587L649.086 436.225V438.757H650.474ZM650.474 438.967L649.727 440.137L651.862 441.501V438.967H650.474ZM581.97 395.206L582.717 394.036L580.99 396.188L581.97 395.206ZM582.181 395.416L581.433 396.585L583.161 394.434L582.181 395.416ZM514.731 352.286L515.478 351.117L513.983 353.455L514.731 352.286ZM706.964 634H705.576V638.476L708.108 634.785L706.964 634ZM900.25 352.286L901.395 353.071L899.505 351.116L900.25 352.286ZM832.59 395.416H831.202V397.947L833.336 396.587L832.59 395.416ZM1146.24 331.458L1145.03 332.152L1146.23 334.231L1147.44 332.153L1146.24 331.458ZM1225.28 194.914L1226.48 195.609L1227.69 193.526H1225.28V194.914ZM1067.4 194.914V193.526H1065L1066.2 195.608L1067.4 194.914ZM1067.4 194.914L1068.6 194.22L1067.4 192.138L1066.2 194.22L1067.4 194.914ZM988.568 331.458L987.366 330.764L986.928 331.523L987.425 332.245L988.568 331.458ZM1146.23 331.458L1147.38 332.245L1147.87 331.523L1147.44 330.764L1146.23 331.458ZM1067.4 445.911L1066.26 446.698L1067.4 448.357L1068.54 446.698L1067.4 445.911ZM503.979 194.914L505.18 195.609L506.386 193.526H503.979V194.914ZM346.103 194.914V193.526H343.699L344.901 195.608L346.103 194.914ZM346.103 445.911L344.96 445.123L343.462 447.298H346.103V445.911ZM503.979 445.911V447.298H506.624L505.121 445.122L503.979 445.911ZM900.245 312.733L900.989 313.904L902.111 313.19L901.446 312.039L900.245 312.733ZM706.958 435.601H705.57V438.128L707.702 436.772L706.958 435.601ZM706.958 -22L708.16 -22.694L705.57 -27.1787V-22H706.958ZM552.462 337.349L551.26 336.655L550.596 337.806L551.717 338.52L552.462 337.349ZM706.965 435.601L706.22 436.772L708.353 438.128V435.601H706.965ZM706.965 69.5204H708.353V64.3373L705.763 68.8269L706.965 69.5204ZM861.461 337.349L862.206 338.52L863.327 337.806L862.663 336.655L861.461 337.349ZM706.958 69.5204L708.16 68.8269L705.57 64.3373V69.5204H706.958ZM591.034 361.754L589.832 361.06L589.167 362.211L590.288 362.924L591.034 361.754ZM706.964 435.601L706.218 436.772L707.443 437.552L708.167 436.293L706.964 435.601ZM706.964 161.041H708.351V155.863L705.762 160.347L706.964 161.041ZM822.888 361.754L823.633 362.924L824.754 362.211L824.089 361.06L822.888 361.754ZM706.958 161.041V159.653H705.57V161.041H706.958ZM629.815 386.369L628.613 385.676L627.95 386.825L629.069 387.539L629.815 386.369ZM706.961 435.601L706.215 436.771L708.349 438.133V435.601H706.961ZM706.961 252.56H708.349V251.173H706.961V252.56ZM784.315 386.369L785.06 387.54L786.182 386.826L785.516 385.675L784.315 386.369ZM706.958 252.56V251.173H705.57V252.56H706.958ZM900.245 352.286L901.389 353.071L899.5 351.115L900.245 352.286ZM706.958 634H705.57V638.476L708.102 634.785L706.958 634ZM706.958 475.155L706.213 473.983L705.57 474.392V475.155H706.958ZM706.964 475.155H708.352V474.395L707.711 473.985L706.964 475.155ZM832.584 395.206L833.728 395.991L831.84 394.034L832.584 395.206ZM706.958 578.246H705.57V582.721L708.102 579.031L706.958 578.246ZM706.958 474.944L706.214 473.772L705.57 474.181V474.944H706.958ZM581.966 395.206L582.713 394.036L580.82 395.988L581.966 395.206ZM706.96 578.246L705.814 579.029L708.347 582.739V578.246H706.96ZM706.96 474.944H708.347V474.183L707.706 473.774L706.96 474.944ZM764.079 438.757L765.224 439.541L763.335 437.586L764.079 438.757ZM707.168 521.862H705.78V526.345L708.313 522.646L707.168 521.862ZM707.168 474.944L706.424 473.773L705.78 474.182V474.944H707.168ZM650.472 438.757L651.219 437.587L649.326 439.539L650.472 438.757ZM707.173 521.862L706.026 522.644L708.56 526.358V521.862H707.173ZM707.173 474.944H708.56V474.184L707.919 473.775L707.173 474.944ZM733.312 389.736L734.516 390.427L735.71 388.348H733.312V389.736ZM680.617 389.736V388.348H678.219L679.414 390.427L680.617 389.736ZM706.965 252.561L705.761 253.252L706.965 255.347L708.168 253.252L706.965 252.561ZM733.312 206.695L734.516 207.387L735.71 205.308H733.312V206.695ZM680.617 206.695V205.308H678.219L679.414 207.387L680.617 206.695ZM733.305 298.215L732.103 298.909L733.301 300.984L734.505 298.913L733.305 298.215ZM759.864 252.56L761.064 253.258L762.277 251.173H759.864V252.56ZM786.219 298.215L785.017 298.909L786.219 300.992L787.422 298.909L786.219 298.215ZM812.567 252.56L813.769 253.254L814.97 251.173H812.567V252.56ZM759.872 252.56V251.173H757.469L758.67 253.254L759.872 252.56ZM759.868 344.081L758.667 344.777L759.873 346.859L761.071 344.772L759.868 344.081ZM786.216 298.216L787.419 298.907L788.614 296.828H786.216V298.216ZM733.31 298.216V296.828H730.902L732.109 298.911L733.31 298.216ZM733.305 389.736L732.103 390.429L733.301 392.504L734.505 390.433L733.305 389.736ZM759.864 344.081L761.064 344.779L762.277 342.693H759.864V344.081ZM706.958 344.081V342.693H704.555L705.756 344.774L706.958 344.081ZM680.613 389.736L679.411 390.429L680.613 392.512L681.815 390.429L680.613 389.736ZM706.961 344.081L708.163 344.774L709.364 342.693H706.961V344.081ZM654.265 344.081V342.693H651.862L653.063 344.774L654.265 344.081ZM627.71 298.215L626.508 298.909L627.705 300.984L628.909 298.913L627.71 298.215ZM601.362 252.56V251.173H598.959L600.16 253.254L601.362 252.56ZM654.268 252.56L655.468 253.258L656.681 251.173H654.268V252.56ZM654.262 344.081L653.061 344.777L654.267 346.859L655.465 344.772L654.262 344.081ZM627.703 298.216V296.828H625.296L626.502 298.911L627.703 298.216ZM680.61 298.216L681.813 298.907L683.007 296.828H680.61V298.216ZM680.613 298.215L679.411 298.909L680.613 300.992L681.815 298.909L680.613 298.215ZM654.265 252.56V251.173H651.862L653.063 253.254L654.265 252.56ZM733.305 206.696L732.103 207.389L733.301 209.464L734.505 207.393L733.305 206.696ZM759.864 161.041L761.064 161.739L762.277 159.653H759.864V161.041ZM680.613 206.696L679.411 207.389L680.613 209.472L681.815 207.389L680.613 206.696ZM654.265 161.041V159.653H651.862L653.063 161.734L654.265 161.041ZM706.961 161.041L708.163 161.734L709.364 159.653H706.961V161.041ZM0 194.914V193.526H-1.3878V194.914H0ZM0 445.911H-1.3878V447.298L5.63354e-06 447.298L0 445.911ZM78.8324 320.517L77.6578 319.778L77.1922 320.518L77.6584 321.257L78.8324 320.517ZM157.875 194.914L159.05 195.653L160.389 193.526H157.875V194.914ZM157.875 445.91V447.298H160.391L159.049 445.17L157.875 445.91ZM157.878 194.914L159.08 194.22L157.929 192.227L156.703 194.175L157.878 194.914ZM78.8345 320.517L77.66 319.778L77.1944 320.518L77.6605 321.257L78.8345 320.517ZM157.878 445.911L156.704 446.651L157.826 448.432L159.021 446.698L157.878 445.911ZM236.71 331.458L237.853 332.245L238.35 331.523L237.912 330.764L236.71 331.458ZM1407.39 439.598L1406.21 440.337L1406.21 440.342L1407.39 439.598ZM1407.39 201.225L1406.21 200.482L1406.21 200.488L1407.39 201.225ZM1407.39 201.225L1406.22 200.482L1406.21 200.488L1407.39 201.225ZM1332.56 320.517L1331.38 319.78L1330.92 320.518L1331.39 321.256L1332.56 320.517ZM1407.39 439.599L1406.21 440.337L1406.22 440.342L1407.39 439.599ZM1411.39 445.911L1410.22 446.654L1412.78 450.688V445.911H1411.39ZM1411.39 194.914H1412.78V190.136L1410.22 194.17L1411.39 194.914ZM987.424 332.245L1066.26 446.698L1068.54 445.123L989.71 330.671L987.424 332.245ZM1068.54 446.698L1147.37 332.245L1145.09 330.671L1066.26 445.123L1068.54 446.698ZM1147.43 332.153L1226.48 195.609L1224.07 194.218L1145.03 330.762L1147.43 332.153ZM1225.28 193.526H1067.4V196.302H1225.28V193.526ZM346.101 447.298H503.977V444.523H346.101V447.298ZM505.119 445.122L426.076 330.669L423.792 332.246L502.835 446.699L505.119 445.122ZM426.135 332.153L505.178 195.609L502.776 194.218L423.733 330.762L426.135 332.153ZM503.977 193.526H346.101V196.302H503.977V193.526ZM513.144 313.902L551.717 338.518L553.21 336.178L514.637 311.563L513.144 313.902ZM551.722 338.521L590.295 362.926L591.779 360.581L553.206 336.176L551.722 338.521ZM590.291 362.924L706.221 436.772L707.712 434.431L591.782 360.583L590.291 362.924ZM901.455 312.039L708.168 -22.694L705.765 -21.306L899.052 313.427L901.455 312.039ZM831.845 394.035L706.43 473.773L707.919 476.115L833.334 396.377L831.845 394.035ZM707.921 473.774L651.221 437.587L649.728 439.927L706.428 476.114L707.921 473.774ZM649.086 438.757V438.967H651.862V438.757H649.086ZM651.221 437.798L582.717 394.036L581.223 396.375L649.727 440.137L651.221 437.798ZM580.99 396.188L581.201 396.399L583.161 394.434L582.95 394.224L580.99 396.188ZM582.929 394.247L515.478 351.117L513.983 353.455L581.433 396.585L582.929 394.247ZM708.108 634.785L901.395 353.071L899.106 351.501L705.819 633.215L708.108 634.785ZM899.505 351.116L831.844 394.246L833.336 396.587L900.996 353.456L899.505 351.116ZM833.977 395.416V395.206H831.202V395.416H833.977ZM989.769 332.152L1068.6 195.608L1066.2 194.22L987.365 330.764L989.769 332.152ZM1147.44 332.153L1226.48 195.609L1224.08 194.218L1145.03 330.762L1147.44 332.153ZM1225.28 193.526H1067.4V196.302H1225.28V193.526ZM1066.2 195.608L1145.03 332.152L1147.44 330.764L1068.6 194.22L1066.2 195.608ZM1066.2 194.22L987.366 330.764L989.77 332.152L1068.6 195.608L1066.2 194.22ZM1147.44 330.764L1068.6 194.22L1066.2 195.608L1145.03 332.152L1147.44 330.764ZM1068.54 446.698L1147.38 332.245L1145.09 330.671L1066.26 445.123L1068.54 446.698ZM987.425 332.245L1066.26 446.698L1068.54 445.123L989.711 330.671L987.425 332.245ZM426.137 332.153L505.18 195.609L502.778 194.218L423.734 330.762L426.137 332.153ZM503.979 193.526H346.103V196.302H503.979V193.526ZM344.901 195.608L423.734 332.152L426.137 330.764L347.305 194.22L344.901 195.608ZM426.136 330.764L347.303 194.22L344.899 195.608L423.732 332.152L426.136 330.764ZM347.244 446.698L426.077 332.245L423.791 330.671L344.958 445.123L347.244 446.698ZM423.793 330.671L344.96 445.123L347.246 446.698L426.078 332.245L423.793 330.671ZM346.103 447.298H503.979V444.523H346.103V447.298ZM505.121 445.122L426.078 330.669L423.794 332.246L502.837 446.699L505.121 445.122ZM513.146 313.903L706.221 436.772L707.712 434.43L514.636 311.562L513.146 313.903ZM708.354 435.601V-22H705.579V435.601H708.354ZM899.5 311.561L706.213 434.43L707.702 436.772L900.989 313.904L899.5 311.561ZM708.346 435.601V-22H705.57V435.601H708.346ZM705.756 -21.306L899.043 313.427L901.446 312.039L708.16 -22.694L705.756 -21.306ZM551.717 338.52L706.22 436.772L707.71 434.43L553.207 336.177L551.717 338.52ZM708.353 435.601V69.5204H705.577V435.601H708.353ZM705.763 68.8269L551.26 336.655L553.664 338.042L708.167 70.2139L705.763 68.8269ZM860.716 336.177L706.213 434.43L707.702 436.772L862.206 338.52L860.716 336.177ZM708.346 435.601V69.5204H705.57V435.601H708.346ZM705.756 70.2139L860.259 338.042L862.663 336.655L708.16 68.8269L705.756 70.2139ZM590.288 362.924L706.218 436.772L707.709 434.431L591.779 360.583L590.288 362.924ZM708.351 435.601V161.041H705.576V435.601H708.351ZM705.762 160.347L589.832 361.06L592.235 362.448L708.165 161.735L705.762 160.347ZM822.142 360.583L706.212 434.431L707.703 436.772L823.633 362.924L822.142 360.583ZM708.346 435.601V161.041H705.57V435.601H708.346ZM705.756 161.735L821.686 362.448L824.089 361.06L708.159 160.347L705.756 161.735ZM629.069 387.539L706.215 436.771L707.708 434.431L630.562 385.199L629.069 387.539ZM708.349 435.601V252.56H705.574V435.601H708.349ZM705.759 251.867L628.613 385.676L631.017 387.062L708.164 253.254L705.759 251.867ZM783.57 385.198L706.213 434.43L707.703 436.772L785.06 387.54L783.57 385.198ZM708.346 435.601V252.56H705.57V435.601H708.346ZM705.756 253.255L783.113 387.064L785.516 385.675L708.159 251.866L705.756 253.255ZM899.1 351.501L705.813 633.215L708.102 634.785L901.389 353.071L899.1 351.501ZM708.346 634V475.155H705.57V634H708.346ZM707.702 476.326L900.989 353.457L899.5 351.115L706.213 473.983L707.702 476.326ZM708.352 634L708.352 475.155H705.576L705.576 634H708.352ZM707.711 473.985L515.478 351.117L513.983 353.455L706.216 476.324L707.711 473.985ZM831.439 394.42L705.814 577.461L708.102 579.031L833.728 395.991L831.439 394.42ZM708.346 578.246V474.944H705.57V578.246H708.346ZM707.701 476.116L833.327 396.377L831.84 394.034L706.214 473.772L707.701 476.116ZM580.82 395.988L705.814 579.029L708.106 577.463L583.112 394.423L580.82 395.988ZM708.347 578.246V474.944H705.572V578.246H708.347ZM707.706 473.774L582.713 394.036L581.22 396.376L706.213 476.114L707.706 473.774ZM762.934 437.973L706.023 521.078L708.313 522.646L765.224 439.541L762.934 437.973ZM708.556 521.862V474.944H705.78V521.862H708.556ZM707.913 476.116L764.824 439.928L763.335 437.586L706.424 473.773L707.913 476.116ZM649.326 439.539L706.026 522.644L708.319 521.08L651.619 437.975L649.326 439.539ZM708.56 521.862V474.944H705.785V521.862H708.56ZM707.919 473.775L651.219 437.587L649.726 439.927L706.426 476.114L707.919 473.775ZM708.167 436.293L734.516 390.427L732.109 389.045L705.76 434.91L708.167 436.293ZM733.312 388.348H680.617V391.124H733.312V388.348ZM679.414 390.427L705.76 436.293L708.167 434.91L681.82 389.045L679.414 390.427ZM708.168 253.252L734.516 207.387L732.109 206.004L705.761 251.87L708.168 253.252ZM733.312 205.308H680.617V208.083H733.312V205.308ZM679.414 207.387L705.761 253.252L708.168 251.87L681.82 206.004L679.414 207.387ZM734.505 298.913L761.064 253.258L758.664 251.863L732.106 297.518L734.505 298.913ZM759.864 251.173H706.958V253.948H759.864V251.173ZM705.756 253.254L732.103 298.909L734.508 297.522L708.16 251.867L705.756 253.254ZM787.422 298.909L813.769 253.254L811.365 251.867L785.017 297.522L787.422 298.909ZM812.567 251.173H759.872V253.948H812.567V251.173ZM758.67 253.254L785.017 298.909L787.422 297.522L761.074 251.867L758.67 253.254ZM761.071 344.772L787.419 298.907L785.012 297.525L758.665 343.39L761.071 344.772ZM786.216 296.828H733.31V299.604H786.216V296.828ZM732.109 298.911L758.667 344.777L761.069 343.386L734.51 297.52L732.109 298.911ZM734.505 390.433L761.064 344.779L758.664 343.383L732.106 389.038L734.505 390.433ZM759.864 342.693H706.958V345.469H759.864V342.693ZM705.756 344.774L732.103 390.429L734.508 389.042L708.16 343.387L705.756 344.774ZM681.815 390.429L708.163 344.774L705.758 343.387L679.411 389.042L681.815 390.429ZM706.961 342.693H654.265V345.469H706.961V342.693ZM653.063 344.774L679.411 390.429L681.815 389.042L655.467 343.387L653.063 344.774ZM628.912 297.522L602.564 251.867L600.16 253.254L626.508 298.909L628.912 297.522ZM601.362 253.948H654.268V251.173H601.362V253.948ZM653.069 251.863L626.51 297.518L628.909 298.913L655.468 253.258L653.069 251.863ZM655.463 343.386L628.904 297.52L626.502 298.911L653.061 344.777L655.463 343.386ZM627.703 299.604H680.61V296.828H627.703V299.604ZM679.406 297.525L653.059 343.39L655.465 344.772L681.813 298.907L679.406 297.525ZM681.815 297.522L655.467 251.867L653.063 253.254L679.411 298.909L681.815 297.522ZM654.265 253.948H706.961V251.173H654.265V253.948ZM705.759 251.867L679.411 297.522L681.815 298.909L708.163 253.254L705.759 251.867ZM734.505 207.393L761.064 161.739L758.664 160.343L732.106 205.998L734.505 207.393ZM759.864 159.653H706.958V162.429H759.864V159.653ZM705.756 161.734L732.103 207.389L734.508 206.002L708.16 160.347L705.756 161.734ZM681.815 206.002L655.467 160.347L653.063 161.734L679.411 207.389L681.815 206.002ZM654.265 162.429H706.961V159.653H654.265V162.429ZM705.758 160.347L679.411 206.002L681.815 207.389L708.163 161.734L705.758 160.347ZM-1.3878 194.914V445.911H1.3878V194.914H-1.3878ZM80.0069 321.257L159.05 195.653L156.701 194.175L77.6578 319.778L80.0069 321.257ZM159.049 445.17L80.0064 319.777L77.6584 321.257L156.701 446.65L159.049 445.17ZM156.703 194.175L77.66 319.778L80.0091 321.257L159.052 195.653L156.703 194.175ZM77.6605 321.257L156.704 446.651L159.052 445.171L80.0085 319.777L77.6605 321.257ZM159.021 446.698L237.853 332.245L235.567 330.671L156.735 445.123L159.021 446.698ZM237.912 330.764L159.08 194.22L156.676 195.608L235.508 332.152L237.912 330.764ZM1331.38 319.777L1252.34 445.171L1254.69 446.651L1333.73 321.257L1331.38 319.777ZM1412.56 445.167L1408.56 438.855L1406.21 440.342L1410.22 446.654L1412.56 445.167ZM1408.56 438.86L1333.73 319.778L1331.38 321.255L1406.21 440.337L1408.56 438.86ZM1252.34 195.653L1331.38 321.256L1333.73 319.778L1254.69 194.175L1252.34 195.653ZM1333.73 321.254L1408.56 201.963L1406.21 200.488L1331.38 319.779L1333.73 321.254ZM1408.56 201.969L1412.56 195.657L1410.22 194.17L1406.21 200.482L1408.56 201.969ZM1406.21 200.488L1331.38 319.78L1333.74 321.255L1408.56 201.963L1406.21 200.488ZM1331.39 321.256L1406.21 440.337L1408.56 438.861L1333.74 319.779L1331.39 321.256ZM1406.22 440.342L1410.22 446.654L1412.56 445.167L1408.56 438.855L1406.22 440.342ZM1412.78 445.911V194.914H1410V445.911H1412.78ZM1410.22 194.17L1406.22 200.482L1408.56 201.969L1412.56 195.657L1410.22 194.17ZM707.711 436.772L900.998 313.904L899.509 311.561L706.222 434.43L707.711 436.772ZM157.875 193.526H0V196.302H157.875V193.526ZM5.63354e-06 447.298L157.875 447.298V444.522L-5.63354e-06 444.523L5.63354e-06 447.298Z" fill="black" fill-opacity="0.05" mask="url(#path-1-inside-1)"/>
</svg>
