<?xml version="1.0" encoding="utf-8"?>
<!-- Generator: Adobe Illustrator 24.1.2, SVG Export Plug-In . SVG Version: 6.00 Build 0)  -->
<svg version="1.1" xmlns="http://www.w3.org/2000/svg" xmlns:xlink="http://www.w3.org/1999/xlink" x="0px" y="0px"
	 viewBox="0 0 156.2 49.5" style="enable-background:new 0 0 156.2 49.5;" xml:space="preserve">
<style type="text/css">
	.st0{fill:#36364C;}
	.st1{fill:#1AACD4;}
	.st2{fill:#6B7BBB;}
	.st3{fill:#A666A7;}
	.st4{fill:#F18B78;}
	.st5{fill:#FFEC5D;}
	.st6{fill:#59B56E;}
	.st7{display:none;}
</style>
<g id="Layer_1">
	<g>
		<g>
			<path class="st0" d="M38.6,18.3c0-1,0.2-1.9,0.6-2.6c0.4-0.8,1-1.4,1.7-1.8c0.7-0.4,1.6-0.6,2.5-0.6c0.9,0,1.7,0.2,2.5,0.6
				c0.7,0.4,1.3,1,1.7,1.8c0.4,0.8,0.6,1.7,0.6,2.7v0.8h-7.1c0,0.6,0.3,1.1,0.7,1.5c0.4,0.4,1,0.6,1.7,0.6c0.5,0,0.9-0.1,1.3-0.3
				c0.4-0.2,0.9-0.6,1.3-1.1l1.6,1.6c-0.6,0.6-1.2,1.1-1.9,1.4c-0.7,0.3-1.5,0.5-2.4,0.5c-1,0-1.8-0.2-2.6-0.6
				c-0.7-0.4-1.3-1-1.7-1.8C38.8,20.1,38.6,19.2,38.6,18.3z M45.6,17.2c0-0.5-0.3-1-0.7-1.3s-0.9-0.5-1.5-0.5
				c-0.6,0-1.1,0.2-1.5,0.5s-0.6,0.8-0.7,1.3H45.6z"/>
			<path class="st0" d="M56,15.8v3.8c0,0.3,0.1,0.6,0.2,0.7s0.4,0.2,0.7,0.2h2.2V23h-2.4c-1.1,0-1.9-0.2-2.4-0.7
				c-0.6-0.5-0.9-1.2-0.9-2.1v-4.4h-2.3v-2.3h2.3V11H56v2.4h3.7v2.3H56z"/>
			<path class="st0" d="M63.1,9.9h2.6v4.5h0c0.7-0.8,1.6-1.2,2.8-1.2c0.7,0,1.3,0.2,1.9,0.5c0.5,0.3,1,0.8,1.3,1.4
				c0.3,0.6,0.5,1.3,0.5,2.1V23h-2.6v-5.4c0-0.6-0.2-1.1-0.5-1.5c-0.3-0.4-0.8-0.5-1.3-0.5c-0.6,0-1.1,0.2-1.4,0.5
				c-0.3,0.4-0.5,0.8-0.5,1.5V23h-2.6V9.9z"/>
			<path class="st0" d="M74.6,18.3c0-1,0.2-1.9,0.6-2.6c0.4-0.8,1-1.4,1.7-1.8c0.7-0.4,1.6-0.6,2.5-0.6c0.9,0,1.7,0.2,2.5,0.6
				c0.7,0.4,1.3,1,1.7,1.8c0.4,0.8,0.6,1.7,0.6,2.7v0.8h-7.1c0,0.6,0.3,1.1,0.7,1.5c0.4,0.4,1,0.6,1.7,0.6c0.5,0,0.9-0.1,1.3-0.3
				c0.4-0.2,0.9-0.6,1.3-1.1l1.6,1.6c-0.6,0.6-1.2,1.1-1.9,1.4c-0.7,0.3-1.5,0.5-2.4,0.5c-1,0-1.8-0.2-2.6-0.6
				c-0.7-0.4-1.3-1-1.7-1.8C74.8,20.1,74.6,19.2,74.6,18.3z M81.7,17.2c0-0.5-0.3-1-0.7-1.3s-0.9-0.5-1.5-0.5
				c-0.6,0-1.1,0.2-1.5,0.5s-0.6,0.8-0.7,1.3H81.7z"/>
			<path class="st0" d="M87.8,13.5h2.5v0.9h0c0.4-0.4,0.8-0.7,1.3-0.9c0.4-0.2,0.9-0.3,1.5-0.3c0.8,0,1.5,0.2,2.1,0.7
				c0.6,0.5,1,1.1,1.3,2l-2.4,0.8c-0.3-0.8-0.8-1.2-1.7-1.2c-0.6,0-1.1,0.2-1.5,0.6c-0.3,0.4-0.5,0.9-0.5,1.6V23h-2.6V13.5z"/>
			<path class="st0" d="M98.7,18.3c0-1,0.2-1.9,0.6-2.6c0.4-0.8,1-1.4,1.7-1.8c0.7-0.4,1.6-0.6,2.5-0.6c0.9,0,1.7,0.2,2.5,0.6
				c0.7,0.4,1.3,1,1.7,1.8c0.4,0.8,0.6,1.7,0.6,2.7v0.8h-7.1c0,0.6,0.3,1.1,0.7,1.5s1,0.6,1.7,0.6c0.5,0,0.9-0.1,1.3-0.3
				c0.4-0.2,0.9-0.6,1.3-1.1l1.6,1.6c-0.6,0.6-1.2,1.1-1.9,1.4c-0.7,0.3-1.5,0.5-2.4,0.5c-1,0-1.8-0.2-2.6-0.6s-1.3-1-1.7-1.8
				C98.9,20.1,98.7,19.2,98.7,18.3z M105.7,17.2c0-0.5-0.3-1-0.7-1.3c-0.4-0.3-0.9-0.5-1.5-0.5c-0.6,0-1.1,0.2-1.5,0.5
				c-0.4,0.3-0.6,0.8-0.7,1.3H105.7z"/>
			<path class="st0" d="M111.3,19.8v-6.3h2.6v5.7c0,1.2,0.6,1.7,1.7,1.7c0.5,0,0.9-0.2,1.2-0.5c0.3-0.3,0.5-0.7,0.5-1.3v-5.7h2.6V23
				h-2.5v-0.8h0c-0.3,0.3-0.6,0.6-1.1,0.8c-0.5,0.2-0.9,0.3-1.4,0.3c-1.1,0-2-0.3-2.6-0.9C111.6,21.7,111.3,20.9,111.3,19.8z"/>
			<path class="st0" d="M122.5,13.5h2.3v0.8h0c0.2-0.3,0.5-0.6,0.8-0.7c0.3-0.2,0.7-0.3,1.1-0.3c0.8,0,1.4,0.4,1.8,1.1h0
				c0.5-0.7,1.1-1.1,2-1.1c0.7,0,1.3,0.2,1.7,0.7c0.4,0.5,0.6,1.1,0.6,1.9V23h-2.4v-6.6c0-0.3-0.1-0.5-0.2-0.6
				c-0.1-0.1-0.3-0.2-0.6-0.2c-0.3,0-0.5,0.1-0.6,0.2c-0.1,0.2-0.2,0.4-0.2,0.7V23h-2.2v-6.6c0-0.3-0.1-0.5-0.2-0.6
				c-0.1-0.1-0.3-0.2-0.6-0.2c-0.3,0-0.5,0.1-0.6,0.2c-0.2,0.2-0.2,0.4-0.2,0.7V23h-2.4V13.5z"/>
			<path class="st0" d="M41.4,35.8h-2.5v-2.3h2.5v-1.4c0-0.8,0.3-1.5,0.8-2c0.6-0.5,1.3-0.7,2.3-0.7h2.8v2.3h-2.5
				c-0.3,0-0.4,0.1-0.6,0.2c-0.1,0.1-0.2,0.3-0.2,0.6v1.1h3.8v2.3h-3.8V42h-2.7V35.8z"/>
			<path class="st0" d="M50.6,37.2c0-1,0.2-1.9,0.6-2.6c0.4-0.8,1-1.4,1.7-1.8c0.7-0.4,1.6-0.6,2.5-0.6c1,0,1.8,0.2,2.5,0.6
				s1.3,1,1.7,1.8c0.4,0.8,0.6,1.6,0.6,2.6c0,1-0.2,1.9-0.6,2.6c-0.4,0.8-1,1.4-1.7,1.8s-1.6,0.6-2.5,0.6c-0.9,0-1.8-0.2-2.5-0.6
				c-0.7-0.4-1.3-1-1.7-1.8C50.8,39.1,50.6,38.2,50.6,37.2z M57.8,37.2c0-0.8-0.2-1.5-0.6-2c-0.4-0.5-1-0.7-1.7-0.7
				c-0.7,0-1.3,0.2-1.7,0.7c-0.4,0.5-0.6,1.1-0.6,2s0.2,1.5,0.6,2c0.4,0.5,1,0.7,1.7,0.7c0.7,0,1.3-0.2,1.7-0.7
				C57.6,38.7,57.8,38.1,57.8,37.2z"/>
			<path class="st0" d="M63.2,38.8v-6.3h2.6v5.7c0,1.2,0.6,1.7,1.7,1.7c0.5,0,0.9-0.2,1.2-0.5c0.3-0.3,0.5-0.7,0.5-1.3v-5.7h2.6V42
				h-2.5v-0.8h0c-0.3,0.3-0.6,0.6-1.1,0.8s-0.9,0.3-1.4,0.3c-1.1,0-2-0.3-2.6-0.9C63.5,40.7,63.2,39.9,63.2,38.8z"/>
			<path class="st0" d="M75.1,32.5h2.6v0.9h0c0.4-0.4,0.8-0.7,1.2-0.9c0.4-0.2,0.9-0.3,1.5-0.3c0.6,0,1.2,0.1,1.7,0.4
				c0.5,0.3,1,0.7,1.3,1.4s0.5,1.4,0.5,2.3V42h-2.6v-5.4c0-0.6-0.2-1.1-0.5-1.5c-0.3-0.4-0.8-0.6-1.4-0.6c-0.6,0-1.1,0.2-1.4,0.5
				c-0.3,0.4-0.5,0.8-0.5,1.5V42h-2.6V32.5z"/>
			<path class="st0" d="M86.5,37.2c0-1,0.2-1.8,0.6-2.6c0.4-0.8,0.9-1.4,1.6-1.8c0.7-0.4,1.4-0.6,2.3-0.6c1.1,0,1.9,0.3,2.5,0.9h0
				v-4.2H96V42h-2.4v-0.8h0c-0.7,0.7-1.6,1.1-2.8,1.1c-0.8,0-1.6-0.2-2.3-0.6s-1.2-1-1.6-1.8C86.7,39.1,86.5,38.2,86.5,37.2z
				 M93.5,37.9v-1.2c0-0.4-0.1-0.7-0.3-1c-0.2-0.3-0.5-0.6-0.8-0.8c-0.3-0.2-0.7-0.3-1.1-0.3c-0.7,0-1.2,0.2-1.6,0.7
				c-0.4,0.5-0.6,1.1-0.6,2c0,0.8,0.2,1.5,0.6,1.9c0.4,0.5,0.9,0.7,1.6,0.7s1.2-0.2,1.6-0.6C93.2,38.9,93.5,38.4,93.5,37.9z"/>
			<path class="st0" d="M99.3,39.5c0-0.9,0.3-1.6,0.9-2.1c0.6-0.5,1.6-0.9,3-1.1c0.7-0.1,1.3-0.3,1.5-0.4c0.3-0.2,0.4-0.4,0.4-0.6
				c0-0.3-0.1-0.5-0.4-0.7c-0.3-0.2-0.6-0.3-1.1-0.3c-0.5,0-1,0.2-1.3,0.5s-0.6,0.7-0.7,1.2l-2.4-0.5c0.1-0.6,0.4-1.2,0.8-1.7
				c0.4-0.5,0.9-0.9,1.6-1.2c0.6-0.3,1.3-0.4,2.1-0.4c1.2,0,2.2,0.3,2.9,1c0.7,0.7,1.1,1.6,1.1,2.7v6h-2.3V41h0
				c-0.3,0.4-0.7,0.7-1.2,1s-1.1,0.4-1.7,0.4s-1.2-0.1-1.7-0.4c-0.5-0.2-0.9-0.6-1.2-1C99.4,40.5,99.3,40,99.3,39.5z M105.3,38.5
				v-1.1h0c-0.1,0.2-0.3,0.3-0.5,0.4c-0.3,0.1-0.6,0.2-1.2,0.3c-0.7,0.1-1.1,0.3-1.4,0.5s-0.4,0.4-0.4,0.7c0,0.3,0.1,0.5,0.3,0.6
				c0.2,0.1,0.5,0.2,1,0.2c0.4,0,0.8-0.1,1.1-0.2s0.6-0.4,0.8-0.6S105.3,38.8,105.3,38.5z"/>
			<path class="st0" d="M116.2,34.8v3.8c0,0.3,0.1,0.6,0.2,0.7c0.2,0.1,0.4,0.2,0.7,0.2h2.2V42h-2.4c-1.1,0-1.9-0.2-2.4-0.7
				c-0.6-0.5-0.9-1.2-0.9-2.1v-4.4h-2.3v-2.3h2.3V30h2.6v2.4h3.7v2.3H116.2z"/>
			<path class="st0" d="M132.3,39.7V42h-9.4v-2.4h3.4v-4.8h-3.2v-2.4h5.8v7.2H132.3z M126.3,28.4h2.6V31h-2.6V28.4z"/>
			<path class="st0" d="M134.8,37.2c0-1,0.2-1.9,0.6-2.6c0.4-0.8,1-1.4,1.7-1.8c0.7-0.4,1.6-0.6,2.5-0.6c1,0,1.8,0.2,2.5,0.6
				c0.7,0.4,1.3,1,1.7,1.8c0.4,0.8,0.6,1.6,0.6,2.6c0,1-0.2,1.9-0.6,2.6c-0.4,0.8-1,1.4-1.7,1.8c-0.7,0.4-1.6,0.6-2.5,0.6
				c-0.9,0-1.8-0.2-2.5-0.6c-0.7-0.4-1.3-1-1.7-1.8C135,39.1,134.8,38.2,134.8,37.2z M141.9,37.2c0-0.8-0.2-1.5-0.6-2
				c-0.4-0.5-1-0.7-1.7-0.7c-0.7,0-1.3,0.2-1.7,0.7c-0.4,0.5-0.6,1.1-0.6,2s0.2,1.5,0.6,2c0.4,0.5,1,0.7,1.7,0.7
				c0.7,0,1.3-0.2,1.7-0.7S141.9,38.1,141.9,37.2z"/>
			<path class="st0" d="M147.2,32.5h2.6v0.9h0c0.4-0.4,0.8-0.7,1.2-0.9c0.4-0.2,0.9-0.3,1.5-0.3c0.6,0,1.2,0.1,1.7,0.4
				c0.5,0.3,1,0.7,1.3,1.4s0.5,1.4,0.5,2.3V42h-2.6v-5.4c0-0.6-0.2-1.1-0.5-1.5c-0.3-0.4-0.8-0.6-1.4-0.6c-0.6,0-1.1,0.2-1.4,0.5
				c-0.3,0.4-0.5,0.8-0.5,1.5V42h-2.6V32.5z"/>
		</g>
		<polygon class="st1" points="14.6,37.6 14.6,49.5 0,28.3 		"/>
		<polygon class="st2" points="29.1,28.3 14.6,49.5 14.6,37.6 		"/>
		<polygon class="st3" points="29.1,25.3 14.6,17 14.6,34.6 		"/>
		<polygon class="st4" points="29.1,25.3 14.6,0 14.6,17 		"/>
		<polygon class="st5" points="14.6,0 14.6,17 0,25.3 		"/>
		<polygon class="st6" points="14.6,17 14.6,34.6 0,25.3 		"/>
	</g>
</g>
<g id="Layer_2" class="st7">
</g>
</svg>
