<svg width="1412" height="656" viewBox="0 0 1412 656" fill="none" xmlns="http://www.w3.org/2000/svg">
<mask id="path-1-inside-1" fill="white">
<path d="M1253.52 216.914V467.911H1411.39V216.914H1253.52Z"/>
<path d="M909.524 216.914L988.567 353.458L1067.4 467.911L1146.23 353.458L1225.28 216.914H1067.4H909.524Z"/>
<path d="M346.101 216.914L267.058 353.458L346.101 467.911H503.977L424.934 353.458L503.977 216.914H346.101Z"/>
<path d="M513.891 334.733L552.464 359.348L591.037 383.754L706.967 457.601L900.253 334.733L706.967 0L513.891 334.733Z"/>
<path d="M832.59 417.206L707.174 496.944L650.474 460.757V460.967L581.97 417.206L582.181 417.416L514.731 374.286L706.964 656L900.25 374.286L832.59 417.416V417.206Z"/>
<path d="M1227.39 508.095V506.202L1226.33 508.095H1227.39Z"/>
<path d="M1253.52 216.914V467.911H1411.39V216.914H1253.52Z"/>
<path d="M1226.33 508.095H1227.39V506.202L1226.33 508.095Z"/>
<path d="M988.567 353.458L1067.4 216.914H909.524L988.567 353.458Z"/>
<path d="M1146.24 353.458L1225.28 216.914H1067.4L1146.24 353.458Z"/>
<path d="M1067.4 216.914L988.568 353.458H1146.23L1067.4 216.914Z"/>
<path d="M1067.4 467.911L1146.23 353.458H988.568L1067.4 467.911Z"/>
<path d="M424.936 353.458L503.979 216.914H346.103L424.936 353.458Z"/>
<path d="M346.101 216.914L267.058 353.458H424.934L346.101 216.914Z"/>
<path d="M346.101 467.911L424.934 353.458H267.058L346.101 467.911Z"/>
<path d="M424.936 353.458L346.103 467.911H503.979L424.936 353.458Z"/>
<path d="M513.891 334.733L706.967 457.601V0L513.891 334.733Z"/>
<path d="M900.245 334.733L706.958 457.601V0L900.245 334.733Z"/>
<path d="M552.462 359.349L706.965 457.601V91.5204L552.462 359.349Z"/>
<path d="M861.461 359.349L706.958 457.601V91.5204L861.461 359.349Z"/>
<path d="M591.034 383.754L706.964 457.601V183.041L591.034 383.754Z"/>
<path d="M822.888 383.754L706.958 457.601V183.041L822.888 383.754Z"/>
<path d="M629.815 408.369L706.961 457.601V274.56L629.815 408.369Z"/>
<path d="M784.315 408.369L706.958 457.601V274.56L784.315 408.369Z"/>
<path d="M900.245 374.286L706.958 656V497.155L900.245 374.286Z"/>
<path d="M514.731 374.286L706.964 656L706.964 497.155L514.731 374.286Z"/>
<path d="M832.584 417.206L706.958 600.246V496.944L832.584 417.206Z"/>
<path d="M581.966 417.206L706.96 600.246V496.944L581.966 417.206Z"/>
<path d="M764.079 460.757L707.168 543.862V496.944L764.079 460.757Z"/>
<path d="M650.472 460.757L707.173 543.862V496.944L650.472 460.757Z"/>
<path d="M706.964 457.601L733.312 411.736H680.617L706.964 457.601Z"/>
<path d="M706.965 274.561L733.312 228.695H680.617L706.965 274.561Z"/>
<path d="M733.305 320.215L759.864 274.56H706.958L733.305 320.215Z"/>
<path d="M786.219 320.215L812.567 274.56H759.872L786.219 320.215Z"/>
<path d="M759.868 366.081L786.216 320.216H733.31L759.868 366.081Z"/>
<path d="M733.305 411.736L759.864 366.081H706.958L733.305 411.736Z"/>
<path d="M680.613 411.736L706.961 366.081H654.265L680.613 411.736Z"/>
<path d="M627.71 320.215L601.362 274.56H654.268L627.71 320.215Z"/>
<path d="M654.262 366.081L627.703 320.216H680.61L654.262 366.081Z"/>
<path d="M680.613 320.215L654.265 274.56H706.961L680.613 320.215Z"/>
<path d="M733.305 228.696L759.864 183.041H706.958L733.305 228.696Z"/>
<path d="M680.613 228.696L654.265 183.041H706.961L680.613 228.696Z"/>
<path d="M0 216.914V467.911L78.8324 342.517L0 216.914Z"/>
<path d="M0 216.914L78.8324 342.517L157.875 216.914H0Z"/>
<path d="M78.8324 342.517L0 467.911L157.875 467.91L78.8324 342.517Z"/>
<path d="M157.878 216.914L78.8345 342.517L157.878 467.911L236.71 353.458L157.878 216.914Z"/>
<path d="M1332.56 342.517L1253.52 467.911H1411.39L1407.39 461.598L1332.56 342.517Z"/>
<path d="M1411.39 216.914H1253.52L1332.56 342.517L1407.39 223.225L1411.39 216.914Z"/>
<path d="M1407.39 223.225L1332.56 342.517L1407.39 461.599L1411.39 467.911V216.914L1407.39 223.225Z"/>
</mask>
<path d="M1253.52 216.914V216.214H1252.82V216.914H1253.52ZM1253.52 467.911H1252.82V468.611H1253.52V467.911ZM1411.39 467.911V468.611H1412.09V467.911H1411.39ZM1411.39 216.914H1412.09V216.214H1411.39V216.914ZM909.524 216.914V216.214H908.31L908.918 217.264L909.524 216.914ZM267.058 353.458L266.452 353.107L266.23 353.491L266.482 353.856L267.058 353.458ZM1227.39 508.095V508.795H1228.09V508.095H1227.39ZM1227.39 506.202H1228.09V503.505L1226.77 505.861L1227.39 506.202ZM1226.33 508.095L1225.72 507.755L1225.14 508.795H1226.33V508.095ZM78.8324 342.517L79.425 342.89L79.659 342.518L79.4253 342.145L78.8324 342.517ZM1252.82 216.914V467.911H1254.22V216.914H1252.82ZM1412.09 467.911V216.914H1410.69V467.911H1412.09ZM908.918 217.264L987.961 353.808L989.173 353.107L910.13 216.563L908.918 217.264ZM1067.4 216.214H909.524V217.614H1067.4V216.214ZM345.496 216.563L266.452 353.107L267.664 353.808L346.707 217.264L345.496 216.563ZM266.482 353.856L345.525 468.308L346.677 467.513L267.634 353.06L266.482 353.856ZM706.36 -0.349753L513.284 334.383L514.497 335.082L707.573 0.349753L706.36 -0.349753ZM514.153 374.681L706.385 656.395L707.542 655.605L515.309 373.891L514.153 374.681ZM1228.09 508.095V506.202H1226.69V508.095H1228.09ZM1226.77 505.861L1225.72 507.755L1226.94 508.436L1228 506.542L1226.77 505.861ZM1226.33 508.795H1227.39V507.395H1226.33V508.795ZM988.568 354.158H1146.23V352.758H988.568V354.158ZM267.058 354.158H424.934V352.758H267.058V354.158ZM0.592616 468.283L79.425 342.89L78.2398 342.145L-0.592616 467.538L0.592616 468.283ZM79.4253 342.145L0.592898 216.542L-0.592898 217.286L78.2395 342.89L79.4253 342.145ZM1253.52 468.611H1411.39V467.211H1253.52V468.611ZM1411.39 216.214H1253.52V217.614H1411.39V216.214ZM988.567 353.458L987.355 352.758L986.913 353.524L987.414 354.252L988.567 353.458ZM1067.4 467.911L1066.25 468.705L1067.4 470.379L1068.55 468.705L1067.4 467.911ZM1146.23 353.458L1147.38 354.252L1147.42 354.207L1147.44 354.159L1146.23 353.458ZM1225.28 216.914L1226.49 217.615L1227.7 215.514H1225.28V216.914ZM1067.4 216.914V215.514H1066.59L1066.19 216.214L1067.4 216.914ZM346.101 216.914V215.514H343.676L344.889 217.614L346.101 216.914ZM346.101 467.911L344.948 467.117L343.437 469.311H346.101V467.911ZM503.977 467.911V469.311H506.645L505.129 467.115L503.977 467.911ZM503.977 216.914L505.189 217.615L506.405 215.514H503.977V216.914ZM513.891 334.733L514.642 333.551L513.137 335.913L513.891 334.733ZM552.464 359.348L551.711 360.529L551.715 360.531L552.464 359.348ZM591.037 383.754L591.789 382.573L591.785 382.571L591.037 383.754ZM706.967 457.601L706.215 458.782L706.966 459.26L707.718 458.783L706.967 457.601ZM900.253 334.733L901.004 335.914L902.137 335.194L901.466 334.033L900.253 334.733ZM706.967 0L708.179 -0.700078L705.567 -5.2242V0H706.967ZM832.59 417.206H833.99V414.657L831.838 416.024L832.59 417.206ZM707.174 496.944L706.421 498.124L707.173 498.604L707.926 498.126L707.174 496.944ZM650.474 460.757L651.227 459.577L649.074 458.203V460.757H650.474ZM650.474 460.967L649.721 462.147L651.874 463.523V460.967H650.474ZM581.97 417.206L582.724 416.026L580.981 418.197L581.97 417.206ZM582.181 417.416L581.427 418.596L583.17 416.425L582.181 417.416ZM514.731 374.286L515.485 373.106L513.977 375.466L514.731 374.286ZM706.964 656H705.564V660.515L708.118 656.792L706.964 656ZM900.25 374.286L901.405 375.078L899.498 373.105L900.25 374.286ZM832.59 417.416H831.19V419.969L833.342 418.597L832.59 417.416ZM1146.24 353.458L1145.02 354.158L1146.23 356.255L1147.45 354.159L1146.24 353.458ZM1225.28 216.914L1226.49 217.615L1227.71 215.514H1225.28V216.914ZM1067.4 216.914V215.514H1064.98L1066.19 217.614L1067.4 216.914ZM1067.4 216.914L1068.61 216.214L1067.4 214.114L1066.19 216.214L1067.4 216.914ZM988.568 353.458L987.356 352.758L986.914 353.524L987.415 354.252L988.568 353.458ZM1146.23 353.458L1147.39 354.252L1147.89 353.524L1147.45 352.758L1146.23 353.458ZM1067.4 467.911L1066.25 468.705L1067.4 470.379L1068.55 468.705L1067.4 467.911ZM503.979 216.914L505.19 217.615L506.407 215.514H503.979V216.914ZM346.103 216.914V215.514H343.678L344.891 217.614L346.103 216.914ZM346.103 467.911L344.95 467.116L343.439 469.311H346.103V467.911ZM503.979 467.911V469.311H506.647L505.131 467.115L503.979 467.911ZM900.245 334.733L900.996 335.914L902.128 335.194L901.457 334.033L900.245 334.733ZM706.958 457.601H705.558V460.15L707.709 458.783L706.958 457.601ZM706.958 0L708.17 -0.700078L705.558 -5.2242V0H706.958ZM552.462 359.349L551.249 358.649L550.579 359.81L551.711 360.53L552.462 359.349ZM706.965 457.601L706.214 458.783L708.365 460.151V457.601H706.965ZM706.965 91.5204H708.365V86.2918L705.752 90.8208L706.965 91.5204ZM861.461 359.349L862.212 360.53L863.344 359.81L862.674 358.649L861.461 359.349ZM706.958 91.5204L708.17 90.8208L705.558 86.2918V91.5204H706.958ZM591.034 383.754L589.821 383.054L589.151 384.215L590.282 384.935L591.034 383.754ZM706.964 457.601L706.211 458.782L707.447 459.569L708.177 458.299L706.964 457.601ZM706.964 183.041H708.364V177.818L705.751 182.34L706.964 183.041ZM822.888 383.754L823.64 384.935L824.77 384.215L824.1 383.054L822.888 383.754ZM706.958 183.041V181.641H705.558V183.041H706.958ZM629.815 408.369L628.602 407.67L627.934 408.829L629.062 409.549L629.815 408.369ZM706.961 457.601L706.208 458.781L708.361 460.155V457.601H706.961ZM706.961 274.56H708.361V273.16H706.961V274.56ZM784.315 408.369L785.066 409.55L786.198 408.83L785.527 407.669L784.315 408.369ZM706.958 274.56V273.16H705.558V274.56H706.958ZM900.245 374.286L901.399 375.078L899.494 373.105L900.245 374.286ZM706.958 656H705.558V660.515L708.112 656.792L706.958 656ZM706.958 497.155L706.207 495.973L705.558 496.386V497.155H706.958ZM706.964 497.155H708.364V496.388L707.718 495.975L706.964 497.155ZM832.584 417.206L833.738 417.998L831.833 416.024L832.584 417.206ZM706.958 600.246H705.558V604.76L708.112 601.038L706.958 600.246ZM706.958 496.944L706.208 495.762L705.558 496.174V496.944H706.958ZM581.966 417.206L582.719 416.025L580.81 417.995L581.966 417.206ZM706.96 600.246L705.803 601.036L708.36 604.779V600.246H706.96ZM706.96 496.944H708.36V496.177L707.713 495.764L706.96 496.944ZM764.079 460.757L765.234 461.548L763.328 459.576L764.079 460.757ZM707.168 543.862H705.768V548.384L708.323 544.653L707.168 543.862ZM707.168 496.944L706.417 495.763L705.768 496.176V496.944H707.168ZM650.472 460.757L651.226 459.577L649.316 461.546L650.472 460.757ZM707.173 543.862L706.016 544.651L708.573 548.398V543.862H707.173ZM707.173 496.944H708.573V496.177L707.926 495.764L707.173 496.944ZM733.312 411.736L734.526 412.433L735.731 410.336H733.312V411.736ZM680.617 411.736V410.336H678.198L679.403 412.433L680.617 411.736ZM706.965 274.561L705.751 275.258L706.965 277.371L708.178 275.258L706.965 274.561ZM733.312 228.695L734.526 229.393L735.731 227.295H733.312V228.695ZM680.617 228.695V227.295H678.198L679.403 229.393L680.617 228.695ZM733.305 320.215L732.093 320.915L733.301 323.008L734.516 320.919L733.305 320.215ZM759.864 274.56L761.074 275.264L762.298 273.16H759.864V274.56ZM786.219 320.215L785.007 320.915L786.219 323.016L787.432 320.915L786.219 320.215ZM812.567 274.56L813.78 275.26L814.992 273.16H812.567V274.56ZM759.872 274.56V273.16H757.447L758.659 275.26L759.872 274.56ZM759.868 366.081L758.656 366.783L759.873 368.883L761.082 366.779L759.868 366.081ZM786.216 320.216L787.43 320.913L788.635 318.816H786.216V320.216ZM733.31 320.216V318.816H730.881L732.098 320.917L733.31 320.216ZM733.305 411.736L732.093 412.435L733.301 414.528L734.516 412.44L733.305 411.736ZM759.864 366.081L761.074 366.785L762.298 364.681H759.864V366.081ZM706.958 366.081V364.681H704.533L705.745 366.781L706.958 366.081ZM680.613 411.736L679.4 412.435L680.613 414.537L681.825 412.435L680.613 411.736ZM706.961 366.081L708.173 366.781L709.385 364.681H706.961V366.081ZM654.265 366.081V364.681H651.841L653.053 366.781L654.265 366.081ZM627.71 320.215L626.497 320.915L627.705 323.008L628.92 320.919L627.71 320.215ZM601.362 274.56V273.16H598.938L600.149 275.26L601.362 274.56ZM654.268 274.56L655.478 275.264L656.702 273.16H654.268V274.56ZM654.262 366.081L653.05 366.783L654.267 368.883L655.476 366.779L654.262 366.081ZM627.703 320.216V318.816H625.275L626.492 320.917L627.703 320.216ZM680.61 320.216L681.824 320.913L683.028 318.816H680.61V320.216ZM680.613 320.215L679.4 320.915L680.613 323.016L681.825 320.915L680.613 320.215ZM654.265 274.56V273.16H651.841L653.053 275.26L654.265 274.56ZM733.305 228.696L732.093 229.395L733.301 231.488L734.516 229.4L733.305 228.696ZM759.864 183.041L761.074 183.745L762.298 181.641H759.864V183.041ZM680.613 228.696L679.4 229.395L680.613 231.497L681.825 229.395L680.613 228.696ZM654.265 183.041V181.641H651.841L653.053 183.74L654.265 183.041ZM706.961 183.041L708.173 183.74L709.385 181.641H706.961V183.041ZM0 216.914V215.514H-1.4V216.914H0ZM0 467.911H-1.4V469.311H5.68307e-06L0 467.911ZM78.8324 342.517L77.6475 341.772L77.1778 342.518L77.648 343.264L78.8324 342.517ZM157.875 216.914L159.06 217.659L160.411 215.514H157.875V216.914ZM157.875 467.91V469.31H160.413L159.06 467.163L157.875 467.91ZM157.878 216.914L159.09 216.214L157.929 214.203L156.693 216.168L157.878 216.914ZM78.8345 342.517L77.6496 341.772L77.18 342.518L77.6502 343.264L78.8345 342.517ZM157.878 467.911L156.693 468.657L157.826 470.454L159.031 468.705L157.878 467.911ZM236.71 353.458L237.863 354.252L238.365 353.524L237.922 352.758L236.71 353.458ZM1407.39 461.598L1406.2 462.343L1406.2 462.348L1407.39 461.598ZM1407.39 223.225L1406.2 222.475L1406.2 222.482L1407.39 223.225ZM1407.39 223.225L1406.21 222.475L1406.2 222.482L1407.39 223.225ZM1332.56 342.517L1331.37 341.773L1330.91 342.518L1331.38 343.262L1332.56 342.517ZM1407.39 461.599L1406.2 462.344L1406.21 462.349L1407.39 461.599ZM1411.39 467.911L1410.21 468.661L1412.79 472.73V467.911H1411.39ZM1411.39 216.914H1412.79V212.094L1410.21 216.164L1411.39 216.914ZM987.414 354.252L1066.25 468.705L1068.55 467.117L989.72 352.664L987.414 354.252ZM1068.55 468.705L1147.38 354.252L1145.08 352.664L1066.25 467.117L1068.55 468.705ZM1147.44 354.159L1226.49 217.615L1224.06 216.212L1145.02 352.756L1147.44 354.159ZM1225.28 215.514H1067.4V218.314H1225.28V215.514ZM346.101 469.311H503.977V466.511H346.101V469.311ZM505.129 467.115L426.086 352.662L423.782 354.253L502.825 468.706L505.129 467.115ZM426.145 354.159L505.189 217.615L502.765 216.212L423.722 352.756L426.145 354.159ZM503.977 215.514H346.101V218.314H503.977V215.514ZM513.137 335.913L551.711 360.529L553.217 358.168L514.644 333.552L513.137 335.913ZM551.715 360.531L590.288 384.937L591.785 382.571L553.212 358.165L551.715 360.531ZM590.284 384.935L706.214 458.782L707.719 456.42L591.789 382.573L590.284 384.935ZM901.466 334.033L708.179 -0.700078L705.754 0.700078L899.041 335.433L901.466 334.033ZM831.838 416.024L706.423 495.763L707.926 498.126L833.341 418.387L831.838 416.024ZM707.928 495.764L651.227 459.577L649.721 461.937L706.421 498.124L707.928 495.764ZM649.074 460.757V460.967H651.874V460.757H649.074ZM651.228 459.787L582.724 416.026L581.216 418.386L649.721 462.147L651.228 459.787ZM580.981 418.197L581.192 418.407L583.17 416.425L582.959 416.215L580.981 418.197ZM582.935 416.237L515.485 373.107L513.977 375.466L581.427 418.596L582.935 416.237ZM708.118 656.792L901.405 375.078L899.096 373.494L705.809 655.208L708.118 656.792ZM899.498 373.105L831.837 416.236L833.342 418.597L901.003 375.467L899.498 373.105ZM833.99 417.416V417.206H831.19V417.416H833.99ZM989.78 354.158L1068.61 217.614L1066.19 216.214L987.355 352.758L989.78 354.158ZM1147.45 354.159L1226.49 217.615L1224.07 216.212L1145.02 352.756L1147.45 354.159ZM1225.28 215.514H1067.4V218.314H1225.28V215.514ZM1066.19 217.614L1145.02 354.158L1147.45 352.758L1068.62 216.214L1066.19 217.614ZM1066.19 216.214L987.356 352.758L989.781 354.158L1068.61 217.614L1066.19 216.214ZM1147.45 352.758L1068.61 216.214L1066.19 217.614L1145.02 354.158L1147.45 352.758ZM1068.55 468.705L1147.39 354.252L1145.08 352.664L1066.25 467.116L1068.55 468.705ZM987.415 354.252L1066.25 468.705L1068.55 467.116L989.721 352.664L987.415 354.252ZM426.147 354.159L505.19 217.615L502.767 216.212L423.724 352.756L426.147 354.159ZM503.979 215.514H346.103V218.314H503.979V215.514ZM344.891 217.614L423.723 354.158L426.148 352.758L347.316 216.214L344.891 217.614ZM426.146 352.758L347.314 216.214L344.889 217.614L423.721 354.158L426.146 352.758ZM347.254 468.705L426.087 354.252L423.781 352.664L344.948 467.117L347.254 468.705ZM423.783 352.664L344.95 467.116L347.256 468.705L426.089 354.252L423.783 352.664ZM346.103 469.311H503.979V466.511H346.103V469.311ZM505.131 467.115L426.088 352.662L423.784 354.253L502.827 468.706L505.131 467.115ZM513.139 335.914L706.215 458.782L707.718 456.42L514.642 333.551L513.139 335.914ZM708.367 457.601V0H705.567V457.601H708.367ZM899.494 333.551L706.207 456.42L707.709 458.783L900.996 335.914L899.494 333.551ZM708.358 457.601V0H705.558V457.601H708.358ZM705.745 0.700078L899.032 335.433L901.457 334.033L708.17 -0.700078L705.745 0.700078ZM551.711 360.53L706.214 458.783L707.716 456.42L553.213 358.167L551.711 360.53ZM708.365 457.601V91.5204H705.565V457.601H708.365ZM705.752 90.8208L551.249 358.649L553.675 360.048L708.178 92.22L705.752 90.8208ZM860.71 358.167L706.206 456.42L707.709 458.782L862.212 360.53L860.71 358.167ZM708.358 457.601V91.5204H705.558V457.601H708.358ZM705.745 92.22L860.248 360.048L862.674 358.649L708.17 90.8208L705.745 92.22ZM590.282 384.935L706.211 458.782L707.716 456.421L591.786 382.573L590.282 384.935ZM708.364 457.601V183.041H705.564V457.601H708.364ZM705.751 182.34L589.821 383.054L592.246 384.454L708.176 183.741L705.751 182.34ZM822.136 382.573L706.206 456.42L707.71 458.782L823.64 384.935L822.136 382.573ZM708.358 457.601V183.041H705.558V457.601H708.358ZM705.745 183.741L821.675 384.454L824.1 383.054L708.17 182.34L705.745 183.741ZM629.062 409.549L706.208 458.781L707.714 456.421L630.568 407.189L629.062 409.549ZM708.361 457.601V274.56H705.561V457.601H708.361ZM705.748 273.861L628.602 407.67L631.028 409.069L708.174 275.26L705.748 273.861ZM783.563 407.188L706.206 456.42L707.709 458.782L785.066 409.55L783.563 407.188ZM708.358 457.601V274.56H705.558V457.601H708.358ZM705.746 275.261L783.103 409.07L785.527 407.669L708.17 273.86L705.746 275.261ZM899.09 373.494L705.803 655.208L708.112 656.792L901.399 375.078L899.09 373.494ZM708.358 656V497.155H705.558V656H708.358ZM707.709 498.336L900.996 375.468L899.494 373.105L706.207 495.973L707.709 498.336ZM708.364 656L708.364 497.155H705.564L705.564 656H708.364ZM707.718 495.975L515.485 373.106L513.977 375.466L706.21 498.334L707.718 495.975ZM831.429 416.414L705.803 599.454L708.112 601.038L833.738 417.998L831.429 416.414ZM708.358 600.246V496.944H705.558V600.246H708.358ZM707.708 498.126L833.334 418.388L831.833 416.024L706.208 495.762L707.708 498.126ZM580.81 417.995L705.803 601.036L708.116 599.457L583.122 416.416L580.81 417.995ZM708.36 600.246V496.944H705.56V600.246H708.36ZM707.713 495.764L582.719 416.025L581.213 418.386L706.207 498.124L707.713 495.764ZM762.924 459.966L706.013 543.071L708.323 544.653L765.234 461.548L762.924 459.966ZM708.568 543.862V496.944H705.768V543.862H708.568ZM707.919 498.126L764.831 461.939L763.328 459.576L706.417 495.763L707.919 498.126ZM649.316 461.546L706.016 544.651L708.329 543.073L651.629 459.968L649.316 461.546ZM708.573 543.862V496.944H705.773V543.862H708.573ZM707.926 495.764L651.226 459.577L649.719 461.937L706.419 498.125L707.926 495.764ZM708.177 458.299L734.526 412.433L732.098 411.039L705.75 456.904L708.177 458.299ZM733.312 410.336H680.617V413.136H733.312V410.336ZM679.403 412.433L705.75 458.299L708.178 456.904L681.831 411.039L679.403 412.433ZM708.178 275.258L734.526 229.393L732.098 227.998L705.751 273.863L708.178 275.258ZM733.312 227.295H680.617V230.095H733.312V227.295ZM679.403 229.393L705.751 275.258L708.178 273.863L681.831 227.998L679.403 229.393ZM734.516 320.919L761.074 275.264L758.654 273.856L732.095 319.511L734.516 320.919ZM759.864 273.16H706.958V275.96H759.864V273.16ZM705.745 275.26L732.093 320.915L734.518 319.516L708.17 273.861L705.745 275.26ZM787.432 320.915L813.78 275.26L811.355 273.861L785.007 319.516L787.432 320.915ZM812.567 273.16H759.872V275.96H812.567V273.16ZM758.659 275.26L785.007 320.915L787.432 319.516L761.084 273.861L758.659 275.26ZM761.082 366.779L787.43 320.913L785.002 319.518L758.654 365.384L761.082 366.779ZM786.216 318.816H733.31V321.616H786.216V318.816ZM732.098 320.917L758.656 366.783L761.08 365.38L734.521 319.514L732.098 320.917ZM734.516 412.44L761.074 366.785L758.654 365.377L732.095 411.032L734.516 412.44ZM759.864 364.681H706.958V367.481H759.864V364.681ZM705.745 366.781L732.093 412.435L734.518 411.036L708.17 365.381L705.745 366.781ZM681.825 412.435L708.173 366.781L705.748 365.381L679.4 411.036L681.825 412.435ZM706.961 364.681H654.265V367.481H706.961V364.681ZM653.053 366.781L679.4 412.435L681.825 411.036L655.478 365.381L653.053 366.781ZM628.922 319.516L602.575 273.861L600.149 275.26L626.497 320.915L628.922 319.516ZM601.362 275.96H654.268V273.16H601.362V275.96ZM653.058 273.856L626.5 319.511L628.92 320.919L655.478 275.264L653.058 273.856ZM655.473 365.38L628.915 319.514L626.492 320.917L653.05 366.783L655.473 365.38ZM627.703 321.616H680.61V318.816H627.703V321.616ZM679.396 319.518L653.048 365.384L655.476 366.779L681.824 320.913L679.396 319.518ZM681.825 319.516L655.478 273.861L653.053 275.26L679.4 320.915L681.825 319.516ZM654.265 275.96H706.961V273.16H654.265V275.96ZM705.749 273.861L679.4 319.516L681.825 320.915L708.174 275.26L705.749 273.861ZM734.516 229.4L761.074 183.745L758.654 182.337L732.095 227.992L734.516 229.4ZM759.864 181.641H706.958V184.441H759.864V181.641ZM705.745 183.74L732.093 229.395L734.518 227.996L708.17 182.341L705.745 183.74ZM681.825 227.996L655.478 182.341L653.053 183.74L679.4 229.395L681.825 227.996ZM654.265 184.441H706.961V181.641H654.265V184.441ZM705.748 182.341L679.4 227.996L681.825 229.395L708.173 183.74L705.748 182.341ZM-1.4 216.914V467.911H1.4V216.914H-1.4ZM80.0173 343.263L159.06 217.659L156.691 216.168L77.6475 341.772L80.0173 343.263ZM159.06 467.163L80.0167 341.771L77.648 343.264L156.691 468.657L159.06 467.163ZM156.693 216.168L77.6496 341.772L80.0194 343.263L159.063 217.659L156.693 216.168ZM77.6502 343.264L156.693 468.657L159.062 467.164L80.0189 341.771L77.6502 343.264ZM159.031 468.705L237.863 354.252L235.557 352.664L156.725 467.117L159.031 468.705ZM237.922 352.758L159.09 216.214L156.665 217.614L235.498 354.158L237.922 352.758ZM1331.37 341.77L1252.33 467.164L1254.7 468.657L1333.74 343.263L1331.37 341.77ZM1412.57 467.161L1408.57 460.848L1406.2 462.348L1410.21 468.661L1412.57 467.161ZM1408.57 460.853L1333.74 341.772L1331.37 343.262L1406.2 462.343L1408.57 460.853ZM1252.33 217.659L1331.37 343.262L1333.74 341.771L1254.7 216.168L1252.33 217.659ZM1333.74 343.261L1408.57 223.969L1406.2 222.482L1331.37 341.773L1333.74 343.261ZM1408.57 223.976L1412.57 217.664L1410.21 216.164L1406.2 222.475L1408.57 223.976ZM1406.2 222.482L1331.37 341.773L1333.75 343.261L1408.57 223.969L1406.2 222.482ZM1331.38 343.262L1406.2 462.344L1408.57 460.854L1333.75 341.773L1331.38 343.262ZM1406.21 462.349L1410.21 468.661L1412.57 467.161L1408.57 460.849L1406.21 462.349ZM1412.79 467.911V216.914H1409.99V467.911H1412.79ZM1410.21 216.164L1406.21 222.475L1408.57 223.976L1412.57 217.664L1410.21 216.164ZM707.718 458.783L901.004 335.914L899.502 333.551L706.216 456.42L707.718 458.783ZM157.875 215.514H0V218.314H157.875V215.514ZM5.68307e-06 469.311L157.875 469.31V466.51L-5.68307e-06 466.511L5.68307e-06 469.311Z" fill="black" mask="url(#path-1-inside-1)"/>
</svg>
