<svg width="101" height="130" viewBox="0 0 101 130" fill="none" xmlns="http://www.w3.org/2000/svg">
<g opacity="0.4" filter="url(#filter0_f)">
<path d="M50.5309 112C68.0889 112 82.3225 108.386 82.3225 103.927C82.3225 99.4684 68.0889 95.854 50.5309 95.854C32.9729 95.854 18.7393 99.4684 18.7393 103.927C18.7393 108.386 32.9729 112 50.5309 112Z" fill="black"/>
</g>
<path d="M18.5721 29.8981C18.5721 32.5686 20.9955 37.6626 20.9955 37.6626C20.9955 37.6626 40.063 86.6252 47.1934 97.4444C48.9595 100.123 52.5013 100.722 54.2853 98.6282C61.6795 89.9436 89.9997 59.9517 89.9997 37.462C89.9997 18.9036 73.7339 1.59627 54.3308 0.0913401C35.6195 -1.36029 18.5721 14.7507 18.5721 29.8981Z" fill="url(#paint0_linear)"/>
<path d="M16 36.2177C16 58.0847 36.3917 84.2351 45.8599 98.0865C47.6259 100.775 51.1677 101.391 52.9517 99.3039C61.8896 88.8508 85.0636 60.1633 85.0636 44.2122C85.0636 24.3046 68.7978 6.82611 49.3947 5.22441C30.6835 3.68161 16 17.5794 16 36.2177Z" fill="url(#paint1_linear)"/>
<path opacity="0.5" d="M21.9844 36.3134C21.9844 52.8297 41.0229 79.4429 47.7156 89.7389C48.5345 91.0475 50.2549 91.3266 51.0779 90.2845C57.3081 82.4023 78.317 56.5324 78.317 42.8015C78.317 26.6597 65.1731 12.4169 49.3947 11.0284C34.0774 9.67917 21.9844 21.0159 21.9844 36.3134ZM36.73 40.0848C36.73 33.0174 42.3609 27.8785 49.3933 28.6149C56.521 29.3624 62.3701 35.8463 62.3701 43.0891C62.3701 50.3318 56.521 55.4454 49.3933 54.5226C42.3623 53.6123 36.73 47.1536 36.73 40.0848Z" fill="white"/>
<path d="M47.0929 52.3021C53.7843 54.5251 60.8982 51.626 62.4019 44.7957C62.3798 44.9471 62.3701 45.0986 62.3411 45.2501C61.0321 52.3652 53.6186 56.26 46.7836 53.9781C40.0398 51.727 35.6751 44.295 36.9523 37.351C36.9799 37.2037 37.0227 37.0663 37.0531 36.9204C36.0355 43.7325 40.4886 50.1085 47.0929 52.3021Z" fill="url(#paint2_linear)"/>
<defs>
<filter id="filter0_f" x="0.739258" y="77.854" width="99.5832" height="52.146" filterUnits="userSpaceOnUse" color-interpolation-filters="sRGB">
<feFlood flood-opacity="0" result="BackgroundImageFix"/>
<feBlend mode="normal" in="SourceGraphic" in2="BackgroundImageFix" result="shape"/>
<feGaussianBlur stdDeviation="9" result="effect1_foregroundBlur"/>
</filter>
<linearGradient id="paint0_linear" x1="19.783" y1="49.9355" x2="90.5557" y2="45.6272" gradientUnits="userSpaceOnUse">
<stop stop-color="#E45266"/>
<stop offset="1" stop-color="#AF3D4E"/>
</linearGradient>
<linearGradient id="paint1_linear" x1="16.9435" y1="52.8203" x2="85.4019" y2="48.6528" gradientUnits="userSpaceOnUse">
<stop stop-color="#E88269"/>
<stop offset="1" stop-color="#E45266"/>
</linearGradient>
<linearGradient id="paint2_linear" x1="61.3577" y1="50.4928" x2="35.3999" y2="45.6335" gradientUnits="userSpaceOnUse">
<stop stop-color="#E45266"/>
<stop offset="1" stop-color="#AF3D4E"/>
</linearGradient>
</defs>
</svg>
