<svg width="3710" height="770" viewBox="0 0 3710 770" fill="none" xmlns="http://www.w3.org/2000/svg">
<path d="M450.933 762H8V726.5C8 706 410.053 591.277 827.622 591.277C959.375 591.277 1199.77 576.431 1297.35 558.541C1383.58 542.732 1437.76 525.393 1437.76 498.456C1437.76 457.618 1285.89 427.067 1219.06 413.069C1144.03 397.348 1000.08 382.502 1000.08 329.145C1000.08 272.535 1212.56 261.775 1328.24 249.318C1377.88 243.972 1429.21 238.446 1466.53 229.181C1514.82 217.195 1518.57 196.106 1518.57 192.358C1518.57 159.742 1440.88 152.244 1369.51 139.656C1289.97 125.627 1091.99 112.971 1091.99 70.0284C1091.99 35.7511 1216.17 27.4385 1326.85 17.0876C1413.94 8.94139 1583.28 8 1659.01 8C1719.31 8 1936.92 13.6592 2034.21 22.7097C2191.1 37.3055 2310.81 48.7575 2310.81 85.0008C2310.81 129.068 2213.23 138.125 2141.75 147.717C2117.96 150.906 2096 153.323 2073.24 155.007C2053.77 156.45 2003.04 159.02 2002.19 168.291C2001.34 177.749 2027.17 185.766 2055.8 191.574C2092.88 199.096 2133.22 204.276 2170.33 210.26C2259.92 224.7 2414.69 232.393 2411.78 274.827C2407.98 330.448 2268.5 345.541 2188.08 361.516C2145.59 369.96 2101.65 378.691 2069.23 393.109C2026.47 412.125 2021.53 433.589 2021.53 448.079C2021.53 472.759 2055.13 517.628 2280.17 540.816C2430.2 556.275 2516.35 556.275 2633.99 556.275C2759.18 556.275 2915.46 545.933 3032.37 529.929C3239.61 501.556 3246.57 468.468 3246.58 468.139C3247.02 456.015 3229 443.182 3195.84 432.004C3159.33 419.693 3108.53 410.485 3059.41 401.577C2942.89 380.448 2710.19 373.15 2710.19 311.896C2710.19 267.025 2864.33 253.535 2918.54 249.925C3103.97 237.577 3225.48 235.821 3336.01 232.003C3521.39 225.6 3618.53 209.83 3663.66 189.466C3677.92 181.74 3684.47 30.2167 3689.55 16.976C3693.29 72.0951 3707.09 149.043 3700.01 192.378C3694.89 223.769 3454.54 247.764 3165.78 259.03C3097.68 261.688 3054.25 263.369 2953.48 275.322C2875.25 284.603 2870.14 305.716 2870.14 311.721C2870.14 324.846 2890.16 339.212 2926.33 347.734C2988.21 362.317 3073.52 368.154 3153.88 378.213C3270.46 392.809 3406.28 408.813 3404.09 469.359C3403.21 493.559 3330.82 530.085 3233.94 552.976C3193.85 562.449 3105.56 576.504 3036.35 585.977C2916.42 602.396 2762.34 612.596 2634.23 612.596C2515.75 612.596 2367.86 604.023 2183.6 583.264C1988.52 561.286 1814.74 513.07 1814.74 448.079C1814.74 367.954 2000.46 344.753 2090.73 329.894C2177.17 315.668 2232.65 316.437 2232.65 280.034C2231.67 278.516 2218.75 264.194 2186.08 255.66C2160.63 249.014 2127.02 243.598 2094.51 238.359C2001.42 223.356 1826.33 211.505 1826.33 167.326C1826.33 131.82 1980.63 124.747 2047.4 115.788C2077.28 111.778 2108.19 107.633 2130.9 101.015C2153.59 94.4037 2159.59 87.6476 2159.59 84.9964C2159.59 84.7556 2156.07 60.5073 2030.38 43.9061C1935.13 31.3288 1718.6 29.4504 1659.02 29.4504C1586.97 29.4504 1481.41 30.2998 1396.76 37.6382C1267.02 48.8867 1258.51 69.4198 1258.21 70.2889C1258.25 73.008 1264.35 80.1428 1287.2 87.9519C1310.16 95.796 1341.62 101.711 1374.93 107.973C1460.65 124.084 1680.86 147.546 1680.86 192.354C1680.86 249.933 1448.31 268.739 1331.39 281.33C1282.22 286.623 1231.38 292.096 1194.53 301.193C1147.06 312.908 1143.37 325.546 1143.37 329.139C1143.37 356.108 1207.77 369.601 1264.59 381.502C1302.93 389.534 1372.58 404.02 1405.15 411.357C1503.35 433.481 1651.36 453.128 1651.36 498.45C1651.36 547.842 1581.34 572.784 1455.64 598.917C1358.17 619.179 1280.91 622.397 1129.72 631.844C920.4 644.925 757.302 654.142 612.7 686.114C532.044 703.954 438.335 762 450.933 762Z" fill="url(#paint0_linear)"/>
<path d="M4 762V766H8H450.933V762V759.499C451.25 759.157 451.632 758.783 452.075 758.378C452.501 758.626 452.992 759.045 453.349 759.69C453.707 760.336 453.801 760.979 453.785 761.474C453.77 761.939 453.66 762.273 453.599 762.43C453.588 762.459 453.577 762.485 453.567 762.509C453.547 762.556 453.529 762.592 453.516 762.616C453.498 762.652 453.486 762.672 453.483 762.676L453.483 762.676C453.482 762.677 453.509 762.635 453.58 762.546C453.65 762.459 453.749 762.344 453.883 762.201C455.079 760.919 457.708 758.789 461.827 755.942C469.924 750.343 482.826 742.614 498.704 734.29C530.479 717.631 573.719 698.833 613.564 690.019C752.136 659.38 907.795 649.681 1105.55 637.359C1113.62 636.857 1121.76 636.349 1129.97 635.836C1144.59 634.923 1158.51 634.068 1171.84 633.25C1296.24 625.612 1368.1 621.2 1456.45 602.834C1519.3 589.769 1568.65 576.924 1602.35 561.023C1635.96 545.159 1655.36 525.557 1655.36 498.45C1655.36 484.731 1644.21 473.984 1628.64 465.336C1612.79 456.531 1590.84 449.035 1566.13 442.343C1534.89 433.886 1498.57 426.554 1463.76 419.527C1443.58 415.454 1423.91 411.483 1406.03 407.454L1405.15 411.357L1406.03 407.454C1377.79 401.093 1321.73 389.369 1282.33 381.128C1276.24 379.853 1270.54 378.662 1265.41 377.587C1236.92 371.618 1206.91 365.324 1184.01 357.201C1172.55 353.135 1163.18 348.712 1156.74 343.836C1150.29 338.951 1147.37 334.091 1147.37 329.139C1147.37 328.943 1147.39 325.968 1153.53 321.427C1159.77 316.808 1171.97 310.879 1195.49 305.076L1194.53 301.193L1195.49 305.076C1232.01 296.059 1282.55 290.611 1331.81 285.307C1341.6 284.253 1352.2 283.155 1363.42 281.993C1419.12 276.226 1489.98 268.889 1550.7 257.646C1587.15 250.896 1620.22 242.691 1644.26 232.458C1656.27 227.346 1666.28 221.625 1673.34 215.138C1680.44 208.624 1684.86 201.04 1684.86 192.354C1684.86 184.977 1680.32 178.683 1673.73 173.403C1667.09 168.081 1657.73 163.251 1646.59 158.815C1624.26 149.926 1593.77 142.234 1560.84 135.483C1527.86 128.723 1492.22 122.868 1459.52 117.702C1452.57 116.604 1445.76 115.538 1439.13 114.501C1414.52 110.65 1392.49 107.204 1375.67 104.042C1342.25 97.76 1311.11 91.8968 1288.5 84.1668L1287.2 87.9519L1288.5 84.1667C1277.28 80.3354 1270.43 76.7498 1266.46 73.9451C1264.6 72.6321 1263.46 71.5484 1262.8 70.7647C1264.47 69.1226 1268.97 65.7153 1280.3 61.6174C1298.21 55.1418 1332.37 47.2353 1397.1 41.6233C1481.56 34.3016 1586.97 33.4504 1659.02 33.4504C1718.68 33.4504 1934.93 35.3362 2029.86 47.8717C2092.53 56.1502 2124.33 66.2906 2140.35 74.1751C2148.34 78.108 2152.24 81.4012 2154.09 83.4743C2154.67 84.1288 2155.05 84.6571 2155.29 85.0424C2155.27 85.0737 2155.24 85.1064 2155.21 85.1405C2154.62 85.8528 2153.5 86.8993 2151.56 88.1772C2147.67 90.7301 2140.91 93.9337 2129.78 97.175L2130.9 101.015L2129.78 97.175C2107.42 103.69 2076.86 107.799 2046.86 111.824C2033.79 113.578 2017.34 115.26 1999.27 117.107C1994.38 117.607 1989.37 118.12 1984.27 118.649C1960.41 121.127 1934.78 123.97 1911.21 127.65C1887.69 131.322 1865.99 135.863 1850.08 141.807C1842.15 144.773 1835.38 148.185 1830.54 152.206C1825.67 156.247 1822.33 161.265 1822.33 167.326C1822.33 174.317 1825.83 180.326 1831.32 185.388C1836.78 190.414 1844.45 194.775 1853.59 198.637C1871.87 206.37 1897.02 212.524 1924.78 217.715C1952.6 222.917 1983.3 227.197 2012.81 231.109C2018.62 231.878 2024.37 232.632 2030.05 233.377C2053.29 236.425 2075.23 239.303 2093.88 242.308C2126.45 247.557 2159.85 252.943 2185.07 259.531C2200.99 263.69 2211.99 269.231 2219.07 273.831C2222.61 276.134 2225.16 278.202 2226.86 279.746C2227.65 280.463 2228.22 281.039 2228.61 281.452C2228.28 288.589 2225.4 293.819 2220.12 298.064C2214.26 302.777 2205.32 306.369 2193.14 309.399C2181.02 312.412 2166.17 314.763 2148.8 317.262C2144.73 317.848 2140.52 318.442 2136.18 319.054C2122.09 321.042 2106.65 323.221 2090.09 325.947C2083.51 327.03 2076.4 328.159 2068.89 329.354C2025.06 336.323 1967.26 345.514 1917.71 360.687C1888.69 369.572 1862.17 380.605 1842.81 394.664C1823.44 408.741 1810.74 426.27 1810.74 448.079C1810.74 466.256 1822.88 482.497 1842.59 496.769C1862.4 511.112 1890.65 524.073 1924.73 535.591C1992.94 558.644 2085.47 576.234 2183.15 587.239C2367.52 608.01 2515.57 616.596 2634.23 616.596C2762.51 616.596 2916.78 606.385 3036.9 589.94C3106.09 580.468 3194.56 566.391 3234.86 556.869C3283.51 545.373 3326.14 530.429 3356.79 515.243C3372.11 507.658 3384.58 499.939 3393.36 492.458C3401.91 485.158 3407.81 477.358 3408.09 469.504C3408.7 452.572 3399.55 439.092 3384.65 428.379C3369.83 417.725 3348.88 409.441 3324.59 402.7C3277.58 389.652 3216.69 382.037 3160.1 374.96L3154.37 374.244C3130.33 371.234 3105.93 368.609 3081.89 366.022C3025.2 359.921 2970.51 354.036 2927.25 343.841C2909.44 339.645 2895.88 334.068 2886.88 328.117C2877.67 322.033 2874.14 316.205 2874.14 311.721C2874.14 310.21 2874.61 304.633 2884.65 298.103C2894.95 291.407 2915.07 283.907 2953.95 279.294C3054.4 267.38 3097.74 265.688 3165.57 263.041L3165.94 263.027C3310.36 257.392 3442.76 248.572 3539.73 237.224C3588.19 231.552 3627.93 225.235 3655.94 218.335C3669.92 214.891 3681.17 211.256 3689.17 207.394C3693.16 205.465 3696.52 203.4 3699.02 201.147C3701.5 198.91 3703.44 196.216 3703.96 193.022C3707.59 170.776 3705.85 140.218 3702.82 108.713C3701.64 96.4849 3700.27 84.121 3698.93 71.9689C3696.78 52.5317 3694.69 33.6365 3693.54 16.7053L3685.81 15.5433C3685.35 16.7542 3684.97 18.4486 3684.64 20.3028C3684.29 22.2364 3683.94 24.6214 3683.59 27.3656C3682.89 32.8573 3682.16 39.9452 3681.38 48.0456C3680.77 54.4542 3680.13 61.4894 3679.45 68.9017C3678.42 80.3084 3677.3 92.608 3676.07 104.891C3674.04 125.13 3671.74 145.085 3669.07 160.431C3667.73 168.119 3666.32 174.518 3664.84 179.172C3664.11 181.506 3663.39 183.27 3662.73 184.496C3662.19 185.488 3661.83 185.852 3661.74 185.942C3639.69 195.837 3604.65 204.765 3551.88 212.007C3498.97 219.27 3428.49 224.806 3335.87 228.006C3312.03 228.829 3287.67 229.557 3262.26 230.316C3169.94 233.074 3063.75 236.246 2918.27 245.933C2891.13 247.741 2838.82 252.029 2793.22 261.521C2770.46 266.26 2749.1 272.349 2733.33 280.211C2717.92 287.9 2706.19 298.149 2706.19 311.896C2706.19 320.975 2710.55 328.783 2717.7 335.404C2724.79 341.972 2734.83 347.584 2746.86 352.483C2770.93 362.288 2804.03 369.659 2840.45 375.729C2876.4 381.722 2915.89 386.489 2953.58 391.039L2955.21 391.236C2993.44 395.853 3029.71 400.256 3058.69 405.513C3107.92 414.44 3158.39 423.598 3194.56 435.794C3210.97 441.325 3223.35 447.178 3231.49 452.975C3239.44 458.632 3242.44 463.563 3242.59 467.422C3242.55 467.491 3242.5 467.571 3242.45 467.664C3242.08 468.28 3241.25 469.422 3239.54 471.003C3236.09 474.184 3229.18 479.02 3215.61 484.842C3188.45 496.492 3135.31 511.798 3031.83 525.966C2915.11 541.944 2759.01 552.275 2633.99 552.275C2516.39 552.275 2430.41 552.274 2280.58 536.838C2168.2 525.258 2104.08 508.299 2068.16 491.388C2032.24 474.472 2025.53 458.15 2025.53 448.079C2025.53 441.363 2026.66 433.248 2032.64 424.56C2038.68 415.798 2049.91 406.079 2070.86 396.764C2102.78 382.566 2146.23 373.912 2188.86 365.439C2200.74 363.081 2213.99 360.728 2227.95 358.249C2260.87 352.405 2297.73 345.86 2329.74 336.89C2352.57 330.493 2373.32 322.767 2388.69 312.963C2404.02 303.182 2414.7 290.85 2415.78 275.1C2416.23 268.416 2413.52 262.6 2408.8 257.691C2404.17 252.864 2397.48 248.771 2389.51 245.214C2373.55 238.095 2351.28 232.637 2326.46 228.111C2301.58 223.572 2273.82 219.919 2246.76 216.504C2242.96 216.024 2239.16 215.548 2235.39 215.075C2212.33 212.183 2190.15 209.401 2170.97 206.31C2159.28 204.425 2147.31 202.626 2135.25 200.813C2108.84 196.842 2081.98 192.804 2056.6 187.654C2042.34 184.763 2029 181.362 2019.4 177.58C2014.58 175.678 2010.96 173.778 2008.66 171.964C2006.78 170.475 2006.3 169.476 2006.2 168.963C2006.32 168.854 2006.52 168.695 2006.84 168.491C2007.89 167.818 2009.62 167.077 2012.07 166.336C2016.93 164.866 2023.69 163.664 2031.25 162.68C2043.52 161.082 2057.31 160.128 2067.33 159.435C2069.62 159.276 2071.71 159.132 2073.54 158.996C2096.39 157.305 2118.43 154.879 2142.28 151.681L2141.75 147.717L2142.28 151.681C2147.68 150.957 2153.24 150.234 2158.91 149.497C2190.57 145.382 2225.58 140.833 2254.12 133.15C2270.94 128.622 2285.91 122.912 2296.74 115.318C2307.65 107.669 2314.81 97.7643 2314.81 85.0008C2314.81 73.3827 2305.2 64.89 2291.35 58.4072C2277.2 51.7861 2256.92 46.4284 2232.07 41.8049C2182.32 32.5459 2112.96 26.018 2034.58 18.7268C1937.11 9.65979 1719.36 4 1659.01 4C1583.34 4 1413.8 4.93772 1326.48 13.105C1317.59 13.9368 1308.6 14.756 1299.58 15.5774C1252.63 19.8559 1205.06 24.1912 1167.24 30.6426C1144.73 34.4832 1125.36 39.1213 1111.54 45.0778C1104.63 48.0541 1098.85 51.4658 1094.75 55.4754C1090.58 59.5423 1087.99 64.395 1087.99 70.0284C1087.99 77.1022 1092.1 83.0245 1098.14 87.8898C1104.19 92.76 1112.69 97.0107 1122.76 100.795C1142.93 108.379 1170.47 114.475 1200.24 119.626C1230.05 124.786 1262.34 129.035 1292.08 132.864C1294.52 133.178 1296.94 133.489 1299.33 133.797C1326.27 137.259 1350.66 140.393 1368.81 143.595C1378.88 145.37 1389.01 147.037 1399.01 148.68C1424.73 152.909 1449.52 156.986 1469.78 162.363C1483.83 166.094 1495.27 170.352 1503.13 175.482C1510.94 180.584 1514.57 186.094 1514.57 192.358C1514.57 193.618 1512.79 213.577 1465.56 225.299C1428.57 234.484 1377.55 239.984 1327.81 245.341C1311.58 247.089 1293.38 248.808 1274.1 250.629C1224.95 255.271 1168.77 260.579 1120.12 268.729C1086.26 274.403 1055.71 281.504 1033.54 290.856C1022.46 295.529 1013.21 300.868 1006.68 307.073C1000.1 313.329 996.083 320.672 996.083 329.145C996.083 344.555 1006.53 356.541 1021.63 365.952C1036.8 375.406 1057.59 382.877 1080.39 389.08C1110.42 397.252 1144.75 403.415 1175.28 408.894C1190.97 411.711 1205.66 414.347 1218.24 416.984L1219.06 413.069L1218.24 416.984C1220.12 417.376 1222.05 417.781 1224.05 418.198C1257.78 425.247 1308.76 435.899 1352.28 449.515C1375.35 456.734 1396.09 464.715 1410.99 473.318C1418.44 477.622 1424.24 481.974 1428.13 486.309C1432.01 490.634 1433.76 494.667 1433.76 498.456C1433.76 503.679 1431.18 508.804 1425.3 513.984C1419.37 519.207 1410.39 524.19 1398.41 528.955C1374.48 538.476 1339.72 546.707 1296.63 554.606C1199.4 572.433 959.277 587.277 827.622 587.277C618.501 587.277 413.319 616 260.421 647.282C183.97 662.923 120.534 679.216 76.1664 692.901C53.9981 699.738 36.5061 705.95 24.5057 711.132C18.5269 713.713 13.7694 716.099 10.4481 718.242C8.79956 719.306 7.34618 720.411 6.25919 721.561C5.28205 722.594 4 724.29 4 726.5V762ZM3242.59 467.998C3242.59 467.992 3242.59 467.986 3242.59 467.98C3242.59 467.985 3242.59 467.99 3242.59 467.994L3242.59 467.998Z" stroke="#C5C5C5" stroke-opacity="0.2" stroke-width="8"/>
<defs>
<linearGradient id="paint0_linear" x1="1797.5" y1="-32.5" x2="134" y2="925.5" gradientUnits="userSpaceOnUse">
<stop stop-color="#89CCD5"/>
<stop offset="1" stop-color="#ECE4B4"/>
</linearGradient>
</defs>
</svg>
