<svg width="279" height="445" viewBox="0 0 279 445" fill="none" xmlns="http://www.w3.org/2000/svg">
<path d="M139.459 0L0.517578 241.159L139.459 444.077L278.396 241.159L139.459 0ZM139.459 414.536L20.2258 240.397L139.459 33.4348L258.688 240.391L139.459 414.536Z" fill="#2F354B"/>
<path d="M86.9451 130.202V169.696H118.549V186.936H86.9451V226.429H118.549V270.79L92.5314 315.952L138.508 383.105L184.49 315.958L158.127 270.195V130.202H86.9451ZM171.347 315.446L138.508 363.406L105.674 315.44L129.677 273.766V215.308H98.0733V198.068H129.677V158.575H98.0733V141.334H146.993V273.177L171.347 315.446Z" fill="#2F354B"/>
<path d="M173.651 279.512H207.709V226.239C213.323 221.343 216.601 214.244 216.601 206.717C216.601 192.431 204.971 180.804 190.683 180.804C176.394 180.804 164.765 192.425 164.765 206.717C164.765 214.25 168.042 221.343 173.657 226.239V279.512H173.651ZM190.683 191.936C198.84 191.936 205.472 198.567 205.472 206.723C205.472 211.602 203.052 216.169 199.007 218.94L196.581 220.592V268.391H184.779V220.592L182.353 218.94C178.303 216.169 175.888 211.602 175.888 206.723C175.888 198.567 182.526 191.936 190.683 191.936Z" fill="#2F354B"/>
</svg>
