<svg width="770" height="1230" viewBox="0 0 770 1230" fill="none" xmlns="http://www.w3.org/2000/svg">
<path d="M385.859 92.1081L384.992 90.6048L384.126 92.1082L283.214 267.215L282.35 268.714H284.08H485.92H487.65L486.786 267.215L385.859 92.1081ZM239.984 935.476H238.087L239.159 937.041L267.189 977.967L267.487 978.402H268.014H501.97H502.497L502.795 977.967L530.825 937.041L531.897 935.476H530H239.984ZM384.167 1148.74L384.992 1149.95L385.817 1148.74L481.672 1008.78L482.744 1007.22H480.847H289.122H287.225L288.297 1008.78L384.167 1148.74ZM551.108 906.658H551.635L551.933 906.223L716.214 666.415L716.569 665.895L716.255 665.35L504.548 298.033L504.259 297.532H503.682H266.318H265.741L265.452 298.033L53.7448 665.35L53.4306 665.895L53.7862 666.415L218.052 906.223L218.35 906.658H218.877H551.108ZM237.36 541.998L238.132 541.709L237.995 540.896C236.676 533.063 235.835 525.092 235.835 516.916C235.835 436.881 300.991 371.763 381.076 371.763C461.162 371.763 526.318 436.881 526.318 516.916C526.318 525.092 525.477 533.078 524.158 540.896L524.021 541.709L524.793 541.998C579.893 562.645 619.274 615.659 619.274 677.832C619.274 757.867 554.118 822.985 474.033 822.985C438.997 822.985 406.827 810.529 381.713 789.807L381.076 789.282L380.44 789.807C355.326 810.529 323.156 822.985 288.12 822.985C208.035 822.985 142.879 757.867 142.879 677.832C142.879 615.659 182.259 562.645 237.36 541.998ZM495.012 534.363L496.004 534.506L496.145 533.515C496.92 528.094 497.466 522.589 497.466 516.916C497.466 452.771 445.243 400.581 381.061 400.581C316.878 400.581 264.656 452.771 264.656 516.916C264.656 522.589 265.201 528.109 265.976 533.515L266.119 534.508L267.112 534.362C274.004 533.35 280.968 532.663 288.105 532.663C323.14 532.663 355.311 545.119 380.424 565.841L381.061 566.366L381.697 565.841C406.811 545.119 438.982 532.663 474.017 532.663C481.153 532.663 488.117 533.365 495.012 534.363ZM380.271 746.485L381.076 747.581L381.882 746.485C396.047 727.216 404.525 703.527 404.525 677.832C404.525 672.175 403.979 666.654 403.205 661.233L403.063 660.24L402.069 660.385C395.177 661.398 388.213 662.085 381.076 662.085C373.941 662.085 366.977 661.383 360.081 660.385L359.09 660.242L358.948 661.233C358.173 666.654 357.627 672.159 357.627 677.832C357.627 703.527 366.105 727.216 380.271 746.485ZM367.503 631.141L366.953 632.392L368.311 632.537C372.501 632.987 376.747 633.267 381.076 633.267C385.39 633.267 389.651 632.987 393.841 632.537L395.2 632.392L394.65 631.141C391.211 623.318 386.886 615.997 381.882 609.193L381.075 608.097L380.27 609.195C375.282 615.996 370.942 623.317 367.503 631.141ZM337.841 624.859L338.771 625.232L339.142 624.302C344.41 611.125 351.515 598.898 360.197 587.973L360.821 587.187L360.033 586.565C340.207 570.932 315.261 561.511 288.105 561.511C283.777 561.511 279.531 561.776 275.336 562.242L273.982 562.392L274.531 563.639C286.771 591.429 309.568 613.513 337.841 624.859ZM402.104 586.534L401.317 587.155L401.94 587.941C410.622 598.898 417.743 611.126 422.995 624.271L423.366 625.201L424.296 624.828C452.569 613.483 475.367 591.398 487.606 563.608L488.157 562.356L486.798 562.21C482.607 561.761 478.362 561.481 474.033 561.481C446.877 561.481 421.93 570.901 402.104 586.534ZM246.186 570.462L245.815 569.531L244.885 569.904C202.06 587.092 171.699 628.946 171.699 677.832C171.699 741.992 223.922 794.183 288.105 794.183C315.261 794.183 340.207 784.762 360.033 769.129L360.82 768.508L360.197 767.722C340.58 742.974 328.776 711.772 328.776 677.832C328.776 669.657 329.632 661.686 330.936 653.85L331.071 653.038L330.3 652.749C291.972 638.394 261.315 608.383 246.186 570.462ZM401.94 767.707L401.317 768.492L402.104 769.113C421.93 784.747 446.877 794.167 474.033 794.167C538.215 794.167 590.438 741.977 590.438 677.832C590.438 628.946 560.077 587.092 517.253 569.889L516.322 569.515L515.951 570.446C500.822 608.367 470.165 638.379 431.837 652.734L431.065 653.023L431.201 653.836C432.521 661.67 433.362 669.641 433.362 677.816C433.362 711.772 421.557 742.959 401.94 767.707ZM385.008 1228.23L1.18068 667.914L384.992 2.0025L768.819 667.914L385.008 1228.23Z" stroke="white" stroke-width="2"/>
</svg>
