<svg width="279" height="445" viewBox="0 0 279 445" fill="none" xmlns="http://www.w3.org/2000/svg">
<path d="M272.993 232.069L153.759 25.1067L139.298 0L124.832 25.1067L5.59786 232.063L0.356445 241.159L6.28781 249.821L125.521 423.96L139.298 444.077L153.075 423.96L272.303 249.821L278.234 241.159L272.993 232.069ZM139.298 414.536L20.0646 240.397L139.298 33.4348L258.526 240.391L139.298 414.536Z" fill="#2F354B"/>
<path d="M109.97 141.827C109.97 157.993 123.123 171.145 139.293 171.145C155.462 171.145 168.621 157.993 168.621 141.827C168.621 125.66 155.468 112.509 139.293 112.509C123.129 112.509 109.97 125.666 109.97 141.827ZM157.487 141.827C157.487 151.857 149.325 160.018 139.287 160.018C129.255 160.018 121.092 151.857 121.092 141.827C121.092 131.796 129.255 123.635 139.287 123.635C149.33 123.635 157.487 131.796 157.487 141.827Z" fill="#2F354B"/>
<path d="M95.3472 202.28H133.729V222.279H95.3472V233.406H133.729V253.405H95.3472V264.532H133.729V284.537H95.3472V295.664H133.729V359.039H144.857V295.664H183.238V284.537H144.857V264.532H183.238V253.405H144.857V233.406H183.238V222.279H144.857V202.28H183.238V191.153H95.3472V202.28Z" fill="#2F354B"/>
</svg>
