<svg width="771" height="1230" viewBox="0 0 771 1230" fill="none" xmlns="http://www.w3.org/2000/svg">
<path d="M384.748 1148.74L385.573 1149.95L386.398 1148.74L716.779 666.399L717.135 665.88L716.82 665.335L386.44 92.1081L385.573 90.6049L384.707 92.1081L54.3103 665.35L53.996 665.895L54.3517 666.414L384.748 1148.74ZM371.14 560.272V559.272H370.14H264.785V530.454H506.331V559.272H400.976H399.976V560.272V615.667V616.667H400.976H506.331V645.485H400.976H399.976V646.485V701.88V702.88H400.976H506.331V731.698H400.976H399.976V732.698V788.108V789.108H400.976H506.331V817.926H400.976H399.976V818.926V993.464H371.14V818.926V817.926H370.14H264.785V789.108H370.14H371.14V788.108V732.698V731.698H370.14H264.785V702.88H370.14H371.14V701.88V646.485V645.485H370.14H264.785V616.667H370.14H371.14V615.667V560.272ZM1.74611 667.914L385.573 2.00253L769.385 667.914L385.573 1228.23L1.74611 667.914ZM385.557 473.035C341.304 473.035 305.303 437.055 305.303 392.83C305.303 348.62 341.319 312.625 385.557 312.625C429.826 312.625 465.827 348.605 465.827 392.83C465.827 437.055 429.811 473.035 385.557 473.035ZM385.542 444.217C413.908 444.217 436.975 421.165 436.975 392.83C436.975 364.495 413.923 341.443 385.542 341.443C357.191 341.443 334.124 364.495 334.124 392.83C334.124 421.165 357.191 444.217 385.542 444.217Z" stroke="white" stroke-width="2"/>
</svg>
