<svg width="772" height="1232" viewBox="0 0 772 1232" fill="none" xmlns="http://www.w3.org/2000/svg">
<path d="M384.719 1150.05L385.545 1151.25L386.37 1150.05L716.814 667.217L717.169 666.698L716.856 666.154L386.411 92.3518L385.545 90.847L384.678 92.3518L54.2337 666.169L53.9199 666.714L54.275 667.233L384.719 1150.05ZM359.063 611.935L357.508 610.898V612.767V699.082V700.951L359.063 699.914L423.786 656.756L425.033 655.924L423.786 655.093L359.063 611.935ZM289.211 400.901H290.211V399.901V320.031H480.882V399.886V400.886H481.882H542.567V480.74V481.74H543.567H598.114V830.089H532.186H531.186V831.089V911.638H239.891V831.089V830.089H238.891H172.964V481.756H227.526H228.526V480.756V400.901H289.211ZM501.344 882.774H502.344V881.774V831.768V830.768H501.344H269.734H268.734V831.768V881.774V882.774H269.734H501.344ZM320.053 348.895H319.053V349.895V399.901V400.901H320.053H451.04H452.04V399.901V349.895V348.895H451.04H320.053ZM569.272 511.589V510.589H568.272H202.821H201.821V511.589V800.225V801.225H202.821H568.272H569.272V800.225V511.589ZM513.725 430.75V429.75H512.725H258.368H257.368V430.75V480.756V481.756H258.368H512.725H513.725V480.756V430.75ZM385.543 293.681C358.214 293.681 335.977 271.439 335.977 244.104C335.977 216.753 358.215 194.512 385.543 194.512C412.872 194.512 435.109 216.753 435.109 244.104C435.109 271.439 412.872 293.681 385.543 293.681ZM385.559 264.832C396.983 264.832 406.283 255.546 406.283 244.104C406.283 232.663 396.984 223.361 385.559 223.361C374.133 223.361 364.835 232.679 364.835 244.104C364.835 255.53 374.134 264.832 385.559 264.832ZM335.977 997.141C335.977 969.806 358.199 947.565 385.543 947.565C412.888 947.565 435.109 969.806 435.109 997.141C435.109 1024.48 412.872 1046.72 385.543 1046.72C358.214 1046.72 335.977 1024.48 335.977 997.141ZM364.82 997.157C364.82 1008.58 374.119 1017.88 385.543 1017.88C396.968 1017.88 406.267 1008.58 406.267 997.157C406.267 985.73 396.968 976.429 385.543 976.429C374.119 976.429 364.82 985.73 364.82 997.157ZM1.65893 668.735L385.545 2.15413L769.446 668.735L385.56 1229.61L1.65893 668.735ZM328.666 556.995L477.037 655.924L328.666 754.854V556.995Z" stroke="white" stroke-width="2"/>
</svg>
