<svg width="772" height="1231" viewBox="0 0 772 1231" fill="none" xmlns="http://www.w3.org/2000/svg">
<path d="M385.081 1149.63L385.906 1150.83L386.732 1149.63L717.115 666.912L717.47 666.393L717.156 665.848L386.773 92.1799L385.906 90.6751L385.04 92.1799L54.6722 665.864L54.3584 666.409L54.7135 666.928L385.081 1149.63ZM203.225 510.326H202.225V511.326V799.895V800.895H203.225H568.606H569.606V799.895V511.326V510.326H568.606H203.225ZM359.431 611.643L357.876 610.606V612.475V698.769V700.638L359.431 699.601L424.139 656.454L425.386 655.622L424.139 654.79L359.431 611.643ZM385.92 337.908C413.243 337.908 435.475 360.144 435.475 387.473C435.475 414.801 413.243 437.038 385.92 437.038C358.598 437.038 336.366 414.801 336.366 387.473C336.366 360.144 358.598 337.908 385.92 337.908ZM385.905 366.75C374.483 366.75 365.186 376.033 365.186 387.473C365.186 398.897 374.483 408.196 385.905 408.196C397.327 408.196 406.624 398.897 406.624 387.473C406.624 376.049 397.327 366.75 385.905 366.75ZM385.905 303.295C358.583 303.295 336.351 281.059 336.351 253.731C336.351 226.402 358.583 204.166 385.905 204.166C413.228 204.166 435.46 226.402 435.46 253.731C435.46 281.059 413.228 303.295 385.905 303.295ZM385.921 274.454C397.342 274.454 406.64 265.17 406.64 253.731C406.64 242.307 397.343 233.007 385.921 233.007C374.499 233.007 365.202 242.307 365.202 253.731C365.202 265.154 374.499 274.454 385.921 274.454ZM336.351 926.447C336.351 899.118 358.568 876.883 385.905 876.883C413.243 876.883 435.46 899.118 435.46 926.447C435.46 953.776 413.228 976.012 385.905 976.012C358.583 976.012 336.351 953.776 336.351 926.447ZM365.186 926.463C365.186 937.886 374.483 947.186 385.905 947.186C397.327 947.186 406.624 937.886 406.624 926.463C406.624 915.039 397.327 905.74 385.905 905.74C374.483 905.74 365.186 915.039 365.186 926.463ZM2.1101 668.43L385.906 2.00372L769.734 668.43L385.922 1229.18L2.1101 668.43ZM598.441 481.484V829.752H173.39V481.484H598.441ZM329.041 556.716L477.377 655.622L329.041 754.528V556.716Z" stroke="white" stroke-width="2"/>
</svg>
