<svg width="771" height="1230" viewBox="0 0 771 1230" fill="none" xmlns="http://www.w3.org/2000/svg">
<path d="M386.64 92.1081L385.773 90.605L384.907 92.1081L299.29 240.634L298.426 242.134H300.156H471.375H473.106L472.241 240.635L386.64 92.1081ZM284.832 893.978V894.978H285.832H548.775H549.775V893.978V616.926V615.926H548.775H516.535H515.535V616.926V687.886H285.832H284.832V688.886V893.978ZM284.832 658.068V659.068H285.832H485.699H486.699V658.068V616.926V615.926H485.699H285.832H284.832V616.926V658.068ZM485.699 587.108H486.699V586.108V381.016V380.016H485.699H222.772H221.772V381.016V658.068V659.068H222.772H254.996H255.996V658.068V587.108H485.699ZM384.948 1148.74L385.773 1149.95L386.598 1148.74L539.609 925.376L540.681 923.811H538.784H255.996V688.886V687.886H254.996H192.936V428.922V425.185L191.069 428.423L54.5104 665.35L54.1961 665.895L54.5518 666.414L384.948 1148.74ZM578.596 865.194V868.424L580.421 865.759L716.964 666.399L717.32 665.88L717.005 665.335L489.988 271.452L489.699 270.952H489.121H282.379H281.801L281.512 271.452L236.429 349.683L235.565 351.183H237.296H515.52V586.108V587.108H516.52H578.596V865.194ZM271.415 451.966V423.148H437.042V451.966H271.415ZM271.415 533.933V505.115H437.042V533.933H271.415ZM334.475 769.865V741.048H500.102V769.865H334.475ZM334.475 851.832V823.014H500.102V851.832H334.475ZM1.94631 667.914L385.773 2.00253L769.585 667.914L385.773 1228.23L1.94631 667.914Z" stroke="white" stroke-width="2"/>
</svg>
