<svg width="279" height="445" viewBox="0 0 279 445" fill="none" xmlns="http://www.w3.org/2000/svg">
<path d="M158.012 152.411H97.5186V163.538H158.012V152.411Z" stroke="white" stroke-width="2"/>
<path d="M158.012 182.005H97.5186V193.131H158.012V182.005Z" stroke="white" stroke-width="2"/>
<path d="M180.769 267.186H120.275V278.312H180.769V267.186Z" stroke="white" stroke-width="2"/>
<path d="M180.769 296.778H120.275V307.905H180.769V296.778Z" stroke="white" stroke-width="2"/>
<path d="M272.844 232.069L153.61 25.1067L139.149 0L124.682 25.1067L5.44836 232.063L0.207031 241.159L6.13827 249.821L125.372 423.96L139.149 444.077L152.926 423.96L272.154 249.821L278.085 241.159L272.844 232.069ZM139.149 33.4348L170.041 87.0585H108.251L139.149 33.4348ZM197.967 322.76H103.082V248.714H120.281H180.774H186.338V222.734H197.973V322.76H197.967ZM103.082 237.587V222.734H158.011H175.21V237.587H120.281H103.082ZM175.21 211.607H158.011H97.5179H91.9538V237.587H80.3248V137.561H175.21V211.607ZM139.149 414.536L19.9151 240.397L69.1966 154.857V248.714H91.9538V333.892H194.367L139.149 414.536ZM209.095 312.368V211.607H186.333V126.429H85.5661L101.836 98.1849H176.445L258.371 240.391L209.095 312.368Z" stroke="white" stroke-width="2"/>
</svg>
