<svg width="770" height="1230" viewBox="0 0 770 1230" fill="none" xmlns="http://www.w3.org/2000/svg">
<path d="M422.358 1173.72L385.008 1228.23L347.657 1173.72L17.2609 691.387L16.4359 691.952L17.2609 691.387L1.18073 667.914L15.3903 643.266L345.787 70.0398L385.008 2.00262L424.213 70.0396L425.08 69.5404L424.213 70.0397L754.609 643.282L755.476 642.782L754.61 643.282L768.819 667.915L752.739 691.387L422.358 1173.72ZM159.023 817.274H157.126L158.199 818.84L185.92 859.288L186.218 859.723H186.745H335.3H335.881L336.169 859.217L359.203 818.769L360.054 817.274H358.334H159.023ZM384.139 771.942L385.008 773.467L385.877 771.942L477.322 611.427L477.604 610.932L477.322 610.437L385.877 449.953L385.008 448.428L384.139 449.953L292.694 610.452L292.412 610.947L292.694 611.443L384.139 771.942ZM495.053 641.578L494.184 640.053L493.315 641.578L410.488 786.961L409.637 788.456H411.357H577.026H578.747L577.895 786.961L495.053 641.578ZM399.239 859.723H400.96L400.108 858.227L385.861 833.234L384.992 831.71L384.124 833.234L369.877 858.227L369.025 859.723H370.746H399.239ZM358.643 788.456H360.364L359.512 786.961L276.669 641.594L275.801 640.069L274.932 641.594L192.105 786.961L191.253 788.456H192.974H358.643ZM384.183 1148.74L385.008 1149.95L385.833 1148.74L563.003 890.106L564.075 888.54H562.178H452.293H317.738H207.837H205.94L207.012 890.106L384.183 1148.74ZM583.27 859.723H583.798L584.095 859.288L611.503 819.274H611.504L611.802 818.839L613.338 816.595L716.214 666.399L716.57 665.88L716.255 665.335L385.874 92.1081L385.008 90.605L384.141 92.1081L53.6986 665.335L53.3843 665.88L53.74 666.399L147.745 803.631L148.648 804.949L149.439 803.561L258.908 611.427L259.19 610.932L258.908 610.437L224.325 549.741L223.456 548.216L222.587 549.741L110.748 746.049L92.6395 719.609L223.471 489.974L274.932 580.286L275.801 581.811L276.669 580.286L384.992 390.17L493.315 580.286L494.184 581.811L495.053 580.286L546.498 489.974L677.33 719.609L659.221 746.049L547.367 549.741L546.498 548.216L545.629 549.741L511.046 610.437L510.764 610.932L511.046 611.427L620.205 803.017L611.701 815.445L610.448 817.274H411.666H409.945L410.797 818.769L433.847 859.218L434.135 859.723H434.716H583.27Z" stroke="white" stroke-width="2"/>
</svg>
