<svg width="279" height="445" viewBox="0 0 279 445" fill="none" xmlns="http://www.w3.org/2000/svg">
<path d="M272.972 232.069L153.739 25.1067L139.278 0L124.811 25.1067L5.57735 232.063L0.335938 241.159L6.26735 249.821L125.501 423.96L139.278 444.077L153.055 423.96L272.283 249.821L278.214 241.159L272.972 232.069ZM57.7244 295.428H129.652L121.339 310.031H67.7286L57.7244 295.428ZM139.278 278.521L106.277 220.575L139.278 162.629L172.279 220.57L139.278 278.521ZM178.677 231.813L208.573 284.302H148.787L178.677 231.813ZM144.413 310.031H134.131L139.272 301.008L144.413 310.031ZM129.763 284.302H69.9766L99.867 231.818L129.763 284.302ZM139.278 414.536L75.3404 321.158H115.001H163.56H203.215L139.278 414.536ZM210.827 310.031H157.216L148.898 295.428H220.826L224.581 289.937L185.076 220.57L197.556 198.656L238.208 270.032L245.197 259.824L197.556 176.17L178.677 209.326L139.272 140.137L99.867 209.326L80.9824 176.17L33.3424 259.824L40.3309 270.032L80.9769 198.656L93.4572 220.57L53.9519 289.937L20.0274 240.391L139.278 33.4348L258.506 240.391L210.827 310.031Z" fill="#2F354B"/>
</svg>
