<svg width="52" height="82" viewBox="0 0 52 82" fill="none" xmlns="http://www.w3.org/2000/svg">
<path d="M51.0181 42.4178L28.7067 4.58914L25.9995 0L23.2923 4.58914L0.980837 42.4178L0 44.0803L1.10995 45.6636L23.4224 77.4937L26.0005 81.1707L28.5786 77.4937L50.89 45.6636L52 44.0803L51.0181 42.4178ZM25.9995 6.1114L31.4774 15.3985H20.5216L25.9995 6.1114ZM32.6769 17.4322L38.7056 27.6528L30.6007 41.3938L28.0018 36.9877L27.2021 35.6322L30.4664 30.0984C30.9391 29.3103 31.189 28.4287 31.189 27.5501C31.189 24.7557 28.8618 22.483 26.0005 22.483C23.1392 22.483 20.8121 24.7557 20.8121 27.5501C20.8121 28.4277 21.062 29.3093 21.5326 30.0933L24.7989 35.6322L21.3993 41.3958L13.2944 27.6538L19.3231 17.4332H32.6769V17.4322ZM25.9995 49.1952L25.8027 48.8617L22.6009 43.4326L25.8027 38.0035L25.9995 37.67L29.398 43.4316L26.1952 48.8617L25.9995 49.1952ZM28.6671 57.7929C28.9587 58.2789 29.1065 58.7904 29.1065 59.3151C29.1065 60.9879 27.7133 62.3484 26.0005 62.3484C24.2877 62.3484 22.8945 60.9879 22.8945 59.3151C22.8945 58.7894 23.0424 58.2769 23.3329 57.7939C23.3339 57.7918 23.336 57.7888 23.3371 57.7868L26.0016 53.2708L28.6671 57.7929ZM23.3329 29.0723C23.0413 28.5863 22.8935 28.0748 22.8935 27.5501C22.8935 25.8773 24.2867 24.5168 25.9995 24.5168C27.7123 24.5168 29.1055 25.8773 29.1055 27.5501C29.1055 28.0758 28.9576 28.5883 28.6671 29.0713C28.6661 29.0734 28.664 29.0764 28.6629 29.0784L25.9984 33.5944L23.3329 29.0723ZM12.0928 29.6906L20.1978 43.4326L12.4906 56.4994L3.68699 43.941L12.0928 29.6906ZM25.9995 75.7711L13.7952 58.3603L21.3993 45.4694L23.9993 49.8765L24.7989 51.232L21.5347 56.7658C21.0547 57.5651 20.8121 58.4223 20.8121 59.3141C20.8121 62.1085 23.1392 64.3812 26.0005 64.3812C28.8618 64.3812 31.189 62.1085 31.189 59.3141C31.189 58.4233 30.9453 57.5651 30.4684 56.7709L27.2021 51.233L30.6017 45.4694L38.2048 58.3603L25.9995 75.7711ZM39.5084 56.4994L31.8012 43.4336L39.9061 29.6916L48.3109 43.941L39.5084 56.4994Z" fill="white"/>
</svg>
