<svg width="278" height="445" viewBox="0 0 278 445" fill="none" xmlns="http://www.w3.org/2000/svg">
<path d="M272.758 232.069L153.53 25.1067L139.063 0L124.596 25.1067L5.36259 232.063L0.121094 241.159L6.05251 249.821L125.286 423.96L139.063 444.077L152.84 423.96L272.068 249.821L277.999 241.159L272.758 232.069ZM68.9439 155.591H182.352V186.973H125.781V239.418H107.364L87.6615 260.052V239.418H68.9439V155.591ZM193.48 250.544V198.1H214.04V281.921H195.316V302.549L175.619 281.921H136.91V250.539H193.48V250.544ZM136.91 239.418V198.1H182.352V239.418H136.91ZM139.063 414.536L19.8294 240.397L57.8156 174.467V250.544H76.5333V287.818L112.121 250.544H125.776V293.052H170.856L200.78 324.396L139.063 414.536ZM206.445 316.123V293.047H222.241L206.445 316.123ZM225.168 288.774V186.973H193.48V144.465H75.0977L139.063 33.4348L258.291 240.391L225.168 288.774Z" fill="#2F354B"/>
<path d="M139.063 314.261C125.18 314.261 113.891 325.554 113.891 339.429C113.891 353.303 125.18 364.597 139.063 364.597C152.945 364.597 164.235 353.303 164.235 339.429C164.235 325.554 152.945 314.261 139.063 314.261ZM139.063 353.476C131.317 353.476 125.019 347.178 125.019 339.434C125.019 331.69 131.323 325.393 139.063 325.393C146.802 325.393 153.106 331.69 153.106 339.434C153.106 347.178 146.802 353.476 139.063 353.476Z" fill="#2F354B"/>
<path d="M113.886 107.264C113.886 121.144 125.175 132.432 139.058 132.432C152.94 132.432 164.23 121.138 164.23 107.264C164.23 93.389 152.94 82.0957 139.058 82.0957C125.175 82.0957 113.886 93.389 113.886 107.264ZM153.107 107.264C153.107 115.008 146.803 121.305 139.063 121.305C131.324 121.305 125.02 115.008 125.02 107.264C125.02 99.5196 131.324 93.2221 139.063 93.2221C146.803 93.2221 153.107 99.5196 153.107 107.264Z" fill="#2F354B"/>
</svg>
