<svg width="771" height="1230" viewBox="0 0 771 1230" fill="none" xmlns="http://www.w3.org/2000/svg">
<path d="M191.173 429.956H190.173V430.956V663.137V664.137H191.173H242.039V720.289V722.784L243.762 720.98L298.063 664.137H348.669H349.669V663.137V518.878H505.426H506.426V517.878V430.956V429.956H505.426H191.173ZM536.263 547.695H535.263V548.695V692.94H379.506H378.506V693.94V780.861V781.861H379.506H486.343L540.628 838.688L542.351 840.492V837.998V781.861H593.233H594.233V780.861V548.695V547.695H593.233H536.263ZM378.506 663.137V664.137H379.506H505.426H506.426V663.137V548.695V547.695H505.426H379.506H378.506V548.695V663.137ZM384.648 1148.74L385.473 1149.95L386.298 1148.74L557.316 899.073L557.775 898.404L557.215 897.818L474.295 811.004L474 810.695H473.572H349.654V693.955V692.955H348.654H310.818H310.39L310.094 693.264L213.203 794.7V693.955V692.955H212.203H161.336V483.238V479.501L159.47 482.739L54.2101 665.35L53.8957 665.895L54.2514 666.414L384.648 1148.74ZM571.187 875.595V878.825L573.012 876.16L616.784 812.244L617.856 810.679H615.959H572.187H571.187V811.679V875.595ZM623.069 799.845V803.075L624.894 800.41L716.679 666.399L717.034 665.88L716.72 665.335L386.339 92.1081L385.473 90.6049L384.606 92.1081L207.359 399.639L206.494 401.138H208.225H535.263V517.878V518.878H536.263H623.069V799.845ZM1.64552 667.914L385.473 2.00253L769.284 667.914L385.473 1228.23L1.64552 667.914ZM316.721 940.147C316.721 902.269 347.557 871.437 385.473 871.437C423.389 871.437 454.225 902.269 454.225 940.147C454.225 978.024 423.389 1008.86 385.473 1008.86C347.557 1008.86 316.721 978.024 316.721 940.147ZM345.558 940.162C345.558 962.164 363.459 980.054 385.473 980.054C407.471 980.054 425.388 962.164 425.388 940.162C425.388 918.16 407.471 900.27 385.473 900.27C363.475 900.27 345.558 918.16 345.558 940.162ZM385.458 365.807C347.541 365.807 316.706 334.989 316.706 297.097C316.706 259.22 347.541 228.387 385.458 228.387C423.374 228.387 454.21 259.22 454.21 297.097C454.21 334.974 423.374 365.807 385.458 365.807ZM385.473 336.989C407.471 336.989 425.388 319.099 425.388 297.097C425.388 275.095 407.471 257.205 385.473 257.205C363.475 257.205 345.558 275.095 345.558 297.097C345.558 319.099 363.475 336.989 385.473 336.989Z" stroke="white" stroke-width="2"/>
</svg>
