<svg width="771" height="1230" viewBox="0 0 771 1230" fill="none" xmlns="http://www.w3.org/2000/svg">
<path d="M423.223 1173.72L385.873 1228.23L348.523 1173.72L18.1262 691.387L17.3012 691.952L18.1261 691.387L2.04597 667.914L16.2555 643.266L346.652 70.0398L385.873 2.00232L425.094 70.0397L755.475 643.282L756.341 642.782L755.475 643.282L769.684 667.915L753.604 691.387L423.223 1173.72ZM385.048 1148.74L385.873 1149.95L386.698 1148.74L496.491 988.46L496.989 987.734L496.331 987.148L386.537 889.517L385.873 888.926L385.208 889.517L275.416 987.148L274.757 987.734L275.255 988.46L385.048 1148.74ZM483.823 844.623V844.174L483.487 843.876L422.354 789.529L386.568 757.694L385.904 757.103L385.239 757.694L349.423 789.529L350.087 790.276L349.423 789.529L288.29 843.876L287.954 844.174V844.623V935.197V937.424L289.619 935.944L385.888 850.338L482.158 935.944L483.823 937.424V935.197V844.623ZM296.061 505.312L295.22 506.059L296.061 506.806L385.209 586.07L385.873 586.661L386.537 586.07L475.701 506.806L476.541 506.059L475.701 505.312L386.537 426.033L385.873 425.442L385.208 426.033L296.061 505.312ZM408.413 737.062L407.572 737.809L408.413 738.556L439.573 766.261L497.561 817.835L498.225 818.426L498.89 817.835L588.053 738.556L588.894 737.809L588.053 737.062L498.905 657.783L498.241 657.192L497.576 657.783L408.413 737.062ZM512.659 538.179L498.905 525.959L498.241 525.369L497.576 525.96L400.627 612.142L400.291 612.44V612.889V703.463V705.69L401.956 704.21L498.241 618.603L594.526 704.21L596.19 705.69V703.463V612.889V612.44L595.855 612.142L514.323 539.643L512.659 538.163V538.179ZM482.143 472.475L483.807 473.955V471.728V381.155V380.706L483.472 380.407L386.538 294.21L385.873 293.619L385.208 294.21L288.274 380.407L287.939 380.706V381.155V471.728V473.955L289.603 472.475L385.873 386.869L482.143 472.475ZM371.455 612.889V612.44L371.119 612.142L274.185 525.96L273.521 525.369L272.857 525.959L266.227 531.845L266.226 531.846L257.438 539.658L175.906 612.142L175.571 612.44V612.889V703.463V705.69L177.235 704.21L273.521 618.603L369.79 704.21L371.455 705.69V703.463V612.889ZM274.185 657.783L273.521 657.192L272.856 657.783L183.693 737.046L182.852 737.793L183.693 738.541L272.856 817.82L273.521 818.41L274.185 817.82L332.173 766.261L363.333 738.556L364.173 737.809L363.333 737.062L274.185 657.783ZM512.644 961.654V964.884L514.469 962.219L717.079 666.399L717.435 665.88L717.12 665.335L386.739 92.1081L385.873 90.6049L385.007 92.1081L54.6255 665.335L54.3112 665.88L54.6669 666.399L257.293 962.188L259.118 964.852V961.623V844.608V844.159L258.782 843.861L161.817 757.663L161.153 758.411L161.817 757.663L146.734 744.263V730.875V599.485L258.767 499.888L259.102 499.59V499.141V367.751L385.873 255.03L512.644 367.751V499.125V499.574L512.979 499.872L625.011 599.485V730.875V744.263L609.929 757.679L512.979 843.876L512.644 844.174V844.623V961.654Z" stroke="white" stroke-width="2"/>
</svg>
