<svg width="279" height="445" viewBox="0 0 279 445" fill="none" xmlns="http://www.w3.org/2000/svg">
<path d="M272.923 232.069L153.695 25.1067L139.228 0L124.762 25.1067L5.52803 232.063L0.286621 241.159L6.21803 249.821L125.452 423.96L139.228 444.077L153.005 423.96L272.233 249.821L278.165 241.159L272.923 232.069ZM139.228 414.536L98.6826 356.668L139.228 321.419L178.851 356.668L139.228 414.536ZM152.154 285.32L174.216 304.941V337.642L139.234 306.521L104.252 337.642V304.941L126.314 285.32L139.24 273.826L152.154 285.32ZM107.057 182.706L139.228 154.084L171.406 182.706L139.228 211.324L107.057 182.706ZM158.848 276.38L147.602 266.377L179.78 237.754L211.952 266.377L179.774 295L158.848 276.38ZM179.78 222.856L144.793 253.977V221.276L179.78 190.161L185.344 195.107V195.101L214.767 221.276V253.977L179.78 222.856ZM174.21 170.312L139.228 139.191L104.247 170.312V137.611L139.228 106.491L174.21 137.611V170.312ZM133.664 221.276V253.977L98.6826 222.856L63.6954 253.977V221.276L93.1185 195.107L96.29 192.286L98.6826 190.161L133.664 221.276ZM98.6826 237.754L130.854 266.377L119.609 276.38L98.6826 294.994L66.5053 266.371L98.6826 237.754ZM185.338 347.194V304.941L220.326 273.821L225.89 268.869V263.874V216.275L185.338 180.203V132.61L139.228 91.5925L93.1185 132.61V180.209L52.5671 216.275V263.874V268.869L58.1312 273.815L93.124 304.935V347.182L20.0003 240.391L139.228 33.4348L258.456 240.391L185.338 347.194Z" stroke="white" stroke-width="2" />
</svg>
