<svg width="698" height="934" viewBox="0 0 698 934" fill="none" xmlns="http://www.w3.org/2000/svg">
<path d="M384.595 852.461L385.008 853.063L385.42 852.461L495.213 692.178L495.462 691.814L495.133 691.522L385.34 593.891L385.008 593.595L384.675 593.891L274.883 691.522L274.553 691.814L274.802 692.178L384.595 852.461ZM482.457 548.623V548.399L482.289 548.25L421.156 493.903L385.371 462.068L385.039 461.772L384.706 462.068L348.89 493.903L287.757 548.25L287.589 548.399V548.623V639.197V640.311L288.421 639.571L385.023 553.669L481.625 639.571L482.457 640.311V639.197V548.623ZM295.528 209.685L295.107 210.059L295.528 210.433L384.676 289.696L385.008 289.992L385.34 289.696L474.503 210.433L474.924 210.059L474.503 209.685L385.34 130.407L385.008 130.111L384.675 130.407L295.528 209.685ZM407.88 441.435L407.46 441.809L407.88 442.183L439.04 469.888L497.028 521.461L497.36 521.757L497.692 521.461L586.856 442.183L587.276 441.809L586.856 441.435L497.708 362.156L497.375 361.861L497.043 362.156L407.88 441.435ZM512.294 243.292L497.708 230.333L497.375 230.038L497.043 230.333L400.094 316.515L399.926 316.664V316.889V407.463V408.576L400.758 407.836L497.375 321.934L593.993 407.836L594.825 408.576V407.463V316.889V316.664L594.657 316.515L513.126 244.016L512.294 243.276V243.292ZM755.043 347.032L755.429 346.809L755.043 347.032L769.41 371.938L753.151 395.669L422.771 877.999L385.008 933.115L347.245 877.999L16.8484 395.669L0.590356 371.937L14.9571 347.017L345.354 -226.21L385.008 -294.999L424.662 -226.21L755.043 347.032ZM481.61 176.102L482.442 176.842V175.728V85.1545V84.9301L482.274 84.7809L385.34 -1.41647L385.008 -1.71191L384.675 -1.41647L287.741 84.7809L287.574 84.9301V85.1545V175.728V176.842L288.406 176.102L385.008 90.1998L481.61 176.102ZM370.09 316.889V316.664L369.922 316.515L272.988 230.333L272.656 230.038L272.323 230.333L265.693 236.219L266.025 236.593L265.693 236.219L256.905 244.032L175.373 316.515L175.206 316.664V316.889V407.463V408.576L176.038 407.836L272.655 321.934L369.257 407.836L370.09 408.576V407.463V316.889ZM272.988 362.156L272.655 361.861L272.323 362.156L183.16 441.42L182.739 441.794L183.16 442.167L272.323 521.446L272.655 521.741L272.988 521.446L330.975 469.888L362.136 442.183L362.556 441.809L362.136 441.435L272.988 362.156ZM512.278 665.654V667.269L513.191 665.937L715.801 370.116L715.979 369.857L715.822 369.584L385.441 -203.642L385.008 -204.394L384.575 -203.642L54.1934 369.584L54.0363 369.857L54.2141 370.117L256.84 665.906L257.752 667.238V665.623V548.608V548.383L257.585 548.234L160.62 462.037L160.287 462.411L160.62 462.037L145.369 448.487V434.875V303.261L257.569 203.514L257.737 203.365V203.141V71.5264L385.008 -41.6388L512.278 71.5264V203.125V203.35L512.446 203.499L624.646 303.261V434.875V448.488L609.396 462.052L512.446 548.25L512.278 548.399V548.623V665.654Z" stroke-width="2" stroke="white" />
</svg>
