<svg width="330" height="528" viewBox="0 0 330 528" fill="none" xmlns="http://www.w3.org/2000/svg">
<path d="M168.3 482.122V482.115L168.294 480.134V481.943C168.3 482.009 168.294 482.055 168.3 482.122Z" fill="black"/>
<path d="M168.294 482.138C168.294 482.132 168.3 482.125 168.3 482.112C168.3 482.046 168.3 482 168.294 481.934V482.138Z" fill="black"/>
<path d="M168.294 480.134V474.071C168.288 474.111 168.281 474.157 168.274 474.197L168.294 480.134Z" fill="black"/>
<path d="M306.588 285.36L168.438 487.045L306.588 285.36L207.847 114.045L306.588 285.36Z" fill="black"/>
<path d="M323.769 275.476L207.848 74.3584L204.544 68.6263L201.24 62.8943L182.17 29.8028L180.069 26.1575L178.166 22.8556L176.263 19.5537L164.997 0L153.724 19.5537L151.82 22.8556L149.918 26.1575L147.816 29.8028L128.746 62.8943L125.442 68.6263L122.138 74.3584L6.22425 275.476L0 286.273L7.04378 296.555L148.642 503.266L165.003 527.146L181.364 503.266L322.956 296.555L330 286.273L323.769 275.476ZM161.686 446.784C144.446 388.592 99.6586 322.224 92.2446 311.48L127.814 205.503H201.439L237.008 311.48C229.7 322.079 186.049 386.809 168.3 444.671V308.838C177.809 306.897 184.992 298.47 184.992 288.393C184.992 276.883 175.622 267.519 164.111 267.519C152.601 267.519 143.23 276.883 143.23 288.393C143.23 299.071 151.332 307.801 161.693 309.017V446.784H161.686ZM128.746 198.899V184.271H201.247V198.899H128.746ZM164.104 302.657C156.235 302.657 149.832 296.258 149.832 288.393C149.832 280.528 156.235 274.122 164.104 274.122C171.974 274.122 178.378 280.521 178.378 288.393C178.378 296.258 171.981 302.657 164.104 302.657ZM168.439 487.047C168.433 485.515 168.393 483.898 168.3 482.121C168.3 482.128 168.294 482.134 168.294 482.147V481.949V480.14L168.274 474.203C168.281 474.164 168.287 474.117 168.294 474.078C176.686 409.638 242.704 314.854 243.365 313.91C243.973 313.051 244.125 311.955 243.788 310.965L207.637 203.251C207.749 202.92 207.848 202.584 207.848 202.214V180.983V114.047L204.544 108.315L201.24 102.583V177.668H128.74V102.583L125.436 108.315L122.132 114.047V180.963V201.659L85.4517 310.938C85.1147 311.935 85.2735 313.025 85.8748 313.884C86.5422 314.834 152.64 409.717 160.939 473.754V482.095V482.101C160.873 483.508 160.853 484.749 160.834 485.997L23.385 285.342L122.125 114.034L125.429 108.302L128.733 102.57L164.983 39.6754L201.234 102.563L204.538 108.295L207.842 114.027L306.582 285.342L168.439 487.047Z" stroke="white" stroke-width="2"/>
</svg>
