<svg width="771" height="1230" viewBox="0 0 771 1230" fill="none" xmlns="http://www.w3.org/2000/svg">
<path d="M384.349 1148.74L385.174 1149.95L385.999 1148.74L716.38 666.399L716.736 665.88L716.421 665.335L386.04 92.1081L385.174 90.6049L384.307 92.1081L53.9112 665.35L53.5969 665.895L53.9526 666.414L384.349 1148.74ZM328.232 470.021V469.021H327.232H240.656V361.634H435.901V748.383V748.651L436.035 748.883L508.771 875.091L382.537 1059.35L256.317 875.075L328.098 750.531L328.232 750.299V750.032V627.161V626.161H327.232H240.656V518.774H327.232H328.232V517.774V470.021ZM474.359 874.284L474.715 873.765L474.401 873.22L407.049 756.375V391.467V390.467H406.049H270.493H269.493V391.467V439.219V440.219H270.493H357.068V547.607H270.493H269.493V548.607V596.359V597.359H270.493H357.068V758.008L290.688 873.205L290.373 873.75L290.729 874.269L381.712 1007.12L382.536 1008.33L383.362 1007.12L474.359 874.284ZM573.636 625.88L573.293 626.179V626.634V773.189H480.934V626.634V626.179L480.591 625.88C465.25 612.508 456.296 593.135 456.296 572.564C456.296 533.531 488.071 501.789 527.114 501.789C566.156 501.789 597.932 533.547 597.932 572.564C597.932 593.12 588.977 612.508 573.636 625.88ZM550.742 607.244L550.744 607.242C562.223 599.384 569.095 586.426 569.095 572.579C569.095 549.437 550.268 530.622 527.114 530.622C503.959 530.622 485.117 549.437 485.117 572.579C485.117 586.425 491.973 599.384 503.468 607.243L503.47 607.244L509.755 611.523V743.387V744.387H510.755H543.457H544.457V743.387V611.523L550.742 607.244ZM1.3467 667.914L385.174 2.00253L768.985 667.914L385.174 1228.23L1.3467 667.914Z" stroke="white" stroke-width="2"/>
</svg>
