<svg width="279" height="445" viewBox="0 0 279 445" fill="none" xmlns="http://www.w3.org/2000/svg">
<path d="M273.623 232.069L154.389 25.1067L139.928 0L125.461 25.1067L6.22783 232.063L0.986328 241.159L6.91774 249.821L126.151 423.96L139.928 444.077L153.705 423.96L272.933 249.821L278.865 241.159L273.623 232.069ZM139.928 414.536L20.6946 240.397L139.928 33.4348L259.156 240.391L139.928 414.536Z" fill="#2F354B"/>
<path d="M87.4141 130.202V169.695H119.018V186.936H87.4141V226.429H119.018V270.79L93.0004 315.952L138.977 383.105L184.958 315.957L158.596 270.194V130.202H87.4141ZM171.816 315.445L138.977 363.406L106.143 315.44L130.146 273.766V215.308H98.5423V198.068H130.146V158.574H98.5423V141.334H147.462V273.176L171.816 315.445Z" fill="#2F354B"/>
<path d="M174.12 279.512H208.178V226.238C213.792 221.343 217.07 214.244 217.07 206.717C217.07 192.431 205.441 180.804 191.152 180.804C176.863 180.804 165.234 192.425 165.234 206.717C165.234 214.25 168.512 221.343 174.126 226.238V279.512H174.12ZM191.152 191.936C199.309 191.936 205.942 198.567 205.942 206.723C205.942 211.602 203.521 216.169 199.476 218.939L197.05 220.592V268.391H185.248V220.592L182.823 218.939C178.772 216.169 176.357 211.602 176.357 206.723C176.357 198.567 182.995 191.936 191.152 191.936Z" fill="#2F354B"/>
</svg>
