<svg width="606" height="600" viewBox="0 0 606 600" fill="none" xmlns="http://www.w3.org/2000/svg">
<path d="M302.875 0L0 300L302.875 600V0Z" fill="#2F354B"/>
<path d="M302.875 0L0 300L302.875 600V0Z" fill="url(#paint0_linear_5868:60413)"/>
<path d="M302.876 0V600L605.751 300L302.876 0Z" fill="url(#paint1_linear_5868:60413)"/>
<path d="M302.875 562.756V37.2507L37.604 300.003L302.875 562.756Z" fill="url(#paint2_linear_5868:60413)"/>
<path d="M568.147 300.003L302.876 37.2507V562.756L568.147 300.003Z" fill="url(#paint3_linear_5868:60413)"/>
<path opacity="0.6" d="M419.855 212.506V268.202L447.97 240.354L419.855 212.506Z" fill="#7958A4"/>
<path opacity="0.75" d="M244.164 125.795L192.99 390.216L302.964 202.398L304.826 205.648L412.852 390.129L361.678 125.707L244.164 125.795ZM302.964 187.288C299.035 187.288 295.192 186.134 291.925 183.972C288.658 181.809 286.115 178.736 284.611 175.141C283.107 171.545 282.714 167.588 283.481 163.771C284.247 159.954 286.137 156.448 288.916 153.696C291.694 150.944 295.234 149.07 299.088 148.31C302.942 147.551 306.934 147.941 310.564 149.43C314.194 150.92 317.298 153.442 319.481 156.678C321.664 159.914 322.828 163.718 322.828 167.61C322.84 170.206 322.339 172.778 321.347 175.181C320.355 177.583 318.892 179.769 317.047 181.612C315.202 183.456 313.011 184.922 310.594 185.926C308.178 186.93 305.585 187.452 302.964 187.464V187.288Z" fill="#7958A4"/>
<path opacity="0.6" d="M302.964 357.19C276.311 357.185 250.145 364.266 227.197 377.694C204.249 391.122 185.36 410.405 172.502 433.53L196.536 457.424C205.709 437.058 220.643 419.76 239.53 407.62C258.417 395.481 280.449 389.021 302.964 389.021C325.479 389.021 347.511 395.481 366.398 407.62C385.285 419.76 400.219 437.058 409.392 457.424L433.426 433.53C420.568 410.405 401.679 391.122 378.731 377.694C355.783 364.266 329.617 357.185 302.964 357.19Z" fill="#7958A4"/>
<path opacity="0.2" d="M302.874 234.639L272.454 286.997L302.874 331.096L333.383 286.997L302.874 234.639Z" fill="#7958A4"/>
<path opacity="0.6" d="M477.562 269.691L447.21 299.755L477.563 329.82L507.915 299.756L477.562 269.691Z" fill="#7958A4"/>
<path opacity="0.2" d="M245.138 94.4405C260.459 109.525 281.183 117.993 302.786 117.993C324.388 117.993 345.113 109.525 360.434 94.4405L302.695 37.1638L245.138 94.4405Z" fill="#7958A4"/>
<path opacity="0.2" d="M302.963 393.558C281.036 393.567 259.591 399.925 241.266 411.849C222.94 423.773 208.533 440.744 199.818 460.673L302.963 562.752L406.021 460.673C397.303 440.765 382.906 423.81 364.6 411.888C346.293 399.966 324.872 393.595 302.963 393.558Z" fill="#7958A4"/>
<path opacity="0.6" d="M128.186 269.63L97.834 299.694L128.187 329.759L158.539 299.695L128.186 269.63Z" fill="#7958A4"/>
<path opacity="0.6" d="M186.16 268.202V212.506L157.957 240.354L186.16 268.202Z" fill="#7958A4"/>
<path d="M302.964 389.165C280.47 389.174 258.459 395.622 239.577 407.731C220.696 419.841 205.749 437.097 196.536 457.422L199.819 460.673C208.503 440.726 222.892 423.736 241.214 411.798C259.537 399.861 280.99 393.5 302.92 393.5C324.851 393.5 346.3 399.861 364.622 411.798C382.944 423.736 397.337 440.726 406.022 460.673L409.3 457.422C400.094 437.11 385.162 419.864 366.298 407.755C347.434 395.646 325.442 389.191 302.964 389.165Z" fill="#2F354B"/>
<path d="M365.757 123.16V121.403H316.886C334.772 118.567 351.308 110.24 364.159 97.5964L361.054 94.5217C345.733 109.607 325.008 118.074 303.405 118.074C281.803 118.074 261.078 109.607 245.757 94.5217L242.657 97.6843C255.508 110.328 272.039 118.655 289.924 121.491H241.059L185.805 407.523C179.786 414.666 174.44 422.341 169.838 430.451L173.121 433.614C185.98 410.501 204.864 391.229 227.803 377.807C250.742 364.385 276.897 357.305 303.54 357.305C330.182 357.305 356.337 364.385 379.277 377.807C402.216 391.229 421.1 410.501 433.958 433.614L437.241 430.451C432.64 422.341 427.293 414.666 421.274 407.523L365.757 123.16ZM244.164 125.795H361.677L412.851 390.217L304.826 205.737L302.964 202.487L192.989 390.305L244.164 125.795ZM272.455 287.084L302.964 234.375L333.386 287.084L302.964 331.008L272.455 287.084ZM193.167 398.738L256.666 290.159L260.304 295.342L290.726 339.265L300.036 352.706C259.674 353.474 221.259 370.022 193.167 398.738ZM305.8 352.882L315.115 339.441L345.533 295.517L349.171 290.334L412.674 398.914C384.582 370.197 346.162 353.65 305.8 352.882Z" fill="#2F354B"/>
<path d="M322.562 167.79C322.579 163.873 321.422 160.04 319.236 156.776C317.05 153.512 313.935 150.965 310.285 149.458C306.635 147.951 302.614 147.552 298.735 148.312C294.856 149.072 291.294 150.956 288.498 153.726C285.702 156.495 283.8 160.025 283.033 163.868C282.265 167.71 282.668 171.691 284.189 175.307C285.71 178.922 288.282 182.008 291.577 184.173C294.872 186.338 298.739 187.485 302.693 187.468C307.962 187.468 313.016 185.395 316.742 181.704C320.467 178.014 322.562 173.009 322.562 167.79ZM287.086 167.79C287.068 164.746 287.964 161.765 289.658 159.225C291.353 156.685 293.77 154.701 296.605 153.524C299.439 152.347 302.565 152.03 305.582 152.613C308.598 153.197 311.37 154.654 313.55 156.8C315.729 158.947 317.218 161.686 317.824 164.67C318.43 167.655 318.126 170.751 316.954 173.565C315.782 176.379 313.792 178.785 311.237 180.478C308.683 182.171 305.68 183.075 302.607 183.075C298.506 183.076 294.572 181.468 291.663 178.604C288.755 175.74 287.109 171.852 287.086 167.79Z" fill="#2F354B"/>
<path d="M91.9722 299.739L128.6 336.02L165.228 299.739L128.6 263.458L91.9722 299.739ZM128.6 329.783L98.1822 299.739L128.6 269.695L158.931 299.739L128.6 329.783Z" fill="#2F354B"/>
<path d="M477.594 263.458L440.966 299.739L477.594 336.02L514.221 299.739L477.594 263.458ZM447.262 299.739L477.594 269.695L508.016 299.739L477.594 329.783L447.262 299.739Z" fill="#2F354B"/>
<path d="M415.424 201.878V278.832L454.269 240.355L415.424 201.878ZM419.859 212.507L448.059 240.355L420.123 268.291L419.859 212.507Z" fill="#2F354B"/>
<path d="M190.595 201.878L151.75 240.355L190.595 278.832V201.878ZM186.16 268.203L158.046 240.355L186.16 212.507V268.203Z" fill="#2F354B"/>
<path d="M302.964 565.91L34.5005 299.995L302.964 34.168L571.337 299.995L302.964 565.91ZM40.7971 299.995L302.964 559.673L565.04 299.995L302.964 40.4051L40.7971 299.995Z" fill="#2F354B"/>
<defs>
<linearGradient id="paint0_linear_5868:60413" x1="151.482" y1="0" x2="151.482" y2="600" gradientUnits="userSpaceOnUse">
<stop stop-color="#E88269"/>
<stop offset="1" stop-color="#E45065"/>
</linearGradient>
<linearGradient id="paint1_linear_5868:60413" x1="454.358" y1="0" x2="454.358" y2="600" gradientUnits="userSpaceOnUse">
<stop stop-color="#E45065"/>
<stop offset="1" stop-color="#9D4434"/>
</linearGradient>
<linearGradient id="paint2_linear_5868:60413" x1="5130.8" y1="2265.39" x2="5130.8" y2="33701.1" gradientUnits="userSpaceOnUse">
<stop stop-color="#E88269"/>
<stop offset="1" stop-color="#E45065"/>
</linearGradient>
<linearGradient id="paint3_linear_5868:60413" x1="13330.3" y1="2265.39" x2="13330.3" y2="33701.1" gradientUnits="userSpaceOnUse">
<stop stop-color="#E45065"/>
<stop offset="1" stop-color="#9D4434"/>
</linearGradient>
</defs>
</svg>
