<?xml version="1.0" standalone="no"?>
<!DOCTYPE svg PUBLIC "-//W3C//DTD SVG 20010904//EN"
 "http://www.w3.org/TR/2001/REC-SVG-20010904/DTD/svg10.dtd">
<svg version="1.0" xmlns="http://www.w3.org/2000/svg"
 width="340.000000pt" height="340.000000pt" viewBox="0 0 340.000000 340.000000"
 preserveAspectRatio="xMidYMid meet">
<metadata>
Created by potrace 1.14, written by Peter Selinger 2001-2017
</metadata>
<g transform="translate(0.000000,340.000000) scale(0.100000,-0.100000)"
fill="#000000" stroke="none">
<path d="M1636 3276 c-39 -66 -158 -274 -266 -461 -108 -187 -199 -347 -203
-355 -4 -8 -15 -28 -26 -45 -21 -34 -10 -16 -205 -355 -80 -140 -150 -262
-156 -270 -17 -26 -65 -115 -65 -122 0 -3 77 -56 170 -115 401 -258 497 -319
520 -333 14 -8 87 -55 164 -103 l139 -88 169 107 c92 58 191 121 218 139 40
26 312 200 571 365 l41 26 -44 74 c-24 41 -48 84 -53 95 -6 11 -14 27 -20 35
-12 17 -154 264 -279 482 -10 18 -112 195 -226 393 -114 198 -242 419 -283
490 -41 72 -80 137 -86 146 -9 14 -22 -4 -80 -105z"/>
<path d="M721 1444 c17 -20 85 -119 230 -334 46 -69 86 -127 89 -130 3 -3 35
-50 72 -105 37 -55 102 -152 145 -215 43 -63 128 -187 187 -275 180 -265 191
-280 199 -283 4 -2 7 -8 7 -14 0 -13 50 -78 60 -78 5 0 22 21 38 48 17 26 63
94 103 152 40 58 111 161 158 230 47 69 102 150 123 180 21 30 43 62 48 70 6
8 59 87 120 175 131 191 119 173 178 260 26 39 88 128 136 199 49 71 85 127
79 125 -9 -4 -130 -79 -238 -149 -325 -208 -725 -461 -739 -466 -14 -5 -52 17
-288 169 -70 45 -212 136 -315 201 -104 66 -231 147 -283 181 -126 81 -129 83
-109 59z"/>
</g>
</svg>
