<svg width="16" height="14" viewBox="0 0 16 14" fill="none" xmlns="http://www.w3.org/2000/svg">
<path fill-rule="evenodd" clip-rule="evenodd" d="M14.3673 5.10744V0H13.0612V5.10744H12.4286C11.8763 5.10744 11.4286 5.55516 11.4286 6.10744V8.0799C11.4286 8.63218 11.8763 9.0799 12.4286 9.0799H13.0612V13.7143H14.3673V9.0799H15C15.5523 9.0799 16 8.63218 16 8.0799V6.10744C16 5.55516 15.5523 5.10744 15 5.10744H14.3673ZM8.65306 0H7.34694V2.08067H6.71429C6.162 2.08067 5.71429 2.52838 5.71429 3.08067V5.05312C5.71429 5.60541 6.162 6.05312 6.71429 6.05312H7.34694V13.7143H8.65306V6.05312H9.28571C9.838 6.05312 10.2857 5.60541 10.2857 5.05312V3.08067C10.2857 2.52838 9.838 2.08067 9.28571 2.08067H8.65306V0ZM2.93878 7.64616V0H1.63265V7.64616H1C0.447715 7.64616 0 8.09388 0 8.64616V10.6108C0 11.1631 0.447715 11.6108 1 11.6108H1.63265V13.7085L2.93878 13.7143V11.6108H3.57143C4.12371 11.6108 4.57143 11.1631 4.57143 10.6108V8.64616C4.57143 8.09388 4.12371 7.64616 3.57143 7.64616H2.93878Z" fill="#2D3540"/>
</svg>
