<svg width="16" height="16" viewBox="0 0 16 16" fill="none" xmlns="http://www.w3.org/2000/svg">
<path d="M7.99988 0C3.58395 0 0 3.44064 0 7.68C0 11.9194 3.58395 15.36 7.99988 15.36C12.4158 15.36 15.9998 11.9194 15.9998 7.68C15.9998 3.44064 12.4158 0 7.99988 0ZM7.19989 13.7702C4.03994 13.3939 1.59998 10.8134 1.59998 7.68C1.59998 7.20384 1.66397 6.75072 1.76797 6.30528L5.59991 9.984V10.752C5.59991 11.5968 6.3199 12.288 7.19989 12.288V13.7702ZM12.7198 11.8195C12.5118 11.1974 11.9198 10.752 11.1998 10.752H10.3998V8.448C10.3998 8.0256 10.0398 7.68 9.59985 7.68H4.79993V6.144H6.3999C6.8399 6.144 7.19989 5.7984 7.19989 5.376V3.84H8.79987C9.67985 3.84 10.3998 3.1488 10.3998 2.304V1.98912C12.7438 2.90304 14.3998 5.1072 14.3998 7.68C14.3998 9.27744 13.7598 10.729 12.7198 11.8195Z" fill="white"/>
</svg>
