<svg width="28" height="28" viewBox="0 0 28 28" fill="none" xmlns="http://www.w3.org/2000/svg">
<path fill-rule="evenodd" clip-rule="evenodd" d="M26.25 3.5H22.75V0H19.25V3.5H15.75V0H12.25V3.5H8.75V0H5.25V3.5H1.75C0.78225 3.5 0 4.28225 0 5.25V26.25C0 27.2178 0.78225 28 1.75 28H26.25C27.2178 28 28 27.2178 28 26.25V5.25C28 4.28225 27.2178 3.5 26.25 3.5ZM24.5 24.5H3.5V8.75H24.5V24.5ZM7 12.25V15.75H10.5V12.25H7ZM12.25 12.25H15.75V15.75H12.25V12.25ZM7 17.5V21H10.5V17.5H7ZM12.25 17.5H15.75V21H12.25V17.5ZM17.5 12.25V15.75H21V12.25H17.5ZM17.5 21V17.5H21V21H17.5Z" fill="#212121"/>
</svg>
