<svg width="6" height="22" viewBox="0 0 6 22" fill="none" xmlns="http://www.w3.org/2000/svg">
<path d="M2.99999 5.66277C4.46666 5.66277 5.66666 4.46277 5.66666 2.9961C5.66666 1.52944 4.46666 0.329437 2.99999 0.329437C1.53333 0.329437 0.333328 1.52944 0.333328 2.9961C0.333328 4.46277 1.53333 5.66277 2.99999 5.66277ZM2.99999 8.32944C1.53333 8.32944 0.333328 9.52944 0.333328 10.9961C0.333328 12.4628 1.53333 13.6628 2.99999 13.6628C4.46666 13.6628 5.66666 12.4628 5.66666 10.9961C5.66666 9.52944 4.46666 8.32944 2.99999 8.32944ZM2.99999 16.3294C1.53333 16.3294 0.333328 17.5294 0.333328 18.9961C0.333328 20.4628 1.53333 21.6628 2.99999 21.6628C4.46666 21.6628 5.66666 20.4628 5.66666 18.9961C5.66666 17.5294 4.46666 16.3294 2.99999 16.3294Z" fill="#323232"/>
</svg>
