<svg width="279" height="445" viewBox="0 0 279 445" fill="none" xmlns="http://www.w3.org/2000/svg">
<path d="M139.704 0L0.761719 241.159L139.704 444.077L278.64 241.159L139.704 0ZM139.704 414.536L20.4699 240.397L139.704 33.4348L258.932 240.391L139.704 414.536Z" fill="#2F354B"/>
<path d="M110.375 141.826C110.375 157.993 123.528 171.145 139.698 171.145C155.867 171.145 169.026 157.993 169.026 141.826C169.026 125.66 155.873 112.508 139.698 112.508C123.534 112.508 110.375 125.665 110.375 141.826ZM157.892 141.826C157.892 151.857 149.73 160.018 139.692 160.018C129.66 160.018 121.498 151.857 121.498 141.826C121.498 131.796 129.66 123.635 139.692 123.635C149.736 123.635 157.892 131.796 157.892 141.826Z" fill="#2F354B"/>
<path d="M95.7526 202.279H134.134V222.279H95.7526V233.406H134.134V253.405H95.7526V264.532H134.134V284.537H95.7526V295.663H134.134V359.039H145.262V295.663H183.643V284.537H145.262V264.532H183.643V253.405H145.262V233.406H183.643V222.279H145.262V202.279H183.643V191.153H95.7526V202.279Z" fill="#2F354B"/>
</svg>
