<svg width="280" height="446" viewBox="0 0 280 446" fill="none" xmlns="http://www.w3.org/2000/svg">
<path d="M121.711 88.7526C121.711 98.8191 129.901 107.009 139.968 107.009C150.034 107.009 158.224 98.8191 158.224 88.7526C158.224 78.6806 150.034 70.4904 139.968 70.4904C129.901 70.4904 121.711 78.6806 121.711 88.7526ZM147.094 88.7526C147.094 92.6835 143.898 95.8738 139.973 95.8738C136.048 95.8738 132.852 92.6779 132.852 88.7526C132.852 84.8274 136.048 81.6259 139.973 81.6259C143.898 81.6259 147.094 84.8218 147.094 88.7526Z" fill="#2F354B"/>
<path d="M139.968 342.321C129.896 342.321 121.711 350.511 121.711 360.577C121.711 370.644 129.901 378.834 139.968 378.834C150.034 378.834 158.224 370.644 158.224 360.577C158.224 350.511 150.04 342.321 139.968 342.321ZM139.968 367.704C136.042 367.704 132.847 364.508 132.847 360.583C132.847 356.658 136.042 353.462 139.968 353.462C143.893 353.462 147.089 356.658 147.089 360.583C147.089 364.508 143.893 367.704 139.968 367.704Z" fill="#2F354B"/>
<path d="M139.968 0.692383L0.941406 242.049L139.974 445.132L279 242.049L139.968 0.692383ZM139.968 415.568L20.6624 241.286L139.968 34.1546L259.274 241.28L139.968 415.568Z" fill="#2F354B"/>
<path d="M119.071 201.023V273.793L173.652 237.408L119.071 201.023ZM130.207 221.829L153.575 237.408L130.207 252.986V221.829Z" fill="#2F354B"/>
<path d="M105.187 144.991H82.916V174.177H62.8554V300.637H87.0195V330.074H192.913V300.637H217.077V174.171H197.021V144.985H174.751V115.799H105.187V144.991ZM181.777 318.933H98.155V300.882H181.777V318.933ZM116.323 126.94H163.615V144.991H116.323V126.94ZM205.941 185.307V289.496H73.9965V185.307H205.941ZM185.886 156.126V174.177H94.0515V156.126H185.886Z" fill="#2F354B"/>
</svg>
