<svg width="279" height="445" viewBox="0 0 279 445" fill="none" xmlns="http://www.w3.org/2000/svg">
<path d="M158.079 152.412H97.5857V163.538H158.079V152.412Z" fill="#2F354B"/>
<path d="M158.079 182.005H97.5857V193.131H158.079V182.005Z" fill="#2F354B"/>
<path d="M180.836 267.185H120.343V278.312H180.836V267.185Z" fill="#2F354B"/>
<path d="M180.836 296.778H120.343V307.905H180.836V296.778Z" fill="#2F354B"/>
<path d="M139.216 0L0.274414 241.159L139.216 444.077L278.152 241.159L139.216 0ZM139.216 33.4348L170.108 87.0585H108.319L139.216 33.4348ZM103.149 322.76V248.714H186.406V222.734H198.04V322.76H103.149ZM103.149 237.587V222.734H175.277V237.587H103.149ZM175.277 211.607H92.0212V237.587H80.3922V137.561H175.277V211.607ZM139.216 414.536L19.9825 240.397L69.2639 154.857V248.714H92.0212V333.892H194.435L139.216 414.536ZM209.163 312.368V211.607H186.4V126.429H85.6335L101.903 98.1849H176.512L258.439 240.391L209.163 312.368Z" fill="#2F354B"/>
</svg>
