<svg width="279" height="445" viewBox="0 0 279 445" fill="none" xmlns="http://www.w3.org/2000/svg">
<path d="M273.276 232.069L154.048 25.1067L139.581 0L125.115 25.1067L5.88106 232.063L0.639648 241.159L6.57106 249.821L125.805 423.96L139.581 444.077L153.358 423.96L272.586 249.821L278.518 241.159L273.276 232.069ZM139.581 414.536L99.9593 356.668L139.581 321.419L179.204 356.668L139.581 414.536ZM152.507 285.32L174.569 304.941V337.642L139.587 306.521L104.605 337.642V304.941L126.667 285.32L139.593 273.826L152.507 285.32ZM107.41 182.706L139.581 154.084L171.759 182.706L139.581 211.324L107.41 182.706ZM159.201 276.38L147.955 266.377L180.133 237.754L212.305 266.377L180.127 295L159.201 276.38ZM180.133 222.856L145.146 253.977V221.276L180.133 190.161L185.697 195.107V195.101L215.12 221.276V253.977L180.133 222.856ZM174.563 170.312L139.581 139.191L104.6 170.312V137.611L139.581 106.491L174.563 137.611V170.312ZM134.017 221.276V253.977L99.0357 222.856L64.0484 253.977V221.276L93.4715 195.107L96.6431 192.286L99.0357 190.161L134.017 221.276ZM99.0357 237.754L131.207 266.377L119.962 276.38L99.0357 294.994L66.8583 266.371L99.0357 237.754ZM185.691 347.194V304.941L220.679 273.821L226.243 268.869V263.874V216.275L185.691 180.203V132.61L139.581 91.5925L93.4715 132.61V180.209L52.9202 216.275V263.874V268.869L58.4843 273.815L93.4771 304.935V347.182L20.3533 240.391L139.581 33.4348L258.81 240.391L185.691 347.194Z" fill="#2F354B"/>
</svg>
