<svg width="98" height="13" viewBox="0 0 98 13" fill="none" xmlns="http://www.w3.org/2000/svg">
<path d="M11.6503 7.40428C12.0525 7.92585 12.2544 8.55328 12.2544 9.2871C12.2544 10.3764 11.8039 11.2203 10.904 11.8176C10.0047 12.4155 8.70206 12.7149 6.99725 12.7149H0V0.282959H6.64227C8.29985 0.282959 9.55161 0.579279 10.3986 1.17143C11.245 1.76357 11.668 2.55035 11.668 3.53328C11.668 4.11349 11.5232 4.63453 11.2331 5.09642C10.9424 5.5583 10.5133 5.93093 9.94551 6.21532C10.6793 6.48726 11.2481 6.88375 11.6503 7.40428ZM4.12061 3.21307V5.06061H6.07452C6.98583 5.06061 7.44201 4.75286 7.44201 4.13736C7.44201 3.52186 6.98583 3.21358 6.07452 3.21358H4.12061V3.21307ZM8.0274 8.80811C8.0274 8.1568 7.56551 7.83087 6.64227 7.83087H4.12061V9.78481H6.64227C7.56551 9.78429 8.0274 9.4589 8.0274 8.80811Z" fill="white"/>
<path d="M19.8375 12.1652C18.7721 11.6088 17.9376 10.8361 17.3335 9.84744C16.73 8.85881 16.4279 7.74251 16.4279 6.49958C16.4279 5.25665 16.73 4.14086 17.3335 3.15222C17.9376 2.16359 18.7721 1.39084 19.8375 0.834503C20.9035 0.278168 22.1049 0 23.4428 0C24.7807 0 25.9826 0.278168 27.0476 0.834503C28.1135 1.39084 28.948 2.16359 29.5516 3.15222C30.1557 4.14086 30.4577 5.25665 30.4577 6.49958C30.4577 7.74251 30.1557 8.85881 29.5516 9.84744C28.948 10.8361 28.1135 11.6088 27.0476 12.1652C25.9821 12.721 24.7807 12.9997 23.4428 12.9997C22.1049 12.9997 20.9035 12.7215 19.8375 12.1652ZM24.8549 9.22572C25.2753 8.97143 25.6095 8.61022 25.8586 8.14263C26.1072 7.67504 26.2318 7.12753 26.2318 6.49958C26.2318 5.87215 26.1072 5.32463 25.8586 4.85704C25.61 4.38945 25.2753 4.02825 24.8549 3.77344C24.434 3.51914 23.9639 3.39199 23.4428 3.39199C22.9218 3.39199 22.4511 3.51914 22.0307 3.77344C21.6103 4.02825 21.2761 4.38945 21.027 4.85704C20.7784 5.32463 20.6539 5.87215 20.6539 6.49958C20.6539 7.12753 20.7784 7.67504 21.027 8.14263C21.2756 8.61022 21.6103 8.97143 22.0307 9.22572C22.4511 9.48053 22.9218 9.60768 23.4428 9.60768C23.9639 9.60768 24.434 9.48053 24.8549 9.22572Z" fill="white"/>
<path d="M43.4036 6.16197H47.0447V11.4191C46.3103 11.9282 45.4577 12.319 44.4872 12.5915C43.5162 12.8634 42.5628 12.9999 41.6277 12.9999C40.3012 12.9999 39.1112 12.7249 38.0577 12.1737C37.0042 11.6231 36.178 10.854 35.5806 9.86533C34.9828 8.8767 34.6833 7.75521 34.6833 6.49982C34.6833 5.24496 34.9823 4.12346 35.5806 3.13482C36.178 2.14619 37.013 1.37655 38.0847 0.825926C39.1558 0.2753 40.3666 0.000244141 41.7164 0.000244141C42.936 0.000244141 44.0279 0.204718 44.9927 0.613147C45.9574 1.02158 46.7598 1.61684 47.3991 2.39737L44.7176 4.75972C43.936 3.84789 43.0066 3.39223 41.9292 3.39223C41.0059 3.39223 40.2716 3.6704 39.7272 4.22674C39.1823 4.78307 38.9103 5.54077 38.9103 6.49982C38.9103 7.43553 39.1797 8.18699 39.7189 8.75578C40.2571 9.32405 40.9769 9.60844 41.8763 9.60844C42.4092 9.60844 42.9183 9.50776 43.4036 9.3064V6.16197Z" fill="white"/>
<path d="M54.9474 12.1652C53.8819 11.6088 53.0474 10.8361 52.4433 9.84744C51.8398 8.85881 51.5377 7.74251 51.5377 6.49958C51.5377 5.25665 51.8398 4.14086 52.4433 3.15222C53.0474 2.16359 53.8819 1.39084 54.9474 0.834503C56.0133 0.278168 57.2147 0 58.5526 0C59.8905 0 61.0925 0.278168 62.1574 0.834503C63.2234 1.39084 64.0578 2.16359 64.6614 3.15222C65.2655 4.14086 65.5675 5.25665 65.5675 6.49958C65.5675 7.74251 65.2655 8.85881 64.6614 9.84744C64.0578 10.8361 63.2234 11.6088 62.1574 12.1652C61.0919 12.721 59.8905 12.9997 58.5526 12.9997C57.2147 12.9997 56.0133 12.7215 54.9474 12.1652ZM59.9647 9.22572C60.3851 8.97143 60.7193 8.61022 60.9684 8.14263C61.217 7.67504 61.3416 7.12753 61.3416 6.49958C61.3416 5.87215 61.217 5.32463 60.9684 4.85704C60.7198 4.38945 60.3851 4.02825 59.9647 3.77344C59.5439 3.51914 59.0737 3.39199 58.5526 3.39199C58.0316 3.39199 57.5609 3.51914 57.1405 3.77344C56.7201 4.02825 56.3859 4.38945 56.1368 4.85704C55.8882 5.32463 55.7637 5.87215 55.7637 6.49958C55.7637 7.12753 55.8882 7.67504 56.1368 8.14263C56.3854 8.61022 56.7201 8.97143 57.1405 9.22572C57.5609 9.48053 58.0316 9.60768 58.5526 9.60768C59.0737 9.60768 59.5444 9.48053 59.9647 9.22572Z" fill="white"/>
<path d="M72.8137 3.53375H69.1726V0.283447H80.6449V3.53375H77.0044V12.7154H72.8132V3.53375H72.8137Z" fill="white"/>
<path d="M92.7751 10.5489H88.0504L87.2159 12.7156H82.9536L88.3883 0.283691H92.5083L97.943 12.7156H93.6096L92.7751 10.5489ZM91.6204 7.53008L90.4128 4.40433L89.2051 7.53008H91.6204Z" fill="white"/>
</svg>
