<svg width="98" height="14" viewBox="0 0 98 14" fill="none" xmlns="http://www.w3.org/2000/svg">
<path d="M0.0374756 0.487305H5.41005C9.50554 0.487305 12.3239 3.07766 12.3239 6.85344C12.3239 10.6292 9.54958 13.2196 5.41005 13.2196H0.0374756V0.487305ZM5.27794 11.639C8.44864 11.639 10.4744 9.70722 10.4744 6.85344C10.4744 3.99966 8.44864 2.06786 5.27794 2.06786H1.84301V11.639H5.27794Z" fill="white"/>
<path d="M28.0015 11.639V13.2196H18.7536V0.487305H27.7813V2.06786H20.6032V5.97535H26.9886V7.512H20.6032V11.639H28.0015Z" fill="white"/>
<path d="M45.528 0.487305L39.9352 13.2196H38.1297L32.4929 0.487305H34.4745L39.0544 10.9365L43.6784 0.487305H45.528Z" fill="white"/>
<path d="M49.6241 6.85331C49.6241 3.07754 52.4865 0.355469 56.4059 0.355469C58.3876 0.355469 60.105 1.01403 61.25 2.33117L60.061 3.47268C59.0922 2.41897 57.8591 1.97993 56.4499 1.97993C53.5875 1.97993 51.4296 4.04343 51.4296 6.85331C51.4296 9.66319 53.5434 11.7267 56.4499 11.7267C57.8591 11.7267 59.0481 11.2438 60.061 10.19L61.25 11.3316C60.061 12.6487 58.3876 13.3512 56.3618 13.3512C52.5306 13.3512 49.6241 10.6291 49.6241 6.85331Z" fill="white"/>
<path d="M66.1819 6.85331C66.1819 3.12144 69.0444 0.355469 73.0078 0.355469C76.8831 0.355469 79.7896 3.12144 79.7896 6.85331C79.7896 10.5852 76.9271 13.3512 73.0078 13.3512C69.0884 13.3512 66.1819 10.5852 66.1819 6.85331ZM77.94 6.85331C77.94 4.04343 75.8262 1.97993 73.0078 1.97993C70.1453 1.97993 68.0315 4.04343 68.0315 6.85331C68.0315 9.66319 70.1453 11.7267 73.0078 11.7267C75.8262 11.7706 77.94 9.66319 77.94 6.85331Z" fill="white"/>
<path d="M97.1841 0.487305V13.2196H95.6868L88.0243 3.73623V13.2196H86.2188V0.487305H87.716L95.3786 9.97065V0.487305H97.1841Z" fill="white"/>
</svg>
