<svg width="698" height="493" viewBox="0 0 698 493" fill="none" xmlns="http://www.w3.org/2000/svg">
<path d="M386.359 -261.817L385.492 -263.319L384.626 -261.817L283.583 -86.5676L282.718 -85.0681H284.449H486.551H488.282L487.417 -86.5677L386.359 -261.817ZM240.296 582.237H238.398L239.471 583.803L267.538 624.762L267.836 625.197H268.363H502.622H503.149L503.447 624.762L531.514 583.803L532.586 582.237H530.689H240.296ZM384.667 795.678L385.492 796.881L386.317 795.677L482.297 655.605L483.369 654.039H481.472H289.497H287.6L288.673 655.605L384.667 795.678ZM551.824 553.394H552.351L552.648 552.96L717.143 312.956L717.499 312.437L717.184 311.891L505.202 -55.7248L504.913 -56.2253H504.336H266.664H266.087L265.798 -55.7248L53.8159 311.891L53.5013 312.437L53.8573 312.956L218.336 552.96L218.634 553.394H219.161H551.824ZM237.667 188.438L238.44 188.149L238.303 187.336C236.982 179.496 236.14 171.519 236.14 163.337C236.14 83.2359 301.381 18.0644 381.571 18.0644C461.762 18.0644 527.003 83.2359 527.003 163.337C527.003 171.519 526.161 179.512 524.84 187.336L524.703 188.149L525.475 188.438C580.648 209.102 620.08 262.16 620.08 324.383C620.08 404.483 554.839 469.655 474.648 469.655C439.567 469.655 407.354 457.188 382.207 436.45L381.571 435.925L380.935 436.45C355.788 457.188 323.576 469.655 288.494 469.655C208.304 469.655 143.063 404.483 143.063 324.383C143.063 262.16 182.495 209.102 237.667 188.438ZM495.655 180.796L496.647 180.94L496.789 179.948C497.564 174.523 498.111 169.013 498.111 163.337C498.111 99.1391 445.821 46.9073 381.556 46.9073C317.291 46.9073 265.001 99.1391 265.001 163.337C265.001 169.013 265.547 174.538 266.323 179.949L266.466 180.942L267.458 180.796C274.359 179.783 281.333 179.095 288.479 179.095C323.56 179.095 355.773 191.561 380.92 212.3L381.556 212.825L382.192 212.3C407.339 191.561 439.551 179.095 474.633 179.095C481.778 179.095 488.751 179.798 495.655 180.796ZM380.766 393.092L381.571 394.187L382.377 393.092C396.56 373.807 405.049 350.099 405.049 324.383C405.049 318.721 404.503 313.196 403.727 307.771L403.585 306.777L402.592 306.923C395.691 307.937 388.717 308.624 381.571 308.624C374.426 308.624 367.453 307.921 360.549 306.923L359.557 306.78L359.415 307.771C358.64 313.196 358.093 318.706 358.093 324.383C358.093 350.099 366.582 373.807 380.766 393.092ZM367.981 277.654L367.431 278.905L368.79 279.051C372.985 279.501 377.236 279.781 381.571 279.781C385.891 279.781 390.157 279.501 394.353 279.051L395.712 278.905L395.161 277.654C391.718 269.825 387.388 262.498 382.377 255.689L381.57 254.593L380.765 255.69C375.771 262.497 371.425 269.824 367.981 277.654ZM338.281 271.367L339.21 271.739L339.581 270.81C344.856 257.622 351.971 245.385 360.663 234.45L361.288 233.664L360.5 233.043C340.648 217.397 315.67 207.969 288.479 207.969C284.146 207.969 279.894 208.233 275.694 208.7L274.34 208.85L274.889 210.097C287.144 237.909 309.971 260.012 338.281 271.367ZM402.627 233.012L401.84 233.633L402.463 234.418C411.157 245.385 418.286 257.623 423.545 270.779L423.917 271.708L424.846 271.336C453.156 259.981 475.983 237.879 488.238 210.066L488.79 208.814L487.43 208.668C483.234 208.218 478.983 207.938 474.648 207.938C447.457 207.938 422.479 217.366 402.627 233.012ZM246.505 216.925L246.133 215.995L245.204 216.368C202.323 233.57 171.924 275.457 171.924 324.383C171.924 388.596 224.214 440.827 288.479 440.827C315.67 440.827 340.648 431.399 360.5 415.753L361.287 415.133L360.664 414.347C341.021 389.578 329.201 358.351 329.201 324.383C329.201 316.202 330.059 308.224 331.365 300.381L331.5 299.569L330.729 299.281C292.35 284.914 261.653 254.878 246.505 216.925ZM402.463 414.331L401.84 415.117L402.627 415.738C422.479 431.384 447.457 440.812 474.648 440.812C538.913 440.812 591.203 388.58 591.203 324.383C591.203 275.457 560.804 233.57 517.924 216.353L516.994 215.979L516.622 216.91C501.474 254.862 470.777 284.899 432.398 299.265L431.626 299.555L431.763 300.368C433.084 308.208 433.926 316.185 433.926 324.367C433.926 358.351 422.106 389.563 402.463 414.331ZM1.18084 314.458L385.492 -351.998L769.819 314.458L385.508 875.231L1.18084 314.458Z" stroke="white" stroke-width="2"/>
</svg>
