<svg width="770" height="1176" viewBox="0 0 770 1176" fill="none" xmlns="http://www.w3.org/2000/svg">
<path d="M422.358 1119.72L385.008 1174.23L347.657 1119.72L17.2609 637.387L16.4359 637.952L17.2609 637.387L1.18073 613.914L15.3903 589.266L345.787 16.0398L385.008 -51.9974L424.213 16.0396L425.08 15.5404L424.213 16.0397L754.609 589.282L755.476 588.782L754.61 589.282L768.819 613.915L752.739 637.387L422.358 1119.72ZM159.023 763.274H157.126L158.199 764.84L185.92 805.288L186.218 805.723H186.745H335.3H335.881L336.168 805.217L359.203 764.769L360.054 763.274H358.334H159.023ZM384.139 717.942L385.008 719.467L385.877 717.942L477.322 557.427L477.604 556.932L477.322 556.437L385.877 395.953L385.008 394.428L384.139 395.953L292.694 556.452L292.412 556.947L292.694 557.443L384.139 717.942ZM495.053 587.578L494.184 586.053L493.315 587.578L410.488 732.961L409.637 734.456H411.357H577.026H578.747L577.895 732.961L495.053 587.578ZM399.239 805.723H400.96L400.108 804.227L385.861 779.234L384.992 777.71L384.123 779.234L369.877 804.227L369.025 805.723H370.746H399.239ZM358.643 734.456H360.364L359.512 732.961L276.669 587.594L275.801 586.069L274.932 587.594L192.105 732.961L191.253 734.456H192.974H358.643ZM384.183 1094.74L385.008 1095.95L385.833 1094.74L563.003 836.106L564.075 834.54H562.178H452.293H317.738H207.837H205.94L207.012 836.106L384.183 1094.74ZM583.27 805.723H583.798L584.095 805.288L611.503 765.274H611.504L611.802 764.839L613.297 762.654L716.214 612.399L716.57 611.88L716.255 611.335L385.874 38.1081L385.008 36.605L384.141 38.1081L53.6986 611.335L53.3843 611.88L53.74 612.399L147.745 749.631L148.648 750.949L149.439 749.561L258.908 557.427L259.19 556.932L258.908 556.437L224.325 495.741L223.456 494.216L222.587 495.741L110.748 692.049L92.6395 665.609L223.471 435.974L274.932 526.286L275.801 527.811L276.669 526.286L384.992 336.17L493.315 526.286L494.184 527.811L495.053 526.286L546.498 435.974L677.33 665.609L659.221 692.049L547.367 495.741L546.498 494.216L545.629 495.741L511.046 556.437L510.764 556.932L511.046 557.427L620.205 749.017L611.661 761.504L610.448 763.274H411.666H409.945L410.797 764.769L433.847 805.218L434.135 805.723H434.716H583.27Z" stroke="white" stroke-width="2"/>
</svg>
