<svg width="255" height="254" viewBox="0 0 255 254" fill="none" xmlns="http://www.w3.org/2000/svg">
<path d="M127.273 238.225V15.7793L16.0522 127.001L127.273 238.225Z" fill="url(#paint0_linear_9381_76175)"/>
<path d="M238.498 127.001L127.273 15.7793V238.225L238.498 127.001Z" fill="url(#paint1_linear_9381_76175)"/>
<path opacity="0.2" d="M140.81 29.3156L127.274 15.7793L113.737 29.3156C118.096 28.3079 122.614 27.7277 127.274 27.7277C131.933 27.7277 136.452 28.3116 140.81 29.3156V29.3156Z" fill="#F58F21"/>
<path opacity="0.2" d="M183.308 110.048C188.075 114.73 192.203 120.029 195.687 125.771C201.031 116.135 204.337 105.25 205.174 93.6813L185.955 74.4626C186.963 78.8211 187.543 83.3394 187.543 87.999C187.543 95.7861 186.007 103.209 183.308 110.048V110.048Z" fill="#F58F21"/>
<path opacity="0.2" d="M71.2422 110.044C68.5387 103.205 67.0065 95.7828 67.0065 87.9956C67.0065 83.336 67.5904 78.814 68.5944 74.4556L49.3721 93.6779C50.2125 105.247 53.5185 116.132 58.8587 125.767C62.3432 120.025 66.471 114.722 71.2422 110.044Z" fill="#F58F21"/>
<path opacity="0.4" d="M72.7267 108.696C77.4756 104.26 82.7265 100.359 88.4459 97.1717C87.7468 94.219 87.3415 91.1584 87.3415 87.9975C87.3415 65.9748 105.255 48.0615 127.277 48.0615C149.3 48.0615 167.213 65.9748 167.213 87.9975C167.213 91.1584 166.804 94.2227 166.109 97.1717C171.828 100.359 177.079 104.26 181.828 108.696C184.283 102.252 185.688 95.29 185.688 87.9937C185.688 82.397 184.852 77.001 183.375 71.8728L143.398 31.896C138.27 30.4196 132.874 29.5829 127.281 29.5829C121.688 29.5829 116.288 30.4196 111.16 31.896L71.1871 71.8691C69.7107 76.9973 68.874 82.397 68.874 87.9937C68.874 95.29 70.276 102.248 72.7341 108.692L72.7267 108.696Z" fill="#F58F21"/>
<path opacity="0.6" d="M107.033 87.9936C107.033 76.8298 116.11 67.7485 127.274 67.7485C138.438 67.7485 147.519 76.8298 147.519 87.9936C147.519 88.5811 147.478 89.1613 147.43 89.7377C153.383 91.2921 159.084 93.4602 164.417 96.2678C165.012 93.6015 165.35 90.8384 165.35 87.9936C165.35 66.9973 148.266 49.917 127.274 49.917C106.281 49.917 89.1973 67.0011 89.1973 87.9936C89.1973 90.8384 89.5357 93.6015 90.127 96.2678C95.4634 93.4602 101.161 91.2884 107.118 89.7339C107.07 89.1575 107.033 88.5811 107.033 87.9936V87.9936Z" fill="#F58F21"/>
<path opacity="0.2" d="M183.308 145.063C186.011 151.902 187.543 159.324 187.543 167.111C187.543 171.239 187.123 175.27 186.327 179.168L205.122 160.377C204.163 149.198 200.868 138.685 195.687 129.34C192.203 135.082 188.075 140.381 183.308 145.063V145.063Z" fill="#F58F21"/>
<path opacity="0.2" d="M71.2429 145.066C66.4754 140.384 62.3438 135.085 58.8593 129.343C53.6791 138.689 50.3842 149.202 49.4248 160.38L68.2195 179.175C67.4274 175.278 67.0035 171.243 67.0035 167.115C67.0035 159.328 68.5356 151.905 71.2392 145.066H71.2429Z" fill="#F58F21"/>
<path opacity="0.2" d="M115.213 226.166L127.273 238.226L139.333 226.166C135.436 226.962 131.401 227.382 127.273 227.382C123.146 227.382 119.111 226.962 115.213 226.166V226.166Z" fill="#F58F21"/>
<path opacity="0.4" d="M182.58 143.213C187.236 138.55 191.237 133.262 194.603 127.554C191.237 121.845 187.232 116.557 182.58 111.894C180.088 117.639 176.7 122.898 172.636 127.55C176.7 132.206 180.084 137.464 182.58 143.21V143.213Z" fill="#F58F21"/>
<path opacity="0.4" d="M81.9198 127.554C77.8551 122.898 74.471 117.639 71.9757 111.894C67.3198 116.557 63.3147 121.845 59.9492 127.554C63.3184 133.262 67.3198 138.554 71.9757 143.213C74.471 137.468 77.8551 132.21 81.9198 127.554Z" fill="#F58F21"/>
<path opacity="0.6" d="M97.6532 114.686C93.6518 110.253 90.6285 104.936 88.929 99.0487C83.2802 102.243 78.085 106.129 73.418 110.573C75.8277 116.304 79.1598 121.54 83.176 126.17C87.382 121.644 92.2461 117.754 97.657 114.682L97.6532 114.686Z" fill="#F58F21"/>
<path opacity="0.6" d="M171.378 126.173C175.394 121.544 178.722 116.308 181.136 110.577C176.469 106.129 171.274 102.243 165.621 99.0487C163.922 104.936 160.895 110.253 156.897 114.686C162.308 117.754 167.172 121.648 171.378 126.173Z" fill="#F58F21"/>
<path opacity="0.8" d="M120.892 107.19C113.956 104.877 108.691 98.9153 107.371 91.5894C101.491 93.1401 95.8572 95.297 90.6025 98.1009C92.2388 104.029 95.2696 109.365 99.3268 113.764C105.902 110.306 113.176 108.008 120.892 107.19Z" fill="#F58F21"/>
<path opacity="0.8" d="M133.658 107.19C141.375 108.008 148.649 110.306 155.223 113.764C159.281 109.369 162.311 104.029 163.948 98.1009C158.693 95.297 153.063 93.1401 147.183 91.5894C145.863 98.9153 140.597 104.877 133.662 107.19H133.658Z" fill="#F58F21"/>
<path opacity="0.4" d="M181.824 146.413C177.076 150.853 171.825 154.75 166.105 157.937C166.804 160.89 167.21 163.95 167.21 167.111C167.21 189.134 149.296 207.047 127.274 207.047C105.251 207.047 87.3377 189.134 87.3377 167.111C87.3377 163.95 87.743 160.886 88.4422 157.937C82.7227 154.75 77.4718 150.853 72.7229 146.413C70.2685 152.857 68.8628 159.815 68.8628 167.111C68.8628 172.173 69.5768 177.059 70.7928 181.748L112.633 223.588C117.318 224.804 122.205 225.519 127.27 225.519C132.335 225.519 137.218 224.804 141.903 223.588L183.751 181.741C184.967 177.055 185.681 172.173 185.681 167.111C185.681 159.815 184.275 152.854 181.821 146.409L181.824 146.413Z" fill="#F58F21"/>
<path opacity="0.6" d="M156.897 140.421C160.898 144.857 163.922 150.171 165.621 156.062C171.274 152.867 176.469 148.981 181.136 144.534C178.726 138.803 175.394 133.567 171.378 128.937C167.172 133.463 162.304 137.356 156.893 140.424L156.897 140.421Z" fill="#F58F21"/>
<path opacity="0.6" d="M83.1726 128.934C79.1563 133.567 75.8243 138.803 73.4146 144.534C78.0816 148.982 83.2768 152.864 88.9256 156.062C90.6288 150.172 93.6521 144.857 97.6536 140.421C92.2427 137.353 87.3786 133.463 83.1726 128.934Z" fill="#F58F21"/>
<path opacity="0.8" d="M98.925 139.019C105.013 132.875 113.082 128.729 122.078 127.554C113.082 126.378 105.013 122.228 98.925 116.085C93.4919 119.116 88.6203 123.013 84.4292 127.55C88.624 132.09 93.4956 135.984 98.9287 139.019H98.925Z" fill="#F58F21"/>
<path opacity="0.8" d="M132.469 127.554C141.465 128.729 149.535 132.879 155.622 139.019C161.059 135.988 165.927 132.09 170.122 127.55C165.927 123.013 161.055 119.116 155.622 116.085C149.535 122.228 141.465 126.378 132.465 127.554H132.469Z" fill="#F58F21"/>
<path opacity="0.9" d="M153.885 115.18C145.894 111.067 136.861 108.702 127.274 108.702C117.687 108.702 108.654 111.067 100.662 115.18C107.534 121.907 116.921 126.072 127.274 126.072C137.627 126.072 147.013 121.907 153.885 115.18V115.18Z" fill="#F58F21"/>
<path opacity="0.6" d="M147.522 167.114C147.522 178.278 138.441 187.356 127.277 187.356C116.113 187.356 107.036 178.278 107.036 167.114C107.036 166.527 107.073 165.947 107.121 165.374C101.164 163.82 95.4668 161.651 90.1304 158.84C89.5354 161.506 89.2007 164.269 89.2007 167.114C89.2007 188.111 106.285 205.191 127.277 205.191C148.27 205.191 165.354 188.107 165.354 167.114C165.354 164.269 165.015 161.506 164.42 158.84C159.088 161.648 153.387 163.82 147.433 165.37C147.481 165.947 147.522 166.523 147.522 167.114V167.114Z" fill="#F58F21"/>
<path opacity="0.8" d="M120.892 147.913C113.176 147.099 105.902 144.797 99.3268 141.342C95.2696 145.738 92.2388 151.078 90.6025 157.006C95.8609 159.81 101.491 161.967 107.371 163.517C108.691 156.188 113.956 150.226 120.892 147.913Z" fill="#F58F21"/>
<path opacity="0.8" d="M133.658 147.913C140.594 150.226 145.859 156.188 147.179 163.517C153.059 161.967 158.689 159.81 163.944 157.006C162.307 151.078 159.277 145.738 155.219 141.342C148.645 144.801 141.371 147.099 133.654 147.913H133.658Z" fill="#F58F21"/>
<path opacity="0.9" d="M100.666 139.927C108.658 144.04 117.687 146.405 127.274 146.405C136.861 146.405 145.89 144.04 153.882 139.931C147.009 133.203 137.623 129.042 127.274 129.042C116.925 129.042 107.535 133.207 100.666 139.931V139.927Z" fill="#F58F21"/>
<path d="M246.386 119.112L135.161 7.88753L127.273 0L119.386 7.88753L8.16468 119.112L0.273438 127L8.16468 134.888L119.39 246.112L127.277 254L135.165 246.112L246.39 134.888L254.281 127L246.39 119.112H246.386ZM59.9449 127.554C63.3142 121.846 67.3156 116.554 71.9715 111.894C74.4631 117.64 77.8509 122.898 81.9155 127.554C77.8509 132.21 74.4668 137.468 71.9715 143.214C67.3193 138.551 63.3142 133.262 59.9449 127.554ZM100.666 139.926C107.538 133.203 116.924 129.038 127.273 129.038C137.623 129.038 147.013 133.203 153.881 139.926C145.89 144.036 136.86 146.401 127.273 146.401C117.686 146.401 108.657 144.036 100.666 139.923V139.926ZM116.407 167.114C116.407 166.832 116.47 166.572 116.489 166.296C116.511 165.984 116.534 165.672 116.582 165.367C117.422 160.201 121.87 156.248 127.273 156.248C132.677 156.248 137.124 160.201 137.965 165.367C138.013 165.672 138.036 165.984 138.058 166.296C138.08 166.572 138.14 166.836 138.14 167.114C138.14 167.152 138.129 167.185 138.129 167.219C138.069 173.169 133.238 177.981 127.273 177.981C121.309 177.981 116.474 173.172 116.418 167.219C116.418 167.181 116.407 167.148 116.407 167.114V167.114ZM153.885 115.182C147.013 121.909 137.623 126.074 127.273 126.074C116.924 126.074 107.534 121.909 100.662 115.182C108.654 111.069 117.683 108.704 127.273 108.704C136.864 108.704 145.893 111.069 153.885 115.182ZM138.143 87.9975C138.143 88.2801 138.08 88.5404 138.062 88.8156C138.039 89.128 138.017 89.4403 137.969 89.7453C137.124 94.9107 132.681 98.8637 127.277 98.8637C121.874 98.8637 117.43 94.9107 116.586 89.7453C116.537 89.4403 116.515 89.128 116.493 88.8156C116.47 88.5404 116.411 88.2764 116.411 87.9975C116.411 87.9603 116.422 87.9305 116.422 87.8933C116.478 81.9396 121.312 77.1312 127.277 77.1312C133.242 77.1312 138.076 81.9433 138.132 87.8933C138.132 87.9305 138.143 87.9603 138.143 87.9975ZM133.659 107.194C140.594 104.881 145.86 98.9232 147.18 91.5935C153.059 93.1442 158.69 95.3011 163.944 98.1051C162.308 104.033 159.281 109.369 155.22 113.769C148.645 110.31 141.371 108.012 133.655 107.194H133.659ZM120.888 107.194C113.172 108.012 105.898 110.31 99.3231 113.769C95.2659 109.373 92.2388 104.033 90.5988 98.1051C95.8572 95.3011 101.487 93.1442 107.367 91.5935C108.687 98.9195 113.953 104.881 120.888 107.194ZM122.075 127.558C113.083 128.733 105.013 132.883 98.9215 139.023C93.4883 135.992 88.6167 132.095 84.422 127.554C88.6167 123.017 93.4846 119.12 98.9177 116.089C105.005 122.233 113.075 126.379 122.071 127.558H122.075ZM120.888 147.918C113.953 150.231 108.687 156.192 107.367 163.522C101.487 161.971 95.8535 159.815 90.5988 157.011C92.2351 151.083 95.2659 145.743 99.3231 141.347C105.898 144.806 113.172 147.104 120.888 147.918ZM133.659 147.918C141.375 147.1 148.649 144.802 155.224 141.347C159.281 145.743 162.312 151.083 163.948 157.011C158.693 159.815 153.063 161.971 147.184 163.522C145.864 156.192 140.598 150.231 133.662 147.918H133.659ZM132.469 127.558C141.464 126.383 149.534 122.233 155.625 116.089C161.059 119.12 165.93 123.017 170.125 127.554C165.93 132.095 161.059 135.992 155.625 139.023C149.538 132.879 141.468 128.733 132.472 127.558H132.469ZM171.378 126.178C167.172 121.652 162.308 117.759 156.897 114.691C160.895 110.254 163.922 104.94 165.621 99.0534C171.274 102.248 176.469 106.134 181.136 110.582C178.726 116.312 175.394 121.548 171.378 126.178V126.178ZM147.433 89.7416C147.481 89.1651 147.522 88.5887 147.522 87.9975C147.522 76.8337 138.441 67.7524 127.277 67.7524C116.113 67.7524 107.036 76.8337 107.036 87.9975C107.036 88.585 107.073 89.1652 107.121 89.7378C101.164 91.2923 95.4667 93.4603 90.1303 96.2717C89.5353 93.6054 89.2006 90.8423 89.2006 87.9975C89.2006 67.0012 106.285 49.9209 127.277 49.9209C148.27 49.9209 165.354 67.0049 165.354 87.9975C165.354 90.8423 165.015 93.6054 164.42 96.2717C159.088 93.4641 153.387 91.2923 147.433 89.7416V89.7416ZM97.6534 114.691C92.2425 117.759 87.3784 121.649 83.1724 126.178C79.1562 121.548 75.8279 116.309 73.4144 110.582C78.0814 106.134 83.2766 102.252 88.9254 99.0571C90.6286 104.944 93.652 110.262 97.6496 114.695L97.6534 114.691ZM83.1724 128.937C87.3784 133.463 92.2425 137.357 97.6534 140.425C93.652 144.861 90.6286 150.175 88.9254 156.066C83.2766 152.872 78.0777 148.985 73.4144 144.538C75.8241 138.807 79.1562 133.571 83.1724 128.937V128.937ZM107.118 165.378C107.069 165.954 107.032 166.531 107.032 167.118C107.032 178.282 116.11 187.359 127.273 187.359C138.437 187.359 147.518 178.282 147.518 167.118C147.518 166.531 147.478 165.95 147.429 165.374C153.383 163.82 159.084 161.652 164.417 158.844C165.012 161.51 165.35 164.273 165.35 167.118C165.35 188.114 148.266 205.195 127.273 205.195C106.281 205.195 89.1969 188.111 89.1969 167.118C89.1969 164.273 89.5353 161.51 90.1266 158.844C95.463 161.652 101.16 163.823 107.118 165.378V165.378ZM156.894 140.425C162.304 137.357 167.172 133.463 171.378 128.937C175.394 133.567 178.723 138.803 181.136 144.534C176.469 148.982 171.274 152.868 165.621 156.062C163.922 150.175 160.895 144.858 156.897 140.421L156.894 140.425ZM172.631 127.558C176.696 122.902 180.08 117.647 182.575 111.902C187.228 116.565 191.233 121.853 194.598 127.562C191.233 133.27 187.231 138.558 182.575 143.221C180.084 137.476 176.696 132.217 172.631 127.562V127.558ZM67.0069 88.0012C67.0069 95.7883 68.539 103.211 71.2426 110.05C66.4751 114.732 62.3436 120.031 58.8591 125.773C53.5152 116.137 50.2092 105.253 49.3725 93.6835L68.5948 74.4611C67.587 78.8195 67.0069 83.3415 67.0069 88.0012V88.0012ZM68.8105 74.2491L70.9637 72.096L69.8778 73.1818L68.8105 74.2454V74.2491ZM49.4282 160.387C50.3877 149.209 53.6825 138.696 58.8628 129.35C62.3473 135.092 66.4751 140.395 71.2463 145.073C68.5428 151.912 67.0106 159.335 67.0106 167.122C67.0106 171.253 67.4309 175.285 68.2267 179.182L48.3312 159.286L48.5469 159.498L49.432 160.383L49.4282 160.387ZM186.328 179.178C187.123 175.281 187.544 171.25 187.544 167.122C187.544 159.335 186.008 151.912 183.308 145.073C188.075 140.391 192.203 135.092 195.688 129.35C200.872 138.696 204.163 149.209 205.122 160.387L185.692 179.818L186.328 179.182V179.178ZM205.174 93.6872C204.338 105.256 201.028 116.141 195.688 125.777C192.203 120.035 188.075 114.735 183.308 110.054C186.012 103.215 187.544 95.792 187.544 88.0049C187.544 83.3453 186.96 78.8269 185.956 74.4685L206.721 95.2379L206.059 94.576L205.174 93.6909V93.6872ZM184.673 73.1856L183.698 72.2112L185.636 74.1487L184.673 73.1856ZM127.273 15.7862L183.371 71.884C184.848 77.0122 185.684 82.4081 185.684 88.0049C185.684 95.3011 184.279 102.259 181.824 108.707C177.075 104.271 171.824 100.37 166.105 97.1828C166.804 94.2301 167.209 91.1696 167.209 88.0086C167.209 65.986 149.296 48.0726 127.273 48.0726C105.251 48.0726 87.3375 65.986 87.3375 88.0086C87.3375 91.1696 87.7428 94.2338 88.4419 97.1828C82.7225 100.37 77.4716 104.267 72.7227 108.707C70.2683 102.263 68.8626 95.3049 68.8626 88.0086C68.8626 82.4118 69.6993 77.0122 71.1757 71.884L111.149 31.9108C116.277 30.4345 121.673 29.5978 127.27 29.5978C132.866 29.5978 138.262 30.4345 143.387 31.9108L142.085 30.6093L140.802 29.3263C136.444 28.3185 131.926 27.7384 127.266 27.7384C122.606 27.7384 118.088 28.3222 113.73 29.3263L127.266 15.7899L127.273 15.7862ZM48.0449 95.0074L47.6023 95.4499C48.6808 107.052 52.262 117.915 57.7732 127.558C52.4256 136.918 48.8704 147.42 47.6841 158.639L16.0485 127.004L48.0449 95.0074V95.0074ZM127.273 238.225L70.7963 181.748C69.5803 177.062 68.8663 172.176 68.8663 167.114C68.8663 159.818 70.2683 152.86 72.7264 146.416C77.4753 150.852 82.7262 154.753 88.4457 157.94C87.7465 160.893 87.3412 163.953 87.3412 167.114C87.3412 189.137 105.255 207.05 127.277 207.05C149.3 207.05 167.213 189.137 167.213 167.114C167.213 163.953 166.804 160.889 166.109 157.94C171.828 154.753 177.079 150.852 181.828 146.416C184.282 152.86 185.688 159.822 185.688 167.118C185.688 172.179 184.974 177.062 183.758 181.748L184.081 181.424L141.583 223.923L141.907 223.595C137.221 224.811 132.335 225.525 127.273 225.525C122.212 225.525 117.326 224.811 112.636 223.595L113.942 224.897L115.213 226.169C119.111 226.964 123.142 227.385 127.273 227.385C131.405 227.385 135.436 226.964 139.333 226.169L127.273 238.229V238.225ZM205.784 159.71L206.007 159.487L206.859 158.636C205.673 147.416 202.121 136.911 196.774 127.554C202.281 117.911 205.866 107.049 206.945 95.4462L238.498 127L205.788 159.71H205.784Z" fill="#2F354B"/>
<path d="M137.965 165.365C137.125 160.2 132.677 156.247 127.274 156.247C121.87 156.247 117.422 160.2 116.582 165.365C116.534 165.67 116.511 165.982 116.489 166.295C116.467 166.57 116.407 166.834 116.407 167.113C116.407 167.15 116.418 167.184 116.418 167.217C116.478 173.167 121.309 177.979 127.274 177.979C133.238 177.979 138.073 173.171 138.129 167.217C138.129 167.18 138.14 167.146 138.14 167.113C138.14 166.83 138.077 166.57 138.058 166.295C138.036 165.982 138.013 165.67 137.965 165.365Z" fill="#F58F21"/>
<path d="M116.582 89.7463C117.426 94.9117 121.87 98.8647 127.274 98.8647C132.677 98.8647 137.121 94.9117 137.965 89.7463C138.013 89.4414 138.036 89.129 138.058 88.8166C138.08 88.5414 138.14 88.2774 138.14 87.9985C138.14 87.9613 138.129 87.9315 138.129 87.8944C138.069 81.9406 133.238 77.1322 127.274 77.1322C121.309 77.1322 116.474 81.9443 116.418 87.8944C116.418 87.9315 116.407 87.9613 116.407 87.9985C116.407 88.2811 116.47 88.5414 116.489 88.8166C116.511 89.129 116.534 89.4414 116.582 89.7463V89.7463Z" fill="#F58F21"/>
<rect width="179.061" height="26" transform="translate(109 235.615) rotate(-45)" fill="#2F354B"/>
<path d="M130.504 234.897L131.949 233.452C132.394 233.955 132.684 234.506 132.82 235.105C132.958 235.701 132.924 236.309 132.718 236.928C132.515 237.543 132.125 238.139 131.548 238.716C131.097 239.167 130.615 239.494 130.103 239.697C129.587 239.897 129.056 239.978 128.508 239.939C127.963 239.897 127.417 239.734 126.869 239.451C126.321 239.167 125.79 238.768 125.274 238.252L124.786 237.764C124.27 237.248 123.872 236.715 123.592 236.164C123.312 235.606 123.152 235.054 123.113 234.506C123.078 233.955 123.16 233.421 123.36 232.906C123.56 232.39 123.88 231.912 124.322 231.47C124.908 230.884 125.509 230.495 126.125 230.305C126.744 230.112 127.351 230.091 127.947 230.242C128.546 230.391 129.107 230.681 129.629 231.113L128.179 232.563C127.879 232.295 127.583 232.112 127.29 232.012C126.993 231.908 126.697 231.905 126.4 232.002C126.104 232.092 125.794 232.298 125.472 232.621C125.231 232.862 125.065 233.119 124.974 233.389C124.884 233.66 124.87 233.948 124.931 234.254C124.992 234.561 125.132 234.884 125.351 235.226C125.571 235.561 125.867 235.916 126.241 236.289L126.739 236.787C127.103 237.151 127.451 237.445 127.783 237.667C128.111 237.886 128.427 238.034 128.73 238.112C129.033 238.183 129.323 238.176 129.6 238.092C129.877 238.002 130.145 237.828 130.403 237.57C130.706 237.268 130.907 236.969 131.007 236.676C131.107 236.383 131.113 236.09 131.026 235.796C130.942 235.5 130.768 235.2 130.504 234.897ZM132.452 229.44L136.541 233.529L135.149 234.922L129.919 229.691L131.229 228.381L132.452 229.44ZM132.853 226.69L134.12 228.004C134.042 228.062 133.952 228.137 133.849 228.227C133.746 228.311 133.656 228.391 133.578 228.468C133.382 228.665 133.237 228.862 133.143 229.058C133.05 229.248 133.003 229.44 133.003 229.633C133.006 229.824 133.053 230.012 133.143 230.199C133.237 230.383 133.369 230.566 133.54 230.75L133.172 230.943C132.834 230.605 132.557 230.26 132.341 229.909C132.122 229.554 131.97 229.206 131.887 228.865C131.806 228.52 131.803 228.195 131.877 227.888C131.951 227.582 132.111 227.307 132.355 227.062C132.433 226.985 132.518 226.912 132.612 226.844C132.702 226.773 132.782 226.722 132.853 226.69ZM139.824 229.068L136.57 223.04L138.064 221.547L141.979 229.667C142.066 229.844 142.147 230.048 142.221 230.276C142.298 230.502 142.34 230.747 142.347 231.011C142.36 231.275 142.313 231.548 142.207 231.828C142.104 232.105 141.913 232.382 141.636 232.659C141.504 232.791 141.388 232.891 141.288 232.959C141.188 233.027 141.066 233.104 140.921 233.191L139.901 232.171C139.936 232.136 139.973 232.099 140.012 232.06C140.054 232.025 140.093 231.989 140.128 231.954C140.312 231.77 140.441 231.599 140.515 231.441C140.589 231.283 140.618 231.125 140.602 230.968C140.589 230.813 140.536 230.647 140.442 230.47L139.824 229.068ZM134.603 225.008L139.529 227.661L141.201 228.937L140.355 229.986L133.11 226.501L134.603 225.008ZM141.018 220.604L147.253 226.84L145.861 228.232L138.62 220.991L139.911 219.7L141.018 220.604ZM145.88 218.845L145.982 218.946C146.362 219.326 146.67 219.724 146.905 220.14C147.143 220.552 147.298 220.965 147.369 221.377C147.437 221.787 147.411 222.186 147.292 222.576C147.172 222.96 146.949 223.316 146.62 223.644C146.301 223.963 145.959 224.176 145.595 224.282C145.231 224.389 144.852 224.407 144.459 224.336C144.066 224.258 143.666 224.113 143.26 223.901C142.854 223.688 142.448 223.43 142.042 223.127L141.776 222.861C141.448 222.43 141.174 222.007 140.955 221.595C140.732 221.179 140.584 220.776 140.51 220.386C140.436 219.99 140.45 219.611 140.553 219.251C140.66 218.886 140.871 218.546 141.187 218.231C141.519 217.899 141.873 217.67 142.25 217.544C142.63 217.415 143.024 217.383 143.43 217.448C143.839 217.509 144.25 217.659 144.662 217.897C145.078 218.132 145.484 218.448 145.88 218.845ZM144.585 220.343L144.483 220.241C144.261 220.019 144.037 219.834 143.811 219.686C143.586 219.531 143.362 219.423 143.14 219.362C142.92 219.297 142.708 219.291 142.501 219.342C142.295 219.388 142.102 219.5 141.921 219.681C141.731 219.871 141.599 220.064 141.525 220.261C141.454 220.454 141.435 220.651 141.467 220.851C141.499 221.05 141.575 221.252 141.694 221.455C141.813 221.658 141.97 221.866 142.163 222.078L142.835 222.75C143.09 222.973 143.349 223.142 143.613 223.258C143.874 223.371 144.137 223.404 144.401 223.359C144.665 223.314 144.923 223.166 145.175 222.915C145.358 222.731 145.473 222.536 145.518 222.33C145.56 222.12 145.547 221.904 145.479 221.682C145.415 221.456 145.303 221.232 145.146 221.01C144.991 220.784 144.804 220.562 144.585 220.343ZM146.75 212.86L147.736 213.846L144.691 216.892L143.705 215.906L146.75 212.86ZM143.169 213.861L144.561 212.469L149.506 217.414C149.657 217.565 149.792 217.662 149.912 217.704C150.034 217.742 150.152 217.738 150.264 217.689C150.374 217.638 150.49 217.551 150.613 217.428C150.7 217.341 150.774 217.261 150.835 217.187C150.896 217.106 150.946 217.037 150.985 216.979L152.014 217.999C151.934 218.157 151.835 218.316 151.719 218.477C151.603 218.638 151.462 218.803 151.294 218.97C150.988 219.276 150.671 219.494 150.342 219.623C150.013 219.745 149.675 219.755 149.327 219.652C148.979 219.549 148.621 219.313 148.254 218.946L143.169 213.861ZM149.863 215.084L149.762 214.982C149.378 214.599 149.08 214.191 148.868 213.759C148.652 213.324 148.529 212.883 148.5 212.435C148.471 211.987 148.544 211.544 148.718 211.106C148.888 210.664 149.172 210.245 149.568 209.849C149.965 209.453 150.385 209.167 150.83 208.993C151.272 208.816 151.716 208.742 152.164 208.771C152.615 208.797 153.058 208.918 153.493 209.134C153.925 209.346 154.333 209.644 154.716 210.028L154.818 210.129C155.198 210.51 155.496 210.917 155.712 211.352C155.925 211.784 156.046 212.227 156.075 212.682C156.104 213.129 156.031 213.573 155.857 214.011C155.683 214.449 155.398 214.866 155.002 215.263C154.605 215.659 154.186 215.946 153.745 216.123C153.307 216.297 152.862 216.371 152.411 216.345C151.96 216.313 151.518 216.191 151.086 215.978C150.651 215.762 150.244 215.464 149.863 215.084ZM151.154 213.59L151.255 213.692C151.475 213.911 151.698 214.096 151.927 214.248C152.156 214.399 152.385 214.505 152.614 214.567C152.842 214.621 153.066 214.62 153.286 214.562C153.505 214.504 153.714 214.375 153.914 214.175C154.107 213.982 154.233 213.776 154.291 213.556C154.349 213.337 154.349 213.115 154.291 212.889C154.23 212.661 154.123 212.432 153.972 212.203C153.824 211.971 153.64 211.745 153.421 211.526L153.319 211.425C153.107 211.212 152.886 211.033 152.657 210.888C152.428 210.737 152.198 210.632 151.966 210.574C151.734 210.51 151.507 210.505 151.284 210.559C151.062 210.614 150.853 210.74 150.656 210.937C150.459 211.133 150.334 211.343 150.279 211.565C150.227 211.784 150.232 212.011 150.293 212.246C150.355 212.475 150.461 212.704 150.613 212.933C150.761 213.158 150.941 213.378 151.154 213.59ZM160.739 209.525C160.333 209.931 159.905 210.231 159.453 210.424C158.999 210.614 158.543 210.706 158.085 210.7C157.631 210.69 157.191 210.592 156.766 210.405C156.337 210.215 155.949 209.946 155.601 209.598L155.408 209.404C155.011 209.008 154.705 208.589 154.489 208.147C154.273 207.706 154.149 207.26 154.117 206.809C154.088 206.354 154.16 205.911 154.334 205.479C154.505 205.044 154.781 204.637 155.161 204.256C155.532 203.886 155.922 203.618 156.331 203.454C156.74 203.29 157.154 203.223 157.573 203.256C157.995 203.285 158.414 203.407 158.83 203.623C159.242 203.836 159.64 204.134 160.024 204.517L160.604 205.097L156.447 209.254L155.519 208.326L158.308 205.537L158.201 205.431C158.008 205.238 157.8 205.101 157.578 205.02C157.356 204.933 157.13 204.914 156.901 204.962C156.672 205.01 156.45 205.142 156.234 205.358C156.05 205.542 155.933 205.74 155.881 205.953C155.83 206.166 155.835 206.386 155.896 206.615C155.96 206.841 156.07 207.073 156.224 207.311C156.379 207.543 156.573 207.775 156.805 208.007L156.998 208.201C157.207 208.41 157.43 208.574 157.665 208.694C157.903 208.81 158.142 208.877 158.38 208.897C158.622 208.913 158.857 208.877 159.086 208.79C159.318 208.7 159.536 208.553 159.739 208.35C159.99 208.099 160.175 207.817 160.294 207.505C160.414 207.186 160.452 206.847 160.41 206.489L161.822 206.547C161.87 206.815 161.872 207.116 161.827 207.451C161.785 207.783 161.679 208.128 161.508 208.486C161.334 208.84 161.078 209.187 160.739 209.525ZM164.751 203.338C164.922 203.167 165.041 202.983 165.109 202.787C165.173 202.587 165.183 202.39 165.138 202.197C165.093 201.997 164.99 201.814 164.829 201.646L166.138 200.336C166.503 200.707 166.731 201.132 166.825 201.612C166.915 202.089 166.88 202.573 166.719 203.062C166.554 203.549 166.271 203.994 165.868 204.396C165.462 204.803 165.04 205.089 164.601 205.257C164.166 205.421 163.73 205.484 163.291 205.445C162.85 205.404 162.42 205.273 162.001 205.054C161.579 204.832 161.184 204.537 160.817 204.169L160.676 204.029C160.306 203.659 160.011 203.264 159.792 202.845C159.569 202.423 159.439 201.992 159.4 201.554C159.358 201.113 159.42 200.674 159.584 200.239C159.748 199.804 160.032 199.385 160.435 198.983C160.863 198.554 161.321 198.261 161.807 198.103C162.297 197.942 162.787 197.922 163.277 198.045C163.767 198.161 164.221 198.425 164.64 198.838L163.33 200.148C163.153 199.977 162.958 199.856 162.745 199.785C162.536 199.711 162.323 199.698 162.107 199.746C161.891 199.788 161.688 199.904 161.498 200.094C161.295 200.297 161.173 200.507 161.131 200.723C161.086 200.936 161.102 201.151 161.179 201.371C161.253 201.586 161.369 201.802 161.527 202.018C161.685 202.228 161.865 202.434 162.068 202.637L162.209 202.777C162.412 202.98 162.62 203.162 162.832 203.323C163.045 203.485 163.259 203.602 163.475 203.676C163.694 203.747 163.91 203.76 164.123 203.715C164.335 203.67 164.545 203.544 164.751 203.338ZM165.96 198.988L165.858 198.886C165.475 198.503 165.177 198.095 164.964 197.663C164.748 197.228 164.626 196.787 164.597 196.339C164.568 195.891 164.64 195.448 164.814 195.009C164.985 194.568 165.268 194.149 165.665 193.753C166.061 193.356 166.482 193.071 166.926 192.897C167.368 192.72 167.813 192.646 168.26 192.675C168.712 192.7 169.155 192.821 169.59 193.037C170.022 193.25 170.429 193.548 170.813 193.931L170.914 194.033C171.294 194.413 171.593 194.821 171.808 195.256C172.021 195.688 172.142 196.131 172.171 196.585C172.2 197.033 172.127 197.476 171.953 197.914C171.779 198.353 171.494 198.77 171.098 199.166C170.702 199.563 170.283 199.85 169.841 200.027C169.403 200.201 168.958 200.275 168.507 200.249C168.056 200.217 167.614 200.094 167.183 199.882C166.748 199.666 166.34 199.368 165.96 198.988ZM167.25 197.494L167.352 197.595C167.571 197.815 167.795 198 168.024 198.151C168.252 198.303 168.481 198.409 168.71 198.47C168.939 198.525 169.163 198.523 169.382 198.465C169.601 198.407 169.81 198.279 170.01 198.079C170.204 197.885 170.329 197.679 170.387 197.46C170.445 197.241 170.445 197.019 170.387 196.793C170.326 196.564 170.22 196.335 170.068 196.107C169.92 195.875 169.736 195.649 169.517 195.43L169.416 195.328C169.203 195.116 168.982 194.937 168.754 194.792C168.525 194.64 168.294 194.536 168.062 194.478C167.83 194.413 167.603 194.408 167.381 194.463C167.158 194.518 166.949 194.644 166.752 194.84C166.556 195.037 166.43 195.246 166.375 195.469C166.324 195.688 166.329 195.915 166.39 196.15C166.451 196.379 166.557 196.608 166.709 196.837C166.857 197.062 167.038 197.281 167.25 197.494ZM171.581 190.263L175.695 194.376L174.303 195.768L169.073 190.538L170.378 189.233L171.581 190.263ZM172.693 191.78L172.316 192.157C171.929 191.771 171.631 191.373 171.422 190.964C171.209 190.551 171.083 190.145 171.045 189.745C171.003 189.343 171.048 188.959 171.18 188.595C171.312 188.224 171.533 187.884 171.842 187.575C172.087 187.33 172.347 187.142 172.621 187.01C172.894 186.877 173.181 186.816 173.481 186.826C173.784 186.832 174.101 186.924 174.433 187.101C174.768 187.275 175.12 187.546 175.487 187.913L178.822 191.249L177.42 192.65L174.08 189.31C173.848 189.078 173.636 188.93 173.442 188.866C173.249 188.801 173.064 188.806 172.886 188.88C172.709 188.948 172.53 189.072 172.35 189.252C172.163 189.439 172.037 189.639 171.973 189.852C171.912 190.061 171.902 190.277 171.944 190.499C171.986 190.715 172.071 190.933 172.2 191.152C172.329 191.371 172.493 191.581 172.693 191.78ZM177.097 187.851L176.995 187.749C176.612 187.366 176.313 186.958 176.101 186.526C175.885 186.091 175.762 185.65 175.733 185.202C175.704 184.754 175.777 184.311 175.951 183.872C176.122 183.431 176.405 183.012 176.802 182.616C177.198 182.219 177.619 181.934 178.063 181.76C178.505 181.583 178.949 181.509 179.397 181.538C179.849 181.564 180.292 181.684 180.727 181.9C181.159 182.113 181.566 182.411 181.95 182.795L182.051 182.896C182.431 183.276 182.729 183.684 182.945 184.119C183.158 184.551 183.279 184.994 183.308 185.448C183.337 185.896 183.264 186.339 183.09 186.778C182.916 187.216 182.631 187.633 182.235 188.029C181.838 188.426 181.42 188.713 180.978 188.89C180.54 189.064 180.095 189.138 179.644 189.112C179.193 189.08 178.751 188.958 178.319 188.745C177.884 188.529 177.477 188.231 177.097 187.851ZM178.387 186.357L178.489 186.458C178.708 186.678 178.932 186.863 179.161 187.014C179.389 187.166 179.618 187.272 179.847 187.333C180.076 187.388 180.3 187.387 180.519 187.329C180.738 187.271 180.947 187.142 181.147 186.942C181.341 186.748 181.466 186.542 181.524 186.323C181.582 186.104 181.582 185.882 181.524 185.656C181.463 185.427 181.357 185.198 181.205 184.97C181.057 184.738 180.873 184.512 180.654 184.293L180.553 184.191C180.34 183.979 180.119 183.8 179.89 183.655C179.662 183.503 179.431 183.399 179.199 183.341C178.967 183.276 178.74 183.271 178.518 183.326C178.295 183.381 178.086 183.507 177.889 183.703C177.693 183.9 177.567 184.109 177.512 184.332C177.461 184.551 177.466 184.778 177.527 185.013C177.588 185.242 177.694 185.471 177.846 185.7C177.994 185.925 178.174 186.144 178.387 186.357ZM182.713 179.063L186.861 183.21L185.464 184.607L180.234 179.377L181.544 178.067L182.713 179.063ZM183.869 180.605L183.482 180.992C183.118 180.627 182.826 180.249 182.607 179.856C182.388 179.456 182.251 179.058 182.196 178.662C182.141 178.259 182.178 177.867 182.307 177.487C182.436 177.107 182.668 176.749 183.003 176.414C183.235 176.182 183.484 176.005 183.748 175.882C184.009 175.757 184.283 175.699 184.57 175.708C184.856 175.711 185.156 175.792 185.469 175.95C185.778 176.105 186.095 176.345 186.421 176.67L189.911 180.16L188.519 181.552L185.183 178.217C184.945 177.978 184.729 177.827 184.536 177.763C184.342 177.698 184.16 177.7 183.989 177.767C183.822 177.832 183.656 177.946 183.492 178.111C183.311 178.291 183.19 178.486 183.129 178.695C183.071 178.902 183.065 179.114 183.11 179.334C183.152 179.549 183.239 179.765 183.371 179.981C183.503 180.197 183.669 180.405 183.869 180.605ZM186.822 177.332L186.387 177.893C186.045 177.552 185.77 177.192 185.56 176.815C185.354 176.435 185.224 176.05 185.169 175.66C185.117 175.267 185.156 174.883 185.285 174.509C185.411 174.132 185.638 173.78 185.966 173.451C186.218 173.2 186.484 173.008 186.764 172.876C187.041 172.74 187.331 172.679 187.634 172.692C187.937 172.698 188.253 172.789 188.582 172.963C188.913 173.133 189.261 173.401 189.626 173.765L192.966 177.105L191.569 178.502L188.229 175.162C187.987 174.92 187.771 174.769 187.581 174.708C187.391 174.64 187.212 174.642 187.044 174.712C186.877 174.777 186.712 174.89 186.551 175.051C186.384 175.218 186.271 175.399 186.213 175.592C186.152 175.782 186.137 175.977 186.169 176.177C186.202 176.377 186.274 176.575 186.387 176.772C186.497 176.965 186.642 177.152 186.822 177.332ZM190.283 169.328L195.513 174.558L194.116 175.955L188.886 170.725L190.283 169.328ZM187.436 169.449C187.233 169.246 187.136 169.007 187.146 168.733C187.156 168.459 187.28 168.203 187.518 167.965C187.753 167.729 188.008 167.607 188.282 167.597C188.559 167.584 188.799 167.679 189.002 167.882C189.205 168.085 189.3 168.326 189.287 168.603C189.278 168.877 189.155 169.131 188.92 169.366C188.681 169.605 188.425 169.729 188.151 169.739C187.877 169.748 187.639 169.652 187.436 169.449ZM197.833 170.256C198.004 170.085 198.123 169.901 198.191 169.705C198.255 169.505 198.265 169.308 198.22 169.115C198.175 168.915 198.072 168.732 197.911 168.564L199.221 167.254C199.585 167.625 199.814 168.05 199.907 168.53C199.997 169.007 199.962 169.49 199.801 169.98C199.636 170.467 199.353 170.912 198.95 171.314C198.544 171.72 198.122 172.007 197.683 172.175C197.248 172.339 196.812 172.402 196.373 172.363C195.932 172.321 195.502 172.191 195.083 171.972C194.661 171.749 194.266 171.455 193.899 171.087L193.758 170.947C193.388 170.576 193.093 170.182 192.874 169.763C192.652 169.341 192.521 168.91 192.482 168.472C192.44 168.031 192.502 167.592 192.666 167.157C192.83 166.722 193.114 166.303 193.517 165.901C193.945 165.472 194.403 165.179 194.89 165.021C195.379 164.86 195.869 164.84 196.359 164.963C196.849 165.079 197.303 165.343 197.722 165.756L196.412 167.066C196.235 166.895 196.04 166.774 195.827 166.703C195.618 166.629 195.405 166.616 195.189 166.664C194.973 166.706 194.77 166.822 194.58 167.012C194.377 167.215 194.255 167.425 194.213 167.641C194.168 167.853 194.184 168.069 194.261 168.288C194.335 168.504 194.451 168.72 194.609 168.936C194.767 169.146 194.948 169.352 195.151 169.555L195.291 169.695C195.494 169.898 195.702 170.08 195.914 170.241C196.127 170.402 196.341 170.52 196.557 170.594C196.776 170.665 196.992 170.678 197.205 170.633C197.418 170.588 197.627 170.462 197.833 170.256ZM203.208 163.972C203.109 163.872 202.989 163.811 202.851 163.788C202.712 163.766 202.53 163.8 202.304 163.89C202.079 163.974 201.791 164.133 201.439 164.368C201.117 164.575 200.798 164.749 200.482 164.89C200.166 165.026 199.862 165.114 199.569 165.156C199.279 165.195 199.001 165.176 198.737 165.098C198.47 165.018 198.225 164.866 198.002 164.644C197.783 164.425 197.624 164.172 197.524 163.885C197.427 163.595 197.393 163.287 197.422 162.962C197.451 162.63 197.553 162.293 197.727 161.951C197.901 161.603 198.151 161.267 198.476 160.941C198.931 160.487 199.393 160.169 199.863 159.989C200.337 159.805 200.788 159.754 201.217 159.834C201.645 159.908 202.021 160.107 202.343 160.429L200.951 161.821C200.816 161.686 200.666 161.594 200.502 161.545C200.337 161.491 200.165 161.492 199.984 161.55C199.804 161.602 199.62 161.721 199.433 161.908C199.279 162.063 199.172 162.224 199.114 162.391C199.053 162.556 199.037 162.714 199.066 162.865C199.095 163.01 199.163 163.136 199.269 163.242C199.349 163.323 199.438 163.379 199.535 163.411C199.631 163.437 199.744 163.437 199.873 163.411C200.002 163.385 200.15 163.334 200.318 163.257C200.485 163.173 200.679 163.057 200.898 162.909C201.352 162.609 201.791 162.374 202.213 162.203C202.632 162.029 203.034 161.961 203.421 162C203.805 162.035 204.167 162.224 204.509 162.565C204.741 162.797 204.902 163.062 204.992 163.358C205.082 163.655 205.103 163.972 205.055 164.31C205.003 164.645 204.882 164.989 204.692 165.34C204.502 165.685 204.24 166.025 203.904 166.36C203.418 166.846 202.918 167.172 202.406 167.336C201.897 167.497 201.422 167.531 200.98 167.438C200.539 167.338 200.176 167.146 199.892 166.863L201.212 165.543C201.409 165.727 201.61 165.831 201.816 165.857C202.026 165.88 202.227 165.846 202.421 165.756C202.617 165.662 202.799 165.532 202.967 165.364C203.147 165.184 203.273 165.01 203.344 164.842C203.411 164.671 203.434 164.513 203.411 164.368C203.389 164.217 203.321 164.085 203.208 163.972Z" fill="white"/>
<defs>
<linearGradient id="paint0_linear_9381_76175" x1="71.6629" y1="15.7793" x2="71.6629" y2="238.225" gradientUnits="userSpaceOnUse">
<stop stop-color="#F8E828"/>
<stop offset="1" stop-color="#FFDE00"/>
</linearGradient>
<linearGradient id="paint1_linear_9381_76175" x1="182.887" y1="15.7793" x2="182.887" y2="238.225" gradientUnits="userSpaceOnUse">
<stop stop-color="#FFDE00"/>
<stop offset="1" stop-color="#C99200"/>
</linearGradient>
</defs>
</svg>
