<svg width="255" height="254" viewBox="0 0 255 254" fill="none" xmlns="http://www.w3.org/2000/svg">
<path d="M127.116 238.225V15.7793L15.8945 127.001L127.116 238.225Z" fill="url(#paint0_linear_9381_76180)"/>
<path d="M238.34 127.001L127.115 15.7793V238.225L238.34 127.001Z" fill="url(#paint1_linear_9381_76180)"/>
<path opacity="0.8" d="M127.115 151.978L142.451 129.576L127.115 102.949L111.778 129.576L127.115 151.978Z" fill="#156FB2"/>
<path opacity="0.4" d="M127.118 14.4614L37.6067 103.969L36.9521 104.619L36.9559 104.623L38.2649 103.314L38.9231 103.969L39.5813 104.627L60.4474 125.493L60.7746 125.824L125.6 60.9982L127.445 59.15L148.311 38.2839L148.969 37.6294L149.627 36.9712L127.118 14.4614Z" fill="#156FB2"/>
<path d="M58.9424 127.001L59.5225 127.581L58.9461 126.997L58.9424 127.001Z" fill="#B4B6BE"/>
<path opacity="0.2" d="M60.7773 128.454C60.0038 127.68 39.4278 107.104 38.2675 105.944L38.2601 105.951C37.9366 105.624 37.2783 104.955 36.9548 104.624L14.5752 127L103.361 215.785C103.688 215.454 104.343 214.792 104.67 214.461C104.968 214.16 125.32 193.569 125.603 193.283L60.7773 128.454ZM58.9439 127H58.9477L59.5204 127.58L58.9402 127H58.9439Z" fill="#156FB2"/>
<path d="M172.418 148.56L192.793 128.192L192.67 128.073L172.418 148.56Z" fill="#B4B6BE"/>
<path opacity="0.4" d="M215.63 151.026C214.63 150.025 193.991 129.386 192.793 128.189C179.577 141.271 105.986 215.777 105.986 215.777L105.328 215.119L104.673 215.781L104.015 215.123L103.36 215.785L127.12 239.54L216.939 149.717L215.627 151.029L215.63 151.026Z" fill="#156FB2"/>
<path d="M120.979 156.18L127.115 165.146C133.024 156.515 145.27 138.624 151.232 129.918C145.155 119.364 133.147 98.5205 127.115 88.0485C121.095 98.4982 109.068 119.383 102.999 129.918C105.044 132.904 118.622 152.74 120.976 156.18H120.979ZM127.115 102.95L142.452 129.576L127.115 151.978L111.779 129.576L127.115 102.95Z" fill="#2F354B"/>
<path d="M192.791 128.191C193.747 129.143 214.907 150.311 215.628 151.028L216.941 149.716L216.287 149.057L215.628 148.395C200.259 133.026 144.566 77.3332 128.23 60.9966C129.063 60.1636 150.479 38.7472 150.94 38.2861L149.624 36.9696C133.384 53.2095 77.9071 108.686 60.7709 125.822C60.4548 125.506 39.9123 104.964 39.5776 104.629C39.2541 104.306 38.5847 103.64 38.2649 103.316L36.9521 104.629C37.2757 104.956 37.9339 105.626 38.2574 105.957L38.2649 105.949C53.3185 121.003 109.55 177.238 125.6 193.288C124.775 194.125 104.816 214.318 104.013 215.129L104.671 215.787H104.667L105.326 216.442L192.791 128.191ZM75.4601 127.009L106.263 96.206V82.9746L126.913 62.3242L147.969 83.38V96.2097L178.771 127.012L147.969 157.815V170.663L126.906 191.972L106.259 171.325V157.815L75.4564 127.012L75.4601 127.009Z" fill="#2F354B"/>
<path opacity="0.2" d="M150.942 38.2847C150.492 38.7346 129.053 60.1734 128.231 60.9952L192.667 125.431C194.653 127.431 214.745 147.501 216.943 149.714L239.657 127L150.942 38.2847Z" fill="#156FB2"/>
<path d="M127.115 15.7788L238.34 127.004L127.115 238.229L15.894 127L127.115 15.7788ZM127.115 0L119.228 7.88753L8.00648 119.112L0.115234 127L8.00648 134.888L119.231 246.112L127.119 254L135.006 246.112L246.231 134.888L254.123 127L246.231 119.112L135.003 7.88753L127.115 0Z" fill="#2F354B"/>
<rect width="179.061" height="26" transform="translate(108 234.615) rotate(-45)" fill="#2F354B"/>
<path d="M129.92 238.151L128.388 239.683L127.266 238.543L128.789 237.02C129.169 236.64 129.404 236.234 129.494 235.802C129.581 235.367 129.525 234.917 129.325 234.453C129.129 233.986 128.795 233.517 128.325 233.047L127.982 232.703C127.621 232.343 127.265 232.064 126.913 231.867C126.565 231.667 126.224 231.548 125.889 231.509C125.553 231.471 125.231 231.513 124.922 231.635C124.609 231.754 124.313 231.954 124.032 232.235L122.457 233.81L121.321 232.674L122.896 231.099C123.367 230.628 123.878 230.279 124.429 230.05C124.98 229.814 125.547 229.702 126.13 229.711C126.713 229.721 127.289 229.855 127.856 230.113C128.423 230.364 128.958 230.741 129.461 231.244L129.794 231.577C130.294 232.077 130.671 232.612 130.925 233.182C131.183 233.749 131.317 234.324 131.326 234.908C131.336 235.484 131.223 236.052 130.988 236.609C130.753 237.16 130.397 237.674 129.92 238.151ZM122.171 231.824L129.209 238.862L127.759 240.312L120.721 233.274L122.171 231.824ZM136.615 231.65C136.209 232.056 135.78 232.355 135.329 232.549C134.874 232.739 134.418 232.831 133.961 232.824C133.506 232.815 133.067 232.716 132.641 232.529C132.213 232.339 131.824 232.07 131.476 231.722L131.283 231.529C130.887 231.132 130.58 230.714 130.365 230.272C130.149 229.831 130.025 229.384 129.992 228.933C129.963 228.479 130.036 228.036 130.21 227.604C130.381 227.169 130.656 226.761 131.036 226.381C131.407 226.01 131.797 225.743 132.206 225.578C132.615 225.414 133.03 225.348 133.448 225.38C133.871 225.409 134.29 225.532 134.705 225.748C135.118 225.96 135.516 226.258 135.899 226.642L136.479 227.222L132.322 231.379L131.394 230.451L134.183 227.662L134.077 227.555C133.884 227.362 133.676 227.225 133.453 227.145C133.231 227.058 133.005 227.038 132.777 227.087C132.548 227.135 132.325 227.267 132.11 227.483C131.926 227.667 131.808 227.865 131.757 228.078C131.705 228.29 131.71 228.511 131.771 228.74C131.836 228.965 131.945 229.197 132.1 229.436C132.255 229.668 132.448 229.9 132.68 230.132L132.873 230.325C133.083 230.535 133.305 230.699 133.54 230.818C133.779 230.934 134.017 231.002 134.256 231.021C134.497 231.037 134.733 231.002 134.961 230.915C135.193 230.825 135.411 230.678 135.614 230.475C135.865 230.224 136.051 229.942 136.17 229.629C136.289 229.31 136.328 228.972 136.286 228.614L137.697 228.672C137.746 228.94 137.747 229.241 137.702 229.576C137.66 229.908 137.554 230.253 137.383 230.61C137.209 230.965 136.953 231.311 136.615 231.65ZM140.153 225.888L137.098 220.513L138.553 219.058L142.019 226.052L141.139 226.932L140.153 225.888ZM135.14 222.47L140.525 225.525L141.559 226.511L140.675 227.396L133.681 223.93L135.14 222.47ZM146.843 221.421C146.437 221.828 146.008 222.127 145.557 222.321C145.103 222.511 144.647 222.603 144.189 222.596C143.735 222.586 143.295 222.488 142.869 222.301C142.441 222.111 142.053 221.842 141.705 221.494L141.511 221.301C141.115 220.904 140.809 220.485 140.593 220.044C140.377 219.602 140.253 219.156 140.221 218.705C140.192 218.251 140.264 217.807 140.438 217.376C140.609 216.941 140.884 216.533 141.265 216.153C141.635 215.782 142.025 215.515 142.434 215.35C142.844 215.186 143.258 215.12 143.677 215.152C144.099 215.181 144.518 215.304 144.933 215.519C145.346 215.732 145.744 216.03 146.127 216.414L146.707 216.994L142.55 221.151L141.622 220.223L144.411 217.434L144.305 217.327C144.112 217.134 143.904 216.997 143.682 216.916C143.459 216.829 143.234 216.81 143.005 216.858C142.776 216.907 142.554 217.039 142.338 217.255C142.154 217.438 142.036 217.637 141.985 217.849C141.933 218.062 141.938 218.283 141.999 218.512C142.064 218.737 142.173 218.969 142.328 219.208C142.483 219.44 142.676 219.672 142.908 219.904L143.101 220.097C143.311 220.307 143.533 220.471 143.769 220.59C144.007 220.706 144.245 220.774 144.484 220.793C144.726 220.809 144.961 220.774 145.19 220.687C145.422 220.597 145.639 220.45 145.842 220.247C146.094 219.996 146.279 219.714 146.398 219.401C146.517 219.082 146.556 218.744 146.514 218.386L147.926 218.444C147.974 218.711 147.975 219.013 147.93 219.348C147.888 219.68 147.782 220.025 147.611 220.382C147.437 220.737 147.181 221.083 146.843 221.421ZM143.73 209.492L151.154 216.916L149.758 218.313L142.333 210.889L143.73 209.492ZM149.521 213.426L149.419 213.325C149.036 212.941 148.738 212.534 148.525 212.102C148.309 211.667 148.187 211.226 148.158 210.778C148.129 210.33 148.201 209.887 148.375 209.448C148.546 209.007 148.829 208.588 149.226 208.192C149.622 207.795 150.043 207.51 150.487 207.336C150.929 207.159 151.374 207.085 151.822 207.114C152.273 207.139 152.716 207.26 153.151 207.476C153.583 207.689 153.99 207.987 154.374 208.37L154.475 208.472C154.855 208.852 155.154 209.26 155.369 209.695C155.582 210.127 155.703 210.57 155.732 211.024C155.761 211.472 155.689 211.915 155.514 212.353C155.34 212.792 155.055 213.209 154.659 213.605C154.263 214.002 153.844 214.288 153.402 214.466C152.964 214.64 152.519 214.714 152.068 214.688C151.617 214.656 151.175 214.533 150.744 214.321C150.309 214.105 149.901 213.807 149.521 213.426ZM150.811 211.933L150.913 212.034C151.132 212.253 151.356 212.439 151.585 212.59C151.813 212.742 152.042 212.848 152.271 212.909C152.5 212.964 152.724 212.962 152.943 212.904C153.162 212.846 153.372 212.718 153.571 212.518C153.765 212.324 153.89 212.118 153.948 211.899C154.006 211.68 154.006 211.458 153.948 211.232C153.887 211.003 153.781 210.774 153.629 210.546C153.481 210.314 153.297 210.088 153.078 209.869L152.977 209.767C152.764 209.555 152.543 209.376 152.315 209.231C152.086 209.079 151.855 208.975 151.623 208.917C151.391 208.852 151.164 208.847 150.942 208.902C150.719 208.957 150.51 209.083 150.313 209.279C150.117 209.476 149.991 209.685 149.936 209.908C149.885 210.127 149.89 210.354 149.951 210.589C150.012 210.818 150.118 211.047 150.27 211.275C150.418 211.501 150.599 211.72 150.811 211.933ZM155.06 204.561L161.296 210.797L159.904 212.189L152.663 204.948L153.953 203.657L155.06 204.561ZM159.923 202.802L160.024 202.903C160.405 203.284 160.712 203.682 160.948 204.097C161.186 204.51 161.341 204.922 161.412 205.335C161.479 205.744 161.454 206.144 161.334 206.534C161.215 206.917 160.991 207.273 160.662 207.602C160.343 207.921 160.002 208.134 159.638 208.24C159.274 208.346 158.895 208.364 158.502 208.293C158.109 208.216 157.709 208.071 157.303 207.858C156.897 207.645 156.491 207.388 156.085 207.085L155.819 206.819C155.49 206.387 155.216 205.965 154.997 205.552C154.775 205.137 154.627 204.734 154.553 204.344C154.478 203.948 154.493 203.569 154.596 203.208C154.702 202.844 154.914 202.504 155.229 202.188C155.561 201.856 155.916 201.627 156.293 201.502C156.673 201.373 157.066 201.341 157.472 201.405C157.881 201.466 158.292 201.616 158.705 201.855C159.12 202.09 159.526 202.406 159.923 202.802ZM158.627 204.3L158.526 204.199C158.304 203.977 158.08 203.791 157.854 203.643C157.628 203.488 157.404 203.38 157.182 203.319C156.963 203.255 156.75 203.248 156.544 203.3C156.338 203.345 156.144 203.458 155.964 203.638C155.774 203.828 155.642 204.022 155.568 204.218C155.497 204.412 155.477 204.608 155.51 204.808C155.542 205.008 155.618 205.209 155.737 205.412C155.856 205.615 156.012 205.823 156.206 206.036L156.878 206.708C157.132 206.93 157.392 207.099 157.656 207.215C157.917 207.328 158.179 207.362 158.444 207.317C158.708 207.272 158.966 207.123 159.217 206.872C159.401 206.688 159.515 206.493 159.56 206.287C159.602 206.078 159.589 205.862 159.522 205.639C159.457 205.414 159.346 205.19 159.188 204.967C159.033 204.742 158.847 204.52 158.627 204.3ZM165.965 202.299C165.559 202.705 165.13 203.005 164.679 203.198C164.225 203.388 163.769 203.48 163.311 203.474C162.857 203.464 162.417 203.366 161.992 203.179C161.563 202.989 161.175 202.72 160.827 202.372L160.633 202.178C160.237 201.782 159.931 201.363 159.715 200.922C159.499 200.48 159.375 200.034 159.343 199.583C159.314 199.128 159.386 198.685 159.56 198.253C159.731 197.818 160.007 197.411 160.387 197.03C160.757 196.66 161.147 196.392 161.557 196.228C161.966 196.064 162.38 195.998 162.799 196.03C163.221 196.059 163.64 196.181 164.056 196.397C164.468 196.61 164.866 196.908 165.25 197.291L165.83 197.872L161.673 202.029L160.745 201.1L163.534 198.311L163.427 198.205C163.234 198.012 163.026 197.875 162.804 197.794C162.581 197.707 162.356 197.688 162.127 197.736C161.898 197.785 161.676 197.917 161.46 198.133C161.276 198.316 161.159 198.514 161.107 198.727C161.056 198.94 161.06 199.161 161.122 199.389C161.186 199.615 161.296 199.847 161.45 200.085C161.605 200.317 161.798 200.549 162.03 200.781L162.224 200.975C162.433 201.184 162.656 201.349 162.891 201.468C163.129 201.584 163.368 201.651 163.606 201.671C163.848 201.687 164.083 201.651 164.312 201.564C164.544 201.474 164.761 201.328 164.964 201.125C165.216 200.873 165.401 200.591 165.52 200.279C165.64 199.96 165.678 199.621 165.636 199.264L167.048 199.322C167.096 199.589 167.098 199.89 167.053 200.226C167.011 200.557 166.904 200.902 166.734 201.26C166.56 201.614 166.303 201.961 165.965 202.299ZM166.11 193.782L170.199 197.872L168.807 199.264L163.577 194.034L164.887 192.724L166.11 193.782ZM166.511 191.032L167.778 192.347C167.7 192.405 167.61 192.479 167.507 192.569C167.404 192.653 167.314 192.733 167.236 192.811C167.04 193.007 166.895 193.204 166.801 193.4C166.708 193.59 166.661 193.782 166.661 193.976C166.664 194.166 166.711 194.354 166.801 194.541C166.895 194.725 167.027 194.908 167.198 195.092L166.83 195.285C166.492 194.947 166.215 194.602 165.999 194.251C165.78 193.897 165.628 193.549 165.545 193.207C165.464 192.862 165.461 192.537 165.535 192.231C165.609 191.924 165.768 191.649 166.013 191.404C166.091 191.327 166.176 191.254 166.27 191.186C166.36 191.116 166.44 191.064 166.511 191.032ZM169.489 184.506L176.527 191.544L175.081 192.989L168.044 185.952L169.489 184.506ZM175.048 184.796L179.161 188.91L177.769 190.302L172.539 185.072L173.844 183.767L175.048 184.796ZM176.159 186.314L175.782 186.691C175.396 186.304 175.098 185.906 174.888 185.497C174.675 185.085 174.55 184.679 174.511 184.279C174.469 183.876 174.514 183.493 174.646 183.129C174.779 182.758 174.999 182.418 175.309 182.109C175.554 181.864 175.813 181.675 176.087 181.543C176.361 181.411 176.648 181.35 176.947 181.359C177.25 181.366 177.568 181.458 177.9 181.635C178.235 181.809 178.586 182.08 178.953 182.447L182.289 185.782L180.887 187.184L177.547 183.844C177.315 183.612 177.102 183.464 176.909 183.399C176.715 183.335 176.53 183.34 176.353 183.414C176.176 183.481 175.997 183.606 175.816 183.786C175.629 183.973 175.504 184.173 175.439 184.385C175.378 184.595 175.368 184.811 175.41 185.033C175.452 185.249 175.537 185.467 175.666 185.686C175.795 185.905 175.96 186.114 176.159 186.314ZM185.121 182.95L183.719 184.352L178.025 178.657C177.629 178.261 177.373 177.85 177.257 177.425C177.141 176.993 177.155 176.566 177.3 176.144C177.445 175.715 177.714 175.304 178.107 174.911C178.236 174.782 178.37 174.668 178.509 174.568C178.644 174.465 178.781 174.37 178.919 174.283L179.954 175.346C179.877 175.391 179.801 175.445 179.727 175.506C179.653 175.567 179.57 175.643 179.48 175.733C179.313 175.901 179.198 176.073 179.137 176.25C179.076 176.421 179.069 176.592 179.118 176.763C179.166 176.933 179.269 177.098 179.427 177.256L185.121 182.95ZM180.935 176.676L181.921 177.662L178.697 180.886L177.711 179.9L180.935 176.676ZM184.198 175.694L188.287 179.784L186.895 181.176L181.665 175.946L182.975 174.636L184.198 175.694ZM184.599 172.944L185.866 174.259C185.788 174.317 185.698 174.391 185.595 174.481C185.492 174.565 185.401 174.645 185.324 174.723C185.128 174.919 184.983 175.116 184.889 175.312C184.796 175.503 184.749 175.694 184.749 175.888C184.752 176.078 184.799 176.266 184.889 176.453C184.983 176.637 185.115 176.821 185.285 177.004L184.918 177.198C184.58 176.859 184.303 176.514 184.087 176.163C183.868 175.809 183.716 175.461 183.632 175.119C183.552 174.774 183.549 174.449 183.623 174.143C183.697 173.837 183.856 173.561 184.101 173.316C184.179 173.239 184.264 173.166 184.357 173.099C184.448 173.028 184.528 172.976 184.599 172.944ZM192 173.712L189.67 171.383C189.502 171.215 189.331 171.099 189.157 171.035C188.98 170.967 188.8 170.957 188.616 171.006C188.435 171.051 188.255 171.164 188.075 171.344C187.92 171.499 187.814 171.66 187.756 171.827C187.694 171.992 187.683 172.154 187.722 172.316C187.757 172.473 187.841 172.618 187.973 172.751L186.581 174.143C186.359 173.92 186.199 173.658 186.102 173.355C186.006 173.052 185.98 172.726 186.025 172.378C186.067 172.027 186.18 171.673 186.363 171.315C186.55 170.954 186.813 170.604 187.151 170.266C187.557 169.86 187.986 169.567 188.437 169.386C188.888 169.206 189.339 169.161 189.791 169.251C190.245 169.338 190.675 169.584 191.081 169.991L193.319 172.229C193.606 172.515 193.859 172.733 194.078 172.881C194.294 173.026 194.503 173.132 194.706 173.2L194.789 173.282L193.382 174.689C193.173 174.615 192.944 174.489 192.696 174.312C192.447 174.128 192.215 173.928 192 173.712ZM190.177 171.523L190.975 172.301L190.197 173.079C190.013 173.263 189.874 173.443 189.781 173.621C189.687 173.798 189.636 173.969 189.626 174.133C189.613 174.294 189.636 174.446 189.694 174.587C189.755 174.726 189.845 174.855 189.965 174.974C190.084 175.093 190.219 175.174 190.371 175.216C190.519 175.254 190.672 175.25 190.83 175.201C190.984 175.15 191.131 175.055 191.27 174.916C191.479 174.707 191.619 174.483 191.69 174.244C191.761 174.006 191.777 173.783 191.739 173.577C191.703 173.368 191.632 173.207 191.526 173.094L192.483 173.316C192.563 173.5 192.63 173.708 192.681 173.94C192.736 174.168 192.758 174.413 192.749 174.674C192.736 174.932 192.675 175.196 192.565 175.467C192.452 175.735 192.265 175.999 192.004 176.26C191.672 176.592 191.305 176.827 190.902 176.966C190.499 177.098 190.102 177.125 189.708 177.048C189.315 176.964 188.967 176.771 188.664 176.468C188.39 176.194 188.199 175.899 188.089 175.583C187.979 175.267 187.952 174.937 188.007 174.592C188.062 174.241 188.203 173.877 188.432 173.5C188.658 173.12 188.97 172.73 189.37 172.33L190.177 171.523ZM197.036 168.144C196.936 168.044 196.817 167.983 196.679 167.96C196.54 167.938 196.358 167.972 196.132 168.062C195.907 168.146 195.618 168.305 195.267 168.54C194.945 168.747 194.626 168.921 194.31 169.062C193.994 169.198 193.69 169.286 193.396 169.328C193.106 169.367 192.829 169.348 192.565 169.27C192.298 169.19 192.053 169.038 191.83 168.816C191.611 168.597 191.452 168.344 191.352 168.057C191.255 167.767 191.221 167.459 191.25 167.134C191.279 166.802 191.381 166.465 191.555 166.124C191.729 165.775 191.979 165.439 192.304 165.113C192.758 164.659 193.221 164.341 193.691 164.161C194.165 163.977 194.616 163.926 195.045 164.006C195.473 164.08 195.849 164.279 196.171 164.601L194.779 165.993C194.644 165.858 194.494 165.766 194.329 165.717C194.165 165.663 193.993 165.664 193.812 165.722C193.632 165.774 193.448 165.893 193.261 166.08C193.106 166.235 193 166.396 192.942 166.563C192.881 166.728 192.865 166.886 192.894 167.037C192.923 167.182 192.99 167.308 193.097 167.414C193.177 167.495 193.266 167.551 193.363 167.583C193.459 167.609 193.572 167.609 193.701 167.583C193.83 167.558 193.978 167.506 194.146 167.429C194.313 167.345 194.507 167.229 194.726 167.081C195.18 166.781 195.618 166.546 196.041 166.375C196.459 166.201 196.862 166.133 197.249 166.172C197.632 166.207 197.995 166.396 198.337 166.737C198.569 166.969 198.73 167.234 198.82 167.53C198.91 167.827 198.931 168.144 198.883 168.482C198.831 168.818 198.71 169.161 198.52 169.512C198.33 169.857 198.068 170.197 197.732 170.532C197.246 171.018 196.746 171.344 196.234 171.508C195.725 171.669 195.249 171.703 194.808 171.61C194.366 171.51 194.004 171.318 193.72 171.035L195.04 169.715C195.237 169.899 195.438 170.003 195.644 170.029C195.854 170.052 196.055 170.018 196.248 169.928C196.445 169.834 196.627 169.704 196.795 169.536C196.975 169.356 197.101 169.182 197.172 169.014C197.239 168.843 197.262 168.685 197.239 168.54C197.217 168.389 197.149 168.257 197.036 168.144ZM198.071 159.54L199.057 160.526L196.012 163.571L195.025 162.585L198.071 159.54ZM194.489 160.541L195.881 159.148L200.826 164.093C200.977 164.245 201.113 164.341 201.232 164.383C201.354 164.422 201.472 164.417 201.585 164.369C201.694 164.317 201.81 164.23 201.933 164.108C202.02 164.021 202.094 163.94 202.155 163.866C202.216 163.786 202.266 163.716 202.305 163.658L203.335 164.678C203.254 164.836 203.156 164.996 203.04 165.157C202.924 165.318 202.782 165.482 202.614 165.65C202.308 165.956 201.991 166.173 201.662 166.302C201.333 166.425 200.995 166.434 200.647 166.331C200.299 166.228 199.941 165.993 199.574 165.626L194.489 160.541ZM201.396 158.496L205.486 162.585L204.094 163.977L198.863 158.747L200.173 157.437L201.396 158.496ZM201.798 155.745L203.064 157.06C202.987 157.118 202.896 157.192 202.793 157.283C202.69 157.366 202.6 157.447 202.523 157.524C202.326 157.721 202.181 157.917 202.088 158.114C201.994 158.304 201.947 158.496 201.947 158.689C201.951 158.879 201.997 159.068 202.088 159.255C202.181 159.438 202.313 159.622 202.484 159.806L202.117 159.999C201.778 159.661 201.501 159.316 201.285 158.965C201.066 158.61 200.915 158.262 200.831 157.921C200.75 157.576 200.747 157.25 200.821 156.944C200.895 156.638 201.055 156.363 201.3 156.118C201.377 156.04 201.462 155.968 201.556 155.9C201.646 155.829 201.727 155.778 201.798 155.745ZM209.561 156.007L205.582 152.028L206.974 150.636L212.205 155.866L210.895 157.176L209.561 156.007ZM208.642 154.779L209.043 154.358C209.391 154.706 209.675 155.07 209.894 155.451C210.11 155.828 210.247 156.206 210.305 156.587C210.36 156.964 210.326 157.336 210.203 157.703C210.078 158.067 209.849 158.415 209.517 158.747C209.262 159.002 208.992 159.202 208.705 159.347C208.418 159.485 208.12 159.554 207.811 159.554C207.501 159.548 207.181 159.466 206.849 159.308C206.517 159.144 206.177 158.887 205.829 158.539L202.45 155.161L203.842 153.768L207.231 157.157C207.385 157.312 207.534 157.424 207.675 157.495C207.82 157.563 207.961 157.597 208.096 157.597C208.231 157.597 208.359 157.566 208.478 157.505C208.6 157.441 208.718 157.352 208.831 157.239C209.117 156.952 209.285 156.669 209.333 156.388C209.385 156.105 209.345 155.829 209.212 155.562C209.08 155.288 208.89 155.027 208.642 154.779ZM214.438 151.651C214.609 151.481 214.728 151.297 214.795 151.1C214.86 150.9 214.87 150.704 214.824 150.511C214.779 150.311 214.676 150.127 214.515 149.96L215.825 148.65C216.189 149.02 216.418 149.446 216.511 149.926C216.602 150.403 216.566 150.886 216.405 151.376C216.241 151.862 215.957 152.307 215.554 152.71C215.148 153.116 214.726 153.403 214.288 153.57C213.853 153.735 213.416 153.797 212.978 153.759C212.536 153.717 212.106 153.586 211.687 153.367C211.265 153.145 210.87 152.85 210.503 152.483L210.363 152.343C209.992 151.972 209.697 151.577 209.478 151.158C209.256 150.736 209.125 150.306 209.087 149.868C209.045 149.426 209.106 148.988 209.27 148.553C209.435 148.118 209.718 147.699 210.121 147.296C210.55 146.868 211.007 146.574 211.494 146.416C211.984 146.255 212.474 146.236 212.963 146.358C213.453 146.474 213.908 146.739 214.327 147.151L213.017 148.461C212.839 148.29 212.644 148.169 212.432 148.099C212.222 148.024 212.01 148.012 211.794 148.06C211.578 148.102 211.375 148.218 211.185 148.408C210.982 148.611 210.859 148.82 210.817 149.036C210.772 149.249 210.788 149.465 210.866 149.684C210.94 149.9 211.056 150.116 211.214 150.332C211.372 150.541 211.552 150.747 211.755 150.95L211.895 151.091C212.098 151.294 212.306 151.476 212.519 151.637C212.731 151.798 212.946 151.916 213.162 151.99C213.381 152.061 213.597 152.073 213.809 152.028C214.022 151.983 214.232 151.858 214.438 151.651ZM215.762 141.848L216.748 142.835L213.703 145.88L212.717 144.894L215.762 141.848ZM212.18 142.849L213.573 141.457L218.517 146.402C218.669 146.553 218.804 146.65 218.923 146.692C219.046 146.731 219.164 146.726 219.276 146.677C219.386 146.626 219.502 146.539 219.624 146.416C219.711 146.329 219.785 146.249 219.847 146.175C219.908 146.094 219.958 146.025 219.997 145.967L221.026 146.987C220.946 147.145 220.847 147.304 220.731 147.465C220.615 147.626 220.473 147.791 220.306 147.958C220 148.264 219.682 148.482 219.354 148.611C219.025 148.733 218.687 148.743 218.339 148.64C217.991 148.537 217.633 148.302 217.265 147.934L212.18 142.849ZM223.627 141.94L219.649 137.962L221.041 136.57L226.271 141.8L224.961 143.11L223.627 141.94ZM222.708 140.713L223.109 140.292C223.458 140.64 223.741 141.004 223.96 141.384C224.176 141.761 224.313 142.14 224.371 142.52C224.426 142.897 224.392 143.27 224.27 143.637C224.144 144.001 223.915 144.349 223.583 144.681C223.329 144.936 223.058 145.135 222.771 145.28C222.484 145.419 222.186 145.488 221.877 145.488C221.568 145.482 221.247 145.4 220.915 145.242C220.583 145.077 220.243 144.821 219.895 144.473L216.516 141.094L217.908 139.702L221.297 143.091C221.452 143.245 221.6 143.358 221.742 143.429C221.887 143.497 222.027 143.531 222.162 143.531C222.297 143.531 222.425 143.5 222.544 143.439C222.666 143.374 222.784 143.286 222.897 143.173C223.184 142.886 223.351 142.603 223.4 142.322C223.451 142.039 223.411 141.763 223.279 141.496C223.147 141.222 222.956 140.961 222.708 140.713ZM224.637 135.255L228.726 139.345L227.334 140.737L222.104 135.507L223.414 134.197L224.637 135.255ZM225.038 132.505L226.305 133.82C226.227 133.878 226.137 133.952 226.034 134.042C225.931 134.126 225.841 134.206 225.763 134.284C225.567 134.48 225.422 134.677 225.328 134.873C225.235 135.064 225.188 135.255 225.188 135.449C225.191 135.639 225.238 135.827 225.328 136.014C225.422 136.198 225.554 136.382 225.725 136.565L225.357 136.759C225.019 136.42 224.742 136.075 224.526 135.724C224.307 135.37 224.155 135.022 224.071 134.68C223.991 134.335 223.988 134.01 224.062 133.704C224.136 133.398 224.295 133.122 224.54 132.877C224.618 132.8 224.703 132.727 224.796 132.66C224.887 132.589 224.967 132.537 225.038 132.505ZM233.367 134.898C232.961 135.304 232.532 135.603 232.081 135.797C231.627 135.987 231.171 136.079 230.713 136.072C230.259 136.063 229.819 135.964 229.393 135.777C228.965 135.587 228.576 135.318 228.228 134.97L228.035 134.777C227.639 134.38 227.333 133.961 227.117 133.52C226.901 133.078 226.777 132.632 226.744 132.181C226.715 131.727 226.788 131.284 226.962 130.852C227.133 130.417 227.408 130.009 227.789 129.629C228.159 129.258 228.549 128.991 228.958 128.826C229.368 128.662 229.782 128.596 230.201 128.628C230.623 128.657 231.042 128.78 231.457 128.996C231.87 129.208 232.268 129.506 232.651 129.89L233.231 130.47L229.074 134.627L228.146 133.699L230.935 130.91L230.829 130.803C230.636 130.61 230.428 130.473 230.205 130.393C229.983 130.306 229.757 130.286 229.529 130.335C229.3 130.383 229.078 130.515 228.862 130.731C228.678 130.915 228.56 131.113 228.509 131.325C228.457 131.538 228.462 131.759 228.523 131.988C228.588 132.213 228.697 132.445 228.852 132.684C229.007 132.916 229.2 133.148 229.432 133.38L229.625 133.573C229.835 133.783 230.057 133.947 230.292 134.066C230.531 134.182 230.769 134.25 231.008 134.269C231.249 134.285 231.485 134.25 231.714 134.163C231.946 134.073 232.163 133.926 232.366 133.723C232.617 133.472 232.803 133.19 232.922 132.877C233.041 132.558 233.08 132.22 233.038 131.862L234.449 131.92C234.498 132.187 234.499 132.489 234.454 132.824C234.412 133.156 234.306 133.501 234.135 133.858C233.961 134.213 233.705 134.559 233.367 134.898Z" fill="white"/>
<defs>
<linearGradient id="paint0_linear_9381_76180" x1="71.5051" y1="15.7793" x2="71.5051" y2="238.225" gradientUnits="userSpaceOnUse">
<stop stop-color="#C478B1"/>
<stop offset="1" stop-color="#7958A4"/>
</linearGradient>
<linearGradient id="paint1_linear_9381_76180" x1="182.73" y1="15.7793" x2="182.73" y2="238.225" gradientUnits="userSpaceOnUse">
<stop stop-color="#7958A4"/>
<stop offset="1" stop-color="#85455F"/>
</linearGradient>
</defs>
</svg>
