<svg width="255" height="254" viewBox="0 0 255 254" fill="none" xmlns="http://www.w3.org/2000/svg">
<path d="M127.411 238.226V15.7758L16.1895 127.001L127.411 238.226Z" fill="url(#paint0_linear_9381_76177)"/>
<path d="M238.635 127.001L127.41 15.7758V238.226L238.635 127.001Z" fill="url(#paint1_linear_9381_76177)"/>
<path opacity="0.6" d="M117.258 78.5844L125.659 64.0254H91.0631L73.7075 94.0917H108.303L117.258 78.5844Z" fill="#FFDF46"/>
<path opacity="0.2" d="M164.758 62.134L182.72 93.2453L190.83 79.1958L127.41 15.7758L127.362 62.134H164.758Z" fill="#FFDF46"/>
<path opacity="0.2" d="M70.8522 158.96L61.9011 143.453L52.95 127.949H17.1419L17.1382 127.953L62.5408 173.356L70.8522 158.96Z" fill="#FFDF46"/>
<path opacity="0.6" d="M146.417 94.0917H181.017L163.661 64.0254H129.062L137.466 78.5844L146.417 94.0917Z" fill="#FFDF46"/>
<path opacity="0.6" d="M183.873 95.0405L192.824 110.544L201.775 126.051H237.587L237.624 125.988L192.217 80.5819L183.873 95.0405Z" fill="#FFDF46"/>
<path opacity="0.6" d="M182.72 160.754L164.758 191.861H127.41V238.223L190.83 174.803L182.72 160.754Z" fill="#FFDF46"/>
<path opacity="0.2" d="M108.303 159.908H73.7075L91.0631 189.97H125.659L117.258 175.411L108.303 159.908Z" fill="#FFDF46"/>
<path opacity="0.6" d="M89.9661 191.861L72.0044 160.754L63.9272 174.74L127.411 238.223V191.861H89.9661Z" fill="#FFDF46"/>
<path opacity="0.2" d="M137.466 175.411L129.062 189.97H163.661L181.017 159.908H146.417L137.466 175.411Z" fill="#FFDF46"/>
<path opacity="0.2" d="M201.775 127.949L192.824 143.453L183.873 158.96L192.217 173.419L237.624 128.013L237.587 127.949H201.775Z" fill="#FFDF46"/>
<path opacity="0.2" d="M125.659 126.05L117.258 111.491L108.303 95.9838H73.7075L91.0631 126.05H125.659Z" fill="#FFDF46"/>
<path opacity="0.6" d="M52.95 126.05L61.9011 110.543L70.8522 95.0391L62.5445 80.6437L17.1382 126.05H17.1419H52.95Z" fill="#FFDF46"/>
<path opacity="0.6" d="M73.7075 158.016H108.303L117.258 142.508L125.659 127.949H91.0631L73.7075 158.016Z" fill="#FFDF46"/>
<path d="M109.948 95.042L118.899 110.546L127.363 125.205L135.827 110.546L144.778 95.042L135.827 79.5347L127.363 64.8752L118.899 79.5347L109.948 95.042Z" fill="#FFDF46"/>
<path opacity="0.6" d="M129.062 127.949L137.466 142.508L146.417 158.016H181.017L163.661 127.949H129.062Z" fill="#FFDF46"/>
<path opacity="0.2" d="M181.017 95.9838H146.417L137.466 111.491L129.062 126.05H163.661L181.017 95.9838Z" fill="#FFDF46"/>
<path d="M144.778 158.959L135.827 143.451L127.363 128.792L118.899 143.451L109.948 158.959L118.899 174.466L127.363 189.122L135.827 174.466L144.778 158.959Z" fill="#FFDF46"/>
<path opacity="0.2" d="M72.0046 93.2453L89.9663 62.134H127.362L127.411 15.7758L63.9312 79.259L72.0046 93.2453Z" fill="#FFDF46"/>
<path d="M237.624 125.988L237.587 126.051H201.775L192.824 110.544L183.873 95.0369L192.218 80.582L190.831 79.1949L182.72 93.2444L164.758 62.1294H89.9661L72.0044 93.2444L63.9309 79.2581L62.5401 80.6452L70.8479 95.0369L61.8968 110.544L52.9457 126.051H17.1376L16.1855 127L17.1376 127.948H52.9494L61.9005 143.452L70.8516 158.959L62.5438 173.354L63.9309 174.741L72.0081 160.755L89.9698 191.863H164.758L182.72 160.755L190.834 174.805L192.221 173.418L183.876 158.959L192.828 143.452L201.779 127.944H237.59L237.628 128.011L238.635 127L237.624 125.988ZM163.661 64.026L181.017 94.0923H146.417L137.466 78.585L129.062 64.026H163.661ZM181.017 95.9852L163.661 126.051H129.062L137.466 111.492L146.417 95.9852H181.017ZM127.362 64.8738L135.826 79.5333L144.777 95.0406L135.826 110.548L127.362 125.207L118.898 110.548L109.947 95.0406L118.898 79.5333L127.362 64.8738ZM91.0631 64.026H125.663L117.258 78.585L108.307 94.0923H73.7076L91.0631 64.026ZM108.307 95.9852L117.258 111.492L125.663 126.051H91.0631L73.7076 95.9852H108.307ZM125.663 127.944L117.258 142.503L108.307 158.011H73.7076L91.0631 127.944H125.663ZM63.5442 142.503L54.5931 126.996L63.5442 111.489L72.0044 96.8293L89.4194 126.996L72.0044 157.163L63.5442 142.503ZM91.0631 189.966L73.7076 159.904H108.307L117.258 175.407L125.663 189.966H91.0631ZM127.362 189.118L118.898 174.459L109.947 158.955L118.898 143.448L127.362 128.788L135.826 143.448L144.777 158.955L135.826 174.459L127.362 189.118ZM163.661 189.966H129.062L137.466 175.407L146.417 159.904H181.017L163.661 189.966ZM146.417 158.011L137.466 142.503L129.062 127.944H163.661L181.017 158.011H146.417ZM191.18 142.503L182.72 157.163L165.305 126.996L182.72 96.8293L191.18 111.489L200.131 126.996L191.18 142.503Z" fill="#2F354B"/>
<path d="M127.411 15.7788L238.636 127.004L127.411 238.229L16.1894 127L127.411 15.7788ZM127.411 0L119.523 7.88753L8.30189 119.112L0.410645 127L8.30189 134.888L119.527 246.112L127.414 254L135.302 246.112L246.527 134.888L254.418 127L246.527 119.112L135.298 7.88753L127.411 0Z" fill="#2F354B"/>
<rect width="179.061" height="40" transform="translate(100 225.615) rotate(-45)" fill="#2F354B"/>
<path d="M121.659 222.055L124.448 224.844C124.47 225.086 124.445 225.398 124.371 225.782C124.293 226.162 124.129 226.588 123.878 227.058C123.626 227.529 123.244 228.02 122.732 228.532C122.278 228.987 121.789 229.327 121.267 229.552C120.742 229.775 120.199 229.876 119.638 229.857C119.081 229.834 118.52 229.686 117.956 229.412C117.389 229.135 116.835 228.726 116.293 228.184L115.854 227.744C115.312 227.203 114.9 226.652 114.616 226.091C114.336 225.527 114.181 224.97 114.152 224.419C114.123 223.868 114.213 223.336 114.423 222.824C114.632 222.311 114.958 221.834 115.399 221.393C116.011 220.781 116.614 220.378 117.207 220.184C117.797 219.988 118.37 219.962 118.928 220.107C119.485 220.246 120.014 220.516 120.513 220.919L119.107 222.326C118.833 222.123 118.557 221.983 118.28 221.905C118.003 221.828 117.721 221.833 117.434 221.92C117.151 222.004 116.862 222.192 116.569 222.485C116.327 222.727 116.161 222.993 116.071 223.283C115.981 223.566 115.966 223.868 116.028 224.187C116.089 224.506 116.226 224.839 116.438 225.187C116.651 225.535 116.943 225.895 117.313 226.265L117.763 226.715C118.13 227.082 118.491 227.372 118.846 227.585C119.197 227.794 119.538 227.927 119.87 227.981C120.202 228.03 120.52 227.999 120.823 227.889C121.126 227.78 121.414 227.588 121.688 227.314C121.917 227.085 122.087 226.876 122.2 226.686C122.316 226.492 122.394 226.322 122.432 226.173C122.471 226.019 122.49 225.89 122.49 225.787L121.243 224.54L119.919 225.864L118.884 224.83L121.659 222.055ZM123.636 222.311L123.534 222.21C123.151 221.826 122.853 221.419 122.64 220.987C122.424 220.552 122.302 220.11 122.273 219.662C122.244 219.214 122.316 218.771 122.49 218.333C122.661 217.892 122.945 217.473 123.341 217.076C123.737 216.68 124.158 216.395 124.603 216.221C125.044 216.044 125.489 215.969 125.937 215.998C126.388 216.024 126.831 216.145 127.266 216.361C127.698 216.574 128.105 216.872 128.489 217.255L128.59 217.357C128.971 217.737 129.269 218.145 129.485 218.58C129.697 219.011 129.818 219.455 129.847 219.909C129.876 220.357 129.804 220.8 129.63 221.238C129.456 221.676 129.17 222.094 128.774 222.49C128.378 222.887 127.959 223.173 127.517 223.351C127.079 223.525 126.634 223.599 126.183 223.573C125.732 223.541 125.291 223.418 124.859 223.206C124.424 222.99 124.016 222.692 123.636 222.311ZM124.926 220.818L125.028 220.919C125.247 221.138 125.471 221.324 125.7 221.475C125.929 221.627 126.157 221.733 126.386 221.794C126.615 221.849 126.839 221.847 127.058 221.789C127.277 221.731 127.487 221.602 127.687 221.403C127.88 221.209 128.006 221.003 128.064 220.784C128.122 220.565 128.122 220.342 128.064 220.117C128.002 219.888 127.896 219.659 127.745 219.43C127.596 219.198 127.413 218.973 127.193 218.754L127.092 218.652C126.879 218.439 126.659 218.261 126.43 218.116C126.201 217.964 125.971 217.859 125.739 217.801C125.506 217.737 125.279 217.732 125.057 217.787C124.835 217.842 124.625 217.967 124.429 218.164C124.232 218.361 124.106 218.57 124.052 218.792C124 219.011 124.005 219.239 124.066 219.474C124.127 219.703 124.234 219.931 124.385 220.16C124.533 220.386 124.714 220.605 124.926 220.818ZM132.694 216.346L129.639 210.971L131.094 209.516L134.56 216.511L133.68 217.391L132.694 216.346ZM127.682 212.929L133.066 215.984L134.101 216.97L133.216 217.855L126.222 214.389L127.682 212.929ZM139.384 211.88C138.978 212.286 138.55 212.586 138.098 212.779C137.644 212.969 137.188 213.061 136.73 213.055C136.276 213.045 135.836 212.947 135.411 212.76C134.982 212.57 134.594 212.301 134.246 211.953L134.053 211.759C133.656 211.363 133.35 210.944 133.134 210.502C132.918 210.061 132.794 209.615 132.762 209.164C132.733 208.709 132.805 208.266 132.979 207.834C133.15 207.399 133.426 206.992 133.806 206.611C134.177 206.241 134.567 205.973 134.976 205.809C135.385 205.645 135.799 205.579 136.218 205.611C136.64 205.64 137.059 205.762 137.475 205.978C137.887 206.191 138.285 206.489 138.669 206.872L139.249 207.452L135.092 211.609L134.164 210.681L136.953 207.892L136.846 207.786C136.653 207.593 136.445 207.456 136.223 207.375C136.001 207.288 135.775 207.269 135.546 207.317C135.317 207.365 135.095 207.498 134.879 207.713C134.695 207.897 134.578 208.095 134.526 208.308C134.475 208.521 134.48 208.741 134.541 208.97C134.605 209.196 134.715 209.428 134.869 209.666C135.024 209.898 135.217 210.13 135.449 210.362L135.643 210.556C135.852 210.765 136.075 210.929 136.31 211.049C136.548 211.165 136.787 211.232 137.025 211.252C137.267 211.268 137.502 211.232 137.731 211.145C137.963 211.055 138.181 210.909 138.384 210.706C138.635 210.454 138.82 210.172 138.939 209.86C139.059 209.541 139.097 209.202 139.055 208.845L140.467 208.903C140.515 209.17 140.517 209.471 140.472 209.806C140.43 210.138 140.324 210.483 140.153 210.841C139.979 211.195 139.723 211.542 139.384 211.88ZM139.529 203.363L143.619 207.452L142.226 208.845L136.996 203.614L138.306 202.304L139.529 203.363ZM139.93 200.613L141.197 201.927C141.119 201.985 141.029 202.06 140.926 202.15C140.823 202.234 140.733 202.314 140.655 202.391C140.459 202.588 140.314 202.785 140.22 202.981C140.127 203.171 140.08 203.363 140.08 203.556C140.083 203.747 140.13 203.935 140.22 204.122C140.314 204.306 140.446 204.489 140.617 204.673L140.249 204.866C139.911 204.528 139.634 204.183 139.418 203.832C139.199 203.477 139.047 203.129 138.964 202.788C138.883 202.443 138.88 202.118 138.954 201.811C139.028 201.505 139.188 201.23 139.432 200.985C139.51 200.908 139.595 200.835 139.689 200.767C139.779 200.696 139.859 200.645 139.93 200.613ZM143.101 199.743L147.215 203.856L145.823 205.248L140.593 200.018L141.898 198.713L143.101 199.743ZM144.213 201.26L143.836 201.637C143.449 201.251 143.151 200.853 142.942 200.443C142.729 200.031 142.603 199.625 142.565 199.225C142.523 198.823 142.568 198.439 142.7 198.075C142.832 197.704 143.053 197.364 143.362 197.055C143.607 196.81 143.867 196.622 144.141 196.489C144.414 196.357 144.701 196.296 145.001 196.306C145.304 196.312 145.621 196.404 145.953 196.581C146.288 196.755 146.64 197.026 147.007 197.393L150.342 200.729L148.94 202.13L145.6 198.79C145.368 198.558 145.156 198.41 144.962 198.346C144.769 198.281 144.584 198.286 144.406 198.36C144.229 198.428 144.05 198.552 143.87 198.732C143.683 198.919 143.557 199.119 143.493 199.332C143.432 199.541 143.422 199.757 143.464 199.979C143.506 200.195 143.591 200.413 143.72 200.632C143.849 200.851 144.013 201.061 144.213 201.26ZM153.044 195.668L150.714 193.338C150.547 193.17 150.376 193.054 150.202 192.99C150.025 192.922 149.844 192.913 149.661 192.961C149.48 193.006 149.3 193.119 149.119 193.299C148.965 193.454 148.858 193.615 148.8 193.783C148.739 193.947 148.728 194.11 148.766 194.271C148.802 194.429 148.886 194.574 149.018 194.706L147.626 196.098C147.403 195.876 147.244 195.613 147.147 195.31C147.05 195.007 147.025 194.682 147.07 194.334C147.112 193.982 147.224 193.628 147.408 193.27C147.595 192.909 147.858 192.56 148.196 192.221C148.602 191.815 149.031 191.522 149.482 191.342C149.933 191.161 150.384 191.116 150.835 191.206C151.29 191.293 151.72 191.54 152.126 191.946L154.364 194.184C154.651 194.471 154.904 194.688 155.123 194.836C155.339 194.981 155.548 195.088 155.751 195.155L155.833 195.238L154.427 196.644C154.217 196.57 153.988 196.444 153.74 196.267C153.492 196.083 153.26 195.884 153.044 195.668ZM151.222 193.478L152.02 194.256L151.241 195.035C151.058 195.218 150.919 195.399 150.826 195.576C150.732 195.753 150.681 195.924 150.671 196.088C150.658 196.249 150.681 196.401 150.739 196.543C150.8 196.681 150.89 196.81 151.009 196.929C151.129 197.049 151.264 197.129 151.415 197.171C151.564 197.21 151.717 197.205 151.875 197.157C152.029 197.105 152.176 197.01 152.314 196.871C152.524 196.662 152.664 196.438 152.735 196.199C152.806 195.961 152.822 195.739 152.783 195.532C152.748 195.323 152.677 195.162 152.571 195.049L153.528 195.271C153.608 195.455 153.674 195.663 153.726 195.895C153.781 196.124 153.803 196.369 153.794 196.63C153.781 196.887 153.719 197.152 153.61 197.422C153.497 197.69 153.31 197.954 153.049 198.215C152.717 198.547 152.35 198.782 151.947 198.921C151.544 199.053 151.146 199.08 150.753 199.003C150.36 198.919 150.012 198.726 149.709 198.423C149.435 198.149 149.243 197.854 149.134 197.538C149.024 197.223 148.997 196.892 149.052 196.547C149.106 196.196 149.248 195.832 149.477 195.455C149.703 195.075 150.015 194.685 150.415 194.285L151.222 193.478ZM153.948 188.896L158.062 193.009L156.67 194.401L151.439 189.171L152.745 187.866L153.948 188.896ZM155.06 190.413L154.683 190.791C154.296 190.404 153.998 190.006 153.789 189.597C153.576 189.184 153.45 188.778 153.412 188.378C153.37 187.976 153.415 187.592 153.547 187.228C153.679 186.857 153.9 186.517 154.209 186.208C154.454 185.963 154.714 185.775 154.987 185.643C155.261 185.51 155.548 185.449 155.848 185.459C156.151 185.465 156.468 185.557 156.8 185.734C157.135 185.908 157.486 186.179 157.854 186.546L161.189 189.882L159.787 191.284L156.447 187.943C156.215 187.711 156.003 187.563 155.809 187.499C155.616 187.434 155.431 187.439 155.253 187.513C155.076 187.581 154.897 187.705 154.717 187.885C154.53 188.072 154.404 188.272 154.34 188.485C154.279 188.694 154.269 188.91 154.311 189.133C154.353 189.348 154.438 189.566 154.567 189.785C154.696 190.004 154.86 190.214 155.06 190.413ZM163.417 185.672C163.588 185.501 163.708 185.317 163.775 185.121C163.84 184.921 163.849 184.724 163.804 184.531C163.759 184.331 163.656 184.147 163.495 183.98L164.805 182.67C165.169 183.04 165.398 183.466 165.491 183.946C165.581 184.423 165.546 184.906 165.385 185.396C165.22 185.883 164.937 186.327 164.534 186.73C164.128 187.136 163.706 187.423 163.268 187.591C162.833 187.755 162.396 187.818 161.958 187.779C161.516 187.737 161.086 187.607 160.667 187.388C160.245 187.165 159.85 186.87 159.483 186.503L159.343 186.363C158.972 185.992 158.677 185.597 158.458 185.179C158.236 184.756 158.105 184.326 158.067 183.888C158.025 183.446 158.086 183.008 158.25 182.573C158.415 182.138 158.698 181.719 159.101 181.316C159.53 180.888 159.987 180.595 160.474 180.437C160.964 180.276 161.453 180.256 161.943 180.379C162.433 180.495 162.887 180.759 163.306 181.171L161.996 182.481C161.819 182.311 161.624 182.19 161.411 182.119C161.202 182.045 160.989 182.032 160.773 182.08C160.558 182.122 160.355 182.238 160.164 182.428C159.961 182.631 159.839 182.841 159.797 183.057C159.752 183.269 159.768 183.485 159.845 183.704C159.919 183.92 160.035 184.136 160.193 184.352C160.351 184.561 160.532 184.768 160.735 184.971L160.875 185.111C161.078 185.314 161.286 185.496 161.498 185.657C161.711 185.818 161.925 185.936 162.141 186.01C162.361 186.081 162.576 186.094 162.789 186.049C163.002 186.003 163.211 185.878 163.417 185.672ZM169.914 181.35C169.508 181.756 169.079 182.056 168.628 182.249C168.174 182.439 167.718 182.531 167.26 182.525C166.806 182.515 166.366 182.417 165.941 182.23C165.512 182.04 165.124 181.771 164.776 181.423L164.582 181.229C164.186 180.833 163.88 180.414 163.664 179.973C163.448 179.531 163.324 179.085 163.292 178.634C163.263 178.179 163.335 177.736 163.509 177.304C163.68 176.869 163.956 176.462 164.336 176.081C164.706 175.711 165.096 175.443 165.506 175.279C165.915 175.115 166.329 175.049 166.748 175.081C167.17 175.11 167.589 175.232 168.005 175.448C168.417 175.661 168.815 175.959 169.199 176.342L169.779 176.923L165.622 181.08L164.694 180.151L167.483 177.362L167.376 177.256C167.183 177.063 166.975 176.926 166.753 176.845C166.53 176.758 166.305 176.739 166.076 176.787C165.847 176.836 165.625 176.968 165.409 177.184C165.225 177.367 165.108 177.565 165.056 177.778C165.005 177.991 165.009 178.212 165.071 178.44C165.135 178.666 165.245 178.898 165.399 179.136C165.554 179.368 165.747 179.6 165.979 179.832L166.173 180.026C166.382 180.235 166.605 180.4 166.84 180.519C167.078 180.635 167.317 180.702 167.555 180.722C167.797 180.738 168.032 180.702 168.261 180.615C168.493 180.525 168.71 180.379 168.913 180.176C169.165 179.924 169.35 179.642 169.469 179.33C169.589 179.011 169.627 178.672 169.585 178.315L170.997 178.373C171.045 178.64 171.047 178.941 171.002 179.277C170.96 179.608 170.853 179.953 170.683 180.311C170.509 180.665 170.252 181.012 169.914 181.35ZM172.563 170.977L173.041 168.749C173.109 168.417 173.116 168.156 173.061 167.966C173.006 167.775 172.903 167.605 172.751 167.453C172.6 167.302 172.403 167.218 172.162 167.202C171.917 167.183 171.693 167.274 171.49 167.477C171.345 167.622 171.256 167.779 171.224 167.946C171.189 168.111 171.2 168.273 171.258 168.434C171.319 168.592 171.417 168.739 171.553 168.874C171.698 169.019 171.885 169.129 172.113 169.203C172.339 169.274 172.602 169.327 172.901 169.363C173.198 169.395 173.523 169.427 173.878 169.459L181.065 170.005L179.485 171.586L173.646 171.161C173.133 171.106 172.674 171.046 172.268 170.982C171.859 170.914 171.493 170.816 171.171 170.687C170.849 170.558 170.568 170.374 170.33 170.136C169.962 169.769 169.721 169.369 169.605 168.937C169.485 168.502 169.494 168.065 169.629 167.627C169.761 167.186 170.02 166.772 170.407 166.385C170.771 166.021 171.163 165.781 171.582 165.665C171.997 165.546 172.4 165.536 172.79 165.636C173.183 165.732 173.526 165.927 173.82 166.221C174.039 166.44 174.202 166.683 174.308 166.951C174.411 167.215 174.471 167.497 174.487 167.796C174.5 168.093 174.48 168.399 174.429 168.715L173.984 171.354C173.974 171.583 173.992 171.781 174.037 171.949C174.082 172.116 174.142 172.26 174.216 172.379C174.287 172.495 174.366 172.596 174.453 172.683C174.64 172.87 174.848 172.998 175.076 173.065C175.305 173.133 175.534 173.136 175.763 173.075C175.992 173.014 176.203 172.886 176.396 172.693C176.66 172.429 176.859 172.115 176.991 171.75C177.123 171.386 177.179 170.998 177.16 170.585C177.137 170.17 177.034 169.754 176.85 169.338C176.667 168.923 176.394 168.534 176.034 168.173L177.213 166.994C177.574 167.355 177.882 167.734 178.136 168.13C178.388 168.523 178.573 168.937 178.692 169.372C178.808 169.804 178.842 170.257 178.794 170.73C178.79 170.766 178.787 170.818 178.784 170.885C178.781 170.946 178.776 170.996 178.769 171.035C178.708 171.593 178.571 172.1 178.359 172.558C178.143 173.012 177.828 173.445 177.416 173.858C176.946 174.328 176.452 174.651 175.937 174.825C175.424 174.995 174.925 175.024 174.438 174.912C173.955 174.796 173.52 174.544 173.133 174.158C172.85 173.874 172.658 173.573 172.558 173.254C172.458 172.928 172.416 172.577 172.432 172.2C172.449 171.823 172.492 171.415 172.563 170.977ZM131.404 234.797L132.849 233.352C133.294 233.854 133.584 234.405 133.719 235.005C133.858 235.601 133.824 236.208 133.618 236.827C133.414 237.443 133.025 238.039 132.448 238.616C131.997 239.067 131.515 239.394 131.002 239.597C130.487 239.797 129.955 239.877 129.407 239.838C128.863 239.797 128.317 239.634 127.769 239.35C127.221 239.067 126.689 238.667 126.174 238.151L125.685 237.663C125.17 237.148 124.772 236.614 124.491 236.063C124.211 235.506 124.052 234.953 124.013 234.405C123.977 233.854 124.06 233.321 124.259 232.805C124.459 232.29 124.78 231.811 125.221 231.37C125.808 230.783 126.409 230.395 127.024 230.205C127.643 230.011 128.25 229.991 128.847 230.142C129.446 230.29 130.007 230.58 130.529 231.012L129.079 232.462C128.779 232.195 128.482 232.011 128.189 231.911C127.893 231.808 127.596 231.805 127.3 231.901C127.003 231.992 126.694 232.198 126.372 232.52C126.13 232.762 125.964 233.018 125.874 233.289C125.784 233.559 125.769 233.848 125.83 234.154C125.892 234.46 126.032 234.784 126.251 235.126C126.47 235.461 126.766 235.815 127.14 236.189L127.638 236.687C128.002 237.051 128.35 237.344 128.682 237.567C129.011 237.786 129.327 237.934 129.63 238.011C129.933 238.082 130.223 238.076 130.5 237.992C130.777 237.902 131.044 237.728 131.302 237.47C131.605 237.167 131.806 236.869 131.906 236.576C132.006 236.282 132.013 235.989 131.926 235.696C131.842 235.399 131.668 235.1 131.404 234.797ZM133.265 232.481L133.163 232.38C132.78 231.997 132.482 231.589 132.269 231.157C132.053 230.722 131.931 230.281 131.902 229.833C131.873 229.385 131.945 228.942 132.119 228.503C132.29 228.062 132.573 227.643 132.97 227.247C133.366 226.85 133.787 226.565 134.231 226.391C134.673 226.214 135.118 226.14 135.565 226.169C136.017 226.194 136.46 226.315 136.895 226.531C137.327 226.744 137.734 227.042 138.118 227.425L138.219 227.527C138.599 227.907 138.898 228.315 139.113 228.75C139.326 229.182 139.447 229.625 139.476 230.079C139.505 230.527 139.432 230.97 139.258 231.408C139.084 231.847 138.799 232.264 138.403 232.66C138.007 233.057 137.588 233.344 137.146 233.521C136.708 233.695 136.263 233.769 135.812 233.743C135.361 233.711 134.919 233.588 134.488 233.376C134.053 233.16 133.645 232.862 133.265 232.481ZM134.555 230.988L134.657 231.089C134.876 231.309 135.1 231.494 135.329 231.645C135.557 231.797 135.786 231.903 136.015 231.964C136.244 232.019 136.468 232.017 136.687 231.959C136.906 231.901 137.116 231.773 137.315 231.573C137.509 231.379 137.634 231.173 137.692 230.954C137.75 230.735 137.75 230.513 137.692 230.287C137.631 230.058 137.525 229.829 137.373 229.601C137.225 229.369 137.041 229.143 136.822 228.924L136.721 228.822C136.508 228.61 136.287 228.431 136.059 228.286C135.83 228.134 135.599 228.03 135.367 227.972C135.135 227.907 134.908 227.902 134.686 227.957C134.463 228.012 134.254 228.138 134.057 228.334C133.861 228.531 133.735 228.74 133.68 228.963C133.629 229.182 133.634 229.409 133.695 229.644C133.756 229.873 133.862 230.102 134.014 230.33C134.162 230.556 134.343 230.775 134.555 230.988ZM138.852 226.894L138.751 226.792C138.367 226.409 138.069 226.001 137.857 225.569C137.641 225.134 137.518 224.693 137.489 224.245C137.46 223.797 137.533 223.354 137.707 222.916C137.878 222.474 138.161 222.055 138.558 221.659C138.954 221.262 139.374 220.977 139.819 220.803C140.261 220.626 140.705 220.552 141.153 220.581C141.604 220.607 142.048 220.727 142.483 220.943C142.914 221.156 143.322 221.454 143.706 221.838L143.807 221.939C144.187 222.319 144.485 222.727 144.701 223.162C144.914 223.594 145.035 224.037 145.064 224.491C145.093 224.939 145.02 225.382 144.846 225.821C144.672 226.259 144.387 226.676 143.991 227.073C143.594 227.469 143.175 227.756 142.734 227.933C142.296 228.107 141.851 228.181 141.4 228.155C140.949 228.123 140.507 228.001 140.075 227.788C139.64 227.572 139.233 227.274 138.852 226.894ZM140.143 225.4L140.245 225.502C140.464 225.721 140.688 225.906 140.916 226.057C141.145 226.209 141.374 226.315 141.603 226.376C141.832 226.431 142.056 226.43 142.275 226.372C142.494 226.314 142.703 226.185 142.903 225.985C143.096 225.792 143.222 225.585 143.28 225.366C143.338 225.147 143.338 224.925 143.28 224.699C143.219 224.47 143.113 224.242 142.961 224.013C142.813 223.781 142.629 223.555 142.41 223.336L142.309 223.235C142.096 223.022 141.875 222.843 141.646 222.698C141.418 222.547 141.187 222.442 140.955 222.384C140.723 222.319 140.496 222.315 140.274 222.369C140.051 222.424 139.842 222.55 139.645 222.746C139.449 222.943 139.323 223.152 139.268 223.375C139.217 223.594 139.221 223.821 139.283 224.056C139.344 224.285 139.45 224.514 139.602 224.743C139.75 224.968 139.93 225.187 140.143 225.4ZM144.527 218.164L148.617 222.253L147.224 223.645L141.994 218.415L143.304 217.105L144.527 218.164ZM144.928 215.414L146.195 216.728C146.118 216.786 146.027 216.86 145.924 216.951C145.821 217.034 145.731 217.115 145.654 217.192C145.457 217.389 145.312 217.586 145.218 217.782C145.125 217.972 145.078 218.164 145.078 218.357C145.082 218.547 145.128 218.736 145.218 218.923C145.312 219.107 145.444 219.29 145.615 219.474L145.247 219.667C144.909 219.329 144.632 218.984 144.416 218.633C144.197 218.278 144.045 217.93 143.962 217.589C143.881 217.244 143.878 216.918 143.952 216.612C144.026 216.306 144.186 216.031 144.431 215.786C144.508 215.708 144.593 215.636 144.687 215.568C144.777 215.497 144.858 215.446 144.928 215.414ZM152.701 215.887L146.417 209.603L147.819 208.202L155.244 215.626L153.982 216.888L152.701 215.887ZM147.983 217.782L147.882 217.681C147.482 217.281 147.165 216.873 146.93 216.458C146.691 216.039 146.541 215.625 146.48 215.215C146.419 214.806 146.451 214.41 146.577 214.026C146.702 213.643 146.928 213.288 147.253 212.963C147.56 212.657 147.892 212.454 148.249 212.354C148.61 212.251 148.99 212.238 149.39 212.315C149.79 212.386 150.2 212.533 150.623 212.755C151.042 212.974 151.464 213.251 151.889 213.586L152.111 213.809C152.43 214.218 152.696 214.629 152.909 215.041C153.122 215.454 153.263 215.86 153.334 216.259C153.405 216.653 153.389 217.03 153.286 217.391C153.183 217.751 152.977 218.087 152.667 218.396C152.342 218.721 151.986 218.945 151.599 219.068C151.216 219.187 150.818 219.214 150.405 219.15C149.996 219.082 149.585 218.933 149.172 218.701C148.76 218.468 148.364 218.162 147.983 217.782ZM149.274 216.288L149.375 216.39C149.591 216.606 149.809 216.791 150.028 216.946C150.25 217.097 150.473 217.207 150.695 217.275C150.917 217.336 151.132 217.344 151.338 217.299C151.544 217.247 151.739 217.13 151.923 216.946C152.161 216.707 152.305 216.458 152.353 216.197C152.398 215.932 152.366 215.665 152.256 215.394C152.15 215.12 151.979 214.853 151.744 214.592L151.111 213.959C150.898 213.765 150.687 213.612 150.478 213.499C150.268 213.38 150.06 213.308 149.854 213.282C149.651 213.253 149.451 213.272 149.255 213.34C149.061 213.404 148.876 213.525 148.699 213.702C148.518 213.883 148.406 214.079 148.36 214.292C148.312 214.502 148.319 214.718 148.38 214.94C148.444 215.159 148.554 215.385 148.708 215.617C148.863 215.842 149.052 216.066 149.274 216.288ZM152.571 207.839L157.801 213.069L156.404 214.466L151.174 209.236L152.571 207.839ZM149.724 207.96C149.52 207.757 149.424 207.518 149.433 207.245C149.443 206.971 149.567 206.714 149.806 206.476C150.041 206.241 150.296 206.118 150.569 206.109C150.847 206.096 151.087 206.191 151.29 206.394C151.493 206.597 151.588 206.837 151.575 207.114C151.565 207.388 151.443 207.643 151.207 207.878C150.969 208.116 150.713 208.24 150.439 208.25C150.165 208.26 149.927 208.163 149.724 207.96ZM156.201 206.442L160.314 210.556L158.922 211.948L153.692 206.718L154.997 205.413L156.201 206.442ZM157.312 207.96L156.935 208.337C156.549 207.95 156.251 207.552 156.041 207.143C155.829 206.731 155.703 206.325 155.664 205.925C155.622 205.522 155.667 205.139 155.8 204.775C155.932 204.404 156.152 204.064 156.462 203.755C156.707 203.51 156.966 203.321 157.24 203.189C157.514 203.057 157.801 202.996 158.1 203.005C158.403 203.012 158.721 203.104 159.053 203.281C159.388 203.455 159.739 203.726 160.106 204.093L163.442 207.428L162.04 208.83L158.7 205.49C158.468 205.258 158.255 205.11 158.062 205.045C157.868 204.981 157.683 204.986 157.506 205.06C157.329 205.127 157.15 205.251 156.969 205.432C156.782 205.619 156.657 205.819 156.592 206.031C156.531 206.241 156.521 206.457 156.563 206.679C156.605 206.895 156.691 207.112 156.819 207.332C156.948 207.551 157.113 207.76 157.312 207.96ZM166.144 202.367L163.814 200.037C163.646 199.87 163.475 199.754 163.301 199.689C163.124 199.622 162.944 199.612 162.76 199.66C162.58 199.706 162.399 199.818 162.219 199.999C162.064 200.153 161.958 200.315 161.9 200.482C161.838 200.646 161.827 200.809 161.866 200.97C161.901 201.128 161.985 201.273 162.117 201.405L160.725 202.798C160.503 202.575 160.343 202.313 160.247 202.01C160.15 201.707 160.124 201.381 160.169 201.033C160.211 200.682 160.324 200.327 160.508 199.97C160.694 199.609 160.957 199.259 161.295 198.921C161.702 198.515 162.13 198.222 162.581 198.041C163.032 197.861 163.484 197.816 163.935 197.906C164.389 197.993 164.819 198.239 165.225 198.645L167.463 200.883C167.75 201.17 168.003 201.388 168.222 201.536C168.438 201.681 168.648 201.787 168.851 201.855L168.933 201.937L167.526 203.344C167.317 203.27 167.088 203.144 166.84 202.967C166.592 202.783 166.36 202.583 166.144 202.367ZM164.321 200.178L165.119 200.956L164.341 201.734C164.157 201.918 164.018 202.098 163.925 202.275C163.832 202.453 163.78 202.623 163.77 202.788C163.757 202.949 163.78 203.1 163.838 203.242C163.899 203.381 163.989 203.51 164.109 203.629C164.228 203.748 164.363 203.829 164.515 203.871C164.663 203.909 164.816 203.904 164.974 203.856C165.129 203.805 165.275 203.709 165.414 203.571C165.623 203.361 165.763 203.137 165.834 202.899C165.905 202.661 165.921 202.438 165.883 202.232C165.847 202.023 165.776 201.861 165.67 201.749L166.627 201.971C166.708 202.155 166.774 202.362 166.825 202.594C166.88 202.823 166.903 203.068 166.893 203.329C166.88 203.587 166.819 203.851 166.709 204.122C166.596 204.389 166.41 204.654 166.149 204.915C165.817 205.247 165.449 205.482 165.046 205.62C164.644 205.753 164.246 205.78 163.853 205.703C163.459 205.619 163.111 205.425 162.808 205.123C162.535 204.849 162.343 204.554 162.233 204.238C162.124 203.922 162.096 203.592 162.151 203.247C162.206 202.896 162.348 202.532 162.576 202.155C162.802 201.774 163.115 201.384 163.514 200.985L164.321 200.178ZM167.13 193.28L168.116 194.266L165.071 197.311L164.085 196.325L167.13 193.28ZM163.548 194.28L164.94 192.888L169.885 197.833C170.036 197.985 170.172 198.081 170.291 198.123C170.414 198.162 170.531 198.157 170.644 198.109C170.753 198.057 170.87 197.97 170.992 197.848C171.079 197.761 171.153 197.68 171.214 197.606C171.276 197.526 171.325 197.456 171.364 197.398L172.394 198.418C172.313 198.576 172.215 198.736 172.099 198.897C171.983 199.058 171.841 199.222 171.674 199.39C171.367 199.696 171.05 199.913 170.721 200.042C170.393 200.165 170.054 200.174 169.706 200.071C169.358 199.968 169 199.733 168.633 199.366L163.548 194.28ZM169.392 191.018L174.622 196.248L173.225 197.645L167.995 192.415L169.392 191.018ZM166.545 191.139C166.342 190.936 166.245 190.697 166.255 190.423C166.265 190.149 166.389 189.893 166.627 189.655C166.862 189.419 167.117 189.297 167.391 189.287C167.668 189.274 167.908 189.369 168.111 189.572C168.314 189.775 168.409 190.015 168.396 190.293C168.387 190.567 168.264 190.821 168.029 191.056C167.79 191.295 167.534 191.419 167.26 191.429C166.986 191.438 166.748 191.342 166.545 191.139ZM172.988 192.758L172.887 192.656C172.503 192.273 172.205 191.865 171.993 191.433C171.777 190.998 171.654 190.557 171.625 190.109C171.596 189.661 171.669 189.218 171.843 188.78C172.013 188.338 172.297 187.919 172.693 187.523C173.09 187.127 173.51 186.841 173.955 186.667C174.397 186.49 174.841 186.416 175.289 186.445C175.74 186.471 176.183 186.592 176.618 186.808C177.05 187.02 177.458 187.318 177.841 187.702L177.943 187.803C178.323 188.184 178.621 188.591 178.837 189.026C179.05 189.458 179.171 189.901 179.2 190.355C179.229 190.803 179.156 191.246 178.982 191.685C178.808 192.123 178.523 192.54 178.127 192.937C177.73 193.333 177.311 193.62 176.87 193.797C176.432 193.971 175.987 194.045 175.536 194.019C175.085 193.987 174.643 193.865 174.211 193.652C173.776 193.436 173.369 193.138 172.988 192.758ZM174.279 191.264L174.38 191.366C174.6 191.585 174.824 191.77 175.052 191.922C175.281 192.073 175.51 192.179 175.739 192.241C175.967 192.295 176.191 192.294 176.411 192.236C176.63 192.178 176.839 192.049 177.039 191.849C177.232 191.656 177.358 191.45 177.416 191.23C177.474 191.011 177.474 190.789 177.416 190.563C177.355 190.335 177.248 190.106 177.097 189.877C176.949 189.645 176.765 189.419 176.546 189.2L176.444 189.099C176.232 188.886 176.011 188.707 175.782 188.562C175.553 188.411 175.323 188.306 175.091 188.248C174.859 188.184 174.632 188.179 174.409 188.233C174.187 188.288 173.978 188.414 173.781 188.61C173.584 188.807 173.459 189.017 173.404 189.239C173.352 189.458 173.357 189.685 173.418 189.92C173.48 190.149 173.586 190.378 173.738 190.607C173.886 190.832 174.066 191.052 174.279 191.264ZM178.61 184.033L182.723 188.146L181.331 189.539L176.101 184.308L177.406 183.003L178.61 184.033ZM179.722 185.551L179.345 185.928C178.958 185.541 178.66 185.143 178.45 184.734C178.238 184.321 178.112 183.915 178.073 183.516C178.031 183.113 178.077 182.729 178.209 182.365C178.341 181.995 178.562 181.655 178.871 181.345C179.116 181.1 179.375 180.912 179.649 180.78C179.923 180.648 180.21 180.586 180.51 180.596C180.813 180.603 181.13 180.694 181.462 180.872C181.797 181.046 182.148 181.316 182.516 181.684L185.851 185.019L184.449 186.421L181.109 183.081C180.877 182.849 180.664 182.7 180.471 182.636C180.278 182.572 180.092 182.576 179.915 182.65C179.738 182.718 179.559 182.842 179.378 183.023C179.192 183.21 179.066 183.409 179.001 183.622C178.94 183.832 178.931 184.047 178.972 184.27C179.014 184.486 179.1 184.703 179.229 184.922C179.358 185.141 179.522 185.351 179.722 185.551Z" fill="white"/>
<defs>
<linearGradient id="paint0_linear_9381_76177" x1="71.8001" y1="15.7758" x2="71.8001" y2="238.226" gradientUnits="userSpaceOnUse">
<stop stop-color="#CEDD6A"/>
<stop offset="1" stop-color="#86C340"/>
</linearGradient>
<linearGradient id="paint1_linear_9381_76177" x1="183.024" y1="15.7758" x2="183.024" y2="238.226" gradientUnits="userSpaceOnUse">
<stop stop-color="#86C340"/>
<stop offset="1" stop-color="#398B61"/>
</linearGradient>
</defs>
</svg>
