<svg width="255" height="254" viewBox="0 0 255 254" fill="none" xmlns="http://www.w3.org/2000/svg">
<path d="M127.568 238.225V15.7793L16.3433 127.001L127.568 238.225Z" fill="url(#paint0_linear_9381_76172)"/>
<path d="M238.793 127.001L127.568 15.7793V238.225L238.793 127.001Z" fill="url(#paint1_linear_9381_76172)"/>
<path d="M127.568 15.7788L238.793 127.004L127.568 238.229L16.3471 127L127.568 15.7788ZM127.568 0C119.365 8.20734 8.77942 118.789 0.568359 127C8.77199 135.204 119.357 245.789 127.568 254C135.772 245.793 246.357 135.211 254.568 127C246.365 118.796 135.779 8.21106 127.568 0Z" fill="#2F354B"/>
<path opacity="0.4" d="M17.9092 128.566L43.5278 154.184C65.16 132.835 94.8433 119.626 127.569 119.626C160.294 119.626 189.977 132.835 211.609 154.184L237.228 128.566C209.032 100.652 170.286 83.3787 127.569 83.3787C84.8509 83.3787 46.105 100.652 17.9092 128.566Z" fill="#224490"/>
<path d="M43.5276 154.184L44.8404 155.497C66.1341 134.482 95.3563 121.485 127.565 121.485C159.773 121.485 188.995 134.486 210.293 155.501L211.605 154.188C189.973 132.835 160.286 119.629 127.565 119.629C94.8431 119.629 65.1561 132.838 43.5239 154.188L43.5276 154.184Z" fill="#2F354B"/>
<path d="M127.569 83.3781C170.286 83.3781 209.032 100.652 237.228 128.565L238.541 127.252C210.01 99.0007 170.796 81.5187 127.565 81.5187C84.334 81.5187 45.1232 99.0007 16.5928 127.252L17.9055 128.565C46.1013 100.652 84.8472 83.3781 127.565 83.3781H127.569Z" fill="#2F354B"/>
<path d="M112.232 84.1329L127.569 106.539L142.909 84.1329L127.569 57.5065L112.232 84.1329Z" fill="#1E539A"/>
<path d="M149.353 80.4225C144.868 72.6391 131.848 50.0364 127.572 42.61C121.96 52.3532 109.16 74.5766 103.456 84.4797C109.182 92.847 121.919 111.456 127.572 119.708C133.202 111.485 145.984 92.8172 151.688 84.4797L149.353 80.4262V80.4225ZM127.572 106.54L112.236 84.1376L127.572 57.5111L142.912 84.1376L127.572 106.54Z" fill="#2F354B"/>
<path opacity="0.2" d="M98.6851 154.825L127.569 171.504L156.453 154.825L127.569 138.15L98.6851 154.825Z" fill="#224490"/>
<path opacity="0.5" d="M97.7515 189.789L126.639 206.468V173.114L97.7515 156.439V189.789Z" fill="#224490"/>
<path opacity="0.8" d="M128.498 206.468L157.381 189.789V156.439L128.498 173.114V206.468Z" fill="#224490"/>
<path d="M98.6849 154.823L98.6812 154.827L127.569 171.502L156.456 154.827L156.452 154.823L127.569 171.502L98.6849 154.823Z" fill="#2F354B"/>
<path opacity="0.4" d="M98.6849 154.823L98.6812 154.827L127.569 171.502L156.456 154.827L156.452 154.823L127.569 171.502L98.6849 154.823Z" fill="#224490"/>
<path d="M126.638 208.611V208.615L127.568 209.15L128.498 208.615V208.611L127.568 209.146L126.638 208.611Z" fill="#2F354B"/>
<path opacity="0.4" d="M126.638 208.611V208.615L127.568 209.15L128.498 208.615V208.611L127.568 209.146L126.638 208.611Z" fill="#224490"/>
<path d="M95.8921 154.286V190.86L126.639 208.61L127.569 209.145L128.498 208.61L159.241 190.86V154.289L127.569 136L95.8921 154.286ZM126.639 173.114V206.464L97.7515 189.785V156.435L126.639 173.11V173.114ZM157.382 156.439V189.789L128.498 206.467V173.117L157.382 156.439ZM156.456 154.829L127.569 171.504L98.6812 154.829H98.6849L127.569 138.15L156.452 154.825H156.456V154.829Z" fill="#2F354B"/>
<path d="M126.638 208.611L127.568 209.146L126.638 208.611Z" fill="#2F354B"/>
<path opacity="0.4" d="M126.638 208.611L127.568 209.146L126.638 208.611Z" fill="#224490"/>
<path d="M127.568 209.146L128.498 208.611L127.568 209.146Z" fill="#2F354B"/>
<path opacity="0.4" d="M127.568 209.146L128.498 208.611L127.568 209.146Z" fill="#224490"/>
<rect width="179.061" height="26" transform="translate(109 234.615) rotate(-45)" fill="#2F354B"/>
<path d="M132.152 234.656L133.284 235.787L129.74 239.33L128.609 238.199L132.152 234.656ZM123.171 231.824L130.209 238.862L128.759 240.312L121.721 233.274L123.171 231.824ZM135.671 231.041L133.342 228.711C133.174 228.543 133.003 228.427 132.829 228.363C132.652 228.295 132.471 228.285 132.288 228.334C132.107 228.379 131.927 228.492 131.746 228.672C131.592 228.827 131.485 228.988 131.427 229.155C131.366 229.32 131.355 229.483 131.394 229.644C131.429 229.802 131.513 229.947 131.645 230.079L130.253 231.471C130.03 231.248 129.871 230.986 129.774 230.683C129.678 230.38 129.652 230.055 129.697 229.707C129.739 229.355 129.852 229.001 130.035 228.643C130.222 228.282 130.485 227.933 130.823 227.594C131.229 227.188 131.658 226.895 132.109 226.714C132.56 226.534 133.011 226.489 133.462 226.579C133.917 226.666 134.347 226.913 134.753 227.319L136.991 229.557C137.278 229.843 137.531 230.061 137.75 230.209C137.966 230.354 138.175 230.461 138.378 230.528L138.46 230.61L137.054 232.017C136.844 231.943 136.616 231.817 136.367 231.64C136.119 231.456 135.887 231.257 135.671 231.041ZM133.849 228.851L134.647 229.629L133.868 230.407C133.685 230.591 133.546 230.772 133.453 230.949C133.359 231.126 133.308 231.297 133.298 231.461C133.285 231.622 133.308 231.774 133.366 231.916C133.427 232.054 133.517 232.183 133.636 232.302C133.756 232.421 133.891 232.502 134.042 232.544C134.191 232.583 134.344 232.578 134.502 232.529C134.656 232.478 134.803 232.383 134.942 232.244C135.151 232.035 135.291 231.811 135.362 231.572C135.433 231.334 135.449 231.112 135.41 230.905C135.375 230.696 135.304 230.535 135.198 230.422L136.155 230.644C136.235 230.828 136.301 231.036 136.353 231.268C136.408 231.497 136.43 231.742 136.421 232.003C136.408 232.26 136.347 232.525 136.237 232.795C136.124 233.063 135.937 233.327 135.676 233.588C135.344 233.92 134.977 234.155 134.574 234.294C134.171 234.426 133.773 234.453 133.38 234.376C132.987 234.292 132.639 234.099 132.336 233.796C132.062 233.522 131.87 233.227 131.761 232.911C131.651 232.595 131.624 232.265 131.679 231.92C131.734 231.569 131.875 231.205 132.104 230.828C132.33 230.448 132.642 230.058 133.042 229.658L133.849 228.851ZM140.21 227.681L136.957 221.654L138.451 220.16L142.366 228.281C142.453 228.458 142.534 228.661 142.608 228.89C142.685 229.115 142.727 229.36 142.734 229.624C142.746 229.889 142.7 230.161 142.593 230.441C142.49 230.718 142.3 230.996 142.023 231.273C141.891 231.405 141.775 231.505 141.675 231.572C141.575 231.64 141.453 231.717 141.308 231.804L140.288 230.784C140.323 230.749 140.36 230.712 140.399 230.673C140.441 230.638 140.479 230.602 140.515 230.567C140.699 230.383 140.827 230.212 140.902 230.055C140.976 229.897 141.005 229.739 140.989 229.581C140.976 229.426 140.922 229.26 140.829 229.083L140.21 227.681ZM134.99 223.621L139.915 226.275L141.588 227.551L140.742 228.6L133.496 225.114L134.99 223.621ZM146.673 222.591C146.267 222.997 145.838 223.297 145.387 223.49C144.933 223.68 144.477 223.772 144.019 223.766C143.565 223.756 143.125 223.658 142.7 223.471C142.271 223.281 141.883 223.012 141.535 222.664L141.341 222.47C140.945 222.074 140.639 221.655 140.423 221.214C140.207 220.772 140.083 220.326 140.051 219.875C140.022 219.42 140.094 218.977 140.268 218.545C140.439 218.11 140.715 217.703 141.095 217.322C141.465 216.952 141.855 216.684 142.265 216.52C142.674 216.356 143.088 216.29 143.507 216.322C143.929 216.351 144.348 216.473 144.764 216.689C145.176 216.902 145.574 217.2 145.958 217.583L146.538 218.164L142.381 222.321L141.453 221.392L144.242 218.603L144.135 218.497C143.942 218.304 143.734 218.167 143.512 218.086C143.289 217.999 143.064 217.98 142.835 218.028C142.606 218.077 142.384 218.209 142.168 218.425C141.984 218.608 141.867 218.806 141.815 219.019C141.764 219.232 141.768 219.453 141.83 219.681C141.894 219.907 142.004 220.139 142.158 220.377C142.313 220.609 142.506 220.841 142.738 221.073L142.932 221.267C143.141 221.476 143.364 221.641 143.599 221.76C143.837 221.876 144.076 221.944 144.314 221.963C144.556 221.979 144.791 221.944 145.02 221.857C145.252 221.766 145.469 221.62 145.672 221.417C145.924 221.165 146.109 220.883 146.228 220.571C146.348 220.252 146.386 219.913 146.344 219.556L147.756 219.614C147.804 219.881 147.806 220.182 147.761 220.518C147.719 220.849 147.612 221.194 147.442 221.552C147.268 221.906 147.011 222.253 146.673 222.591ZM146.818 214.074L150.907 218.164L149.515 219.556L144.285 214.326L145.595 213.016L146.818 214.074ZM147.219 211.324L148.486 212.639C148.408 212.697 148.318 212.771 148.215 212.861C148.112 212.945 148.022 213.025 147.944 213.103C147.748 213.299 147.603 213.496 147.509 213.692C147.416 213.882 147.369 214.074 147.369 214.268C147.372 214.458 147.419 214.646 147.509 214.833C147.603 215.017 147.735 215.2 147.906 215.384L147.538 215.577C147.2 215.239 146.923 214.894 146.707 214.543C146.488 214.189 146.336 213.841 146.252 213.499C146.172 213.154 146.169 212.829 146.243 212.523C146.317 212.216 146.476 211.941 146.721 211.696C146.799 211.619 146.884 211.546 146.978 211.478C147.068 211.408 147.148 211.356 147.219 211.324ZM159.275 207.621L160.362 208.709L155.548 213.523L154.62 212.595L154.455 207.877C154.43 207.394 154.386 206.99 154.325 206.664C154.26 206.335 154.18 206.065 154.083 205.852C153.986 205.633 153.867 205.452 153.725 205.311C153.513 205.098 153.295 204.951 153.073 204.871C152.847 204.787 152.623 204.772 152.401 204.827C152.182 204.879 151.972 205.004 151.773 205.204C151.56 205.417 151.428 205.652 151.376 205.91C151.328 206.165 151.355 206.424 151.458 206.688C151.565 206.949 151.734 207.196 151.966 207.428L150.569 208.825C150.15 208.406 149.866 207.922 149.718 207.375C149.567 206.824 149.57 206.263 149.728 205.693C149.883 205.119 150.21 204.582 150.709 204.083C151.202 203.59 151.698 203.255 152.198 203.077C152.697 202.894 153.184 202.865 153.658 202.99C154.131 203.11 154.575 203.376 154.987 203.788C155.219 204.02 155.409 204.284 155.557 204.581C155.702 204.874 155.815 205.199 155.896 205.557C155.976 205.908 156.031 206.292 156.06 206.708C156.089 207.123 156.105 207.568 156.108 208.042L156.258 210.637L159.275 207.621ZM162.673 203.508C162.573 203.408 162.454 203.347 162.315 203.324C162.176 203.301 161.994 203.335 161.769 203.425C161.543 203.509 161.255 203.669 160.904 203.904C160.581 204.11 160.262 204.284 159.946 204.426C159.631 204.561 159.326 204.65 159.033 204.692C158.743 204.731 158.466 204.711 158.201 204.634C157.934 204.553 157.689 204.402 157.467 204.18C157.248 203.96 157.088 203.707 156.988 203.421C156.892 203.131 156.858 202.823 156.887 202.497C156.916 202.165 157.017 201.829 157.191 201.487C157.365 201.139 157.615 200.802 157.94 200.477C158.395 200.023 158.857 199.705 159.328 199.525C159.801 199.341 160.253 199.289 160.681 199.37C161.11 199.444 161.485 199.642 161.807 199.965L160.415 201.357C160.28 201.221 160.13 201.129 159.966 201.081C159.801 201.026 159.629 201.028 159.449 201.086C159.268 201.138 159.084 201.257 158.898 201.444C158.743 201.598 158.637 201.759 158.579 201.927C158.517 202.091 158.501 202.249 158.53 202.401C158.559 202.546 158.627 202.671 158.733 202.778C158.814 202.858 158.902 202.915 158.999 202.947C159.096 202.973 159.208 202.973 159.337 202.947C159.466 202.921 159.615 202.87 159.782 202.792C159.95 202.708 160.143 202.592 160.362 202.444C160.817 202.145 161.255 201.909 161.677 201.739C162.096 201.564 162.499 201.497 162.885 201.535C163.269 201.571 163.631 201.759 163.973 202.101C164.205 202.333 164.366 202.597 164.456 202.894C164.547 203.19 164.568 203.508 164.519 203.846C164.468 204.181 164.347 204.524 164.157 204.876C163.967 205.22 163.704 205.56 163.369 205.896C162.882 206.382 162.383 206.708 161.87 206.872C161.361 207.033 160.886 207.067 160.444 206.973C160.003 206.874 159.64 206.682 159.357 206.398L160.676 205.079C160.873 205.262 161.074 205.367 161.281 205.393C161.49 205.415 161.691 205.382 161.885 205.291C162.081 205.198 162.263 205.067 162.431 204.9C162.611 204.719 162.737 204.545 162.808 204.378C162.876 204.207 162.898 204.049 162.876 203.904C162.853 203.753 162.785 203.62 162.673 203.508Z" fill="white"/>
<defs>
<linearGradient id="paint0_linear_9381_76172" x1="71.9576" y1="15.7793" x2="71.9576" y2="238.225" gradientUnits="userSpaceOnUse">
<stop stop-color="#3BEEFF"/>
<stop offset="1" stop-color="#4BC0FF"/>
</linearGradient>
<linearGradient id="paint1_linear_9381_76172" x1="183.178" y1="15.7793" x2="183.178" y2="238.225" gradientUnits="userSpaceOnUse">
<stop stop-color="#4BC0FF"/>
<stop offset="1" stop-color="#0079A7"/>
</linearGradient>
</defs>
</svg>
