<svg width="254" height="254" viewBox="0 0 254 254" fill="none" xmlns="http://www.w3.org/2000/svg">
<path d="M127 238.225V15.7793L15.7749 127.001L127 238.225Z" fill="url(#paint0_linear_9381_76171)"/>
<path d="M238.224 127.001L127 15.7793V238.225L238.224 127.001Z" fill="url(#paint1_linear_9381_76171)"/>
<path d="M127 15.7788L238.225 127.004L127 238.229L15.7788 127L127 15.7788ZM127 0C118.796 8.20734 8.21106 118.789 0 127C8.20363 135.204 118.789 245.789 127 254C135.204 245.793 245.789 135.211 254 127C245.796 118.796 135.211 8.21106 127 0Z" fill="#2F354B"/>
<path opacity="0.6" d="M71.6753 91.4738L127 123.414L182.324 91.4738L127 59.5295L71.6753 91.4738Z" fill="#4BC0FF"/>
<path opacity="0.2" d="M127.982 188.994L183.306 157.054V93.1761L127.982 125.117V188.994Z" fill="#4BC0FF"/>
<path opacity="0.4" d="M70.6938 157.054L126.018 188.994V125.117L70.6938 93.1761V157.054Z" fill="#4BC0FF"/>
<path d="M71.6756 91.4729H71.6719L127 123.417L182.332 91.4729H182.324L127 123.413L71.6756 91.4729Z" fill="#2F354B"/>
<path opacity="0.4" d="M71.6756 91.4729H71.6719L127 123.417L182.332 91.4729H182.324L127 123.413L71.6756 91.4729Z" fill="#4BC0FF"/>
<path d="M183.303 93.1695L127.978 125.113L127.982 125.119L183.307 93.1759L183.303 93.1695Z" fill="#2F354B"/>
<path opacity="0.4" d="M183.303 93.1695L127.978 125.113L127.982 125.119L183.307 93.1759L183.303 93.1695Z" fill="#4BC0FF"/>
<path d="M70.6976 93.1697L70.6938 93.1761L126.019 125.12L126.023 125.113L70.6976 93.1697Z" fill="#2F354B"/>
<path opacity="0.4" d="M70.6976 93.1697L70.6938 93.1761L126.019 125.12L126.023 125.113L70.6976 93.1697Z" fill="#4BC0FF"/>
<path d="M126.018 191.259V191.267L127 191.832L127.491 191.549L127.982 191.267V191.259L127 191.828L126.018 191.259Z" fill="#2F354B"/>
<path opacity="0.4" d="M126.018 191.259V191.267L127 191.832L127.491 191.549L127.982 191.267V191.259L127 191.828L126.018 191.259Z" fill="#4BC0FF"/>
<path d="M68.7339 90.907V158.191L126.022 191.266L127.003 191.831L127.985 191.266L185.273 158.191V90.907L127.007 57.267L68.7413 90.907H68.7339ZM126.022 125.12V188.997L70.6974 157.053V93.1792L126.022 125.116V125.124V125.12ZM183.309 93.1755V157.053L127.985 188.997V125.112L183.309 93.1718V93.1792V93.1755ZM182.335 91.476L127.007 123.42L71.6754 91.476H71.6829L127.007 59.5317L182.331 91.4723H182.339L182.335 91.476Z" fill="#2F354B"/>
<path d="M126.018 191.259L127 191.828L126.018 191.259Z" fill="#2F354B"/>
<path opacity="0.4" d="M126.018 191.259L127 191.828L126.018 191.259Z" fill="#4BC0FF"/>
<path d="M127 191.828L127.981 191.259L127 191.828Z" fill="#2F354B"/>
<path opacity="0.4" d="M127 191.828L127.981 191.259L127 191.828Z" fill="#4BC0FF"/>
<path d="M111.664 129.979L127 152.385L142.34 129.979L127 103.352L111.664 129.979Z" fill="#4BC0FF"/>
<path d="M148.784 126.268C144.3 118.484 131.28 95.8817 127.003 88.4553C121.392 98.1985 108.592 120.422 102.887 130.325C108.614 138.692 121.351 157.301 127.003 165.553C132.634 157.331 145.415 138.663 151.12 130.325L148.784 126.272V126.268ZM127.003 152.385L111.667 129.983L127.003 103.356L142.343 129.983L127.003 152.385Z" fill="#2F354B"/>
<rect width="179.061" height="26" transform="translate(108 234.615) rotate(-45)" fill="#2F354B"/>
<path d="M131.152 234.656L132.284 235.787L128.74 239.33L127.609 238.199L131.152 234.656ZM122.171 231.824L129.209 238.862L127.759 240.312L120.721 233.274L122.171 231.824ZM134.671 231.041L132.342 228.711C132.174 228.543 132.003 228.427 131.829 228.363C131.652 228.295 131.471 228.285 131.288 228.334C131.107 228.379 130.927 228.492 130.746 228.672C130.592 228.827 130.485 228.988 130.427 229.155C130.366 229.32 130.355 229.483 130.394 229.644C130.429 229.802 130.513 229.947 130.645 230.079L129.253 231.471C129.03 231.248 128.871 230.986 128.774 230.683C128.678 230.38 128.652 230.055 128.697 229.707C128.739 229.355 128.852 229.001 129.035 228.643C129.222 228.282 129.485 227.933 129.823 227.594C130.229 227.188 130.658 226.895 131.109 226.714C131.56 226.534 132.011 226.489 132.462 226.579C132.917 226.666 133.347 226.913 133.753 227.319L135.991 229.557C136.278 229.843 136.531 230.061 136.75 230.209C136.966 230.354 137.175 230.461 137.378 230.528L137.46 230.61L136.054 232.017C135.844 231.943 135.616 231.817 135.367 231.64C135.119 231.456 134.887 231.257 134.671 231.041ZM132.849 228.851L133.647 229.629L132.868 230.407C132.685 230.591 132.546 230.772 132.453 230.949C132.359 231.126 132.308 231.297 132.298 231.461C132.285 231.622 132.308 231.774 132.366 231.916C132.427 232.054 132.517 232.183 132.636 232.302C132.756 232.421 132.891 232.502 133.042 232.544C133.191 232.583 133.344 232.578 133.502 232.529C133.656 232.478 133.803 232.383 133.942 232.244C134.151 232.035 134.291 231.811 134.362 231.572C134.433 231.334 134.449 231.112 134.41 230.905C134.375 230.696 134.304 230.535 134.198 230.422L135.155 230.644C135.235 230.828 135.301 231.036 135.353 231.268C135.408 231.497 135.43 231.742 135.421 232.003C135.408 232.26 135.347 232.525 135.237 232.795C135.124 233.063 134.937 233.327 134.676 233.588C134.344 233.92 133.977 234.155 133.574 234.294C133.171 234.426 132.773 234.453 132.38 234.376C131.987 234.292 131.639 234.099 131.336 233.796C131.062 233.522 130.87 233.227 130.761 232.911C130.651 232.595 130.624 232.265 130.679 231.92C130.734 231.569 130.875 231.205 131.104 230.828C131.33 230.448 131.642 230.058 132.042 229.658L132.849 228.851ZM139.21 227.681L135.957 221.654L137.451 220.16L141.366 228.281C141.453 228.458 141.534 228.661 141.608 228.89C141.685 229.115 141.727 229.36 141.734 229.624C141.746 229.889 141.7 230.161 141.593 230.441C141.49 230.718 141.3 230.996 141.023 231.273C140.891 231.405 140.775 231.505 140.675 231.572C140.575 231.64 140.453 231.717 140.308 231.804L139.288 230.784C139.323 230.749 139.36 230.712 139.399 230.673C139.441 230.638 139.479 230.602 139.515 230.567C139.699 230.383 139.827 230.212 139.902 230.055C139.976 229.897 140.005 229.739 139.989 229.581C139.976 229.426 139.922 229.26 139.829 229.083L139.21 227.681ZM133.99 223.621L138.915 226.275L140.588 227.551L139.742 228.6L132.496 225.114L133.99 223.621ZM145.673 222.591C145.267 222.997 144.838 223.297 144.387 223.49C143.933 223.68 143.477 223.772 143.019 223.766C142.565 223.756 142.125 223.658 141.7 223.471C141.271 223.281 140.883 223.012 140.535 222.664L140.341 222.47C139.945 222.074 139.639 221.655 139.423 221.214C139.207 220.772 139.083 220.326 139.051 219.875C139.022 219.42 139.094 218.977 139.268 218.545C139.439 218.11 139.715 217.703 140.095 217.322C140.465 216.952 140.855 216.684 141.265 216.52C141.674 216.356 142.088 216.29 142.507 216.322C142.929 216.351 143.348 216.473 143.764 216.689C144.176 216.902 144.574 217.2 144.958 217.583L145.538 218.164L141.381 222.321L140.453 221.392L143.242 218.603L143.135 218.497C142.942 218.304 142.734 218.167 142.512 218.086C142.289 217.999 142.064 217.98 141.835 218.028C141.606 218.077 141.384 218.209 141.168 218.425C140.984 218.608 140.867 218.806 140.815 219.019C140.764 219.232 140.768 219.453 140.83 219.681C140.894 219.907 141.004 220.139 141.158 220.377C141.313 220.609 141.506 220.841 141.738 221.073L141.932 221.267C142.141 221.476 142.364 221.641 142.599 221.76C142.837 221.876 143.076 221.944 143.314 221.963C143.556 221.979 143.791 221.944 144.02 221.857C144.252 221.766 144.469 221.62 144.672 221.417C144.924 221.165 145.109 220.883 145.228 220.571C145.348 220.252 145.386 219.913 145.344 219.556L146.756 219.614C146.804 219.881 146.806 220.182 146.761 220.518C146.719 220.849 146.612 221.194 146.442 221.552C146.268 221.906 146.011 222.253 145.673 222.591ZM145.818 214.074L149.907 218.164L148.515 219.556L143.285 214.326L144.595 213.016L145.818 214.074ZM146.219 211.324L147.486 212.639C147.408 212.697 147.318 212.771 147.215 212.861C147.112 212.945 147.022 213.025 146.944 213.103C146.748 213.299 146.603 213.496 146.509 213.692C146.416 213.882 146.369 214.074 146.369 214.268C146.372 214.458 146.419 214.646 146.509 214.833C146.603 215.017 146.735 215.2 146.906 215.384L146.538 215.577C146.2 215.239 145.923 214.894 145.707 214.543C145.488 214.189 145.336 213.841 145.252 213.499C145.172 213.154 145.169 212.829 145.243 212.523C145.317 212.216 145.476 211.941 145.721 211.696C145.799 211.619 145.884 211.546 145.978 211.478C146.068 211.408 146.148 211.356 146.219 211.324ZM150.889 203.077L157.941 210.13L156.549 211.522L151.101 206.074L149.961 208.279L148.863 207.181L150.739 203.227L150.889 203.077ZM163.074 199.979L161.281 201.772L160.15 200.641L161.943 198.848C162.221 198.571 162.401 198.3 162.485 198.036C162.565 197.768 162.564 197.512 162.48 197.267C162.396 197.022 162.251 196.797 162.045 196.591C161.835 196.381 161.6 196.226 161.339 196.127C161.078 196.027 160.806 196.009 160.522 196.073C160.239 196.138 159.958 196.309 159.681 196.586L158.391 197.876L164.293 203.778L162.842 205.228L155.805 198.191L158.545 195.45C159.096 194.899 159.668 194.527 160.261 194.333C160.854 194.133 161.429 194.103 161.987 194.241C162.544 194.38 163.047 194.673 163.495 195.121C163.949 195.575 164.238 196.073 164.36 196.615C164.483 197.156 164.436 197.715 164.22 198.292C164.007 198.866 163.626 199.428 163.074 199.979ZM166.439 193.453L170.528 197.543L169.136 198.935L163.906 193.705L165.216 192.395L166.439 193.453ZM166.84 190.703L168.106 192.018C168.029 192.076 167.939 192.15 167.836 192.24C167.733 192.324 167.642 192.405 167.565 192.482C167.368 192.678 167.223 192.875 167.13 193.072C167.037 193.262 166.99 193.453 166.99 193.647C166.993 193.837 167.04 194.025 167.13 194.212C167.223 194.396 167.356 194.58 167.526 194.763L167.159 194.957C166.821 194.618 166.543 194.274 166.328 193.922C166.108 193.568 165.957 193.22 165.873 192.878C165.793 192.533 165.789 192.208 165.864 191.902C165.938 191.596 166.097 191.32 166.342 191.075C166.419 190.998 166.505 190.925 166.598 190.858C166.688 190.787 166.769 190.735 166.84 190.703ZM169.832 193.115L169.731 193.014C169.347 192.63 169.049 192.222 168.836 191.791C168.62 191.356 168.498 190.914 168.469 190.466C168.44 190.018 168.512 189.575 168.686 189.137C168.857 188.695 169.141 188.277 169.537 187.88C169.934 187.484 170.354 187.199 170.799 187.025C171.24 186.847 171.685 186.773 172.133 186.802C172.584 186.828 173.027 186.949 173.462 187.165C173.894 187.377 174.302 187.676 174.685 188.059L174.787 188.161C175.167 188.541 175.465 188.948 175.681 189.383C175.894 189.815 176.014 190.258 176.043 190.713C176.072 191.161 176 191.604 175.826 192.042C175.652 192.48 175.367 192.898 174.97 193.294C174.574 193.69 174.155 193.977 173.714 194.154C173.275 194.328 172.831 194.403 172.379 194.377C171.928 194.344 171.487 194.222 171.055 194.009C170.62 193.793 170.212 193.495 169.832 193.115ZM171.123 191.621L171.224 191.723C171.443 191.942 171.667 192.127 171.896 192.279C172.125 192.43 172.354 192.537 172.582 192.598C172.811 192.653 173.035 192.651 173.254 192.593C173.473 192.535 173.683 192.406 173.883 192.206C174.076 192.013 174.202 191.807 174.26 191.588C174.318 191.369 174.318 191.146 174.26 190.921C174.199 190.692 174.092 190.463 173.941 190.234C173.792 190.002 173.609 189.777 173.39 189.557L173.288 189.456C173.075 189.243 172.855 189.064 172.626 188.919C172.397 188.768 172.167 188.663 171.935 188.605C171.703 188.541 171.475 188.536 171.253 188.591C171.031 188.646 170.821 188.771 170.625 188.968C170.428 189.164 170.303 189.374 170.248 189.596C170.196 189.815 170.201 190.042 170.262 190.278C170.323 190.507 170.43 190.735 170.581 190.964C170.729 191.19 170.91 191.409 171.123 191.621ZM175.536 182.075L176.522 183.061L173.477 186.106L172.491 185.12L175.536 182.075ZM171.954 183.075L173.346 181.683L178.291 186.628C178.443 186.78 178.578 186.876 178.697 186.918C178.82 186.957 178.937 186.952 179.05 186.904C179.16 186.852 179.276 186.765 179.398 186.643C179.485 186.556 179.559 186.475 179.62 186.401C179.682 186.32 179.732 186.251 179.77 186.193L180.8 187.213C180.719 187.371 180.621 187.531 180.505 187.692C180.389 187.853 180.247 188.017 180.08 188.185C179.773 188.491 179.456 188.708 179.127 188.837C178.799 188.96 178.46 188.969 178.112 188.866C177.764 188.763 177.406 188.528 177.039 188.161L171.954 183.075ZM178.649 184.298L178.547 184.197C178.164 183.813 177.866 183.406 177.653 182.974C177.437 182.539 177.315 182.097 177.286 181.649C177.257 181.202 177.329 180.758 177.503 180.32C177.674 179.879 177.958 179.46 178.354 179.063C178.75 178.667 179.171 178.382 179.616 178.208C180.057 178.031 180.502 177.957 180.95 177.986C181.401 178.011 181.844 178.132 182.279 178.348C182.711 178.561 183.118 178.859 183.502 179.242L183.603 179.344C183.984 179.724 184.282 180.132 184.498 180.567C184.71 180.999 184.831 181.442 184.86 181.896C184.889 182.344 184.817 182.787 184.643 183.225C184.469 183.664 184.183 184.081 183.787 184.477C183.391 184.874 182.972 185.16 182.53 185.338C182.092 185.512 181.647 185.586 181.196 185.56C180.745 185.528 180.304 185.405 179.872 185.193C179.437 184.977 179.029 184.679 178.649 184.298ZM179.939 182.805L180.041 182.906C180.26 183.125 180.484 183.311 180.713 183.462C180.942 183.614 181.17 183.72 181.399 183.781C181.628 183.836 181.852 183.834 182.071 183.776C182.29 183.718 182.5 183.589 182.699 183.39C182.893 183.196 183.018 182.99 183.076 182.771C183.134 182.552 183.134 182.329 183.076 182.104C183.015 181.875 182.909 181.646 182.757 181.417C182.609 181.185 182.426 180.96 182.206 180.741L182.105 180.639C181.892 180.427 181.671 180.248 181.443 180.103C181.214 179.951 180.983 179.847 180.751 179.788C180.519 179.724 180.292 179.719 180.07 179.774C179.848 179.829 179.638 179.954 179.441 180.151C179.245 180.348 179.119 180.557 179.064 180.779C179.013 180.999 179.018 181.226 179.079 181.461C179.14 181.69 179.247 181.919 179.398 182.147C179.546 182.373 179.727 182.592 179.939 182.805ZM188.191 177.899C188.361 177.728 188.481 177.544 188.548 177.347C188.613 177.148 188.622 176.951 188.577 176.758C188.532 176.558 188.429 176.374 188.268 176.207L189.578 174.897C189.942 175.267 190.171 175.693 190.264 176.173C190.354 176.65 190.319 177.133 190.158 177.623C189.994 178.11 189.71 178.554 189.307 178.957C188.901 179.363 188.479 179.65 188.041 179.818C187.606 179.982 187.169 180.045 186.731 180.006C186.289 179.964 185.859 179.834 185.44 179.614C185.018 179.392 184.623 179.097 184.256 178.73L184.116 178.59C183.745 178.219 183.45 177.824 183.231 177.405C183.009 176.983 182.878 176.553 182.84 176.115C182.798 175.673 182.859 175.235 183.023 174.8C183.188 174.365 183.471 173.946 183.874 173.543C184.303 173.115 184.76 172.821 185.247 172.664C185.737 172.502 186.226 172.483 186.716 172.606C187.206 172.722 187.66 172.986 188.079 173.398L186.769 174.708C186.592 174.537 186.397 174.417 186.185 174.346C185.975 174.272 185.762 174.259 185.547 174.307C185.331 174.349 185.128 174.465 184.937 174.655C184.734 174.858 184.612 175.068 184.57 175.283C184.525 175.496 184.541 175.712 184.618 175.931C184.693 176.147 184.809 176.363 184.966 176.579C185.124 176.788 185.305 176.995 185.508 177.198L185.648 177.338C185.851 177.541 186.059 177.723 186.272 177.884C186.484 178.045 186.699 178.163 186.914 178.237C187.134 178.308 187.349 178.321 187.562 178.276C187.775 178.23 187.984 178.105 188.191 177.899ZM189.399 173.548L189.297 173.447C188.914 173.063 188.616 172.656 188.403 172.224C188.187 171.789 188.065 171.347 188.036 170.899C188.007 170.451 188.079 170.008 188.253 169.57C188.424 169.128 188.708 168.71 189.104 168.313C189.501 167.917 189.921 167.632 190.366 167.458C190.807 167.28 191.252 167.206 191.7 167.235C192.151 167.261 192.594 167.382 193.029 167.598C193.461 167.81 193.869 168.109 194.252 168.492L194.354 168.594C194.734 168.974 195.032 169.381 195.248 169.816C195.461 170.248 195.581 170.691 195.61 171.146C195.639 171.594 195.567 172.037 195.393 172.475C195.219 172.913 194.934 173.331 194.537 173.727C194.141 174.123 193.722 174.41 193.28 174.587C192.842 174.761 192.398 174.836 191.946 174.81C191.495 174.778 191.054 174.655 190.622 174.442C190.187 174.226 189.779 173.928 189.399 173.548ZM190.69 172.055L190.791 172.156C191.01 172.375 191.234 172.56 191.463 172.712C191.692 172.863 191.921 172.97 192.149 173.031C192.378 173.086 192.602 173.084 192.821 173.026C193.04 172.968 193.25 172.839 193.45 172.639C193.643 172.446 193.769 172.24 193.827 172.021C193.885 171.802 193.885 171.579 193.827 171.354C193.765 171.125 193.659 170.896 193.508 170.667C193.359 170.435 193.176 170.21 192.957 169.991L192.855 169.889C192.642 169.676 192.422 169.497 192.193 169.352C191.964 169.201 191.734 169.096 191.502 169.038C191.27 168.974 191.042 168.969 190.82 169.024C190.598 169.079 190.388 169.204 190.192 169.401C189.995 169.597 189.869 169.807 189.815 170.029C189.763 170.248 189.768 170.475 189.829 170.711C189.89 170.94 189.997 171.168 190.148 171.397C190.296 171.623 190.477 171.842 190.69 172.055ZM191.816 161.406L199.24 168.83L197.844 170.227L190.419 162.803L191.816 161.406Z" fill="white"/>
<defs>
<linearGradient id="paint0_linear_9381_76171" x1="71.3892" y1="15.7793" x2="71.3892" y2="238.225" gradientUnits="userSpaceOnUse">
<stop stop-color="#7592BF"/>
<stop offset="1" stop-color="#224490"/>
</linearGradient>
<linearGradient id="paint1_linear_9381_76171" x1="182.61" y1="15.7793" x2="182.61" y2="238.225" gradientUnits="userSpaceOnUse">
<stop stop-color="#224490"/>
<stop offset="1" stop-color="#3B416F"/>
</linearGradient>
</defs>
</svg>
