<svg width="255" height="254" viewBox="0 0 255 254" fill="none" xmlns="http://www.w3.org/2000/svg">
<path d="M127.842 238.225V15.7793L16.6206 127.001L127.842 238.225Z" fill="url(#paint0_linear_9381_76176)"/>
<path d="M239.066 127.001L127.841 15.7793V238.225L239.066 127.001Z" fill="url(#paint1_linear_9381_76176)"/>
<path d="M127.842 15.7788L239.067 127.004L127.842 238.229L16.6206 127L127.842 15.7788ZM127.842 0L119.954 7.88753L8.73304 119.112L0.841797 127L8.73304 134.888L119.958 246.112L127.846 254L135.733 246.112L246.958 134.888L254.849 127L246.958 119.112L135.729 7.88753L127.842 0Z" fill="#2F354B"/>
<path opacity="0.2" d="M132.929 129.104L194.375 171.695L220.997 145.069L132.929 129.104Z" fill="#E45065"/>
<path opacity="0.2" d="M145.915 220.153L172.538 193.527L129.954 132.089L145.915 220.153Z" fill="#E45065"/>
<path opacity="0.2" d="M122.759 129.108L34.6904 145.069L61.3132 171.695L122.759 129.108Z" fill="#E45065"/>
<path opacity="0.2" d="M122.751 124.89L61.3132 82.3066L34.6904 108.929L122.751 124.89Z" fill="#E45065"/>
<path opacity="0.2" d="M83.1499 193.531L109.773 220.154L125.737 132.086L83.1499 193.531Z" fill="#E45065"/>
<path opacity="0.2" d="M109.773 33.8464L83.1499 60.4692L125.737 121.915L109.773 33.8464Z" fill="#E45065"/>
<path opacity="0.2" d="M172.538 60.4692L145.911 33.8464L129.954 121.907L172.538 60.4692Z" fill="#E45065"/>
<path opacity="0.2" d="M220.997 108.929L194.374 82.3066L132.937 124.89L220.997 108.929Z" fill="#E45065"/>
<path opacity="0.6" d="M127.845 133.54L127.604 132.213L111.375 221.757L113.104 223.483L127.842 167.757L142.583 223.487L144.312 221.754L128.083 132.213L127.845 133.54Z" fill="#2F354B"/>
<path opacity="0.6" d="M127.604 121.791L127.845 120.463L128.083 121.791L144.312 32.246L127.842 15.7793L111.375 32.246L127.604 121.791Z" fill="#E45065"/>
<path opacity="0.6" d="M122.632 127.241L121.304 126.999L122.632 126.757L33.0874 110.532L16.6206 126.999L33.0874 143.469L122.632 127.241Z" fill="#E45065"/>
<path opacity="0.6" d="M134.383 126.999L133.055 127.241L222.6 143.469L239.066 126.999L222.596 110.532L133.055 126.757L134.383 126.999Z" fill="#E45065"/>
<path d="M117.049 219.542L109.16 227.431L123.899 242.169L131.788 234.281L117.049 219.542Z" fill="#E45065"/>
<path d="M113.104 223.482L127.841 238.224L113.104 223.486V223.482ZM120.991 215.595L105.212 231.374L119.95 246.115L135.729 230.336L120.991 215.595Z" fill="#2F354B"/>
<path d="M127.842 238.226L142.583 223.489L127.842 167.759L113.104 223.485L127.842 238.226Z" fill="#E45065"/>
<path d="M133.056 127.242L134.383 127L133.056 126.758L222.6 110.529L220.997 108.927L132.937 124.888L194.375 82.3039L193.705 81.6345L193.036 80.9651L131.698 123.478L132.468 122.37L131.36 123.14L173.877 61.806L173.207 61.1366L172.538 60.4672L129.954 121.905L145.915 33.8408L144.316 32.2417L128.087 121.786L127.849 120.459L127.611 121.786L111.383 32.2417L110.583 33.0412L109.784 33.8408L125.748 121.909L83.1571 60.4635L82.4877 61.1329L81.8183 61.8023L124.335 123.14L123.227 122.37L123.997 123.478L62.6592 80.9651L61.9898 81.6345L61.3204 82.3039L122.758 124.888L34.6977 108.927L33.8982 109.726L33.0986 110.526L122.643 126.754L121.315 126.996L122.643 127.238L33.0986 143.467L33.8982 144.27L34.6977 145.069L122.77 129.105L61.3242 171.692L61.9935 172.362L62.6629 173.027L124 130.514L123.231 131.622L124.339 130.853L81.8221 192.19L82.4914 192.859L83.1608 193.529L125.745 132.087L117.069 164.902L102.331 220.631L100.691 226.834L105.228 231.371L119.966 246.112L127.857 254L135.744 246.112L150.482 231.375L155.019 226.838L153.379 220.635L138.641 164.905L129.969 132.121V132.091L172.549 193.529L173.884 192.194L131.367 130.86L132.476 131.63L131.706 130.522L193.043 173.038L193.713 172.369L194.382 171.7L132.937 129.112L221.008 145.077L221.276 144.809L222.611 143.474L133.067 127.245L133.056 127.242ZM127.846 238.225L113.108 223.484L127.846 167.754L142.583 223.484L127.846 238.221V238.225Z" fill="#2F354B"/>
<path d="M127.842 147.056C138.766 147.056 147.622 138.2 147.622 127.276C147.622 116.352 138.766 107.496 127.842 107.496C116.918 107.496 108.062 116.352 108.062 127.276C108.062 138.2 116.918 147.056 127.842 147.056Z" fill="#2F354B"/>
<path d="M127.842 138.14C133.843 138.14 138.708 133.275 138.708 127.274C138.708 121.273 133.843 116.408 127.842 116.408C121.841 116.408 116.976 121.273 116.976 127.274C116.976 133.275 121.841 138.14 127.842 138.14Z" fill="#E45065"/>
<path d="M127.846 184.326C96.2364 184.326 70.521 158.611 70.521 127.001C70.521 95.3919 96.2364 69.6765 127.846 69.6765C159.456 69.6765 185.171 95.3919 185.171 127.001C185.171 158.611 159.456 184.326 127.846 184.326ZM127.846 71.5359C97.259 71.5359 72.3804 96.4183 72.3804 127.001C72.3804 157.585 97.259 182.467 127.846 182.467C158.433 182.467 183.312 157.585 183.312 127.001C183.312 96.4183 158.433 71.5359 127.846 71.5359Z" fill="#2F354B"/>
<rect width="179.061" height="40" transform="translate(100 225.615) rotate(-45)" fill="#2F354B"/>
<path d="M121.857 221.847L122.191 222.181C122.725 222.716 123.133 223.268 123.413 223.839C123.694 224.409 123.852 224.976 123.887 225.54C123.919 226.101 123.831 226.644 123.621 227.169C123.415 227.691 123.09 228.175 122.645 228.619C122.203 229.061 121.72 229.386 121.195 229.596C120.673 229.802 120.13 229.891 119.566 229.862C118.999 229.829 118.428 229.675 117.855 229.398C117.284 229.117 116.732 228.71 116.197 228.175L115.863 227.841C115.325 227.303 114.917 226.75 114.64 226.183C114.36 225.613 114.202 225.046 114.167 224.482C114.134 223.914 114.221 223.37 114.428 222.848C114.637 222.323 114.962 221.839 115.404 221.398C115.849 220.953 116.332 220.628 116.854 220.421C117.379 220.212 117.924 220.125 118.488 220.16C119.055 220.193 119.624 220.349 120.194 220.629C120.765 220.903 121.319 221.309 121.857 221.847ZM120.726 223.645L120.383 223.302C120.009 222.928 119.646 222.634 119.295 222.418C118.944 222.202 118.606 222.063 118.28 222.002C117.955 221.941 117.648 221.957 117.362 222.05C117.072 222.141 116.804 222.308 116.559 222.553C116.314 222.798 116.147 223.065 116.057 223.355C115.966 223.639 115.952 223.944 116.013 224.269C116.077 224.591 116.218 224.928 116.434 225.279C116.649 225.63 116.944 225.993 117.318 226.367L117.661 226.71C118.032 227.081 118.394 227.375 118.749 227.595C119.1 227.81 119.44 227.951 119.769 228.015C120.094 228.076 120.402 228.062 120.692 227.972C120.982 227.881 121.25 227.714 121.494 227.469C121.739 227.224 121.907 226.957 121.997 226.667C122.087 226.376 122.1 226.07 122.036 225.748C121.968 225.423 121.826 225.084 121.61 224.733C121.391 224.379 121.097 224.016 120.726 223.645ZM123.665 218.957L129.9 225.192L128.508 226.584L121.267 219.343L122.558 218.053L123.665 218.957ZM128.528 217.197L128.629 217.299C129.009 217.679 129.317 218.077 129.552 218.493C129.791 218.905 129.945 219.318 130.016 219.73C130.084 220.139 130.058 220.539 129.939 220.929C129.82 221.312 129.596 221.668 129.267 221.997C128.948 222.316 128.607 222.529 128.242 222.635C127.878 222.742 127.5 222.759 127.106 222.688C126.713 222.611 126.314 222.466 125.908 222.253C125.502 222.041 125.096 221.783 124.69 221.48L124.424 221.214C124.095 220.782 123.821 220.36 123.602 219.948C123.38 219.532 123.231 219.129 123.157 218.739C123.083 218.343 123.098 217.964 123.201 217.603C123.307 217.239 123.518 216.899 123.834 216.583C124.166 216.251 124.52 216.023 124.897 215.897C125.278 215.768 125.671 215.736 126.077 215.8C126.486 215.861 126.897 216.011 127.309 216.25C127.725 216.485 128.131 216.801 128.528 217.197ZM127.232 218.696L127.131 218.594C126.908 218.372 126.684 218.187 126.459 218.038C126.233 217.884 126.009 217.776 125.787 217.714C125.568 217.65 125.355 217.644 125.149 217.695C124.943 217.74 124.749 217.853 124.569 218.033C124.379 218.224 124.246 218.417 124.172 218.614C124.101 218.807 124.082 219.003 124.114 219.203C124.147 219.403 124.222 219.604 124.342 219.807C124.461 220.01 124.617 220.218 124.81 220.431L125.482 221.103C125.737 221.325 125.996 221.494 126.261 221.61C126.522 221.723 126.784 221.757 127.048 221.712C127.313 221.667 127.57 221.519 127.822 221.267C128.006 221.084 128.12 220.889 128.165 220.682C128.207 220.473 128.194 220.257 128.126 220.035C128.062 219.809 127.951 219.585 127.793 219.363C127.638 219.137 127.451 218.915 127.232 218.696ZM129.233 213.388L135.469 219.624L134.077 221.016L126.836 213.775L128.126 212.484L129.233 213.388ZM134.096 211.629L134.198 211.73C134.578 212.111 134.886 212.508 135.121 212.924C135.359 213.337 135.514 213.749 135.585 214.162C135.653 214.571 135.627 214.97 135.507 215.36C135.388 215.744 135.164 216.1 134.836 216.429C134.517 216.748 134.175 216.96 133.811 217.067C133.447 217.173 133.068 217.191 132.675 217.12C132.282 217.043 131.882 216.898 131.476 216.685C131.07 216.472 130.664 216.214 130.258 215.911L129.992 215.646C129.664 215.214 129.39 214.792 129.17 214.379C128.948 213.963 128.8 213.561 128.726 213.171C128.652 212.774 128.666 212.396 128.769 212.035C128.876 211.671 129.087 211.331 129.402 211.015C129.734 210.683 130.089 210.454 130.466 210.328C130.846 210.2 131.239 210.167 131.645 210.232C132.055 210.293 132.465 210.443 132.878 210.681C133.294 210.917 133.7 211.232 134.096 211.629ZM132.801 213.127L132.699 213.026C132.477 212.803 132.253 212.618 132.027 212.47C131.802 212.315 131.578 212.207 131.355 212.146C131.136 212.082 130.923 212.075 130.717 212.127C130.511 212.172 130.318 212.285 130.137 212.465C129.947 212.655 129.815 212.848 129.741 213.045C129.67 213.238 129.651 213.435 129.683 213.635C129.715 213.835 129.791 214.036 129.91 214.239C130.029 214.442 130.186 214.65 130.379 214.863L131.051 215.534C131.305 215.757 131.565 215.926 131.829 216.042C132.09 216.155 132.353 216.189 132.617 216.143C132.881 216.098 133.139 215.95 133.39 215.699C133.574 215.515 133.688 215.32 133.734 215.114C133.775 214.904 133.763 214.689 133.695 214.466C133.63 214.241 133.519 214.017 133.361 213.794C133.207 213.569 133.02 213.346 132.801 213.127ZM134.85 211.097L134.749 210.996C134.365 210.612 134.067 210.204 133.854 209.773C133.638 209.338 133.516 208.896 133.487 208.448C133.458 208 133.53 207.557 133.705 207.119C133.875 206.677 134.159 206.258 134.555 205.862C134.952 205.466 135.372 205.181 135.817 205.007C136.258 204.829 136.703 204.755 137.151 204.784C137.602 204.81 138.045 204.931 138.48 205.147C138.912 205.359 139.32 205.657 139.703 206.041L139.805 206.142C140.185 206.523 140.483 206.93 140.699 207.365C140.912 207.797 141.032 208.24 141.061 208.695C141.09 209.143 141.018 209.586 140.844 210.024C140.67 210.462 140.385 210.88 139.988 211.276C139.592 211.672 139.173 211.959 138.732 212.136C138.293 212.31 137.849 212.384 137.397 212.359C136.946 212.326 136.505 212.204 136.073 211.991C135.638 211.775 135.23 211.477 134.85 211.097ZM136.141 209.603L136.242 209.705C136.461 209.924 136.685 210.109 136.914 210.261C137.143 210.412 137.372 210.519 137.601 210.58C137.829 210.635 138.053 210.633 138.272 210.575C138.492 210.517 138.701 210.388 138.901 210.188C139.094 209.995 139.22 209.789 139.278 209.57C139.336 209.35 139.336 209.128 139.278 208.903C139.217 208.674 139.11 208.445 138.959 208.216C138.811 207.984 138.627 207.759 138.408 207.539L138.306 207.438C138.094 207.225 137.873 207.046 137.644 206.901C137.415 206.75 137.185 206.645 136.953 206.587C136.721 206.523 136.494 206.518 136.271 206.573C136.049 206.627 135.839 206.753 135.643 206.95C135.446 207.146 135.321 207.356 135.266 207.578C135.214 207.797 135.219 208.024 135.28 208.26C135.342 208.488 135.448 208.717 135.599 208.946C135.748 209.172 135.928 209.391 136.141 209.603ZM140.525 202.367L144.614 206.457L143.222 207.849L137.992 202.619L139.302 201.309L140.525 202.367ZM140.926 199.617L142.193 200.932C142.115 200.99 142.025 201.064 141.922 201.154C141.819 201.238 141.729 201.318 141.651 201.396C141.455 201.592 141.31 201.789 141.216 201.985C141.123 202.176 141.076 202.367 141.076 202.561C141.079 202.751 141.126 202.939 141.216 203.126C141.31 203.31 141.442 203.494 141.613 203.677L141.245 203.871C140.907 203.532 140.63 203.187 140.414 202.836C140.195 202.482 140.043 202.134 139.959 201.792C139.879 201.447 139.876 201.122 139.95 200.816C140.024 200.51 140.183 200.234 140.428 199.989C140.506 199.912 140.591 199.839 140.684 199.772C140.775 199.701 140.855 199.649 140.926 199.617ZM144.421 196.19L145.407 197.176L142.362 200.221L141.376 199.235L144.421 196.19ZM140.839 197.19L142.231 195.798L147.176 200.743C147.328 200.895 147.463 200.991 147.582 201.033C147.705 201.072 147.822 201.067 147.935 201.019C148.045 200.967 148.161 200.88 148.283 200.758C148.37 200.671 148.444 200.59 148.505 200.516C148.567 200.435 148.617 200.366 148.655 200.308L149.685 201.328C149.604 201.486 149.506 201.645 149.39 201.807C149.274 201.968 149.132 202.132 148.965 202.3C148.658 202.606 148.341 202.823 148.012 202.952C147.684 203.075 147.345 203.084 146.997 202.981C146.649 202.878 146.292 202.643 145.924 202.275L140.839 197.19ZM152.285 196.282L148.307 192.303L149.699 190.911L154.929 196.141L153.62 197.451L152.285 196.282ZM151.367 195.054L151.768 194.633C152.116 194.981 152.4 195.345 152.619 195.726C152.835 196.103 152.972 196.481 153.03 196.862C153.085 197.239 153.051 197.611 152.928 197.978C152.803 198.342 152.574 198.69 152.242 199.022C151.987 199.277 151.717 199.477 151.43 199.622C151.143 199.76 150.845 199.83 150.536 199.83C150.226 199.823 149.906 199.741 149.574 199.583C149.242 199.419 148.902 199.163 148.554 198.815L145.175 195.436L146.567 194.044L149.956 197.432C150.11 197.587 150.258 197.7 150.4 197.77C150.545 197.838 150.685 197.872 150.821 197.872C150.956 197.872 151.083 197.841 151.203 197.78C151.325 197.716 151.443 197.627 151.556 197.514C151.842 197.227 152.01 196.944 152.058 196.663C152.11 196.38 152.069 196.104 151.937 195.837C151.805 195.563 151.615 195.302 151.367 195.054ZM153.242 189.601L157.356 193.715L155.964 195.107L150.734 189.877L152.039 188.572L153.242 189.601ZM154.354 191.119L153.977 191.496C153.591 191.11 153.292 190.712 153.083 190.302C152.87 189.89 152.745 189.484 152.706 189.084C152.664 188.681 152.709 188.298 152.841 187.934C152.973 187.563 153.194 187.223 153.503 186.914C153.748 186.669 154.008 186.48 154.282 186.348C154.556 186.216 154.842 186.155 155.142 186.165C155.445 186.171 155.762 186.263 156.094 186.44C156.43 186.614 156.781 186.885 157.148 187.252L160.483 190.587L159.082 191.989L155.742 188.649C155.509 188.417 155.297 188.269 155.103 188.204C154.91 188.14 154.725 188.145 154.548 188.219C154.37 188.287 154.191 188.411 154.011 188.591C153.824 188.778 153.698 188.978 153.634 189.191C153.573 189.4 153.563 189.616 153.605 189.838C153.647 190.054 153.732 190.272 153.861 190.491C153.99 190.71 154.154 190.919 154.354 191.119ZM157.781 182.829L163.011 188.059L161.615 189.456L156.384 184.226L157.781 182.829ZM154.934 182.95C154.731 182.747 154.635 182.509 154.644 182.235C154.654 181.961 154.778 181.705 155.016 181.466C155.252 181.231 155.506 181.109 155.78 181.099C156.057 181.086 156.297 181.181 156.5 181.384C156.703 181.587 156.798 181.827 156.786 182.104C156.776 182.378 156.653 182.633 156.418 182.868C156.18 183.106 155.924 183.231 155.65 183.24C155.376 183.25 155.137 183.153 154.934 182.95ZM161.494 179.117L162.48 180.103L159.434 183.148L158.448 182.162L161.494 179.117ZM157.912 180.118L159.304 178.725L164.249 183.67C164.4 183.822 164.536 183.919 164.655 183.96C164.777 183.999 164.895 183.994 165.008 183.946C165.117 183.894 165.233 183.807 165.356 183.685C165.443 183.598 165.517 183.517 165.578 183.443C165.639 183.363 165.689 183.293 165.728 183.235L166.758 184.255C166.677 184.413 166.579 184.573 166.463 184.734C166.347 184.895 166.205 185.059 166.037 185.227C165.731 185.533 165.414 185.751 165.085 185.879C164.756 186.002 164.418 186.012 164.07 185.908C163.722 185.805 163.364 185.57 162.997 185.203L157.912 180.118ZM168.478 181.413L165.225 175.385L166.719 173.892L170.634 182.012C170.721 182.19 170.802 182.393 170.876 182.621C170.953 182.847 170.995 183.092 171.002 183.356C171.015 183.62 170.968 183.893 170.861 184.173C170.758 184.45 170.568 184.727 170.291 185.005C170.159 185.137 170.043 185.237 169.943 185.304C169.843 185.372 169.721 185.449 169.576 185.536L168.556 184.516C168.591 184.481 168.628 184.444 168.667 184.405C168.709 184.37 168.747 184.334 168.783 184.299C168.967 184.115 169.096 183.944 169.17 183.786C169.244 183.629 169.273 183.471 169.257 183.313C169.244 183.158 169.191 182.992 169.097 182.815L168.478 181.413ZM163.258 177.353L168.184 180.006L169.856 181.283L169.01 182.331L161.764 178.846L163.258 177.353ZM172.312 171.228L172.79 169C172.858 168.668 172.864 168.407 172.809 168.217C172.755 168.027 172.652 167.856 172.5 167.705C172.349 167.553 172.152 167.469 171.91 167.453C171.665 167.434 171.441 167.526 171.238 167.729C171.093 167.874 171.005 168.03 170.973 168.198C170.937 168.362 170.948 168.525 171.006 168.686C171.068 168.844 171.166 168.99 171.301 169.126C171.446 169.271 171.633 169.38 171.862 169.454C172.088 169.525 172.35 169.578 172.65 169.614C172.946 169.646 173.272 169.678 173.626 169.711L180.814 170.257L179.233 171.837L173.394 171.412C172.882 171.357 172.423 171.298 172.017 171.233C171.607 171.166 171.242 171.067 170.919 170.938C170.597 170.809 170.317 170.626 170.078 170.387C169.711 170.02 169.469 169.62 169.353 169.189C169.234 168.753 169.242 168.317 169.377 167.879C169.51 167.437 169.769 167.023 170.156 166.636C170.52 166.272 170.911 166.032 171.33 165.916C171.746 165.797 172.149 165.787 172.539 165.887C172.932 165.984 173.275 166.179 173.568 166.472C173.787 166.691 173.95 166.934 174.057 167.202C174.16 167.466 174.219 167.748 174.235 168.048C174.248 168.344 174.229 168.65 174.177 168.966L173.733 171.605C173.723 171.834 173.741 172.032 173.786 172.2C173.831 172.368 173.891 172.511 173.965 172.63C174.036 172.746 174.115 172.848 174.202 172.935C174.388 173.122 174.596 173.249 174.825 173.317C175.054 173.384 175.283 173.387 175.512 173.326C175.74 173.265 175.951 173.138 176.145 172.944C176.409 172.68 176.607 172.366 176.739 172.002C176.871 171.638 176.928 171.249 176.908 170.837C176.886 170.421 176.783 170.005 176.599 169.59C176.415 169.174 176.143 168.786 175.782 168.425L176.962 167.245C177.323 167.606 177.63 167.985 177.885 168.381C178.136 168.774 178.322 169.189 178.441 169.624C178.557 170.055 178.591 170.508 178.542 170.982C178.539 171.017 178.536 171.069 178.533 171.137C178.529 171.198 178.525 171.248 178.518 171.286C178.457 171.844 178.32 172.351 178.107 172.809C177.891 173.263 177.577 173.697 177.165 174.109C176.694 174.58 176.201 174.902 175.686 175.076C175.173 175.247 174.674 175.276 174.187 175.163C173.704 175.047 173.269 174.796 172.882 174.409C172.598 174.125 172.407 173.824 172.307 173.505C172.207 173.18 172.165 172.828 172.181 172.451C172.197 172.074 172.241 171.667 172.312 171.228ZM185.938 157.776L188.727 160.565C188.75 160.807 188.724 161.119 188.65 161.503C188.572 161.883 188.408 162.309 188.157 162.779C187.905 163.249 187.523 163.741 187.011 164.253C186.557 164.708 186.068 165.048 185.546 165.273C185.021 165.496 184.478 165.597 183.917 165.578C183.36 165.555 182.799 165.407 182.235 165.133C181.668 164.856 181.114 164.447 180.572 163.905L180.133 163.465C179.591 162.924 179.179 162.373 178.895 161.812C178.615 161.248 178.46 160.691 178.431 160.14C178.402 159.589 178.492 159.057 178.702 158.545C178.911 158.032 179.237 157.555 179.678 157.114C180.29 156.502 180.893 156.099 181.486 155.905C182.076 155.709 182.649 155.683 183.207 155.828C183.764 155.967 184.293 156.237 184.792 156.64L183.386 158.047C183.112 157.844 182.836 157.704 182.559 157.626C182.282 157.549 182 157.554 181.713 157.641C181.43 157.725 181.141 157.913 180.848 158.206C180.606 158.448 180.44 158.714 180.35 159.004C180.26 159.287 180.245 159.589 180.307 159.908C180.368 160.227 180.505 160.56 180.717 160.908C180.93 161.256 181.222 161.616 181.592 161.986L182.042 162.436C182.409 162.803 182.77 163.093 183.125 163.306C183.476 163.515 183.817 163.647 184.149 163.702C184.481 163.751 184.799 163.72 185.102 163.61C185.405 163.501 185.693 163.309 185.967 163.035C186.196 162.806 186.366 162.597 186.479 162.407C186.595 162.213 186.673 162.043 186.711 161.894C186.75 161.74 186.769 161.611 186.769 161.508L185.522 160.261L184.198 161.585L183.163 160.551L185.938 157.776ZM184.744 151.478L192.169 158.902L190.772 160.299L183.347 152.875L184.744 151.478ZM190.535 155.412L190.433 155.311C190.05 154.927 189.752 154.52 189.539 154.088C189.323 153.653 189.201 153.211 189.172 152.763C189.143 152.316 189.215 151.872 189.389 151.434C189.56 150.993 189.844 150.574 190.24 150.177C190.636 149.781 191.057 149.496 191.502 149.322C191.943 149.145 192.388 149.071 192.836 149.1C193.287 149.125 193.73 149.246 194.165 149.462C194.597 149.675 195.004 149.973 195.388 150.356L195.489 150.458C195.87 150.838 196.168 151.246 196.384 151.681C196.596 152.113 196.717 152.556 196.746 153.01C196.775 153.458 196.703 153.901 196.529 154.339C196.355 154.778 196.069 155.195 195.673 155.591C195.277 155.988 194.858 156.274 194.416 156.452C193.978 156.626 193.533 156.7 193.082 156.674C192.631 156.642 192.19 156.519 191.758 156.307C191.323 156.091 190.915 155.793 190.535 155.412ZM191.825 153.919L191.927 154.02C192.146 154.239 192.37 154.425 192.599 154.576C192.828 154.728 193.056 154.834 193.285 154.895C193.514 154.95 193.738 154.948 193.957 154.89C194.176 154.832 194.386 154.703 194.585 154.504C194.779 154.31 194.904 154.104 194.962 153.885C195.02 153.666 195.02 153.443 194.962 153.218C194.901 152.989 194.795 152.76 194.643 152.531C194.495 152.299 194.312 152.074 194.092 151.855L193.991 151.753C193.778 151.541 193.557 151.362 193.329 151.217C193.1 151.065 192.869 150.961 192.637 150.903C192.405 150.838 192.178 150.833 191.956 150.888C191.734 150.943 191.524 151.068 191.327 151.265C191.131 151.462 191.005 151.671 190.95 151.893C190.899 152.113 190.904 152.34 190.965 152.575C191.026 152.804 191.133 153.033 191.284 153.261C191.432 153.487 191.613 153.706 191.825 153.919ZM191.482 144.739L192.874 143.347L199.1 149.573L200.159 150.912L198.907 152.164L191.482 144.739ZM200.942 144.793L201.043 144.894C201.433 145.284 201.749 145.684 201.991 146.093C202.236 146.499 202.392 146.907 202.46 147.316C202.524 147.722 202.495 148.118 202.373 148.505C202.25 148.885 202.018 149.246 201.677 149.588C201.358 149.907 201.016 150.119 200.652 150.226C200.291 150.329 199.914 150.342 199.521 150.264C199.128 150.187 198.725 150.039 198.312 149.82C197.9 149.601 197.482 149.328 197.06 149.003L196.838 148.78C196.512 148.358 196.24 147.941 196.021 147.529C195.802 147.116 195.654 146.713 195.576 146.32C195.499 145.927 195.512 145.55 195.615 145.189C195.718 144.828 195.928 144.49 196.243 144.174C196.588 143.829 196.954 143.596 197.341 143.473C197.727 143.344 198.124 143.315 198.53 143.386C198.936 143.45 199.342 143.605 199.748 143.85C200.154 144.089 200.552 144.403 200.942 144.793ZM199.651 146.286L199.55 146.185C199.337 145.972 199.121 145.788 198.902 145.634C198.683 145.473 198.465 145.358 198.249 145.291C198.03 145.22 197.814 145.207 197.602 145.252C197.392 145.294 197.188 145.415 196.988 145.614C196.798 145.805 196.669 145.998 196.601 146.194C196.533 146.391 196.514 146.591 196.543 146.794C196.575 146.994 196.651 147.195 196.77 147.398C196.886 147.598 197.035 147.798 197.215 147.997L197.848 148.631C198.112 148.876 198.38 149.059 198.651 149.182C198.921 149.298 199.19 149.335 199.458 149.293C199.725 149.245 199.985 149.095 200.236 148.843C200.433 148.647 200.557 148.445 200.608 148.239C200.66 148.033 200.65 147.823 200.579 147.611C200.512 147.395 200.397 147.177 200.236 146.958C200.072 146.736 199.877 146.512 199.651 146.286ZM206.119 142.593L203.789 140.263C203.621 140.096 203.451 139.98 203.276 139.915C203.099 139.848 202.919 139.838 202.735 139.886C202.555 139.932 202.374 140.044 202.194 140.225C202.039 140.379 201.933 140.541 201.875 140.708C201.813 140.872 201.802 141.035 201.841 141.196C201.876 141.354 201.96 141.499 202.092 141.631L200.7 143.024C200.478 142.801 200.318 142.539 200.222 142.236C200.125 141.933 200.099 141.607 200.144 141.259C200.186 140.908 200.299 140.553 200.483 140.196C200.669 139.835 200.932 139.485 201.27 139.147C201.677 138.741 202.105 138.448 202.556 138.267C203.007 138.087 203.459 138.042 203.91 138.132C204.364 138.219 204.794 138.465 205.2 138.871L207.438 141.109C207.725 141.396 207.978 141.614 208.197 141.762C208.413 141.907 208.623 142.013 208.826 142.081L208.908 142.163L207.501 143.57C207.292 143.496 207.063 143.37 206.815 143.193C206.567 143.009 206.335 142.809 206.119 142.593ZM204.296 140.404L205.094 141.182L204.316 141.96C204.132 142.144 203.993 142.324 203.9 142.501C203.807 142.679 203.755 142.849 203.745 143.014C203.732 143.175 203.755 143.326 203.813 143.468C203.874 143.607 203.964 143.736 204.084 143.855C204.203 143.974 204.338 144.055 204.49 144.097C204.638 144.135 204.791 144.13 204.949 144.082C205.104 144.031 205.25 143.935 205.389 143.797C205.598 143.587 205.738 143.363 205.809 143.125C205.88 142.887 205.896 142.664 205.858 142.458C205.822 142.249 205.751 142.087 205.645 141.975L206.602 142.197C206.683 142.381 206.749 142.588 206.8 142.82C206.855 143.049 206.878 143.294 206.868 143.555C206.855 143.813 206.794 144.077 206.684 144.348C206.571 144.615 206.385 144.88 206.124 145.141C205.792 145.473 205.424 145.708 205.021 145.846C204.619 145.979 204.221 146.006 203.828 145.929C203.434 145.845 203.086 145.651 202.783 145.349C202.51 145.075 202.318 144.78 202.208 144.464C202.099 144.148 202.071 143.818 202.126 143.473C202.181 143.122 202.323 142.758 202.551 142.381C202.777 142 203.09 141.61 203.489 141.211L204.296 140.404ZM203.818 132.404L211.242 139.828L209.846 141.225L202.421 133.801L203.818 132.404ZM124.163 232.631L131.201 239.669L129.755 241.115L122.717 234.077L124.163 232.631ZM129.717 232.859L133.864 237.006L132.467 238.403L127.237 233.173L128.547 231.863L129.717 232.859ZM130.872 234.4L130.485 234.787C130.121 234.423 129.829 234.044 129.61 233.651C129.391 233.252 129.254 232.854 129.199 232.457C129.145 232.055 129.182 231.663 129.311 231.283C129.44 230.902 129.672 230.545 130.007 230.21C130.239 229.978 130.487 229.8 130.751 229.678C131.012 229.552 131.286 229.494 131.573 229.504C131.86 229.507 132.159 229.588 132.472 229.746C132.781 229.9 133.099 230.14 133.424 230.466L136.914 233.956L135.522 235.348L132.187 232.013C131.948 231.774 131.732 231.623 131.539 231.558C131.346 231.494 131.164 231.495 130.993 231.563C130.825 231.628 130.659 231.742 130.495 231.906C130.314 232.087 130.194 232.282 130.132 232.491C130.074 232.697 130.068 232.91 130.113 233.129C130.155 233.345 130.242 233.561 130.374 233.777C130.506 233.993 130.672 234.201 130.872 234.4ZM133.825 231.128L133.39 231.689C133.049 231.347 132.773 230.988 132.564 230.611C132.358 230.231 132.227 229.845 132.172 229.456C132.121 229.062 132.159 228.679 132.288 228.305C132.414 227.928 132.641 227.575 132.97 227.247C133.221 226.995 133.487 226.803 133.767 226.671C134.044 226.536 134.335 226.475 134.637 226.488C134.94 226.494 135.256 226.584 135.585 226.758C135.917 226.929 136.265 227.197 136.629 227.561L139.969 230.901L138.572 232.298L135.232 228.958C134.99 228.716 134.774 228.565 134.584 228.503C134.394 228.436 134.215 228.437 134.048 228.508C133.88 228.573 133.716 228.685 133.555 228.847C133.387 229.014 133.274 229.195 133.216 229.388C133.155 229.578 133.141 229.773 133.173 229.973C133.205 230.173 133.278 230.371 133.39 230.567C133.5 230.761 133.645 230.948 133.825 231.128ZM138.214 224.206L144.45 230.442L143.058 231.834L135.817 224.593L137.107 223.302L138.214 224.206ZM143.077 222.447L143.179 222.548C143.559 222.928 143.867 223.326 144.102 223.742C144.34 224.155 144.495 224.567 144.566 224.98C144.634 225.389 144.608 225.788 144.489 226.178C144.369 226.562 144.145 226.918 143.817 227.247C143.498 227.566 143.156 227.778 142.792 227.885C142.428 227.991 142.049 228.009 141.656 227.938C141.263 227.86 140.863 227.715 140.457 227.503C140.051 227.29 139.645 227.032 139.239 226.729L138.973 226.463C138.645 226.032 138.371 225.61 138.152 225.197C137.929 224.781 137.781 224.379 137.707 223.989C137.633 223.592 137.647 223.214 137.75 222.853C137.857 222.489 138.068 222.149 138.384 221.833C138.715 221.501 139.07 221.272 139.447 221.146C139.827 221.017 140.22 220.985 140.626 221.05C141.036 221.111 141.447 221.261 141.859 221.499C142.275 221.734 142.681 222.05 143.077 222.447ZM141.782 223.945L141.68 223.844C141.458 223.621 141.234 223.436 141.008 223.288C140.783 223.133 140.559 223.025 140.336 222.964C140.117 222.899 139.905 222.893 139.698 222.945C139.492 222.99 139.299 223.102 139.118 223.283C138.928 223.473 138.796 223.666 138.722 223.863C138.651 224.056 138.632 224.253 138.664 224.453C138.696 224.652 138.772 224.854 138.891 225.057C139.01 225.26 139.167 225.468 139.36 225.68L140.032 226.352C140.286 226.575 140.546 226.744 140.81 226.86C141.071 226.973 141.334 227.006 141.598 226.961C141.862 226.916 142.12 226.768 142.371 226.517C142.555 226.333 142.669 226.138 142.715 225.932C142.756 225.722 142.744 225.506 142.676 225.284C142.611 225.058 142.5 224.835 142.342 224.612C142.188 224.387 142.001 224.164 141.782 223.945ZM148.259 220.252L145.929 217.922C145.761 217.755 145.591 217.639 145.417 217.574C145.239 217.507 145.059 217.497 144.875 217.545C144.695 217.59 144.514 217.703 144.334 217.884C144.179 218.038 144.073 218.199 144.015 218.367C143.954 218.531 143.942 218.694 143.981 218.855C144.016 219.013 144.1 219.158 144.232 219.29L142.84 220.682C142.618 220.46 142.458 220.197 142.362 219.894C142.265 219.592 142.239 219.266 142.284 218.918C142.326 218.567 142.439 218.212 142.623 217.855C142.81 217.494 143.072 217.144 143.411 216.806C143.817 216.4 144.245 216.106 144.696 215.926C145.148 215.745 145.599 215.7 146.05 215.791C146.504 215.878 146.934 216.124 147.34 216.53L149.579 218.768C149.865 219.055 150.118 219.273 150.337 219.421C150.553 219.566 150.763 219.672 150.966 219.74L151.048 219.822L149.641 221.229C149.432 221.154 149.203 221.029 148.955 220.852C148.707 220.668 148.475 220.468 148.259 220.252ZM146.437 218.062L147.234 218.841L146.456 219.619C146.272 219.803 146.134 219.983 146.04 220.16C145.947 220.338 145.895 220.508 145.886 220.673C145.873 220.834 145.895 220.985 145.953 221.127C146.014 221.266 146.105 221.395 146.224 221.514C146.343 221.633 146.478 221.714 146.63 221.755C146.778 221.794 146.931 221.789 147.089 221.741C147.244 221.689 147.39 221.594 147.529 221.456C147.738 221.246 147.879 221.022 147.95 220.784C148.02 220.545 148.037 220.323 147.998 220.117C147.962 219.907 147.892 219.746 147.785 219.633L148.742 219.856C148.823 220.039 148.889 220.247 148.94 220.479C148.995 220.708 149.018 220.953 149.008 221.214C148.995 221.472 148.934 221.736 148.824 222.007C148.712 222.274 148.525 222.538 148.264 222.8C147.932 223.131 147.564 223.367 147.162 223.505C146.759 223.637 146.361 223.665 145.968 223.587C145.575 223.504 145.227 223.31 144.924 223.007C144.65 222.733 144.458 222.439 144.348 222.123C144.239 221.807 144.211 221.477 144.266 221.132C144.321 220.781 144.463 220.416 144.692 220.039C144.917 219.659 145.23 219.269 145.629 218.87L146.437 218.062ZM153.083 215.805C153.254 215.634 153.373 215.451 153.441 215.254C153.505 215.054 153.515 214.858 153.47 214.664C153.425 214.465 153.321 214.281 153.16 214.113L154.47 212.803C154.834 213.174 155.063 213.599 155.157 214.079C155.247 214.556 155.211 215.04 155.05 215.53C154.886 216.016 154.602 216.461 154.2 216.864C153.794 217.27 153.371 217.557 152.933 217.724C152.498 217.888 152.061 217.951 151.623 217.913C151.182 217.871 150.751 217.74 150.333 217.521C149.91 217.299 149.516 217.004 149.148 216.637L149.008 216.496C148.638 216.126 148.343 215.731 148.124 215.312C147.901 214.89 147.771 214.46 147.732 214.021C147.69 213.58 147.751 213.142 147.916 212.707C148.08 212.272 148.364 211.853 148.766 211.45C149.195 211.021 149.653 210.728 150.139 210.57C150.629 210.409 151.119 210.39 151.609 210.512C152.098 210.628 152.553 210.892 152.972 211.305L151.662 212.615C151.485 212.444 151.29 212.323 151.077 212.252C150.867 212.178 150.655 212.165 150.439 212.214C150.223 212.256 150.02 212.372 149.83 212.562C149.627 212.765 149.504 212.974 149.462 213.19C149.417 213.403 149.433 213.619 149.511 213.838C149.585 214.054 149.701 214.27 149.859 214.485C150.017 214.695 150.197 214.901 150.4 215.104L150.54 215.244C150.743 215.447 150.951 215.629 151.164 215.791C151.377 215.952 151.591 216.069 151.807 216.143C152.026 216.214 152.242 216.227 152.455 216.182C152.667 216.137 152.877 216.011 153.083 215.805ZM154.407 206.002L155.393 206.988L152.348 210.034L151.362 209.048L154.407 206.002ZM150.826 207.003L152.218 205.611L157.163 210.556C157.314 210.707 157.449 210.804 157.569 210.846C157.691 210.884 157.809 210.88 157.922 210.831C158.031 210.78 158.147 210.693 158.27 210.57C158.357 210.483 158.431 210.403 158.492 210.328C158.553 210.248 158.603 210.179 158.642 210.121L159.671 211.141C159.591 211.298 159.492 211.458 159.376 211.619C159.26 211.78 159.119 211.945 158.951 212.112C158.645 212.418 158.328 212.636 157.999 212.765C157.67 212.887 157.332 212.897 156.984 212.794C156.636 212.691 156.278 212.455 155.911 212.088L150.826 207.003Z" fill="white"/>
<defs>
<linearGradient id="paint0_linear_9381_76176" x1="72.2312" y1="15.7793" x2="72.2312" y2="238.225" gradientUnits="userSpaceOnUse">
<stop stop-color="#FDC459"/>
<stop offset="1" stop-color="#F58F21"/>
</linearGradient>
<linearGradient id="paint1_linear_9381_76176" x1="183.456" y1="15.7793" x2="183.456" y2="238.225" gradientUnits="userSpaceOnUse">
<stop stop-color="#F4864E"/>
<stop offset="1" stop-color="#B26F16"/>
</linearGradient>
</defs>
</svg>
