<svg width="255" height="254" viewBox="0 0 255 254" fill="none" xmlns="http://www.w3.org/2000/svg">
<path d="M127.137 238.225V15.7793L15.9116 127.001L127.137 238.225Z" fill="url(#paint0_linear_9381_76173)"/>
<path d="M238.361 127.001L127.136 15.7793V238.225L238.361 127.001Z" fill="url(#paint1_linear_9381_76173)"/>
<path opacity="0.2" d="M174.369 160.563C160.818 139.065 161.96 109.91 177.013 89.4638C173.499 84.7931 169.352 80.6503 164.682 77.1287C142.908 93.2273 111.373 93.231 89.6033 77.1287C84.9325 80.6466 80.786 84.7968 77.2681 89.4638C93.3741 111.234 93.3704 142.773 77.2681 164.542C80.7935 169.22 84.9399 173.363 89.6033 176.874C111.377 160.771 142.912 160.775 164.682 176.874C169.349 173.363 173.491 169.213 177.013 164.542C176.121 163.222 175.236 161.895 174.369 160.559V160.563Z" fill="#00B3A3"/>
<path opacity="0.2" d="M89.5988 74.8151C111.369 58.7128 142.907 58.7165 164.677 74.8151C168.812 71.7025 172.472 68.1585 175.644 64.2835L127.136 15.7758L78.6284 64.2835C81.8005 68.1585 85.4598 71.6987 89.5951 74.8151H89.5988Z" fill="#00B3A3"/>
<path opacity="0.6" d="M92.8754 77.077C113.611 91.2195 142.744 90.7212 163.034 75.9725C142.19 60.7888 112.09 60.7888 91.2466 75.9725C91.7858 76.3519 92.3287 76.7163 92.8754 77.077Z" fill="#00B3A3"/>
<path d="M91.2134 75.9919C91.7563 76.3749 92.3216 76.7096 92.8757 77.0741C92.329 76.7134 91.7861 76.3489 91.2469 75.9696L91.2134 75.9919Z" fill="#B4B6BE"/>
<path d="M161.395 77.0778C161.949 76.7096 162.518 76.3749 163.064 75.9919L163.031 75.9696C162.488 76.3489 161.945 76.7171 161.395 77.0778Z" fill="#B4B6BE"/>
<path d="M92.8757 74.866C92.3253 75.2304 91.7563 75.5651 91.2134 75.9481L91.2469 75.9704C91.7861 75.5911 92.329 75.2267 92.8757 74.866Z" fill="#B4B6BE"/>
<path d="M163.064 75.9483C162.521 75.5616 161.949 75.2269 161.395 74.8624C161.941 75.2269 162.488 75.5913 163.031 75.9706L163.064 75.9483Z" fill="#B4B6BE"/>
<path d="M163.064 75.9937L163.099 75.9709L163.064 75.9481L163.03 75.9709L163.064 75.9937Z" fill="#B4B6BE"/>
<path d="M91.2468 75.9706L91.2132 75.9481L91.1758 75.9706L91.2132 75.993L91.2468 75.9706Z" fill="#B4B6BE"/>
<path opacity="0.2" d="M164.677 179.184C142.911 195.29 111.361 195.29 89.5988 179.184C85.4635 182.297 81.8005 185.841 78.6284 189.716L127.136 238.223L175.644 189.716C172.468 185.841 168.809 182.3 164.674 179.184H164.677Z" fill="#00B3A3"/>
<path opacity="0.6" d="M161.375 176.909C140.643 162.786 111.525 163.288 91.2466 178.033C112.087 193.22 142.194 193.22 163.034 178.033C162.487 177.646 161.933 177.278 161.379 176.909H161.375Z" fill="#00B3A3"/>
<path d="M92.9017 176.911C92.3402 177.283 91.7638 177.621 91.2134 178.011L91.2469 178.034C91.7935 177.647 92.3476 177.279 92.9017 176.911Z" fill="#B4B6BE"/>
<path d="M163.064 178.008C162.513 177.617 161.937 177.279 161.375 176.907C161.93 177.275 162.484 177.643 163.03 178.03L163.064 178.008Z" fill="#B4B6BE"/>
<path d="M91.2134 178.052C91.7563 178.435 92.3253 178.773 92.8794 179.138C92.3327 178.777 91.7861 178.409 91.2469 178.029L91.2134 178.052Z" fill="#B4B6BE"/>
<path d="M161.397 179.138C161.952 178.773 162.517 178.435 163.063 178.052L163.03 178.029C162.491 178.409 161.944 178.777 161.397 179.138Z" fill="#B4B6BE"/>
<path d="M91.2132 178.007L91.1758 178.03L91.2132 178.052L91.2468 178.03L91.2132 178.007Z" fill="#B4B6BE"/>
<path d="M163.03 178.03L163.064 178.053L163.099 178.03L163.064 178.007L163.03 178.03Z" fill="#B4B6BE"/>
<path opacity="0.2" d="M189.854 78.494C185.979 81.6661 182.435 85.3291 179.322 89.4644C195.432 111.23 195.428 142.777 179.322 164.543C182.435 168.678 185.979 172.337 189.854 175.513L238.362 127.002L189.854 78.494Z" fill="#00B3A3"/>
<path opacity="0.6" d="M181.847 157.014C193.409 136.702 191.869 110.023 178.166 91.1097C162.982 111.957 162.986 142.05 178.166 162.897C179.49 160.997 180.765 159.059 181.847 157.018V157.014Z" fill="#00B3A3"/>
<path d="M177.039 161.233C177.411 161.794 177.749 162.374 178.144 162.929L178.166 162.895C177.779 162.345 177.407 161.791 177.039 161.233Z" fill="#B4B6BE"/>
<path d="M178.144 91.0774C177.753 91.6278 177.415 92.2042 177.043 92.7657C177.411 92.2116 177.779 91.6575 178.166 91.1109L178.144 91.0774Z" fill="#B4B6BE"/>
<path d="M178.188 162.929C178.575 162.382 178.913 161.809 179.282 161.255C178.917 161.806 178.549 162.356 178.166 162.895L178.188 162.929Z" fill="#B4B6BE"/>
<path d="M179.274 92.7434C178.91 92.1893 178.575 91.6241 178.188 91.0774L178.166 91.1109C178.549 91.6501 178.913 92.1967 179.274 92.7434Z" fill="#B4B6BE"/>
<path d="M178.143 162.926L178.166 162.964L178.188 162.926L178.166 162.893L178.143 162.926Z" fill="#B4B6BE"/>
<path d="M178.189 91.0785L178.166 91.0443L178.143 91.0785L178.166 91.1126L178.189 91.0785Z" fill="#B4B6BE"/>
<path opacity="0.2" d="M74.9511 164.541C58.8525 142.768 58.8488 111.233 74.9511 89.4629C71.8608 85.3648 68.2945 81.7129 64.3786 78.5371L15.9155 127L64.3824 175.467C68.2982 172.291 71.8645 168.639 74.9548 164.541H74.9511Z" fill="#00B3A3"/>
<path opacity="0.6" d="M79.7738 157.036C91.3541 136.721 89.8145 110.031 76.1071 91.1062C60.9233 111.95 60.9233 142.05 76.1071 162.894C77.4272 161.001 78.6953 159.074 79.7738 157.036Z" fill="#00B3A3"/>
<path d="M77.2156 92.7434C76.8512 92.1893 76.5165 91.6241 76.1297 91.0774L76.1074 91.1109C76.4867 91.6501 76.8549 92.1967 77.2156 92.7434Z" fill="#B4B6BE"/>
<path d="M76.1297 162.929C76.5165 162.382 76.8549 161.809 77.2193 161.255C76.8549 161.806 76.4867 162.352 76.1074 162.895L76.1297 162.929Z" fill="#B4B6BE"/>
<path d="M74.9951 161.262C75.3596 161.816 75.698 162.385 76.081 162.932L76.1033 162.898C75.7203 162.359 75.3558 161.813 74.9951 161.262Z" fill="#B4B6BE"/>
<path d="M76.0859 91.0774C75.7028 91.6203 75.3682 92.1856 75 92.7397C75.3607 92.193 75.7252 91.6501 76.1045 91.1109L76.0822 91.0774H76.0859Z" fill="#B4B6BE"/>
<path d="M76.131 91.0785L76.1082 91.0443L76.0854 91.0785L76.1082 91.1126L76.131 91.0785Z" fill="#B4B6BE"/>
<path d="M76.0854 162.926L76.1079 162.964L76.1303 162.926L76.1079 162.893L76.0854 162.926Z" fill="#B4B6BE"/>
<path d="M178.188 87.9199L178.165 87.8902L178.135 87.9274C174.699 83.4462 170.698 79.4411 166.213 76.0013L166.254 75.9715L166.224 75.9492C170.248 72.8663 173.84 69.3967 176.964 65.6073L175.648 64.2908C172.475 68.1658 168.816 71.7061 164.681 74.8224C142.907 58.7238 111.372 58.7201 89.6025 74.8224C85.4672 71.7098 81.808 68.1658 78.6358 64.2908L77.3194 65.6073C80.4432 69.3967 84.0392 72.87 88.0629 75.9529L88.0332 75.9752L88.0704 76.005C83.5855 79.4486 79.5841 83.45 76.1405 87.9348L76.1108 87.8976L76.0885 87.9274C73.0279 83.9371 69.5285 80.3559 65.6982 77.2285L64.3818 78.5449C68.3013 81.7207 71.8677 85.3726 74.9542 89.4707C58.8519 111.24 58.8557 142.779 74.9542 164.549C71.8639 168.647 68.2976 172.299 64.3818 175.475L65.6982 176.791C69.5285 173.664 73.0242 170.083 76.0848 166.096L76.1071 166.13L76.1368 166.089C79.5841 170.581 83.5855 174.579 88.0667 178.015L88.0295 178.045L88.0592 178.067C84.069 181.131 80.4878 184.627 77.3603 188.457L78.6321 189.729C81.8042 185.854 85.4672 182.31 89.6025 179.197C111.369 195.303 142.919 195.303 164.681 179.197C168.816 182.31 172.475 185.854 175.651 189.729L176.923 188.457C173.796 184.623 170.214 181.127 166.224 178.067L166.254 178.045L166.217 178.015C170.698 174.582 174.699 170.577 178.143 166.092L178.173 166.133L178.195 166.1C181.259 170.09 184.755 173.668 188.585 176.795L189.857 175.523C185.982 172.351 182.438 168.688 179.325 164.553C195.432 142.783 195.432 111.24 179.325 89.4744C182.438 85.3391 185.982 81.6761 189.857 78.504L188.585 77.2322C184.751 80.3597 181.256 83.9409 178.191 87.9311L178.188 87.9199ZM91.2127 75.9492C112.168 60.7989 142.149 60.8175 163.1 75.9715C142.138 91.1367 112.142 91.1404 91.1793 75.9715L91.2127 75.9492ZM76.1294 162.928L76.1071 162.961C60.9419 141.998 60.9382 112.003 76.1071 91.04C91.2685 111.988 91.2834 141.972 76.1294 162.928ZM163.063 178.052C142.112 193.206 112.12 193.191 91.1756 178.03C112.138 162.861 142.134 162.864 163.097 178.03L163.063 178.052ZM164.677 176.873C142.904 160.775 111.369 160.775 89.5988 176.873C84.9354 173.363 80.789 169.216 77.2636 164.542C93.3659 142.772 93.3696 111.233 77.2636 89.4632C80.7816 84.7924 84.9317 80.646 89.5988 77.128C111.369 93.2304 142.907 93.2266 164.677 77.128C169.352 80.6497 173.494 84.7962 177.009 89.4632C160.906 111.237 160.91 142.768 177.009 164.542C173.487 169.216 169.341 173.363 164.677 176.873ZM180.497 94.6137C193.438 115.283 192.408 143.2 178.165 162.961C163 141.998 162.996 112.003 178.165 91.04C178.95 92.23 179.731 93.4163 180.497 94.6137Z" fill="#2F354B"/>
<path d="M127.137 15.7788L238.362 127.004L127.137 238.229L15.9155 127L127.137 15.7788ZM127.137 0C118.933 8.20734 8.34778 118.789 0.136719 127C8.34034 135.204 118.926 245.789 127.137 254C135.34 245.793 245.926 135.211 254.137 127C245.933 118.796 135.348 8.21106 127.137 0Z" fill="#2F354B"/>
<path d="M111.801 129.979L127.137 152.385L142.477 129.979L127.137 103.352L111.801 129.979Z" fill="#00B3A3"/>
<path d="M148.921 126.268C144.436 118.484 131.417 95.8817 127.14 88.4553C121.529 98.1985 108.729 120.422 103.024 130.325C108.751 138.692 121.488 157.301 127.14 165.553C132.77 157.331 145.552 138.663 151.256 130.325L148.921 126.272V126.268ZM127.14 152.385L111.804 129.983L127.14 103.356L142.48 129.983L127.14 152.385Z" fill="#2F354B"/>
<rect width="179.061" height="26" transform="translate(108 234.616) rotate(-45)" fill="#2F354B"/>
<path d="M129.581 234.807C129.456 234.681 129.324 234.588 129.185 234.527C129.047 234.459 128.885 234.433 128.702 234.449C128.515 234.462 128.289 234.517 128.025 234.614C127.761 234.71 127.44 234.857 127.063 235.054C126.641 235.27 126.222 235.456 125.806 235.614C125.394 235.769 124.993 235.871 124.603 235.919C124.213 235.961 123.841 235.93 123.486 235.827C123.135 235.721 122.808 235.516 122.505 235.213C122.212 234.92 122.01 234.59 121.901 234.222C121.788 233.852 121.762 233.465 121.823 233.062C121.881 232.656 122.022 232.248 122.244 231.839C122.469 231.427 122.772 231.03 123.153 230.65C123.671 230.131 124.218 229.772 124.791 229.572C125.365 229.372 125.921 229.329 126.459 229.442C127 229.551 127.48 229.815 127.899 230.234L126.459 231.675C126.253 231.469 126.029 231.332 125.787 231.264C125.545 231.19 125.292 231.195 125.028 231.278C124.767 231.359 124.506 231.53 124.245 231.791C123.994 232.042 123.823 232.29 123.733 232.535C123.639 232.777 123.615 233.004 123.66 233.217C123.702 233.426 123.802 233.61 123.96 233.768C124.079 233.887 124.216 233.966 124.371 234.005C124.529 234.04 124.709 234.04 124.912 234.005C125.115 233.969 125.341 233.902 125.589 233.802C125.837 233.702 126.111 233.573 126.411 233.415C126.91 233.147 127.377 232.941 127.812 232.796C128.251 232.648 128.658 232.566 129.035 232.55C129.412 232.534 129.765 232.59 130.094 232.719C130.423 232.848 130.732 233.057 131.022 233.347C131.328 233.653 131.542 233.987 131.665 234.348C131.787 234.709 131.82 235.086 131.762 235.479C131.704 235.872 131.562 236.268 131.336 236.668C131.111 237.068 130.804 237.461 130.418 237.847C130.07 238.196 129.681 238.494 129.253 238.742C128.821 238.987 128.373 239.154 127.909 239.244C127.448 239.331 126.991 239.312 126.536 239.186C126.082 239.061 125.656 238.8 125.26 238.403L126.715 236.948C126.934 237.168 127.153 237.319 127.372 237.403C127.592 237.487 127.809 237.514 128.025 237.485C128.244 237.453 128.46 237.372 128.673 237.243C128.889 237.111 129.1 236.942 129.306 236.736C129.557 236.484 129.728 236.243 129.818 236.011C129.912 235.775 129.934 235.556 129.886 235.353C129.841 235.147 129.739 234.965 129.581 234.807ZM136.276 231.989C135.87 232.395 135.442 232.695 134.99 232.888C134.536 233.078 134.08 233.17 133.622 233.164C133.168 233.154 132.728 233.056 132.303 232.869C131.874 232.679 131.486 232.41 131.138 232.062L130.945 231.868C130.548 231.472 130.242 231.053 130.026 230.611C129.81 230.17 129.686 229.724 129.654 229.272C129.625 228.818 129.698 228.375 129.872 227.943C130.042 227.508 130.318 227.1 130.698 226.72C131.069 226.35 131.459 226.082 131.868 225.918C132.277 225.753 132.691 225.687 133.11 225.72C133.532 225.749 133.951 225.871 134.367 226.087C134.779 226.3 135.177 226.598 135.561 226.981L136.141 227.561L131.984 231.718L131.056 230.79L133.845 228.001L133.739 227.895C133.545 227.701 133.337 227.565 133.115 227.484C132.893 227.397 132.667 227.378 132.438 227.426C132.209 227.474 131.987 227.606 131.771 227.822C131.587 228.006 131.47 228.204 131.418 228.417C131.367 228.63 131.372 228.85 131.433 229.079C131.497 229.305 131.607 229.537 131.762 229.775C131.916 230.007 132.11 230.239 132.342 230.471L132.535 230.665C132.744 230.874 132.967 231.038 133.202 231.158C133.44 231.274 133.679 231.341 133.917 231.361C134.159 231.377 134.394 231.341 134.623 231.254C134.855 231.164 135.073 231.017 135.276 230.814C135.527 230.563 135.712 230.281 135.832 229.969C135.951 229.649 135.989 229.311 135.948 228.953L137.359 229.011C137.407 229.279 137.409 229.58 137.364 229.915C137.322 230.247 137.216 230.592 137.045 230.95C136.871 231.304 136.615 231.651 136.276 231.989ZM140.288 225.802C140.459 225.631 140.578 225.447 140.646 225.251C140.71 225.051 140.72 224.854 140.675 224.661C140.63 224.461 140.527 224.278 140.366 224.11L141.676 222.8C142.04 223.171 142.268 223.596 142.362 224.076C142.452 224.553 142.417 225.036 142.256 225.526C142.091 226.013 141.808 226.458 141.405 226.86C140.999 227.266 140.577 227.553 140.138 227.721C139.703 227.885 139.267 227.948 138.828 227.909C138.387 227.867 137.957 227.737 137.538 227.518C137.116 227.295 136.721 227.001 136.354 226.633L136.213 226.493C135.843 226.122 135.548 225.728 135.329 225.309C135.106 224.887 134.976 224.456 134.937 224.018C134.895 223.577 134.957 223.138 135.121 222.703C135.285 222.268 135.569 221.849 135.972 221.447C136.4 221.018 136.858 220.725 137.344 220.567C137.834 220.406 138.324 220.386 138.814 220.509C139.304 220.625 139.758 220.889 140.177 221.302L138.867 222.612C138.69 222.441 138.495 222.32 138.282 222.249C138.073 222.175 137.86 222.162 137.644 222.21C137.428 222.252 137.225 222.368 137.035 222.558C136.832 222.761 136.71 222.971 136.668 223.187C136.623 223.399 136.639 223.615 136.716 223.834C136.79 224.05 136.906 224.266 137.064 224.482C137.222 224.692 137.402 224.898 137.605 225.101L137.746 225.241C137.949 225.444 138.157 225.626 138.369 225.787C138.582 225.948 138.796 226.066 139.012 226.14C139.231 226.211 139.447 226.224 139.66 226.179C139.873 226.134 140.082 226.008 140.288 225.802ZM146.123 219.445L142.144 215.467L143.536 214.075L148.767 219.305L147.457 220.615L146.123 219.445ZM145.204 218.218L145.605 217.797C145.953 218.145 146.237 218.509 146.456 218.89C146.672 219.267 146.809 219.645 146.867 220.026C146.922 220.403 146.888 220.775 146.765 221.142C146.64 221.506 146.411 221.854 146.079 222.186C145.824 222.441 145.554 222.641 145.267 222.786C144.98 222.924 144.682 222.993 144.373 222.993C144.063 222.987 143.743 222.905 143.411 222.747C143.079 222.583 142.739 222.326 142.391 221.978L139.012 218.6L140.404 217.207L143.793 220.596C143.947 220.751 144.096 220.863 144.237 220.934C144.382 221.002 144.523 221.036 144.658 221.036C144.793 221.036 144.921 221.005 145.04 220.944C145.162 220.879 145.28 220.791 145.393 220.678C145.679 220.391 145.847 220.108 145.895 219.827C145.947 219.544 145.907 219.268 145.775 219.001C145.642 218.727 145.452 218.466 145.204 218.218ZM147.133 212.76L151.222 216.85L149.83 218.242L144.6 213.012L145.91 211.702L147.133 212.76ZM147.534 210.01L148.8 211.325C148.723 211.383 148.633 211.457 148.53 211.547C148.427 211.631 148.336 211.711 148.259 211.789C148.062 211.985 147.917 212.182 147.824 212.379C147.731 212.569 147.684 212.76 147.684 212.954C147.687 213.144 147.734 213.332 147.824 213.519C147.917 213.703 148.05 213.887 148.22 214.07L147.853 214.264C147.515 213.925 147.238 213.581 147.022 213.229C146.802 212.875 146.651 212.527 146.567 212.185C146.487 211.84 146.483 211.515 146.558 211.209C146.632 210.903 146.791 210.627 147.036 210.382C147.113 210.305 147.199 210.232 147.292 210.165C147.383 210.094 147.463 210.042 147.534 210.01ZM149.695 207.917L154.925 213.147L153.528 214.544L148.298 209.314L149.695 207.917ZM146.848 208.038C146.645 207.835 146.548 207.596 146.558 207.322C146.567 207.049 146.691 206.792 146.93 206.554C147.165 206.319 147.42 206.196 147.694 206.187C147.971 206.174 148.211 206.269 148.414 206.472C148.617 206.675 148.712 206.915 148.699 207.192C148.689 207.466 148.567 207.72 148.332 207.956C148.093 208.194 147.837 208.318 147.563 208.328C147.289 208.338 147.051 208.241 146.848 208.038ZM153.407 204.205L154.393 205.191L151.348 208.236L150.362 207.25L153.407 204.205ZM149.825 205.205L151.217 203.813L156.162 208.758C156.314 208.91 156.449 209.006 156.568 209.048C156.691 209.087 156.808 209.082 156.921 209.034C157.031 208.982 157.147 208.895 157.269 208.773C157.356 208.686 157.43 208.605 157.491 208.531C157.553 208.45 157.603 208.381 157.641 208.323L158.671 209.343C158.59 209.501 158.492 209.66 158.376 209.821C158.26 209.983 158.118 210.147 157.951 210.315C157.645 210.621 157.327 210.838 156.998 210.967C156.67 211.09 156.331 211.099 155.983 210.996C155.635 210.893 155.278 210.658 154.91 210.29L149.825 205.205ZM160.392 206.501L157.139 200.473L158.632 198.979L162.548 207.1C162.635 207.277 162.715 207.48 162.789 207.709C162.867 207.935 162.909 208.18 162.915 208.444C162.928 208.708 162.881 208.98 162.775 209.261C162.672 209.538 162.482 209.815 162.204 210.092C162.072 210.224 161.956 210.324 161.856 210.392C161.756 210.46 161.634 210.537 161.489 210.624L160.469 209.604C160.505 209.569 160.542 209.531 160.58 209.493C160.622 209.457 160.661 209.422 160.696 209.386C160.88 209.203 161.009 209.032 161.083 208.874C161.157 208.716 161.186 208.558 161.17 208.4C161.157 208.246 161.104 208.08 161.01 207.902L160.392 206.501ZM155.171 202.44L160.097 205.094L161.769 206.37L160.923 207.419L153.678 203.934L155.171 202.44Z" fill="white"/>
<defs>
<linearGradient id="paint0_linear_9381_76173" x1="71.5259" y1="15.7793" x2="71.5259" y2="238.225" gradientUnits="userSpaceOnUse">
<stop stop-color="#00BAD0"/>
<stop offset="1" stop-color="#006FCE"/>
</linearGradient>
<linearGradient id="paint1_linear_9381_76173" x1="182.747" y1="15.7793" x2="182.747" y2="238.225" gradientUnits="userSpaceOnUse">
<stop stop-color="#006FCE"/>
<stop offset="1" stop-color="#444B85"/>
</linearGradient>
</defs>
</svg>
