<svg width="255" height="254" viewBox="0 0 255 254" fill="none" xmlns="http://www.w3.org/2000/svg">
<path d="M127.548 238.225V15.7793L16.3228 127.001L127.548 238.225Z" fill="url(#paint0_linear_9381_76179)"/>
<path d="M238.773 127.001L127.548 15.7793V238.225L238.773 127.001Z" fill="url(#paint1_linear_9381_76179)"/>
<path d="M127.547 15.7788L238.772 127.004L127.547 238.229L16.3261 127L127.547 15.7788ZM127.547 0C119.344 8.20734 8.75843 118.789 0.547363 127C8.75099 135.204 119.336 245.789 127.547 254C135.751 245.793 246.336 135.211 254.547 127C246.344 118.796 135.758 8.21106 127.547 0Z" fill="#2F354B"/>
<path opacity="0.7" d="M147.432 179.803C142.401 175.954 135.354 173.548 127.544 173.548C119.735 173.548 112.692 175.958 107.66 179.807C113.729 180.978 120.449 181.651 127.544 181.651C134.64 181.651 141.36 180.982 147.432 179.807V179.803Z" fill="#7958A4"/>
<path opacity="0.4" d="M127.544 150.858C114.818 150.858 103.197 149.356 93.718 146.801C84.9045 150.497 79.4268 155.614 79.4268 161.271C79.4268 169.113 89.9621 175.923 105.339 179.325C110.75 174.654 118.69 171.683 127.544 171.683C136.398 171.683 144.338 174.654 149.753 179.325C165.13 175.923 175.665 169.11 175.665 161.271C175.665 155.614 170.187 150.494 161.37 146.801C151.895 149.356 140.273 150.858 127.544 150.858Z" fill="#7958A4"/>
<path opacity="0.7" d="M158.216 145.589C149.882 142.662 139.191 140.9 127.544 140.9C115.896 140.9 105.205 142.662 96.8711 145.589C105.763 147.731 116.328 148.999 127.544 148.999C138.759 148.999 149.324 147.731 158.216 145.589Z" fill="#7958A4"/>
<path opacity="0.4" d="M127.543 183.505C119.708 183.505 112.378 182.721 105.837 181.345C102.133 184.811 99.9014 189.173 99.9014 193.918C99.9014 205.152 112.3 214.293 127.543 214.293C142.786 214.293 155.188 205.152 155.188 193.918C155.188 189.173 152.957 184.811 149.253 181.345C142.712 182.717 135.382 183.505 127.547 183.505H127.543Z" fill="#7958A4"/>
<path opacity="0.4" d="M127.544 118.213C112.594 118.213 98.8606 116.838 87.5332 114.465C77.5222 118.165 71.2412 123.186 71.2412 128.63C71.2412 135.13 80.2146 141.021 93.7956 144.78C102.631 141.21 114.401 139.042 127.547 139.042C140.693 139.042 152.467 141.21 161.299 144.78C174.876 141.021 183.85 135.13 183.85 128.63C183.85 123.186 177.565 118.165 167.558 114.465C156.23 116.841 142.493 118.213 127.544 118.213Z" fill="#7958A4"/>
<path opacity="0.7" d="M163.816 113.205C153.936 110.141 141.229 108.255 127.543 108.255C113.858 108.255 101.155 110.141 91.2705 113.205C101.902 115.183 114.342 116.355 127.543 116.355C140.745 116.355 153.184 115.183 163.816 113.205Z" fill="#7958A4"/>
<path opacity="0.7" d="M173.215 80.8463C160.917 77.6147 144.878 75.6066 127.544 75.6066C110.211 75.6066 94.172 77.6147 81.874 80.8463C94.8897 82.6313 110.308 83.7061 127.544 83.7061C144.781 83.7061 160.195 82.6276 173.215 80.8463Z" fill="#7958A4"/>
<path opacity="0.4" d="M127.543 73.7463C147.409 73.7463 165.125 76.1747 177.903 80.1538C182.243 79.4695 186.263 78.7035 189.97 77.8742L156.111 44.0147C147.301 43.3379 137.74 42.9623 127.539 42.9623C117.339 42.9623 107.785 43.3379 98.9755 44.0147L65.1123 77.8779C68.8199 78.7072 72.8362 79.4732 77.176 80.1575C89.9537 76.1784 107.67 73.75 127.536 73.75L127.543 73.7463Z" fill="#7958A4"/>
<path opacity="0.4" d="M127.543 85.5705C110.217 85.5705 92.6759 84.3471 77.6074 82.0637C65.7557 85.7379 58.333 90.6541 58.333 95.9831C58.333 102.658 69.9542 108.69 87.399 112.431C97.7669 108.683 111.816 106.396 127.543 106.396C143.27 106.396 157.319 108.683 167.687 112.431C185.136 108.69 196.757 102.658 196.757 95.9831C196.757 90.6541 189.331 85.7379 177.479 82.0637C162.41 84.3471 144.865 85.5705 127.543 85.5705Z" fill="#7958A4"/>
<path d="M156.115 44.0148L154.159 42.0588C145.476 41.4303 136.484 41.103 127.548 41.103C118.611 41.103 109.623 41.4303 100.943 42.0588L98.9873 44.0148C107.793 43.338 117.354 42.9624 127.551 42.9624C137.748 42.9624 147.313 43.3417 156.123 44.0148H156.115Z" fill="#2F354B"/>
<path d="M177.908 80.1548C165.13 76.1757 147.414 73.7473 127.548 73.7473C107.682 73.7473 89.9659 76.1757 77.1882 80.1548C72.8484 79.4705 68.8321 78.7044 65.1245 77.8752L63.5663 79.4333C66.7161 80.1473 70.037 80.8093 73.5401 81.4043C62.8858 85.283 56.4746 90.3479 56.4746 95.9819C56.4746 103.297 67.2702 109.663 84.2055 113.691C74.9793 117.614 69.3825 122.817 69.3825 128.629C69.3825 135.751 77.7349 141.979 90.9588 146.022C82.6399 149.975 77.575 155.308 77.575 161.276C77.575 169.874 88.021 177.185 103.696 180.896C100.163 184.563 98.0506 189.055 98.0506 193.923C98.0506 206.18 111.286 216.158 127.552 216.158C143.818 216.158 157.056 206.184 157.056 193.923C157.056 189.055 154.944 184.563 151.411 180.896C167.086 177.185 177.532 169.874 177.532 161.276C177.532 155.308 172.463 149.975 164.144 146.022C177.365 141.979 185.717 135.751 185.717 128.633C185.717 122.824 180.12 117.618 170.894 113.694C187.829 109.667 198.629 103.3 198.629 95.9856C198.629 90.3554 192.217 85.2867 181.563 81.408C185.066 80.813 188.391 80.1511 191.544 79.437L189.986 77.8789C186.279 78.7082 182.259 79.478 177.919 80.1585L177.908 80.1548ZM127.548 75.6067C144.881 75.6067 160.92 77.6148 173.218 80.8465C160.199 82.6315 144.784 83.7062 127.548 83.7062C110.311 83.7062 94.897 82.6278 81.8776 80.8465C94.1719 77.6148 110.215 75.6067 127.548 75.6067ZM155.193 193.92C155.193 205.154 142.791 214.295 127.548 214.295C112.305 214.295 99.9062 205.154 99.9062 193.92C99.9062 189.174 102.137 184.812 105.841 181.346C112.383 182.719 119.712 183.507 127.548 183.507C135.383 183.507 142.717 182.722 149.254 181.346C152.958 184.812 155.19 189.174 155.19 193.92H155.193ZM107.664 179.803C112.695 175.954 119.742 173.544 127.548 173.544C135.354 173.544 142.404 175.951 147.436 179.799C141.367 180.971 134.647 181.644 127.548 181.644C120.449 181.644 113.733 180.975 107.664 179.799V179.803ZM175.669 161.272C175.669 169.115 165.134 175.924 149.756 179.327C144.346 174.656 136.406 171.685 127.548 171.685C118.69 171.685 110.754 174.656 105.343 179.327C89.9659 175.924 79.4306 169.112 79.4306 161.272C79.4306 155.616 84.9047 150.495 93.7219 146.803C103.197 149.358 114.819 150.86 127.548 150.86C140.277 150.86 151.895 149.358 161.374 146.803C170.191 150.499 175.669 155.62 175.669 161.272ZM96.8791 145.59C105.213 142.664 115.904 140.901 127.552 140.901C139.199 140.901 149.89 142.664 158.224 145.59C149.333 147.732 138.767 149.001 127.552 149.001C116.336 149.001 105.774 147.732 96.8791 145.59ZM183.854 128.629C183.854 135.129 174.881 141.02 161.303 144.78C152.467 141.21 140.698 139.042 127.552 139.042C114.406 139.042 102.636 141.21 93.8 144.78C80.2227 141.02 71.2456 135.129 71.2456 128.629C71.2456 123.185 77.5303 118.164 87.5376 114.464C98.865 116.841 112.598 118.213 127.548 118.213C142.497 118.213 156.231 116.837 167.562 114.464C177.569 118.164 183.854 123.185 183.854 128.629ZM91.2787 113.204C101.159 110.139 113.867 108.254 127.552 108.254C141.237 108.254 153.94 110.139 163.825 113.204C153.193 115.182 140.753 116.353 127.552 116.353C114.35 116.353 101.911 115.182 91.2787 113.204ZM196.766 95.9819C196.766 102.657 185.144 108.689 167.696 112.43C157.328 108.682 143.282 106.394 127.552 106.394C111.821 106.394 97.7754 108.682 87.4074 112.43C69.9626 108.689 58.3414 102.657 58.3414 95.9819C58.3414 90.6529 65.7678 85.7367 77.6159 82.0625C92.6844 84.3458 110.226 85.5693 127.552 85.5693C144.877 85.5693 162.419 84.3458 177.487 82.0625C189.339 85.7367 196.766 90.6529 196.766 95.9819Z" fill="#2F354B"/>
<path d="M112.21 129.979L127.546 152.385L142.886 129.979L127.546 103.352L112.21 129.979Z" fill="#7958A4"/>
<path d="M149.332 126.268C144.847 118.484 131.827 95.8817 127.551 88.4553C121.939 98.1985 109.139 120.422 103.435 130.325C109.161 138.692 121.898 157.301 127.551 165.553C133.181 157.331 145.963 138.663 151.667 130.325L149.332 126.272V126.268ZM127.551 152.385L112.215 129.983L127.551 103.356L142.891 129.983L127.551 152.385Z" fill="#2F354B"/>
<rect width="179.061" height="40" transform="translate(99 225.615) rotate(-45)" fill="#2F354B"/>
<path d="M120.581 225.806C120.456 225.68 120.324 225.587 120.185 225.526C120.047 225.458 119.885 225.432 119.702 225.448C119.515 225.461 119.289 225.516 119.025 225.613C118.761 225.709 118.44 225.856 118.063 226.053C117.641 226.269 117.222 226.455 116.806 226.613C116.394 226.768 115.993 226.87 115.603 226.918C115.213 226.96 114.841 226.929 114.486 226.826C114.135 226.72 113.808 226.515 113.505 226.212C113.212 225.919 113.01 225.589 112.901 225.221C112.788 224.851 112.762 224.464 112.823 224.061C112.881 223.655 113.022 223.247 113.244 222.838C113.469 222.426 113.772 222.029 114.153 221.649C114.671 221.13 115.218 220.771 115.791 220.571C116.365 220.371 116.921 220.328 117.459 220.441C118 220.55 118.48 220.814 118.899 221.233L117.459 222.674C117.253 222.468 117.029 222.331 116.787 222.263C116.545 222.189 116.292 222.194 116.028 222.277C115.767 222.358 115.506 222.529 115.245 222.79C114.994 223.041 114.823 223.289 114.733 223.534C114.639 223.776 114.615 224.003 114.66 224.216C114.702 224.425 114.802 224.609 114.96 224.767C115.079 224.886 115.216 224.965 115.371 225.004C115.529 225.039 115.709 225.039 115.912 225.004C116.115 224.968 116.341 224.901 116.589 224.801C116.837 224.701 117.111 224.572 117.411 224.414C117.91 224.147 118.377 223.94 118.812 223.795C119.251 223.647 119.658 223.565 120.035 223.549C120.412 223.533 120.765 223.589 121.094 223.718C121.423 223.847 121.732 224.056 122.022 224.346C122.328 224.652 122.542 224.986 122.665 225.347C122.787 225.708 122.82 226.085 122.762 226.478C122.704 226.871 122.562 227.268 122.336 227.667C122.111 228.067 121.804 228.46 121.418 228.847C121.07 229.195 120.681 229.493 120.253 229.741C119.821 229.986 119.373 230.153 118.909 230.243C118.448 230.33 117.991 230.311 117.536 230.185C117.082 230.06 116.656 229.799 116.26 229.402L117.715 227.947C117.934 228.167 118.153 228.318 118.372 228.402C118.592 228.486 118.809 228.513 119.025 228.484C119.244 228.452 119.46 228.371 119.673 228.242C119.889 228.11 120.1 227.941 120.306 227.735C120.557 227.483 120.728 227.242 120.818 227.01C120.912 226.774 120.934 226.555 120.886 226.352C120.841 226.146 120.739 225.964 120.581 225.806ZM122.104 217.507L123.09 218.493L120.045 221.538L119.059 220.552L122.104 217.507ZM118.522 218.507L119.914 217.115L124.859 222.06C125.011 222.211 125.146 222.308 125.265 222.35C125.388 222.389 125.505 222.384 125.618 222.335C125.728 222.284 125.844 222.197 125.966 222.074C126.053 221.987 126.127 221.907 126.189 221.833C126.25 221.752 126.3 221.683 126.338 221.625L127.368 222.645C127.287 222.803 127.189 222.962 127.073 223.123C126.957 223.285 126.815 223.449 126.648 223.616C126.342 223.923 126.024 224.14 125.696 224.269C125.367 224.391 125.029 224.401 124.681 224.298C124.332 224.195 123.975 223.96 123.607 223.592L118.522 218.507ZM129.77 217.942L127.441 215.612C127.273 215.444 127.102 215.328 126.928 215.264C126.751 215.196 126.57 215.186 126.387 215.235C126.206 215.28 126.026 215.393 125.845 215.573C125.691 215.728 125.584 215.889 125.526 216.056C125.465 216.221 125.454 216.384 125.493 216.545C125.528 216.703 125.612 216.848 125.744 216.98L124.352 218.372C124.129 218.149 123.97 217.887 123.873 217.584C123.777 217.281 123.751 216.956 123.796 216.607C123.838 216.256 123.951 215.902 124.134 215.544C124.321 215.183 124.584 214.834 124.922 214.495C125.328 214.089 125.757 213.796 126.208 213.615C126.659 213.435 127.11 213.39 127.561 213.48C128.016 213.567 128.446 213.814 128.852 214.22L131.09 216.458C131.377 216.744 131.63 216.962 131.849 217.11C132.065 217.255 132.274 217.362 132.477 217.429L132.559 217.511L131.153 218.918C130.943 218.844 130.715 218.718 130.466 218.541C130.218 218.357 129.986 218.158 129.77 217.942ZM127.948 215.752L128.746 216.53L127.967 217.308C127.784 217.492 127.645 217.673 127.552 217.85C127.458 218.027 127.407 218.198 127.397 218.362C127.384 218.523 127.407 218.675 127.465 218.817C127.526 218.955 127.616 219.084 127.735 219.203C127.855 219.322 127.99 219.403 128.141 219.445C128.29 219.484 128.443 219.479 128.601 219.43C128.755 219.379 128.902 219.284 129.041 219.145C129.25 218.936 129.39 218.712 129.461 218.473C129.532 218.235 129.548 218.013 129.509 217.806C129.474 217.597 129.403 217.436 129.297 217.323L130.254 217.545C130.334 217.729 130.4 217.937 130.452 218.169C130.507 218.398 130.529 218.643 130.52 218.904C130.507 219.161 130.446 219.426 130.336 219.696C130.223 219.964 130.036 220.228 129.775 220.489C129.443 220.821 129.076 221.056 128.673 221.195C128.27 221.327 127.872 221.354 127.479 221.277C127.086 221.193 126.738 221 126.435 220.697C126.161 220.423 125.97 220.128 125.86 219.812C125.75 219.496 125.723 219.166 125.778 218.821C125.833 218.47 125.974 218.106 126.203 217.729C126.429 217.349 126.741 216.959 127.141 216.559L127.948 215.752ZM127.387 207.825L134.817 215.254L133.425 216.646L125.995 209.217L127.387 207.825ZM132.883 206.727L133.202 211.59L133.217 214.041L131.704 213.543L131.443 211.348L131.211 208.4L132.883 206.727ZM136.668 213.403L132.705 212.533L132.825 210.73L138.273 211.798L136.668 213.403ZM134.952 204.658L140.182 209.889L138.785 211.286L133.555 206.055L134.952 204.658ZM132.105 204.779C131.902 204.576 131.805 204.338 131.815 204.064C131.825 203.79 131.949 203.534 132.187 203.295C132.423 203.06 132.677 202.938 132.951 202.928C133.228 202.915 133.468 203.01 133.671 203.213C133.874 203.416 133.969 203.656 133.956 203.933C133.947 204.207 133.824 204.462 133.589 204.697C133.351 204.936 133.094 205.06 132.821 205.069C132.547 205.079 132.308 204.982 132.105 204.779ZM138.582 203.262L142.696 207.375L141.304 208.767L136.074 203.537L137.379 202.232L138.582 203.262ZM139.694 204.779L139.317 205.156C138.93 204.77 138.632 204.372 138.423 203.962C138.21 203.55 138.084 203.144 138.046 202.744C138.004 202.342 138.049 201.958 138.181 201.594C138.313 201.223 138.534 200.883 138.843 200.574C139.088 200.329 139.348 200.141 139.622 200.008C139.895 199.876 140.182 199.815 140.482 199.825C140.785 199.831 141.102 199.923 141.434 200.1C141.769 200.274 142.121 200.545 142.488 200.912L145.823 204.248L144.421 205.649L141.081 202.309C140.849 202.077 140.637 201.929 140.443 201.865C140.25 201.8 140.065 201.805 139.887 201.879C139.71 201.947 139.531 202.071 139.351 202.251C139.164 202.438 139.038 202.638 138.974 202.851C138.913 203.06 138.903 203.276 138.945 203.498C138.987 203.714 139.072 203.932 139.201 204.151C139.33 204.37 139.494 204.58 139.694 204.779ZM144.963 194.648L146.224 193.386L151.281 198.442C151.757 198.919 152.056 199.43 152.175 199.975C152.3 200.519 152.26 201.065 152.054 201.613C151.851 202.164 151.5 202.69 151 203.189C150.781 203.408 150.52 203.611 150.217 203.798C149.917 203.982 149.595 204.124 149.25 204.223C148.909 204.32 148.57 204.349 148.235 204.31L148.027 202.875C148.375 202.901 148.707 202.859 149.023 202.749C149.342 202.643 149.631 202.461 149.888 202.203C150.14 201.952 150.306 201.692 150.386 201.425C150.47 201.16 150.47 200.893 150.386 200.622C150.306 200.355 150.141 200.097 149.893 199.849L146.036 195.992L144.963 194.648ZM144.122 200.845L144.02 200.743C143.621 200.344 143.307 199.933 143.078 199.511C142.849 199.082 142.707 198.66 142.652 198.244C142.601 197.825 142.641 197.421 142.773 197.031C142.905 196.641 143.136 196.282 143.464 195.953C143.812 195.605 144.169 195.378 144.533 195.271C144.897 195.165 145.274 195.155 145.664 195.242C146.05 195.326 146.447 195.487 146.853 195.726C147.259 195.958 147.676 196.24 148.105 196.572L148.327 196.794C148.643 197.206 148.909 197.617 149.125 198.027C149.341 198.436 149.487 198.837 149.565 199.23C149.639 199.62 149.623 199.997 149.516 200.361C149.413 200.722 149.2 201.064 148.878 201.386C148.556 201.708 148.198 201.934 147.805 202.063C147.415 202.188 147.009 202.224 146.587 202.169C146.165 202.114 145.743 201.976 145.321 201.753C144.902 201.528 144.502 201.225 144.122 200.845ZM145.412 199.351L145.514 199.453C145.73 199.668 145.952 199.849 146.181 199.994C146.41 200.139 146.64 200.24 146.872 200.298C147.104 200.35 147.327 200.35 147.539 200.298C147.752 200.24 147.95 200.12 148.134 199.936C148.388 199.681 148.543 199.42 148.598 199.153C148.649 198.882 148.62 198.611 148.511 198.341C148.401 198.07 148.229 197.804 147.994 197.543L147.36 196.91C147.151 196.713 146.941 196.559 146.732 196.446C146.519 196.33 146.311 196.257 146.108 196.228C145.905 196.199 145.702 196.222 145.499 196.296C145.296 196.37 145.1 196.502 144.91 196.693C144.726 196.876 144.608 197.078 144.557 197.297C144.505 197.509 144.505 197.732 144.557 197.964C144.612 198.193 144.713 198.426 144.861 198.665C145.006 198.9 145.19 199.129 145.412 199.351ZM152.344 190.196L152.823 187.968C152.89 187.636 152.897 187.375 152.842 187.185C152.787 186.994 152.684 186.824 152.533 186.672C152.381 186.521 152.184 186.437 151.943 186.421C151.698 186.401 151.474 186.493 151.271 186.696C151.126 186.841 151.037 186.998 151.005 187.165C150.97 187.33 150.981 187.492 151.039 187.653C151.1 187.811 151.198 187.958 151.334 188.093C151.479 188.238 151.666 188.348 151.894 188.422C152.12 188.493 152.383 188.546 152.682 188.581C152.979 188.614 153.304 188.646 153.659 188.678L160.847 189.224L159.266 190.805L153.427 190.38C152.914 190.325 152.455 190.265 152.049 190.201C151.64 190.133 151.274 190.035 150.952 189.906C150.63 189.777 150.349 189.593 150.111 189.355C149.743 188.988 149.502 188.588 149.386 188.156C149.267 187.721 149.275 187.284 149.41 186.846C149.542 186.405 149.801 185.991 150.188 185.604C150.552 185.24 150.944 185 151.363 184.884C151.778 184.764 152.181 184.755 152.571 184.855C152.964 184.951 153.308 185.146 153.601 185.44C153.82 185.659 153.983 185.902 154.089 186.169C154.192 186.434 154.252 186.716 154.268 187.015C154.281 187.312 154.261 187.618 154.21 187.934L153.765 190.573C153.755 190.802 153.773 191 153.818 191.168C153.863 191.335 153.923 191.479 153.997 191.598C154.068 191.714 154.147 191.815 154.234 191.902C154.421 192.089 154.629 192.216 154.858 192.284C155.086 192.352 155.315 192.355 155.544 192.294C155.773 192.233 155.984 192.105 156.177 191.912C156.441 191.648 156.64 191.333 156.772 190.969C156.904 190.605 156.96 190.217 156.941 189.804C156.918 189.389 156.815 188.973 156.632 188.557C156.448 188.142 156.176 187.753 155.815 187.392L156.994 186.213C157.355 186.574 157.663 186.953 157.917 187.349C158.169 187.742 158.354 188.156 158.473 188.591C158.589 189.023 158.623 189.476 158.575 189.949C158.571 189.985 158.568 190.036 158.565 190.104C158.562 190.165 158.557 190.215 158.551 190.254C158.489 190.811 158.352 191.319 158.14 191.777C157.924 192.231 157.61 192.664 157.197 193.077C156.727 193.547 156.234 193.87 155.718 194.044C155.206 194.214 154.706 194.243 154.219 194.131C153.736 194.015 153.301 193.763 152.914 193.377C152.631 193.093 152.439 192.792 152.339 192.473C152.239 192.147 152.197 191.796 152.213 191.419C152.23 191.042 152.273 190.634 152.344 190.196ZM165.139 181.993L161.228 174.767L162.843 173.152L167.43 182.641L166.367 183.704L165.139 181.993ZM158.043 177.952L165.265 181.867L166.985 183.086L165.912 184.159L156.438 179.557L158.043 177.952ZM171.872 175.84L169.542 173.51C169.375 173.342 169.204 173.226 169.03 173.162C168.853 173.094 168.672 173.085 168.489 173.133C168.308 173.178 168.128 173.291 167.947 173.471C167.793 173.626 167.686 173.787 167.628 173.955C167.567 174.119 167.556 174.282 167.594 174.443C167.63 174.601 167.714 174.746 167.846 174.878L166.454 176.27C166.231 176.048 166.072 175.785 165.975 175.482C165.878 175.179 165.853 174.854 165.898 174.506C165.94 174.154 166.052 173.8 166.236 173.442C166.423 173.081 166.686 172.732 167.024 172.393C167.43 171.987 167.859 171.694 168.31 171.514C168.761 171.333 169.212 171.288 169.663 171.378C170.118 171.465 170.548 171.712 170.954 172.118L173.192 174.356C173.479 174.643 173.732 174.86 173.951 175.008C174.167 175.153 174.376 175.26 174.579 175.327L174.661 175.41L173.255 176.816C173.045 176.742 172.816 176.616 172.568 176.439C172.32 176.255 172.088 176.056 171.872 175.84ZM170.05 173.65L170.848 174.428L170.069 175.207C169.886 175.39 169.747 175.571 169.654 175.748C169.56 175.925 169.509 176.096 169.499 176.26C169.486 176.421 169.509 176.573 169.567 176.715C169.628 176.853 169.718 176.982 169.837 177.101C169.957 177.221 170.092 177.301 170.243 177.343C170.392 177.382 170.545 177.377 170.703 177.329C170.857 177.277 171.004 177.182 171.142 177.043C171.352 176.834 171.492 176.61 171.563 176.371C171.634 176.133 171.65 175.911 171.611 175.704C171.576 175.495 171.505 175.334 171.399 175.221L172.356 175.443C172.436 175.627 172.502 175.835 172.554 176.067C172.609 176.296 172.631 176.541 172.622 176.802C172.609 177.059 172.547 177.324 172.438 177.594C172.325 177.862 172.138 178.126 171.877 178.387C171.545 178.719 171.178 178.954 170.775 179.093C170.372 179.225 169.974 179.252 169.581 179.175C169.188 179.091 168.84 178.898 168.537 178.595C168.263 178.321 168.071 178.026 167.962 177.71C167.852 177.395 167.825 177.064 167.88 176.719C167.934 176.368 168.076 176.004 168.305 175.627C168.531 175.247 168.843 174.857 169.243 174.457L170.05 173.65ZM169.571 165.65L176.996 173.075L175.599 174.472L168.174 167.047L169.571 165.65ZM174.386 165.225L179.616 170.455L178.219 171.852L172.989 166.622L174.386 165.225ZM171.539 165.346C171.336 165.143 171.239 164.904 171.249 164.63C171.258 164.356 171.382 164.1 171.621 163.862C171.856 163.627 172.111 163.504 172.385 163.494C172.662 163.481 172.902 163.577 173.105 163.78C173.308 163.983 173.403 164.223 173.39 164.5C173.38 164.774 173.258 165.028 173.023 165.264C172.784 165.502 172.528 165.626 172.254 165.636C171.98 165.645 171.742 165.549 171.539 165.346ZM182.714 165.075L176.43 158.791L177.832 157.389L185.257 164.814L183.995 166.076L182.714 165.075ZM177.997 166.97L177.895 166.868C177.496 166.469 177.178 166.061 176.943 165.645C176.704 165.226 176.555 164.812 176.493 164.403C176.432 163.994 176.464 163.598 176.59 163.214C176.716 162.831 176.941 162.476 177.267 162.151C177.573 161.844 177.905 161.641 178.262 161.542C178.623 161.438 179.004 161.426 179.403 161.503C179.803 161.574 180.214 161.72 180.636 161.943C181.055 162.162 181.477 162.439 181.902 162.774L182.125 162.997C182.444 163.406 182.71 163.817 182.922 164.229C183.135 164.642 183.277 165.048 183.348 165.447C183.418 165.84 183.402 166.217 183.299 166.578C183.196 166.939 182.99 167.274 182.681 167.584C182.355 167.909 181.999 168.133 181.612 168.256C181.229 168.375 180.831 168.402 180.418 168.338C180.009 168.27 179.598 168.12 179.186 167.888C178.773 167.656 178.377 167.35 177.997 166.97ZM179.287 165.476L179.389 165.578C179.605 165.794 179.822 165.979 180.041 166.134C180.264 166.285 180.486 166.395 180.708 166.462C180.931 166.524 181.145 166.532 181.351 166.486C181.557 166.435 181.752 166.317 181.936 166.134C182.175 165.895 182.318 165.645 182.366 165.384C182.411 165.12 182.379 164.853 182.27 164.582C182.163 164.308 181.993 164.041 181.757 163.78L181.124 163.146C180.911 162.953 180.7 162.8 180.491 162.687C180.281 162.568 180.074 162.495 179.867 162.47C179.664 162.441 179.464 162.46 179.268 162.528C179.075 162.592 178.889 162.713 178.712 162.89C178.532 163.071 178.419 163.267 178.374 163.48C178.325 163.689 178.332 163.905 178.393 164.128C178.457 164.347 178.567 164.572 178.722 164.804C178.876 165.03 179.065 165.254 179.287 165.476ZM187.988 159.724L185.658 157.394C185.491 157.227 185.32 157.111 185.146 157.046C184.968 156.979 184.788 156.969 184.604 157.017C184.424 157.062 184.243 157.175 184.063 157.356C183.908 157.51 183.802 157.671 183.744 157.839C183.683 158.003 183.671 158.166 183.71 158.327C183.746 158.485 183.829 158.63 183.961 158.762L182.569 160.154C182.347 159.932 182.187 159.669 182.091 159.366C181.994 159.063 181.968 158.738 182.013 158.39C182.055 158.039 182.168 157.684 182.352 157.327C182.539 156.966 182.801 156.616 183.14 156.278C183.546 155.872 183.974 155.578 184.426 155.398C184.877 155.217 185.328 155.172 185.779 155.263C186.233 155.35 186.664 155.596 187.07 156.002L189.308 158.24C189.594 158.527 189.847 158.744 190.066 158.893C190.282 159.038 190.492 159.144 190.695 159.212L190.777 159.294L189.37 160.7C189.161 160.626 188.932 160.501 188.684 160.323C188.436 160.14 188.204 159.94 187.988 159.724ZM186.166 157.534L186.963 158.313L186.185 159.091C186.001 159.275 185.863 159.455 185.769 159.632C185.676 159.809 185.624 159.98 185.615 160.145C185.602 160.306 185.624 160.457 185.682 160.599C185.744 160.738 185.834 160.866 185.953 160.986C186.072 161.105 186.208 161.185 186.359 161.227C186.507 161.266 186.66 161.261 186.818 161.213C186.973 161.161 187.12 161.066 187.258 160.928C187.468 160.718 187.608 160.494 187.679 160.256C187.75 160.017 187.766 159.795 187.727 159.589C187.691 159.379 187.621 159.218 187.514 159.105L188.471 159.328C188.552 159.511 188.618 159.719 188.67 159.951C188.724 160.18 188.747 160.425 188.737 160.686C188.724 160.944 188.663 161.208 188.554 161.479C188.441 161.746 188.254 162.01 187.993 162.271C187.661 162.603 187.294 162.839 186.891 162.977C186.488 163.109 186.09 163.137 185.697 163.059C185.304 162.976 184.956 162.782 184.653 162.479C184.379 162.205 184.187 161.911 184.077 161.595C183.968 161.279 183.941 160.949 183.995 160.604C184.05 160.253 184.192 159.888 184.421 159.511C184.646 159.131 184.959 158.741 185.358 158.342L186.166 157.534ZM188.974 150.637L189.96 151.623L186.915 154.668L185.929 153.682L188.974 150.637ZM185.392 151.637L186.784 150.245L191.729 155.19C191.881 155.341 192.016 155.438 192.135 155.48C192.258 155.519 192.375 155.514 192.488 155.466C192.598 155.414 192.714 155.327 192.836 155.205C192.923 155.118 192.997 155.037 193.059 154.963C193.12 154.882 193.17 154.813 193.208 154.755L194.238 155.775C194.157 155.933 194.059 156.092 193.943 156.253C193.827 156.415 193.685 156.579 193.518 156.746C193.212 157.053 192.894 157.27 192.566 157.399C192.237 157.522 191.898 157.531 191.55 157.428C191.202 157.325 190.845 157.09 190.477 156.722L185.392 151.637ZM192.087 152.86L191.985 152.759C191.602 152.375 191.304 151.968 191.091 151.536C190.875 151.101 190.753 150.659 190.724 150.211C190.695 149.763 190.767 149.32 190.941 148.882C191.112 148.441 191.396 148.022 191.792 147.625C192.188 147.229 192.609 146.944 193.054 146.77C193.495 146.592 193.94 146.518 194.388 146.547C194.839 146.573 195.282 146.694 195.717 146.91C196.149 147.123 196.557 147.421 196.94 147.804L197.042 147.906C197.422 148.286 197.72 148.693 197.936 149.129C198.148 149.56 198.269 150.003 198.298 150.458C198.327 150.906 198.255 151.349 198.081 151.787C197.907 152.225 197.622 152.643 197.225 153.039C196.829 153.435 196.41 153.722 195.968 153.899C195.53 154.073 195.086 154.148 194.634 154.122C194.183 154.09 193.742 153.967 193.31 153.754C192.875 153.539 192.467 153.24 192.087 152.86ZM193.378 151.367L193.479 151.468C193.698 151.687 193.922 151.872 194.151 152.024C194.38 152.175 194.609 152.282 194.837 152.343C195.066 152.398 195.29 152.396 195.509 152.338C195.728 152.28 195.938 152.151 196.138 151.951C196.331 151.758 196.457 151.552 196.515 151.333C196.573 151.114 196.573 150.891 196.515 150.666C196.453 150.437 196.347 150.208 196.196 149.979C196.047 149.747 195.864 149.522 195.645 149.303L195.543 149.201C195.33 148.988 195.11 148.809 194.881 148.664C194.652 148.513 194.422 148.408 194.19 148.35C193.958 148.286 193.73 148.281 193.508 148.336C193.286 148.391 193.076 148.516 192.88 148.713C192.683 148.909 192.557 149.119 192.503 149.341C192.451 149.56 192.456 149.788 192.517 150.023C192.578 150.252 192.685 150.48 192.836 150.709C192.984 150.935 193.165 151.154 193.378 151.367ZM197.762 144.13L201.851 148.22L200.459 149.612L195.229 144.382L196.539 143.072L197.762 144.13ZM198.163 141.38L199.429 142.695C199.352 142.753 199.262 142.827 199.159 142.917C199.056 143.001 198.965 143.082 198.888 143.159C198.691 143.355 198.546 143.552 198.453 143.749C198.36 143.939 198.313 144.13 198.313 144.324C198.316 144.514 198.363 144.702 198.453 144.889C198.546 145.073 198.679 145.257 198.849 145.44L198.482 145.634C198.144 145.295 197.867 144.951 197.651 144.599C197.431 144.245 197.28 143.897 197.196 143.555C197.116 143.21 197.112 142.885 197.187 142.579C197.261 142.273 197.42 141.997 197.665 141.752C197.742 141.675 197.828 141.602 197.921 141.535C198.012 141.464 198.092 141.412 198.163 141.38ZM132.25 235.358L133.381 236.489L129.635 240.235L128.504 239.104L132.25 235.358ZM123.071 232.723L130.109 239.761L128.659 241.211L121.621 234.173L123.071 232.723ZM128.722 232.805L129.824 233.907L126.566 237.165L125.464 236.063L128.722 232.805ZM126.338 229.456L127.474 230.592L123.733 234.333L122.597 233.197L126.338 229.456ZM130.031 229.378L132.487 230.103L131.786 227.624L133.27 226.14L134.348 230.176L138.568 231.302L137.079 232.791L134.454 232.051L135.194 234.676L133.705 236.165L132.579 231.945L128.543 230.867L130.031 229.378ZM136.344 225.076L142.58 231.312L141.188 232.704L133.947 225.463L135.237 224.172L136.344 225.076ZM141.207 223.317L141.309 223.418C141.689 223.798 141.997 224.196 142.232 224.612C142.47 225.025 142.625 225.437 142.696 225.85C142.764 226.259 142.738 226.658 142.619 227.048C142.499 227.432 142.275 227.788 141.947 228.117C141.628 228.436 141.286 228.648 140.922 228.755C140.558 228.861 140.179 228.879 139.786 228.808C139.393 228.731 138.993 228.586 138.587 228.373C138.181 228.16 137.775 227.902 137.369 227.599L137.103 227.334C136.775 226.902 136.501 226.48 136.281 226.067C136.059 225.651 135.911 225.249 135.837 224.859C135.763 224.462 135.777 224.084 135.88 223.723C135.987 223.359 136.198 223.019 136.513 222.703C136.845 222.371 137.2 222.142 137.577 222.016C137.957 221.888 138.35 221.855 138.756 221.92C139.166 221.981 139.576 222.131 139.989 222.369C140.405 222.605 140.811 222.92 141.207 223.317ZM139.912 224.815L139.81 224.714C139.588 224.491 139.364 224.306 139.138 224.158C138.913 224.003 138.689 223.895 138.466 223.834C138.247 223.769 138.035 223.763 137.828 223.815C137.622 223.86 137.429 223.973 137.248 224.153C137.058 224.343 136.926 224.536 136.852 224.733C136.781 224.926 136.762 225.123 136.794 225.323C136.826 225.523 136.902 225.724 137.021 225.927C137.14 226.13 137.297 226.338 137.49 226.55L138.162 227.222C138.416 227.445 138.676 227.614 138.94 227.73C139.201 227.843 139.464 227.877 139.728 227.831C139.992 227.786 140.25 227.638 140.501 227.387C140.685 227.203 140.799 227.008 140.845 226.802C140.886 226.592 140.874 226.376 140.806 226.154C140.741 225.929 140.63 225.705 140.472 225.482C140.318 225.257 140.131 225.034 139.912 224.815ZM147.249 222.814C146.843 223.22 146.415 223.52 145.963 223.713C145.509 223.903 145.053 223.995 144.596 223.989C144.141 223.979 143.701 223.881 143.276 223.694C142.847 223.504 142.459 223.235 142.111 222.887L141.918 222.693C141.521 222.297 141.215 221.878 140.999 221.436C140.783 220.995 140.659 220.549 140.627 220.097C140.598 219.643 140.671 219.2 140.845 218.768C141.015 218.333 141.291 217.925 141.671 217.545C142.042 217.175 142.432 216.907 142.841 216.743C143.25 216.578 143.664 216.512 144.083 216.545C144.505 216.574 144.924 216.696 145.34 216.912C145.752 217.125 146.15 217.423 146.534 217.806L147.114 218.386L142.957 222.543L142.029 221.615L144.818 218.826L144.712 218.72C144.518 218.526 144.31 218.39 144.088 218.309C143.866 218.222 143.64 218.203 143.411 218.251C143.182 218.299 142.96 218.431 142.744 218.647C142.56 218.831 142.443 219.029 142.391 219.242C142.34 219.455 142.345 219.675 142.406 219.904C142.47 220.13 142.58 220.362 142.735 220.6C142.889 220.832 143.083 221.064 143.315 221.296L143.508 221.49C143.717 221.699 143.94 221.863 144.175 221.983C144.413 222.099 144.652 222.166 144.89 222.186C145.132 222.202 145.367 222.166 145.596 222.079C145.828 221.989 146.046 221.842 146.249 221.639C146.5 221.388 146.685 221.106 146.805 220.794C146.924 220.474 146.962 220.136 146.921 219.778L148.332 219.836C148.38 220.104 148.382 220.405 148.337 220.74C148.295 221.072 148.189 221.417 148.018 221.775C147.844 222.129 147.588 222.476 147.249 222.814ZM147.394 214.297L151.484 218.386L150.091 219.778L144.861 214.548L146.171 213.238L147.394 214.297ZM147.795 211.547L149.062 212.861C148.985 212.919 148.894 212.993 148.791 213.084C148.688 213.167 148.598 213.248 148.52 213.325C148.324 213.522 148.179 213.719 148.085 213.915C147.992 214.105 147.945 214.297 147.945 214.49C147.949 214.68 147.995 214.869 148.085 215.056C148.179 215.24 148.311 215.423 148.482 215.607L148.114 215.8C147.776 215.462 147.499 215.117 147.283 214.766C147.064 214.411 146.912 214.063 146.829 213.722C146.748 213.377 146.745 213.051 146.819 212.745C146.893 212.439 147.053 212.164 147.298 211.919C147.375 211.841 147.46 211.769 147.554 211.701C147.644 211.63 147.725 211.579 147.795 211.547ZM149.956 209.454L155.186 214.684L153.789 216.081L148.559 210.851L149.956 209.454ZM147.109 209.574C146.906 209.371 146.809 209.133 146.819 208.859C146.829 208.585 146.953 208.329 147.191 208.09C147.426 207.855 147.681 207.733 147.955 207.723C148.232 207.71 148.472 207.805 148.675 208.008C148.878 208.211 148.973 208.451 148.96 208.729C148.951 209.002 148.828 209.257 148.593 209.492C148.355 209.731 148.098 209.855 147.824 209.864C147.551 209.874 147.312 209.777 147.109 209.574ZM158.841 211.223C158.434 211.629 158.006 211.928 157.555 212.122C157.1 212.312 156.644 212.404 156.187 212.397C155.732 212.388 155.293 212.289 154.867 212.102C154.439 211.912 154.05 211.643 153.702 211.295L153.509 211.102C153.113 210.706 152.806 210.287 152.591 209.845C152.375 209.404 152.251 208.957 152.218 208.506C152.189 208.052 152.262 207.609 152.436 207.177C152.607 206.742 152.882 206.334 153.262 205.954C153.633 205.583 154.023 205.316 154.432 205.152C154.841 204.987 155.256 204.921 155.674 204.953C156.097 204.982 156.515 205.105 156.931 205.321C157.344 205.533 157.742 205.831 158.125 206.215L158.705 206.795L154.548 210.952L153.62 210.024L156.409 207.235L156.303 207.129C156.109 206.935 155.902 206.798 155.679 206.718C155.457 206.631 155.231 206.611 155.003 206.66C154.774 206.708 154.551 206.84 154.335 207.056C154.152 207.24 154.034 207.438 153.983 207.651C153.931 207.863 153.936 208.084 153.997 208.313C154.062 208.538 154.171 208.77 154.326 209.009C154.48 209.241 154.674 209.473 154.906 209.705L155.099 209.898C155.309 210.108 155.531 210.272 155.766 210.391C156.005 210.507 156.243 210.575 156.482 210.594C156.723 210.61 156.959 210.575 157.187 210.488C157.419 210.398 157.637 210.251 157.84 210.048C158.091 209.797 158.277 209.515 158.396 209.202C158.515 208.883 158.554 208.545 158.512 208.187L159.923 208.245C159.972 208.513 159.973 208.814 159.928 209.149C159.886 209.481 159.78 209.826 159.609 210.183C159.435 210.538 159.179 210.884 158.841 211.223ZM158.932 202.711L163.046 206.824L161.654 208.216L156.424 202.986L157.729 201.681L158.932 202.711ZM160.044 204.228L159.667 204.605C159.28 204.219 158.982 203.821 158.773 203.411C158.56 202.999 158.434 202.593 158.396 202.193C158.354 201.79 158.399 201.407 158.531 201.043C158.663 200.672 158.884 200.332 159.193 200.023C159.438 199.778 159.698 199.59 159.972 199.457C160.246 199.325 160.532 199.264 160.832 199.274C161.135 199.28 161.452 199.372 161.784 199.549C162.119 199.723 162.471 199.994 162.838 200.361L166.173 203.697L164.772 205.098L161.431 201.758C161.199 201.526 160.987 201.378 160.793 201.314C160.6 201.249 160.415 201.254 160.237 201.328C160.06 201.396 159.881 201.52 159.701 201.7C159.514 201.887 159.388 202.087 159.324 202.3C159.263 202.509 159.253 202.725 159.295 202.947C159.337 203.163 159.422 203.381 159.551 203.6C159.68 203.819 159.844 204.029 160.044 204.228ZM168.402 199.486C168.572 199.316 168.692 199.132 168.759 198.935C168.824 198.736 168.833 198.539 168.788 198.346C168.743 198.146 168.64 197.962 168.479 197.795L169.789 196.485C170.153 196.855 170.382 197.281 170.475 197.761C170.566 198.238 170.53 198.721 170.369 199.211C170.205 199.697 169.921 200.142 169.518 200.545C169.112 200.951 168.69 201.238 168.252 201.405C167.817 201.57 167.38 201.633 166.942 201.594C166.5 201.552 166.07 201.422 165.651 201.202C165.229 200.98 164.834 200.685 164.467 200.318L164.327 200.178C163.956 199.807 163.661 199.412 163.442 198.993C163.22 198.571 163.089 198.141 163.051 197.703C163.009 197.261 163.07 196.823 163.234 196.388C163.399 195.953 163.682 195.534 164.085 195.131C164.514 194.703 164.971 194.409 165.458 194.251C165.948 194.09 166.438 194.071 166.927 194.193C167.417 194.309 167.872 194.574 168.29 194.986L166.981 196.296C166.803 196.125 166.608 196.004 166.396 195.934C166.186 195.859 165.974 195.847 165.758 195.895C165.542 195.937 165.339 196.053 165.149 196.243C164.946 196.446 164.823 196.655 164.781 196.871C164.736 197.084 164.752 197.3 164.83 197.519C164.904 197.735 165.02 197.951 165.178 198.167C165.335 198.376 165.516 198.582 165.719 198.786L165.859 198.926C166.062 199.129 166.27 199.311 166.483 199.472C166.695 199.633 166.91 199.751 167.126 199.825C167.345 199.896 167.561 199.909 167.773 199.863C167.986 199.818 168.195 199.693 168.402 199.486ZM174.898 195.165C174.492 195.571 174.064 195.871 173.612 196.064C173.158 196.254 172.702 196.346 172.244 196.34C171.79 196.33 171.35 196.232 170.925 196.045C170.496 195.855 170.108 195.586 169.76 195.238L169.567 195.044C169.17 194.648 168.864 194.229 168.648 193.787C168.432 193.346 168.308 192.9 168.276 192.448C168.247 191.994 168.319 191.551 168.494 191.119C168.664 190.684 168.94 190.277 169.32 189.896C169.691 189.526 170.081 189.258 170.49 189.094C170.899 188.93 171.313 188.863 171.732 188.896C172.154 188.925 172.573 189.047 172.989 189.263C173.401 189.476 173.799 189.774 174.183 190.157L174.763 190.737L170.606 194.894L169.678 193.966L172.467 191.177L172.36 191.071C172.167 190.878 171.959 190.741 171.737 190.66C171.515 190.573 171.289 190.554 171.06 190.602C170.831 190.65 170.609 190.782 170.393 190.998C170.209 191.182 170.092 191.38 170.04 191.593C169.989 191.806 169.994 192.026 170.055 192.255C170.119 192.481 170.229 192.713 170.383 192.951C170.538 193.183 170.732 193.415 170.964 193.647L171.157 193.841C171.366 194.05 171.589 194.214 171.824 194.334C172.062 194.45 172.301 194.517 172.539 194.537C172.781 194.553 173.016 194.517 173.245 194.43C173.477 194.34 173.695 194.193 173.898 193.99C174.149 193.739 174.334 193.457 174.454 193.145C174.573 192.826 174.611 192.487 174.57 192.129L175.981 192.187C176.029 192.455 176.031 192.756 175.986 193.091C175.944 193.423 175.838 193.768 175.667 194.126C175.493 194.48 175.237 194.827 174.898 195.165Z" fill="white"/>
<defs>
<linearGradient id="paint0_linear_9381_76179" x1="71.9371" y1="15.7793" x2="71.9371" y2="238.225" gradientUnits="userSpaceOnUse">
<stop stop-color="#F58FA1"/>
<stop offset="0.999" stop-color="#FF78CF"/>
</linearGradient>
<linearGradient id="paint1_linear_9381_76179" x1="183.158" y1="15.7793" x2="183.158" y2="238.225" gradientUnits="userSpaceOnUse">
<stop stop-color="#FF78CF"/>
<stop offset="1" stop-color="#E45065"/>
</linearGradient>
</defs>
</svg>
