<svg width="255" height="254" viewBox="0 0 255 254" fill="none" xmlns="http://www.w3.org/2000/svg">
<path d="M127.98 238.225V15.7793L16.7583 127.001L127.98 238.225Z" fill="url(#paint0_linear_9381_76178)"/>
<path d="M239.203 127.001L127.979 15.7793V238.225L239.203 127.001Z" fill="url(#paint1_linear_9381_76178)"/>
<path opacity="0.6" d="M132.446 67.6383L127.979 59.7582L132.405 67.575C130.85 67.4523 129.352 67.3928 127.857 67.3928C126.429 67.3928 124.989 67.4449 123.569 67.5453L123.532 67.6085C126.414 67.4003 129.355 67.404 132.442 67.6383H132.446Z" fill="#7958A4"/>
<path opacity="0.2" d="M160.071 174.813C160.629 174.438 161.201 174.077 161.744 173.683C162.775 172.935 163.76 172.128 164.734 171.318C165.132 170.987 165.552 170.682 165.939 170.34C167.282 169.157 168.572 167.919 169.803 166.61C170.03 166.368 170.234 166.1 170.458 165.855C171.346 164.877 172.209 163.869 173.035 162.824L157.992 147.781V176.148C158.691 175.717 159.387 175.274 160.067 174.813H160.071Z" fill="#FF3232"/>
<path opacity="0.2" d="M85.3511 165.959C85.6114 166.241 85.8457 166.546 86.1097 166.825C87.3443 168.123 88.6348 169.354 89.9809 170.525C90.3789 170.875 90.8102 171.184 91.2193 171.518C92.1899 172.322 93.1717 173.114 94.1943 173.85C94.7447 174.248 95.3248 174.605 95.8901 174.981C96.5706 175.434 97.2623 175.873 97.9652 176.301V147.934L82.8521 163.047C83.6553 164.051 84.492 165.014 85.3548 165.955L85.3511 165.959Z" fill="#FF3232"/>
<path opacity="0.2" d="M175.666 159.241C175.926 158.854 176.209 158.479 176.462 158.084C177.276 156.816 178.042 155.522 178.752 154.202C178.857 154.005 178.942 153.8 179.046 153.603C179.637 152.469 180.203 151.32 180.712 150.149C180.917 149.684 181.091 149.208 181.281 148.735C181.567 148.036 181.835 147.333 182.092 146.623H159.467L174.182 161.338C174.691 160.65 175.186 159.951 175.662 159.245L175.666 159.241Z" fill="#FF3232"/>
<path opacity="0.6" d="M117.734 70.2005C116.998 70.3307 116.258 70.4422 115.529 70.6021C114.306 70.8699 113.105 71.212 111.9 71.5616C111.279 71.7401 110.654 71.8851 110.04 72.0859C108.438 72.6103 106.864 73.2164 105.306 73.8858C105.109 73.9713 104.905 74.0308 104.708 74.1164C103.049 74.849 101.424 75.6857 99.8174 76.5819V105.707L120.129 69.8361C119.326 69.9439 118.527 70.0629 117.731 70.2042L117.734 70.2005Z" fill="#FF3232"/>
<path opacity="0.2" d="M181.254 105.185C181.076 104.75 180.916 104.311 180.726 103.88C180.194 102.664 179.611 101.466 178.993 100.288C178.911 100.131 178.841 99.9641 178.759 99.8079C178.049 98.484 177.283 97.1862 176.465 95.9181C176.212 95.5239 175.925 95.1445 175.661 94.7541C175.185 94.0512 174.694 93.3558 174.189 92.6678L159.47 107.387H182.095C181.827 106.647 181.548 105.914 181.251 105.185H181.254Z" fill="#FF3232"/>
<path opacity="0.2" d="M170.385 88.0555C170.191 87.8472 170.02 87.6166 169.823 87.4084C168.585 86.0919 167.283 84.8424 165.933 83.6524C165.591 83.3512 165.219 83.0797 164.866 82.786C163.847 81.9306 162.813 81.0902 161.735 80.3093C161.207 79.9262 160.649 79.5766 160.106 79.2085C159.414 78.7436 158.711 78.2937 158.001 77.8549V106.225L173.047 91.1792C172.196 90.1045 171.307 89.0595 170.385 88.0555Z" fill="#FF3232"/>
<path opacity="0.6" d="M71.7804 113.363C71.5424 114.33 71.3639 115.305 71.1742 116.275C71.0701 116.811 70.9399 117.343 70.8544 117.878C70.6833 118.927 70.5755 119.979 70.4639 121.032C70.4156 121.5 70.3338 121.965 70.2966 122.434C70.1739 123.955 70.1069 125.476 70.1069 127C70.1069 128.525 70.1739 130.046 70.2966 131.567C70.3338 132.032 70.4119 132.497 70.4639 132.961C70.5755 134.018 70.6833 135.074 70.8544 136.122C70.9399 136.658 71.0738 137.19 71.1742 137.725C71.3602 138.699 71.5424 139.674 71.7804 140.641C71.9217 141.213 72.1039 141.779 72.2601 142.348C72.4832 143.151 72.7064 143.958 72.963 144.754L97.8044 144.735L87.76 126.996L97.8044 109.243H72.963C72.7064 110.043 72.4832 110.846 72.2601 111.649C72.1039 112.218 71.918 112.783 71.7804 113.356V113.363Z" fill="#FF3232"/>
<path opacity="0.6" d="M158.157 109.265L168.205 127.004L158.157 144.761H182.75C182.999 143.984 183.214 143.203 183.434 142.422C183.601 141.823 183.794 141.228 183.94 140.626C184.163 139.718 184.33 138.803 184.508 137.888C184.624 137.293 184.769 136.702 184.866 136.107C185.025 135.111 185.13 134.107 185.237 133.106C185.293 132.593 185.379 132.08 185.42 131.563C185.542 130.046 185.609 128.525 185.609 127.004C185.609 125.483 185.542 123.954 185.42 122.433C185.382 121.976 185.304 121.522 185.256 121.068C185.144 120.005 185.033 118.938 184.862 117.881C184.776 117.35 184.646 116.822 184.546 116.29C184.356 115.312 184.178 114.334 183.936 113.363C183.794 112.794 183.616 112.236 183.46 111.671C183.233 110.864 183.01 110.057 182.753 109.254L158.157 109.273V109.265Z" fill="#FF3232"/>
<path opacity="0.6" d="M107.262 161.439L99.8208 148.301V177.426C101.427 178.322 103.052 179.159 104.711 179.892C104.897 179.973 105.094 180.033 105.28 180.111C106.846 180.784 108.433 181.394 110.044 181.922C110.654 182.123 111.282 182.264 111.899 182.443C113.104 182.792 114.309 183.134 115.533 183.402C116.258 183.562 116.998 183.67 117.73 183.8C118.526 183.941 119.33 184.064 120.136 184.172L107.262 161.439Z" fill="#FF3232"/>
<path opacity="0.2" d="M74.4404 148.747C74.6412 149.238 74.8234 149.736 75.0354 150.219C75.5672 151.424 76.1436 152.607 76.7572 153.771C76.8539 153.953 76.9357 154.146 77.0324 154.329C77.7575 155.671 78.5385 156.984 79.3715 158.271C79.6318 158.672 79.9219 159.055 80.1933 159.449C80.6805 160.163 81.1825 160.87 81.7032 161.565L96.6489 146.62H73.626C73.8826 147.334 74.1578 148.044 74.4441 148.747H74.4404Z" fill="#FF3232"/>
<path opacity="0.6" d="M138.243 183.744C138.979 183.61 139.719 183.495 140.452 183.331C141.675 183.056 142.877 182.71 144.078 182.357C144.695 182.175 145.32 182.026 145.933 181.825C147.57 181.282 149.184 180.654 150.771 179.962C150.931 179.892 151.095 179.843 151.251 179.772C152.91 179.032 154.539 178.185 156.141 177.281V148.304L135.855 184.123C136.655 184.012 137.451 183.889 138.243 183.744Z" fill="#FF3232"/>
<path opacity="0.2" d="M95.8773 79.0226C95.3195 79.3945 94.7431 79.7515 94.2001 80.142C93.1551 80.8932 92.1548 81.7039 91.1656 82.522C90.7788 82.8418 90.366 83.1393 89.9867 83.4703C88.6405 84.6454 87.3427 85.88 86.1043 87.1816C85.8515 87.4494 85.6246 87.7432 85.3755 88.0146C84.5053 88.9629 83.6611 89.941 82.8467 90.9562L97.9635 106.073V77.6987C97.2607 78.1264 96.5615 78.5689 95.8773 79.0263V79.0226Z" fill="#FF3232"/>
<path opacity="0.6" d="M156.141 105.699V76.7263C154.539 75.8189 152.91 74.9747 151.251 74.231C151.095 74.1603 150.931 74.112 150.775 74.045C149.184 73.3496 147.573 72.7212 145.933 72.1782C145.323 71.9737 144.699 71.8286 144.081 71.6464C142.88 71.2931 141.679 70.9436 140.456 70.6721C139.723 70.5085 138.979 70.3932 138.243 70.2593C137.451 70.1143 136.655 69.9916 135.855 69.88L156.141 105.699Z" fill="#FF3232"/>
<path opacity="0.2" d="M80.2269 94.4992C79.9406 94.9195 79.6319 95.3248 79.3567 95.7525C78.5312 97.028 77.7539 98.3296 77.0362 99.6609C76.9023 99.9063 76.7945 100.163 76.6643 100.412C76.0879 101.52 75.5338 102.64 75.0318 103.785C74.8198 104.265 74.6413 104.759 74.4442 105.247C74.1541 105.957 73.8827 106.671 73.6187 107.392H96.6453L81.6958 92.4427C81.1901 93.1196 80.6992 93.8075 80.2232 94.503L80.2269 94.4992Z" fill="#FF3232"/>
<path opacity="0.2" d="M126.139 56.5066L112.554 32.5204L111.602 30.8433L99.8208 42.6244V74.4348C100.654 73.9885 101.513 73.6278 102.357 73.2262C103.056 72.8915 103.752 72.5308 104.458 72.2221C105.685 71.694 106.935 71.2478 108.188 70.8053C108.794 70.5896 109.389 70.3367 110.003 70.1433C111.818 69.5669 113.658 69.0797 115.521 68.6856C115.585 68.6707 115.648 68.6484 115.711 68.6372C117.559 68.2505 119.43 67.9567 121.315 67.7484L126.075 59.3477L126.912 57.8751L126.139 56.5103V56.5066Z" fill="#FF3232"/>
<path opacity="0.2" d="M144.36 30.8396L143.408 32.5168L129.823 56.5029L129.05 57.8677L134.669 67.7782C136.554 67.9976 138.417 68.3026 140.262 68.693C140.437 68.7302 140.608 68.7897 140.783 68.8306C142.53 69.2211 144.263 69.6785 145.97 70.2252C146.614 70.4297 147.235 70.6975 147.871 70.928C149.09 71.3668 150.31 71.8094 151.508 72.33C152.248 72.6535 152.965 73.0329 153.69 73.3861C154.509 73.784 155.338 74.1336 156.141 74.5687V42.6207L144.36 30.8396Z" fill="#FF3232"/>
<path opacity="0.2" d="M153.694 180.613C152.962 180.97 152.237 181.35 151.497 181.673C150.321 182.186 149.12 182.618 147.919 183.049C147.265 183.283 146.621 183.562 145.959 183.774C144.26 184.317 142.542 184.775 140.801 185.161C140.619 185.202 140.441 185.266 140.258 185.303C138.414 185.693 136.551 185.998 134.669 186.214L129.054 196.132L143.412 221.479L144.364 223.156L156.145 211.375V179.427C155.345 179.862 154.516 180.212 153.698 180.606L153.694 180.613Z" fill="#FF3232"/>
<path opacity="0.2" d="M121.316 186.255C119.426 186.051 117.556 185.753 115.708 185.366C115.659 185.355 115.611 185.34 115.563 185.329C113.685 184.931 111.833 184.44 110.003 183.86C109.389 183.667 108.798 183.414 108.192 183.202C106.939 182.759 105.686 182.309 104.458 181.781C103.752 181.476 103.064 181.116 102.365 180.781C101.517 180.376 100.658 180.015 99.8247 179.569V211.379L111.606 223.16L112.558 221.483L126.916 196.136L121.319 186.259L121.316 186.255Z" fill="#FF3232"/>
<path opacity="0.2" d="M222.768 109.247H184.728C184.926 109.872 185.067 110.504 185.242 111.128C185.431 111.809 185.632 112.486 185.796 113.166C186.011 114.059 186.179 114.955 186.354 115.855C186.476 116.484 186.618 117.112 186.718 117.74C186.882 118.759 186.989 119.782 187.097 120.805C187.153 121.322 187.235 121.839 187.276 122.355C187.399 123.902 187.465 125.449 187.465 126.996C187.465 128.544 187.399 130.091 187.276 131.638C187.235 132.158 187.149 132.675 187.094 133.192C186.986 134.215 186.878 135.234 186.714 136.253C186.614 136.885 186.469 137.513 186.346 138.142C186.175 139.042 186.004 139.938 185.788 140.83C185.625 141.515 185.42 142.191 185.23 142.872C185.056 143.497 184.914 144.129 184.717 144.754H222.757L240.514 126.996L222.76 109.243L222.768 109.247Z" fill="#FF3232"/>
<path opacity="0.2" d="M69.9205 140.839C69.7048 139.947 69.5375 139.047 69.3627 138.151C69.24 137.522 69.0987 136.897 68.9983 136.265C68.8347 135.246 68.7268 134.22 68.619 133.197C68.5632 132.68 68.4814 132.167 68.4405 131.647C68.3177 130.1 68.2508 128.553 68.2508 127.002C68.2508 125.451 68.3177 123.904 68.4405 122.361C68.4814 121.844 68.5669 121.327 68.619 120.81C68.7268 119.787 68.8347 118.765 68.9983 117.746C69.0987 117.114 69.24 116.489 69.3627 115.86C69.5375 114.964 69.7048 114.064 69.9205 113.172C70.0842 112.487 70.2887 111.811 70.4746 111.134C70.6494 110.505 70.7907 109.873 70.9878 109.252H33.1976L34.3764 108.073L15.4404 127.006L35.0607 146.622L33.2013 144.763H70.9878C70.7907 144.138 70.6494 143.506 70.4746 142.877C70.285 142.2 70.0842 141.524 69.9205 140.843V140.839Z" fill="#FF3232"/>
<path d="M184.739 144.76H184.724C184.921 144.135 185.062 143.503 185.237 142.878C185.427 142.198 185.628 141.521 185.795 140.837C186.011 139.944 186.182 139.044 186.353 138.148C186.476 137.52 186.617 136.891 186.721 136.259C186.881 135.244 186.989 134.221 187.1 133.198C187.156 132.678 187.242 132.161 187.283 131.644C187.405 130.101 187.472 128.55 187.472 127.003C187.472 125.456 187.405 123.905 187.283 122.362C187.242 121.845 187.156 121.328 187.104 120.811C186.996 119.788 186.888 118.766 186.725 117.747C186.624 117.115 186.483 116.49 186.36 115.861C186.186 114.965 186.018 114.065 185.803 113.173C185.639 112.488 185.434 111.812 185.248 111.135C185.074 110.506 184.932 109.874 184.735 109.253H222.775L220.915 107.394H184.122C183.809 106.501 183.437 105.635 183.088 104.757C182.891 104.266 182.716 103.764 182.508 103.281C181.879 101.834 181.195 100.414 180.451 99.0191C180.321 98.7773 180.165 98.5431 180.031 98.3013C179.399 97.156 178.744 96.018 178.034 94.9135C177.725 94.4301 177.379 93.9727 177.052 93.4967C176.554 92.7678 176.078 92.0278 175.546 91.3212L188.874 77.9894L190.191 76.6729L189.532 76.0147L188.878 75.3602L187.562 76.6766L174.404 89.8337L174.397 89.8411C173.776 89.0676 173.099 88.3536 172.448 87.6136C171.969 87.0706 171.511 86.5017 171.013 85.9773C170.072 84.9881 169.075 84.0584 168.071 83.1399C167.688 82.7903 167.331 82.4073 166.941 82.0652C165.524 80.8305 164.048 79.6628 162.519 78.5658C162.181 78.3241 161.813 78.1195 161.471 77.8815C160.333 77.1043 159.198 76.3271 158.005 75.6279V44.4795L156.145 42.6201V74.5718C155.342 74.1367 154.513 73.7834 153.695 73.3892C152.966 73.036 152.248 72.6566 151.512 72.3331C150.314 71.8125 149.094 71.3699 147.875 70.9311C147.239 70.7043 146.618 70.4365 145.974 70.2283C144.271 69.6816 142.538 69.2205 140.787 68.8337C140.612 68.7966 140.441 68.7333 140.266 68.6961C138.422 68.3057 136.558 68.0007 134.673 67.785L129.054 57.8708L129.827 56.506L143.412 32.5199L144.364 30.8427L142.999 29.4779L130.616 51.3443L127.983 55.9891L125.35 51.3443L112.967 29.4779L111.602 30.8427L112.554 32.5199L126.138 56.506L126.912 57.8708L126.075 59.3434L121.315 67.7441C119.426 67.9487 117.559 68.2462 115.711 68.6329C115.648 68.6478 115.585 68.6701 115.521 68.6813C113.658 69.0755 111.817 69.5626 110.003 70.139C109.389 70.3324 108.794 70.5853 108.188 70.801C106.935 71.2435 105.685 71.6898 104.458 72.2178C103.748 72.5228 103.056 72.8872 102.357 73.2219C101.513 73.6272 100.654 73.9842 99.8206 74.4305V42.6201L97.9613 44.4795V75.4643C96.7229 76.1895 95.5403 76.9816 94.3615 77.7848C94.0603 77.9894 93.7367 78.1679 93.4392 78.3798C91.8997 79.4694 90.4159 80.6371 88.9878 81.8681C88.6308 82.1767 88.3036 82.5226 87.954 82.8424C86.909 83.7869 85.8715 84.7464 84.8935 85.7691C84.4137 86.2711 83.9712 86.8177 83.5064 87.3384C82.8333 88.0933 82.1341 88.8222 81.4945 89.6143L81.4871 89.6068L68.4751 76.5948L67.1586 75.2784L65.8422 76.5948L67.1586 77.9113L80.3343 91.0869C79.7541 91.8567 79.2298 92.66 78.6868 93.4483C78.4005 93.8686 78.0881 94.2776 77.8092 94.7053C77.0208 95.925 76.2845 97.1745 75.5891 98.4426C75.511 98.5877 75.4143 98.7253 75.3362 98.8703C74.5739 100.291 73.871 101.741 73.2314 103.221C73.0306 103.675 72.8707 104.147 72.6847 104.608C72.3091 105.531 71.9187 106.449 71.5914 107.394H35.0581L34.3776 108.074L33.1987 109.253H70.989C70.7919 109.878 70.6505 110.51 70.4758 111.135C70.2861 111.815 70.0853 112.492 69.9217 113.173C69.706 114.065 69.5386 114.961 69.3639 115.861C69.2411 116.49 69.0998 117.118 68.9994 117.747C68.8358 118.766 68.7279 119.788 68.6201 120.811C68.5643 121.328 68.4825 121.845 68.4416 122.362C68.3189 123.909 68.2519 125.456 68.2519 127.003C68.2519 128.55 68.3189 130.101 68.4416 131.648C68.4825 132.165 68.568 132.681 68.6201 133.198C68.7279 134.221 68.8358 135.247 68.9994 136.266C69.0998 136.899 69.2411 137.523 69.3639 138.152C69.5386 139.048 69.706 139.948 69.9217 140.84C70.0853 141.521 70.2898 142.198 70.4758 142.875C70.6505 143.503 70.7919 144.135 70.989 144.76H33.2025L35.0618 146.619H71.6026C71.9298 147.557 72.3166 148.468 72.6922 149.382C72.8818 149.851 73.0454 150.331 73.2463 150.792C73.8896 152.268 74.5925 153.719 75.3548 155.139C75.4441 155.306 75.5519 155.463 75.6411 155.63C76.3254 156.876 77.0468 158.103 77.8204 159.3C78.1067 159.743 78.4302 160.167 78.7277 160.602C79.2632 161.379 79.7764 162.168 80.3491 162.923L67.1735 176.102L65.857 177.418L67.1735 178.735L68.4899 177.418L81.5019 164.406L81.5094 164.399C82.1416 165.18 82.8333 165.901 83.4989 166.645C83.9712 167.177 84.4249 167.735 84.9158 168.248C85.8641 169.237 86.8644 170.159 87.8722 171.078C88.259 171.427 88.6122 171.807 89.0064 172.145C90.4307 173.372 91.9108 174.536 93.4467 175.626C93.7479 175.838 94.0714 176.016 94.3764 176.225C95.5515 177.024 96.7303 177.82 97.965 178.538V209.526L99.8244 211.386V179.575C100.657 180.021 101.52 180.382 102.364 180.788C103.063 181.122 103.751 181.483 104.458 181.788C105.685 182.32 106.938 182.766 108.192 183.208C108.798 183.42 109.393 183.673 110.003 183.867C111.832 184.447 113.684 184.938 115.562 185.336C115.611 185.347 115.659 185.362 115.707 185.373C117.556 185.76 119.426 186.053 121.315 186.262L126.912 196.139L112.554 221.486L111.602 223.163L112.967 224.528L126.257 201.062L127.979 198.02L129.701 201.062L142.992 224.528L144.357 223.163L143.405 221.486L129.047 196.139L134.662 186.224C136.547 186.005 138.41 185.7 140.251 185.31C140.433 185.272 140.612 185.205 140.794 185.168C142.535 184.782 144.256 184.324 145.952 183.781C146.614 183.569 147.257 183.294 147.912 183.056C149.113 182.625 150.314 182.19 151.489 181.68C152.233 181.357 152.958 180.973 153.687 180.62C154.502 180.226 155.331 179.876 156.134 179.441V211.389L157.993 209.53V178.396C159.172 177.701 160.295 176.931 161.419 176.165C161.776 175.92 162.159 175.708 162.508 175.455C164.037 174.358 165.509 173.194 166.926 171.959C167.32 171.617 167.677 171.234 168.064 170.877C169.064 169.958 170.061 169.033 170.998 168.043C171.493 167.523 171.946 166.957 172.422 166.414C173.077 165.671 173.761 164.957 174.382 164.179L174.39 164.187L180.976 170.773L187.55 177.348L188.867 178.664L190.183 177.348L182.218 169.386L175.531 162.703C176.048 162.011 176.513 161.294 177 160.583C177.339 160.085 177.703 159.602 178.03 159.096C178.718 158.021 179.354 156.92 179.968 155.809C180.12 155.537 180.295 155.273 180.44 154.998C181.184 153.607 181.864 152.183 182.497 150.736C182.697 150.275 182.861 149.795 183.047 149.33C183.408 148.438 183.787 147.549 184.103 146.634H220.897L222.756 144.775H184.732L184.739 144.76ZM185.26 121.068C185.308 121.521 185.386 121.975 185.423 122.432C185.546 123.953 185.613 125.478 185.613 127.003C185.613 128.528 185.546 130.045 185.423 131.562C185.382 132.079 185.297 132.588 185.241 133.105C185.133 134.106 185.029 135.11 184.869 136.106C184.772 136.701 184.627 137.293 184.512 137.888C184.334 138.803 184.166 139.714 183.943 140.625C183.794 141.227 183.605 141.822 183.437 142.421C183.218 143.202 183.002 143.983 182.753 144.76H158.161L168.209 127.003L158.161 109.264L182.757 109.246C183.017 110.049 183.24 110.856 183.463 111.663C183.62 112.228 183.802 112.79 183.939 113.355C184.177 114.326 184.36 115.304 184.549 116.282C184.65 116.813 184.78 117.341 184.865 117.873C185.036 118.933 185.148 119.997 185.26 121.06V121.068ZM133.535 184.443C131.791 184.614 130.065 184.711 128.362 184.726C127.987 184.726 127.619 184.722 127.247 184.718C125.633 184.703 124.034 184.629 122.453 184.477L103.636 151.257L99.8244 144.526L99.4339 143.834L89.8989 126.999L99.4302 110.168L99.6645 109.751L99.8206 109.476L109.463 92.4517L122.449 69.5254C123.959 69.3804 125.476 69.3135 127.012 69.2911C127.373 69.2874 127.73 69.2614 128.095 69.2614C129.854 69.2726 131.661 69.3767 133.535 69.5589L155.64 108.591L156.011 109.249L156.298 109.751L157.239 111.417L158.001 112.76L166.071 127.003L158.001 141.246L156.008 144.76L155.636 145.415L133.535 184.443ZM127.983 59.7562L132.449 67.6363C129.363 67.402 126.421 67.3983 123.539 67.6065L123.576 67.5433L123.591 67.5173L127.99 59.7562H127.983ZM178.759 99.8112C178.845 99.9673 178.915 100.131 178.993 100.291C179.611 101.47 180.195 102.663 180.726 103.883C180.916 104.311 181.076 104.753 181.254 105.189C181.552 105.914 181.831 106.65 182.099 107.39H159.474L174.193 92.6711C174.702 93.3554 175.193 94.0508 175.665 94.7573C175.929 95.1478 176.212 95.5271 176.468 95.9213C177.283 97.1931 178.053 98.4873 178.763 99.8112H178.759ZM161.735 80.3099C162.813 81.0946 163.847 81.9313 164.866 82.7866C165.215 83.0804 165.587 83.3481 165.933 83.6531C167.287 84.8431 168.585 86.0926 169.823 87.409C170.02 87.6173 170.191 87.8441 170.384 88.0561C171.307 89.0639 172.192 90.1051 173.047 91.1799L158.001 106.226V77.8555C158.711 78.2943 159.414 78.7443 160.106 79.2091C160.649 79.5773 161.207 79.9269 161.735 80.3099ZM140.452 70.6671C141.675 70.9386 142.877 71.2881 144.078 71.6414C144.695 71.8236 145.32 71.9687 145.93 72.1732C147.566 72.7161 149.18 73.3446 150.772 74.04C150.928 74.107 151.091 74.1553 151.248 74.226C152.906 74.9697 154.535 75.8139 156.138 76.7213V105.694L135.852 69.875C136.651 69.9866 137.447 70.1093 138.239 70.2543C138.976 70.3882 139.719 70.5035 140.452 70.6671ZM105.31 73.8764C106.868 73.2107 108.444 72.6009 110.044 72.0765C110.657 71.8757 111.282 71.7307 111.903 71.5522C113.104 71.2026 114.305 70.8605 115.532 70.5927C116.261 70.4328 117.001 70.325 117.738 70.1911C118.534 70.0498 119.333 69.9308 120.136 69.8229L99.8244 105.694V76.5688C101.431 75.6726 103.056 74.8358 104.715 74.1032C104.912 74.0177 105.116 73.9545 105.313 73.8727L105.31 73.8764ZM86.1021 87.1785C87.3404 85.8769 88.6383 84.6423 89.9845 83.4671C90.3638 83.1362 90.7729 82.8424 91.1633 82.5188C92.1562 81.7007 93.1566 80.89 94.1979 80.1388C94.7408 79.7483 95.3172 79.3913 95.875 79.0195C96.5593 78.5621 97.2547 78.1232 97.9613 77.6919V106.066L82.8444 90.9493C83.6551 89.9378 84.503 88.9598 85.3732 88.0078C85.6224 87.7363 85.8492 87.4425 86.1021 87.1748V87.1785ZM75.0313 103.779C75.537 102.634 76.0874 101.514 76.6638 100.406C76.794 100.157 76.9018 99.9004 77.0357 99.655C77.7534 98.3236 78.5306 97.0221 79.3562 95.7465C79.6314 95.3189 79.9401 94.9135 80.2264 94.4933C80.7024 93.7979 81.1896 93.1099 81.699 92.4331L96.6485 107.383H73.6219C73.8822 106.661 74.1574 105.947 74.4474 105.237C74.6445 104.75 74.8267 104.259 75.035 103.775L75.0313 103.779ZM70.4609 132.96C70.4088 132.496 70.3307 132.031 70.2935 131.566C70.1708 130.045 70.1039 128.524 70.1039 126.999C70.1039 125.474 70.1708 123.953 70.2935 122.432C70.3307 121.964 70.4125 121.499 70.4609 121.031C70.5725 119.978 70.6803 118.922 70.8514 117.877C70.9369 117.341 71.0708 116.81 71.1712 116.274C71.3571 115.3 71.5393 114.329 71.7773 113.362C71.9187 112.79 72.1009 112.224 72.2571 111.655C72.4802 110.852 72.7033 110.045 72.9599 109.249H97.8013L87.7569 127.003L97.8013 144.741L72.9599 144.76C72.6996 143.96 72.4802 143.157 72.2571 142.354C72.1009 141.785 71.9149 141.22 71.7773 140.647C71.5393 139.68 71.3571 138.706 71.1712 137.732C71.0671 137.196 70.9369 136.668 70.8514 136.129C70.6803 135.08 70.5725 134.024 70.4609 132.968V132.96ZM77.032 154.325C76.9353 154.143 76.8535 153.949 76.7568 153.767C76.1432 152.603 75.5668 151.42 75.035 150.215C74.8193 149.732 74.6408 149.234 74.44 148.743C74.1536 148.04 73.8822 147.33 73.6219 146.616H96.6448L81.699 161.561C81.1784 160.866 80.6764 160.159 80.1892 159.445C79.9177 159.051 79.6277 158.668 79.3674 158.267C78.5344 156.98 77.7534 155.667 77.0283 154.325H77.032ZM94.1941 173.845C93.1715 173.108 92.1897 172.312 91.2191 171.513C90.8101 171.175 90.3787 170.866 89.9808 170.52C88.6383 169.349 87.3441 168.114 86.1095 166.82C85.8455 166.545 85.6112 166.236 85.3509 165.953C84.4918 165.012 83.6514 164.046 82.8481 163.045L97.9613 147.932V176.299C97.2621 175.871 96.5667 175.433 95.8862 174.979C95.3209 174.603 94.7408 174.243 94.1904 173.848L94.1941 173.845ZM115.532 183.394C114.309 183.127 113.104 182.785 111.899 182.435C111.282 182.256 110.657 182.111 110.044 181.914C108.433 181.386 106.849 180.776 105.28 180.103C105.09 180.021 104.897 179.966 104.711 179.884C103.052 179.151 101.423 178.315 99.8206 177.418V148.293L107.262 161.431L120.136 184.164C119.329 184.056 118.526 183.937 117.73 183.792C116.998 183.662 116.258 183.554 115.532 183.394ZM123.584 186.477L123.569 186.451C124.919 186.548 126.272 186.589 127.63 186.593C127.708 186.593 127.782 186.604 127.857 186.604H127.897C129.381 186.6 130.88 186.541 132.401 186.425L127.976 194.242L123.576 186.477H123.584ZM150.768 179.955C149.18 180.65 147.566 181.275 145.93 181.818C145.316 182.018 144.691 182.167 144.074 182.349C142.873 182.703 141.672 183.049 140.448 183.324C139.719 183.487 138.976 183.603 138.239 183.737C137.447 183.882 136.651 184.004 135.852 184.116L156.138 148.297V177.273C154.531 178.177 152.906 179.025 151.248 179.765C151.091 179.836 150.928 179.884 150.768 179.955ZM169.808 166.6C168.577 167.909 167.287 169.148 165.944 170.33C165.557 170.672 165.137 170.977 164.739 171.308C163.761 172.123 162.78 172.926 161.749 173.674C161.207 174.068 160.634 174.428 160.076 174.804C159.395 175.265 158.704 175.708 158.001 176.139V147.772L173.043 162.815C172.214 163.86 171.355 164.867 170.466 165.846C170.239 166.091 170.039 166.359 169.812 166.6H169.808ZM180.715 150.141C180.202 151.313 179.641 152.462 179.049 153.596C178.945 153.793 178.86 153.997 178.755 154.195C178.045 155.518 177.279 156.809 176.465 158.077C176.212 158.471 175.929 158.847 175.669 159.234C175.189 159.94 174.698 160.639 174.189 161.327L159.474 146.612H182.099C181.842 147.322 181.574 148.025 181.288 148.724C181.098 149.193 180.923 149.673 180.719 150.137L180.715 150.141Z" fill="#2F354B"/>
<path d="M127.979 15.7788L239.204 127.004L127.979 238.229L16.7578 127L127.979 15.7788ZM127.979 0L120.091 7.88753L8.87025 119.112L0.979004 127L8.87025 134.888L120.095 246.112L127.983 254L135.87 246.112L247.095 134.888L254.986 127L247.095 119.112L135.867 7.88753L127.979 0Z" fill="#2F354B"/>
<path d="M149.764 125.404L134.427 98.7773L127.983 87.5875L121.538 98.7773L106.198 125.404L103.863 129.457L106.503 133.317L121.843 155.719L127.979 164.685L134.115 155.719L149.451 133.317L152.092 129.457L149.756 125.404H149.764ZM127.983 151.521L112.643 129.119L127.983 102.492L143.319 129.119L127.983 151.521Z" fill="#2F354B"/>
<path opacity="0.6" d="M127.984 102.488L143.32 129.115L127.984 151.517L112.644 129.115L127.984 102.488Z" fill="#FF3232"/>
<rect width="179.061" height="26" transform="translate(109 234.615) rotate(-45)" fill="#2F354B"/>
<path d="M125.608 229.388L127.053 227.942L131.703 232.592C132.244 233.134 132.584 233.706 132.723 234.308C132.865 234.908 132.826 235.504 132.607 236.097C132.391 236.687 132.02 237.244 131.495 237.769C130.97 238.295 130.409 238.669 129.813 238.891C129.22 239.11 128.622 239.15 128.02 239.012C127.42 238.87 126.85 238.528 126.308 237.987L121.658 233.337L123.109 231.887L127.759 236.537C128.074 236.853 128.382 237.06 128.682 237.16C128.982 237.26 129.272 237.263 129.552 237.17C129.835 237.073 130.106 236.896 130.364 236.638C130.628 236.374 130.805 236.103 130.896 235.826C130.989 235.546 130.984 235.257 130.881 234.961C130.781 234.661 130.573 234.354 130.258 234.038L125.608 229.388ZM129.441 225.555L133.221 226.686L132.09 222.906L133.748 221.248L135.193 226.782L140.839 228.232L139.166 229.905L135.299 228.764L136.44 232.631L134.758 234.313L133.313 228.663L127.773 227.222L129.441 225.555ZM141.288 220.252L141.767 218.024C141.834 217.692 141.841 217.431 141.786 217.241C141.731 217.05 141.628 216.88 141.477 216.728C141.325 216.577 141.129 216.493 140.887 216.477C140.642 216.457 140.418 216.549 140.215 216.752C140.07 216.897 139.982 217.054 139.949 217.221C139.914 217.386 139.925 217.548 139.983 217.709C140.044 217.867 140.143 218.014 140.278 218.149C140.423 218.294 140.61 218.404 140.839 218.478C141.064 218.549 141.327 218.602 141.627 218.637C141.923 218.67 142.249 218.702 142.603 218.734L149.791 219.28L148.21 220.861L142.371 220.436C141.859 220.381 141.399 220.321 140.993 220.257C140.584 220.189 140.218 220.091 139.896 219.962C139.574 219.833 139.294 219.649 139.055 219.411C138.688 219.044 138.446 218.644 138.33 218.212C138.211 217.777 138.219 217.34 138.354 216.902C138.486 216.461 138.746 216.047 139.132 215.66C139.497 215.296 139.888 215.056 140.307 214.94C140.723 214.82 141.125 214.811 141.515 214.911C141.909 215.007 142.252 215.202 142.545 215.496C142.764 215.715 142.927 215.958 143.033 216.225C143.136 216.49 143.196 216.772 143.212 217.071C143.225 217.368 143.206 217.674 143.154 217.99L142.709 220.629C142.7 220.858 142.717 221.056 142.763 221.224C142.808 221.391 142.867 221.535 142.941 221.654C143.012 221.77 143.091 221.871 143.178 221.958C143.365 222.145 143.573 222.272 143.802 222.34C144.031 222.408 144.259 222.411 144.488 222.35C144.717 222.289 144.928 222.161 145.121 221.968C145.386 221.704 145.584 221.39 145.716 221.025C145.848 220.661 145.904 220.273 145.885 219.86C145.863 219.445 145.759 219.029 145.576 218.613C145.392 218.198 145.12 217.809 144.759 217.448L145.938 216.269C146.299 216.63 146.607 217.009 146.862 217.405C147.113 217.798 147.298 218.212 147.417 218.647C147.533 219.079 147.567 219.532 147.519 220.005C147.516 220.041 147.512 220.092 147.509 220.16C147.506 220.221 147.501 220.271 147.495 220.31C147.434 220.867 147.297 221.375 147.084 221.833C146.868 222.287 146.554 222.72 146.141 223.133C145.671 223.603 145.178 223.926 144.662 224.1C144.15 224.27 143.65 224.299 143.164 224.187C142.68 224.071 142.245 223.819 141.859 223.433C141.575 223.149 141.383 222.848 141.283 222.529C141.183 222.203 141.142 221.852 141.158 221.475C141.174 221.098 141.217 220.69 141.288 220.252ZM155.176 213.896L153.643 215.428L152.522 214.287L154.044 212.765C154.425 212.384 154.66 211.978 154.75 211.546C154.837 211.111 154.781 210.662 154.581 210.198C154.384 209.731 154.051 209.262 153.58 208.791L153.237 208.448C152.876 208.087 152.52 207.808 152.169 207.612C151.821 207.412 151.479 207.293 151.144 207.254C150.809 207.215 150.487 207.257 150.177 207.38C149.865 207.499 149.568 207.699 149.288 207.979L147.712 209.555L146.576 208.419L148.152 206.843C148.623 206.373 149.133 206.023 149.684 205.794C150.235 205.559 150.803 205.446 151.386 205.456C151.969 205.466 152.544 205.599 153.112 205.857C153.679 206.108 154.214 206.485 154.716 206.988L155.05 207.322C155.549 207.821 155.926 208.356 156.181 208.927C156.439 209.494 156.573 210.069 156.582 210.652C156.592 211.229 156.479 211.796 156.244 212.354C156.009 212.905 155.652 213.419 155.176 213.896ZM147.427 207.568L154.465 214.606L153.015 216.056L145.977 209.018L147.427 207.568ZM161.87 207.394C161.464 207.8 161.036 208.1 160.585 208.293C160.13 208.483 159.674 208.575 159.217 208.569C158.762 208.559 158.322 208.461 157.897 208.274C157.468 208.084 157.08 207.815 156.732 207.467L156.539 207.273C156.142 206.877 155.836 206.458 155.62 206.017C155.404 205.575 155.28 205.129 155.248 204.678C155.219 204.223 155.292 203.78 155.466 203.348C155.636 202.913 155.912 202.506 156.292 202.125C156.663 201.755 157.053 201.487 157.462 201.323C157.871 201.159 158.285 201.093 158.704 201.125C159.126 201.154 159.545 201.276 159.961 201.492C160.373 201.705 160.771 202.003 161.155 202.386L161.735 202.967L157.578 207.124L156.65 206.195L159.439 203.406L159.333 203.3C159.139 203.107 158.931 202.97 158.709 202.889C158.487 202.802 158.261 202.783 158.032 202.831C157.803 202.88 157.581 203.012 157.365 203.228C157.182 203.411 157.064 203.609 157.012 203.822C156.961 204.035 156.966 204.256 157.027 204.484C157.091 204.71 157.201 204.942 157.356 205.18C157.51 205.412 157.704 205.644 157.936 205.876L158.129 206.07C158.338 206.279 158.561 206.444 158.796 206.563C159.034 206.679 159.273 206.746 159.511 206.766C159.753 206.782 159.988 206.746 160.217 206.659C160.449 206.569 160.667 206.423 160.87 206.22C161.121 205.968 161.306 205.686 161.426 205.374C161.545 205.055 161.583 204.716 161.542 204.359L162.953 204.417C163.001 204.684 163.003 204.985 162.958 205.321C162.916 205.652 162.81 205.997 162.639 206.355C162.465 206.709 162.209 207.056 161.87 207.394ZM166.095 200.086C165.995 199.986 165.876 199.924 165.737 199.902C165.599 199.879 165.417 199.913 165.191 200.003C164.965 200.087 164.677 200.247 164.326 200.482C164.004 200.688 163.685 200.862 163.369 201.004C163.053 201.139 162.748 201.228 162.455 201.27C162.165 201.309 161.888 201.289 161.624 201.212C161.356 201.131 161.111 200.98 160.889 200.757C160.67 200.538 160.51 200.285 160.41 199.999C160.314 199.709 160.28 199.401 160.309 199.075C160.338 198.743 160.439 198.407 160.614 198.065C160.788 197.717 161.037 197.38 161.363 197.055C161.817 196.6 162.28 196.283 162.75 196.103C163.224 195.919 163.675 195.867 164.103 195.948C164.532 196.022 164.907 196.22 165.23 196.542L163.838 197.935C163.702 197.799 163.552 197.707 163.388 197.659C163.224 197.604 163.051 197.606 162.871 197.664C162.69 197.715 162.507 197.835 162.32 198.022C162.165 198.176 162.059 198.337 162.001 198.505C161.94 198.669 161.923 198.827 161.952 198.979C161.981 199.124 162.049 199.249 162.155 199.356C162.236 199.436 162.325 199.493 162.421 199.525C162.518 199.551 162.631 199.551 162.76 199.525C162.889 199.499 163.037 199.448 163.204 199.37C163.372 199.286 163.565 199.17 163.784 199.022C164.239 198.722 164.677 198.487 165.099 198.316C165.518 198.142 165.921 198.075 166.308 198.113C166.691 198.149 167.054 198.337 167.395 198.679C167.627 198.911 167.788 199.175 167.879 199.472C167.969 199.768 167.99 200.086 167.941 200.424C167.89 200.759 167.769 201.102 167.579 201.454C167.389 201.798 167.126 202.138 166.791 202.473C166.304 202.96 165.805 203.286 165.293 203.45C164.783 203.611 164.308 203.645 163.867 203.551C163.425 203.452 163.063 203.26 162.779 202.976L164.099 201.657C164.295 201.84 164.497 201.945 164.703 201.971C164.912 201.993 165.114 201.959 165.307 201.869C165.504 201.776 165.686 201.645 165.853 201.478C166.034 201.297 166.159 201.123 166.23 200.956C166.298 200.785 166.321 200.627 166.298 200.482C166.275 200.331 166.208 200.198 166.095 200.086ZM166.037 192.574L171.267 197.804L169.87 199.201L164.64 193.971L166.037 192.574ZM163.19 192.695C162.987 192.492 162.89 192.253 162.9 191.979C162.91 191.706 163.034 191.449 163.272 191.211C163.507 190.976 163.762 190.853 164.036 190.844C164.313 190.831 164.553 190.926 164.756 191.129C164.959 191.332 165.054 191.572 165.041 191.849C165.032 192.123 164.909 192.377 164.674 192.613C164.435 192.851 164.179 192.975 163.905 192.985C163.631 192.995 163.393 192.898 163.19 192.695ZM170.498 188.112L171.76 186.851L176.816 191.907C177.293 192.384 177.591 192.895 177.71 193.439C177.836 193.984 177.796 194.53 177.59 195.078C177.387 195.629 177.035 196.154 176.536 196.654C176.317 196.873 176.056 197.076 175.753 197.263C175.453 197.446 175.131 197.588 174.786 197.688C174.444 197.785 174.106 197.814 173.771 197.775L173.563 196.339C173.911 196.365 174.243 196.323 174.559 196.214C174.878 196.107 175.166 195.925 175.424 195.668C175.675 195.416 175.841 195.157 175.922 194.889C176.006 194.625 176.006 194.358 175.922 194.087C175.841 193.819 175.677 193.562 175.429 193.314L171.572 189.456L170.498 188.112ZM169.657 194.309L169.556 194.208C169.156 193.808 168.842 193.397 168.613 192.975C168.385 192.547 168.243 192.124 168.188 191.709C168.136 191.29 168.177 190.885 168.309 190.495C168.441 190.106 168.671 189.746 169 189.418C169.348 189.07 169.704 188.842 170.068 188.736C170.432 188.63 170.809 188.62 171.199 188.707C171.586 188.791 171.982 188.952 172.388 189.19C172.795 189.422 173.212 189.704 173.64 190.036L173.863 190.259C174.179 190.671 174.444 191.082 174.66 191.491C174.876 191.9 175.023 192.302 175.1 192.695C175.174 193.085 175.158 193.462 175.052 193.826C174.949 194.187 174.736 194.528 174.414 194.851C174.092 195.173 173.734 195.398 173.341 195.527C172.951 195.653 172.545 195.689 172.123 195.634C171.7 195.579 171.278 195.44 170.856 195.218C170.437 194.992 170.038 194.69 169.657 194.309ZM170.948 192.816L171.05 192.917C171.265 193.133 171.488 193.314 171.717 193.459C171.945 193.604 172.176 193.705 172.408 193.763C172.64 193.815 172.862 193.815 173.075 193.763C173.288 193.705 173.486 193.584 173.669 193.401C173.924 193.146 174.079 192.885 174.133 192.617C174.185 192.347 174.156 192.076 174.046 191.805C173.937 191.535 173.764 191.269 173.529 191.008L172.896 190.375C172.687 190.178 172.477 190.023 172.268 189.911C172.055 189.795 171.847 189.722 171.644 189.693C171.441 189.664 171.238 189.687 171.035 189.761C170.832 189.835 170.635 189.967 170.445 190.157C170.262 190.341 170.144 190.542 170.092 190.761C170.041 190.974 170.041 191.196 170.092 191.428C170.147 191.657 170.249 191.891 170.397 192.129C170.542 192.365 170.726 192.593 170.948 192.816ZM175.323 185.522L179.436 189.635L178.044 191.027L172.814 185.797L174.119 184.492L175.323 185.522ZM176.434 187.039L176.057 187.416C175.671 187.03 175.373 186.632 175.163 186.222C174.95 185.81 174.825 185.404 174.786 185.004C174.744 184.602 174.789 184.218 174.921 183.854C175.053 183.483 175.274 183.143 175.584 182.834C175.829 182.589 176.088 182.401 176.362 182.268C176.636 182.136 176.923 182.075 177.222 182.085C177.525 182.091 177.843 182.183 178.174 182.36C178.51 182.534 178.861 182.805 179.228 183.172L182.564 186.508L181.162 187.909L177.822 184.569C177.59 184.337 177.377 184.189 177.184 184.125C176.99 184.06 176.805 184.065 176.628 184.139C176.45 184.207 176.272 184.331 176.091 184.511C175.904 184.698 175.779 184.898 175.714 185.111C175.653 185.32 175.643 185.536 175.685 185.758C175.727 185.974 175.812 186.192 175.941 186.411C176.07 186.63 176.235 186.84 176.434 187.039Z" fill="white"/>
<defs>
<linearGradient id="paint0_linear_9381_76178" x1="72.3689" y1="15.7793" x2="72.3689" y2="238.225" gradientUnits="userSpaceOnUse">
<stop stop-color="#E88269"/>
<stop offset="1" stop-color="#E45046"/>
</linearGradient>
<linearGradient id="paint1_linear_9381_76178" x1="183.593" y1="15.7793" x2="183.593" y2="238.225" gradientUnits="userSpaceOnUse">
<stop stop-color="#E45046"/>
<stop offset="1" stop-color="#9D4434"/>
</linearGradient>
</defs>
</svg>
