<svg width="255" height="254" viewBox="0 0 255 254" fill="none" xmlns="http://www.w3.org/2000/svg">
<path d="M127.705 238.225V15.7793L16.4839 127.001L127.705 238.225Z" fill="url(#paint0_linear_9381_76174)"/>
<path d="M238.93 127.001L127.705 15.7793V238.225L238.93 127.001Z" fill="url(#paint1_linear_9381_76174)"/>
<path opacity="0.2" d="M207.41 157.208C203.959 146.754 198.659 137.297 191.653 129.072L177.637 153.403L132.022 232.595L207.41 157.212V157.208Z" fill="#86C340"/>
<path opacity="0.2" d="M123.38 232.588L63.757 129.068C56.7396 137.309 51.4404 146.766 48.0005 157.204L123.384 232.584L123.38 232.588Z" fill="#86C340"/>
<path opacity="0.2" d="M132.026 21.4189L183.993 111.637L191.653 124.931C198.663 116.705 203.959 107.248 207.41 96.7986L132.026 21.4189Z" fill="#86C340"/>
<path opacity="0.2" d="M63.757 124.932L123.399 21.3973L48.0005 96.7956C51.4478 107.245 56.7433 116.702 63.757 124.932Z" fill="#86C340"/>
<path opacity="0.4" d="M187.715 131.851C155.804 164.394 99.0445 164.156 67.3047 131.497L127.705 236.363C141.264 212.823 174.974 154.301 188.109 131.497C187.983 131.62 187.841 131.728 187.715 131.851Z" fill="#86C340"/>
<path d="M127.701 236.362L167.447 167.363L127.701 236.362Z" fill="#828693"/>
<path opacity="0.4" d="M67.6916 122.162C99.6061 89.6115 156.362 89.8533 188.109 122.508L127.705 17.6458C112.904 43.3351 81.901 97.1607 67.2974 122.515C67.4238 122.393 67.5651 122.285 67.6878 122.162H67.6916Z" fill="#86C340"/>
<path d="M188.109 122.508L188.116 122.515L127.705 17.6458L188.109 122.508Z" fill="#828693"/>
<path d="M127.705 17.6458L93.0308 77.8379L127.705 17.6458Z" fill="#828693"/>
<path d="M127.705 15.7788L238.93 127.004L127.705 238.229L16.4839 127L127.705 15.7788ZM127.705 0L119.818 7.88753L8.59633 119.112L0.705078 127L8.59633 134.888L119.821 246.112L127.709 254L135.596 246.112L246.821 134.888L254.713 127L246.821 119.112L135.593 7.88753L127.705 0Z" fill="#2F354B"/>
<path d="M168.156 49.3352L80.8174 200.959L87.259 204.669L174.598 53.0457L168.156 49.3352Z" fill="#2F354B"/>
<path d="M127.705 110.513C118.598 110.513 111.216 117.895 111.216 127.002C111.216 136.11 118.598 143.492 127.705 143.492C136.812 143.492 144.194 136.11 144.194 127.002C144.194 117.895 136.812 110.513 127.705 110.513Z" fill="#98C94A"/>
<path d="M127.705 103.076C114.515 103.076 103.779 113.809 103.779 127.003C103.779 140.197 114.511 150.93 127.705 150.93C140.9 150.93 151.632 140.197 151.632 127.003C151.632 113.809 140.9 103.076 127.705 103.076ZM127.705 143.492C118.598 143.492 111.216 136.11 111.216 127.003C111.216 117.896 118.598 110.514 127.705 110.514C136.813 110.514 144.194 117.896 144.194 127.003C144.194 136.11 136.813 143.492 127.705 143.492Z" fill="#2F354B"/>
<path d="M209.354 157.176C205.766 146.064 200.117 136.064 192.62 127.392L192.847 126.998L192.62 126.608C200.24 117.805 205.955 107.586 209.529 96.2884L128.862 15.6281C128.493 15.4273 127.943 14.1741 127.761 13.817L127.5 14.267L123.387 10.1541L126.537 15.6207L45.877 96.2884C49.447 107.582 55.159 117.802 62.7862 126.611L62.5594 127.006L62.7862 127.396C55.159 136.213 49.4433 146.432 45.877 157.719L126.537 238.383L123.38 243.864L127.698 239.547L132.011 243.861L128.858 238.387L209.526 157.723L209.351 157.18L209.354 157.176ZM132.019 232.593C142.335 214.683 182.126 145.603 191.649 129.069C198.659 137.299 203.959 146.756 207.406 157.206L132.019 232.589V232.593ZM123.395 21.3959L63.7531 124.93C56.7358 116.697 51.4402 107.24 47.9967 96.7942L123.399 21.3996L123.395 21.3959ZM132.026 21.4182L207.41 96.7979C203.955 107.251 198.659 116.708 191.653 124.93C188.797 119.977 136.656 29.4508 132.03 21.4182H132.026ZM167.444 167.362L127.698 236.36L67.2971 131.494C99.1931 164.323 156.206 164.323 188.102 131.494L167.444 167.362ZM65.5642 127.002C97.1292 90.7177 158.27 90.7214 189.835 127.002C158.266 163.282 97.1292 163.282 65.5642 127.002ZM188.105 122.51C156.202 89.6839 99.1931 89.6801 67.2934 122.513C81.8338 97.2664 112.971 43.2103 127.701 17.6437L188.109 122.513H188.105V122.51ZM63.7531 129.066C78.6134 154.867 108.52 206.788 123.376 232.585L48.0004 157.209C51.444 146.767 56.7432 137.31 63.7568 129.073L63.7531 129.066Z" fill="#2F354B"/>
<rect width="179.061" height="40" transform="translate(100 225.615) rotate(-45)" fill="#2F354B"/>
<path d="M123.718 225.091L124.849 226.222L119.861 231.21L118.73 230.079L123.718 225.091ZM118.546 220.064L120.504 230.567L119.484 231.587L118.652 230.756L116.753 220.242L117.739 219.256L118.546 220.064ZM117.241 219.754L118.377 220.89L113.586 225.68L112.451 224.544L117.241 219.754ZM120.185 216.811L127.222 223.848L125.772 225.299L118.734 218.261L120.185 216.811ZM124.4 212.595L125.086 218.86L125.207 222.2L123.573 221.088L123.172 218.512L122.621 214.374L124.4 212.595ZM129.789 221.282L124.462 220.102L124.636 218.13L131.505 219.566L129.789 221.282ZM132.298 213.756L130.505 215.549L129.373 214.418L131.167 212.624C131.444 212.347 131.624 212.077 131.708 211.812C131.789 211.545 131.787 211.289 131.703 211.044C131.62 210.799 131.475 210.573 131.268 210.367C131.059 210.158 130.824 210.003 130.563 209.903C130.302 209.803 130.029 209.785 129.746 209.85C129.462 209.914 129.182 210.085 128.905 210.362L127.614 211.653L133.516 217.555L132.066 219.005L125.028 211.967L127.769 209.226C128.32 208.675 128.892 208.303 129.485 208.11C130.078 207.91 130.653 207.879 131.21 208.018C131.768 208.157 132.27 208.45 132.718 208.898C133.173 209.352 133.461 209.85 133.584 210.391C133.706 210.933 133.659 211.492 133.443 212.069C133.231 212.642 132.849 213.205 132.298 213.756ZM139.742 208.438C139.642 208.339 139.523 208.277 139.384 208.255C139.246 208.232 139.064 208.266 138.838 208.356C138.612 208.44 138.324 208.6 137.973 208.835C137.65 209.041 137.331 209.215 137.016 209.357C136.7 209.492 136.395 209.581 136.102 209.623C135.812 209.661 135.535 209.642 135.271 209.565C135.003 209.484 134.758 209.333 134.536 209.11C134.317 208.891 134.157 208.638 134.057 208.351C133.961 208.061 133.927 207.754 133.956 207.428C133.985 207.096 134.086 206.76 134.26 206.418C134.434 206.07 134.684 205.733 135.01 205.408C135.464 204.953 135.926 204.636 136.397 204.455C136.871 204.272 137.322 204.22 137.75 204.301C138.179 204.375 138.554 204.573 138.877 204.895L137.484 206.287C137.349 206.152 137.199 206.06 137.035 206.012C136.871 205.957 136.698 205.959 136.518 206.017C136.337 206.068 136.154 206.188 135.967 206.374C135.812 206.529 135.706 206.69 135.648 206.858C135.586 207.022 135.57 207.18 135.599 207.332C135.628 207.477 135.696 207.602 135.802 207.709C135.883 207.789 135.972 207.846 136.068 207.878C136.165 207.904 136.278 207.904 136.407 207.878C136.535 207.852 136.684 207.8 136.851 207.723C137.019 207.639 137.212 207.523 137.431 207.375C137.886 207.075 138.324 206.84 138.746 206.669C139.165 206.495 139.568 206.428 139.955 206.466C140.338 206.502 140.701 206.69 141.042 207.032C141.274 207.264 141.435 207.528 141.525 207.825C141.616 208.121 141.637 208.438 141.588 208.777C141.537 209.112 141.416 209.455 141.226 209.806C141.036 210.151 140.773 210.491 140.438 210.826C139.951 211.313 139.452 211.638 138.939 211.803C138.43 211.964 137.955 211.998 137.513 211.904C137.072 211.804 136.709 211.613 136.426 211.329L137.746 210.009C137.942 210.193 138.143 210.298 138.35 210.324C138.559 210.346 138.761 210.312 138.954 210.222C139.151 210.129 139.333 209.998 139.5 209.831C139.681 209.65 139.806 209.476 139.877 209.309C139.945 209.138 139.967 208.98 139.945 208.835C139.922 208.683 139.855 208.551 139.742 208.438ZM145.088 198.848L146.18 199.941L143.449 202.672L142.357 201.579L145.088 198.848ZM152.6 193.454L150.806 195.247L149.675 194.116L151.468 192.323C151.746 192.046 151.926 191.775 152.01 191.511C152.09 191.243 152.089 190.987 152.005 190.742C151.921 190.497 151.776 190.272 151.57 190.065C151.361 189.856 151.125 189.701 150.864 189.601C150.603 189.502 150.331 189.484 150.047 189.548C149.764 189.613 149.483 189.783 149.206 190.061L147.916 191.351L153.818 197.253L152.368 198.703L145.33 191.665L148.07 188.925C148.621 188.374 149.193 188.001 149.786 187.808C150.379 187.608 150.955 187.578 151.512 187.716C152.069 187.855 152.572 188.148 153.02 188.596C153.474 189.05 153.763 189.548 153.885 190.09C154.008 190.631 153.961 191.19 153.745 191.767C153.533 192.341 153.151 192.903 152.6 193.454ZM155.964 186.928L160.053 191.018L158.661 192.41L153.431 187.18L154.741 185.87L155.964 186.928ZM156.365 184.178L157.632 185.493C157.554 185.551 157.464 185.625 157.361 185.715C157.258 185.799 157.167 185.879 157.09 185.957C156.894 186.153 156.749 186.35 156.655 186.546C156.562 186.737 156.515 186.928 156.515 187.122C156.518 187.312 156.565 187.5 156.655 187.687C156.749 187.871 156.881 188.055 157.051 188.238L156.684 188.432C156.346 188.093 156.069 187.748 155.853 187.397C155.634 187.043 155.482 186.695 155.398 186.353C155.318 186.008 155.315 185.683 155.389 185.377C155.463 185.071 155.622 184.795 155.867 184.55C155.945 184.473 156.03 184.4 156.123 184.333C156.214 184.262 156.294 184.21 156.365 184.178ZM158.526 182.085L163.756 187.315L162.359 188.712L157.129 183.482L158.526 182.085ZM155.679 182.206C155.476 182.003 155.379 181.764 155.389 181.49C155.398 181.216 155.522 180.96 155.761 180.722C155.996 180.487 156.251 180.364 156.525 180.354C156.802 180.342 157.042 180.437 157.245 180.64C157.448 180.843 157.543 181.083 157.53 181.36C157.52 181.634 157.398 181.888 157.163 182.124C156.924 182.362 156.668 182.486 156.394 182.496C156.12 182.505 155.882 182.409 155.679 182.206ZM165.67 183.371L162.615 177.996L164.07 176.541L167.536 183.535L166.656 184.415L165.67 183.371ZM160.657 179.953L166.042 183.008L167.077 183.994L166.192 184.879L159.198 181.413L160.657 179.953ZM171.49 177.222L169.16 174.892C168.992 174.725 168.822 174.609 168.648 174.544C168.47 174.477 168.29 174.467 168.106 174.515C167.926 174.56 167.745 174.673 167.565 174.854C167.41 175.008 167.304 175.169 167.246 175.337C167.185 175.501 167.173 175.664 167.212 175.825C167.247 175.983 167.331 176.128 167.463 176.26L166.071 177.652C165.849 177.43 165.689 177.167 165.593 176.865C165.496 176.562 165.47 176.236 165.515 175.888C165.557 175.537 165.67 175.182 165.854 174.825C166.041 174.464 166.303 174.114 166.642 173.776C167.048 173.37 167.476 173.076 167.927 172.896C168.379 172.716 168.83 172.67 169.281 172.761C169.735 172.848 170.165 173.094 170.571 173.5L172.809 175.738C173.096 176.025 173.349 176.243 173.568 176.391C173.784 176.536 173.994 176.642 174.197 176.71L174.279 176.792L172.872 178.199C172.663 178.125 172.434 177.999 172.186 177.822C171.938 177.638 171.706 177.438 171.49 177.222ZM169.668 175.033L170.465 175.811L169.687 176.589C169.503 176.773 169.365 176.953 169.271 177.13C169.178 177.308 169.126 177.478 169.116 177.643C169.104 177.804 169.126 177.955 169.184 178.097C169.245 178.236 169.336 178.365 169.455 178.484C169.574 178.603 169.709 178.684 169.861 178.725C170.009 178.764 170.162 178.759 170.32 178.711C170.475 178.659 170.621 178.564 170.76 178.426C170.969 178.216 171.11 177.992 171.18 177.754C171.251 177.515 171.267 177.293 171.229 177.087C171.193 176.877 171.122 176.716 171.016 176.603L171.973 176.826C172.054 177.01 172.12 177.217 172.171 177.449C172.226 177.678 172.249 177.923 172.239 178.184C172.226 178.442 172.165 178.706 172.055 178.977C171.943 179.244 171.756 179.509 171.495 179.77C171.163 180.102 170.795 180.337 170.393 180.475C169.99 180.607 169.592 180.635 169.199 180.557C168.805 180.474 168.457 180.28 168.155 179.977C167.881 179.704 167.689 179.409 167.579 179.093C167.47 178.777 167.442 178.447 167.497 178.102C167.552 177.751 167.694 177.387 167.923 177.01C168.148 176.629 168.461 176.239 168.86 175.84L169.668 175.033ZM176.314 172.775C176.485 172.604 176.604 172.421 176.672 172.224C176.736 172.024 176.746 171.828 176.701 171.634C176.655 171.435 176.552 171.251 176.391 171.083L177.701 169.773C178.065 170.144 178.294 170.569 178.388 171.05C178.478 171.526 178.442 172.01 178.281 172.5C178.117 172.986 177.833 173.431 177.43 173.834C177.024 174.24 176.602 174.527 176.164 174.694C175.729 174.859 175.292 174.921 174.854 174.883C174.413 174.841 173.982 174.71 173.564 174.491C173.141 174.269 172.747 173.974 172.379 173.607L172.239 173.466C171.868 173.096 171.574 172.701 171.354 172.282C171.132 171.86 171.002 171.43 170.963 170.992C170.921 170.55 170.982 170.112 171.147 169.677C171.311 169.242 171.595 168.823 171.997 168.42C172.426 167.991 172.884 167.698 173.37 167.54C173.86 167.379 174.35 167.36 174.84 167.482C175.329 167.598 175.784 167.862 176.203 168.275L174.893 169.585C174.716 169.414 174.521 169.293 174.308 169.222C174.098 169.148 173.886 169.135 173.67 169.184C173.454 169.226 173.251 169.342 173.061 169.532C172.858 169.735 172.735 169.944 172.693 170.16C172.648 170.373 172.664 170.589 172.742 170.808C172.816 171.024 172.932 171.24 173.09 171.456C173.248 171.665 173.428 171.871 173.631 172.074L173.771 172.214C173.974 172.417 174.182 172.6 174.395 172.761C174.608 172.922 174.822 173.039 175.038 173.114C175.257 173.184 175.473 173.197 175.686 173.152C175.898 173.107 176.108 172.981 176.314 172.775ZM181.268 168.623L178.015 162.595L179.509 161.102L183.424 169.222C183.511 169.4 183.592 169.603 183.666 169.831C183.743 170.057 183.785 170.302 183.792 170.566C183.805 170.83 183.758 171.103 183.652 171.383C183.548 171.66 183.358 171.937 183.081 172.214C182.949 172.347 182.833 172.446 182.733 172.514C182.633 172.582 182.511 172.659 182.366 172.746L181.346 171.726C181.381 171.691 181.418 171.654 181.457 171.615C181.499 171.58 181.538 171.544 181.573 171.509C181.757 171.325 181.886 171.154 181.96 170.996C182.034 170.838 182.063 170.681 182.047 170.523C182.034 170.368 181.981 170.202 181.887 170.025L181.268 168.623ZM176.048 164.563L180.974 167.216L182.646 168.492L181.8 169.541L174.554 166.056L176.048 164.563ZM184.725 163.997L185.653 164.935C186.01 165.293 186.281 165.744 186.465 166.288C186.652 166.83 186.724 167.353 186.682 167.859L185.585 168.212C185.517 167.983 185.448 167.756 185.377 167.531C185.306 167.305 185.208 167.078 185.082 166.849C184.957 166.62 184.781 166.393 184.555 166.167L183.555 165.167L184.725 163.997ZM184.072 152.923L191.11 159.961L189.665 161.406L182.627 154.368L184.072 152.923ZM194.329 154.46L188.045 148.176L189.447 146.774L196.872 154.199L195.61 155.461L194.329 154.46ZM189.612 156.355L189.51 156.253C189.11 155.854 188.793 155.446 188.558 155.031C188.319 154.612 188.169 154.198 188.108 153.788C188.047 153.379 188.079 152.983 188.205 152.599C188.331 152.216 188.556 151.861 188.882 151.536C189.188 151.23 189.52 151.027 189.877 150.927C190.238 150.824 190.619 150.811 191.018 150.888C191.418 150.959 191.829 151.106 192.251 151.328C192.67 151.547 193.092 151.824 193.517 152.159L193.74 152.382C194.059 152.791 194.324 153.202 194.537 153.614C194.75 154.027 194.892 154.433 194.962 154.832C195.033 155.225 195.017 155.603 194.914 155.963C194.811 156.324 194.605 156.659 194.295 156.969C193.97 157.294 193.614 157.518 193.227 157.641C192.844 157.76 192.446 157.787 192.033 157.723C191.624 157.655 191.213 157.505 190.801 157.273C190.388 157.041 189.992 156.735 189.612 156.355ZM190.902 154.861L191.004 154.963C191.22 155.179 191.437 155.364 191.656 155.519C191.879 155.67 192.101 155.78 192.323 155.847C192.546 155.909 192.76 155.917 192.966 155.872C193.172 155.82 193.367 155.702 193.551 155.519C193.789 155.28 193.933 155.031 193.981 154.769C194.026 154.505 193.994 154.238 193.885 153.967C193.778 153.693 193.607 153.426 193.372 153.165L192.739 152.531C192.526 152.338 192.315 152.185 192.106 152.072C191.896 151.953 191.688 151.881 191.482 151.855C191.279 151.826 191.079 151.845 190.883 151.913C190.689 151.977 190.504 152.098 190.327 152.275C190.146 152.456 190.034 152.652 189.989 152.865C189.94 153.074 189.947 153.29 190.008 153.513C190.072 153.732 190.182 153.957 190.337 154.189C190.491 154.415 190.68 154.639 190.902 154.861ZM200.463 150.801C200.057 151.207 199.629 151.507 199.177 151.7C198.723 151.89 198.267 151.982 197.81 151.976C197.355 151.966 196.915 151.868 196.49 151.681C196.061 151.491 195.673 151.222 195.325 150.874L195.132 150.68C194.735 150.284 194.429 149.865 194.213 149.423C193.997 148.982 193.873 148.536 193.841 148.084C193.812 147.63 193.885 147.187 194.059 146.755C194.229 146.32 194.505 145.912 194.885 145.532C195.256 145.162 195.646 144.894 196.055 144.73C196.464 144.565 196.878 144.499 197.297 144.532C197.719 144.561 198.138 144.683 198.554 144.899C198.966 145.112 199.364 145.41 199.748 145.793L200.328 146.373L196.171 150.53L195.243 149.602L198.032 146.813L197.926 146.707C197.732 146.513 197.524 146.377 197.302 146.296C197.08 146.209 196.854 146.19 196.625 146.238C196.396 146.286 196.174 146.418 195.958 146.634C195.775 146.818 195.657 147.016 195.605 147.229C195.554 147.442 195.559 147.662 195.62 147.891C195.684 148.117 195.794 148.349 195.949 148.587C196.103 148.819 196.297 149.051 196.529 149.283L196.722 149.477C196.931 149.686 197.154 149.85 197.389 149.97C197.627 150.086 197.866 150.153 198.104 150.173C198.346 150.189 198.581 150.153 198.81 150.066C199.042 149.976 199.26 149.829 199.463 149.626C199.714 149.375 199.899 149.093 200.019 148.78C200.138 148.461 200.176 148.123 200.135 147.765L201.546 147.823C201.594 148.091 201.596 148.392 201.551 148.727C201.509 149.059 201.403 149.404 201.232 149.762C201.058 150.116 200.802 150.463 200.463 150.801ZM200.555 142.289L204.669 146.402L203.276 147.794L198.046 142.564L199.351 141.259L200.555 142.289ZM201.667 143.807L201.29 144.184C200.903 143.797 200.605 143.399 200.396 142.99C200.183 142.577 200.057 142.171 200.019 141.772C199.977 141.369 200.022 140.985 200.154 140.621C200.286 140.251 200.507 139.911 200.816 139.601C201.061 139.356 201.32 139.168 201.594 139.036C201.868 138.904 202.155 138.842 202.455 138.852C202.758 138.858 203.075 138.95 203.407 139.128C203.742 139.302 204.093 139.572 204.461 139.94L207.796 143.275L206.394 144.677L203.054 141.337C202.822 141.105 202.609 140.956 202.416 140.892C202.223 140.827 202.037 140.832 201.86 140.906C201.683 140.974 201.504 141.098 201.324 141.279C201.137 141.465 201.011 141.665 200.947 141.878C200.885 142.087 200.876 142.303 200.918 142.526C200.96 142.742 201.045 142.959 201.174 143.178C201.303 143.397 201.467 143.607 201.667 143.807ZM206.186 134.424L207.172 135.41L204.127 138.456L203.141 137.47L206.186 134.424ZM202.605 135.425L203.997 134.033L208.942 138.978C209.093 139.129 209.228 139.226 209.348 139.268C209.47 139.306 209.588 139.302 209.701 139.253C209.81 139.202 209.926 139.115 210.049 138.992C210.136 138.905 210.21 138.825 210.271 138.75C210.332 138.67 210.382 138.601 210.421 138.543L211.45 139.563C211.37 139.72 211.271 139.88 211.155 140.041C211.039 140.202 210.898 140.367 210.73 140.534C210.424 140.84 210.107 141.058 209.778 141.187C209.449 141.309 209.111 141.319 208.763 141.216C208.415 141.113 208.057 140.877 207.69 140.51L202.605 135.425ZM208.449 132.162L213.679 137.392L212.282 138.789L207.052 133.559L208.449 132.162ZM205.602 132.283C205.399 132.08 205.302 131.841 205.311 131.568C205.321 131.294 205.445 131.037 205.684 130.799C205.919 130.564 206.174 130.441 206.447 130.432C206.725 130.419 206.965 130.514 207.168 130.717C207.371 130.92 207.466 131.16 207.453 131.437C207.443 131.711 207.321 131.966 207.085 132.201C206.847 132.439 206.591 132.563 206.317 132.573C206.043 132.583 205.805 132.486 205.602 132.283ZM212.161 128.45L213.147 129.436L210.102 132.481L209.116 131.495L212.161 128.45ZM208.579 129.45L209.971 128.058L214.916 133.003C215.068 133.155 215.203 133.251 215.322 133.293C215.445 133.332 215.562 133.327 215.675 133.279C215.785 133.227 215.901 133.14 216.023 133.018C216.11 132.931 216.184 132.85 216.245 132.776C216.307 132.695 216.357 132.626 216.395 132.568L217.425 133.588C217.344 133.746 217.246 133.905 217.13 134.067C217.014 134.228 216.872 134.392 216.705 134.56C216.398 134.866 216.081 135.083 215.752 135.212C215.424 135.335 215.085 135.344 214.737 135.241C214.389 135.138 214.032 134.903 213.664 134.535L208.579 129.45ZM219.146 130.746L215.893 124.718L217.386 123.225L221.302 131.345C221.389 131.522 221.469 131.725 221.543 131.954C221.621 132.18 221.662 132.425 221.669 132.689C221.682 132.953 221.635 133.226 221.529 133.506C221.426 133.783 221.235 134.06 220.958 134.337C220.826 134.469 220.71 134.569 220.61 134.637C220.51 134.705 220.388 134.782 220.243 134.869L219.223 133.849C219.258 133.814 219.296 133.777 219.334 133.738C219.376 133.702 219.415 133.667 219.45 133.632C219.634 133.448 219.763 133.277 219.837 133.119C219.911 132.961 219.94 132.803 219.924 132.645C219.911 132.491 219.858 132.325 219.764 132.148L219.146 130.746ZM213.925 126.685L218.851 129.339L220.523 130.615L219.677 131.664L212.432 128.179L213.925 126.685ZM222.602 126.12L223.53 127.058C223.888 127.415 224.158 127.867 224.342 128.411C224.529 128.953 224.601 129.476 224.559 129.982L223.462 130.335C223.395 130.106 223.325 129.879 223.254 129.653C223.183 129.428 223.085 129.201 222.959 128.972C222.834 128.743 222.658 128.516 222.433 128.29L221.432 127.29L222.602 126.12ZM124.163 232.631L131.201 239.669L129.755 241.115L122.717 234.077L124.163 232.631ZM129.722 232.921L133.835 237.035L132.443 238.427L127.213 233.197L128.518 231.892L129.722 232.921ZM130.833 234.439L130.456 234.816C130.07 234.429 129.771 234.032 129.562 233.622C129.349 233.21 129.224 232.804 129.185 232.404C129.143 232.001 129.188 231.618 129.32 231.254C129.452 230.883 129.673 230.543 129.983 230.234C130.227 229.989 130.487 229.8 130.761 229.668C131.035 229.536 131.321 229.475 131.621 229.485C131.924 229.491 132.241 229.583 132.573 229.76C132.909 229.934 133.26 230.205 133.627 230.572L136.962 233.907L135.561 235.309L132.221 231.969C131.989 231.737 131.776 231.589 131.582 231.524C131.389 231.46 131.204 231.465 131.027 231.539C130.849 231.607 130.671 231.731 130.49 231.911C130.303 232.098 130.177 232.298 130.113 232.51C130.052 232.72 130.042 232.936 130.084 233.158C130.126 233.374 130.211 233.592 130.34 233.811C130.469 234.03 130.633 234.239 130.833 234.439ZM139.795 231.075L138.393 232.477L132.699 226.783C132.303 226.386 132.047 225.975 131.931 225.55C131.815 225.118 131.829 224.691 131.974 224.269C132.119 223.84 132.388 223.43 132.781 223.036C132.91 222.907 133.044 222.793 133.182 222.693C133.318 222.59 133.455 222.495 133.593 222.408L134.628 223.471C134.55 223.517 134.475 223.57 134.401 223.631C134.326 223.692 134.244 223.768 134.154 223.858C133.986 224.026 133.872 224.198 133.811 224.375C133.75 224.546 133.743 224.717 133.792 224.888C133.84 225.058 133.943 225.223 134.101 225.381L139.795 231.075ZM135.609 224.801L136.595 225.787L133.371 229.011L132.385 228.025L135.609 224.801ZM138.872 223.819L142.961 227.909L141.569 229.301L136.339 224.071L137.649 222.761L138.872 223.819ZM139.273 221.069L140.539 222.384C140.462 222.442 140.372 222.516 140.269 222.606C140.166 222.69 140.075 222.771 139.998 222.848C139.801 223.044 139.656 223.241 139.563 223.438C139.47 223.628 139.423 223.819 139.423 224.013C139.426 224.203 139.473 224.391 139.563 224.578C139.656 224.762 139.789 224.946 139.959 225.129L139.592 225.323C139.254 224.984 138.977 224.64 138.761 224.288C138.541 223.934 138.39 223.586 138.306 223.244C138.226 222.899 138.222 222.574 138.297 222.268C138.371 221.962 138.53 221.686 138.775 221.441C138.852 221.364 138.938 221.291 139.031 221.224C139.122 221.153 139.202 221.101 139.273 221.069ZM142.497 220.194L146.586 224.283L145.194 225.676L139.964 220.445L141.274 219.136L142.497 220.194ZM142.898 217.444L144.165 218.759C144.087 218.817 143.997 218.891 143.894 218.981C143.791 219.065 143.701 219.145 143.623 219.223C143.427 219.419 143.282 219.616 143.188 219.812C143.095 220.002 143.048 220.194 143.048 220.387C143.051 220.578 143.098 220.766 143.188 220.953C143.282 221.137 143.414 221.32 143.585 221.504L143.217 221.697C142.879 221.359 142.602 221.014 142.386 220.663C142.167 220.309 142.015 219.961 141.932 219.619C141.851 219.274 141.848 218.949 141.922 218.643C141.996 218.336 142.155 218.061 142.4 217.816C142.478 217.739 142.563 217.666 142.657 217.598C142.747 217.528 142.827 217.476 142.898 217.444ZM150.299 218.212L147.969 215.882C147.801 215.715 147.631 215.599 147.456 215.534C147.279 215.467 147.099 215.457 146.915 215.505C146.735 215.551 146.554 215.663 146.374 215.844C146.219 215.998 146.113 216.16 146.055 216.327C145.993 216.491 145.982 216.654 146.021 216.815C146.056 216.973 146.14 217.118 146.272 217.25L144.88 218.643C144.658 218.42 144.498 218.158 144.402 217.855C144.305 217.552 144.279 217.226 144.324 216.878C144.366 216.527 144.479 216.172 144.663 215.815C144.849 215.454 145.112 215.104 145.45 214.766C145.857 214.36 146.285 214.067 146.736 213.886C147.187 213.706 147.639 213.661 148.09 213.751C148.544 213.838 148.974 214.084 149.38 214.49L151.618 216.728C151.905 217.015 152.158 217.233 152.377 217.381C152.593 217.526 152.803 217.632 153.006 217.7L153.088 217.782L151.681 219.189C151.472 219.115 151.243 218.989 150.995 218.812C150.747 218.628 150.515 218.428 150.299 218.212ZM148.476 216.023L149.274 216.801L148.496 217.579C148.312 217.763 148.173 217.943 148.08 218.12C147.987 218.298 147.935 218.468 147.925 218.633C147.912 218.794 147.935 218.945 147.993 219.087C148.054 219.226 148.144 219.355 148.264 219.474C148.383 219.593 148.518 219.674 148.67 219.716C148.818 219.754 148.971 219.749 149.129 219.701C149.284 219.65 149.43 219.554 149.569 219.416C149.778 219.206 149.918 218.982 149.989 218.744C150.06 218.506 150.076 218.283 150.038 218.077C150.002 217.867 149.931 217.706 149.825 217.594L150.782 217.816C150.863 218 150.929 218.207 150.98 218.439C151.035 218.668 151.058 218.913 151.048 219.174C151.035 219.432 150.974 219.696 150.864 219.967C150.751 220.234 150.565 220.499 150.304 220.76C149.972 221.092 149.604 221.327 149.201 221.465C148.799 221.598 148.401 221.625 148.008 221.548C147.614 221.464 147.266 221.27 146.963 220.968C146.69 220.694 146.498 220.399 146.388 220.083C146.279 219.767 146.251 219.437 146.306 219.092C146.361 218.741 146.503 218.377 146.731 218C146.957 217.619 147.27 217.229 147.669 216.83L148.476 216.023ZM155.335 212.644C155.236 212.544 155.116 212.483 154.978 212.46C154.839 212.438 154.657 212.471 154.432 212.562C154.206 212.645 153.918 212.805 153.566 213.04C153.244 213.246 152.925 213.42 152.609 213.562C152.293 213.698 151.989 213.786 151.696 213.828C151.406 213.867 151.129 213.847 150.864 213.77C150.597 213.69 150.352 213.538 150.13 213.316C149.91 213.097 149.751 212.844 149.651 212.557C149.554 212.267 149.52 211.959 149.55 211.634C149.579 211.302 149.68 210.965 149.854 210.623C150.028 210.275 150.278 209.939 150.603 209.613C151.058 209.159 151.52 208.841 151.991 208.661C152.464 208.477 152.915 208.426 153.344 208.506C153.773 208.58 154.148 208.778 154.47 209.101L153.078 210.493C152.943 210.357 152.793 210.266 152.629 210.217C152.464 210.163 152.292 210.164 152.111 210.222C151.931 210.274 151.747 210.393 151.56 210.58C151.406 210.735 151.299 210.896 151.241 211.063C151.18 211.228 151.164 211.385 151.193 211.537C151.222 211.682 151.29 211.808 151.396 211.914C151.477 211.995 151.565 212.051 151.662 212.083C151.759 212.109 151.871 212.109 152 212.083C152.129 212.057 152.277 212.006 152.445 211.928C152.612 211.845 152.806 211.729 153.025 211.58C153.479 211.281 153.918 211.045 154.34 210.875C154.759 210.701 155.161 210.633 155.548 210.672C155.932 210.707 156.294 210.896 156.636 211.237C156.868 211.469 157.029 211.733 157.119 212.03C157.209 212.326 157.23 212.644 157.182 212.982C157.13 213.317 157.01 213.661 156.819 214.012C156.629 214.357 156.367 214.697 156.032 215.032C155.545 215.518 155.045 215.844 154.533 216.008C154.024 216.169 153.549 216.203 153.107 216.11C152.666 216.01 152.303 215.818 152.02 215.534L153.339 214.215C153.536 214.398 153.737 214.503 153.943 214.529C154.153 214.552 154.354 214.518 154.548 214.427C154.744 214.334 154.926 214.204 155.094 214.036C155.274 213.855 155.4 213.681 155.471 213.514C155.539 213.343 155.561 213.185 155.539 213.04C155.516 212.889 155.448 212.757 155.335 212.644ZM156.37 204.04L157.356 205.026L154.311 208.071L153.325 207.085L156.37 204.04ZM152.788 205.04L154.18 203.648L159.125 208.593C159.277 208.745 159.412 208.841 159.531 208.883C159.654 208.922 159.771 208.917 159.884 208.869C159.994 208.817 160.11 208.73 160.232 208.608C160.319 208.521 160.393 208.44 160.454 208.366C160.516 208.285 160.566 208.216 160.604 208.158L161.634 209.178C161.553 209.336 161.455 209.495 161.339 209.657C161.223 209.818 161.081 209.982 160.914 210.15C160.607 210.456 160.29 210.673 159.961 210.802C159.633 210.925 159.294 210.934 158.946 210.831C158.598 210.728 158.241 210.493 157.873 210.125L152.788 205.04ZM159.696 202.996L163.785 207.085L162.393 208.477L157.163 203.247L158.473 201.937L159.696 202.996ZM160.097 200.245L161.363 201.56C161.286 201.618 161.196 201.692 161.092 201.782C160.989 201.866 160.899 201.947 160.822 202.024C160.625 202.221 160.48 202.417 160.387 202.614C160.293 202.804 160.247 202.996 160.247 203.189C160.25 203.379 160.297 203.568 160.387 203.755C160.48 203.938 160.612 204.122 160.783 204.306L160.416 204.499C160.077 204.161 159.8 203.816 159.584 203.465C159.365 203.11 159.214 202.762 159.13 202.42C159.049 202.076 159.046 201.75 159.12 201.444C159.194 201.138 159.354 200.862 159.599 200.617C159.676 200.54 159.762 200.468 159.855 200.4C159.945 200.329 160.026 200.278 160.097 200.245ZM167.86 200.506L163.882 196.528L165.274 195.136L170.504 200.366L169.194 201.676L167.86 200.506ZM166.941 199.279L167.342 198.858C167.691 199.206 167.974 199.57 168.193 199.95C168.409 200.327 168.546 200.706 168.604 201.086C168.659 201.463 168.625 201.836 168.503 202.203C168.377 202.567 168.148 202.915 167.816 203.247C167.562 203.502 167.291 203.701 167.004 203.846C166.717 203.985 166.419 204.054 166.11 204.054C165.801 204.048 165.48 203.966 165.148 203.808C164.816 203.643 164.476 203.387 164.128 203.039L160.749 199.66L162.141 198.268L165.53 201.657C165.685 201.811 165.833 201.924 165.975 201.995C166.12 202.063 166.26 202.097 166.395 202.097C166.53 202.097 166.658 202.066 166.777 202.005C166.899 201.94 167.017 201.852 167.13 201.739C167.417 201.452 167.584 201.169 167.633 200.888C167.684 200.605 167.644 200.329 167.512 200.062C167.38 199.788 167.189 199.527 166.941 199.279ZM172.737 196.151C172.908 195.98 173.027 195.797 173.095 195.6C173.159 195.4 173.169 195.204 173.124 195.01C173.079 194.811 172.975 194.627 172.814 194.459L174.124 193.149C174.488 193.52 174.717 193.945 174.811 194.425C174.901 194.902 174.865 195.386 174.704 195.876C174.54 196.362 174.256 196.807 173.854 197.21C173.447 197.616 173.025 197.903 172.587 198.07C172.152 198.234 171.715 198.297 171.277 198.259C170.836 198.217 170.405 198.086 169.987 197.867C169.564 197.645 169.17 197.35 168.802 196.983L168.662 196.842C168.292 196.472 167.997 196.077 167.778 195.658C167.555 195.236 167.425 194.806 167.386 194.367C167.344 193.926 167.405 193.488 167.57 193.053C167.734 192.618 168.018 192.199 168.42 191.796C168.849 191.367 169.307 191.074 169.793 190.916C170.283 190.755 170.773 190.736 171.263 190.858C171.752 190.974 172.207 191.238 172.626 191.651L171.316 192.961C171.139 192.79 170.944 192.669 170.731 192.598C170.521 192.524 170.309 192.511 170.093 192.56C169.877 192.602 169.674 192.718 169.484 192.908C169.281 193.111 169.158 193.32 169.116 193.536C169.071 193.749 169.087 193.965 169.165 194.184C169.239 194.4 169.355 194.616 169.513 194.832C169.671 195.041 169.851 195.247 170.054 195.45L170.194 195.59C170.397 195.793 170.605 195.975 170.818 196.137C171.031 196.298 171.245 196.415 171.461 196.489C171.68 196.56 171.896 196.573 172.109 196.528C172.321 196.483 172.531 196.357 172.737 196.151ZM174.061 186.348L175.047 187.334L172.002 190.38L171.016 189.394L174.061 186.348ZM170.48 187.349L171.872 185.957L176.817 190.902C176.968 191.053 177.103 191.15 177.223 191.192C177.345 191.23 177.463 191.226 177.576 191.177C177.685 191.126 177.801 191.039 177.924 190.916C178.011 190.829 178.085 190.749 178.146 190.674C178.207 190.594 178.257 190.525 178.296 190.467L179.325 191.487C179.245 191.644 179.146 191.804 179.03 191.965C178.914 192.126 178.773 192.291 178.605 192.458C178.299 192.764 177.982 192.982 177.653 193.111C177.324 193.233 176.986 193.243 176.638 193.14C176.29 193.037 175.932 192.801 175.565 192.434L170.48 187.349ZM181.926 186.44L177.948 182.462L179.34 181.07L184.57 186.3L183.26 187.61L181.926 186.44ZM181.007 185.212L181.409 184.792C181.757 185.14 182.04 185.504 182.259 185.884C182.475 186.261 182.612 186.64 182.67 187.02C182.725 187.397 182.691 187.769 182.569 188.137C182.443 188.501 182.214 188.849 181.882 189.181C181.628 189.435 181.357 189.635 181.07 189.78C180.784 189.919 180.485 189.988 180.176 189.988C179.867 189.982 179.546 189.899 179.214 189.742C178.882 189.577 178.542 189.321 178.194 188.973L174.815 185.594L176.208 184.202L179.596 187.591C179.751 187.745 179.899 187.858 180.041 187.929C180.186 187.997 180.326 188.03 180.461 188.03C180.597 188.03 180.724 188 180.843 187.939C180.966 187.874 181.083 187.786 181.196 187.673C181.483 187.386 181.65 187.102 181.699 186.822C181.75 186.538 181.71 186.263 181.578 185.995C181.446 185.722 181.256 185.461 181.007 185.212ZM182.936 179.755L187.025 183.844L185.633 185.237L180.403 180.006L181.713 178.696L182.936 179.755ZM183.337 177.005L184.604 178.319C184.526 178.377 184.436 178.452 184.333 178.542C184.23 178.626 184.14 178.706 184.062 178.784C183.866 178.98 183.721 179.177 183.627 179.373C183.534 179.563 183.487 179.755 183.487 179.948C183.49 180.139 183.537 180.327 183.627 180.514C183.721 180.698 183.853 180.881 184.024 181.065L183.656 181.258C183.318 180.92 183.041 180.575 182.825 180.224C182.606 179.869 182.454 179.521 182.371 179.18C182.29 178.835 182.287 178.51 182.361 178.203C182.435 177.897 182.595 177.622 182.839 177.377C182.917 177.3 183.002 177.227 183.096 177.159C183.186 177.088 183.266 177.037 183.337 177.005ZM191.666 179.397C191.26 179.803 190.831 180.103 190.38 180.296C189.926 180.487 189.47 180.578 189.012 180.572C188.558 180.562 188.118 180.464 187.693 180.277C187.264 180.087 186.876 179.818 186.528 179.47L186.334 179.277C185.938 178.88 185.632 178.461 185.416 178.02C185.2 177.578 185.076 177.132 185.044 176.681C185.015 176.226 185.087 175.783 185.261 175.352C185.432 174.917 185.707 174.509 186.088 174.129C186.458 173.758 186.848 173.491 187.257 173.326C187.667 173.162 188.081 173.096 188.5 173.128C188.922 173.157 189.341 173.279 189.757 173.495C190.169 173.708 190.567 174.006 190.95 174.39L191.531 174.97L187.373 179.127L186.445 178.199L189.234 175.41L189.128 175.303C188.935 175.11 188.727 174.973 188.505 174.892C188.282 174.805 188.057 174.786 187.828 174.834C187.599 174.883 187.377 175.015 187.161 175.231C186.977 175.414 186.86 175.613 186.808 175.825C186.756 176.038 186.761 176.259 186.822 176.487C186.887 176.713 186.996 176.945 187.151 177.184C187.306 177.416 187.499 177.648 187.731 177.88L187.925 178.073C188.134 178.282 188.356 178.447 188.592 178.566C188.83 178.682 189.069 178.75 189.307 178.769C189.549 178.785 189.784 178.75 190.013 178.663C190.245 178.572 190.462 178.426 190.665 178.223C190.917 177.971 191.102 177.689 191.221 177.377C191.34 177.058 191.379 176.719 191.337 176.362L192.749 176.42C192.797 176.687 192.799 176.989 192.753 177.324C192.712 177.656 192.605 178 192.434 178.358C192.26 178.713 192.004 179.059 191.666 179.397ZM194.653 173.868L195.581 174.805C195.939 175.163 196.21 175.614 196.393 176.159C196.58 176.7 196.653 177.224 196.611 177.73L195.514 178.083C195.446 177.854 195.377 177.627 195.306 177.401C195.235 177.175 195.136 176.948 195.011 176.719C194.885 176.491 194.71 176.264 194.484 176.038L193.483 175.037L194.653 173.868ZM196.751 166.588L197.229 164.36C197.297 164.028 197.304 163.767 197.249 163.577C197.194 163.386 197.091 163.216 196.939 163.064C196.788 162.913 196.591 162.829 196.35 162.813C196.105 162.793 195.881 162.885 195.678 163.088C195.533 163.233 195.444 163.39 195.412 163.557C195.377 163.722 195.388 163.884 195.446 164.045C195.507 164.203 195.605 164.35 195.741 164.485C195.886 164.63 196.073 164.74 196.301 164.814C196.527 164.885 196.79 164.938 197.089 164.974C197.386 165.006 197.711 165.038 198.066 165.07L205.253 165.616L203.673 167.197L197.834 166.772C197.321 166.717 196.862 166.657 196.456 166.593C196.047 166.525 195.681 166.427 195.359 166.298C195.037 166.169 194.756 165.985 194.518 165.747C194.15 165.38 193.909 164.98 193.793 164.548C193.673 164.113 193.682 163.676 193.817 163.238C193.949 162.797 194.208 162.383 194.595 161.996C194.959 161.632 195.351 161.392 195.77 161.276C196.185 161.156 196.588 161.147 196.978 161.247C197.371 161.343 197.714 161.538 198.008 161.832C198.227 162.051 198.39 162.294 198.496 162.561C198.599 162.826 198.659 163.108 198.675 163.407C198.688 163.704 198.668 164.01 198.617 164.326L198.172 166.965C198.162 167.194 198.18 167.392 198.225 167.56C198.27 167.727 198.33 167.871 198.404 167.99C198.475 168.106 198.554 168.207 198.641 168.294C198.828 168.481 199.036 168.608 199.264 168.676C199.493 168.744 199.722 168.747 199.951 168.686C200.18 168.625 200.391 168.497 200.584 168.304C200.848 168.04 201.047 167.726 201.179 167.361C201.311 166.997 201.367 166.609 201.348 166.196C201.325 165.781 201.222 165.365 201.038 164.949C200.855 164.534 200.582 164.145 200.222 163.784L201.401 162.605C201.762 162.966 202.07 163.345 202.324 163.741C202.576 164.134 202.761 164.548 202.88 164.983C202.996 165.415 203.03 165.868 202.982 166.341C202.978 166.377 202.975 166.428 202.972 166.496C202.969 166.557 202.964 166.607 202.957 166.646C202.896 167.203 202.759 167.711 202.547 168.169C202.331 168.623 202.017 169.056 201.604 169.469C201.134 169.939 200.64 170.262 200.125 170.436C199.613 170.606 199.113 170.635 198.626 170.523C198.143 170.407 197.708 170.155 197.321 169.769C197.038 169.485 196.846 169.184 196.746 168.865C196.646 168.539 196.604 168.188 196.62 167.811C196.637 167.434 196.68 167.026 196.751 166.588ZM205.635 156.94L209.783 161.087L208.386 162.484L203.156 157.254L204.466 155.944L205.635 156.94ZM206.791 158.482L206.404 158.869C206.04 158.504 205.748 158.126 205.529 157.733C205.31 157.333 205.173 156.935 205.118 156.539C205.063 156.136 205.1 155.744 205.229 155.364C205.358 154.984 205.59 154.626 205.925 154.291C206.157 154.059 206.406 153.882 206.67 153.759C206.931 153.634 207.205 153.576 207.492 153.585C207.778 153.588 208.078 153.669 208.391 153.827C208.7 153.982 209.017 154.222 209.343 154.547L212.833 158.037L211.441 159.429L208.105 156.094C207.867 155.855 207.651 155.704 207.458 155.64C207.264 155.575 207.082 155.577 206.911 155.644C206.744 155.709 206.578 155.823 206.414 155.988C206.233 156.168 206.112 156.363 206.051 156.572C205.993 156.779 205.987 156.991 206.032 157.211C206.074 157.426 206.161 157.642 206.293 157.858C206.425 158.074 206.591 158.282 206.791 158.482ZM209.744 155.209L209.309 155.77C208.967 155.428 208.692 155.069 208.482 154.692C208.276 154.312 208.146 153.927 208.091 153.537C208.039 153.144 208.078 152.76 208.207 152.386C208.333 152.009 208.56 151.657 208.888 151.328C209.14 151.077 209.406 150.885 209.686 150.753C209.963 150.617 210.253 150.556 210.556 150.569C210.859 150.575 211.175 150.666 211.504 150.84C211.835 151.01 212.183 151.278 212.548 151.642L215.888 154.982L214.491 156.379L211.151 153.039C210.909 152.797 210.693 152.646 210.503 152.585C210.313 152.517 210.134 152.519 209.966 152.589C209.799 152.654 209.634 152.767 209.473 152.928C209.306 153.095 209.193 153.276 209.135 153.469C209.074 153.659 209.059 153.854 209.091 154.054C209.124 154.254 209.196 154.452 209.309 154.649C209.419 154.842 209.564 155.029 209.744 155.209ZM214.181 151.565L214.08 151.463C213.696 151.08 213.398 150.672 213.186 150.24C212.97 149.805 212.847 149.364 212.818 148.916C212.789 148.468 212.862 148.025 213.036 147.587C213.207 147.145 213.49 146.726 213.887 146.33C214.283 145.933 214.703 145.648 215.148 145.474C215.59 145.297 216.034 145.223 216.482 145.252C216.933 145.278 217.377 145.398 217.812 145.614C218.243 145.827 218.651 146.125 219.034 146.509L219.136 146.61C219.516 146.99 219.814 147.398 220.03 147.833C220.243 148.265 220.364 148.708 220.393 149.162C220.422 149.61 220.349 150.053 220.175 150.492C220.001 150.93 219.716 151.347 219.32 151.744C218.923 152.14 218.504 152.427 218.063 152.604C217.625 152.778 217.18 152.852 216.729 152.826C216.278 152.794 215.836 152.672 215.404 152.459C214.969 152.243 214.562 151.945 214.181 151.565ZM215.472 150.071L215.574 150.173C215.793 150.392 216.017 150.577 216.245 150.728C216.474 150.88 216.703 150.986 216.932 151.048C217.161 151.102 217.385 151.101 217.604 151.043C217.823 150.985 218.032 150.856 218.232 150.656C218.425 150.463 218.551 150.256 218.609 150.037C218.667 149.818 218.667 149.596 218.609 149.37C218.548 149.141 218.442 148.913 218.29 148.684C218.142 148.452 217.958 148.226 217.739 148.007L217.638 147.906C217.425 147.693 217.204 147.514 216.975 147.369C216.747 147.218 216.516 147.113 216.284 147.055C216.052 146.99 215.825 146.986 215.603 147.04C215.38 147.095 215.171 147.221 214.974 147.417C214.778 147.614 214.652 147.823 214.597 148.046C214.546 148.265 214.55 148.492 214.612 148.727C214.673 148.956 214.779 149.185 214.931 149.414C215.079 149.639 215.259 149.858 215.472 150.071ZM219.856 142.835L223.946 146.924L222.553 148.316L217.323 143.086L218.633 141.776L219.856 142.835ZM220.257 140.085L221.524 141.399C221.447 141.457 221.356 141.531 221.253 141.622C221.15 141.706 221.06 141.786 220.982 141.863C220.786 142.06 220.641 142.257 220.547 142.453C220.454 142.643 220.407 142.835 220.407 143.028C220.41 143.218 220.457 143.407 220.547 143.594C220.641 143.778 220.773 143.961 220.944 144.145L220.576 144.338C220.238 144 219.961 143.655 219.745 143.304C219.526 142.949 219.374 142.601 219.291 142.26C219.21 141.915 219.207 141.59 219.281 141.283C219.355 140.977 219.515 140.702 219.76 140.457C219.837 140.379 219.922 140.307 220.016 140.239C220.106 140.168 220.187 140.117 220.257 140.085ZM228.586 142.477C228.18 142.883 227.751 143.183 227.3 143.376C226.846 143.567 226.39 143.658 225.932 143.652C225.478 143.642 225.038 143.544 224.613 143.357C224.184 143.167 223.796 142.898 223.448 142.55L223.254 142.356C222.858 141.96 222.552 141.541 222.336 141.1C222.12 140.658 221.996 140.212 221.964 139.761C221.935 139.306 222.007 138.863 222.181 138.431C222.352 137.996 222.628 137.589 223.008 137.209C223.378 136.838 223.768 136.57 224.178 136.406C224.587 136.242 225.001 136.176 225.42 136.208C225.842 136.237 226.261 136.359 226.677 136.575C227.089 136.788 227.487 137.086 227.871 137.47L228.451 138.05L224.294 142.207L223.366 141.279L226.155 138.489L226.048 138.383C225.855 138.19 225.647 138.053 225.425 137.972C225.202 137.885 224.977 137.866 224.748 137.914C224.519 137.963 224.297 138.095 224.081 138.311C223.897 138.494 223.78 138.692 223.728 138.905C223.676 139.118 223.681 139.339 223.743 139.567C223.807 139.793 223.917 140.025 224.071 140.263C224.226 140.495 224.419 140.727 224.651 140.96L224.845 141.153C225.054 141.362 225.276 141.527 225.512 141.646C225.75 141.762 225.989 141.83 226.227 141.849C226.469 141.865 226.704 141.83 226.933 141.743C227.165 141.652 227.382 141.506 227.585 141.303C227.837 141.051 228.022 140.769 228.141 140.457C228.26 140.138 228.299 139.799 228.257 139.442L229.669 139.5C229.717 139.767 229.719 140.068 229.674 140.404C229.632 140.736 229.525 141.08 229.355 141.438C229.18 141.793 228.924 142.139 228.586 142.477Z" fill="white"/>
<defs>
<linearGradient id="paint0_linear_9381_76174" x1="72.0945" y1="15.7793" x2="72.0945" y2="238.225" gradientUnits="userSpaceOnUse">
<stop stop-color="#B1DCD4"/>
<stop offset="1" stop-color="#00B1A1"/>
</linearGradient>
<linearGradient id="paint1_linear_9381_76174" x1="183.319" y1="15.7793" x2="183.319" y2="238.225" gradientUnits="userSpaceOnUse">
<stop stop-color="#00B3A3"/>
<stop offset="1" stop-color="#577787"/>
</linearGradient>
</defs>
</svg>
