<svg width="346" height="346" viewBox="0 0 346 346" fill="none" xmlns="http://www.w3.org/2000/svg">
<rect width="346" height="346" fill="url(#paint0_radial_8590_68787)"/>
<path d="M300.821 151.95H284.817V202.939H284.818H300.821H316.826V151.95H300.821Z" fill="#1C63AD"/>
<path d="M215.051 151.95L231.055 179.67L247.059 202.939L263.063 179.67H263.063L279.068 151.95H247.059H215.051Z" fill="#1C63AD"/>
<path d="M100.756 151.941L84.7495 179.666L100.756 202.94H132.769L116.763 179.666L132.769 151.941H100.756Z" fill="#1C63AD"/>
<path d="M134.79 175.877L142.625 180.867L150.461 185.858L173.967 200.829L189.638 190.848L213.145 175.877L173.967 107.862L134.79 175.877Z" fill="#1C63AD"/>
<path d="M199.459 192.618L173.983 208.843L162.496 201.493L162.516 201.522L148.6 192.618L148.636 192.67L134.972 183.927L173.967 241.156L213.145 183.927L199.427 192.664L199.459 192.618Z" fill="#1C63AD"/>
<path opacity="0.75" d="M279.513 211.113V210.716L279.284 211.113H279.513Z" fill="#214290"/>
<path d="M300.821 151.95H284.817V202.939H300.821H316.826V151.95H300.821Z" fill="#07AED1"/>
<path d="M279.284 211.113H279.513V210.716L279.284 211.113Z" fill="#0075A2"/>
<path d="M231.055 179.67L247.059 151.95H215.051L231.055 179.67Z" fill="#07AED1"/>
<path d="M263.063 179.67L279.066 151.95H247.059L263.063 179.67Z" fill="#214290"/>
<path d="M247.059 151.95L231.055 179.67H263.063L247.059 151.95Z" fill="#1D6EAD"/>
<path d="M247.059 202.939L263.063 179.67H231.055L247.059 202.939Z" fill="#214290"/>
<path d="M116.762 179.666L132.769 151.941H100.756L116.762 179.666Z" fill="#1D6EAD"/>
<path d="M100.756 151.941L84.7485 179.666H116.762L100.756 151.941Z" fill="#07AED1"/>
<path d="M100.756 202.94L116.762 179.666H84.7485L100.756 202.94Z" fill="#1D6EAD"/>
<path d="M116.762 179.666L100.756 202.94H132.769L116.762 179.666Z" fill="#214290"/>
<path d="M134.79 175.877L173.967 200.829V107.862L134.79 175.877Z" fill="#07AED1"/>
<path d="M213.146 175.877L173.968 200.829V107.862L213.146 175.877Z" fill="#214290"/>
<path d="M142.625 180.868L173.967 200.83V126.456L142.625 180.868Z" fill="#E32227"/>
<path d="M205.31 180.868L173.968 200.83V126.456L205.31 180.868Z" fill="#7F141C"/>
<path d="M150.46 185.857L173.967 200.829V145.049L150.46 185.857Z" fill="#FBCD0B"/>
<path d="M197.475 185.857L173.968 200.829V145.049L197.475 185.857Z" fill="#F68D1E"/>
<path d="M158.296 190.849L173.967 200.83V163.643L158.296 190.849Z" fill="#FBCD0B"/>
<path d="M189.639 190.849L173.968 200.83V163.643L189.639 190.849Z" fill="#F68D1E"/>
<path d="M213.146 183.927L173.968 241.156V208.879L213.146 183.927Z" fill="#214290"/>
<path d="M134.971 183.927L173.967 241.156V208.879L134.971 183.927Z" fill="#07AED1"/>
<path d="M199.457 192.617L173.969 229.849V208.851L199.457 192.617Z" fill="#7F141C"/>
<path d="M148.6 192.617L173.969 229.849V208.851L148.6 192.617Z" fill="#E32227"/>
<path d="M185.524 201.493L173.983 218.352V208.844L185.524 201.493Z" fill="#F68D1E"/>
<path d="M162.496 201.493L173.983 218.352V208.844L162.496 201.493Z" fill="#FBCD0B"/>
<g style="mix-blend-mode:overlay">
<path opacity="0.75" d="M173.966 200.829L179.321 191.532H168.611L173.966 200.829Z" fill="white"/>
<path opacity="0.75" d="M173.966 163.643L179.321 154.347H168.611L173.966 163.643Z" fill="white"/>
<path opacity="0.75" d="M179.321 172.94L184.676 163.643H173.966L179.321 172.94Z" fill="white"/>
<path opacity="0.75" d="M190.031 172.94L195.386 163.643H184.676L190.031 172.94Z" fill="white"/>
<path opacity="0.75" d="M184.677 182.236L190.032 172.939H179.321L184.677 182.236Z" fill="white"/>
<path opacity="0.75" d="M179.322 191.533L184.677 182.236H173.967L179.322 191.533Z" fill="white"/>
<path opacity="0.75" d="M168.611 191.533L173.966 182.236H163.256L168.611 191.533Z" fill="white"/>
<path opacity="0.75" d="M157.901 172.94L152.546 163.643H163.256L157.901 172.94Z" fill="white"/>
<path opacity="0.75" d="M163.255 182.236L157.9 172.939H168.611L163.255 182.236Z" fill="white"/>
<path opacity="0.75" d="M168.611 172.94L163.256 163.643H173.966L168.611 172.94Z" fill="white"/>
<path opacity="0.75" d="M179.322 154.346L184.677 145.05H173.967L179.322 154.346Z" fill="white"/>
<path opacity="0.75" d="M168.611 154.346L163.256 145.05H173.966L168.611 154.346Z" fill="white"/>
</g>
<path d="M30.5723 151.941V202.94L46.5789 177.44L30.5723 151.941Z" fill="#07AED1"/>
<path d="M46.5789 151.941H30.5723L46.5789 177.44L62.5855 151.941H46.5789Z" fill="#1D6EAD"/>
<path d="M46.5789 177.441V177.44L30.5723 202.94H46.5789H62.586L46.5789 177.441Z" fill="#1D6EAD"/>
<path d="M62.5857 151.941L46.5791 177.44V177.441L62.5862 202.94L78.5924 179.666L62.5857 151.941Z" fill="#214290"/>
<path d="M300.821 177.444L284.817 202.939H316.826L316.017 201.651L300.821 177.444Z" fill="#1D6EAD"/>
<path d="M316.826 151.95H284.817L300.821 177.444L316.017 153.239L316.826 151.95Z" fill="#1D6EAD"/>
<path d="M316.018 153.239L300.823 177.444L316.018 201.651L316.827 202.939V151.95L316.018 153.239Z" fill="#214290"/>
<path d="M115.746 275.803V276.926C115.746 278.26 115.579 279.457 115.246 280.515C114.912 281.573 114.432 282.472 113.805 283.212C113.179 283.953 112.426 284.519 111.547 284.909C110.676 285.3 109.7 285.495 108.617 285.495C107.567 285.495 106.603 285.3 105.724 284.909C104.853 284.519 104.097 283.953 103.454 283.212C102.819 282.472 102.326 281.573 101.977 280.515C101.627 279.457 101.452 278.26 101.452 276.926V275.803C101.452 274.468 101.623 273.276 101.964 272.226C102.314 271.168 102.807 270.269 103.441 269.528C104.076 268.78 104.829 268.21 105.7 267.819C106.579 267.429 107.543 267.233 108.593 267.233C109.675 267.233 110.652 267.429 111.522 267.819C112.401 268.21 113.154 268.78 113.781 269.528C114.416 270.269 114.9 271.168 115.233 272.226C115.575 273.276 115.746 274.468 115.746 275.803ZM113.415 276.926V275.778C113.415 274.72 113.305 273.785 113.085 272.971C112.873 272.157 112.56 271.473 112.145 270.92C111.73 270.367 111.221 269.947 110.619 269.663C110.025 269.378 109.35 269.235 108.593 269.235C107.86 269.235 107.197 269.378 106.603 269.663C106.017 269.947 105.513 270.367 105.089 270.92C104.674 271.473 104.353 272.157 104.125 272.971C103.897 273.785 103.783 274.72 103.783 275.778V276.926C103.783 277.992 103.897 278.936 104.125 279.758C104.353 280.572 104.678 281.259 105.102 281.821C105.533 282.374 106.042 282.793 106.627 283.078C107.222 283.363 107.885 283.505 108.617 283.505C109.382 283.505 110.062 283.363 110.656 283.078C111.25 282.793 111.75 282.374 112.157 281.821C112.572 281.259 112.886 280.572 113.097 279.758C113.309 278.936 113.415 277.992 113.415 276.926ZM130.004 279.599H132.348C132.226 280.722 131.904 281.727 131.383 282.614C130.862 283.501 130.126 284.205 129.174 284.726C128.222 285.239 127.034 285.495 125.609 285.495C124.568 285.495 123.62 285.3 122.765 284.909C121.919 284.519 121.19 283.965 120.58 283.249C119.97 282.525 119.498 281.658 119.164 280.649C118.839 279.632 118.676 278.5 118.676 277.255V275.485C118.676 274.24 118.839 273.113 119.164 272.104C119.498 271.087 119.974 270.216 120.592 269.492C121.219 268.767 121.972 268.21 122.851 267.819C123.729 267.429 124.718 267.233 125.817 267.233C127.16 267.233 128.295 267.486 129.223 267.99C130.15 268.495 130.871 269.195 131.383 270.09C131.904 270.977 132.226 272.006 132.348 273.178H130.004C129.89 272.348 129.678 271.636 129.369 271.042C129.06 270.44 128.62 269.976 128.051 269.65C127.481 269.325 126.736 269.162 125.817 269.162C125.028 269.162 124.332 269.313 123.729 269.614C123.135 269.915 122.635 270.342 122.228 270.896C121.829 271.449 121.528 272.112 121.325 272.885C121.121 273.658 121.02 274.517 121.02 275.461V277.255C121.02 278.126 121.109 278.944 121.288 279.709C121.475 280.474 121.756 281.145 122.13 281.723C122.505 282.301 122.981 282.757 123.559 283.09C124.136 283.416 124.82 283.579 125.609 283.579C126.61 283.579 127.408 283.42 128.002 283.103C128.596 282.785 129.044 282.329 129.345 281.735C129.654 281.141 129.874 280.429 130.004 279.599ZM141.759 267.478V285.251H139.44V267.478H141.759ZM147.472 267.478V269.406H133.739V267.478H147.472ZM162.658 267.38V285.251H160.399V270.2L155.846 271.86V269.821L162.304 267.38H162.658ZM176.72 267.38V285.251H174.462V270.2L169.909 271.86V269.821L176.366 267.38H176.72ZM205.06 279.626C205.31 279.093 205.552 278.626 205.785 278.226C206.035 277.826 206.277 277.493 206.51 277.226H191.935V276.176H206.51C206.277 275.893 206.035 275.551 205.785 275.151C205.552 274.751 205.31 274.293 205.06 273.776H205.935C206.985 274.993 208.085 275.893 209.235 276.476V276.926C208.085 277.493 206.985 278.393 205.935 279.626H205.06ZM228.185 267.38V285.251H225.927V270.2L221.374 271.86V269.821L227.831 267.38H228.185ZM246.837 279.27V281.125H233.996V279.794L241.955 267.478H243.798L241.82 271.042L236.559 279.27H246.837ZM244.359 267.478V285.251H242.101V267.478H244.359Z" fill="white"/>
<path d="M91.4911 302.734H89.6055L89.6179 301.761H91.4911C92.1362 301.761 92.6738 301.626 93.1038 301.357C93.5339 301.084 93.8564 300.704 94.0714 300.216C94.2906 299.724 94.4002 299.149 94.4002 298.492V297.94C94.4002 297.423 94.3382 296.964 94.2141 296.563C94.09 296.157 93.9081 295.816 93.6683 295.539C93.4284 295.258 93.1348 295.045 92.7875 294.9C92.4443 294.756 92.0494 294.683 91.6028 294.683H89.5683V293.703H91.6028C92.1941 293.703 92.7337 293.803 93.2217 294.001C93.7096 294.195 94.1293 294.479 94.4808 294.851C94.8364 295.219 95.1094 295.665 95.2996 296.191C95.4898 296.712 95.5849 297.299 95.5849 297.952V298.492C95.5849 299.145 95.4898 299.734 95.2996 300.26C95.1094 300.781 94.8344 301.225 94.4746 301.593C94.119 301.961 93.6889 302.244 93.1845 302.443C92.6841 302.637 92.1197 302.734 91.4911 302.734ZM90.2444 293.703V302.734H89.0473V293.703H90.2444ZM103.121 301.761V302.734H98.3389V301.761H103.121ZM98.5808 293.703V302.734H97.3837V293.703H98.5808ZM102.488 297.586V298.56H98.3389V297.586H102.488ZM103.059 293.703V294.683H98.3389V293.703H103.059ZM107.519 301.364L110.18 293.703H111.476L108.133 302.734H107.209L107.519 301.364ZM105.032 293.703L107.668 301.364L107.996 302.734H107.072L103.735 293.703H105.032ZM118.057 299.863H119.248C119.186 300.433 119.023 300.944 118.758 301.395C118.493 301.845 118.119 302.203 117.635 302.468C117.152 302.728 116.548 302.858 115.824 302.858C115.295 302.858 114.813 302.759 114.379 302.561C113.949 302.362 113.579 302.081 113.269 301.717C112.959 301.349 112.719 300.909 112.549 300.396C112.384 299.879 112.301 299.304 112.301 298.672V297.772C112.301 297.14 112.384 296.567 112.549 296.054C112.719 295.537 112.961 295.095 113.275 294.727C113.593 294.359 113.976 294.075 114.422 293.877C114.869 293.678 115.371 293.579 115.93 293.579C116.612 293.579 117.189 293.707 117.66 293.964C118.132 294.22 118.498 294.576 118.758 295.031C119.023 295.481 119.186 296.004 119.248 296.6H118.057C117.999 296.178 117.892 295.816 117.735 295.514C117.577 295.208 117.354 294.973 117.065 294.807C116.775 294.642 116.397 294.559 115.93 294.559C115.529 294.559 115.175 294.636 114.869 294.789C114.567 294.942 114.313 295.159 114.106 295.44C113.903 295.721 113.75 296.058 113.647 296.451C113.544 296.844 113.492 297.28 113.492 297.76V298.672C113.492 299.114 113.537 299.53 113.628 299.918C113.724 300.307 113.866 300.648 114.056 300.942C114.247 301.235 114.489 301.467 114.782 301.637C115.076 301.802 115.423 301.885 115.824 301.885C116.333 301.885 116.738 301.804 117.04 301.643C117.342 301.481 117.569 301.25 117.722 300.948C117.879 300.646 117.991 300.284 118.057 299.863ZM127.833 297.934V298.504C127.833 299.182 127.748 299.79 127.578 300.328C127.409 300.865 127.165 301.322 126.846 301.699C126.528 302.075 126.145 302.362 125.699 302.561C125.256 302.759 124.76 302.858 124.21 302.858C123.677 302.858 123.187 302.759 122.74 302.561C122.298 302.362 121.913 302.075 121.586 301.699C121.264 301.322 121.014 300.865 120.836 300.328C120.658 299.79 120.569 299.182 120.569 298.504V297.934C120.569 297.255 120.656 296.65 120.83 296.116C121.008 295.579 121.258 295.122 121.58 294.745C121.903 294.365 122.285 294.075 122.728 293.877C123.174 293.678 123.664 293.579 124.198 293.579C124.748 293.579 125.244 293.678 125.686 293.877C126.133 294.075 126.516 294.365 126.834 294.745C127.156 295.122 127.403 295.579 127.572 296.116C127.746 296.65 127.833 297.255 127.833 297.934ZM126.648 298.504V297.921C126.648 297.384 126.592 296.908 126.48 296.494C126.373 296.081 126.214 295.734 126.003 295.452C125.792 295.171 125.533 294.958 125.227 294.814C124.926 294.669 124.582 294.596 124.198 294.596C123.826 294.596 123.489 294.669 123.187 294.814C122.889 294.958 122.633 295.171 122.418 295.452C122.207 295.734 122.043 296.081 121.928 296.494C121.812 296.908 121.754 297.384 121.754 297.921V298.504C121.754 299.046 121.812 299.526 121.928 299.943C122.043 300.357 122.209 300.706 122.424 300.991C122.643 301.273 122.901 301.486 123.199 301.63C123.501 301.775 123.838 301.847 124.21 301.847C124.599 301.847 124.944 301.775 125.246 301.63C125.548 301.486 125.802 301.273 126.009 300.991C126.22 300.706 126.379 300.357 126.487 299.943C126.594 299.526 126.648 299.046 126.648 298.504ZM136.572 293.703V302.734H135.369L130.822 295.769V302.734H129.625V293.703H130.822L135.387 300.687V293.703H136.572ZM144.22 300.005L146.013 293.703H146.881L146.379 296.153L144.45 302.734H143.587L144.22 300.005ZM142.365 293.703L143.792 299.881L144.22 302.734H143.364L141.175 293.703H142.365ZM149.201 299.875L150.596 293.703H151.793L149.61 302.734H148.754L149.201 299.875ZM147.011 293.703L148.754 300.005L149.387 302.734H148.525L146.664 296.153L146.155 293.703H147.011ZM158.858 301.761V302.734H154.076V301.761H158.858ZM154.318 293.703V302.734H153.121V293.703H154.318ZM158.226 297.586V298.56H154.076V297.586H158.226ZM158.796 293.703V294.683H154.076V293.703H158.796ZM166.078 301.761V302.734H161.296V301.761H166.078ZM161.538 293.703V302.734H160.341V293.703H161.538ZM165.446 297.586V298.56H161.296V297.586H165.446ZM166.016 293.703V294.683H161.296V293.703H166.016ZM168.758 293.703V302.734H167.561V293.703H168.758ZM174.21 293.703L170.457 297.915L168.348 300.104L168.15 298.827L169.738 297.078L172.771 293.703H174.21ZM173.056 302.734L169.713 298.33L170.426 297.381L174.483 302.734H173.056ZM186.82 297.754V298.696H178.533V297.754H186.82ZM198.94 298.008V298.436C198.94 299.122 198.847 299.738 198.661 300.284C198.475 300.83 198.212 301.295 197.873 301.68C197.534 302.06 197.129 302.352 196.657 302.554C196.19 302.757 195.671 302.858 195.101 302.858C194.534 302.858 194.015 302.757 193.544 302.554C193.076 302.352 192.671 302.06 192.328 301.68C191.985 301.295 191.718 300.83 191.528 300.284C191.342 299.738 191.249 299.122 191.249 298.436V298.008C191.249 297.317 191.342 296.701 191.528 296.16C191.714 295.614 191.976 295.149 192.316 294.764C192.659 294.379 193.064 294.086 193.531 293.883C194.003 293.681 194.522 293.579 195.088 293.579C195.659 293.579 196.178 293.681 196.645 293.883C197.116 294.086 197.522 294.379 197.861 294.764C198.204 295.149 198.469 295.614 198.655 296.16C198.845 296.701 198.94 297.317 198.94 298.008ZM197.061 298.436V297.996C197.061 297.516 197.017 297.094 196.93 296.73C196.843 296.366 196.715 296.06 196.546 295.812C196.376 295.564 196.169 295.378 195.925 295.254C195.681 295.126 195.402 295.062 195.088 295.062C194.774 295.062 194.495 295.126 194.251 295.254C194.011 295.378 193.806 295.564 193.637 295.812C193.471 296.06 193.345 296.366 193.258 296.73C193.171 297.094 193.128 297.516 193.128 297.996V298.436C193.128 298.911 193.171 299.333 193.258 299.701C193.345 300.065 193.473 300.373 193.643 300.625C193.812 300.874 194.019 301.062 194.263 301.19C194.507 301.318 194.786 301.382 195.101 301.382C195.415 301.382 195.694 301.318 195.938 301.19C196.182 301.062 196.387 300.874 196.552 300.625C196.717 300.373 196.843 300.065 196.93 299.701C197.017 299.333 197.061 298.911 197.061 298.436ZM205.515 299.738H207.369C207.332 300.346 207.165 300.886 206.867 301.357C206.573 301.829 206.162 302.197 205.633 302.461C205.107 302.726 204.475 302.858 203.735 302.858C203.156 302.858 202.637 302.759 202.178 302.561C201.719 302.358 201.326 302.069 200.999 301.692C200.677 301.316 200.431 300.861 200.261 300.328C200.092 299.794 200.007 299.197 200.007 298.535V297.909C200.007 297.247 200.094 296.65 200.267 296.116C200.445 295.579 200.697 295.122 201.024 294.745C201.355 294.369 201.75 294.08 202.209 293.877C202.668 293.674 203.181 293.573 203.747 293.573C204.5 293.573 205.134 293.709 205.651 293.982C206.172 294.255 206.575 294.632 206.861 295.111C207.15 295.591 207.324 296.137 207.382 296.749H205.521C205.5 296.385 205.428 296.077 205.304 295.825C205.18 295.568 204.992 295.376 204.739 295.248C204.491 295.115 204.161 295.049 203.747 295.049C203.437 295.049 203.166 295.107 202.934 295.223C202.703 295.339 202.509 295.514 202.351 295.75C202.194 295.986 202.076 296.284 201.998 296.643C201.923 296.999 201.886 297.417 201.886 297.896V298.535C201.886 299.002 201.921 299.414 201.992 299.769C202.062 300.121 202.169 300.419 202.314 300.663C202.463 300.903 202.653 301.084 202.885 301.209C203.121 301.328 203.404 301.388 203.735 301.388C204.123 301.388 204.444 301.326 204.696 301.202C204.948 301.078 205.141 300.894 205.273 300.65C205.409 300.406 205.49 300.102 205.515 299.738ZM212.443 293.703V302.734H210.589V293.703H212.443ZM215.222 293.703V295.161H207.853V293.703H215.222ZM225.059 293.703V294.665L221.567 302.734H219.682L223.174 295.099H218.677V293.703H225.059ZM236.854 300.067C236.939 299.847 237.032 299.643 237.134 299.457C237.235 299.262 237.35 299.08 237.477 298.911H230.668V297.869H237.477C237.358 297.7 237.248 297.522 237.146 297.336C237.045 297.141 236.952 296.933 236.867 296.713H237.832C238.357 297.331 238.933 297.801 239.56 298.123V298.669C238.933 298.974 238.357 299.44 237.832 300.067H236.854ZM249.603 293.685V302.734H247.817V295.744L245.671 296.426V295.018L249.411 293.685H249.603ZM257.152 293.61H257.413V295.037H257.307C256.836 295.037 256.416 295.107 256.048 295.248C255.68 295.388 255.368 295.589 255.111 295.849C254.859 296.106 254.665 296.416 254.528 296.78C254.396 297.144 254.33 297.551 254.33 298.002V299.503C254.33 299.825 254.361 300.111 254.423 300.359C254.489 300.603 254.582 300.807 254.702 300.973C254.826 301.134 254.971 301.256 255.136 301.339C255.302 301.417 255.488 301.457 255.694 301.457C255.889 301.457 256.064 301.415 256.222 301.333C256.383 301.25 256.519 301.134 256.631 300.985C256.747 300.832 256.834 300.654 256.892 300.452C256.954 300.245 256.985 300.02 256.985 299.776C256.985 299.532 256.954 299.306 256.892 299.1C256.834 298.893 256.747 298.715 256.631 298.566C256.515 298.413 256.375 298.295 256.209 298.213C256.044 298.13 255.858 298.089 255.651 298.089C255.37 298.089 255.122 298.155 254.907 298.287C254.696 298.415 254.53 298.581 254.41 298.783C254.291 298.986 254.226 299.199 254.218 299.422L253.679 299.075C253.691 298.756 253.757 298.455 253.877 298.169C254.001 297.884 254.171 297.632 254.386 297.412C254.605 297.189 254.867 297.016 255.173 296.891C255.479 296.763 255.825 296.699 256.209 296.699C256.631 296.699 257.001 296.78 257.319 296.941C257.642 297.102 257.911 297.324 258.126 297.605C258.341 297.886 258.502 298.211 258.61 298.579C258.717 298.947 258.771 299.339 258.771 299.757C258.771 300.195 258.699 300.603 258.554 300.979C258.413 301.355 258.209 301.684 257.94 301.965C257.675 302.246 257.357 302.466 256.985 302.623C256.612 302.78 256.195 302.858 255.732 302.858C255.252 302.858 254.816 302.772 254.423 302.598C254.034 302.42 253.699 302.172 253.418 301.854C253.137 301.535 252.92 301.157 252.767 300.719C252.618 300.28 252.543 299.801 252.543 299.279V298.585C252.543 297.857 252.649 297.191 252.86 296.588C253.075 295.98 253.383 295.455 253.784 295.012C254.185 294.565 254.669 294.22 255.235 293.976C255.802 293.732 256.441 293.61 257.152 293.61Z" fill="white"/>
<defs>
<radialGradient id="paint0_radial_8590_68787" cx="0" cy="0" r="1" gradientUnits="userSpaceOnUse" gradientTransform="translate(173 173) rotate(90) scale(173)">
<stop stop-color="white"/>
<stop offset="0.0001" stop-color="white" stop-opacity="0.8"/>
<stop offset="0.911458" stop-color="white" stop-opacity="0"/>
</radialGradient>
</defs>
</svg>
