<svg width="494" height="494" viewBox="0 0 494 494" fill="none" xmlns="http://www.w3.org/2000/svg">
<rect width="494" height="494" fill="url(#paint0_radial_8607_68724)"/>
<path d="M429.498 216.946H406.648V289.746H406.649H429.498H452.347V216.946H429.498Z" fill="#1C63AD"/>
<path d="M307.039 216.946L329.888 256.523L352.738 289.746L375.587 256.523H375.588L398.438 216.946H352.738H307.039Z" fill="#1C63AD"/>
<path d="M143.853 216.934L121 256.517L143.853 289.746H189.56L166.707 256.517L189.56 216.934H143.853Z" fill="#1C63AD"/>
<path d="M192.445 251.108L203.632 258.233L214.819 265.357L248.381 286.733L270.755 272.483L304.317 251.108L248.381 154L192.445 251.108Z" fill="#1C63AD"/>
<path d="M284.776 275.009L248.403 298.175L232.003 287.681L232.031 287.722L212.163 275.009L212.214 275.084L192.706 262.601L248.381 344.309L304.317 262.601L284.731 275.075L284.776 275.009Z" fill="#1C63AD"/>
<path opacity="0.75" d="M399.073 301.416V300.849L398.746 301.416H399.073Z" fill="#214290"/>
<path d="M429.498 216.946H406.648V289.746H429.498H452.347V216.946H429.498Z" fill="#07AED1"/>
<path d="M398.746 301.416H399.073V300.849L398.746 301.416Z" fill="#0075A2"/>
<path d="M329.888 256.523L352.738 216.946H307.039L329.888 256.523Z" fill="#07AED1"/>
<path d="M375.588 256.523L398.437 216.946H352.738L375.588 256.523Z" fill="#214290"/>
<path d="M352.738 216.946L329.888 256.523H375.588L352.738 216.946Z" fill="#1D6EAD"/>
<path d="M352.738 289.746L375.588 256.523H329.888L352.738 289.746Z" fill="#214290"/>
<path d="M166.707 256.517L189.56 216.934H143.854L166.707 256.517Z" fill="#1D6EAD"/>
<path d="M143.854 216.934L121 256.517H166.707L143.854 216.934Z" fill="#07AED1"/>
<path d="M143.854 289.746L166.707 256.517H121L143.854 289.746Z" fill="#1D6EAD"/>
<path d="M166.707 256.517L143.854 289.746H189.56L166.707 256.517Z" fill="#214290"/>
<path d="M192.445 251.108L248.381 286.733V154L192.445 251.108Z" fill="#07AED1"/>
<path d="M304.317 251.108L248.381 286.733V154L304.317 251.108Z" fill="#214290"/>
<path d="M203.632 258.233L248.381 286.733V180.547L203.632 258.233Z" fill="#E32227"/>
<path d="M293.129 258.233L248.381 286.733V180.547L293.129 258.233Z" fill="#7F141C"/>
<path d="M214.819 265.358L248.381 286.733V207.094L214.819 265.358Z" fill="#FBCD0B"/>
<path d="M281.943 265.358L248.381 286.733V207.094L281.943 265.358Z" fill="#F68D1E"/>
<path d="M226.006 272.483L248.381 286.733V233.64L226.006 272.483Z" fill="#FBCD0B"/>
<path d="M270.755 272.483L248.381 286.733V233.64L270.755 272.483Z" fill="#F68D1E"/>
<path d="M304.317 262.601L248.381 344.309V298.226L304.317 262.601Z" fill="#214290"/>
<path d="M192.705 262.601L248.381 344.309V298.226L192.705 262.601Z" fill="#07AED1"/>
<path d="M284.776 275.009L248.384 328.167V298.186L284.776 275.009Z" fill="#7F141C"/>
<path d="M212.163 275.009L248.384 328.167V298.186L212.163 275.009Z" fill="#E32227"/>
<path d="M264.882 287.681L248.404 311.751V298.175L264.882 287.681Z" fill="#F68D1E"/>
<path d="M232.003 287.681L248.404 311.751V298.175L232.003 287.681Z" fill="#FBCD0B"/>
<g style="mix-blend-mode:overlay">
<path opacity="0.75" d="M248.381 286.733L256.026 273.459H240.735L248.381 286.733Z" fill="white"/>
<path opacity="0.75" d="M248.381 233.64L256.026 220.367H240.735L248.381 233.64Z" fill="white"/>
<path opacity="0.75" d="M256.026 246.913L263.672 233.64H248.381L256.026 246.913Z" fill="white"/>
<path opacity="0.75" d="M271.318 246.913L278.963 233.64H263.672L271.318 246.913Z" fill="white"/>
<path opacity="0.75" d="M263.672 260.187L271.318 246.914H256.026L263.672 260.187Z" fill="white"/>
<path opacity="0.75" d="M256.026 273.46L263.672 260.187H248.381L256.026 273.46Z" fill="white"/>
<path opacity="0.75" d="M240.735 273.46L248.381 260.187H233.089L240.735 273.46Z" fill="white"/>
<path opacity="0.75" d="M225.444 246.913L217.798 233.64H233.089L225.444 246.913Z" fill="white"/>
<path opacity="0.75" d="M233.089 260.187L225.444 246.914H240.735L233.089 260.187Z" fill="white"/>
<path opacity="0.75" d="M240.735 246.913L233.089 233.64H248.381L240.735 246.913Z" fill="white"/>
<path opacity="0.75" d="M256.026 220.367L263.672 207.094H248.381L256.026 220.367Z" fill="white"/>
<path opacity="0.75" d="M240.735 220.367L233.089 207.094H248.381L240.735 220.367Z" fill="white"/>
</g>
<path d="M43.6499 216.934V289.746L66.5033 253.34L43.6499 216.934Z" fill="#07AED1"/>
<path d="M66.5033 216.934H43.6499L66.5033 253.34L89.3567 216.934H66.5033Z" fill="#1D6EAD"/>
<path d="M66.5033 253.339V253.339L43.6499 289.745H66.5033H89.3573L66.5033 253.339Z" fill="#1D6EAD"/>
<path d="M89.3568 216.934L66.5034 253.34V253.34L89.3574 289.746L112.21 256.517L89.3568 216.934Z" fill="#214290"/>
<path d="M429.498 253.346L406.648 289.746H452.347L451.193 287.906L429.498 253.346Z" fill="#1D6EAD"/>
<path d="M452.347 216.946H406.648L429.498 253.346L451.193 218.786L452.347 216.946Z" fill="#1D6EAD"/>
<path d="M451.193 218.786L429.498 253.346L451.193 287.906L452.348 289.746V216.946L451.193 218.786Z" fill="#214290"/>
<path d="M165.309 393.605V394.818C165.309 396.764 165.045 398.51 164.518 400.057C163.99 401.604 163.246 402.922 162.285 404.012C161.324 405.09 160.176 405.916 158.84 406.49C157.516 407.064 156.045 407.352 154.428 407.352C152.822 407.352 151.352 407.064 150.016 406.49C148.691 405.916 147.543 405.09 146.57 404.012C145.598 402.922 144.842 401.604 144.303 400.057C143.775 398.51 143.512 396.764 143.512 394.818V393.605C143.512 391.648 143.775 389.902 144.303 388.367C144.83 386.82 145.574 385.502 146.535 384.412C147.508 383.322 148.656 382.49 149.98 381.916C151.316 381.342 152.787 381.055 154.393 381.055C156.01 381.055 157.48 381.342 158.805 381.916C160.141 382.49 161.289 383.322 162.25 384.412C163.223 385.502 163.973 386.82 164.5 388.367C165.039 389.902 165.309 391.648 165.309 393.605ZM159.982 394.818V393.57C159.982 392.211 159.859 391.016 159.613 389.984C159.367 388.953 159.004 388.086 158.523 387.383C158.043 386.68 157.457 386.152 156.766 385.801C156.074 385.438 155.283 385.256 154.393 385.256C153.502 385.256 152.711 385.438 152.02 385.801C151.34 386.152 150.76 386.68 150.279 387.383C149.811 388.086 149.453 388.953 149.207 389.984C148.961 391.016 148.838 392.211 148.838 393.57V394.818C148.838 396.166 148.961 397.361 149.207 398.404C149.453 399.436 149.816 400.309 150.297 401.023C150.777 401.727 151.363 402.26 152.055 402.623C152.746 402.986 153.537 403.168 154.428 403.168C155.318 403.168 156.109 402.986 156.801 402.623C157.492 402.26 158.072 401.727 158.541 401.023C159.01 400.309 159.367 399.436 159.613 398.404C159.859 397.361 159.982 396.166 159.982 394.818ZM183.941 398.51H189.197C189.092 400.232 188.617 401.762 187.773 403.098C186.941 404.434 185.775 405.477 184.275 406.227C182.787 406.977 180.994 407.352 178.896 407.352C177.256 407.352 175.785 407.07 174.484 406.508C173.184 405.934 172.07 405.113 171.145 404.047C170.23 402.98 169.533 401.691 169.053 400.18C168.572 398.668 168.332 396.975 168.332 395.1V393.324C168.332 391.449 168.578 389.756 169.07 388.244C169.574 386.721 170.289 385.426 171.215 384.359C172.152 383.293 173.271 382.473 174.572 381.898C175.873 381.324 177.326 381.037 178.932 381.037C181.064 381.037 182.863 381.424 184.328 382.197C185.805 382.971 186.947 384.037 187.756 385.396C188.576 386.756 189.068 388.303 189.232 390.037H183.959C183.9 389.006 183.695 388.133 183.344 387.418C182.992 386.691 182.459 386.146 181.744 385.783C181.041 385.408 180.104 385.221 178.932 385.221C178.053 385.221 177.285 385.385 176.629 385.713C175.973 386.041 175.422 386.539 174.977 387.207C174.531 387.875 174.197 388.719 173.975 389.738C173.764 390.746 173.658 391.93 173.658 393.289V395.1C173.658 396.424 173.758 397.59 173.957 398.598C174.156 399.594 174.461 400.438 174.871 401.129C175.293 401.809 175.832 402.324 176.488 402.676C177.156 403.016 177.959 403.186 178.896 403.186C179.998 403.186 180.906 403.01 181.621 402.658C182.336 402.307 182.881 401.785 183.256 401.094C183.643 400.402 183.871 399.541 183.941 398.51ZM203.576 381.406V407H198.32V381.406H203.576ZM211.451 381.406V385.537H190.568V381.406H211.451ZM234.285 381.354V407H229.223V387.189L223.141 389.123V385.133L233.74 381.354H234.285ZM254.957 381.354V407H249.895V387.189L243.812 389.123V385.133L254.412 381.354H254.957ZM293.428 399.44C293.668 398.816 293.932 398.24 294.22 397.712C294.508 397.16 294.832 396.644 295.192 396.164H275.896V393.212H295.192C294.856 392.732 294.544 392.228 294.256 391.7C293.968 391.148 293.704 390.56 293.464 389.936H296.2C297.688 391.688 299.32 393.02 301.096 393.932V395.48C299.32 396.344 297.688 397.664 296.2 399.44H293.428ZM329.559 381.354V407H324.496V387.189L318.414 389.123V385.133L329.014 381.354H329.559ZM355.82 397.438V401.41H337.381L337.135 398.334L347.805 381.406H351.83L347.471 388.701L342.162 397.438H355.82ZM352.92 381.406V407H347.857V381.406H352.92Z" fill="white"/>
<path d="M130.986 433H128.294L128.311 431.61H130.986C131.907 431.61 132.674 431.418 133.288 431.034C133.902 430.644 134.363 430.101 134.67 429.405C134.983 428.702 135.139 427.881 135.139 426.943V426.154C135.139 425.416 135.051 424.761 134.874 424.188C134.696 423.61 134.437 423.123 134.094 422.727C133.752 422.326 133.333 422.022 132.837 421.815C132.347 421.608 131.783 421.505 131.145 421.505H128.241V420.106H131.145C131.989 420.106 132.76 420.248 133.457 420.531C134.153 420.808 134.753 421.213 135.254 421.744C135.762 422.27 136.152 422.907 136.423 423.657C136.695 424.401 136.831 425.239 136.831 426.172V426.943C136.831 427.875 136.695 428.717 136.423 429.467C136.152 430.21 135.759 430.845 135.245 431.371C134.738 431.896 134.124 432.3 133.403 432.584C132.689 432.861 131.883 433 130.986 433ZM129.206 420.106V433H127.497V420.106H129.206ZM147.591 431.61V433H140.763V431.61H147.591ZM141.108 420.106V433H139.399V420.106H141.108ZM146.687 425.65V427.04H140.763V425.65H146.687ZM147.502 420.106V421.505H140.763V420.106H147.502ZM153.869 431.043L157.668 420.106H159.519L154.746 433H153.427L153.869 431.043ZM150.318 420.106L154.082 431.043L154.551 433H153.232L148.467 420.106H150.318ZM168.915 428.9H170.616C170.527 429.714 170.294 430.444 169.916 431.087C169.538 431.731 169.004 432.241 168.313 432.619C167.622 432.991 166.76 433.177 165.727 433.177C164.972 433.177 164.284 433.035 163.664 432.752C163.05 432.469 162.521 432.067 162.079 431.548C161.636 431.022 161.293 430.393 161.051 429.661C160.815 428.923 160.697 428.103 160.697 427.199V425.915C160.697 425.012 160.815 424.194 161.051 423.462C161.293 422.724 161.639 422.093 162.088 421.567C162.542 421.042 163.088 420.637 163.726 420.354C164.363 420.07 165.081 419.929 165.878 419.929C166.852 419.929 167.676 420.112 168.349 420.478C169.022 420.844 169.544 421.352 169.916 422.001C170.294 422.645 170.527 423.391 170.616 424.242H168.915C168.833 423.639 168.679 423.123 168.455 422.692C168.231 422.255 167.912 421.918 167.498 421.682C167.085 421.446 166.545 421.328 165.878 421.328C165.305 421.328 164.8 421.437 164.363 421.656C163.932 421.874 163.569 422.184 163.274 422.586C162.985 422.987 162.766 423.468 162.619 424.029C162.471 424.59 162.397 425.213 162.397 425.898V427.199C162.397 427.831 162.462 428.424 162.592 428.979C162.728 429.534 162.932 430.021 163.203 430.441C163.475 430.86 163.82 431.19 164.239 431.433C164.659 431.669 165.155 431.787 165.727 431.787C166.453 431.787 167.032 431.672 167.463 431.441C167.894 431.211 168.219 430.881 168.437 430.45C168.662 430.019 168.821 429.502 168.915 428.9ZM182.872 426.146V426.96C182.872 427.929 182.751 428.796 182.509 429.564C182.267 430.331 181.919 430.984 181.464 431.521C181.009 432.058 180.463 432.469 179.826 432.752C179.194 433.035 178.486 433.177 177.7 433.177C176.939 433.177 176.239 433.035 175.602 432.752C174.97 432.469 174.421 432.058 173.954 431.521C173.494 430.984 173.137 430.331 172.883 429.564C172.629 428.796 172.502 427.929 172.502 426.96V426.146C172.502 425.177 172.626 424.312 172.874 423.551C173.128 422.783 173.485 422.131 173.945 421.594C174.406 421.051 174.952 420.637 175.584 420.354C176.221 420.07 176.921 419.929 177.683 419.929C178.468 419.929 179.176 420.07 179.808 420.354C180.446 420.637 180.992 421.051 181.446 421.594C181.907 422.131 182.258 422.783 182.5 423.551C182.748 424.312 182.872 425.177 182.872 426.146ZM181.181 426.96V426.128C181.181 425.36 181.101 424.681 180.942 424.091C180.788 423.501 180.561 423.005 180.26 422.603C179.959 422.202 179.59 421.898 179.153 421.691C178.722 421.484 178.232 421.381 177.683 421.381C177.151 421.381 176.67 421.484 176.239 421.691C175.814 421.898 175.448 422.202 175.141 422.603C174.84 423.005 174.607 423.501 174.441 424.091C174.276 424.681 174.193 425.36 174.193 426.128V426.96C174.193 427.734 174.276 428.419 174.441 429.015C174.607 429.605 174.843 430.104 175.15 430.512C175.463 430.913 175.832 431.217 176.257 431.424C176.688 431.63 177.169 431.734 177.7 431.734C178.255 431.734 178.748 431.63 179.179 431.424C179.61 431.217 179.973 430.913 180.269 430.512C180.57 430.104 180.797 429.605 180.95 429.015C181.104 428.419 181.181 427.734 181.181 426.96ZM195.35 420.106V433H193.632L187.141 423.055V433H185.432V420.106H187.141L193.659 430.078V420.106H195.35ZM206.269 429.103L208.829 420.106H210.068L209.351 423.604L206.597 433H205.366L206.269 429.103ZM203.621 420.106L205.658 428.926L206.269 433H205.047L201.921 420.106H203.621ZM213.381 428.917L215.373 420.106H217.082L213.965 433H212.743L213.381 428.917ZM210.254 420.106L212.743 429.103L213.646 433H212.415L209.758 423.604L209.032 420.106H210.254ZM227.169 431.61V433H220.341V431.61H227.169ZM220.687 420.106V433H218.977V420.106H220.687ZM226.266 425.65V427.04H220.341V425.65H226.266ZM227.08 420.106V421.505H220.341V420.106H227.08ZM237.477 431.61V433H230.649V431.61H237.477ZM230.995 420.106V433H229.286V420.106H230.995ZM236.574 425.65V427.04H230.649V425.65H236.574ZM237.389 420.106V421.505H230.649V420.106H237.389ZM241.303 420.106V433H239.594V420.106H241.303ZM249.087 420.106L243.729 426.119L240.718 429.245L240.435 427.421L242.702 424.923L247.033 420.106H249.087ZM247.44 433L242.667 426.712L243.685 425.357L249.477 433H247.44ZM267.091 425.889V427.235H255.26V425.889H267.091ZM284.395 426.252V426.863C284.395 427.843 284.263 428.723 283.997 429.502C283.731 430.281 283.356 430.945 282.872 431.495C282.388 432.038 281.81 432.454 281.137 432.743C280.469 433.032 279.728 433.177 278.914 433.177C278.105 433.177 277.364 433.032 276.691 432.743C276.024 432.454 275.445 432.038 274.955 431.495C274.465 430.945 274.084 430.281 273.813 429.502C273.547 428.723 273.414 427.843 273.414 426.863V426.252C273.414 425.266 273.547 424.386 273.813 423.613C274.078 422.834 274.453 422.169 274.937 421.62C275.427 421.071 276.006 420.652 276.673 420.363C277.346 420.073 278.087 419.929 278.896 419.929C279.711 419.929 280.452 420.073 281.119 420.363C281.792 420.652 282.37 421.071 282.855 421.62C283.345 422.169 283.722 422.834 283.988 423.613C284.26 424.386 284.395 425.266 284.395 426.252ZM281.712 426.863V426.234C281.712 425.549 281.65 424.947 281.526 424.428C281.402 423.908 281.219 423.471 280.977 423.117C280.735 422.763 280.44 422.497 280.092 422.32C279.743 422.137 279.345 422.045 278.896 422.045C278.447 422.045 278.049 422.137 277.7 422.32C277.358 422.497 277.066 422.763 276.824 423.117C276.588 423.471 276.407 423.908 276.284 424.428C276.16 424.947 276.098 425.549 276.098 426.234V426.863C276.098 427.542 276.16 428.144 276.284 428.669C276.407 429.189 276.591 429.629 276.833 429.989C277.075 430.343 277.37 430.612 277.718 430.795C278.066 430.978 278.465 431.069 278.914 431.069C279.362 431.069 279.761 430.978 280.109 430.795C280.458 430.612 280.75 430.343 280.986 429.989C281.222 429.629 281.402 429.189 281.526 428.669C281.65 428.144 281.712 427.542 281.712 426.863ZM293.783 428.723H296.431C296.377 429.591 296.138 430.361 295.713 431.034C295.294 431.707 294.707 432.232 293.951 432.61C293.201 432.988 292.298 433.177 291.241 433.177C290.414 433.177 289.674 433.035 289.018 432.752C288.363 432.463 287.802 432.049 287.336 431.512C286.875 430.975 286.524 430.326 286.282 429.564C286.04 428.802 285.919 427.949 285.919 427.005V426.11C285.919 425.166 286.043 424.312 286.291 423.551C286.544 422.783 286.905 422.131 287.371 421.594C287.843 421.056 288.407 420.643 289.062 420.354C289.718 420.065 290.45 419.92 291.259 419.92C292.333 419.92 293.239 420.115 293.977 420.504C294.721 420.894 295.297 421.431 295.704 422.116C296.118 422.801 296.366 423.58 296.448 424.454H293.791C293.762 423.935 293.659 423.495 293.482 423.135C293.304 422.769 293.036 422.494 292.676 422.311C292.321 422.122 291.849 422.028 291.259 422.028C290.816 422.028 290.429 422.11 290.099 422.276C289.768 422.441 289.491 422.692 289.266 423.028C289.042 423.365 288.874 423.79 288.761 424.304C288.655 424.811 288.602 425.408 288.602 426.092V427.005C288.602 427.672 288.652 428.259 288.753 428.767C288.853 429.269 289.006 429.694 289.213 430.042C289.426 430.385 289.697 430.644 290.028 430.821C290.364 430.993 290.769 431.078 291.241 431.078C291.796 431.078 292.254 430.99 292.614 430.813C292.974 430.635 293.248 430.373 293.437 430.024C293.632 429.676 293.747 429.242 293.783 428.723ZM303.675 420.106V433H301.027V420.106H303.675ZM307.642 420.106V422.187H297.121V420.106H307.642ZM321.687 420.106V421.479L316.702 433H314.009L318.995 422.098H312.575V420.106H321.687ZM338.527 429.191C338.648 428.877 338.781 428.587 338.926 428.321C339.072 428.043 339.235 427.783 339.416 427.541H329.695V426.054H339.416C339.247 425.812 339.09 425.558 338.945 425.292C338.799 425.014 338.666 424.718 338.546 424.403H339.924C340.674 425.286 341.496 425.957 342.391 426.416V427.196C341.496 427.632 340.674 428.297 339.924 429.191H338.527ZM356.73 420.079V433H354.179V423.019L351.115 423.994V421.983L356.455 420.079H356.73ZM367.507 419.973H367.879V422.01H367.729C367.056 422.01 366.457 422.11 365.931 422.311C365.406 422.512 364.96 422.798 364.594 423.17C364.234 423.536 363.956 423.979 363.761 424.498C363.573 425.018 363.478 425.599 363.478 426.243V428.386C363.478 428.847 363.522 429.254 363.611 429.608C363.705 429.957 363.838 430.249 364.009 430.485C364.187 430.715 364.393 430.889 364.629 431.007C364.865 431.12 365.131 431.176 365.426 431.176C365.704 431.176 365.955 431.117 366.179 430.999C366.409 430.881 366.604 430.715 366.764 430.503C366.929 430.284 367.053 430.03 367.136 429.741C367.224 429.446 367.268 429.124 367.268 428.776C367.268 428.427 367.224 428.106 367.136 427.81C367.053 427.515 366.929 427.261 366.764 427.049C366.598 426.83 366.398 426.662 366.161 426.544C365.925 426.426 365.66 426.367 365.364 426.367C364.963 426.367 364.609 426.461 364.302 426.65C364.001 426.833 363.764 427.07 363.593 427.359C363.422 427.648 363.33 427.952 363.319 428.271L362.548 427.775C362.566 427.32 362.66 426.889 362.832 426.482C363.009 426.075 363.251 425.715 363.558 425.402C363.871 425.083 364.246 424.835 364.682 424.658C365.119 424.475 365.612 424.383 366.161 424.383C366.764 424.383 367.292 424.498 367.747 424.729C368.207 424.959 368.591 425.275 368.898 425.676C369.205 426.078 369.435 426.541 369.589 427.067C369.742 427.592 369.819 428.153 369.819 428.749C369.819 429.375 369.716 429.957 369.509 430.494C369.308 431.031 369.016 431.5 368.632 431.902C368.254 432.303 367.8 432.616 367.268 432.841C366.737 433.065 366.141 433.177 365.479 433.177C364.795 433.177 364.172 433.053 363.611 432.805C363.056 432.551 362.578 432.197 362.176 431.742C361.775 431.288 361.465 430.748 361.246 430.122C361.034 429.496 360.928 428.811 360.928 428.067V427.075C360.928 426.036 361.078 425.086 361.379 424.224C361.686 423.356 362.126 422.606 362.699 421.974C363.271 421.337 363.962 420.844 364.771 420.496C365.58 420.147 366.492 419.973 367.507 419.973Z" fill="white"/>
<defs>
<radialGradient id="paint0_radial_8607_68724" cx="0" cy="0" r="1" gradientUnits="userSpaceOnUse" gradientTransform="translate(247 247) rotate(90) scale(247)">
<stop stop-color="white"/>
<stop offset="0.0001" stop-color="white" stop-opacity="0.8"/>
<stop offset="0.911458" stop-color="white" stop-opacity="0"/>
</radialGradient>
</defs>
</svg>
